<svg xmlns="http://www.w3.org/2000/svg" xmlns:xlink="http://www.w3.org/1999/xlink" viewBox="0 0 200 200"><defs><style>.cls-1{fill:none;}.cls-2{isolation:isolate;}.cls-3{mix-blend-mode:multiply;}.cls-4{fill:#e44626;}.cls-5{clip-path:url(#clip-path);}.cls-6{fill:#b8e4f1;}.cls-7{fill:#b7e3f1;}.cls-8{fill:#b5e3f0;}.cls-9{fill:#b4e2f0;}.cls-10{fill:#b2e2f0;}.cls-11{fill:#b1e1f0;}.cls-12{fill:#b0e1ef;}.cls-13{fill:#aee0ef;}.cls-14{fill:#ade0ef;}.cls-15{fill:#abdfef;}.cls-16{fill:#aadfee;}.cls-17{fill:#a9deee;}.cls-18{fill:#a7deee;}.cls-19{fill:#a6dded;}.cls-20{fill:#a5dded;}.cls-21{fill:#a3dced;}.cls-22{fill:#a2dced;}.cls-23{fill:#a1dbec;}.cls-24{fill:#9fdbec;}.cls-25{fill:#9edaec;}.cls-26{fill:#9cdaec;}.cls-27{fill:#9bd9eb;}.cls-28{fill:#9ad9eb;}.cls-29{fill:#98d8eb;}.cls-30{fill:#97d8eb;}.cls-31{fill:#96d7ea;}.cls-32{fill:#95d7ea;}.cls-33{fill:#93d7ea;}.cls-34{fill:#92d6e9;}.cls-35{fill:#91d6e9;}.cls-36{fill:#8fd5e9;}.cls-37{fill:#8ed5e9;}.cls-38{fill:#8dd4e8;}.cls-39{fill:#8cd4e8;}.cls-40{fill:#8ad3e8;}.cls-41{fill:#89d3e8;}.cls-42{fill:#88d2e7;}.cls-43{fill:#86d2e7;}.cls-44{fill:#85d1e7;}.cls-45{fill:#84d1e7;}.cls-46{fill:#83d0e6;}.cls-47{fill:#81d0e6;}.cls-48{fill:#80d0e6;}.cls-49{fill:#7fcfe6;}.cls-50{fill:#7ecfe6;}.cls-51{fill:#7dcee5;}.cls-52{fill:#7bcee5;}.cls-53{fill:#7acde5;}.cls-54{fill:#79cde5;}.cls-55{fill:#78cce4;}.cls-56{fill:#76cce4;}.cls-57{fill:#75cce4;}.cls-58{fill:#74cbe4;}.cls-59{fill:#73cbe3;}.cls-60{fill:#72cae3;}.cls-61{fill:#71cae3;}.cls-62{fill:#6fc9e3;}.cls-63{fill:#6ec9e2;}.cls-64{fill:#6dc8e2;}.cls-65{fill:#6cc8e2;}.cls-66{fill:#6bc8e2;}.cls-67{fill:#6ac7e2;}.cls-68{fill:#69c7e1;}.cls-69{fill:#67c6e1;}.cls-70{fill:#66c6e1;}.cls-71{fill:#65c6e1;}.cls-72{fill:#64c5e0;}.cls-73{fill:#63c5e0;}.cls-74{fill:#62c4e0;}.cls-75{fill:#61c4e0;}.cls-76{fill:#60c4e0;}.cls-77{fill:#5fc3df;}.cls-78{fill:#5ec3df;}.cls-79{fill:#5cc2df;}.cls-80{fill:#5bc2df;}.cls-81{fill:#5ac2df;}.cls-82{fill:#59c1de;}.cls-83{fill:#58c1de;}.cls-84{fill:#57c0de;}.cls-85{fill:#56c0de;}.cls-86{fill:#55c0dd;}.cls-87{fill:#54bfdd;}.cls-88{fill:#53bfdd;}.cls-89{fill:#52bfdd;}.cls-90{fill:#51bedd;}.cls-91{fill:#50bedc;}.cls-92{fill:#4fbddc;}.cls-93{fill:#4ebddc;}.cls-94{fill:#4dbddc;}.cls-95{fill:#4cbcdc;}.cls-96{fill:#4bbcdc;}.cls-97{fill:#4abcdb;}.cls-98{fill:#49bbdb;}.cls-99{fill:#48bbdb;}.cls-100{fill:#47bbdb;}.cls-101{fill:#46badb;}.cls-102{fill:#46bada;}.cls-103{fill:#45bada;}.cls-104{fill:#44b9da;}.cls-105{fill:#43b9da;}.cls-106{fill:#42b9da;}.cls-107{fill:#41b8da;}.cls-108{fill:#40b8d9;}.cls-109{fill:#3fb8d9;}.cls-110{fill:#3eb7d9;}.cls-111{fill:#3db7d9;}.cls-112{fill:#3cb6d9;}.cls-113{fill:#3bb6d8;}.cls-114{fill:#3ab6d8;}.cls-115{fill:#39b5d8;}.cls-116{fill:#38b5d8;}.cls-117{fill:#37b5d8;}.cls-118{fill:#36b4d7;}.cls-119{fill:#35b4d7;}.cls-120{fill:#34b4d7;}.cls-121{fill:#33b3d7;}.cls-122{fill:#32b3d7;}.cls-123{fill:#31b3d6;}.cls-124{fill:#31b2d6;}.cls-125{fill:#30b2d6;}.cls-126{fill:#2fb2d6;}.cls-127{fill:#2eb1d6;}.cls-128{fill:#2db1d6;}.cls-129{fill:#2cb1d5;}.cls-130{fill:#2cb0d5;}.cls-131{fill:#2bb0d5;}.cls-132{fill:#2ab0d5;}.cls-133{fill:#29b0d5;}.cls-134{fill:#29afd5;}.cls-135{fill:#28afd5;}.cls-136{fill:#27afd4;}.cls-137{fill:#26aed4;}.cls-138{fill:#25aed4;}.cls-139{fill:#fff;}.cls-140{opacity:0.9;}</style><clipPath id="clip-path"><path class="cls-1" d="M56.24,121.77h8.25a.81.81,0,0,1,.81.81V143a4.43,4.43,0,0,0,1.33,3.16,14.08,14.08,0,0,0,12.92,3.75.81.81,0,0,1,1,.78v18.5a.81.81,0,0,0,.81.81h57.57s5.08,0,5.08-5.08V110.63c0-13-.26-23.58-8.79-34-7.87-9.66-19.48-14.14-31.83-13.19-32.64,2.51-38,24.89-47.9,57.32A.82.82,0,0,0,56.24,121.77Z"/></clipPath></defs><g class="cls-2"><g id="레이어_1" data-name="레이어 1"><g class="cls-3"><path class="cls-4" d="M104.81,51.94a1.55,1.55,0,0,1-1.55-1.56v-10a1.56,1.56,0,1,1,3.11,0v10A1.56,1.56,0,0,1,104.81,51.94Z"/><path class="cls-4" d="M121.72,53.56a1.5,1.5,0,0,1-.62-.13,1.55,1.55,0,0,1-.81-2l3.16-7.33a1.55,1.55,0,1,1,2.85,1.22l-3.16,7.34A1.54,1.54,0,0,1,121.72,53.56Z"/><path class="cls-4" d="M136.35,63.24a1.54,1.54,0,0,1-1.12-2.62l6.58-6.88a1.55,1.55,0,0,1,2.24,2.15l-6.58,6.87A1.55,1.55,0,0,1,136.35,63.24Z"/><path class="cls-4" d="M145.13,76.31a1.56,1.56,0,0,1-.37-3.07l8.06-2a1.55,1.55,0,1,1,.74,3l-8.06,2A1.64,1.64,0,0,1,145.13,76.31Z"/><path class="cls-4" d="M89.33,53.85a1.55,1.55,0,0,1-1.43-.94L84.49,45a1.55,1.55,0,1,1,2.85-1.23l3.41,7.91a1.55,1.55,0,0,1-.81,2A1.49,1.49,0,0,1,89.33,53.85Z"/><path class="cls-4" d="M74.16,63.29A1.53,1.53,0,0,1,73,62.81l-7.17-7.48a1.55,1.55,0,1,1,2.24-2.15l7.17,7.49a1.55,1.55,0,0,1,0,2.19A1.52,1.52,0,0,1,74.16,63.29Z"/><path class="cls-4" d="M63.53,77.3a1.55,1.55,0,0,1-.37,0l-8.1-2a1.57,1.57,0,0,1-1.14-1.88,1.55,1.55,0,0,1,1.88-1.14l8.1,2a1.55,1.55,0,0,1-.37,3.06Z"/></g><g class="cls-5"><polygon class="cls-6" points="71.35 62.44 55.69 169.45 55.31 169.4 55.31 62.44 71.35 62.44"/><polygon class="cls-6" points="71.85 62.44 56.19 169.53 55.69 169.45 71.35 62.44 71.85 62.44"/><polygon class="cls-7" points="72.36 62.44 56.69 169.6 56.19 169.53 71.85 62.44 72.36 62.44"/><polygon class="cls-8" points="72.87 62.44 57.18 169.67 56.69 169.6 72.36 62.44 72.87 62.44"/><polygon class="cls-9" points="73.38 62.44 57.68 169.75 57.18 169.67 72.87 62.44 73.38 62.44"/><polygon class="cls-10" points="73.88 62.44 58.17 169.82 57.68 169.75 73.38 62.44 73.88 62.44"/><polygon class="cls-11" points="74.39 62.44 58.67 169.89 58.17 169.82 73.88 62.44 74.39 62.44"/><polygon class="cls-12" points="74.9 62.44 59.17 169.96 58.67 169.89 74.39 62.44 74.9 62.44"/><polygon class="cls-13" points="75.4 62.44 59.67 170 59.42 170 59.17 169.96 74.9 62.44 75.4 62.44"/><polygon class="cls-14" points="75.91 62.44 60.18 170 59.67 170 75.4 62.44 75.91 62.44"/><polygon class="cls-15" points="76.42 62.44 60.68 170 60.18 170 75.91 62.44 76.42 62.44"/><polygon class="cls-16" points="76.92 62.44 61.19 170 60.68 170 76.42 62.44 76.92 62.44"/><polygon class="cls-17" points="77.43 62.44 61.7 170 61.19 170 76.92 62.44 77.43 62.44"/><polygon class="cls-18" points="77.94 62.44 62.2 170 61.7 170 77.43 62.44 77.94 62.44"/><polygon class="cls-19" points="78.44 62.44 62.71 170 62.2 170 77.94 62.44 78.44 62.44"/><polygon class="cls-20" points="78.95 62.44 63.22 170 62.71 170 78.44 62.44 78.95 62.44"/><polygon class="cls-21" points="79.46 62.44 63.73 170 63.22 170 78.95 62.44 79.46 62.44"/><polygon class="cls-22" points="79.97 62.44 64.23 170 63.73 170 79.46 62.44 79.97 62.44"/><polygon class="cls-23" points="80.47 62.44 64.74 170 64.23 170 79.97 62.44 80.47 62.44"/><polygon class="cls-24" points="80.98 62.44 65.25 170 64.74 170 80.47 62.44 80.98 62.44"/><polygon class="cls-25" points="81.49 62.44 65.75 170 65.25 170 80.98 62.44 81.49 62.44"/><polygon class="cls-26" points="81.99 62.44 66.26 170 65.75 170 81.49 62.44 81.99 62.44"/><polygon class="cls-27" points="82.5 62.44 66.77 170 66.26 170 81.99 62.44 82.5 62.44"/><polygon class="cls-28" points="83.01 62.44 67.27 170 66.77 170 82.5 62.44 83.01 62.44"/><polygon class="cls-29" points="83.51 62.44 67.78 170 67.27 170 83.01 62.44 83.51 62.44"/><polygon class="cls-30" points="84.02 62.44 68.29 170 67.78 170 83.51 62.44 84.02 62.44"/><polygon class="cls-31" points="84.53 62.44 68.8 170 68.29 170 84.02 62.44 84.53 62.44"/><polygon class="cls-32" points="85.03 62.44 69.3 170 68.8 170 84.53 62.44 85.03 62.44"/><polygon class="cls-33" points="85.54 62.44 69.81 170 69.3 170 85.03 62.44 85.54 62.44"/><polygon class="cls-34" points="86.05 62.44 70.32 170 69.81 170 85.54 62.44 86.05 62.44"/><polygon class="cls-35" points="86.56 62.44 70.82 170 70.32 170 86.05 62.44 86.56 62.44"/><polygon class="cls-36" points="87.06 62.44 71.33 170 70.82 170 86.56 62.44 87.06 62.44"/><polygon class="cls-37" points="87.57 62.44 71.84 170 71.33 170 87.06 62.44 87.57 62.44"/><polygon class="cls-38" points="88.08 62.44 72.34 170 71.84 170 87.57 62.44 88.08 62.44"/><polygon class="cls-39" points="88.58 62.44 72.85 170 72.34 170 88.08 62.44 88.58 62.44"/><polygon class="cls-40" points="89.09 62.44 73.36 170 72.85 170 88.58 62.44 89.09 62.44"/><polygon class="cls-41" points="89.6 62.44 73.86 170 73.36 170 89.09 62.44 89.6 62.44"/><polygon class="cls-42" points="90.11 62.44 74.37 170 73.86 170 89.6 62.44 90.11 62.44"/><polygon class="cls-43" points="90.61 62.44 74.88 170 74.37 170 90.11 62.44 90.61 62.44"/><polygon class="cls-44" points="91.12 62.44 75.39 170 74.88 170 90.61 62.44 91.12 62.44"/><polygon class="cls-45" points="91.63 62.44 75.89 170 75.39 170 91.12 62.44 91.63 62.44"/><polygon class="cls-46" points="92.13 62.44 76.4 170 75.89 170 91.63 62.44 92.13 62.44"/><polygon class="cls-47" points="92.64 62.44 76.91 170 76.4 170 92.13 62.44 92.64 62.44"/><polygon class="cls-48" points="93.15 62.44 77.41 170 76.91 170 92.64 62.44 93.15 62.44"/><polygon class="cls-49" points="93.65 62.44 77.92 170 77.41 170 93.15 62.44 93.65 62.44"/><polygon class="cls-50" points="94.16 62.44 78.43 170 77.92 170 93.65 62.44 94.16 62.44"/><polygon class="cls-51" points="94.67 62.44 78.93 170 78.43 170 94.16 62.44 94.67 62.44"/><polygon class="cls-52" points="95.17 62.44 79.44 170 78.93 170 94.67 62.44 95.17 62.44"/><polygon class="cls-53" points="95.68 62.44 79.95 170 79.44 170 95.17 62.44 95.68 62.44"/><polygon class="cls-54" points="96.19 62.44 80.45 170 79.95 170 95.68 62.44 96.19 62.44"/><polygon class="cls-55" points="96.69 62.44 80.96 170 80.45 170 96.19 62.44 96.69 62.44"/><polygon class="cls-56" points="97.2 62.44 81.47 170 80.96 170 96.69 62.44 97.2 62.44"/><polygon class="cls-57" points="97.71 62.44 81.98 170 81.47 170 97.2 62.44 97.71 62.44"/><polygon class="cls-58" points="98.22 62.44 82.48 170 81.98 170 97.71 62.44 98.22 62.44"/><polygon class="cls-59" points="98.72 62.44 82.99 170 82.48 170 98.22 62.44 98.72 62.44"/><polygon class="cls-60" points="99.23 62.44 83.5 170 82.99 170 98.72 62.44 99.23 62.44"/><polygon class="cls-61" points="99.74 62.44 84 170 83.5 170 99.23 62.44 99.74 62.44"/><polygon class="cls-62" points="100.24 62.44 84.51 170 84 170 99.74 62.44 100.24 62.44"/><polygon class="cls-63" points="100.75 62.44 85.02 170 84.51 170 100.24 62.44 100.75 62.44"/><polygon class="cls-64" points="101.26 62.44 85.53 170 85.02 170 100.75 62.44 101.26 62.44"/><polygon class="cls-65" points="101.77 62.44 86.03 170 85.53 170 101.26 62.44 101.77 62.44"/><polygon class="cls-66" points="102.27 62.44 86.54 170 86.03 170 101.77 62.44 102.27 62.44"/><polygon class="cls-67" points="102.78 62.44 87.05 170 86.54 170 102.27 62.44 102.78 62.44"/><polygon class="cls-68" points="103.29 62.44 87.55 170 87.05 170 102.78 62.44 103.29 62.44"/><polygon class="cls-69" points="103.79 62.44 88.06 170 87.55 170 103.29 62.44 103.79 62.44"/><polygon class="cls-70" points="104.3 62.44 88.57 170 88.06 170 103.79 62.44 104.3 62.44"/><polygon class="cls-71" points="104.81 62.44 89.07 170 88.57 170 104.3 62.44 104.81 62.44"/><polygon class="cls-72" points="105.31 62.44 89.58 170 89.07 170 104.81 62.44 105.31 62.44"/><polygon class="cls-73" points="105.82 62.44 90.09 170 89.58 170 105.31 62.44 105.82 62.44"/><polygon class="cls-74" points="106.33 62.44 90.59 170 90.09 170 105.82 62.44 106.33 62.44"/><polygon class="cls-75" points="106.83 62.44 91.1 170 90.59 170 106.33 62.44 106.83 62.44"/><polygon class="cls-76" points="107.34 62.44 91.61 170 91.1 170 106.83 62.44 107.34 62.44"/><polygon class="cls-77" points="107.85 62.44 92.11 170 91.61 170 107.34 62.44 107.85 62.44"/><polygon class="cls-78" points="108.36 62.44 92.62 170 92.11 170 107.85 62.44 108.36 62.44"/><polygon class="cls-79" points="108.86 62.44 93.13 170 92.62 170 108.36 62.44 108.86 62.44"/><polygon class="cls-80" points="109.37 62.44 93.64 170 93.13 170 108.86 62.44 109.37 62.44"/><polygon class="cls-81" points="109.88 62.44 94.14 170 93.64 170 109.37 62.44 109.88 62.44"/><polygon class="cls-82" points="110.38 62.44 94.65 170 94.14 170 109.88 62.44 110.38 62.44"/><polygon class="cls-83" points="110.89 62.44 95.16 170 94.65 170 110.38 62.44 110.89 62.44"/><polygon class="cls-84" points="111.4 62.44 95.66 170 95.16 170 110.89 62.44 111.4 62.44"/><polygon class="cls-85" points="111.9 62.44 96.17 170 95.66 170 111.4 62.44 111.9 62.44"/><polygon class="cls-86" points="112.41 62.44 96.68 170 96.17 170 111.9 62.44 112.41 62.44"/><polygon class="cls-87" points="112.92 62.44 97.19 170 96.68 170 112.41 62.44 112.92 62.44"/><polygon class="cls-88" points="113.42 62.44 97.69 170 97.19 170 112.92 62.44 113.42 62.44"/><polygon class="cls-89" points="113.93 62.44 98.2 170 97.69 170 113.42 62.44 113.93 62.44"/><polygon class="cls-90" points="114.44 62.44 98.71 170 98.2 170 113.93 62.44 114.44 62.44"/><polygon class="cls-91" points="114.95 62.44 99.21 170 98.71 170 114.44 62.44 114.95 62.44"/><polygon class="cls-92" points="115.45 62.44 99.72 170 99.21 170 114.95 62.44 115.45 62.44"/><polygon class="cls-93" points="115.96 62.44 100.23 170 99.72 170 115.45 62.44 115.96 62.44"/><polygon class="cls-94" points="116.47 62.44 100.73 170 100.23 170 115.96 62.44 116.47 62.44"/><polygon class="cls-95" points="116.97 62.44 101.24 170 100.73 170 116.47 62.44 116.97 62.44"/><polygon class="cls-96" points="117.48 62.44 101.75 170 101.24 170 116.97 62.44 117.48 62.44"/><polygon class="cls-97" points="117.99 62.44 102.25 170 101.75 170 117.48 62.44 117.99 62.44"/><polygon class="cls-98" points="118.5 62.44 102.76 170 102.25 170 117.99 62.44 118.5 62.44"/><polygon class="cls-99" points="119 62.44 103.27 170 102.76 170 118.5 62.44 119 62.44"/><polygon class="cls-100" points="119.51 62.44 103.78 170 103.27 170 119 62.44 119.51 62.44"/><polygon class="cls-101" points="120.02 62.44 104.28 170 103.78 170 119.51 62.44 120.02 62.44"/><polygon class="cls-102" points="120.52 62.44 104.79 170 104.28 170 120.02 62.44 120.52 62.44"/><polygon class="cls-103" points="121.03 62.44 105.3 170 104.79 170 120.52 62.44 121.03 62.44"/><polygon class="cls-104" points="121.54 62.44 105.8 170 105.3 170 121.03 62.44 121.54 62.44"/><polygon class="cls-105" points="122.04 62.44 106.31 170 105.8 170 121.54 62.44 122.04 62.44"/><polygon class="cls-106" points="122.55 62.44 106.82 170 106.31 170 122.04 62.44 122.55 62.44"/><polygon class="cls-107" points="123.06 62.44 107.32 170 106.82 170 122.55 62.44 123.06 62.44"/><polygon class="cls-108" points="123.56 62.44 107.83 170 107.32 170 123.06 62.44 123.56 62.44"/><polygon class="cls-109" points="124.07 62.44 108.34 170 107.83 170 123.56 62.44 124.07 62.44"/><polygon class="cls-110" points="124.58 62.44 108.84 170 108.34 170 124.07 62.44 124.58 62.44"/><polygon class="cls-110" points="125.08 62.44 109.35 170 108.84 170 124.58 62.44 125.08 62.44"/><polygon class="cls-111" points="125.59 62.44 109.86 170 109.35 170 125.08 62.44 125.59 62.44"/><polygon class="cls-112" points="126.1 62.44 110.37 170 109.86 170 125.59 62.44 126.1 62.44"/><polygon class="cls-113" points="126.61 62.44 110.87 170 110.37 170 126.1 62.44 126.61 62.44"/><polygon class="cls-114" points="127.11 62.44 111.38 170 110.87 170 126.61 62.44 127.11 62.44"/><polygon class="cls-114" points="127.62 62.44 111.89 170 111.38 170 127.11 62.44 127.62 62.44"/><polygon class="cls-115" points="128.13 62.44 112.39 170 111.89 170 127.62 62.44 128.13 62.44"/><polygon class="cls-116" points="128.63 62.44 112.9 170 112.39 170 128.13 62.44 128.63 62.44"/><polygon class="cls-117" points="129.14 62.44 113.41 170 112.9 170 128.63 62.44 129.14 62.44"/><polygon class="cls-118" points="129.65 62.44 113.92 170 113.41 170 129.14 62.44 129.65 62.44"/><polygon class="cls-118" points="130.16 62.44 114.42 170 113.92 170 129.65 62.44 130.16 62.44"/><polygon class="cls-119" points="130.66 62.44 114.93 170 114.42 170 130.16 62.44 130.66 62.44"/><polygon class="cls-120" points="131.17 62.44 115.44 170 114.93 170 130.66 62.44 131.17 62.44"/><polygon class="cls-121" points="131.68 62.44 115.94 170 115.44 170 131.17 62.44 131.68 62.44"/><polygon class="cls-121" points="132.18 62.44 116.45 170 115.94 170 131.68 62.44 132.18 62.44"/><polygon class="cls-122" points="132.69 62.44 116.96 170 116.45 170 132.18 62.44 132.69 62.44"/><polygon class="cls-123" points="133.2 62.44 117.46 170 116.96 170 132.69 62.44 133.2 62.44"/><polygon class="cls-124" points="133.7 62.44 117.97 170 117.46 170 133.2 62.44 133.7 62.44"/><polygon class="cls-125" points="134.21 62.44 118.48 170 117.97 170 133.7 62.44 134.21 62.44"/><polygon class="cls-126" points="134.72 62.44 118.98 170 118.48 170 134.21 62.44 134.72 62.44"/><polygon class="cls-126" points="135.22 62.44 119.49 170 118.98 170 134.72 62.44 135.22 62.44"/><polygon class="cls-127" points="135.73 62.44 120 170 119.49 170 135.22 62.44 135.73 62.44"/><polygon class="cls-128" points="136.24 62.44 120.5 170 120 170 135.73 62.44 136.24 62.44"/><polygon class="cls-128" points="136.75 62.44 121.01 170 120.5 170 136.24 62.44 136.75 62.44"/><polygon class="cls-129" points="137.19 62.44 137.25 62.45 121.52 170 121.01 170 136.75 62.44 137.19 62.44"/><polygon class="cls-130" points="137.25 62.45 137.75 62.52 122.03 170 121.52 170 137.25 62.45"/><polygon class="cls-131" points="137.75 62.52 138.24 62.59 122.53 170 122.03 170 137.75 62.52"/><polygon class="cls-132" points="138.24 62.59 138.74 62.66 123.04 170 122.53 170 138.24 62.59"/><polygon class="cls-132" points="138.74 62.66 139.24 62.74 123.55 170 123.04 170 138.74 62.66"/><polygon class="cls-133" points="139.24 62.74 139.73 62.81 124.05 170 123.55 170 139.24 62.74"/><polygon class="cls-134" points="139.73 62.81 140.23 62.88 124.56 170 124.05 170 139.73 62.81"/><polygon class="cls-135" points="140.23 62.88 140.73 62.95 125.07 170 124.56 170 140.23 62.88"/><polygon class="cls-135" points="140.73 62.95 141.22 63.03 125.58 170 125.07 170 140.73 62.95"/><polygon class="cls-136" points="141.22 63.03 141.72 63.1 126.08 170 125.58 170 141.22 63.03"/><polygon class="cls-136" points="141.72 63.1 142.22 63.17 126.59 170 126.08 170 141.72 63.1"/><polygon class="cls-136" points="142.22 63.17 142.71 63.24 127.1 170 126.59 170 142.22 63.17"/><polygon class="cls-137" points="142.71 63.24 143.21 63.32 127.6 170 127.1 170 142.71 63.24"/><polygon class="cls-137" points="143.21 63.32 143.7 63.39 128.11 170 127.6 170 143.21 63.32"/><polygon class="cls-137" points="143.7 63.39 143.99 63.43 143.99 64.88 128.62 170 128.11 170 143.7 63.39"/><polygon class="cls-138" points="143.99 68.35 129.12 170 128.62 170 143.99 64.88 143.99 68.35"/><polygon class="cls-138" points="143.99 71.81 129.63 170 129.12 170 143.99 68.35 143.99 71.81"/><polygon class="cls-138" points="143.99 75.28 130.14 170 129.63 170 143.99 71.81 143.99 75.28"/><polygon class="cls-138" points="130.14 170 143.99 75.28 143.99 170 130.14 170"/></g><path class="cls-139" d="M127.12,112.46c-.18.06-.36.13-.54.18-6.2,2-11.73-2.7-16.84-5.37s-11-1.89-16.44-3A24.29,24.29,0,0,1,81,98.12c-3.57-3.53-5.79-8.85-4.41-13.79C78.67,77,89,69.83,104.46,71.49c9.67,1,19.79,6.37,25.12,14.87C133.69,92.91,136.55,108.88,127.12,112.46Z"/><g class="cls-3"><path class="cls-4" d="M130.56,112c-.17.06-.35.13-.54.18-6.23,2-11.79-2.71-16.93-5.4s-11-1.9-16.52-3a24.45,24.45,0,0,1-12.35-6.17c-3.59-3.54-5.82-8.89-4.43-13.86,2.06-7.4,12.41-14.58,28-12.91,9.73,1,19.9,6.41,25.26,15C137.17,92.36,140,108.41,130.56,112Z"/></g><g class="cls-3"><g class="cls-140"><path class="cls-138" d="M90.75,51.34a2.88,2.88,0,1,1,2.88-2.88A2.88,2.88,0,0,1,90.75,51.34Zm0-4.59a1.71,1.71,0,1,0,1.71,1.71A1.7,1.7,0,0,0,90.75,46.75Z"/></g><g class="cls-140"><path class="cls-138" d="M70.24,32.82a2.93,2.93,0,1,1,2.92-2.93A2.93,2.93,0,0,1,70.24,32.82Zm0-4.69A1.76,1.76,0,1,0,72,29.89,1.76,1.76,0,0,0,70.24,28.13Z"/></g><g class="cls-140"><polygon class="cls-138" points="49.38 43.83 51.89 48.91 57.51 49.73 53.45 53.69 54.41 59.28 49.38 56.64 44.36 59.28 45.32 53.69 41.26 49.73 46.87 48.91 49.38 43.83"/></g><g class="cls-140"><polygon class="cls-138" points="113.7 20 115.66 23.96 120.03 24.6 116.87 27.68 117.61 32.04 113.7 29.98 109.79 32.04 110.54 27.68 107.37 24.6 111.75 23.96 113.7 20"/></g><g class="cls-140"><path class="cls-138" d="M134.46,29.8A2.49,2.49,0,1,1,137,27.31,2.5,2.5,0,0,1,134.46,29.8Zm0-3.82a1.33,1.33,0,1,0,1.33,1.33A1.33,1.33,0,0,0,134.46,26Z"/></g><g class="cls-140"><polygon class="cls-138" points="145.16 43.28 147.99 49.03 154.33 49.95 149.74 54.42 150.82 60.73 145.16 57.75 139.49 60.73 140.57 54.42 135.98 49.95 142.32 49.03 145.16 43.28"/></g></g></g></g></svg>