<svg xmlns="http://www.w3.org/2000/svg" xmlns:xlink="http://www.w3.org/1999/xlink" viewBox="0 0 71.1 89.17"><defs><style>.cls-1{fill:none;}.cls-2{fill:#e44626;}.cls-3{fill:#25aed4;}.cls-4{clip-path:url(#clip-path);}.cls-5{fill:#c8ebf4;}.cls-6{fill:#c6eaf4;}.cls-7{fill:#c5eaf3;}.cls-8{fill:#c3e9f3;}.cls-9{fill:#c2e9f3;}.cls-10{fill:#c1e8f3;}.cls-11{fill:#bfe8f2;}.cls-12{fill:#bee7f2;}.cls-13{fill:#bce7f2;}.cls-14{fill:#bbe6f1;}.cls-15{fill:#b9e5f1;}.cls-16{fill:#b8e5f1;}.cls-17{fill:#b6e4f1;}.cls-18{fill:#b5e4f0;}.cls-19{fill:#b3e3f0;}.cls-20{fill:#b2e3f0;}.cls-21{fill:#b0e2ef;}.cls-22{fill:#afe2ef;}.cls-23{fill:#aee1ef;}.cls-24{fill:#ace1ef;}.cls-25{fill:#abe0ee;}.cls-26{fill:#a9e0ee;}.cls-27{fill:#a8dfee;}.cls-28{fill:#a7deed;}.cls-29{fill:#a5deed;}.cls-30{fill:#a4dded;}.cls-31{fill:#a2dded;}.cls-32{fill:#a1dcec;}.cls-33{fill:#a0dcec;}.cls-34{fill:#9edbec;}.cls-35{fill:#9ddbec;}.cls-36{fill:#9cdaeb;}.cls-37{fill:#9adaeb;}.cls-38{fill:#99d9eb;}.cls-39{fill:#98d9ea;}.cls-40{fill:#96d8ea;}.cls-41{fill:#95d8ea;}.cls-42{fill:#94d7ea;}.cls-43{fill:#92d7e9;}.cls-44{fill:#91d6e9;}.cls-45{fill:#90d6e9;}.cls-46{fill:#8ed5e9;}.cls-47{fill:#8dd5e8;}.cls-48{fill:#8cd4e8;}.cls-49{fill:#8ad4e8;}.cls-50{fill:#89d3e8;}.cls-51{fill:#88d3e7;}.cls-52{fill:#87d3e7;}.cls-53{fill:#85d2e7;}.cls-54{fill:#84d2e7;}.cls-55{fill:#83d1e6;}.cls-56{fill:#82d1e6;}.cls-57{fill:#80d0e6;}.cls-58{fill:#7fd0e6;}.cls-59{fill:#7ecfe5;}.cls-60{fill:#7dcfe5;}.cls-61{fill:#7bcee5;}.cls-62{fill:#7acee5;}.cls-63{fill:#79cde4;}.cls-64{fill:#78cde4;}.cls-65{fill:#77cde4;}.cls-66{fill:#75cce4;}.cls-67{fill:#74cce4;}.cls-68{fill:#73cbe3;}.cls-69{fill:#72cbe3;}.cls-70{fill:#71cae3;}.cls-71{fill:#6fcae3;}.cls-72{fill:#6ec9e2;}.cls-73{fill:#6dc9e2;}.cls-74{fill:#6cc9e2;}.cls-75{fill:#6bc8e2;}.cls-76{fill:#6ac8e1;}.cls-77{fill:#69c7e1;}.cls-78{fill:#67c7e1;}.cls-79{fill:#66c6e1;}.cls-80{fill:#65c6e1;}.cls-81{fill:#64c6e0;}.cls-82{fill:#63c5e0;}.cls-83{fill:#62c5e0;}.cls-84{fill:#61c4e0;}.cls-85{fill:#60c4e0;}.cls-86{fill:#5fc4df;}.cls-87{fill:#5ec3df;}.cls-88{fill:#5dc3df;}.cls-89{fill:#5cc2df;}.cls-90{fill:#5ac2df;}.cls-91{fill:#59c2de;}.cls-92{fill:#58c1de;}.cls-93{fill:#57c1de;}.cls-94{fill:#56c0de;}.cls-95{fill:#55c0dd;}.cls-96{fill:#54c0dd;}.cls-97{fill:#53bfdd;}.cls-98{fill:#52bfdd;}.cls-99{fill:#51bfdd;}.cls-100{fill:#50bedd;}.cls-101{fill:#4fbedc;}.cls-102{fill:#4ebedc;}.cls-103{fill:#4ebddc;}.cls-104{fill:#4dbddc;}.cls-105{fill:#4cbcdc;}.cls-106{fill:#4bbcdb;}.cls-107{fill:#4abcdb;}.cls-108{fill:#49bbdb;}.cls-109{fill:#48bbdb;}.cls-110{fill:#47bbdb;}.cls-111{fill:#46badb;}.cls-112{fill:#45bada;}.cls-113{fill:#44bada;}.cls-114{fill:#44b9da;}.cls-115{fill:#43b9da;}.cls-116{fill:#42b9da;}.cls-117{fill:#41b8d9;}.cls-118{fill:#40b8d9;}.cls-119{fill:#3fb8d9;}.cls-120{fill:#3eb7d9;}.cls-121{fill:#3db7d9;}.cls-122{fill:#3cb7d9;}.cls-123{fill:#3bb6d8;}.cls-124{fill:#3ab6d8;}.cls-125{fill:#39b6d8;}.cls-126{fill:#38b5d8;}.cls-127{fill:#37b5d8;}.cls-128{fill:#36b4d7;}.cls-129{fill:#35b4d7;}.cls-130{fill:#34b4d7;}.cls-131{fill:#33b3d7;}.cls-132{fill:#32b3d7;}.cls-133{fill:#31b3d6;}.cls-134{fill:#31b2d6;}.cls-135{fill:#30b2d6;}.cls-136{fill:#2fb2d6;}.cls-137{fill:#2eb1d6;}.cls-138{fill:#2db1d6;}.cls-139{fill:#2db1d5;}.cls-140{fill:#2cb1d5;}.cls-141{fill:#2cb0d5;}.cls-142{fill:#2bb0d5;}.cls-143{fill:#2ab0d5;}.cls-144{fill:#29b0d5;}.cls-145{fill:#29afd5;}.cls-146{fill:#28afd5;}.cls-147{fill:#28afd4;}.cls-148{fill:#27afd4;}.cls-149{fill:#26afd4;}.cls-150{fill:#26aed4;}.cls-151{fill:#fff;}.cls-152{fill:#3c354a;}</style><clipPath id="clip-path"><path class="cls-1" d="M11.74,62.76h4.51a.45.45,0,0,1,.45.44V74.39a2.41,2.41,0,0,0,.73,1.73,7.7,7.7,0,0,0,7.07,2,.45.45,0,0,1,.54.43V88.73a.44.44,0,0,0,.44.44H57a2.72,2.72,0,0,0,2.78-2.78V56.66c0-7.12-.14-12.91-4.81-18.65a20,20,0,0,0-17.43-7.22C19.67,32.17,16.76,44.42,11.31,62.18A.45.45,0,0,0,11.74,62.76Z"/></clipPath></defs><g id="Layer_2" data-name="Layer 2"><g id="Layer_1-2" data-name="Layer 1"><path class="cls-2" d="M38.12,21.54A1.09,1.09,0,0,1,37,20.45V12.23a1.1,1.1,0,1,1,2.19,0v8.22A1.09,1.09,0,0,1,38.12,21.54Z"/><path class="cls-2" d="M48.46,23.79A1.11,1.11,0,0,1,48,23.7a1.09,1.09,0,0,1-.57-1.44l3-7.09a1.1,1.1,0,1,1,2,.87l-3.05,7.09A1.1,1.1,0,0,1,48.46,23.79Z"/><path class="cls-2" d="M55.4,28.83a1.08,1.08,0,0,1-.75-.3,1.1,1.1,0,0,1,0-1.55l4.24-4.42a1.09,1.09,0,1,1,1.58,1.51L56.2,28.5A1.13,1.13,0,0,1,55.4,28.83Z"/><path class="cls-2" d="M60.33,36.13A1.1,1.1,0,0,1,60.07,34l5.57-1.36a1.1,1.1,0,1,1,.52,2.13L60.59,36.1A1.15,1.15,0,0,1,60.33,36.13Z"/><path class="cls-2" d="M27.78,23.93a1.1,1.1,0,0,1-1-.66L24.49,18a1.09,1.09,0,1,1,2-.86l2.28,5.29a1.09,1.09,0,0,1-.57,1.44A1.11,1.11,0,0,1,27.78,23.93Z"/><path class="cls-2" d="M20.84,29a1.06,1.06,0,0,1-.79-.34L13.9,22.22a1.1,1.1,0,0,1,1.58-1.52l6.15,6.42A1.09,1.09,0,0,1,20.84,29Z"/><path class="cls-2" d="M15.91,36.27a1.15,1.15,0,0,1-.26,0l-6.8-1.67a1.09,1.09,0,1,1,.52-2.12l6.8,1.66a1.08,1.08,0,0,1,.8,1.32A1.1,1.1,0,0,1,15.91,36.27Z"/><path class="cls-3" d="M28.91,22.54a2.35,2.35,0,1,1,2.35-2.35A2.35,2.35,0,0,1,28.91,22.54Zm0-2.79a.44.44,0,1,0,0,.87.44.44,0,0,0,0-.87Z"/><path class="cls-3" d="M19.58,7A2.78,2.78,0,1,1,22.36,4.2,2.78,2.78,0,0,1,19.58,7Zm0-3.64a.86.86,0,1,0,.87.86A.86.86,0,0,0,19.58,3.34Z"/><path class="cls-3" d="M8.84,29.65a.87.87,0,0,1-.44-.11L5.83,28.19,3.27,29.54a1,1,0,0,1-1-.07.93.93,0,0,1-.38-.94l.49-2.85-2.08-2a.94.94,0,0,1-.24-1A1,1,0,0,1,.82,22l2.87-.42L5,19a1,1,0,0,1,1.72,0L8,21.6l2.87.42a1,1,0,0,1,.77.65.94.94,0,0,1-.24,1l-2.07,2,.49,2.85a1,1,0,0,1-.38.94A1,1,0,0,1,8.84,29.65Zm-3-3.5a1,1,0,0,1,.45.11l1.29.68L7.32,25.5a.94.94,0,0,1,.28-.84l1-1L7.2,23.43a1,1,0,0,1-.72-.53l-.65-1.31L5.18,22.9a1,1,0,0,1-.72.53L3,23.64l1,1a.94.94,0,0,1,.28.84l-.25,1.44,1.29-.68A1,1,0,0,1,5.83,26.15Z"/><path class="cls-3" d="M48.48,10A.87.87,0,0,1,48,9.91l-2-1.05-2,1.05a1,1,0,0,1-1-.07,1,1,0,0,1-.39-.94l.39-2.22L41.43,5.11A1,1,0,0,1,42,3.48l2.22-.32,1-2a1,1,0,0,1,1.72,0l1,2,2.23.32a.94.94,0,0,1,.77.65,1,1,0,0,1-.24,1L49.05,6.68l.38,2.22a1,1,0,0,1-1,1.12ZM44.16,5.1l.58.56a1,1,0,0,1,.28.85l-.14.8.72-.38a1,1,0,0,1,.89,0l.72.38-.14-.8a1,1,0,0,1,.28-.85l.58-.56L47.13,5a1,1,0,0,1-.72-.52l-.36-.73-.36.73A1,1,0,0,1,45,5Z"/><path class="cls-3" d="M67.46,27.07A1,1,0,0,1,67,27l-3.89-2.05L59.22,27a1,1,0,0,1-1.39-1l.74-4.34-3.15-3.07A1,1,0,0,1,56,16.9l4.36-.63,1.95-3.95a1,1,0,0,1,1.71,0l2,3.95,4.36.63a1,1,0,0,1,.78.65,1,1,0,0,1-.25,1l-3.15,3.07L68.4,26a1,1,0,0,1-.94,1.12Zm-4.34-4.2a1,1,0,0,1,.44.11l2.63,1.38-.5-2.92a1,1,0,0,1,.27-.85l2.13-2.07-2.94-.43a1,1,0,0,1-.72-.52l-1.31-2.66L61.8,17.57a1,1,0,0,1-.72.52l-2.93.43,2.12,2.07a1,1,0,0,1,.28.85L60,24.36,62.67,23A1,1,0,0,1,63.12,22.87Z"/><path class="cls-3" d="M60.68,5.16a2.58,2.58,0,1,1,2.58-2.58A2.58,2.58,0,0,1,60.68,5.16Zm0-3.24a.66.66,0,0,0,0,1.32.66.66,0,1,0,0-1.32Z"/><g class="cls-4"><rect class="cls-5" x="11.23" y="30.27" width="0.07" height="58.9"/><rect class="cls-5" x="11.29" y="30.27" width="0.29" height="58.9"/><rect class="cls-6" x="11.58" y="30.27" width="0.29" height="58.9"/><rect class="cls-7" x="11.87" y="30.27" width="0.29" height="58.9"/><rect class="cls-8" x="12.15" y="30.27" width="0.29" height="58.9"/><rect class="cls-9" x="12.44" y="30.27" width="0.29" height="58.9"/><rect class="cls-10" x="12.72" y="30.27" width="0.29" height="58.9"/><rect class="cls-11" x="13.01" y="30.27" width="0.29" height="58.9"/><rect class="cls-12" x="13.29" y="30.27" width="0.29" height="58.9"/><rect class="cls-13" x="13.58" y="30.27" width="0.29" height="58.9"/><rect class="cls-14" x="13.86" y="30.27" width="0.29" height="58.9"/><rect class="cls-15" x="14.15" y="30.27" width="0.29" height="58.9"/><rect class="cls-16" x="14.43" y="30.27" width="0.29" height="58.9"/><rect class="cls-17" x="14.72" y="30.27" width="0.29" height="58.9"/><rect class="cls-18" x="15" y="30.27" width="0.29" height="58.9"/><rect class="cls-19" x="15.29" y="30.27" width="0.29" height="58.9"/><rect class="cls-20" x="15.57" y="30.27" width="0.29" height="58.9"/><rect class="cls-21" x="15.86" y="30.27" width="0.29" height="58.9"/><rect class="cls-22" x="16.15" y="30.27" width="0.29" height="58.9"/><rect class="cls-23" x="16.43" y="30.27" width="0.29" height="58.9"/><rect class="cls-24" x="16.72" y="30.27" width="0.29" height="58.9"/><rect class="cls-25" x="17" y="30.27" width="0.29" height="58.9"/><rect class="cls-26" x="17.29" y="30.27" width="0.29" height="58.9"/><rect class="cls-27" x="17.57" y="30.27" width="0.29" height="58.9"/><rect class="cls-28" x="17.86" y="30.27" width="0.29" height="58.9"/><rect class="cls-29" x="18.14" y="30.27" width="0.29" height="58.9"/><rect class="cls-30" x="18.43" y="30.27" width="0.29" height="58.9"/><rect class="cls-31" x="18.71" y="30.27" width="0.29" height="58.9"/><rect class="cls-32" x="19" y="30.27" width="0.29" height="58.9"/><rect class="cls-33" x="19.28" y="30.27" width="0.29" height="58.9"/><rect class="cls-34" x="19.57" y="30.27" width="0.29" height="58.9"/><rect class="cls-35" x="19.86" y="30.27" width="0.29" height="58.9"/><rect class="cls-36" x="20.14" y="30.27" width="0.29" height="58.9"/><rect class="cls-37" x="20.43" y="30.27" width="0.29" height="58.9"/><rect class="cls-38" x="20.71" y="30.27" width="0.29" height="58.9"/><rect class="cls-39" x="21" y="30.27" width="0.29" height="58.9"/><rect class="cls-40" x="21.28" y="30.27" width="0.29" height="58.9"/><rect class="cls-41" x="21.57" y="30.27" width="0.29" height="58.9"/><rect class="cls-42" x="21.85" y="30.27" width="0.29" height="58.9"/><rect class="cls-43" x="22.14" y="30.27" width="0.29" height="58.9"/><rect class="cls-44" x="22.42" y="30.27" width="0.29" height="58.9"/><rect class="cls-45" x="22.71" y="30.27" width="0.29" height="58.9"/><rect class="cls-46" x="22.99" y="30.27" width="0.29" height="58.9"/><rect class="cls-47" x="23.28" y="30.27" width="0.29" height="58.9"/><rect class="cls-48" x="23.57" y="30.27" width="0.29" height="58.9"/><rect class="cls-49" x="23.85" y="30.27" width="0.29" height="58.9"/><rect class="cls-50" x="24.14" y="30.27" width="0.29" height="58.9"/><rect class="cls-51" x="24.42" y="30.27" width="0.29" height="58.9"/><rect class="cls-52" x="24.71" y="30.27" width="0.29" height="58.9"/><rect class="cls-53" x="24.99" y="30.27" width="0.29" height="58.9"/><rect class="cls-54" x="25.28" y="30.27" width="0.29" height="58.9"/><rect class="cls-55" x="25.56" y="30.27" width="0.29" height="58.9"/><rect class="cls-56" x="25.85" y="30.27" width="0.29" height="58.9"/><rect class="cls-57" x="26.13" y="30.27" width="0.29" height="58.9"/><rect class="cls-58" x="26.42" y="30.27" width="0.29" height="58.9"/><rect class="cls-59" x="26.7" y="30.27" width="0.29" height="58.9"/><rect class="cls-60" x="26.99" y="30.27" width="0.29" height="58.9"/><rect class="cls-61" x="27.28" y="30.27" width="0.29" height="58.9"/><rect class="cls-62" x="27.56" y="30.27" width="0.29" height="58.9"/><rect class="cls-63" x="27.85" y="30.27" width="0.29" height="58.9"/><rect class="cls-64" x="28.13" y="30.27" width="0.29" height="58.9"/><rect class="cls-65" x="28.42" y="30.27" width="0.29" height="58.9"/><rect class="cls-66" x="28.7" y="30.27" width="0.29" height="58.9"/><rect class="cls-67" x="28.99" y="30.27" width="0.29" height="58.9"/><rect class="cls-68" x="29.27" y="30.27" width="0.29" height="58.9"/><rect class="cls-69" x="29.56" y="30.27" width="0.29" height="58.9"/><rect class="cls-70" x="29.84" y="30.27" width="0.29" height="58.9"/><rect class="cls-71" x="30.13" y="30.27" width="0.29" height="58.9"/><rect class="cls-72" x="30.41" y="30.27" width="0.29" height="58.9"/><rect class="cls-73" x="30.7" y="30.27" width="0.29" height="58.9"/><rect class="cls-74" x="30.98" y="30.27" width="0.29" height="58.9"/><rect class="cls-75" x="31.27" y="30.27" width="0.29" height="58.9"/><rect class="cls-76" x="31.56" y="30.27" width="0.29" height="58.9"/><rect class="cls-77" x="31.84" y="30.27" width="0.29" height="58.9"/><rect class="cls-78" x="32.13" y="30.27" width="0.29" height="58.9"/><rect class="cls-79" x="32.41" y="30.27" width="0.29" height="58.9"/><rect class="cls-80" x="32.7" y="30.27" width="0.29" height="58.9"/><rect class="cls-81" x="32.98" y="30.27" width="0.29" height="58.9"/><rect class="cls-82" x="33.27" y="30.27" width="0.29" height="58.9"/><rect class="cls-83" x="33.55" y="30.27" width="0.29" height="58.9"/><rect class="cls-84" x="33.84" y="30.27" width="0.29" height="58.9"/><rect class="cls-85" x="34.12" y="30.27" width="0.29" height="58.9"/><rect class="cls-86" x="34.41" y="30.27" width="0.29" height="58.9"/><rect class="cls-87" x="34.69" y="30.27" width="0.29" height="58.9"/><rect class="cls-88" x="34.98" y="30.27" width="0.29" height="58.9"/><rect class="cls-89" x="35.27" y="30.27" width="0.29" height="58.9"/><rect class="cls-90" x="35.55" y="30.27" width="0.29" height="58.9"/><rect class="cls-91" x="35.84" y="30.27" width="0.29" height="58.9"/><rect class="cls-92" x="36.12" y="30.27" width="0.29" height="58.9"/><rect class="cls-93" x="36.41" y="30.27" width="0.29" height="58.9"/><rect class="cls-94" x="36.69" y="30.27" width="0.29" height="58.9"/><rect class="cls-95" x="36.98" y="30.27" width="0.29" height="58.9"/><rect class="cls-96" x="37.26" y="30.27" width="0.29" height="58.9"/><rect class="cls-97" x="37.55" y="30.27" width="0.29" height="58.9"/><rect class="cls-98" x="37.83" y="30.27" width="0.29" height="58.9"/><rect class="cls-99" x="38.12" y="30.27" width="0.29" height="58.9"/><rect class="cls-100" x="38.4" y="30.27" width="0.29" height="58.9"/><rect class="cls-101" x="38.69" y="30.27" width="0.29" height="58.9"/><rect class="cls-102" x="38.98" y="30.27" width="0.29" height="58.9"/><rect class="cls-103" x="39.26" y="30.27" width="0.29" height="58.9"/><rect class="cls-104" x="39.55" y="30.27" width="0.29" height="58.9"/><rect class="cls-105" x="39.83" y="30.27" width="0.29" height="58.9"/><rect class="cls-106" x="40.12" y="30.27" width="0.29" height="58.9"/><rect class="cls-107" x="40.4" y="30.27" width="0.29" height="58.9"/><rect class="cls-108" x="40.69" y="30.27" width="0.29" height="58.9"/><rect class="cls-109" x="40.97" y="30.27" width="0.29" height="58.9"/><rect class="cls-110" x="41.26" y="30.27" width="0.29" height="58.9"/><rect class="cls-111" x="41.54" y="30.27" width="0.29" height="58.9"/><rect class="cls-112" x="41.83" y="30.27" width="0.29" height="58.9"/><rect class="cls-113" x="42.11" y="30.27" width="0.29" height="58.9"/><rect class="cls-114" x="42.4" y="30.27" width="0.29" height="58.9"/><rect class="cls-115" x="42.69" y="30.27" width="0.29" height="58.9"/><rect class="cls-116" x="42.97" y="30.27" width="0.29" height="58.9"/><rect class="cls-117" x="43.26" y="30.27" width="0.29" height="58.9"/><rect class="cls-118" x="43.54" y="30.27" width="0.29" height="58.9"/><rect class="cls-119" x="43.83" y="30.27" width="0.29" height="58.9"/><rect class="cls-119" x="44.11" y="30.27" width="0.29" height="58.9"/><rect class="cls-120" x="44.4" y="30.27" width="0.29" height="58.9"/><rect class="cls-121" x="44.68" y="30.27" width="0.29" height="58.9"/><rect class="cls-122" x="44.97" y="30.27" width="0.29" height="58.9"/><rect class="cls-123" x="45.25" y="30.27" width="0.29" height="58.9"/><rect class="cls-123" x="45.54" y="30.27" width="0.29" height="58.9"/><rect class="cls-124" x="45.82" y="30.27" width="0.29" height="58.9"/><rect class="cls-125" x="46.11" y="30.27" width="0.29" height="58.9"/><rect class="cls-126" x="46.39" y="30.27" width="0.29" height="58.9"/><rect class="cls-126" x="46.68" y="30.27" width="0.29" height="58.9"/><rect class="cls-127" x="46.97" y="30.27" width="0.29" height="58.9"/><rect class="cls-128" x="47.25" y="30.27" width="0.29" height="58.9"/><rect class="cls-129" x="47.54" y="30.27" width="0.29" height="58.9"/><rect class="cls-129" x="47.82" y="30.27" width="0.29" height="58.9"/><rect class="cls-130" x="48.11" y="30.27" width="0.29" height="58.9"/><rect class="cls-131" x="48.39" y="30.27" width="0.29" height="58.9"/><rect class="cls-131" x="48.68" y="30.27" width="0.29" height="58.9"/><rect class="cls-132" x="48.96" y="30.27" width="0.29" height="58.9"/><rect class="cls-133" x="49.25" y="30.27" width="0.29" height="58.9"/><rect class="cls-134" x="49.53" y="30.27" width="0.29" height="58.9"/><rect class="cls-135" x="49.82" y="30.27" width="0.29" height="58.9"/><rect class="cls-135" x="50.1" y="30.27" width="0.29" height="58.9"/><rect class="cls-136" x="50.39" y="30.27" width="0.29" height="58.9"/><rect class="cls-137" x="50.68" y="30.27" width="0.29" height="58.9"/><rect class="cls-137" x="50.96" y="30.27" width="0.29" height="58.9"/><rect class="cls-138" x="51.25" y="30.27" width="0.29" height="58.9"/><rect class="cls-139" x="51.53" y="30.27" width="0.29" height="58.9"/><rect class="cls-140" x="51.82" y="30.27" width="0.29" height="58.9"/><rect class="cls-141" x="52.1" y="30.27" width="0.29" height="58.9"/><rect class="cls-142" x="52.39" y="30.27" width="0.29" height="58.9"/><rect class="cls-142" x="52.67" y="30.27" width="0.29" height="58.9"/><rect class="cls-143" x="52.96" y="30.27" width="0.29" height="58.9"/><rect class="cls-143" x="53.24" y="30.27" width="0.29" height="58.9"/><rect class="cls-144" x="53.53" y="30.27" width="0.29" height="58.9"/><rect class="cls-145" x="53.81" y="30.27" width="0.29" height="58.9"/><rect class="cls-146" x="54.1" y="30.27" width="0.29" height="58.9"/><rect class="cls-146" x="54.39" y="30.27" width="0.29" height="58.9"/><rect class="cls-147" x="54.67" y="30.27" width="0.29" height="58.9"/><rect class="cls-148" x="54.96" y="30.27" width="0.29" height="58.9"/><rect class="cls-148" x="55.24" y="30.27" width="0.29" height="58.9"/><rect class="cls-149" x="55.53" y="30.27" width="0.29" height="58.9"/><rect class="cls-150" x="55.81" y="30.27" width="0.29" height="58.9"/><rect class="cls-150" x="56.1" y="30.27" width="0.29" height="58.9"/><rect class="cls-150" x="56.38" y="30.27" width="0.29" height="58.9"/><rect class="cls-3" x="56.67" y="30.27" width="0.29" height="58.9"/><rect class="cls-3" x="56.95" y="30.27" width="0.29" height="58.9"/><rect class="cls-3" x="57.24" y="30.27" width="0.29" height="58.9"/><rect class="cls-3" x="57.52" y="30.27" width="0.29" height="58.9"/><rect class="cls-3" x="57.81" y="30.27" width="1.98" height="58.9"/></g><path class="cls-151" d="M52.25,57.66l-.29.1c-3.4,1.07-6.43-1.47-9.22-2.94s-6-1-9-1.65A13.3,13.3,0,0,1,27,49.81a8,8,0,0,1-2.42-7.55c1.13-4,6.77-7.94,15.25-7,5.3.56,10.84,3.49,13.76,8.14C55.85,47,57.41,55.7,52.25,57.66Z"/><path class="cls-2" d="M53.19,57.72l-.3.1c-3.41,1.07-6.46-1.48-9.27-3s-6-1-9-1.67a13.4,13.4,0,0,1-6.76-3.37,8,8,0,0,1-2.43-7.59c1.13-4.06,6.8-8,15.33-7.07,5.32.56,10.89,3.5,13.83,8.18C56.8,47,58.38,55.75,53.19,57.72Z"/><path class="cls-152" d="M54.54,43.36C51.6,38.68,46,35.74,40.71,35.17a21.28,21.28,0,0,0-4.58,0,22.2,22.2,0,0,1,3.71.08c5.3.56,10.84,3.49,13.76,8.14,2.25,3.59,3.81,12.34-1.35,14.3l-.29.1a5.36,5.36,0,0,1-1.71.22,5.68,5.68,0,0,0,2.64-.16l.3-.11C58.38,55.76,56.8,47,54.54,43.36Z"/><path class="cls-152" d="M60,24.36l.32-1.86a1.08,1.08,0,0,0-1.51.06l-.54.56L57.83,26a.9.9,0,0,0,.14.68l2.29-2.39Z"/><path class="cls-152" d="M28.83,22.55a.5.5,0,0,0,0-.13l-1.65-3.8a2.33,2.33,0,0,0-.61,1.57A2.38,2.38,0,0,0,28.83,22.55Z"/></g></g></svg>