<svg xmlns="http://www.w3.org/2000/svg" xmlns:xlink="http://www.w3.org/1999/xlink" viewBox="0 0 200 200"><defs><style>.cls-1{fill:none;}.cls-2{isolation:isolate;}.cls-3{clip-path:url(#clip-path);}.cls-4{fill:#a4dded;}.cls-5{fill:#a2dced;}.cls-6{fill:#a1dcec;}.cls-7{fill:#9fdbec;}.cls-8{fill:#9edbec;}.cls-9{fill:#9cdaeb;}.cls-10{fill:#9ad9eb;}.cls-11{fill:#99d9eb;}.cls-12{fill:#97d8ea;}.cls-13{fill:#96d8ea;}.cls-14{fill:#94d7ea;}.cls-15{fill:#93d7ea;}.cls-16{fill:#91d6e9;}.cls-17{fill:#8fd5e9;}.cls-18{fill:#8ed5e9;}.cls-19{fill:#8cd4e8;}.cls-20{fill:#8bd4e8;}.cls-21{fill:#89d3e8;}.cls-22{fill:#88d3e7;}.cls-23{fill:#86d2e7;}.cls-24{fill:#85d2e7;}.cls-25{fill:#83d1e7;}.cls-26{fill:#82d0e6;}.cls-27{fill:#81d0e6;}.cls-28{fill:#7fcfe6;}.cls-29{fill:#7ecfe5;}.cls-30{fill:#7ccee5;}.cls-31{fill:#7bcee5;}.cls-32{fill:#79cde5;}.cls-33{fill:#78cde4;}.cls-34{fill:#77cce4;}.cls-35{fill:#75cce4;}.cls-36{fill:#74cbe4;}.cls-37{fill:#73cbe3;}.cls-38{fill:#71cae3;}.cls-39{fill:#70cae3;}.cls-40{fill:#6fc9e2;}.cls-41{fill:#6dc9e2;}.cls-42{fill:#6cc8e2;}.cls-43{fill:#6bc8e2;}.cls-44{fill:#69c7e1;}.cls-45{fill:#68c7e1;}.cls-46{fill:#67c6e1;}.cls-47{fill:#66c6e1;}.cls-48{fill:#64c5e0;}.cls-49{fill:#63c5e0;}.cls-50{fill:#62c4e0;}.cls-51{fill:#61c4e0;}.cls-52{fill:#5fc4df;}.cls-53{fill:#5ec3df;}.cls-54{fill:#5dc3df;}.cls-55{fill:#5cc2df;}.cls-56{fill:#5bc2df;}.cls-57{fill:#59c1de;}.cls-58{fill:#58c1de;}.cls-59{fill:#57c1de;}.cls-60{fill:#56c0de;}.cls-61{fill:#55c0dd;}.cls-62{fill:#54bfdd;}.cls-63{fill:#53bfdd;}.cls-64{fill:#51bedd;}.cls-65{fill:#50bedd;}.cls-66{fill:#4fbedc;}.cls-67{fill:#4ebddc;}.cls-68{fill:#4dbddc;}.cls-69{fill:#4cbcdc;}.cls-70{fill:#4bbcdc;}.cls-71{fill:#4abcdb;}.cls-72{fill:#49bbdb;}.cls-73{fill:#48bbdb;}.cls-74{fill:#47bbdb;}.cls-75{fill:#46badb;}.cls-76{fill:#45bada;}.cls-77{fill:#44bada;}.cls-78{fill:#43b9da;}.cls-79{fill:#42b9da;}.cls-80{fill:#41b8da;}.cls-81{fill:#40b8d9;}.cls-82{fill:#3fb7d9;}.cls-83{fill:#3eb7d9;}.cls-84{fill:#3db7d9;}.cls-85{fill:#3cb7d9;}.cls-86{fill:#3bb6d8;}.cls-87{fill:#3ab6d8;}.cls-88{fill:#39b5d8;}.cls-89{fill:#38b5d8;}.cls-90{fill:#37b5d8;}.cls-91{fill:#36b4d7;}.cls-92{fill:#35b4d7;}.cls-93{fill:#34b4d7;}.cls-94{fill:#33b3d7;}.cls-95{fill:#32b3d7;}.cls-96{fill:#31b3d6;}.cls-97{fill:#31b2d6;}.cls-98{fill:#30b2d6;}.cls-99{fill:#2fb2d6;}.cls-100{fill:#2eb1d6;}.cls-101{fill:#2db1d6;}.cls-102{fill:#2cb1d5;}.cls-103{fill:#2bb0d5;}.cls-104{fill:#2ab0d5;}.cls-105{fill:#29b0d5;}.cls-106{fill:#29afd5;}.cls-107{fill:#28afd5;}.cls-108{fill:#27afd4;}.cls-109{fill:#26afd4;}.cls-110{fill:#26aed4;}.cls-111{fill:#25aed4;}.cls-112{fill:#fdffff;}.cls-113,.cls-118{opacity:0.85;}.cls-113,.cls-115,.cls-116{mix-blend-mode:multiply;}.cls-114{fill:#e44626;}.cls-116{opacity:0.25;}.cls-117{fill:#868f91;}.cls-118{mix-blend-mode:lighten;}.cls-119{fill:#fff;}</style><clipPath id="clip-path"><path class="cls-1" d="M146.34,150.51H53.66a1.84,1.84,0,0,1-1.84-1.84V31.84A1.84,1.84,0,0,1,53.66,30h76.53l18,19.06v99.61A1.84,1.84,0,0,1,146.34,150.51Z"/></clipPath></defs><g class="cls-2"><g id="레이어_1" data-name="레이어 1"><g class="cls-3"><polygon class="cls-4" points="108.41 30 51.82 94.44 51.82 30 108.41 30"/><polygon class="cls-4" points="109.38 30 51.82 95.55 51.82 94.44 108.41 30 109.38 30"/><polygon class="cls-5" points="110.34 30 51.82 96.65 51.82 95.55 109.38 30 110.34 30"/><polygon class="cls-6" points="111.31 30 51.82 97.75 51.82 96.65 110.34 30 111.31 30"/><polygon class="cls-7" points="112.28 30 51.82 98.85 51.82 97.75 111.31 30 112.28 30"/><polygon class="cls-8" points="113.25 30 51.82 99.95 51.82 98.85 112.28 30 113.25 30"/><polygon class="cls-9" points="114.21 30 51.82 101.05 51.82 99.95 113.25 30 114.21 30"/><polygon class="cls-10" points="115.18 30 51.82 102.16 51.82 101.05 114.21 30 115.18 30"/><polygon class="cls-11" points="116.15 30 51.82 103.26 51.82 102.16 115.18 30 116.15 30"/><polygon class="cls-12" points="117.11 30 51.82 104.36 51.82 103.26 116.15 30 117.11 30"/><polygon class="cls-13" points="118.08 30 51.82 105.46 51.82 104.36 117.11 30 118.08 30"/><polygon class="cls-14" points="119.05 30 51.82 106.56 51.82 105.46 118.08 30 119.05 30"/><polygon class="cls-15" points="120.02 30 51.82 107.66 51.82 106.56 119.05 30 120.02 30"/><polygon class="cls-16" points="120.98 30 51.82 108.76 51.82 107.66 120.02 30 120.98 30"/><polygon class="cls-17" points="121.95 30 51.82 109.86 51.82 108.76 120.98 30 121.95 30"/><polygon class="cls-18" points="122.92 30 51.82 110.97 51.82 109.86 121.95 30 122.92 30"/><polygon class="cls-19" points="123.88 30 51.82 112.07 51.82 110.97 122.92 30 123.88 30"/><polygon class="cls-20" points="124.85 30 51.82 113.17 51.82 112.07 123.88 30 124.85 30"/><polygon class="cls-21" points="125.82 30 51.82 114.27 51.82 113.17 124.85 30 125.82 30"/><polygon class="cls-22" points="126.79 30 51.82 115.37 51.82 114.27 125.82 30 126.79 30"/><polygon class="cls-23" points="127.75 30 51.82 116.47 51.82 115.37 126.79 30 127.75 30"/><polygon class="cls-24" points="128.72 30 51.82 117.58 51.82 116.47 127.75 30 128.72 30"/><polygon class="cls-25" points="129.69 30 51.82 118.68 51.82 117.58 128.72 30 129.69 30"/><polygon class="cls-26" points="130.66 30 51.82 119.78 51.82 118.68 129.69 30 130.66 30"/><polygon class="cls-27" points="131.62 30 51.82 120.88 51.82 119.78 130.66 30 131.62 30"/><polygon class="cls-28" points="132.59 30 51.82 121.98 51.82 120.88 131.62 30 132.59 30"/><polygon class="cls-29" points="133.56 30 51.82 123.08 51.82 121.98 132.59 30 133.56 30"/><polygon class="cls-30" points="134.52 30 51.82 124.19 51.82 123.08 133.56 30 134.52 30"/><polygon class="cls-31" points="134.78 30 135.18 30.35 51.82 125.29 51.82 124.19 134.52 30 134.78 30"/><polygon class="cls-32" points="135.18 30.35 135.73 30.83 51.82 126.39 51.82 125.29 135.18 30.35"/><polygon class="cls-33" points="135.73 30.83 136.28 31.31 51.82 127.49 51.82 126.39 135.73 30.83"/><polygon class="cls-34" points="136.28 31.31 136.82 31.79 51.82 128.59 51.82 127.49 136.28 31.31"/><polygon class="cls-35" points="136.82 31.79 137.37 32.27 51.82 129.69 51.82 128.59 136.82 31.79"/><polygon class="cls-36" points="137.37 32.27 137.91 32.75 51.82 130.79 51.82 129.69 137.37 32.27"/><polygon class="cls-37" points="137.91 32.75 138.46 33.23 51.82 131.9 51.82 130.79 137.91 32.75"/><polygon class="cls-38" points="138.46 33.23 139 33.71 51.82 133 51.82 131.9 138.46 33.23"/><polygon class="cls-39" points="139 33.71 139.55 34.19 51.82 134.1 51.82 133 139 33.71"/><polygon class="cls-40" points="139.55 34.19 140.1 34.67 51.82 135.2 51.82 134.1 139.55 34.19"/><polygon class="cls-41" points="140.1 34.67 140.64 35.15 51.82 136.3 51.82 135.2 140.1 34.67"/><polygon class="cls-42" points="140.64 35.15 141.19 35.63 51.82 137.4 51.82 136.3 140.64 35.15"/><polygon class="cls-43" points="141.19 35.63 141.74 36.1 51.82 138.5 51.82 137.4 141.19 35.63"/><polygon class="cls-44" points="141.74 36.1 142.28 36.59 51.82 139.6 51.82 138.5 141.74 36.1"/><polygon class="cls-45" points="142.28 36.59 142.83 37.06 51.82 140.71 51.82 139.6 142.28 36.59"/><polygon class="cls-46" points="142.83 37.06 143.37 37.54 51.82 141.81 51.82 140.71 142.83 37.06"/><polygon class="cls-47" points="143.37 37.54 143.92 38.02 51.82 142.91 51.82 141.81 143.37 37.54"/><polygon class="cls-48" points="143.92 38.02 144.47 38.5 51.82 144.01 51.82 142.91 143.92 38.02"/><polygon class="cls-49" points="144.47 38.5 145.01 38.98 51.82 145.11 51.82 144.01 144.47 38.5"/><polygon class="cls-50" points="145.01 38.98 145.56 39.46 51.82 146.21 51.82 145.11 145.01 38.98"/><polygon class="cls-51" points="145.56 39.46 146.1 39.94 51.82 147.32 51.82 146.21 145.56 39.46"/><polygon class="cls-52" points="146.1 39.94 146.65 40.42 51.82 148.42 51.82 147.32 146.1 39.94"/><polygon class="cls-53" points="146.65 40.42 147.2 40.9 51.82 149.52 51.82 148.42 146.65 40.42"/><polygon class="cls-54" points="147.2 40.9 147.74 41.38 51.92 150.51 51.82 150.51 51.82 149.52 147.2 40.9"/><polygon class="cls-55" points="147.74 41.38 148.18 41.76 148.18 41.99 52.89 150.51 51.92 150.51 147.74 41.38"/><polygon class="cls-56" points="148.18 43.09 53.85 150.51 52.89 150.51 148.18 41.99 148.18 43.09"/><polygon class="cls-57" points="148.18 44.19 54.82 150.51 53.85 150.51 148.18 43.09 148.18 44.19"/><polygon class="cls-58" points="148.18 45.29 55.79 150.51 54.82 150.51 148.18 44.19 148.18 45.29"/><polygon class="cls-59" points="148.18 46.39 56.76 150.51 55.79 150.51 148.18 45.29 148.18 46.39"/><polygon class="cls-60" points="148.18 47.49 57.72 150.51 56.76 150.51 148.18 46.39 148.18 47.49"/><polygon class="cls-61" points="148.18 48.59 58.69 150.51 57.72 150.51 148.18 47.49 148.18 48.59"/><polygon class="cls-62" points="148.18 49.7 59.66 150.51 58.69 150.51 148.18 48.59 148.18 49.7"/><polygon class="cls-63" points="148.18 50.8 60.62 150.51 59.66 150.51 148.18 49.7 148.18 50.8"/><polygon class="cls-64" points="148.18 51.9 61.59 150.51 60.62 150.51 148.18 50.8 148.18 51.9"/><polygon class="cls-65" points="148.18 53 62.56 150.51 61.59 150.51 148.18 51.9 148.18 53"/><polygon class="cls-66" points="148.18 54.1 63.52 150.51 62.56 150.51 148.18 53 148.18 54.1"/><polygon class="cls-67" points="148.18 55.2 64.49 150.51 63.52 150.51 148.18 54.1 148.18 55.2"/><polygon class="cls-68" points="148.18 56.31 65.46 150.51 64.49 150.51 148.18 55.2 148.18 56.31"/><polygon class="cls-69" points="148.18 57.41 66.43 150.51 65.46 150.51 148.18 56.31 148.18 57.41"/><polygon class="cls-70" points="148.18 58.51 67.39 150.51 66.43 150.51 148.18 57.41 148.18 58.51"/><polygon class="cls-71" points="148.18 59.61 68.36 150.51 67.39 150.51 148.18 58.51 148.18 59.61"/><polygon class="cls-72" points="148.18 60.71 69.33 150.51 68.36 150.51 148.18 59.61 148.18 60.71"/><polygon class="cls-73" points="148.18 61.81 70.3 150.51 69.33 150.51 148.18 60.71 148.18 61.81"/><polygon class="cls-74" points="148.18 62.91 71.26 150.51 70.3 150.51 148.18 61.81 148.18 62.91"/><polygon class="cls-75" points="148.18 64.02 72.23 150.51 71.26 150.51 148.18 62.91 148.18 64.02"/><polygon class="cls-76" points="148.18 65.12 73.2 150.51 72.23 150.51 148.18 64.02 148.18 65.12"/><polygon class="cls-77" points="148.18 66.22 74.16 150.51 73.2 150.51 148.18 65.12 148.18 66.22"/><polygon class="cls-78" points="148.18 67.32 75.13 150.51 74.16 150.51 148.18 66.22 148.18 67.32"/><polygon class="cls-79" points="148.18 68.42 76.1 150.51 75.13 150.51 148.18 67.32 148.18 68.42"/><polygon class="cls-80" points="148.18 69.52 77.07 150.51 76.1 150.51 148.18 68.42 148.18 69.52"/><polygon class="cls-81" points="148.18 70.63 78.03 150.51 77.07 150.51 148.18 69.52 148.18 70.63"/><polygon class="cls-81" points="148.18 71.73 79 150.51 78.03 150.51 148.18 70.63 148.18 71.73"/><polygon class="cls-82" points="148.18 72.83 79.97 150.51 79 150.51 148.18 71.73 148.18 72.83"/><polygon class="cls-83" points="148.18 73.93 80.94 150.51 79.97 150.51 148.18 72.83 148.18 73.93"/><polygon class="cls-84" points="148.18 75.03 81.9 150.51 80.94 150.51 148.18 73.93 148.18 75.03"/><polygon class="cls-85" points="148.18 76.13 82.87 150.51 81.9 150.51 148.18 75.03 148.18 76.13"/><polygon class="cls-86" points="148.18 77.23 83.84 150.51 82.87 150.51 148.18 76.13 148.18 77.23"/><polygon class="cls-87" points="148.18 78.33 84.8 150.51 83.84 150.51 148.18 77.23 148.18 78.33"/><polygon class="cls-87" points="148.18 79.44 85.77 150.51 84.8 150.51 148.18 78.33 148.18 79.44"/><polygon class="cls-88" points="148.18 80.54 86.74 150.51 85.77 150.51 148.18 79.44 148.18 80.54"/><polygon class="cls-89" points="148.18 81.64 87.7 150.51 86.74 150.51 148.18 80.54 148.18 81.64"/><polygon class="cls-90" points="148.18 82.74 88.67 150.51 87.7 150.51 148.18 81.64 148.18 82.74"/><polygon class="cls-91" points="148.18 83.84 89.64 150.51 88.67 150.51 148.18 82.74 148.18 83.84"/><polygon class="cls-91" points="148.18 84.94 90.61 150.51 89.64 150.51 148.18 83.84 148.18 84.94"/><polygon class="cls-92" points="148.18 86.05 91.57 150.51 90.61 150.51 148.18 84.94 148.18 86.05"/><polygon class="cls-93" points="148.18 87.15 92.54 150.51 91.57 150.51 148.18 86.05 148.18 87.15"/><polygon class="cls-94" points="148.18 88.25 93.51 150.51 92.54 150.51 148.18 87.15 148.18 88.25"/><polygon class="cls-94" points="148.18 89.35 94.47 150.51 93.51 150.51 148.18 88.25 148.18 89.35"/><polygon class="cls-95" points="148.18 90.45 95.44 150.51 94.47 150.51 148.18 89.35 148.18 90.45"/><polygon class="cls-96" points="148.18 91.55 96.41 150.51 95.44 150.51 148.18 90.45 148.18 91.55"/><polygon class="cls-97" points="148.18 92.65 97.38 150.51 96.41 150.51 148.18 91.55 148.18 92.65"/><polygon class="cls-98" points="148.18 93.76 98.34 150.51 97.38 150.51 148.18 92.65 148.18 93.76"/><polygon class="cls-99" points="148.18 94.86 99.31 150.51 98.34 150.51 148.18 93.76 148.18 94.86"/><polygon class="cls-99" points="148.18 95.96 100.28 150.51 99.31 150.51 148.18 94.86 148.18 95.96"/><polygon class="cls-100" points="148.18 97.06 101.25 150.51 100.28 150.51 148.18 95.96 148.18 97.06"/><polygon class="cls-100" points="148.18 98.16 102.21 150.51 101.25 150.51 148.18 97.06 148.18 98.16"/><polygon class="cls-101" points="148.18 99.26 103.18 150.51 102.21 150.51 148.18 98.16 148.18 99.26"/><polygon class="cls-102" points="148.18 100.36 104.15 150.51 103.18 150.51 148.18 99.26 148.18 100.36"/><polygon class="cls-102" points="148.18 101.47 105.11 150.51 104.15 150.51 148.18 100.36 148.18 101.47"/><polygon class="cls-103" points="148.18 102.57 106.08 150.51 105.11 150.51 148.18 101.47 148.18 102.57"/><polygon class="cls-103" points="148.18 103.67 107.05 150.51 106.08 150.51 148.18 102.57 148.18 103.67"/><polygon class="cls-104" points="148.18 104.77 108.02 150.51 107.05 150.51 148.18 103.67 148.18 104.77"/><polygon class="cls-104" points="148.18 105.87 108.98 150.51 108.02 150.51 148.18 104.77 148.18 105.87"/><polygon class="cls-105" points="148.18 106.97 109.95 150.51 108.98 150.51 148.18 105.87 148.18 106.97"/><polygon class="cls-106" points="148.18 108.08 110.92 150.51 109.95 150.51 148.18 106.97 148.18 108.08"/><polygon class="cls-106" points="148.18 109.18 111.89 150.51 110.92 150.51 148.18 108.08 148.18 109.18"/><polygon class="cls-107" points="148.18 110.28 112.85 150.51 111.89 150.51 148.18 109.18 148.18 110.28"/><polygon class="cls-107" points="148.18 111.38 113.82 150.51 112.85 150.51 148.18 110.28 148.18 111.38"/><polygon class="cls-108" points="148.18 112.48 114.79 150.51 113.82 150.51 148.18 111.38 148.18 112.48"/><polygon class="cls-108" points="148.18 113.58 115.75 150.51 114.79 150.51 148.18 112.48 148.18 113.58"/><polygon class="cls-108" points="148.18 114.68 116.72 150.51 115.75 150.51 148.18 113.58 148.18 114.68"/><polygon class="cls-109" points="148.18 115.78 117.69 150.51 116.72 150.51 148.18 114.68 148.18 115.78"/><polygon class="cls-110" points="148.18 116.89 118.66 150.51 117.69 150.51 148.18 115.78 148.18 116.89"/><polygon class="cls-110" points="148.18 117.99 119.62 150.51 118.66 150.51 148.18 116.89 148.18 117.99"/><polygon class="cls-110" points="148.18 119.09 120.59 150.51 119.62 150.51 148.18 117.99 148.18 119.09"/><polygon class="cls-111" points="148.18 120.19 121.56 150.51 120.59 150.51 148.18 119.09 148.18 120.19"/><polygon class="cls-111" points="148.18 121.29 122.52 150.51 121.56 150.51 148.18 120.19 148.18 121.29"/><polygon class="cls-111" points="148.18 122.39 123.49 150.51 122.52 150.51 148.18 121.29 148.18 122.39"/><polygon class="cls-111" points="148.18 123.5 124.46 150.51 123.49 150.51 148.18 122.39 148.18 123.5"/><polygon class="cls-111" points="148.18 124.6 125.43 150.51 124.46 150.51 148.18 123.5 148.18 124.6"/><polygon class="cls-111" points="125.43 150.51 148.18 124.6 148.18 150.51 125.43 150.51"/></g><path class="cls-112" d="M141.21,138.92A41.2,41.2,0,0,1,120.8,174.8a36.18,36.18,0,0,1-4.12,2.09c-.6.27-1.23.51-1.85.72a31.1,31.1,0,0,1-4.13,1.26,37.47,37.47,0,0,1-9.21,1.13,37,37,0,0,1-7.56-.75,35.19,35.19,0,0,1-4.13-1.06c-.59-.17-1.22-.41-1.85-.65a34.64,34.64,0,0,1-4.13-1.81,41.23,41.23,0,0,1-22-36.81c0-22.69,17.76-41.08,39.69-41.08S141.21,116.23,141.21,138.92Z"/><path class="cls-111" d="M88.79,146.63a2.07,2.07,0,0,1,.32,1.11v28.79a32.94,32.94,0,0,1-4-1.67V148.34l-5.38-8.06a2.18,2.18,0,0,1-.32-1.43l2.88-17.16a2,2,0,0,1,3.89.66l-2.72,16.38Z"/><path class="cls-111" d="M100.52,138.85a2.1,2.1,0,0,1-.29,1.43l-5.4,8.06v29.77a30.39,30.39,0,0,1-4-1V147.74a2.09,2.09,0,0,1,.34-1.11l5.28-7.9-2.71-16.38a2,2,0,0,1,1.61-2.27,2,2,0,0,1,2.27,1.61Z"/><path class="cls-111" d="M90,141.14a2,2,0,0,1-2-2V122a2,2,0,0,1,4,0v17.15A2,2,0,0,1,90,141.14Z"/><path class="cls-111" d="M118,120.14a2,2,0,0,0-2.22.72,58.41,58.41,0,0,0-8.47,17.45c-1.74,6.14.25,11.26,2.4,15.62v23.83a29.22,29.22,0,0,0,4-1.16V153.46a2.21,2.21,0,0,0-.18-.89c-2.47-4.93-3.64-8.66-2.38-13.15a53.5,53.5,0,0,1,4.34-10.53v47a36,36,0,0,0,4-1.93V122A2,2,0,0,0,118,120.14Z"/><g class="cls-113"><path class="cls-114" d="M126.94,57.7H89.09a2.09,2.09,0,0,1,0-4.17h37.85a2.09,2.09,0,0,1,0,4.17Z"/></g><g class="cls-113"><path class="cls-114" d="M126.94,81.7H89.09a2.08,2.08,0,0,1,0-4.16h37.85a2.08,2.08,0,1,1,0,4.16Z"/></g><g class="cls-115"><path class="cls-114" d="M101.49,178.6a36.28,36.28,0,0,1-7.35-.73,34.45,34.45,0,0,1-4-1c-.51-.14-1.12-.38-1.74-.61a34,34,0,0,1-4-1.77,39.63,39.63,0,0,1-21.28-35.54c0-21.88,17.23-39.68,38.41-39.68s38.44,17.8,38.44,39.68a39.91,39.91,0,0,1-19.72,34.65,33.65,33.65,0,0,1-4,2,16.46,16.46,0,0,1-1.88.73,27.86,27.86,0,0,1-4,1.21A36.42,36.42,0,0,1,101.49,178.6Zm0-74.82c-18.68,0-33.87,15.76-33.87,35.14a35.11,35.11,0,0,0,18.82,31.5A29.39,29.39,0,0,0,89.93,172c.58.22,1.07.41,1.54.55a27.32,27.32,0,0,0,3.56.91,32.71,32.71,0,0,0,14.29-.31,25.58,25.58,0,0,0,3.51-1.07,15.17,15.17,0,0,0,1.54-.6,30.83,30.83,0,0,0,3.55-1.78,35.38,35.38,0,0,0,17.47-30.73C135.39,119.54,120.18,103.78,101.49,103.78Z"/></g><g class="cls-116"><path class="cls-117" d="M140.15,49.06h8l-.07,4.35H136.28c-2.17,0-3.92-2.1-3.92-4.69Z"/></g><g class="cls-118"><path class="cls-119" d="M130.19,30l18,19.06H134.32a3.92,3.92,0,0,1-3.89-4Z"/></g><path class="cls-119" d="M72,64.94h-.07a2.08,2.08,0,0,1-1.7-1l-4.35-7.11a2.08,2.08,0,0,1,3.56-2.17l2.71,4.43L80.7,47.16a2.09,2.09,0,0,1,3.39,2.43L73.7,64.07A2.1,2.1,0,0,1,72,64.94Z"/><g class="cls-115"><path class="cls-114" d="M70.41,64.93h-.07a2.11,2.11,0,0,1-1.71-1l-4.34-7.11a2.08,2.08,0,1,1,3.56-2.17l2.7,4.43,8.56-11.93a2.09,2.09,0,0,1,3.39,2.43L72.11,64.06A2.1,2.1,0,0,1,70.41,64.93Z"/></g><path class="cls-119" d="M71.48,89.22h-.07a2.1,2.1,0,0,1-1.71-1l-4.34-7.12a2.08,2.08,0,0,1,3.55-2.17l2.71,4.43,8.56-11.92a2.08,2.08,0,1,1,3.38,2.42L73.17,88.36A2.08,2.08,0,0,1,71.48,89.22Z"/><g class="cls-115"><path class="cls-114" d="M69.89,89.21h-.08a2.08,2.08,0,0,1-1.7-1L63.77,81.1a2.08,2.08,0,1,1,3.55-2.17L70,83.36l8.56-11.93A2.08,2.08,0,1,1,82,73.86L71.58,88.34A2.07,2.07,0,0,1,69.89,89.21Z"/></g></g></g></svg>