<svg xmlns="http://www.w3.org/2000/svg" xmlns:xlink="http://www.w3.org/1999/xlink" viewBox="0 0 57.35 90.07"><defs><style>.cls-1{fill:none;}.cls-2{isolation:isolate;}.cls-3{clip-path:url(#clip-path);}.cls-4{fill:#e6f6fa;}.cls-5{fill:#e5f6fa;}.cls-6{fill:#e4f5fa;}.cls-7{fill:#e3f5f9;}.cls-8{fill:#e2f5f9;}.cls-9{fill:#e2f4f9;}.cls-10{fill:#e1f4f9;}.cls-11{fill:#e0f4f9;}.cls-12{fill:#dff4f9;}.cls-13{fill:#dff3f9;}.cls-14{fill:#def3f8;}.cls-15{fill:#ddf3f8;}.cls-16{fill:#dcf2f8;}.cls-17{fill:#dbf2f8;}.cls-18{fill:#daf2f8;}.cls-19{fill:#d9f1f7;}.cls-20{fill:#d8f1f7;}.cls-21{fill:#d7f0f7;}.cls-22{fill:#d6f0f7;}.cls-23{fill:#d5f0f7;}.cls-24{fill:#d4eff6;}.cls-25{fill:#d3eff6;}.cls-26{fill:#d2eff6;}.cls-27{fill:#d2eef6;}.cls-28{fill:#d1eef6;}.cls-29{fill:#d0eef6;}.cls-30{fill:#cfedf5;}.cls-31{fill:#ceedf5;}.cls-32{fill:#cdedf5;}.cls-33{fill:#ccecf5;}.cls-34{fill:#cbecf5;}.cls-35{fill:#caebf4;}.cls-36{fill:#c9ebf4;}.cls-37{fill:#c8ebf4;}.cls-38{fill:#c7eaf4;}.cls-39{fill:#c6eaf4;}.cls-40{fill:#c5eaf4;}.cls-41{fill:#c4e9f3;}.cls-42{fill:#c3e9f3;}.cls-43{fill:#c2e9f3;}.cls-44{fill:#c1e8f3;}.cls-45{fill:#c0e8f3;}.cls-46{fill:#c0e8f2;}.cls-47{fill:#bfe7f2;}.cls-48{fill:#bee7f2;}.cls-49{fill:#bde7f2;}.cls-50{fill:#bce6f2;}.cls-51{fill:#bbe6f1;}.cls-52{fill:#bae6f1;}.cls-53{fill:#b9e5f1;}.cls-54{fill:#b8e5f1;}.cls-55{fill:#b7e4f1;}.cls-56{fill:#b6e4f1;}.cls-57{fill:#b5e4f0;}.cls-58{fill:#b4e3f0;}.cls-59{fill:#b3e3f0;}.cls-60{fill:#b2e3f0;}.cls-61{fill:#b1e2f0;}.cls-62{fill:#b0e2ef;}.cls-63{fill:#afe2ef;}.cls-64{fill:#aee1ef;}.cls-65{fill:#ade1ef;}.cls-66{fill:#ace0ef;}.cls-67{fill:#abe0ee;}.cls-68{fill:#aae0ee;}.cls-69{fill:#a9dfee;}.cls-70{fill:#a8dfee;}.cls-71{fill:#a7dfee;}.cls-72{fill:#a6deed;}.cls-73{fill:#a5deed;}.cls-74{fill:#a4dded;}.cls-75{fill:#a3dded;}.cls-76{fill:#a2dded;}.cls-77{fill:#a1dcec;}.cls-78{fill:#a0dcec;}.cls-79{fill:#9fdcec;}.cls-80{fill:#9edbec;}.cls-81{fill:#9ddbec;}.cls-82{fill:#9cdaeb;}.cls-83{fill:#9bdaeb;}.cls-84{fill:#9adaeb;}.cls-85{fill:#99d9eb;}.cls-86{fill:#98d9eb;}.cls-87{fill:#97d9ea;}.cls-88{fill:#96d8ea;}.cls-89{fill:#95d8ea;}.cls-90{fill:#94d7ea;}.cls-91{fill:#93d7ea;}.cls-92{fill:#92d7e9;}.cls-93{fill:#91d6e9;}.cls-94{fill:#90d6e9;}.cls-95{fill:#8fd5e9;}.cls-96{fill:#8ed5e9;}.cls-97{fill:#8dd5e8;}.cls-98{fill:#8cd4e8;}.cls-99{fill:#8bd4e8;}.cls-100{fill:#8ad4e8;}.cls-101{fill:#88d3e8;}.cls-102{fill:#87d3e7;}.cls-103{fill:#86d2e7;}.cls-104{fill:#85d2e7;}.cls-105{fill:#84d2e7;}.cls-106{fill:#83d1e7;}.cls-107{fill:#82d1e6;}.cls-108{fill:#81d0e6;}.cls-109{fill:#80d0e6;}.cls-110{fill:#7fd0e6;}.cls-111{fill:#7ecfe6;}.cls-112{fill:#7dcfe5;}.cls-113{fill:#7ccee5;}.cls-114{fill:#7bcee5;}.cls-115{fill:#7acee5;}.cls-116{fill:#79cde4;}.cls-117{fill:#78cde4;}.cls-118{fill:#76cce4;}.cls-119{fill:#75cce4;}.cls-120{fill:#74cce4;}.cls-121{fill:#73cbe3;}.cls-122{fill:#72cbe3;}.cls-123{fill:#71cae3;}.cls-124{fill:#70cae3;}.cls-125{fill:#6fcae3;}.cls-126{fill:#6ec9e2;}.cls-127{fill:#6dc9e2;}.cls-128{fill:#6cc8e2;}.cls-129{fill:#6bc8e2;}.cls-130{fill:#69c8e1;}.cls-131{fill:#68c7e1;}.cls-132{fill:#67c7e1;}.cls-133{fill:#66c6e1;}.cls-134{fill:#65c6e1;}.cls-135{fill:#64c5e0;}.cls-136{fill:#63c5e0;}.cls-137{fill:#62c5e0;}.cls-138{fill:#61c4e0;}.cls-139{fill:#60c4e0;}.cls-140{fill:#5fc3df;}.cls-141{fill:#5dc3df;}.cls-142{fill:#5cc3df;}.cls-143{fill:#5bc2df;}.cls-144{fill:#5ac2de;}.cls-145{fill:#59c1de;}.cls-146{fill:#58c1de;}.cls-147{fill:#57c1de;}.cls-148{fill:#56c0de;}.cls-149{fill:#55c0dd;}.cls-150{fill:#53bfdd;}.cls-151{fill:#52bfdd;}.cls-152{fill:#51bedd;}.cls-153{fill:#50bedc;}.cls-154{fill:#4fbedc;}.cls-155{fill:#4ebddc;}.cls-156{fill:#4dbddc;}.cls-157{fill:#4cbcdc;}.cls-158{fill:#4bbcdb;}.cls-159{fill:#49bcdb;}.cls-160{fill:#48bbdb;}.cls-161{fill:#47bbdb;}.cls-162{fill:#46badb;}.cls-163{fill:#45bada;}.cls-164{fill:#44b9da;}.cls-165{fill:#43b9da;}.cls-166{fill:#42b9da;}.cls-167{fill:#40b8d9;}.cls-168{fill:#3fb8d9;}.cls-169{fill:#3eb7d9;}.cls-170{fill:#3db7d9;}.cls-171{fill:#3cb7d8;}.cls-172{fill:#3bb6d8;}.cls-173{fill:#3ab6d8;}.cls-174{fill:#38b5d8;}.cls-175{fill:#37b5d8;}.cls-176{fill:#36b4d7;}.cls-177{fill:#35b4d7;}.cls-178{fill:#34b4d7;}.cls-179{fill:#33b3d7;}.cls-180{fill:#32b3d6;}.cls-181{fill:#30b2d6;}.cls-182{fill:#2fb2d6;}.cls-183{fill:#2eb1d6;}.cls-184{fill:#2db1d6;}.cls-185{fill:#2cb1d5;}.cls-186{fill:#2bb0d5;}.cls-187{fill:#2ab0d5;}.cls-188{fill:#28afd5;}.cls-189{fill:#27afd4;}.cls-190{fill:#26aed4;}.cls-191{fill:#25aed4;}.cls-192{fill:#fdffff;}.cls-193{fill:#4c4659;}.cls-194{fill:#e44626;}.cls-195{opacity:0.8;}.cls-196{fill:#3c354a;}.cls-197{opacity:0.25;mix-blend-mode:multiply;}.cls-198{fill:#868f91;}.cls-199{fill:#eaf6f9;}</style><clipPath id="clip-path" transform="translate(0 0)"><path class="cls-1" d="M56.26,71.73H1.09A1.09,1.09,0,0,1,0,70.63V1.09A1.09,1.09,0,0,1,1.09,0H46.64L57.35,11.34V70.63A1.09,1.09,0,0,1,56.26,71.73Z"/></clipPath></defs><g class="cls-2"><g id="Layer_2" data-name="Layer 2"><g id="Layer_1-2" data-name="Layer 1"><g class="cls-3"><polygon class="cls-4" points="19.73 0 0 25.46 0 0 19.73 0"/><polygon class="cls-4" points="20.21 0 0 26.08 0 25.46 19.73 0 20.21 0"/><polygon class="cls-4" points="20.69 0 0 26.7 0 26.08 20.21 0 20.69 0"/><polygon class="cls-5" points="21.17 0 0 27.32 0 26.7 20.69 0 21.17 0"/><polygon class="cls-6" points="21.65 0 0 27.94 0 27.32 21.17 0 21.65 0"/><polygon class="cls-6" points="22.13 0 0 28.56 0 27.94 21.65 0 22.13 0"/><polygon class="cls-7" points="22.61 0 0 29.18 0 28.56 22.13 0 22.61 0"/><polygon class="cls-8" points="23.09 0 0 29.8 0 29.18 22.61 0 23.09 0"/><polygon class="cls-9" points="23.57 0 0 30.42 0 29.8 23.09 0 23.57 0"/><polygon class="cls-10" points="24.05 0 0 31.04 0 30.42 23.57 0 24.05 0"/><polygon class="cls-11" points="24.53 0 0 31.66 0 31.04 24.05 0 24.53 0"/><polygon class="cls-12" points="25.01 0 0 32.28 0 31.66 24.53 0 25.01 0"/><polygon class="cls-13" points="25.49 0 0 32.9 0 32.28 25.01 0 25.49 0"/><polygon class="cls-14" points="25.97 0 0 33.52 0 32.9 25.49 0 25.97 0"/><polygon class="cls-15" points="26.45 0 0 34.13 0 33.52 25.97 0 26.45 0"/><polygon class="cls-16" points="26.93 0 0 34.75 0 34.13 26.45 0 26.93 0"/><polygon class="cls-16" points="27.41 0 0 35.37 0 34.75 26.93 0 27.41 0"/><polygon class="cls-17" points="27.89 0 0 35.99 0 35.37 27.41 0 27.89 0"/><polygon class="cls-18" points="28.37 0 0 36.61 0 35.99 27.89 0 28.37 0"/><polygon class="cls-19" points="28.85 0 0 37.23 0 36.61 28.37 0 28.85 0"/><polygon class="cls-20" points="29.33 0 0 37.85 0 37.23 28.85 0 29.33 0"/><polygon class="cls-20" points="29.81 0 0 38.47 0 37.85 29.33 0 29.81 0"/><polygon class="cls-21" points="30.29 0 0 39.09 0 38.47 29.81 0 30.29 0"/><polygon class="cls-22" points="30.77 0 0 39.71 0 39.09 30.29 0 30.77 0"/><polygon class="cls-23" points="31.25 0 0 40.33 0 39.71 30.77 0 31.25 0"/><polygon class="cls-24" points="31.73 0 0 40.95 0 40.33 31.25 0 31.73 0"/><polygon class="cls-25" points="32.21 0 0 41.57 0 40.95 31.73 0 32.21 0"/><polygon class="cls-26" points="32.69 0 0 42.19 0 41.57 32.21 0 32.69 0"/><polygon class="cls-27" points="33.17 0 0 42.81 0 42.19 32.69 0 33.17 0"/><polygon class="cls-28" points="33.65 0 0 43.43 0 42.81 33.17 0 33.65 0"/><polygon class="cls-29" points="34.13 0 0 44.05 0 43.43 33.65 0 34.13 0"/><polygon class="cls-30" points="34.61 0 0 44.67 0 44.05 34.13 0 34.61 0"/><polygon class="cls-31" points="35.09 0 0 45.28 0 44.67 34.61 0 35.09 0"/><polygon class="cls-32" points="35.57 0 0 45.9 0 45.28 35.09 0 35.57 0"/><polygon class="cls-33" points="36.05 0 0 46.52 0 45.9 35.57 0 36.05 0"/><polygon class="cls-34" points="36.53 0 0 47.14 0 46.52 36.05 0 36.53 0"/><polygon class="cls-34" points="37.01 0 0 47.76 0 47.14 36.53 0 37.01 0"/><polygon class="cls-35" points="37.49 0 0 48.38 0 47.76 37.01 0 37.49 0"/><polygon class="cls-36" points="37.97 0 0 49 0 48.38 37.49 0 37.97 0"/><polygon class="cls-37" points="38.45 0 0 49.62 0 49 37.97 0 38.45 0"/><polygon class="cls-38" points="38.93 0 0 50.24 0 49.62 38.45 0 38.93 0"/><polygon class="cls-39" points="39.41 0 0 50.86 0 50.24 38.93 0 39.41 0"/><polygon class="cls-40" points="39.89 0 0 51.48 0 50.86 39.41 0 39.89 0"/><polygon class="cls-41" points="40.37 0 0 52.1 0 51.48 39.89 0 40.37 0"/><polygon class="cls-42" points="40.85 0 0 52.72 0 52.1 40.37 0 40.85 0"/><polygon class="cls-43" points="41.33 0 0 53.34 0 52.72 40.85 0 41.33 0"/><polygon class="cls-44" points="41.81 0 0 53.96 0 53.34 41.33 0 41.81 0"/><polygon class="cls-45" points="42.29 0 0 54.58 0 53.96 41.81 0 42.29 0"/><polygon class="cls-46" points="42.77 0 0 55.2 0 54.58 42.29 0 42.77 0"/><polygon class="cls-47" points="43.25 0 0 55.82 0 55.2 42.77 0 43.25 0"/><polygon class="cls-48" points="43.73 0 0 56.44 0 55.82 43.25 0 43.73 0"/><polygon class="cls-49" points="44.21 0 0 57.05 0 56.44 43.73 0 44.21 0"/><polygon class="cls-50" points="44.69 0 0 57.67 0 57.05 44.21 0 44.69 0"/><polygon class="cls-51" points="45.17 0 0 58.29 0 57.67 44.69 0 45.17 0"/><polygon class="cls-52" points="45.65 0 0 58.91 0 58.29 45.17 0 45.65 0"/><polygon class="cls-53" points="46.13 0 0 59.53 0 58.91 45.65 0 46.13 0"/><polygon class="cls-54" points="46.61 0 0 60.15 0 59.53 46.13 0 46.61 0"/><polygon class="cls-55" points="47.09 0 0 60.77 0 60.15 46.61 0 47.09 0"/><polygon class="cls-56" points="47.57 0 0 61.39 0 60.77 47.09 0 47.57 0"/><polygon class="cls-57" points="48.05 0 0 62.01 0 61.39 47.57 0 48.05 0"/><polygon class="cls-58" points="48.53 0 0 62.63 0 62.01 48.05 0 48.53 0"/><polygon class="cls-59" points="49.01 0 0 63.25 0 62.63 48.53 0 49.01 0"/><polygon class="cls-60" points="49.49 0 0 63.87 0 63.25 49.01 0 49.49 0"/><polygon class="cls-61" points="49.97 0 0 64.49 0 63.87 49.49 0 49.97 0"/><polygon class="cls-62" points="50.22 0 50.36 0.11 0 65.11 0 64.49 49.97 0 50.22 0"/><polygon class="cls-63" points="50.36 0.11 50.66 0.34 0 65.73 0 65.11 50.36 0.11"/><polygon class="cls-64" points="50.66 0.34 50.96 0.58 0 66.35 0 65.73 50.66 0.34"/><polygon class="cls-65" points="50.96 0.58 51.26 0.81 0 66.97 0 66.35 50.96 0.58"/><polygon class="cls-66" points="51.26 0.81 51.56 1.04 0 67.58 0 66.97 51.26 0.81"/><polygon class="cls-67" points="51.56 1.04 51.86 1.27 0 68.2 0 67.58 51.56 1.04"/><polygon class="cls-68" points="51.86 1.27 52.16 1.51 0 68.82 0 68.2 51.86 1.27"/><polygon class="cls-69" points="52.16 1.51 52.46 1.74 0 69.44 0 68.82 52.16 1.51"/><polygon class="cls-70" points="52.46 1.74 52.76 1.97 0 70.06 0 69.44 52.46 1.74"/><polygon class="cls-71" points="52.76 1.97 53.06 2.2 0 70.68 0 70.06 52.76 1.97"/><polygon class="cls-72" points="53.06 2.2 53.36 2.44 0 71.3 0 70.68 53.06 2.2"/><polygon class="cls-73" points="53.36 2.44 53.66 2.67 0.15 71.72 0 71.72 0 71.3 53.36 2.44"/><polygon class="cls-74" points="53.66 2.67 53.96 2.9 0.63 71.72 0.15 71.72 53.66 2.67"/><polygon class="cls-75" points="53.96 2.9 54.26 3.13 1.11 71.72 0.63 71.72 53.96 2.9"/><polygon class="cls-76" points="54.26 3.13 54.56 3.37 1.59 71.72 1.11 71.72 54.26 3.13"/><polygon class="cls-77" points="54.56 3.37 54.86 3.6 2.07 71.72 1.59 71.72 54.56 3.37"/><polygon class="cls-78" points="54.86 3.6 55.16 3.83 2.55 71.72 2.07 71.72 54.86 3.6"/><polygon class="cls-79" points="55.16 3.83 55.46 4.06 3.03 71.72 2.55 71.72 55.16 3.83"/><polygon class="cls-80" points="55.46 4.06 55.76 4.29 3.51 71.72 3.03 71.72 55.46 4.06"/><polygon class="cls-81" points="55.76 4.29 56.06 4.53 3.99 71.72 3.51 71.72 55.76 4.29"/><polygon class="cls-82" points="56.06 4.53 56.36 4.76 4.47 71.72 3.99 71.72 56.06 4.53"/><polygon class="cls-83" points="56.36 4.76 56.66 4.99 4.95 71.72 4.47 71.72 56.36 4.76"/><polygon class="cls-84" points="56.66 4.99 56.96 5.22 5.43 71.72 4.95 71.72 56.66 4.99"/><polygon class="cls-85" points="56.96 5.22 57.26 5.46 5.91 71.72 5.43 71.72 56.96 5.22"/><polygon class="cls-86" points="57.26 5.46 57.35 5.53 57.35 5.96 6.39 71.72 5.91 71.72 57.26 5.46"/><polygon class="cls-87" points="57.35 6.58 6.87 71.72 6.39 71.72 57.35 5.96 57.35 6.58"/><polygon class="cls-88" points="57.35 7.2 7.35 71.72 6.87 71.72 57.35 6.58 57.35 7.2"/><polygon class="cls-89" points="57.35 7.82 7.83 71.72 7.35 71.72 57.35 7.2 57.35 7.82"/><polygon class="cls-90" points="57.35 8.44 8.31 71.72 7.83 71.72 57.35 7.82 57.35 8.44"/><polygon class="cls-91" points="57.35 9.06 8.79 71.72 8.31 71.72 57.35 8.44 57.35 9.06"/><polygon class="cls-92" points="57.35 9.68 9.27 71.72 8.79 71.72 57.35 9.06 57.35 9.68"/><polygon class="cls-93" points="57.35 10.3 9.75 71.72 9.27 71.72 57.35 9.68 57.35 10.3"/><polygon class="cls-94" points="57.35 10.92 10.23 71.72 9.75 71.72 57.35 10.3 57.35 10.92"/><polygon class="cls-95" points="57.35 11.54 10.71 71.72 10.23 71.72 57.35 10.92 57.35 11.54"/><polygon class="cls-96" points="57.35 12.16 11.19 71.72 10.71 71.72 57.35 11.54 57.35 12.16"/><polygon class="cls-97" points="57.35 12.78 11.67 71.72 11.19 71.72 57.35 12.16 57.35 12.78"/><polygon class="cls-98" points="57.35 13.4 12.15 71.72 11.67 71.72 57.35 12.78 57.35 13.4"/><polygon class="cls-99" points="57.35 14.02 12.63 71.72 12.15 71.72 57.35 13.4 57.35 14.02"/><polygon class="cls-100" points="57.35 14.63 13.11 71.72 12.63 71.72 57.35 14.02 57.35 14.63"/><polygon class="cls-101" points="57.35 15.26 13.59 71.72 13.11 71.72 57.35 14.63 57.35 15.26"/><polygon class="cls-102" points="57.35 15.87 14.07 71.72 13.59 71.72 57.35 15.26 57.35 15.87"/><polygon class="cls-103" points="57.35 16.49 14.55 71.72 14.07 71.72 57.35 15.87 57.35 16.49"/><polygon class="cls-104" points="57.35 17.11 15.03 71.72 14.55 71.72 57.35 16.49 57.35 17.11"/><polygon class="cls-105" points="57.35 17.73 15.51 71.72 15.03 71.72 57.35 17.11 57.35 17.73"/><polygon class="cls-106" points="57.35 18.35 15.99 71.72 15.51 71.72 57.35 17.73 57.35 18.35"/><polygon class="cls-107" points="57.35 18.97 16.47 71.72 15.99 71.72 57.35 18.35 57.35 18.97"/><polygon class="cls-108" points="57.35 19.59 16.95 71.72 16.47 71.72 57.35 18.97 57.35 19.59"/><polygon class="cls-109" points="57.35 20.21 17.43 71.72 16.95 71.72 57.35 19.59 57.35 20.21"/><polygon class="cls-110" points="57.35 20.83 17.91 71.72 17.43 71.72 57.35 20.21 57.35 20.83"/><polygon class="cls-111" points="57.35 21.45 18.39 71.72 17.91 71.72 57.35 20.83 57.35 21.45"/><polygon class="cls-112" points="57.35 22.07 18.87 71.72 18.39 71.72 57.35 21.45 57.35 22.07"/><polygon class="cls-113" points="57.35 22.69 19.35 71.72 18.87 71.72 57.35 22.07 57.35 22.69"/><polygon class="cls-114" points="57.35 23.31 19.83 71.72 19.35 71.72 57.35 22.69 57.35 23.31"/><polygon class="cls-115" points="57.35 23.93 20.31 71.72 19.83 71.72 57.35 23.31 57.35 23.93"/><polygon class="cls-116" points="57.35 24.55 20.79 71.72 20.31 71.72 57.35 23.93 57.35 24.55"/><polygon class="cls-117" points="57.35 25.17 21.27 71.72 20.79 71.72 57.35 24.55 57.35 25.17"/><polygon class="cls-118" points="57.35 25.79 21.75 71.72 21.27 71.72 57.35 25.17 57.35 25.79"/><polygon class="cls-119" points="57.35 26.41 22.23 71.72 21.75 71.72 57.35 25.79 57.35 26.41"/><polygon class="cls-120" points="57.35 27.02 22.71 71.72 22.23 71.72 57.35 26.41 57.35 27.02"/><polygon class="cls-121" points="57.35 27.64 23.19 71.72 22.71 71.72 57.35 27.02 57.35 27.64"/><polygon class="cls-122" points="57.35 28.26 23.67 71.72 23.19 71.72 57.35 27.64 57.35 28.26"/><polygon class="cls-123" points="57.35 28.88 24.15 71.72 23.67 71.72 57.35 28.26 57.35 28.88"/><polygon class="cls-124" points="57.35 29.5 24.63 71.72 24.15 71.72 57.35 28.88 57.35 29.5"/><polygon class="cls-125" points="57.35 30.12 25.11 71.72 24.63 71.72 57.35 29.5 57.35 30.12"/><polygon class="cls-126" points="57.35 30.74 25.59 71.72 25.11 71.72 57.35 30.12 57.35 30.74"/><polygon class="cls-127" points="57.35 31.36 26.07 71.72 25.59 71.72 57.35 30.74 57.35 31.36"/><polygon class="cls-128" points="57.35 31.98 26.55 71.72 26.07 71.72 57.35 31.36 57.35 31.98"/><polygon class="cls-129" points="57.35 32.6 27.03 71.72 26.55 71.72 57.35 31.98 57.35 32.6"/><polygon class="cls-130" points="57.35 33.22 27.51 71.72 27.03 71.72 57.35 32.6 57.35 33.22"/><polygon class="cls-131" points="57.35 33.84 27.99 71.72 27.51 71.72 57.35 33.22 57.35 33.84"/><polygon class="cls-132" points="57.35 34.46 28.47 71.72 27.99 71.72 57.35 33.84 57.35 34.46"/><polygon class="cls-133" points="57.35 35.08 28.95 71.72 28.47 71.72 57.35 34.46 57.35 35.08"/><polygon class="cls-134" points="57.35 35.7 29.43 71.72 28.95 71.72 57.35 35.08 57.35 35.7"/><polygon class="cls-135" points="57.35 36.32 29.91 71.72 29.43 71.72 57.35 35.7 57.35 36.32"/><polygon class="cls-136" points="57.35 36.94 30.39 71.72 29.91 71.72 57.35 36.32 57.35 36.94"/><polygon class="cls-137" points="57.35 37.55 30.87 71.72 30.39 71.72 57.35 36.94 57.35 37.55"/><polygon class="cls-138" points="57.35 38.17 31.35 71.72 30.87 71.72 57.35 37.55 57.35 38.17"/><polygon class="cls-139" points="57.35 38.79 31.83 71.72 31.35 71.72 57.35 38.17 57.35 38.79"/><polygon class="cls-140" points="57.35 39.41 32.31 71.72 31.83 71.72 57.35 38.79 57.35 39.41"/><polygon class="cls-141" points="57.35 40.03 32.79 71.72 32.31 71.72 57.35 39.41 57.35 40.03"/><polygon class="cls-142" points="57.35 40.65 33.27 71.72 32.79 71.72 57.35 40.03 57.35 40.65"/><polygon class="cls-143" points="57.35 41.27 33.75 71.72 33.27 71.72 57.35 40.65 57.35 41.27"/><polygon class="cls-144" points="57.35 41.89 34.23 71.72 33.75 71.72 57.35 41.27 57.35 41.89"/><polygon class="cls-145" points="57.35 42.51 34.71 71.72 34.23 71.72 57.35 41.89 57.35 42.51"/><polygon class="cls-146" points="57.35 43.13 35.19 71.72 34.71 71.72 57.35 42.51 57.35 43.13"/><polygon class="cls-147" points="57.35 43.75 35.67 71.72 35.19 71.72 57.35 43.13 57.35 43.75"/><polygon class="cls-148" points="57.35 44.37 36.15 71.72 35.67 71.72 57.35 43.75 57.35 44.37"/><polygon class="cls-149" points="57.35 44.99 36.63 71.72 36.15 71.72 57.35 44.37 57.35 44.99"/><polygon class="cls-150" points="57.35 45.61 37.11 71.72 36.63 71.72 57.35 44.99 57.35 45.61"/><polygon class="cls-151" points="57.35 46.23 37.59 71.72 37.11 71.72 57.35 45.61 57.35 46.23"/><polygon class="cls-152" points="57.35 46.85 38.07 71.72 37.59 71.72 57.35 46.23 57.35 46.85"/><polygon class="cls-153" points="57.35 47.47 38.55 71.72 38.07 71.72 57.35 46.85 57.35 47.47"/><polygon class="cls-154" points="57.35 48.09 39.03 71.72 38.55 71.72 57.35 47.47 57.35 48.09"/><polygon class="cls-155" points="57.35 48.7 39.51 71.72 39.03 71.72 57.35 48.09 57.35 48.7"/><polygon class="cls-156" points="57.35 49.32 39.99 71.72 39.51 71.72 57.35 48.7 57.35 49.32"/><polygon class="cls-157" points="57.35 49.94 40.47 71.72 39.99 71.72 57.35 49.32 57.35 49.94"/><polygon class="cls-158" points="57.35 50.56 40.95 71.72 40.47 71.72 57.35 49.94 57.35 50.56"/><polygon class="cls-159" points="57.35 51.18 41.43 71.72 40.95 71.72 57.35 50.56 57.35 51.18"/><polygon class="cls-160" points="57.35 51.8 41.91 71.72 41.43 71.72 57.35 51.18 57.35 51.8"/><polygon class="cls-161" points="57.35 52.42 42.39 71.72 41.91 71.72 57.35 51.8 57.35 52.42"/><polygon class="cls-162" points="57.35 53.04 42.87 71.72 42.39 71.72 57.35 52.42 57.35 53.04"/><polygon class="cls-163" points="57.35 53.66 43.35 71.72 42.87 71.72 57.35 53.04 57.35 53.66"/><polygon class="cls-164" points="57.35 54.28 43.83 71.72 43.35 71.72 57.35 53.66 57.35 54.28"/><polygon class="cls-165" points="57.35 54.9 44.31 71.72 43.83 71.72 57.35 54.28 57.35 54.9"/><polygon class="cls-166" points="57.35 55.52 44.79 71.72 44.31 71.72 57.35 54.9 57.35 55.52"/><polygon class="cls-167" points="57.35 56.14 45.27 71.72 44.79 71.72 57.35 55.52 57.35 56.14"/><polygon class="cls-168" points="57.35 56.76 45.75 71.72 45.27 71.72 57.35 56.14 57.35 56.76"/><polygon class="cls-169" points="57.35 57.38 46.23 71.72 45.75 71.72 57.35 56.76 57.35 57.38"/><polygon class="cls-170" points="57.35 58 46.71 71.72 46.23 71.72 57.35 57.38 57.35 58"/><polygon class="cls-171" points="57.35 58.62 47.19 71.72 46.71 71.72 57.35 58 57.35 58.62"/><polygon class="cls-172" points="57.35 59.24 47.67 71.72 47.19 71.72 57.35 58.62 57.35 59.24"/><polygon class="cls-173" points="57.35 59.85 48.15 71.72 47.67 71.72 57.35 59.24 57.35 59.85"/><polygon class="cls-174" points="57.35 60.48 48.63 71.72 48.15 71.72 57.35 59.85 57.35 60.48"/><polygon class="cls-175" points="57.35 61.09 49.11 71.72 48.63 71.72 57.35 60.48 57.35 61.09"/><polygon class="cls-176" points="57.35 61.71 49.59 71.72 49.11 71.72 57.35 61.09 57.35 61.71"/><polygon class="cls-177" points="57.35 62.33 50.07 71.72 49.59 71.72 57.35 61.71 57.35 62.33"/><polygon class="cls-178" points="57.35 62.95 50.55 71.72 50.07 71.72 57.35 62.33 57.35 62.95"/><polygon class="cls-179" points="57.35 63.57 51.03 71.72 50.55 71.72 57.35 62.95 57.35 63.57"/><polygon class="cls-180" points="57.35 64.19 51.51 71.72 51.03 71.72 57.35 63.57 57.35 64.19"/><polygon class="cls-181" points="57.35 64.81 51.99 71.72 51.51 71.72 57.35 64.19 57.35 64.81"/><polygon class="cls-182" points="57.35 65.43 52.47 71.72 51.99 71.72 57.35 64.81 57.35 65.43"/><polygon class="cls-183" points="57.35 66.05 52.95 71.72 52.47 71.72 57.35 65.43 57.35 66.05"/><polygon class="cls-184" points="57.35 66.67 53.43 71.72 52.95 71.72 57.35 66.05 57.35 66.67"/><polygon class="cls-185" points="57.35 67.29 53.91 71.72 53.43 71.72 57.35 66.67 57.35 67.29"/><polygon class="cls-186" points="57.35 67.91 54.39 71.72 53.91 71.72 57.35 67.29 57.35 67.91"/><polygon class="cls-187" points="57.35 68.53 54.87 71.72 54.39 71.72 57.35 67.91 57.35 68.53"/><polygon class="cls-188" points="57.35 69.15 55.35 71.72 54.87 71.72 57.35 68.53 57.35 69.15"/><polygon class="cls-189" points="57.35 69.77 55.83 71.72 55.35 71.72 57.35 69.15 57.35 69.77"/><polygon class="cls-190" points="57.35 70.39 56.31 71.72 55.83 71.72 57.35 69.77 57.35 70.39"/><polygon class="cls-191" points="57.35 71 56.79 71.72 56.31 71.72 57.35 70.39 57.35 71"/><polygon class="cls-191" points="56.79 71.72 57.35 71 57.35 71.72 56.79 71.72"/></g><path class="cls-192" d="M52.06,64.83A24,24,0,0,1,40.2,85.68a20.73,20.73,0,0,1-2.4,1.21,9.9,9.9,0,0,1-1.07.42,17.84,17.84,0,0,1-2.4.73A21.6,21.6,0,0,1,29,88.7a21.32,21.32,0,0,1-4.4-.44,21.62,21.62,0,0,1-2.4-.61c-.34-.1-.71-.24-1.07-.38a21.5,21.5,0,0,1-2.4-1A24,24,0,0,1,5.91,64.83C5.91,51.64,16.24,41,29,41S52.06,51.64,52.06,64.83Z" transform="translate(0 0)"/><path class="cls-193" d="M29,89.52a22.49,22.49,0,0,1-4.57-.45,20.91,20.91,0,0,1-2.48-.64c-.34-.1-.73-.25-1.11-.39A23.27,23.27,0,0,1,18.33,87,24.69,24.69,0,0,1,5.09,64.83c0-13.62,10.72-24.7,23.89-24.7s23.9,11.08,23.9,24.7A24.83,24.83,0,0,1,40.61,86.39a21.19,21.19,0,0,1-2.48,1.25,9.82,9.82,0,0,1-1.15.45,17.49,17.49,0,0,1-2.47.75A22.4,22.4,0,0,1,29,89.52Zm0-47.74c-12.27,0-22.24,10.34-22.24,23A23,23,0,0,0,19.09,85.49a20.1,20.1,0,0,0,2.3,1c.36.13.7.26,1,.36a18.91,18.91,0,0,0,2.33.6,21.76,21.76,0,0,0,9.39-.21,18,18,0,0,0,2.31-.71,10.88,10.88,0,0,0,1-.39A20.79,20.79,0,0,0,39.78,85,23.19,23.19,0,0,0,51.24,64.83C51.24,52.12,41.25,41.78,29,41.78Z" transform="translate(0 0)"/><path class="cls-194" d="M20.92,68.16a1.26,1.26,0,0,1,.19.67V86.31a21.34,21.34,0,0,1-2.4-1V69.19L15.45,64.3a1.27,1.27,0,0,1-.19-.86L17,53a1.21,1.21,0,0,1,1.39-1,1.19,1.19,0,0,1,1,1.38l-1.65,9.94Z" transform="translate(0 0)"/><path class="cls-194" d="M28,63.44a1.27,1.27,0,0,1-.18.86l-3.28,4.89V87.27a21.58,21.58,0,0,1-2.4-.6V68.83a1.22,1.22,0,0,1,.22-.67l3.2-4.8L24,53.42a1.2,1.2,0,0,1,1-1.38,1.23,1.23,0,0,1,1.38,1Z" transform="translate(0 0)"/><path class="cls-194" d="M21.65,64.83a1.19,1.19,0,0,1-1.19-1.2V53.22a1.2,1.2,0,1,1,2.39,0V63.63A1.2,1.2,0,0,1,21.65,64.83Z" transform="translate(0 0)"/><path class="cls-194" d="M39.36,52.08a1.23,1.23,0,0,0-1.35.44,35.34,35.34,0,0,0-5.14,10.59c-1,3.72.15,6.83,1.46,9.48V87.06a21.17,21.17,0,0,0,2.4-.71v-14a1.29,1.29,0,0,0-.12-.54c-1.49-3-2.2-5.25-1.44-8a33.23,33.23,0,0,1,2.63-6.39V85.94a20.48,20.48,0,0,0,2.4-1.17V53.21A1.22,1.22,0,0,0,39.36,52.08Z" transform="translate(0 0)"/><g class="cls-195"><path class="cls-196" d="M44.71,16.34H22.18a1.1,1.1,0,0,1,0-2.19H44.71a1.1,1.1,0,0,1,0,2.19Z" transform="translate(0 0)"/></g><g class="cls-195"><path class="cls-196" d="M44.71,30.63H22.18a1.1,1.1,0,0,1,0-2.19H44.71a1.1,1.1,0,0,1,0,2.19Z" transform="translate(0 0)"/></g><path class="cls-194" d="M11.39,34.71h0a1.08,1.08,0,0,1-.89-.52L7.87,30a1.09,1.09,0,0,1,.36-1.5,1.11,1.11,0,0,1,1.51.36l1.72,2.83,5.22-7.28a1.1,1.1,0,0,1,1.78,1.28l-6.18,8.62A1.12,1.12,0,0,1,11.39,34.71Z" transform="translate(0 0)"/><path class="cls-194" d="M11.39,20.32h0a1.08,1.08,0,0,1-.89-.52L7.87,15.56a1.1,1.1,0,0,1,1.87-1.14l1.72,2.82L16.68,10a1.09,1.09,0,0,1,1.53-.25,1.08,1.08,0,0,1,.25,1.52l-6.18,8.62A1.1,1.1,0,0,1,11.39,20.32Z" transform="translate(0 0)"/><path class="cls-196" d="M29,90.07a22.68,22.68,0,0,1-4.67-.47A20.23,20.23,0,0,1,21.75,89c-.33-.1-.73-.25-1.13-.4a20.07,20.07,0,0,1-2.54-1.12A25.21,25.21,0,0,1,4.54,64.83c0-13.92,11-25.24,24.43-25.24S53.42,50.91,53.42,64.83a25.41,25.41,0,0,1-12.54,22,25,25,0,0,1-2.54,1.28,11.41,11.41,0,0,1-1.19.46,18.94,18.94,0,0,1-2.53.77A23.25,23.25,0,0,1,29,90.07Zm0-47.75c-12,0-21.69,10.1-21.69,22.51A22.49,22.49,0,0,0,19.33,85a19,19,0,0,0,2.24,1c.35.14.68.26,1,.35a16.93,16.93,0,0,0,2.28.59,21.12,21.12,0,0,0,9.15-.2A17.17,17.17,0,0,0,36.24,86a8.37,8.37,0,0,0,1-.38,18.37,18.37,0,0,0,2.27-1.15A22.63,22.63,0,0,0,50.68,64.83C50.68,52.42,40.94,42.32,29,42.32Z" transform="translate(0 0)"/><g class="cls-197"><path class="cls-198" d="M47.8,1.22l9.55,10.12,0,2.59h-7a2.6,2.6,0,0,1-2.34-2.79Z" transform="translate(0 0)"/></g><path class="cls-199" d="M46.64,0,57.35,11.34H49.1A2.32,2.32,0,0,1,46.79,9Z" transform="translate(0 0)"/></g></g></g></svg>