<svg xmlns="http://www.w3.org/2000/svg" xmlns:xlink="http://www.w3.org/1999/xlink" viewBox="0 0 100.06 35.01"><defs><style>.cls-1{fill:none;}.cls-2{fill:#e44626;}.cls-3{opacity:0.8;}.cls-4{clip-path:url(#clip-path);}.cls-5{fill:#81d0e6;}.cls-6{fill:#7fcfe6;}.cls-7{fill:#7ecfe5;}.cls-8{fill:#7ccee5;}.cls-9{fill:#7bcee5;}.cls-10{fill:#7acde5;}.cls-11{fill:#78cde4;}.cls-12{fill:#77cce4;}.cls-13{fill:#75cce4;}.cls-14{fill:#74cbe3;}.cls-15{fill:#72cbe3;}.cls-16{fill:#71cae3;}.cls-17{fill:#6fcae3;}.cls-18{fill:#6ec9e2;}.cls-19{fill:#6dc8e2;}.cls-20{fill:#6bc8e2;}.cls-21{fill:#6ac7e1;}.cls-22{fill:#68c7e1;}.cls-23{fill:#67c6e1;}.cls-24{fill:#66c6e1;}.cls-25{fill:#64c5e0;}.cls-26{fill:#63c5e0;}.cls-27{fill:#62c4e0;}.cls-28{fill:#60c4e0;}.cls-29{fill:#5fc3df;}.cls-30{fill:#5ec3df;}.cls-31{fill:#5dc3df;}.cls-32{fill:#5bc2df;}.cls-33{fill:#5ac2de;}.cls-34{fill:#59c1de;}.cls-35{fill:#58c1de;}.cls-36{fill:#56c0de;}.cls-37{fill:#55c0dd;}.cls-38{fill:#54bfdd;}.cls-39{fill:#53bfdd;}.cls-40{fill:#51bedd;}.cls-41{fill:#50bedc;}.cls-42{fill:#4fbedc;}.cls-43{fill:#4ebddc;}.cls-44{fill:#4dbddc;}.cls-45{fill:#4cbcdc;}.cls-46{fill:#4bbcdb;}.cls-47{fill:#49bbdb;}.cls-48{fill:#48bbdb;}.cls-49{fill:#47bbdb;}.cls-50{fill:#46bada;}.cls-51{fill:#45bada;}.cls-52{fill:#44b9da;}.cls-53{fill:#43b9da;}.cls-54{fill:#42b9da;}.cls-55{fill:#41b8d9;}.cls-56{fill:#40b8d9;}.cls-57{fill:#3fb8d9;}.cls-58{fill:#3eb7d9;}.cls-59{fill:#3db7d9;}.cls-60{fill:#3cb6d8;}.cls-61{fill:#3bb6d8;}.cls-62{fill:#3ab6d8;}.cls-63{fill:#39b5d8;}.cls-64{fill:#38b5d8;}.cls-65{fill:#37b5d8;}.cls-66{fill:#36b4d7;}.cls-67{fill:#35b4d7;}.cls-68{fill:#34b4d7;}.cls-69{fill:#33b3d7;}.cls-70{fill:#32b3d7;}.cls-71{fill:#31b3d6;}.cls-72{fill:#31b2d6;}.cls-73{fill:#30b2d6;}.cls-74{fill:#2fb2d6;}.cls-75{fill:#2eb1d6;}.cls-76{fill:#2db1d6;}.cls-77{fill:#2cb1d5;}.cls-78{fill:#2bb0d5;}.cls-79{fill:#2ab0d5;}.cls-80{fill:#29b0d5;}.cls-81{fill:#29afd5;}.cls-82{fill:#28afd5;}.cls-83{fill:#27afd4;}.cls-84{fill:#26aed4;}.cls-85{fill:#25aed4;}.cls-86{clip-path:url(#clip-path-2);}.cls-87{clip-path:url(#clip-path-3);}.cls-88{clip-path:url(#clip-path-4);}.cls-89{fill:#3c354a;}</style><clipPath id="clip-path" transform="translate(0 0)"><rect class="cls-1" x="18.87" y="0.65" width="15.21" height="34.36" rx="0.8"/></clipPath><clipPath id="clip-path-2" transform="translate(0 0)"><rect class="cls-1" x="6.85" y="6.14" width="7.36" height="23.65" rx="0.8"/></clipPath><clipPath id="clip-path-3" transform="translate(0 0)"><rect class="cls-1" x="66.67" width="15.2" height="34.36" rx="0.8" transform="translate(148.55 34.36) rotate(-180)"/></clipPath><clipPath id="clip-path-4" transform="translate(0 0)"><rect class="cls-1" x="86.36" y="6.14" width="7.36" height="23.65" rx="0.8" transform="translate(180.07 35.92) rotate(-180)"/></clipPath></defs><g id="Layer_2" data-name="Layer 2"><g id="Layer_1-2" data-name="Layer 1"><rect class="cls-2" y="11.88" width="100.06" height="8.2"/><g class="cls-3"><g class="cls-4"><path class="cls-5" d="M18.87.65v0Z" transform="translate(0 0)"/><rect class="cls-5" x="18.87" y="0.65" width="0.16" height="34.36"/><rect class="cls-6" x="19.02" y="0.65" width="0.16" height="34.36"/><rect class="cls-7" x="19.18" y="0.65" width="0.16" height="34.36"/><rect class="cls-8" x="19.34" y="0.65" width="0.16" height="34.36"/><rect class="cls-9" x="19.5" y="0.65" width="0.16" height="34.36"/><rect class="cls-10" x="19.66" y="0.65" width="0.16" height="34.36"/><rect class="cls-11" x="19.82" y="0.65" width="0.16" height="34.36"/><rect class="cls-12" x="19.98" y="0.65" width="0.16" height="34.36"/><rect class="cls-13" x="20.13" y="0.65" width="0.16" height="34.36"/><rect class="cls-14" x="20.29" y="0.65" width="0.16" height="34.36"/><rect class="cls-15" x="20.45" y="0.65" width="0.16" height="34.36"/><rect class="cls-16" x="20.61" y="0.65" width="0.16" height="34.36"/><rect class="cls-17" x="20.77" y="0.65" width="0.16" height="34.36"/><rect class="cls-18" x="20.93" y="0.65" width="0.16" height="34.36"/><rect class="cls-19" x="21.09" y="0.65" width="0.16" height="34.36"/><rect class="cls-20" x="21.24" y="0.65" width="0.16" height="34.36"/><rect class="cls-21" x="21.4" y="0.65" width="0.16" height="34.36"/><rect class="cls-22" x="21.56" y="0.65" width="0.16" height="34.36"/><rect class="cls-23" x="21.72" y="0.65" width="0.16" height="34.36"/><rect class="cls-24" x="21.88" y="0.65" width="0.16" height="34.36"/><rect class="cls-25" x="22.04" y="0.65" width="0.16" height="34.36"/><rect class="cls-26" x="22.2" y="0.65" width="0.16" height="34.36"/><rect class="cls-27" x="22.35" y="0.65" width="0.16" height="34.36"/><rect class="cls-28" x="22.51" y="0.65" width="0.16" height="34.36"/><rect class="cls-29" x="22.67" y="0.65" width="0.16" height="34.36"/><rect class="cls-30" x="22.83" y="0.65" width="0.16" height="34.36"/><rect class="cls-31" x="22.99" y="0.65" width="0.16" height="34.36"/><rect class="cls-32" x="23.15" y="0.65" width="0.16" height="34.36"/><rect class="cls-33" x="23.31" y="0.65" width="0.16" height="34.36"/><rect class="cls-34" x="23.47" y="0.65" width="0.16" height="34.36"/><rect class="cls-35" x="23.62" y="0.65" width="0.16" height="34.36"/><rect class="cls-36" x="23.78" y="0.65" width="0.16" height="34.36"/><rect class="cls-37" x="23.94" y="0.65" width="0.16" height="34.36"/><rect class="cls-38" x="24.1" y="0.65" width="0.16" height="34.36"/><rect class="cls-39" x="24.26" y="0.65" width="0.16" height="34.36"/><rect class="cls-40" x="24.42" y="0.65" width="0.16" height="34.36"/><rect class="cls-41" x="24.58" y="0.65" width="0.16" height="34.36"/><rect class="cls-42" x="24.73" y="0.65" width="0.16" height="34.36"/><rect class="cls-43" x="24.89" y="0.65" width="0.16" height="34.36"/><rect class="cls-44" x="25.05" y="0.65" width="0.16" height="34.36"/><rect class="cls-45" x="25.21" y="0.65" width="0.16" height="34.36"/><rect class="cls-46" x="25.37" y="0.65" width="0.16" height="34.36"/><rect class="cls-47" x="25.53" y="0.65" width="0.16" height="34.36"/><rect class="cls-48" x="25.69" y="0.65" width="0.16" height="34.36"/><rect class="cls-49" x="25.84" y="0.65" width="0.16" height="34.36"/><rect class="cls-50" x="26" y="0.65" width="0.16" height="34.36"/><rect class="cls-51" x="26.16" y="0.65" width="0.16" height="34.36"/><rect class="cls-52" x="26.32" y="0.65" width="0.16" height="34.36"/><rect class="cls-53" x="26.48" y="0.65" width="0.16" height="34.36"/><rect class="cls-54" x="26.64" y="0.65" width="0.16" height="34.36"/><rect class="cls-55" x="26.8" y="0.65" width="0.16" height="34.36"/><rect class="cls-56" x="26.95" y="0.65" width="0.16" height="34.36"/><rect class="cls-57" x="27.11" y="0.65" width="0.16" height="34.36"/><rect class="cls-58" x="27.27" y="0.65" width="0.16" height="34.36"/><rect class="cls-59" x="27.43" y="0.65" width="0.16" height="34.36"/><rect class="cls-60" x="27.59" y="0.65" width="0.16" height="34.36"/><rect class="cls-61" x="27.75" y="0.65" width="0.16" height="34.36"/><rect class="cls-62" x="27.91" y="0.65" width="0.16" height="34.36"/><rect class="cls-63" x="28.06" y="0.65" width="0.16" height="34.36"/><rect class="cls-64" x="28.22" y="0.65" width="0.16" height="34.36"/><rect class="cls-65" x="28.38" y="0.65" width="0.16" height="34.36"/><rect class="cls-66" x="28.54" y="0.65" width="0.16" height="34.36"/><rect class="cls-66" x="28.7" y="0.65" width="0.16" height="34.36"/><rect class="cls-67" x="28.86" y="0.65" width="0.16" height="34.36"/><rect class="cls-68" x="29.02" y="0.65" width="0.16" height="34.36"/><rect class="cls-69" x="29.17" y="0.65" width="0.16" height="34.36"/><rect class="cls-70" x="29.33" y="0.65" width="0.16" height="34.36"/><rect class="cls-71" x="29.49" y="0.65" width="0.16" height="34.36"/><rect class="cls-72" x="29.65" y="0.65" width="0.16" height="34.36"/><rect class="cls-73" x="29.81" y="0.65" width="0.16" height="34.36"/><rect class="cls-74" x="29.97" y="0.65" width="0.16" height="34.36"/><rect class="cls-74" x="30.13" y="0.65" width="0.16" height="34.36"/><rect class="cls-75" x="30.28" y="0.65" width="0.16" height="34.36"/><rect class="cls-76" x="30.44" y="0.65" width="0.16" height="34.36"/><rect class="cls-77" x="30.6" y="0.65" width="0.16" height="34.36"/><rect class="cls-77" x="30.76" y="0.65" width="0.16" height="34.36"/><rect class="cls-78" x="30.92" y="0.65" width="0.16" height="34.36"/><rect class="cls-78" x="31.08" y="0.65" width="0.16" height="34.36"/><rect class="cls-79" x="31.24" y="0.65" width="0.16" height="34.36"/><rect class="cls-80" x="31.4" y="0.65" width="0.16" height="34.36"/><rect class="cls-81" x="31.55" y="0.65" width="0.16" height="34.36"/><rect class="cls-82" x="31.71" y="0.65" width="0.16" height="34.36"/><rect class="cls-82" x="31.87" y="0.65" width="0.16" height="34.36"/><rect class="cls-83" x="32.03" y="0.65" width="0.16" height="34.36"/><rect class="cls-83" x="32.19" y="0.65" width="0.16" height="34.36"/><rect class="cls-83" x="32.35" y="0.65" width="0.16" height="34.36"/><rect class="cls-84" x="32.51" y="0.65" width="0.16" height="34.36"/><rect class="cls-84" x="32.66" y="0.65" width="0.16" height="34.36"/><rect class="cls-84" x="32.82" y="0.65" width="0.16" height="34.36"/><rect class="cls-85" x="32.98" y="0.65" width="0.16" height="34.36"/><rect class="cls-85" x="33.14" y="0.65" width="0.16" height="34.36"/><rect class="cls-85" x="33.3" y="0.65" width="0.16" height="34.36"/><rect class="cls-85" x="33.46" y="0.65" width="0.62" height="34.36"/></g></g><g class="cls-3"><g class="cls-86"><path class="cls-5" d="M6.85,6.14v0Z" transform="translate(0 0)"/><rect class="cls-5" x="6.85" y="6.14" width="0.08" height="23.65"/><rect class="cls-6" x="6.93" y="6.14" width="0.08" height="23.65"/><rect class="cls-7" x="7" y="6.14" width="0.08" height="23.65"/><rect class="cls-8" x="7.08" y="6.14" width="0.08" height="23.65"/><rect class="cls-9" x="7.16" y="6.14" width="0.08" height="23.65"/><rect class="cls-10" x="7.23" y="6.14" width="0.08" height="23.65"/><rect class="cls-11" x="7.31" y="6.14" width="0.08" height="23.65"/><rect class="cls-12" x="7.39" y="6.14" width="0.08" height="23.65"/><rect class="cls-13" x="7.46" y="6.14" width="0.08" height="23.65"/><rect class="cls-14" x="7.54" y="6.14" width="0.08" height="23.65"/><rect class="cls-15" x="7.62" y="6.14" width="0.08" height="23.65"/><rect class="cls-16" x="7.69" y="6.14" width="0.08" height="23.65"/><rect class="cls-17" x="7.77" y="6.14" width="0.08" height="23.65"/><rect class="cls-18" x="7.85" y="6.14" width="0.08" height="23.65"/><rect class="cls-19" x="7.92" y="6.14" width="0.08" height="23.65"/><rect class="cls-20" x="8" y="6.14" width="0.08" height="23.65"/><rect class="cls-21" x="8.08" y="6.14" width="0.08" height="23.65"/><rect class="cls-22" x="8.15" y="6.14" width="0.08" height="23.65"/><rect class="cls-23" x="8.23" y="6.14" width="0.08" height="23.65"/><rect class="cls-24" x="8.31" y="6.14" width="0.08" height="23.65"/><rect class="cls-25" x="8.39" y="6.14" width="0.08" height="23.65"/><rect class="cls-26" x="8.46" y="6.14" width="0.08" height="23.65"/><rect class="cls-27" x="8.54" y="6.14" width="0.08" height="23.65"/><rect class="cls-28" x="8.62" y="6.14" width="0.08" height="23.65"/><rect class="cls-29" x="8.69" y="6.14" width="0.08" height="23.65"/><rect class="cls-30" x="8.77" y="6.14" width="0.08" height="23.65"/><rect class="cls-31" x="8.85" y="6.14" width="0.08" height="23.65"/><rect class="cls-32" x="8.92" y="6.14" width="0.08" height="23.65"/><rect class="cls-33" x="9" y="6.14" width="0.08" height="23.65"/><rect class="cls-34" x="9.08" y="6.14" width="0.08" height="23.65"/><rect class="cls-35" x="9.15" y="6.14" width="0.08" height="23.65"/><rect class="cls-36" x="9.23" y="6.14" width="0.08" height="23.65"/><rect class="cls-37" x="9.31" y="6.14" width="0.08" height="23.65"/><rect class="cls-38" x="9.38" y="6.14" width="0.08" height="23.65"/><rect class="cls-39" x="9.46" y="6.14" width="0.08" height="23.65"/><rect class="cls-40" x="9.54" y="6.14" width="0.08" height="23.65"/><rect class="cls-41" x="9.61" y="6.14" width="0.08" height="23.65"/><rect class="cls-42" x="9.69" y="6.14" width="0.08" height="23.65"/><rect class="cls-43" x="9.77" y="6.14" width="0.08" height="23.65"/><rect class="cls-44" x="9.84" y="6.14" width="0.08" height="23.65"/><rect class="cls-45" x="9.92" y="6.14" width="0.08" height="23.65"/><rect class="cls-46" x="10" y="6.14" width="0.08" height="23.65"/><rect class="cls-47" x="10.07" y="6.14" width="0.08" height="23.65"/><rect class="cls-48" x="10.15" y="6.14" width="0.08" height="23.65"/><rect class="cls-49" x="10.23" y="6.14" width="0.08" height="23.65"/><rect class="cls-50" x="10.3" y="6.14" width="0.08" height="23.65"/><rect class="cls-51" x="10.38" y="6.14" width="0.08" height="23.65"/><rect class="cls-52" x="10.46" y="6.14" width="0.08" height="23.65"/><rect class="cls-53" x="10.53" y="6.14" width="0.08" height="23.65"/><rect class="cls-54" x="10.61" y="6.14" width="0.08" height="23.65"/><rect class="cls-55" x="10.69" y="6.14" width="0.08" height="23.65"/><rect class="cls-56" x="10.76" y="6.14" width="0.08" height="23.65"/><rect class="cls-57" x="10.84" y="6.14" width="0.08" height="23.65"/><rect class="cls-58" x="10.92" y="6.14" width="0.08" height="23.65"/><rect class="cls-59" x="11" y="6.14" width="0.08" height="23.65"/><rect class="cls-60" x="11.07" y="6.14" width="0.08" height="23.65"/><rect class="cls-61" x="11.15" y="6.14" width="0.08" height="23.65"/><rect class="cls-62" x="11.23" y="6.14" width="0.08" height="23.65"/><rect class="cls-63" x="11.3" y="6.14" width="0.08" height="23.65"/><rect class="cls-64" x="11.38" y="6.14" width="0.08" height="23.65"/><rect class="cls-65" x="11.46" y="6.14" width="0.08" height="23.65"/><rect class="cls-66" x="11.53" y="6.14" width="0.08" height="23.65"/><rect class="cls-66" x="11.61" y="6.14" width="0.08" height="23.65"/><rect class="cls-67" x="11.69" y="6.14" width="0.08" height="23.65"/><rect class="cls-68" x="11.76" y="6.14" width="0.08" height="23.65"/><rect class="cls-69" x="11.84" y="6.14" width="0.08" height="23.65"/><rect class="cls-70" x="11.92" y="6.14" width="0.08" height="23.65"/><rect class="cls-71" x="11.99" y="6.14" width="0.08" height="23.65"/><rect class="cls-72" x="12.07" y="6.14" width="0.08" height="23.65"/><rect class="cls-73" x="12.15" y="6.14" width="0.08" height="23.65"/><rect class="cls-74" x="12.22" y="6.14" width="0.08" height="23.65"/><rect class="cls-74" x="12.3" y="6.14" width="0.08" height="23.65"/><rect class="cls-75" x="12.38" y="6.14" width="0.08" height="23.65"/><rect class="cls-76" x="12.45" y="6.14" width="0.08" height="23.65"/><rect class="cls-77" x="12.53" y="6.14" width="0.08" height="23.65"/><rect class="cls-77" x="12.61" y="6.14" width="0.08" height="23.65"/><rect class="cls-78" x="12.68" y="6.14" width="0.08" height="23.65"/><rect class="cls-78" x="12.76" y="6.14" width="0.08" height="23.65"/><rect class="cls-79" x="12.84" y="6.14" width="0.08" height="23.65"/><rect class="cls-80" x="12.91" y="6.14" width="0.08" height="23.65"/><rect class="cls-81" x="12.99" y="6.14" width="0.08" height="23.65"/><rect class="cls-82" x="13.07" y="6.14" width="0.08" height="23.65"/><rect class="cls-82" x="13.14" y="6.14" width="0.08" height="23.65"/><rect class="cls-83" x="13.22" y="6.14" width="0.08" height="23.65"/><rect class="cls-83" x="13.3" y="6.14" width="0.08" height="23.65"/><rect class="cls-83" x="13.37" y="6.14" width="0.08" height="23.65"/><rect class="cls-84" x="13.45" y="6.14" width="0.08" height="23.65"/><rect class="cls-84" x="13.53" y="6.14" width="0.08" height="23.65"/><rect class="cls-84" x="13.61" y="6.14" width="0.08" height="23.65"/><rect class="cls-85" x="13.68" y="6.14" width="0.08" height="23.65"/><rect class="cls-85" x="13.76" y="6.14" width="0.08" height="23.65"/><rect class="cls-85" x="13.84" y="6.14" width="0.08" height="23.65"/><rect class="cls-85" x="13.91" y="6.14" width="0.3" height="23.65"/></g></g><g class="cls-3"><g class="cls-87"><path class="cls-5" d="M66.67,0V0Z" transform="translate(0 0)"/><rect class="cls-5" x="66.67" width="0.16" height="34.36"/><rect class="cls-6" x="66.83" width="0.16" height="34.36"/><rect class="cls-7" x="66.99" width="0.16" height="34.36"/><rect class="cls-8" x="67.15" width="0.16" height="34.36"/><rect class="cls-9" x="67.31" width="0.16" height="34.36"/><rect class="cls-10" x="67.46" width="0.16" height="34.36"/><rect class="cls-11" x="67.62" width="0.16" height="34.36"/><rect class="cls-12" x="67.78" width="0.16" height="34.36"/><rect class="cls-13" x="67.94" width="0.16" height="34.36"/><rect class="cls-14" x="68.1" width="0.16" height="34.36"/><rect class="cls-15" x="68.26" width="0.16" height="34.36"/><rect class="cls-16" x="68.42" width="0.16" height="34.36"/><rect class="cls-17" x="68.57" width="0.16" height="34.36"/><rect class="cls-18" x="68.73" width="0.16" height="34.36"/><rect class="cls-19" x="68.89" width="0.16" height="34.36"/><rect class="cls-20" x="69.05" width="0.16" height="34.36"/><rect class="cls-21" x="69.21" width="0.16" height="34.36"/><rect class="cls-22" x="69.37" width="0.16" height="34.36"/><rect class="cls-23" x="69.52" width="0.16" height="34.36"/><rect class="cls-24" x="69.68" width="0.16" height="34.36"/><rect class="cls-25" x="69.84" width="0.16" height="34.36"/><rect class="cls-26" x="70" width="0.16" height="34.36"/><rect class="cls-27" x="70.16" width="0.16" height="34.36"/><rect class="cls-28" x="70.32" width="0.16" height="34.36"/><rect class="cls-29" x="70.48" width="0.16" height="34.36"/><rect class="cls-30" x="70.63" width="0.16" height="34.36"/><rect class="cls-31" x="70.79" width="0.16" height="34.36"/><rect class="cls-32" x="70.95" width="0.16" height="34.36"/><rect class="cls-33" x="71.11" width="0.16" height="34.36"/><rect class="cls-34" x="71.27" width="0.16" height="34.36"/><rect class="cls-35" x="71.43" width="0.16" height="34.36"/><rect class="cls-36" x="71.59" width="0.16" height="34.36"/><rect class="cls-37" x="71.74" width="0.16" height="34.36"/><rect class="cls-38" x="71.9" width="0.16" height="34.36"/><rect class="cls-39" x="72.06" width="0.16" height="34.36"/><rect class="cls-40" x="72.22" width="0.16" height="34.36"/><rect class="cls-41" x="72.38" width="0.16" height="34.36"/><rect class="cls-42" x="72.54" width="0.16" height="34.36"/><rect class="cls-43" x="72.69" width="0.16" height="34.36"/><rect class="cls-44" x="72.85" width="0.16" height="34.36"/><rect class="cls-45" x="73.01" width="0.16" height="34.36"/><rect class="cls-46" x="73.17" width="0.16" height="34.36"/><rect class="cls-47" x="73.33" width="0.16" height="34.36"/><rect class="cls-48" x="73.49" width="0.16" height="34.36"/><rect class="cls-49" x="73.65" width="0.16" height="34.36"/><rect class="cls-50" x="73.8" width="0.16" height="34.36"/><rect class="cls-51" x="73.96" width="0.16" height="34.36"/><rect class="cls-52" x="74.12" width="0.16" height="34.36"/><rect class="cls-53" x="74.28" width="0.16" height="34.36"/><rect class="cls-54" x="74.44" width="0.16" height="34.36"/><rect class="cls-55" x="74.6" width="0.16" height="34.36"/><rect class="cls-56" x="74.76" width="0.16" height="34.36"/><rect class="cls-57" x="74.91" width="0.16" height="34.36"/><rect class="cls-58" x="75.07" width="0.16" height="34.36"/><rect class="cls-59" x="75.23" width="0.16" height="34.36"/><rect class="cls-60" x="75.39" width="0.16" height="34.36"/><rect class="cls-61" x="75.55" width="0.16" height="34.36"/><rect class="cls-62" x="75.71" width="0.16" height="34.36"/><rect class="cls-63" x="75.86" width="0.16" height="34.36"/><rect class="cls-64" x="76.02" width="0.16" height="34.36"/><rect class="cls-65" x="76.18" width="0.16" height="34.36"/><rect class="cls-66" x="76.34" width="0.16" height="34.36"/><rect class="cls-66" x="76.5" width="0.16" height="34.36"/><rect class="cls-67" x="76.66" width="0.16" height="34.36"/><rect class="cls-68" x="76.82" width="0.16" height="34.36"/><rect class="cls-69" x="76.97" width="0.16" height="34.36"/><rect class="cls-70" x="77.13" width="0.16" height="34.36"/><rect class="cls-71" x="77.29" width="0.16" height="34.36"/><rect class="cls-72" x="77.45" width="0.16" height="34.36"/><rect class="cls-73" x="77.61" width="0.16" height="34.36"/><rect class="cls-74" x="77.77" width="0.16" height="34.36"/><rect class="cls-74" x="77.93" width="0.16" height="34.36"/><rect class="cls-75" x="78.08" width="0.16" height="34.36"/><rect class="cls-76" x="78.24" width="0.16" height="34.36"/><rect class="cls-77" x="78.4" width="0.16" height="34.36"/><rect class="cls-77" x="78.56" width="0.16" height="34.36"/><rect class="cls-78" x="78.72" width="0.16" height="34.36"/><rect class="cls-78" x="78.88" width="0.16" height="34.36"/><rect class="cls-79" x="79.03" width="0.16" height="34.36"/><rect class="cls-80" x="79.19" width="0.16" height="34.36"/><rect class="cls-81" x="79.35" width="0.16" height="34.36"/><rect class="cls-82" x="79.51" width="0.16" height="34.36"/><rect class="cls-82" x="79.67" width="0.16" height="34.36"/><rect class="cls-83" x="79.83" width="0.16" height="34.36"/><rect class="cls-83" x="79.99" width="0.16" height="34.36"/><rect class="cls-83" x="80.14" width="0.16" height="34.36"/><rect class="cls-84" x="80.3" width="0.16" height="34.36"/><rect class="cls-84" x="80.46" width="0.16" height="34.36"/><rect class="cls-84" x="80.62" width="0.16" height="34.36"/><rect class="cls-85" x="80.78" width="0.16" height="34.36"/><rect class="cls-85" x="80.94" width="0.16" height="34.36"/><rect class="cls-85" x="81.1" width="0.16" height="34.36"/><rect class="cls-85" x="81.25" width="0.62" height="34.36"/></g></g><g class="cls-3"><g class="cls-88"><path class="cls-5" d="M86.36,6.14v0Z" transform="translate(0 0)"/><rect class="cls-5" x="86.36" y="6.14" width="0.08" height="23.65"/><rect class="cls-6" x="86.43" y="6.14" width="0.08" height="23.65"/><rect class="cls-7" x="86.51" y="6.14" width="0.08" height="23.65"/><rect class="cls-8" x="86.59" y="6.14" width="0.08" height="23.65"/><rect class="cls-9" x="86.66" y="6.14" width="0.08" height="23.65"/><rect class="cls-10" x="86.74" y="6.14" width="0.08" height="23.65"/><rect class="cls-11" x="86.82" y="6.14" width="0.08" height="23.65"/><rect class="cls-12" x="86.89" y="6.14" width="0.08" height="23.65"/><rect class="cls-13" x="86.97" y="6.14" width="0.08" height="23.65"/><rect class="cls-14" x="87.05" y="6.14" width="0.08" height="23.65"/><rect class="cls-15" x="87.12" y="6.14" width="0.08" height="23.65"/><rect class="cls-16" x="87.2" y="6.14" width="0.08" height="23.65"/><rect class="cls-17" x="87.28" y="6.14" width="0.08" height="23.65"/><rect class="cls-18" x="87.35" y="6.14" width="0.08" height="23.65"/><rect class="cls-19" x="87.43" y="6.14" width="0.08" height="23.65"/><rect class="cls-20" x="87.51" y="6.14" width="0.08" height="23.65"/><rect class="cls-21" x="87.58" y="6.14" width="0.08" height="23.65"/><rect class="cls-22" x="87.66" y="6.14" width="0.08" height="23.65"/><rect class="cls-23" x="87.74" y="6.14" width="0.08" height="23.65"/><rect class="cls-24" x="87.81" y="6.14" width="0.08" height="23.65"/><rect class="cls-25" x="87.89" y="6.14" width="0.08" height="23.65"/><rect class="cls-26" x="87.97" y="6.14" width="0.08" height="23.65"/><rect class="cls-27" x="88.04" y="6.14" width="0.08" height="23.65"/><rect class="cls-28" x="88.12" y="6.14" width="0.08" height="23.65"/><rect class="cls-29" x="88.2" y="6.14" width="0.08" height="23.65"/><rect class="cls-30" x="88.27" y="6.14" width="0.08" height="23.65"/><rect class="cls-31" x="88.35" y="6.14" width="0.08" height="23.65"/><rect class="cls-32" x="88.43" y="6.14" width="0.08" height="23.65"/><rect class="cls-33" x="88.5" y="6.14" width="0.08" height="23.65"/><rect class="cls-34" x="88.58" y="6.14" width="0.08" height="23.65"/><rect class="cls-35" x="88.66" y="6.14" width="0.08" height="23.65"/><rect class="cls-36" x="88.73" y="6.14" width="0.08" height="23.65"/><rect class="cls-37" x="88.81" y="6.14" width="0.08" height="23.65"/><rect class="cls-38" x="88.89" y="6.14" width="0.08" height="23.65"/><rect class="cls-39" x="88.97" y="6.14" width="0.08" height="23.65"/><rect class="cls-40" x="89.04" y="6.14" width="0.08" height="23.65"/><rect class="cls-41" x="89.12" y="6.14" width="0.08" height="23.65"/><rect class="cls-42" x="89.2" y="6.14" width="0.08" height="23.65"/><rect class="cls-43" x="89.27" y="6.14" width="0.08" height="23.65"/><rect class="cls-44" x="89.35" y="6.14" width="0.08" height="23.65"/><rect class="cls-45" x="89.43" y="6.14" width="0.08" height="23.65"/><rect class="cls-46" x="89.5" y="6.14" width="0.08" height="23.65"/><rect class="cls-47" x="89.58" y="6.14" width="0.08" height="23.65"/><rect class="cls-48" x="89.66" y="6.14" width="0.08" height="23.65"/><rect class="cls-49" x="89.73" y="6.14" width="0.08" height="23.65"/><rect class="cls-50" x="89.81" y="6.14" width="0.08" height="23.65"/><rect class="cls-51" x="89.89" y="6.14" width="0.08" height="23.65"/><rect class="cls-52" x="89.96" y="6.14" width="0.08" height="23.65"/><rect class="cls-53" x="90.04" y="6.14" width="0.08" height="23.65"/><rect class="cls-54" x="90.12" y="6.14" width="0.08" height="23.65"/><rect class="cls-55" x="90.19" y="6.14" width="0.08" height="23.65"/><rect class="cls-56" x="90.27" y="6.14" width="0.08" height="23.65"/><rect class="cls-57" x="90.35" y="6.14" width="0.08" height="23.65"/><rect class="cls-58" x="90.42" y="6.14" width="0.08" height="23.65"/><rect class="cls-59" x="90.5" y="6.14" width="0.08" height="23.65"/><rect class="cls-60" x="90.58" y="6.14" width="0.08" height="23.65"/><rect class="cls-61" x="90.65" y="6.14" width="0.08" height="23.65"/><rect class="cls-62" x="90.73" y="6.14" width="0.08" height="23.65"/><rect class="cls-63" x="90.81" y="6.14" width="0.08" height="23.65"/><rect class="cls-64" x="90.88" y="6.14" width="0.08" height="23.65"/><rect class="cls-65" x="90.96" y="6.14" width="0.08" height="23.65"/><rect class="cls-66" x="91.04" y="6.14" width="0.08" height="23.65"/><rect class="cls-66" x="91.11" y="6.14" width="0.08" height="23.65"/><rect class="cls-67" x="91.19" y="6.14" width="0.08" height="23.65"/><rect class="cls-68" x="91.27" y="6.14" width="0.08" height="23.65"/><rect class="cls-69" x="91.34" y="6.14" width="0.08" height="23.65"/><rect class="cls-70" x="91.42" y="6.14" width="0.08" height="23.65"/><rect class="cls-71" x="91.5" y="6.14" width="0.08" height="23.65"/><rect class="cls-72" x="91.58" y="6.14" width="0.08" height="23.65"/><rect class="cls-73" x="91.65" y="6.14" width="0.08" height="23.65"/><rect class="cls-74" x="91.73" y="6.14" width="0.08" height="23.65"/><rect class="cls-74" x="91.81" y="6.14" width="0.08" height="23.65"/><rect class="cls-75" x="91.88" y="6.14" width="0.08" height="23.65"/><rect class="cls-76" x="91.96" y="6.14" width="0.08" height="23.65"/><rect class="cls-77" x="92.04" y="6.14" width="0.08" height="23.65"/><rect class="cls-77" x="92.11" y="6.14" width="0.08" height="23.65"/><rect class="cls-78" x="92.19" y="6.14" width="0.08" height="23.65"/><rect class="cls-78" x="92.27" y="6.14" width="0.08" height="23.65"/><rect class="cls-79" x="92.34" y="6.14" width="0.08" height="23.65"/><rect class="cls-80" x="92.42" y="6.14" width="0.08" height="23.65"/><rect class="cls-81" x="92.5" y="6.14" width="0.08" height="23.65"/><rect class="cls-82" x="92.57" y="6.14" width="0.08" height="23.65"/><rect class="cls-82" x="92.65" y="6.14" width="0.08" height="23.65"/><rect class="cls-83" x="92.73" y="6.14" width="0.08" height="23.65"/><rect class="cls-83" x="92.8" y="6.14" width="0.08" height="23.65"/><rect class="cls-83" x="92.88" y="6.14" width="0.08" height="23.65"/><rect class="cls-84" x="92.96" y="6.14" width="0.08" height="23.65"/><rect class="cls-84" x="93.03" y="6.14" width="0.08" height="23.65"/><rect class="cls-84" x="93.11" y="6.14" width="0.08" height="23.65"/><rect class="cls-85" x="93.19" y="6.14" width="0.08" height="23.65"/><rect class="cls-85" x="93.26" y="6.14" width="0.08" height="23.65"/><rect class="cls-85" x="93.34" y="6.14" width="0.08" height="23.65"/><rect class="cls-85" x="93.42" y="6.14" width="0.3" height="23.65"/></g></g><rect class="cls-89" x="6.85" y="11.88" width="7.36" height="8.2"/><rect class="cls-89" x="18.87" y="11.88" width="15.21" height="8.2"/><rect class="cls-89" x="86.36" y="11.88" width="7.36" height="8.2" transform="translate(180.07 31.95) rotate(180)"/><rect class="cls-89" x="66.67" y="11.88" width="15.2" height="8.2" transform="translate(148.55 31.95) rotate(180)"/></g></g></svg>