<svg xmlns="http://www.w3.org/2000/svg" xmlns:xlink="http://www.w3.org/1999/xlink" viewBox="0 0 200 200"><defs><style>.cls-1{fill:none;}.cls-2{isolation:isolate;}.cls-3{fill:#e44626;}.cls-4{fill:#fff;}.cls-5{mix-blend-mode:multiply;}.cls-6{clip-path:url(#clip-path);}.cls-7{fill:#8ed5e9;}.cls-8{fill:#8dd4e9;}.cls-9{fill:#8bd4e8;}.cls-10{fill:#8ad3e8;}.cls-11{fill:#88d3e8;}.cls-12{fill:#87d2e8;}.cls-13{fill:#86d2e7;}.cls-14{fill:#84d1e7;}.cls-15{fill:#83d1e7;}.cls-16{fill:#82d0e7;}.cls-17{fill:#80d0e6;}.cls-18{fill:#7fcfe6;}.cls-19{fill:#7dcfe6;}.cls-20{fill:#7ccee5;}.cls-21{fill:#7bcee5;}.cls-22{fill:#79cde5;}.cls-23{fill:#78cde5;}.cls-24{fill:#77cce4;}.cls-25{fill:#75cce4;}.cls-26{fill:#74cbe4;}.cls-27{fill:#73cbe4;}.cls-28{fill:#72cae3;}.cls-29{fill:#70cae3;}.cls-30{fill:#6fc9e3;}.cls-31{fill:#6ec9e3;}.cls-32{fill:#6cc9e2;}.cls-33{fill:#6bc8e2;}.cls-34{fill:#6ac8e2;}.cls-35{fill:#69c7e2;}.cls-36{fill:#67c7e1;}.cls-37{fill:#66c6e1;}.cls-38{fill:#65c6e1;}.cls-39{fill:#64c5e1;}.cls-40{fill:#63c5e0;}.cls-41{fill:#61c4e0;}.cls-42{fill:#60c4e0;}.cls-43{fill:#5fc4e0;}.cls-44{fill:#5ec3df;}.cls-45{fill:#5dc3df;}.cls-46{fill:#5bc2df;}.cls-47{fill:#5ac2df;}.cls-48{fill:#59c1de;}.cls-49{fill:#58c1de;}.cls-50{fill:#57c0de;}.cls-51{fill:#56c0de;}.cls-52{fill:#54c0dd;}.cls-53{fill:#53bfdd;}.cls-54{fill:#52bfdd;}.cls-55{fill:#51bedd;}.cls-56{fill:#50bedd;}.cls-57{fill:#4fbedc;}.cls-58{fill:#4ebddc;}.cls-59{fill:#4dbddc;}.cls-60{fill:#4cbcdc;}.cls-61{fill:#4bbcdc;}.cls-62{fill:#4abcdb;}.cls-63{fill:#49bbdb;}.cls-64{fill:#48bbdb;}.cls-65{fill:#47badb;}.cls-66{fill:#45bada;}.cls-67{fill:#44bada;}.cls-68{fill:#43b9da;}.cls-69{fill:#42b9da;}.cls-70{fill:#41b8da;}.cls-71{fill:#40b8d9;}.cls-72{fill:#3fb8d9;}.cls-73{fill:#3eb7d9;}.cls-74{fill:#3db7d9;}.cls-75{fill:#3cb6d9;}.cls-76{fill:#3bb6d8;}.cls-77{fill:#3ab6d8;}.cls-78{fill:#39b5d8;}.cls-79{fill:#38b5d8;}.cls-80{fill:#37b5d8;}.cls-81{fill:#36b4d7;}.cls-82{fill:#35b4d7;}.cls-83{fill:#34b4d7;}.cls-84{fill:#33b3d7;}.cls-85{fill:#32b3d7;}.cls-86{fill:#31b2d6;}.cls-87{fill:#30b2d6;}.cls-88{fill:#2fb2d6;}.cls-89{fill:#2eb1d6;}.cls-90{fill:#2db1d6;}.cls-91{fill:#2cb1d5;}.cls-92{fill:#2bb0d5;}.cls-93{fill:#2ab0d5;}.cls-94{fill:#29afd5;}.cls-95{fill:#28afd5;}.cls-96{fill:#27afd4;}.cls-97{fill:#26afd4;}.cls-98{fill:#26aed4;}.cls-99{fill:#25aed4;}.cls-100{clip-path:url(#clip-path-2);}.cls-101{fill:#8dd5e9;}.cls-102{fill:#8ad4e8;}.cls-103{fill:#89d3e8;}.cls-104{fill:#87d3e8;}.cls-105{fill:#85d2e7;}.cls-106{fill:#82d1e7;}.cls-107{fill:#81d0e6;}.cls-108{fill:#7acde5;}.cls-109{fill:#76cce4;}.cls-110{fill:#72cbe3;}.cls-111{fill:#71cae3;}.cls-112{fill:#6dc9e2;}.cls-113{fill:#6cc8e2;}.cls-114{fill:#62c4e0;}.cls-115{fill:#5cc2df;}.cls-116{fill:#57c1de;}.cls-117{fill:#55c0de;}.cls-118{fill:#54bfdd;}.cls-119{fill:#4fbddc;}.cls-120{fill:#49bcdb;}.cls-121{fill:#47bbdb;}.cls-122{fill:#46badb;}.cls-123{fill:#41b9da;}.cls-124{fill:#3fb7d9;}.cls-125{fill:#31b3d6;}.cls-126{fill:#29b0d5;}.cls-127{clip-path:url(#clip-path-3);}.cls-128{fill:#8cd4e9;}.cls-129{fill:#7ecfe6;}.cls-130{fill:#6ac7e2;}.cls-131{fill:#68c7e1;}.cls-132{fill:#67c6e1;}.cls-133{fill:#5fc3e0;}.cls-134{fill:#4cbddc;}.cls-135{fill:#3cb7d9;}.cls-136{clip-path:url(#clip-path-4);}</style><clipPath id="clip-path"><rect class="cls-1" x="53.28" y="74.24" width="22.81" height="51.51" rx="0.65"/></clipPath><clipPath id="clip-path-2"><rect class="cls-1" x="124.94" y="74.24" width="22.81" height="51.51" rx="0.65"/></clipPath><clipPath id="clip-path-3"><rect class="cls-1" x="35.27" y="83.38" width="11.04" height="35.52" rx="0.65"/></clipPath><clipPath id="clip-path-4"><rect class="cls-1" x="154.46" y="83.41" width="11.04" height="35.52" rx="0.65"/></clipPath></defs><g class="cls-2"><g id="레이어_1" data-name="레이어 1"><rect class="cls-3" x="25" y="92.05" width="150" height="12.29"/><rect class="cls-4" x="56.02" y="74.24" width="22.81" height="51.51" rx="0.65"/><rect class="cls-4" x="127.69" y="74.24" width="22.81" height="51.51" rx="0.65"/><rect class="cls-4" x="38.01" y="83.38" width="11.04" height="35.52" rx="0.65"/><rect class="cls-4" x="157.2" y="83.41" width="11.04" height="35.52" rx="0.65"/><g class="cls-5"><g class="cls-6"><rect class="cls-7" x="53.28" y="74.24" width="1.44" height="51.51"/><rect class="cls-7" x="54.72" y="74.24" width="0.2" height="51.51"/><rect class="cls-8" x="54.93" y="74.24" width="0.2" height="51.51"/><rect class="cls-9" x="55.13" y="74.24" width="0.2" height="51.51"/><rect class="cls-10" x="55.33" y="74.24" width="0.2" height="51.51"/><rect class="cls-11" x="55.54" y="74.24" width="0.2" height="51.51"/><rect class="cls-12" x="55.74" y="74.24" width="0.2" height="51.51"/><rect class="cls-13" x="55.94" y="74.24" width="0.2" height="51.51"/><rect class="cls-14" x="56.15" y="74.24" width="0.2" height="51.51"/><rect class="cls-15" x="56.35" y="74.24" width="0.2" height="51.51"/><rect class="cls-16" x="56.55" y="74.24" width="0.2" height="51.51"/><rect class="cls-17" x="56.76" y="74.24" width="0.2" height="51.51"/><rect class="cls-18" x="56.96" y="74.24" width="0.2" height="51.51"/><rect class="cls-19" x="57.16" y="74.24" width="0.2" height="51.51"/><rect class="cls-20" x="57.37" y="74.24" width="0.2" height="51.51"/><rect class="cls-21" x="57.57" y="74.24" width="0.2" height="51.51"/><rect class="cls-22" x="57.77" y="74.24" width="0.2" height="51.51"/><rect class="cls-23" x="57.98" y="74.24" width="0.2" height="51.51"/><rect class="cls-24" x="58.18" y="74.24" width="0.2" height="51.51"/><rect class="cls-25" x="58.38" y="74.24" width="0.2" height="51.51"/><rect class="cls-26" x="58.59" y="74.24" width="0.2" height="51.51"/><rect class="cls-27" x="58.79" y="74.24" width="0.2" height="51.51"/><rect class="cls-28" x="58.99" y="74.24" width="0.2" height="51.51"/><rect class="cls-29" x="59.2" y="74.24" width="0.2" height="51.51"/><rect class="cls-30" x="59.4" y="74.24" width="0.2" height="51.51"/><rect class="cls-31" x="59.61" y="74.24" width="0.2" height="51.51"/><rect class="cls-32" x="59.81" y="74.24" width="0.2" height="51.51"/><rect class="cls-33" x="60.01" y="74.24" width="0.2" height="51.51"/><rect class="cls-34" x="60.22" y="74.24" width="0.2" height="51.51"/><rect class="cls-35" x="60.42" y="74.24" width="0.2" height="51.51"/><rect class="cls-36" x="60.62" y="74.24" width="0.2" height="51.51"/><rect class="cls-37" x="60.83" y="74.24" width="0.2" height="51.51"/><rect class="cls-38" x="61.03" y="74.24" width="0.2" height="51.51"/><rect class="cls-39" x="61.23" y="74.24" width="0.2" height="51.51"/><rect class="cls-40" x="61.44" y="74.24" width="0.2" height="51.51"/><rect class="cls-41" x="61.64" y="74.24" width="0.2" height="51.51"/><rect class="cls-42" x="61.84" y="74.24" width="0.2" height="51.51"/><rect class="cls-43" x="62.05" y="74.24" width="0.2" height="51.51"/><rect class="cls-44" x="62.25" y="74.24" width="0.2" height="51.51"/><rect class="cls-45" x="62.45" y="74.24" width="0.2" height="51.51"/><rect class="cls-46" x="62.66" y="74.24" width="0.2" height="51.51"/><rect class="cls-47" x="62.86" y="74.24" width="0.2" height="51.51"/><rect class="cls-48" x="63.06" y="74.24" width="0.2" height="51.51"/><rect class="cls-49" x="63.27" y="74.24" width="0.2" height="51.51"/><rect class="cls-50" x="63.47" y="74.24" width="0.2" height="51.51"/><rect class="cls-51" x="63.68" y="74.24" width="0.2" height="51.51"/><rect class="cls-52" x="63.88" y="74.24" width="0.2" height="51.51"/><rect class="cls-53" x="64.08" y="74.24" width="0.2" height="51.51"/><rect class="cls-54" x="64.29" y="74.24" width="0.2" height="51.51"/><rect class="cls-55" x="64.49" y="74.24" width="0.2" height="51.51"/><rect class="cls-56" x="64.69" y="74.24" width="0.2" height="51.51"/><rect class="cls-57" x="64.9" y="74.24" width="0.2" height="51.51"/><rect class="cls-58" x="65.1" y="74.24" width="0.2" height="51.51"/><rect class="cls-59" x="65.3" y="74.24" width="0.2" height="51.51"/><rect class="cls-60" x="65.51" y="74.24" width="0.2" height="51.51"/><rect class="cls-61" x="65.71" y="74.24" width="0.2" height="51.51"/><rect class="cls-62" x="65.91" y="74.24" width="0.2" height="51.51"/><rect class="cls-63" x="66.12" y="74.24" width="0.2" height="51.51"/><rect class="cls-64" x="66.32" y="74.24" width="0.2" height="51.51"/><rect class="cls-65" x="66.52" y="74.24" width="0.2" height="51.51"/><rect class="cls-66" x="66.73" y="74.24" width="0.2" height="51.51"/><rect class="cls-67" x="66.93" y="74.24" width="0.2" height="51.51"/><rect class="cls-68" x="67.13" y="74.24" width="0.2" height="51.51"/><rect class="cls-69" x="67.34" y="74.24" width="0.2" height="51.51"/><rect class="cls-69" x="67.54" y="74.24" width="0.2" height="51.51"/><rect class="cls-70" x="67.75" y="74.24" width="0.2" height="51.51"/><rect class="cls-71" x="67.95" y="74.24" width="0.2" height="51.51"/><rect class="cls-72" x="68.15" y="74.24" width="0.2" height="51.51"/><rect class="cls-73" x="68.36" y="74.24" width="0.2" height="51.51"/><rect class="cls-74" x="68.56" y="74.24" width="0.2" height="51.51"/><rect class="cls-75" x="68.76" y="74.24" width="0.2" height="51.51"/><rect class="cls-76" x="68.97" y="74.24" width="0.2" height="51.51"/><rect class="cls-77" x="69.17" y="74.24" width="0.2" height="51.51"/><rect class="cls-78" x="69.37" y="74.24" width="0.2" height="51.51"/><rect class="cls-79" x="69.58" y="74.24" width="0.2" height="51.51"/><rect class="cls-80" x="69.78" y="74.24" width="0.2" height="51.51"/><rect class="cls-80" x="69.98" y="74.24" width="0.2" height="51.51"/><rect class="cls-81" x="70.19" y="74.24" width="0.2" height="51.51"/><rect class="cls-82" x="70.39" y="74.24" width="0.2" height="51.51"/><rect class="cls-83" x="70.59" y="74.24" width="0.2" height="51.51"/><rect class="cls-84" x="70.8" y="74.24" width="0.2" height="51.51"/><rect class="cls-85" x="71" y="74.24" width="0.2" height="51.51"/><rect class="cls-85" x="71.2" y="74.24" width="0.2" height="51.51"/><rect class="cls-86" x="71.41" y="74.24" width="0.2" height="51.51"/><rect class="cls-87" x="71.61" y="74.24" width="0.2" height="51.51"/><rect class="cls-88" x="71.82" y="74.24" width="0.2" height="51.51"/><rect class="cls-88" x="72.02" y="74.24" width="0.2" height="51.51"/><rect class="cls-89" x="72.22" y="74.24" width="0.2" height="51.51"/><rect class="cls-90" x="72.43" y="74.24" width="0.2" height="51.51"/><rect class="cls-90" x="72.63" y="74.24" width="0.2" height="51.51"/><rect class="cls-91" x="72.83" y="74.24" width="0.2" height="51.51"/><rect class="cls-92" x="73.04" y="74.24" width="0.2" height="51.51"/><rect class="cls-92" x="73.24" y="74.24" width="0.2" height="51.51"/><rect class="cls-93" x="73.44" y="74.24" width="0.2" height="51.51"/><rect class="cls-93" x="73.65" y="74.24" width="0.2" height="51.51"/><rect class="cls-94" x="73.85" y="74.24" width="0.2" height="51.51"/><rect class="cls-95" x="74.05" y="74.24" width="0.2" height="51.51"/><rect class="cls-95" x="74.26" y="74.24" width="0.2" height="51.51"/><rect class="cls-96" x="74.46" y="74.24" width="0.2" height="51.51"/><rect class="cls-96" x="74.66" y="74.24" width="0.2" height="51.51"/><rect class="cls-97" x="74.87" y="74.24" width="0.2" height="51.51"/><rect class="cls-98" x="75.07" y="74.24" width="0.2" height="51.51"/><rect class="cls-98" x="75.27" y="74.24" width="0.2" height="51.51"/><rect class="cls-99" x="75.48" y="74.24" width="0.2" height="51.51"/><rect class="cls-99" x="75.68" y="74.24" width="0.2" height="51.51"/><rect class="cls-99" x="75.88" y="74.24" width="0.2" height="51.51"/></g></g><g class="cls-5"><g class="cls-100"><rect class="cls-7" x="124.94" y="74.24" width="0.96" height="51.51"/><rect class="cls-7" x="125.9" y="74.24" width="0.21" height="51.51"/><rect class="cls-101" x="126.11" y="74.24" width="0.21" height="51.51"/><rect class="cls-9" x="126.32" y="74.24" width="0.21" height="51.51"/><rect class="cls-102" x="126.53" y="74.24" width="0.21" height="51.51"/><rect class="cls-103" x="126.74" y="74.24" width="0.21" height="51.51"/><rect class="cls-104" x="126.94" y="74.24" width="0.21" height="51.51"/><rect class="cls-13" x="127.15" y="74.24" width="0.21" height="51.51"/><rect class="cls-105" x="127.36" y="74.24" width="0.21" height="51.51"/><rect class="cls-14" x="127.57" y="74.24" width="0.21" height="51.51"/><rect class="cls-106" x="127.78" y="74.24" width="0.21" height="51.51"/><rect class="cls-107" x="127.99" y="74.24" width="0.21" height="51.51"/><rect class="cls-17" x="128.19" y="74.24" width="0.21" height="51.51"/><rect class="cls-18" x="128.4" y="74.24" width="0.21" height="51.51"/><rect class="cls-19" x="128.61" y="74.24" width="0.21" height="51.51"/><rect class="cls-20" x="128.82" y="74.24" width="0.21" height="51.51"/><rect class="cls-21" x="129.03" y="74.24" width="0.21" height="51.51"/><rect class="cls-108" x="129.23" y="74.24" width="0.21" height="51.51"/><rect class="cls-23" x="129.44" y="74.24" width="0.21" height="51.51"/><rect class="cls-24" x="129.65" y="74.24" width="0.21" height="51.51"/><rect class="cls-109" x="129.86" y="74.24" width="0.21" height="51.51"/><rect class="cls-25" x="130.07" y="74.24" width="0.21" height="51.51"/><rect class="cls-27" x="130.27" y="74.24" width="0.21" height="51.51"/><rect class="cls-110" x="130.48" y="74.24" width="0.21" height="51.51"/><rect class="cls-111" x="130.69" y="74.24" width="0.21" height="51.51"/><rect class="cls-29" x="130.9" y="74.24" width="0.21" height="51.51"/><rect class="cls-30" x="131.11" y="74.24" width="0.21" height="51.51"/><rect class="cls-112" x="131.31" y="74.24" width="0.21" height="51.51"/><rect class="cls-113" x="131.52" y="74.24" width="0.21" height="51.51"/><rect class="cls-33" x="131.73" y="74.24" width="0.21" height="51.51"/><rect class="cls-34" x="131.94" y="74.24" width="0.21" height="51.51"/><rect class="cls-35" x="132.15" y="74.24" width="0.21" height="51.51"/><rect class="cls-36" x="132.35" y="74.24" width="0.21" height="51.51"/><rect class="cls-37" x="132.56" y="74.24" width="0.21" height="51.51"/><rect class="cls-38" x="132.77" y="74.24" width="0.21" height="51.51"/><rect class="cls-39" x="132.98" y="74.24" width="0.21" height="51.51"/><rect class="cls-40" x="133.19" y="74.24" width="0.21" height="51.51"/><rect class="cls-114" x="133.39" y="74.24" width="0.21" height="51.51"/><rect class="cls-42" x="133.6" y="74.24" width="0.21" height="51.51"/><rect class="cls-43" x="133.81" y="74.24" width="0.21" height="51.51"/><rect class="cls-44" x="134.02" y="74.24" width="0.21" height="51.51"/><rect class="cls-45" x="134.23" y="74.24" width="0.21" height="51.51"/><rect class="cls-115" x="134.43" y="74.24" width="0.21" height="51.51"/><rect class="cls-46" x="134.64" y="74.24" width="0.21" height="51.51"/><rect class="cls-47" x="134.85" y="74.24" width="0.21" height="51.51"/><rect class="cls-49" x="135.06" y="74.24" width="0.21" height="51.51"/><rect class="cls-116" x="135.27" y="74.24" width="0.21" height="51.51"/><rect class="cls-51" x="135.48" y="74.24" width="0.21" height="51.51"/><rect class="cls-117" x="135.68" y="74.24" width="0.21" height="51.51"/><rect class="cls-118" x="135.89" y="74.24" width="0.21" height="51.51"/><rect class="cls-53" x="136.1" y="74.24" width="0.21" height="51.51"/><rect class="cls-54" x="136.31" y="74.24" width="0.21" height="51.51"/><rect class="cls-55" x="136.52" y="74.24" width="0.21" height="51.51"/><rect class="cls-56" x="136.72" y="74.24" width="0.21" height="51.51"/><rect class="cls-119" x="136.93" y="74.24" width="0.21" height="51.51"/><rect class="cls-58" x="137.14" y="74.24" width="0.21" height="51.51"/><rect class="cls-59" x="137.35" y="74.24" width="0.21" height="51.51"/><rect class="cls-60" x="137.56" y="74.24" width="0.21" height="51.51"/><rect class="cls-62" x="137.76" y="74.24" width="0.21" height="51.51"/><rect class="cls-120" x="137.97" y="74.24" width="0.21" height="51.51"/><rect class="cls-64" x="138.18" y="74.24" width="0.21" height="51.51"/><rect class="cls-121" x="138.39" y="74.24" width="0.21" height="51.51"/><rect class="cls-122" x="138.6" y="74.24" width="0.21" height="51.51"/><rect class="cls-66" x="138.8" y="74.24" width="0.21" height="51.51"/><rect class="cls-67" x="139.01" y="74.24" width="0.21" height="51.51"/><rect class="cls-68" x="139.22" y="74.24" width="0.21" height="51.51"/><rect class="cls-69" x="139.43" y="74.24" width="0.21" height="51.51"/><rect class="cls-123" x="139.64" y="74.24" width="0.21" height="51.51"/><rect class="cls-71" x="139.84" y="74.24" width="0.21" height="51.51"/><rect class="cls-71" x="140.05" y="74.24" width="0.21" height="51.51"/><rect class="cls-124" x="140.26" y="74.24" width="0.21" height="51.51"/><rect class="cls-73" x="140.47" y="74.24" width="0.21" height="51.51"/><rect class="cls-74" x="140.68" y="74.24" width="0.21" height="51.51"/><rect class="cls-75" x="140.88" y="74.24" width="0.21" height="51.51"/><rect class="cls-76" x="141.09" y="74.24" width="0.21" height="51.51"/><rect class="cls-77" x="141.3" y="74.24" width="0.21" height="51.51"/><rect class="cls-78" x="141.51" y="74.24" width="0.21" height="51.51"/><rect class="cls-79" x="141.72" y="74.24" width="0.21" height="51.51"/><rect class="cls-80" x="141.92" y="74.24" width="0.21" height="51.51"/><rect class="cls-81" x="142.13" y="74.24" width="0.21" height="51.51"/><rect class="cls-81" x="142.34" y="74.24" width="0.21" height="51.51"/><rect class="cls-82" x="142.55" y="74.24" width="0.21" height="51.51"/><rect class="cls-83" x="142.76" y="74.24" width="0.21" height="51.51"/><rect class="cls-84" x="142.97" y="74.24" width="0.21" height="51.51"/><rect class="cls-85" x="143.17" y="74.24" width="0.21" height="51.51"/><rect class="cls-125" x="143.38" y="74.24" width="0.21" height="51.51"/><rect class="cls-86" x="143.59" y="74.24" width="0.21" height="51.51"/><rect class="cls-87" x="143.8" y="74.24" width="0.21" height="51.51"/><rect class="cls-88" x="144.01" y="74.24" width="0.21" height="51.51"/><rect class="cls-89" x="144.21" y="74.24" width="0.21" height="51.51"/><rect class="cls-89" x="144.42" y="74.24" width="0.21" height="51.51"/><rect class="cls-90" x="144.63" y="74.24" width="0.21" height="51.51"/><rect class="cls-91" x="144.84" y="74.24" width="0.21" height="51.51"/><rect class="cls-92" x="145.05" y="74.24" width="0.21" height="51.51"/><rect class="cls-92" x="145.25" y="74.24" width="0.21" height="51.51"/><rect class="cls-93" x="145.46" y="74.24" width="0.21" height="51.51"/><rect class="cls-126" x="145.67" y="74.24" width="0.21" height="51.51"/><rect class="cls-94" x="145.88" y="74.24" width="0.21" height="51.51"/><rect class="cls-95" x="146.09" y="74.24" width="0.21" height="51.51"/><rect class="cls-95" x="146.29" y="74.24" width="0.21" height="51.51"/><rect class="cls-96" x="146.5" y="74.24" width="0.21" height="51.51"/><rect class="cls-96" x="146.71" y="74.24" width="0.21" height="51.51"/><rect class="cls-98" x="146.92" y="74.24" width="0.21" height="51.51"/><rect class="cls-98" x="147.13" y="74.24" width="0.21" height="51.51"/><rect class="cls-99" x="147.33" y="74.24" width="0.21" height="51.51"/><rect class="cls-99" x="147.54" y="74.24" width="0.21" height="51.51"/></g></g><g class="cls-5"><g class="cls-127"><rect class="cls-7" x="35.27" y="83.38" width="0.46" height="35.52"/><rect class="cls-7" x="35.73" y="83.38" width="0.1" height="35.52"/><rect class="cls-101" x="35.83" y="83.38" width="0.1" height="35.52"/><rect class="cls-128" x="35.94" y="83.38" width="0.1" height="35.52"/><rect class="cls-9" x="36.04" y="83.38" width="0.1" height="35.52"/><rect class="cls-10" x="36.14" y="83.38" width="0.1" height="35.52"/><rect class="cls-103" x="36.24" y="83.38" width="0.1" height="35.52"/><rect class="cls-11" x="36.34" y="83.38" width="0.1" height="35.52"/><rect class="cls-12" x="36.44" y="83.38" width="0.1" height="35.52"/><rect class="cls-13" x="36.54" y="83.38" width="0.1" height="35.52"/><rect class="cls-105" x="36.64" y="83.38" width="0.1" height="35.52"/><rect class="cls-14" x="36.74" y="83.38" width="0.1" height="35.52"/><rect class="cls-15" x="36.84" y="83.38" width="0.1" height="35.52"/><rect class="cls-16" x="36.94" y="83.38" width="0.1" height="35.52"/><rect class="cls-107" x="37.04" y="83.38" width="0.1" height="35.52"/><rect class="cls-17" x="37.14" y="83.38" width="0.1" height="35.52"/><rect class="cls-18" x="37.24" y="83.38" width="0.1" height="35.52"/><rect class="cls-129" x="37.35" y="83.38" width="0.1" height="35.52"/><rect class="cls-19" x="37.45" y="83.38" width="0.1" height="35.52"/><rect class="cls-20" x="37.55" y="83.38" width="0.1" height="35.52"/><rect class="cls-21" x="37.65" y="83.38" width="0.1" height="35.52"/><rect class="cls-108" x="37.75" y="83.38" width="0.1" height="35.52"/><rect class="cls-22" x="37.85" y="83.38" width="0.1" height="35.52"/><rect class="cls-23" x="37.95" y="83.38" width="0.1" height="35.52"/><rect class="cls-24" x="38.05" y="83.38" width="0.1" height="35.52"/><rect class="cls-109" x="38.15" y="83.38" width="0.1" height="35.52"/><rect class="cls-25" x="38.25" y="83.38" width="0.1" height="35.52"/><rect class="cls-26" x="38.35" y="83.38" width="0.1" height="35.52"/><rect class="cls-27" x="38.45" y="83.38" width="0.1" height="35.52"/><rect class="cls-28" x="38.55" y="83.38" width="0.1" height="35.52"/><rect class="cls-111" x="38.65" y="83.38" width="0.1" height="35.52"/><rect class="cls-29" x="38.75" y="83.38" width="0.1" height="35.52"/><rect class="cls-30" x="38.86" y="83.38" width="0.1" height="35.52"/><rect class="cls-31" x="38.96" y="83.38" width="0.1" height="35.52"/><rect class="cls-112" x="39.06" y="83.38" width="0.1" height="35.52"/><rect class="cls-113" x="39.16" y="83.38" width="0.1" height="35.52"/><rect class="cls-33" x="39.26" y="83.38" width="0.1" height="35.52"/><rect class="cls-130" x="39.36" y="83.38" width="0.1" height="35.52"/><rect class="cls-35" x="39.46" y="83.38" width="0.1" height="35.52"/><rect class="cls-131" x="39.56" y="83.38" width="0.1" height="35.52"/><rect class="cls-132" x="39.66" y="83.38" width="0.1" height="35.52"/><rect class="cls-37" x="39.76" y="83.38" width="0.1" height="35.52"/><rect class="cls-38" x="39.86" y="83.38" width="0.1" height="35.52"/><rect class="cls-39" x="39.96" y="83.38" width="0.1" height="35.52"/><rect class="cls-40" x="40.06" y="83.38" width="0.1" height="35.52"/><rect class="cls-114" x="40.16" y="83.38" width="0.1" height="35.52"/><rect class="cls-41" x="40.27" y="83.38" width="0.1" height="35.52"/><rect class="cls-42" x="40.37" y="83.38" width="0.1" height="35.52"/><rect class="cls-133" x="40.47" y="83.38" width="0.1" height="35.52"/><rect class="cls-44" x="40.57" y="83.38" width="0.1" height="35.52"/><rect class="cls-45" x="40.67" y="83.38" width="0.1" height="35.52"/><rect class="cls-115" x="40.77" y="83.38" width="0.1" height="35.52"/><rect class="cls-46" x="40.87" y="83.38" width="0.1" height="35.52"/><rect class="cls-48" x="40.97" y="83.38" width="0.1" height="35.52"/><rect class="cls-49" x="41.07" y="83.38" width="0.1" height="35.52"/><rect class="cls-116" x="41.17" y="83.38" width="0.1" height="35.52"/><rect class="cls-51" x="41.27" y="83.38" width="0.1" height="35.52"/><rect class="cls-117" x="41.37" y="83.38" width="0.1" height="35.52"/><rect class="cls-52" x="41.47" y="83.38" width="0.1" height="35.52"/><rect class="cls-53" x="41.57" y="83.38" width="0.1" height="35.52"/><rect class="cls-54" x="41.68" y="83.38" width="0.1" height="35.52"/><rect class="cls-55" x="41.78" y="83.38" width="0.1" height="35.52"/><rect class="cls-56" x="41.88" y="83.38" width="0.1" height="35.52"/><rect class="cls-57" x="41.98" y="83.38" width="0.1" height="35.52"/><rect class="cls-58" x="42.08" y="83.38" width="0.1" height="35.52"/><rect class="cls-59" x="42.18" y="83.38" width="0.1" height="35.52"/><rect class="cls-134" x="42.28" y="83.38" width="0.1" height="35.52"/><rect class="cls-61" x="42.38" y="83.38" width="0.1" height="35.52"/><rect class="cls-62" x="42.48" y="83.38" width="0.1" height="35.52"/><rect class="cls-63" x="42.58" y="83.38" width="0.1" height="35.52"/><rect class="cls-64" x="42.68" y="83.38" width="0.1" height="35.52"/><rect class="cls-121" x="42.78" y="83.38" width="0.1" height="35.52"/><rect class="cls-122" x="42.88" y="83.38" width="0.1" height="35.52"/><rect class="cls-66" x="42.98" y="83.38" width="0.1" height="35.52"/><rect class="cls-67" x="43.09" y="83.38" width="0.1" height="35.52"/><rect class="cls-68" x="43.19" y="83.38" width="0.1" height="35.52"/><rect class="cls-69" x="43.29" y="83.38" width="0.1" height="35.52"/><rect class="cls-70" x="43.39" y="83.38" width="0.1" height="35.52"/><rect class="cls-71" x="43.49" y="83.38" width="0.1" height="35.52"/><rect class="cls-72" x="43.59" y="83.38" width="0.1" height="35.52"/><rect class="cls-73" x="43.69" y="83.38" width="0.1" height="35.52"/><rect class="cls-74" x="43.79" y="83.38" width="0.1" height="35.52"/><rect class="cls-135" x="43.89" y="83.38" width="0.1" height="35.52"/><rect class="cls-76" x="43.99" y="83.38" width="0.1" height="35.52"/><rect class="cls-77" x="44.09" y="83.38" width="0.1" height="35.52"/><rect class="cls-78" x="44.19" y="83.38" width="0.1" height="35.52"/><rect class="cls-79" x="44.29" y="83.38" width="0.1" height="35.52"/><rect class="cls-80" x="44.39" y="83.38" width="0.1" height="35.52"/><rect class="cls-81" x="44.49" y="83.38" width="0.1" height="35.52"/><rect class="cls-82" x="44.6" y="83.38" width="0.1" height="35.52"/><rect class="cls-83" x="44.7" y="83.38" width="0.1" height="35.52"/><rect class="cls-84" x="44.8" y="83.38" width="0.1" height="35.52"/><rect class="cls-85" x="44.9" y="83.38" width="0.1" height="35.52"/><rect class="cls-86" x="45" y="83.38" width="0.1" height="35.52"/><rect class="cls-87" x="45.1" y="83.38" width="0.1" height="35.52"/><rect class="cls-88" x="45.2" y="83.38" width="0.1" height="35.52"/><rect class="cls-89" x="45.3" y="83.38" width="0.1" height="35.52"/><rect class="cls-90" x="45.4" y="83.38" width="0.1" height="35.52"/><rect class="cls-91" x="45.5" y="83.38" width="0.1" height="35.52"/><rect class="cls-92" x="45.6" y="83.38" width="0.1" height="35.52"/><rect class="cls-93" x="45.7" y="83.38" width="0.1" height="35.52"/><rect class="cls-94" x="45.8" y="83.38" width="0.1" height="35.52"/><rect class="cls-95" x="45.9" y="83.38" width="0.1" height="35.52"/><rect class="cls-96" x="46.01" y="83.38" width="0.1" height="35.52"/><rect class="cls-98" x="46.11" y="83.38" width="0.1" height="35.52"/><rect class="cls-99" x="46.21" y="83.38" width="0.1" height="35.52"/></g></g><g class="cls-5"><g class="cls-136"><rect class="cls-7" x="154.46" y="83.41" width="0.46" height="35.52"/><rect class="cls-7" x="154.93" y="83.41" width="0.1" height="35.52"/><rect class="cls-101" x="155.03" y="83.41" width="0.1" height="35.52"/><rect class="cls-128" x="155.13" y="83.41" width="0.1" height="35.52"/><rect class="cls-9" x="155.23" y="83.41" width="0.1" height="35.52"/><rect class="cls-10" x="155.33" y="83.41" width="0.1" height="35.52"/><rect class="cls-103" x="155.43" y="83.41" width="0.1" height="35.52"/><rect class="cls-11" x="155.53" y="83.41" width="0.1" height="35.52"/><rect class="cls-12" x="155.63" y="83.41" width="0.1" height="35.52"/><rect class="cls-13" x="155.73" y="83.41" width="0.1" height="35.52"/><rect class="cls-105" x="155.83" y="83.41" width="0.1" height="35.52"/><rect class="cls-14" x="155.93" y="83.41" width="0.1" height="35.52"/><rect class="cls-15" x="156.03" y="83.41" width="0.1" height="35.52"/><rect class="cls-16" x="156.13" y="83.41" width="0.1" height="35.52"/><rect class="cls-107" x="156.23" y="83.41" width="0.1" height="35.52"/><rect class="cls-17" x="156.34" y="83.41" width="0.1" height="35.52"/><rect class="cls-18" x="156.44" y="83.41" width="0.1" height="35.52"/><rect class="cls-129" x="156.54" y="83.41" width="0.1" height="35.52"/><rect class="cls-19" x="156.64" y="83.41" width="0.1" height="35.52"/><rect class="cls-20" x="156.74" y="83.41" width="0.1" height="35.52"/><rect class="cls-21" x="156.84" y="83.41" width="0.1" height="35.52"/><rect class="cls-108" x="156.94" y="83.41" width="0.1" height="35.52"/><rect class="cls-22" x="157.04" y="83.41" width="0.1" height="35.52"/><rect class="cls-23" x="157.14" y="83.41" width="0.1" height="35.52"/><rect class="cls-24" x="157.24" y="83.41" width="0.1" height="35.52"/><rect class="cls-109" x="157.34" y="83.41" width="0.1" height="35.52"/><rect class="cls-25" x="157.44" y="83.41" width="0.1" height="35.52"/><rect class="cls-26" x="157.54" y="83.41" width="0.1" height="35.52"/><rect class="cls-27" x="157.64" y="83.41" width="0.1" height="35.52"/><rect class="cls-28" x="157.74" y="83.41" width="0.1" height="35.52"/><rect class="cls-111" x="157.85" y="83.41" width="0.1" height="35.52"/><rect class="cls-29" x="157.95" y="83.41" width="0.1" height="35.52"/><rect class="cls-30" x="158.05" y="83.41" width="0.1" height="35.52"/><rect class="cls-31" x="158.15" y="83.41" width="0.1" height="35.52"/><rect class="cls-112" x="158.25" y="83.41" width="0.1" height="35.52"/><rect class="cls-113" x="158.35" y="83.41" width="0.1" height="35.52"/><rect class="cls-33" x="158.45" y="83.41" width="0.1" height="35.52"/><rect class="cls-130" x="158.55" y="83.41" width="0.1" height="35.52"/><rect class="cls-35" x="158.65" y="83.41" width="0.1" height="35.52"/><rect class="cls-131" x="158.75" y="83.41" width="0.1" height="35.52"/><rect class="cls-132" x="158.85" y="83.41" width="0.1" height="35.52"/><rect class="cls-37" x="158.95" y="83.41" width="0.1" height="35.52"/><rect class="cls-38" x="159.05" y="83.41" width="0.1" height="35.52"/><rect class="cls-39" x="159.15" y="83.41" width="0.1" height="35.52"/><rect class="cls-40" x="159.26" y="83.41" width="0.1" height="35.52"/><rect class="cls-114" x="159.36" y="83.41" width="0.1" height="35.52"/><rect class="cls-41" x="159.46" y="83.41" width="0.1" height="35.52"/><rect class="cls-42" x="159.56" y="83.41" width="0.1" height="35.52"/><rect class="cls-133" x="159.66" y="83.41" width="0.1" height="35.52"/><rect class="cls-44" x="159.76" y="83.41" width="0.1" height="35.52"/><rect class="cls-45" x="159.86" y="83.41" width="0.1" height="35.52"/><rect class="cls-115" x="159.96" y="83.41" width="0.1" height="35.52"/><rect class="cls-46" x="160.06" y="83.41" width="0.1" height="35.52"/><rect class="cls-48" x="160.16" y="83.41" width="0.1" height="35.52"/><rect class="cls-49" x="160.26" y="83.41" width="0.1" height="35.52"/><rect class="cls-116" x="160.36" y="83.41" width="0.1" height="35.52"/><rect class="cls-51" x="160.46" y="83.41" width="0.1" height="35.52"/><rect class="cls-117" x="160.56" y="83.41" width="0.1" height="35.52"/><rect class="cls-52" x="160.67" y="83.41" width="0.1" height="35.52"/><rect class="cls-53" x="160.77" y="83.41" width="0.1" height="35.52"/><rect class="cls-54" x="160.87" y="83.41" width="0.1" height="35.52"/><rect class="cls-55" x="160.97" y="83.41" width="0.1" height="35.52"/><rect class="cls-56" x="161.07" y="83.41" width="0.1" height="35.52"/><rect class="cls-57" x="161.17" y="83.41" width="0.1" height="35.52"/><rect class="cls-58" x="161.27" y="83.41" width="0.1" height="35.52"/><rect class="cls-59" x="161.37" y="83.41" width="0.1" height="35.52"/><rect class="cls-134" x="161.47" y="83.41" width="0.1" height="35.52"/><rect class="cls-61" x="161.57" y="83.41" width="0.1" height="35.52"/><rect class="cls-62" x="161.67" y="83.41" width="0.1" height="35.52"/><rect class="cls-63" x="161.77" y="83.41" width="0.1" height="35.52"/><rect class="cls-64" x="161.87" y="83.41" width="0.1" height="35.52"/><rect class="cls-121" x="161.97" y="83.41" width="0.1" height="35.52"/><rect class="cls-122" x="162.08" y="83.41" width="0.1" height="35.52"/><rect class="cls-66" x="162.18" y="83.41" width="0.1" height="35.52"/><rect class="cls-67" x="162.28" y="83.41" width="0.1" height="35.52"/><rect class="cls-68" x="162.38" y="83.41" width="0.1" height="35.52"/><rect class="cls-69" x="162.48" y="83.41" width="0.1" height="35.52"/><rect class="cls-70" x="162.58" y="83.41" width="0.1" height="35.52"/><rect class="cls-71" x="162.68" y="83.41" width="0.1" height="35.52"/><rect class="cls-72" x="162.78" y="83.41" width="0.1" height="35.52"/><rect class="cls-73" x="162.88" y="83.41" width="0.1" height="35.52"/><rect class="cls-74" x="162.98" y="83.41" width="0.1" height="35.52"/><rect class="cls-135" x="163.08" y="83.41" width="0.1" height="35.52"/><rect class="cls-76" x="163.18" y="83.41" width="0.1" height="35.52"/><rect class="cls-77" x="163.28" y="83.41" width="0.1" height="35.52"/><rect class="cls-78" x="163.38" y="83.41" width="0.1" height="35.52"/><rect class="cls-79" x="163.48" y="83.41" width="0.1" height="35.52"/><rect class="cls-80" x="163.59" y="83.41" width="0.1" height="35.52"/><rect class="cls-81" x="163.69" y="83.41" width="0.1" height="35.52"/><rect class="cls-82" x="163.79" y="83.41" width="0.1" height="35.52"/><rect class="cls-83" x="163.89" y="83.41" width="0.1" height="35.52"/><rect class="cls-84" x="163.99" y="83.41" width="0.1" height="35.52"/><rect class="cls-85" x="164.09" y="83.41" width="0.1" height="35.52"/><rect class="cls-86" x="164.19" y="83.41" width="0.1" height="35.52"/><rect class="cls-87" x="164.29" y="83.41" width="0.1" height="35.52"/><rect class="cls-88" x="164.39" y="83.41" width="0.1" height="35.52"/><rect class="cls-89" x="164.49" y="83.41" width="0.1" height="35.52"/><rect class="cls-90" x="164.59" y="83.41" width="0.1" height="35.52"/><rect class="cls-91" x="164.69" y="83.41" width="0.1" height="35.52"/><rect class="cls-92" x="164.79" y="83.41" width="0.1" height="35.52"/><rect class="cls-93" x="164.89" y="83.41" width="0.1" height="35.52"/><rect class="cls-94" x="165" y="83.41" width="0.1" height="35.52"/><rect class="cls-95" x="165.1" y="83.41" width="0.1" height="35.52"/><rect class="cls-96" x="165.2" y="83.41" width="0.1" height="35.52"/><rect class="cls-98" x="165.3" y="83.41" width="0.1" height="35.52"/><rect class="cls-99" x="165.4" y="83.41" width="0.1" height="35.52"/></g></g></g></g></svg>