<svg xmlns="http://www.w3.org/2000/svg" xmlns:xlink="http://www.w3.org/1999/xlink" viewBox="0 0 94.07 51.84"><defs><style>.cls-1{fill:none;}.cls-2{opacity:0.7;}.cls-3{clip-path:url(#clip-path);}.cls-4{fill:#81d0e6;}.cls-5{fill:#7fcfe6;}.cls-6{fill:#7ecfe5;}.cls-7{fill:#7ccee5;}.cls-8{fill:#7bcee5;}.cls-9{fill:#7acde5;}.cls-10{fill:#78cde4;}.cls-11{fill:#77cce4;}.cls-12{fill:#75cce4;}.cls-13{fill:#74cbe3;}.cls-14{fill:#72cbe3;}.cls-15{fill:#71cae3;}.cls-16{fill:#6fcae3;}.cls-17{fill:#6ec9e2;}.cls-18{fill:#6dc8e2;}.cls-19{fill:#6bc8e2;}.cls-20{fill:#6ac7e1;}.cls-21{fill:#68c7e1;}.cls-22{fill:#67c6e1;}.cls-23{fill:#66c6e1;}.cls-24{fill:#64c5e0;}.cls-25{fill:#63c5e0;}.cls-26{fill:#62c4e0;}.cls-27{fill:#60c4e0;}.cls-28{fill:#5fc3df;}.cls-29{fill:#5ec3df;}.cls-30{fill:#5dc3df;}.cls-31{fill:#5bc2df;}.cls-32{fill:#5ac2de;}.cls-33{fill:#59c1de;}.cls-34{fill:#58c1de;}.cls-35{fill:#56c0de;}.cls-36{fill:#55c0dd;}.cls-37{fill:#54bfdd;}.cls-38{fill:#53bfdd;}.cls-39{fill:#51bedd;}.cls-40{fill:#50bedc;}.cls-41{fill:#4fbedc;}.cls-42{fill:#4ebddc;}.cls-43{fill:#4dbddc;}.cls-44{fill:#4cbcdc;}.cls-45{fill:#4bbcdb;}.cls-46{fill:#49bbdb;}.cls-47{fill:#48bbdb;}.cls-48{fill:#47bbdb;}.cls-49{fill:#46bada;}.cls-50{fill:#45bada;}.cls-51{fill:#44b9da;}.cls-52{fill:#43b9da;}.cls-53{fill:#42b9da;}.cls-54{fill:#41b8d9;}.cls-55{fill:#40b8d9;}.cls-56{fill:#3fb8d9;}.cls-57{fill:#3eb7d9;}.cls-58{fill:#3db7d9;}.cls-59{fill:#3cb6d8;}.cls-60{fill:#3bb6d8;}.cls-61{fill:#3ab6d8;}.cls-62{fill:#39b5d8;}.cls-63{fill:#38b5d8;}.cls-64{fill:#37b5d8;}.cls-65{fill:#36b4d7;}.cls-66{fill:#35b4d7;}.cls-67{fill:#34b4d7;}.cls-68{fill:#33b3d7;}.cls-69{fill:#32b3d7;}.cls-70{fill:#31b3d6;}.cls-71{fill:#31b2d6;}.cls-72{fill:#30b2d6;}.cls-73{fill:#2fb2d6;}.cls-74{fill:#2eb1d6;}.cls-75{fill:#2db1d6;}.cls-76{fill:#2cb1d5;}.cls-77{fill:#2bb0d5;}.cls-78{fill:#2ab0d5;}.cls-79{fill:#29b0d5;}.cls-80{fill:#29afd5;}.cls-81{fill:#28afd5;}.cls-82{fill:#27afd4;}.cls-83{fill:#26aed4;}.cls-84{fill:#25aed4;}.cls-85{clip-path:url(#clip-path-2);}.cls-86{fill:#c8ebf4;}.cls-87{fill:#c6eaf4;}.cls-88{fill:#c5eaf3;}.cls-89{fill:#c3e9f3;}.cls-90{fill:#c2e9f3;}.cls-91{fill:#c1e8f3;}.cls-92{fill:#bfe8f2;}.cls-93{fill:#bee7f2;}.cls-94{fill:#bce7f2;}.cls-95{fill:#bbe6f1;}.cls-96{fill:#b9e5f1;}.cls-97{fill:#b8e5f1;}.cls-98{fill:#b6e4f1;}.cls-99{fill:#b5e4f0;}.cls-100{fill:#b3e3f0;}.cls-101{fill:#b2e3f0;}.cls-102{fill:#b0e2ef;}.cls-103{fill:#afe2ef;}.cls-104{fill:#aee1ef;}.cls-105{fill:#ace1ef;}.cls-106{fill:#abe0ee;}.cls-107{fill:#a9e0ee;}.cls-108{fill:#a8dfee;}.cls-109{fill:#a7deed;}.cls-110{fill:#a5deed;}.cls-111{fill:#a4dded;}.cls-112{fill:#a2dded;}.cls-113{fill:#a1dcec;}.cls-114{fill:#a0dcec;}.cls-115{fill:#9edbec;}.cls-116{fill:#9ddbec;}.cls-117{fill:#9cdaeb;}.cls-118{fill:#9adaeb;}.cls-119{fill:#99d9eb;}.cls-120{fill:#98d9ea;}.cls-121{fill:#96d8ea;}.cls-122{fill:#95d8ea;}.cls-123{fill:#94d7ea;}.cls-124{fill:#92d7e9;}.cls-125{fill:#91d6e9;}.cls-126{fill:#90d6e9;}.cls-127{fill:#8ed5e9;}.cls-128{fill:#8dd5e8;}.cls-129{fill:#8cd4e8;}.cls-130{fill:#8ad4e8;}.cls-131{fill:#89d3e8;}.cls-132{fill:#88d3e7;}.cls-133{fill:#87d3e7;}.cls-134{fill:#85d2e7;}.cls-135{fill:#84d2e7;}.cls-136{fill:#83d1e6;}.cls-137{fill:#82d1e6;}.cls-138{fill:#80d0e6;}.cls-139{fill:#7fd0e6;}.cls-140{fill:#7dcfe5;}.cls-141{fill:#7acee5;}.cls-142{fill:#79cde4;}.cls-143{fill:#77cde4;}.cls-144{fill:#74cce4;}.cls-145{fill:#73cbe3;}.cls-146{fill:#6dc9e2;}.cls-147{fill:#6cc9e2;}.cls-148{fill:#6ac8e1;}.cls-149{fill:#69c7e1;}.cls-150{fill:#67c7e1;}.cls-151{fill:#65c6e1;}.cls-152{fill:#64c6e0;}.cls-153{fill:#62c5e0;}.cls-154{fill:#61c4e0;}.cls-155{fill:#5fc4df;}.cls-156{fill:#5cc2df;}.cls-157{fill:#5ac2df;}.cls-158{fill:#59c2de;}.cls-159{fill:#57c1de;}.cls-160{fill:#54c0dd;}.cls-161{fill:#52bfdd;}.cls-162{fill:#51bfdd;}.cls-163{fill:#50bedd;}.cls-164{fill:#4ebedc;}.cls-165{fill:#4abcdb;}.cls-166{fill:#46badb;}.cls-167{fill:#44bada;}.cls-168{fill:#3cb7d9;}.cls-169{fill:#39b6d8;}.cls-170{fill:#2db1d5;}.cls-171{fill:#2cb0d5;}.cls-172{fill:#28afd4;}.cls-173{fill:#26afd4;}.cls-174{fill:#fdffff;}.cls-175{fill:#2d2d2d;}.cls-176{fill:#e44626;}.cls-177{clip-path:url(#clip-path-3);}.cls-178{clip-path:url(#clip-path-5);}.cls-179{fill:#3c354a;}.cls-180{clip-path:url(#clip-path-6);}.cls-181{opacity:0.9;}.cls-182{clip-path:url(#clip-path-8);}</style><clipPath id="clip-path" transform="translate(0 0)"><rect class="cls-1" x="18.25" y="19.39" width="67.28" height="32.36"/></clipPath><clipPath id="clip-path-2" transform="translate(0 0)"><polygon class="cls-1" points="14.13 15.4 76.56 15.4 76.56 9.95 9.28 9.95 9.28 42.31 14.13 42.31 14.13 15.4"/></clipPath><clipPath id="clip-path-3" transform="translate(0 0)"><circle class="cls-1" cx="80.64" cy="17.28" r="12.06"/></clipPath><clipPath id="clip-path-5" transform="translate(0 0)"><path class="cls-1" d="M79,23.62H79A1.29,1.29,0,0,1,77.93,23l-3-4.87a1.3,1.3,0,0,1,2.22-1.36l2,3.19,6-8.32a1.3,1.3,0,0,1,2.12,1.52L80.1,23.08A1.31,1.31,0,0,1,79,23.62Z"/></clipPath><clipPath id="clip-path-6" transform="translate(0 0)"><path class="cls-1" d="M80.64,30.72A13.36,13.36,0,1,1,94,17.36,13.38,13.38,0,0,1,80.64,30.72Zm0-24.11A10.75,10.75,0,1,0,91.39,17.36,10.76,10.76,0,0,0,80.64,6.61Z"/></clipPath><clipPath id="clip-path-8" transform="translate(0 0)"><polygon class="cls-1" points="4.84 5.46 67.28 5.46 67.28 0 0 0 0 32.36 4.84 32.36 4.84 5.46"/></clipPath></defs><g id="Layer_2" data-name="Layer 2"><g id="Layer_1-2" data-name="Layer 1"><g class="cls-2"><g class="cls-3"><path class="cls-4" d="M18.25,19.39v0Z" transform="translate(0 0)"/><rect class="cls-4" x="18.25" y="19.39" width="0.7" height="32.36"/><rect class="cls-5" x="18.95" y="19.39" width="0.7" height="32.36"/><rect class="cls-6" x="19.65" y="19.39" width="0.7" height="32.36"/><rect class="cls-7" x="20.36" y="19.39" width="0.7" height="32.36"/><rect class="cls-8" x="21.06" y="19.39" width="0.7" height="32.36"/><rect class="cls-9" x="21.76" y="19.39" width="0.7" height="32.36"/><rect class="cls-10" x="22.46" y="19.39" width="0.7" height="32.36"/><rect class="cls-11" x="23.16" y="19.39" width="0.7" height="32.36"/><rect class="cls-12" x="23.86" y="19.39" width="0.7" height="32.36"/><rect class="cls-13" x="24.56" y="19.39" width="0.7" height="32.36"/><rect class="cls-14" x="25.27" y="19.39" width="0.7" height="32.36"/><rect class="cls-15" x="25.97" y="19.39" width="0.7" height="32.36"/><rect class="cls-16" x="26.67" y="19.39" width="0.7" height="32.36"/><rect class="cls-17" x="27.37" y="19.39" width="0.7" height="32.36"/><rect class="cls-18" x="28.07" y="19.39" width="0.7" height="32.36"/><rect class="cls-19" x="28.77" y="19.39" width="0.7" height="32.36"/><rect class="cls-20" x="29.48" y="19.39" width="0.7" height="32.36"/><rect class="cls-21" x="30.18" y="19.39" width="0.7" height="32.36"/><rect class="cls-22" x="30.88" y="19.39" width="0.7" height="32.36"/><rect class="cls-23" x="31.58" y="19.39" width="0.7" height="32.36"/><rect class="cls-24" x="32.28" y="19.39" width="0.7" height="32.36"/><rect class="cls-25" x="32.98" y="19.39" width="0.7" height="32.36"/><rect class="cls-26" x="33.68" y="19.39" width="0.7" height="32.36"/><rect class="cls-27" x="34.39" y="19.39" width="0.7" height="32.36"/><rect class="cls-28" x="35.09" y="19.39" width="0.7" height="32.36"/><rect class="cls-29" x="35.79" y="19.39" width="0.7" height="32.36"/><rect class="cls-30" x="36.49" y="19.39" width="0.7" height="32.36"/><rect class="cls-31" x="37.19" y="19.39" width="0.7" height="32.36"/><rect class="cls-32" x="37.89" y="19.39" width="0.7" height="32.36"/><rect class="cls-33" x="38.59" y="19.39" width="0.7" height="32.36"/><rect class="cls-34" x="39.3" y="19.39" width="0.7" height="32.36"/><rect class="cls-35" x="40" y="19.39" width="0.7" height="32.36"/><rect class="cls-36" x="40.7" y="19.39" width="0.7" height="32.36"/><rect class="cls-37" x="41.4" y="19.39" width="0.7" height="32.36"/><rect class="cls-38" x="42.1" y="19.39" width="0.7" height="32.36"/><rect class="cls-39" x="42.8" y="19.39" width="0.7" height="32.36"/><rect class="cls-40" x="43.5" y="19.39" width="0.7" height="32.36"/><rect class="cls-41" x="44.21" y="19.39" width="0.7" height="32.36"/><rect class="cls-42" x="44.91" y="19.39" width="0.7" height="32.36"/><rect class="cls-43" x="45.61" y="19.39" width="0.7" height="32.36"/><rect class="cls-44" x="46.31" y="19.39" width="0.7" height="32.36"/><rect class="cls-45" x="47.01" y="19.39" width="0.7" height="32.36"/><rect class="cls-46" x="47.71" y="19.39" width="0.7" height="32.36"/><rect class="cls-47" x="48.42" y="19.39" width="0.7" height="32.36"/><rect class="cls-48" x="49.12" y="19.39" width="0.7" height="32.36"/><rect class="cls-49" x="49.82" y="19.39" width="0.7" height="32.36"/><rect class="cls-50" x="50.52" y="19.39" width="0.7" height="32.36"/><rect class="cls-51" x="51.22" y="19.39" width="0.7" height="32.36"/><rect class="cls-52" x="51.92" y="19.39" width="0.7" height="32.36"/><rect class="cls-53" x="52.62" y="19.39" width="0.7" height="32.36"/><rect class="cls-54" x="53.33" y="19.39" width="0.7" height="32.36"/><rect class="cls-55" x="54.03" y="19.39" width="0.7" height="32.36"/><rect class="cls-56" x="54.73" y="19.39" width="0.7" height="32.36"/><rect class="cls-57" x="55.43" y="19.39" width="0.7" height="32.36"/><rect class="cls-58" x="56.13" y="19.39" width="0.7" height="32.36"/><rect class="cls-59" x="56.83" y="19.39" width="0.7" height="32.36"/><rect class="cls-60" x="57.53" y="19.39" width="0.7" height="32.36"/><rect class="cls-61" x="58.24" y="19.39" width="0.7" height="32.36"/><rect class="cls-62" x="58.94" y="19.39" width="0.7" height="32.36"/><rect class="cls-63" x="59.64" y="19.39" width="0.7" height="32.36"/><rect class="cls-64" x="60.34" y="19.39" width="0.7" height="32.36"/><rect class="cls-65" x="61.04" y="19.39" width="0.7" height="32.36"/><rect class="cls-65" x="61.74" y="19.39" width="0.7" height="32.36"/><rect class="cls-66" x="62.45" y="19.39" width="0.7" height="32.36"/><rect class="cls-67" x="63.15" y="19.39" width="0.7" height="32.36"/><rect class="cls-68" x="63.85" y="19.39" width="0.7" height="32.36"/><rect class="cls-69" x="64.55" y="19.39" width="0.7" height="32.36"/><rect class="cls-70" x="65.25" y="19.39" width="0.7" height="32.36"/><rect class="cls-71" x="65.95" y="19.39" width="0.7" height="32.36"/><rect class="cls-72" x="66.65" y="19.39" width="0.7" height="32.36"/><rect class="cls-73" x="67.36" y="19.39" width="0.7" height="32.36"/><rect class="cls-73" x="68.06" y="19.39" width="0.7" height="32.36"/><rect class="cls-74" x="68.76" y="19.39" width="0.7" height="32.36"/><rect class="cls-75" x="69.46" y="19.39" width="0.7" height="32.36"/><rect class="cls-76" x="70.16" y="19.39" width="0.7" height="32.36"/><rect class="cls-76" x="70.86" y="19.39" width="0.7" height="32.36"/><rect class="cls-77" x="71.56" y="19.39" width="0.7" height="32.36"/><rect class="cls-77" x="72.27" y="19.39" width="0.7" height="32.36"/><rect class="cls-78" x="72.97" y="19.39" width="0.7" height="32.36"/><rect class="cls-79" x="73.67" y="19.39" width="0.7" height="32.36"/><rect class="cls-80" x="74.37" y="19.39" width="0.7" height="32.36"/><rect class="cls-81" x="75.07" y="19.39" width="0.7" height="32.36"/><rect class="cls-81" x="75.77" y="19.39" width="0.7" height="32.36"/><rect class="cls-82" x="76.47" y="19.39" width="0.7" height="32.36"/><rect class="cls-82" x="77.18" y="19.39" width="0.7" height="32.36"/><rect class="cls-82" x="77.88" y="19.39" width="0.7" height="32.36"/><rect class="cls-83" x="78.58" y="19.39" width="0.7" height="32.36"/><rect class="cls-83" x="79.28" y="19.39" width="0.7" height="32.36"/><rect class="cls-83" x="79.98" y="19.39" width="0.7" height="32.36"/><rect class="cls-84" x="80.68" y="19.39" width="0.7" height="32.36"/><rect class="cls-84" x="81.39" y="19.39" width="0.7" height="32.36"/><rect class="cls-84" x="82.09" y="19.39" width="0.7" height="32.36"/><rect class="cls-84" x="82.79" y="19.39" width="2.75" height="32.36"/></g></g><g class="cls-85"><path class="cls-86" d="M9.28,10v0Z" transform="translate(0 0)"/><rect class="cls-86" x="9.28" y="9.95" width="0.4" height="32.36"/><rect class="cls-87" x="9.68" y="9.95" width="0.4" height="32.36"/><rect class="cls-88" x="10.07" y="9.95" width="0.4" height="32.36"/><rect class="cls-89" x="10.47" y="9.95" width="0.4" height="32.36"/><rect class="cls-90" x="10.87" y="9.95" width="0.4" height="32.36"/><rect class="cls-91" x="11.26" y="9.95" width="0.4" height="32.36"/><rect class="cls-92" x="11.66" y="9.95" width="0.4" height="32.36"/><rect class="cls-93" x="12.05" y="9.95" width="0.4" height="32.36"/><rect class="cls-94" x="12.45" y="9.95" width="0.4" height="32.36"/><rect class="cls-95" x="12.85" y="9.95" width="0.4" height="32.36"/><rect class="cls-96" x="13.24" y="9.95" width="0.4" height="32.36"/><rect class="cls-97" x="13.64" y="9.95" width="0.4" height="32.36"/><rect class="cls-98" x="14.03" y="9.95" width="0.4" height="32.36"/><rect class="cls-99" x="14.43" y="9.95" width="0.4" height="32.36"/><rect class="cls-100" x="14.82" y="9.95" width="0.4" height="32.36"/><rect class="cls-101" x="15.22" y="9.95" width="0.4" height="32.36"/><rect class="cls-102" x="15.62" y="9.95" width="0.4" height="32.36"/><rect class="cls-103" x="16.01" y="9.95" width="0.4" height="32.36"/><rect class="cls-104" x="16.41" y="9.95" width="0.4" height="32.36"/><rect class="cls-105" x="16.8" y="9.95" width="0.4" height="32.36"/><rect class="cls-106" x="17.2" y="9.95" width="0.4" height="32.36"/><rect class="cls-107" x="17.6" y="9.95" width="0.4" height="32.36"/><rect class="cls-108" x="17.99" y="9.95" width="0.4" height="32.36"/><rect class="cls-109" x="18.39" y="9.95" width="0.4" height="32.36"/><rect class="cls-110" x="18.78" y="9.95" width="0.4" height="32.36"/><rect class="cls-111" x="19.18" y="9.95" width="0.4" height="32.36"/><rect class="cls-112" x="19.58" y="9.95" width="0.4" height="32.36"/><rect class="cls-113" x="19.97" y="9.95" width="0.4" height="32.36"/><rect class="cls-114" x="20.37" y="9.95" width="0.4" height="32.36"/><rect class="cls-115" x="20.76" y="9.95" width="0.4" height="32.36"/><rect class="cls-116" x="21.16" y="9.95" width="0.4" height="32.36"/><rect class="cls-117" x="21.56" y="9.95" width="0.4" height="32.36"/><rect class="cls-118" x="21.95" y="9.95" width="0.4" height="32.36"/><rect class="cls-119" x="22.35" y="9.95" width="0.4" height="32.36"/><rect class="cls-120" x="22.74" y="9.95" width="0.4" height="32.36"/><rect class="cls-121" x="23.14" y="9.95" width="0.4" height="32.36"/><rect class="cls-122" x="23.54" y="9.95" width="0.4" height="32.36"/><rect class="cls-123" x="23.93" y="9.95" width="0.4" height="32.36"/><rect class="cls-124" x="24.33" y="9.95" width="0.4" height="32.36"/><rect class="cls-125" x="24.72" y="9.95" width="0.4" height="32.36"/><rect class="cls-126" x="25.12" y="9.95" width="0.4" height="32.36"/><rect class="cls-127" x="25.51" y="9.95" width="0.4" height="32.36"/><rect class="cls-128" x="25.91" y="9.95" width="0.4" height="32.36"/><rect class="cls-129" x="26.31" y="9.95" width="0.4" height="32.36"/><rect class="cls-130" x="26.7" y="9.95" width="0.4" height="32.36"/><rect class="cls-131" x="27.1" y="9.95" width="0.4" height="32.36"/><rect class="cls-132" x="27.49" y="9.95" width="0.4" height="32.36"/><rect class="cls-133" x="27.89" y="9.95" width="0.4" height="32.36"/><rect class="cls-134" x="28.29" y="9.95" width="0.4" height="32.36"/><rect class="cls-135" x="28.68" y="9.95" width="0.4" height="32.36"/><rect class="cls-136" x="29.08" y="9.95" width="0.4" height="32.36"/><rect class="cls-137" x="29.47" y="9.95" width="0.4" height="32.36"/><rect class="cls-138" x="29.87" y="9.95" width="0.4" height="32.36"/><rect class="cls-139" x="30.27" y="9.95" width="0.4" height="32.36"/><rect class="cls-6" x="30.66" y="9.95" width="0.4" height="32.36"/><rect class="cls-140" x="31.06" y="9.95" width="0.4" height="32.36"/><rect class="cls-8" x="31.45" y="9.95" width="0.4" height="32.36"/><rect class="cls-141" x="31.85" y="9.95" width="0.4" height="32.36"/><rect class="cls-142" x="32.25" y="9.95" width="0.4" height="32.36"/><rect class="cls-10" x="32.64" y="9.95" width="0.4" height="32.36"/><rect class="cls-143" x="33.04" y="9.95" width="0.4" height="32.36"/><rect class="cls-12" x="33.43" y="9.95" width="0.4" height="32.36"/><rect class="cls-144" x="33.83" y="9.95" width="0.4" height="32.36"/><rect class="cls-145" x="34.23" y="9.95" width="0.4" height="32.36"/><rect class="cls-14" x="34.62" y="9.95" width="0.4" height="32.36"/><rect class="cls-15" x="35.02" y="9.95" width="0.4" height="32.36"/><rect class="cls-16" x="35.41" y="9.95" width="0.4" height="32.36"/><rect class="cls-17" x="35.81" y="9.95" width="0.4" height="32.36"/><rect class="cls-146" x="36.21" y="9.95" width="0.4" height="32.36"/><rect class="cls-147" x="36.6" y="9.95" width="0.4" height="32.36"/><rect class="cls-19" x="37" y="9.95" width="0.4" height="32.36"/><rect class="cls-148" x="37.39" y="9.95" width="0.4" height="32.36"/><rect class="cls-149" x="37.79" y="9.95" width="0.4" height="32.36"/><rect class="cls-150" x="38.18" y="9.95" width="0.4" height="32.36"/><rect class="cls-23" x="38.58" y="9.95" width="0.4" height="32.36"/><rect class="cls-151" x="38.98" y="9.95" width="0.4" height="32.36"/><rect class="cls-152" x="39.37" y="9.95" width="0.4" height="32.36"/><rect class="cls-25" x="39.77" y="9.95" width="0.4" height="32.36"/><rect class="cls-153" x="40.16" y="9.95" width="0.4" height="32.36"/><rect class="cls-154" x="40.56" y="9.95" width="0.4" height="32.36"/><rect class="cls-27" x="40.96" y="9.95" width="0.4" height="32.36"/><rect class="cls-155" x="41.35" y="9.95" width="0.4" height="32.36"/><rect class="cls-29" x="41.75" y="9.95" width="0.4" height="32.36"/><rect class="cls-30" x="42.14" y="9.95" width="0.4" height="32.36"/><rect class="cls-156" x="42.54" y="9.95" width="0.4" height="32.36"/><rect class="cls-157" x="42.94" y="9.95" width="0.4" height="32.36"/><rect class="cls-158" x="43.33" y="9.95" width="0.4" height="32.36"/><rect class="cls-34" x="43.73" y="9.95" width="0.4" height="32.36"/><rect class="cls-159" x="44.12" y="9.95" width="0.4" height="32.36"/><rect class="cls-35" x="44.52" y="9.95" width="0.4" height="32.36"/><rect class="cls-36" x="44.92" y="9.95" width="0.4" height="32.36"/><rect class="cls-160" x="45.31" y="9.95" width="0.4" height="32.36"/><rect class="cls-38" x="45.71" y="9.95" width="0.4" height="32.36"/><rect class="cls-161" x="46.1" y="9.95" width="0.4" height="32.36"/><rect class="cls-162" x="46.5" y="9.95" width="0.4" height="32.36"/><rect class="cls-163" x="46.9" y="9.95" width="0.4" height="32.36"/><rect class="cls-41" x="47.29" y="9.95" width="0.4" height="32.36"/><rect class="cls-164" x="47.69" y="9.95" width="0.4" height="32.36"/><rect class="cls-42" x="48.08" y="9.95" width="0.4" height="32.36"/><rect class="cls-43" x="48.48" y="9.95" width="0.4" height="32.36"/><rect class="cls-44" x="48.87" y="9.95" width="0.4" height="32.36"/><rect class="cls-45" x="49.27" y="9.95" width="0.4" height="32.36"/><rect class="cls-165" x="49.67" y="9.95" width="0.4" height="32.36"/><rect class="cls-46" x="50.06" y="9.95" width="0.4" height="32.36"/><rect class="cls-47" x="50.46" y="9.95" width="0.4" height="32.36"/><rect class="cls-48" x="50.85" y="9.95" width="0.4" height="32.36"/><rect class="cls-166" x="51.25" y="9.95" width="0.4" height="32.36"/><rect class="cls-50" x="51.65" y="9.95" width="0.4" height="32.36"/><rect class="cls-167" x="52.04" y="9.95" width="0.4" height="32.36"/><rect class="cls-51" x="52.44" y="9.95" width="0.4" height="32.36"/><rect class="cls-52" x="52.83" y="9.95" width="0.4" height="32.36"/><rect class="cls-53" x="53.23" y="9.95" width="0.4" height="32.36"/><rect class="cls-54" x="53.63" y="9.95" width="0.4" height="32.36"/><rect class="cls-55" x="54.02" y="9.95" width="0.4" height="32.36"/><rect class="cls-56" x="54.42" y="9.95" width="0.4" height="32.36"/><rect class="cls-56" x="54.81" y="9.95" width="0.4" height="32.36"/><rect class="cls-57" x="55.21" y="9.95" width="0.4" height="32.36"/><rect class="cls-58" x="55.61" y="9.95" width="0.4" height="32.36"/><rect class="cls-168" x="56" y="9.95" width="0.4" height="32.36"/><rect class="cls-60" x="56.4" y="9.95" width="0.4" height="32.36"/><rect class="cls-60" x="56.79" y="9.95" width="0.4" height="32.36"/><rect class="cls-61" x="57.19" y="9.95" width="0.4" height="32.36"/><rect class="cls-169" x="57.59" y="9.95" width="0.4" height="32.36"/><rect class="cls-63" x="57.98" y="9.95" width="0.4" height="32.36"/><rect class="cls-63" x="58.38" y="9.95" width="0.4" height="32.36"/><rect class="cls-64" x="58.77" y="9.95" width="0.4" height="32.36"/><rect class="cls-65" x="59.17" y="9.95" width="0.4" height="32.36"/><rect class="cls-66" x="59.57" y="9.95" width="0.4" height="32.36"/><rect class="cls-66" x="59.96" y="9.95" width="0.4" height="32.36"/><rect class="cls-67" x="60.36" y="9.95" width="0.4" height="32.36"/><rect class="cls-68" x="60.75" y="9.95" width="0.4" height="32.36"/><rect class="cls-68" x="61.15" y="9.95" width="0.4" height="32.36"/><rect class="cls-69" x="61.54" y="9.95" width="0.4" height="32.36"/><rect class="cls-70" x="61.94" y="9.95" width="0.4" height="32.36"/><rect class="cls-71" x="62.34" y="9.95" width="0.4" height="32.36"/><rect class="cls-72" x="62.73" y="9.95" width="0.4" height="32.36"/><rect class="cls-72" x="63.13" y="9.95" width="0.4" height="32.36"/><rect class="cls-73" x="63.52" y="9.95" width="0.4" height="32.36"/><rect class="cls-74" x="63.92" y="9.95" width="0.4" height="32.36"/><rect class="cls-74" x="64.32" y="9.95" width="0.4" height="32.36"/><rect class="cls-75" x="64.71" y="9.95" width="0.4" height="32.36"/><rect class="cls-170" x="65.11" y="9.95" width="0.4" height="32.36"/><rect class="cls-76" x="65.5" y="9.95" width="0.4" height="32.36"/><rect class="cls-171" x="65.9" y="9.95" width="0.4" height="32.36"/><rect class="cls-77" x="66.3" y="9.95" width="0.4" height="32.36"/><rect class="cls-77" x="66.69" y="9.95" width="0.4" height="32.36"/><rect class="cls-78" x="67.09" y="9.95" width="0.4" height="32.36"/><rect class="cls-78" x="67.48" y="9.95" width="0.4" height="32.36"/><rect class="cls-79" x="67.88" y="9.95" width="0.4" height="32.36"/><rect class="cls-80" x="68.28" y="9.95" width="0.4" height="32.36"/><rect class="cls-81" x="68.67" y="9.95" width="0.4" height="32.36"/><rect class="cls-81" x="69.07" y="9.95" width="0.4" height="32.36"/><rect class="cls-172" x="69.46" y="9.95" width="0.4" height="32.36"/><rect class="cls-82" x="69.86" y="9.95" width="0.4" height="32.36"/><rect class="cls-82" x="70.26" y="9.95" width="0.4" height="32.36"/><rect class="cls-173" x="70.65" y="9.95" width="0.4" height="32.36"/><rect class="cls-83" x="71.05" y="9.95" width="0.4" height="32.36"/><rect class="cls-83" x="71.44" y="9.95" width="0.4" height="32.36"/><rect class="cls-83" x="71.84" y="9.95" width="0.4" height="32.36"/><rect class="cls-84" x="72.24" y="9.95" width="0.4" height="32.36"/><rect class="cls-84" x="72.63" y="9.95" width="0.4" height="32.36"/><rect class="cls-84" x="73.03" y="9.95" width="0.4" height="32.36"/><rect class="cls-84" x="73.42" y="9.95" width="0.4" height="32.36"/><rect class="cls-84" x="73.82" y="9.95" width="2.75" height="32.36"/></g><rect class="cls-1" x="18.25" y="19.01" width="67.28" height="32.36"/><circle class="cls-174" cx="80.64" cy="17.28" r="12.06"/><path class="cls-175" d="M80.64,30.15A12.88,12.88,0,1,1,93.52,17.28,12.89,12.89,0,0,1,80.64,30.15ZM80.64,6A11.24,11.24,0,1,0,91.88,17.28,11.25,11.25,0,0,0,80.64,6Z" transform="translate(0 0)"/><path class="cls-176" d="M79,23.69H79A1.36,1.36,0,0,1,77.87,23l-3-4.87a1.37,1.37,0,1,1,2.33-1.43l1.9,3.11L85,11.61a1.37,1.37,0,1,1,2.22,1.59l-7.11,9.91A1.37,1.37,0,0,1,79,23.69Z" transform="translate(0 0)"/><g class="cls-177"><g class="cls-2"><g class="cls-3"><path class="cls-4" d="M18.25,19.39v0Z" transform="translate(0 0)"/><rect class="cls-4" x="18.25" y="19.39" width="0.7" height="32.36"/><rect class="cls-5" x="18.95" y="19.39" width="0.7" height="32.36"/><rect class="cls-6" x="19.65" y="19.39" width="0.7" height="32.36"/><rect class="cls-7" x="20.36" y="19.39" width="0.7" height="32.36"/><rect class="cls-8" x="21.06" y="19.39" width="0.7" height="32.36"/><rect class="cls-9" x="21.76" y="19.39" width="0.7" height="32.36"/><rect class="cls-10" x="22.46" y="19.39" width="0.7" height="32.36"/><rect class="cls-11" x="23.16" y="19.39" width="0.7" height="32.36"/><rect class="cls-12" x="23.86" y="19.39" width="0.7" height="32.36"/><rect class="cls-13" x="24.56" y="19.39" width="0.7" height="32.36"/><rect class="cls-14" x="25.27" y="19.39" width="0.7" height="32.36"/><rect class="cls-15" x="25.97" y="19.39" width="0.7" height="32.36"/><rect class="cls-16" x="26.67" y="19.39" width="0.7" height="32.36"/><rect class="cls-17" x="27.37" y="19.39" width="0.7" height="32.36"/><rect class="cls-18" x="28.07" y="19.39" width="0.7" height="32.36"/><rect class="cls-19" x="28.77" y="19.39" width="0.7" height="32.36"/><rect class="cls-20" x="29.48" y="19.39" width="0.7" height="32.36"/><rect class="cls-21" x="30.18" y="19.39" width="0.7" height="32.36"/><rect class="cls-22" x="30.88" y="19.39" width="0.7" height="32.36"/><rect class="cls-23" x="31.58" y="19.39" width="0.7" height="32.36"/><rect class="cls-24" x="32.28" y="19.39" width="0.7" height="32.36"/><rect class="cls-25" x="32.98" y="19.39" width="0.7" height="32.36"/><rect class="cls-26" x="33.68" y="19.39" width="0.7" height="32.36"/><rect class="cls-27" x="34.39" y="19.39" width="0.7" height="32.36"/><rect class="cls-28" x="35.09" y="19.39" width="0.7" height="32.36"/><rect class="cls-29" x="35.79" y="19.39" width="0.7" height="32.36"/><rect class="cls-30" x="36.49" y="19.39" width="0.7" height="32.36"/><rect class="cls-31" x="37.19" y="19.39" width="0.7" height="32.36"/><rect class="cls-32" x="37.89" y="19.39" width="0.7" height="32.36"/><rect class="cls-33" x="38.59" y="19.39" width="0.7" height="32.36"/><rect class="cls-34" x="39.3" y="19.39" width="0.7" height="32.36"/><rect class="cls-35" x="40" y="19.39" width="0.7" height="32.36"/><rect class="cls-36" x="40.7" y="19.39" width="0.7" height="32.36"/><rect class="cls-37" x="41.4" y="19.39" width="0.7" height="32.36"/><rect class="cls-38" x="42.1" y="19.39" width="0.7" height="32.36"/><rect class="cls-39" x="42.8" y="19.39" width="0.7" height="32.36"/><rect class="cls-40" x="43.5" y="19.39" width="0.7" height="32.36"/><rect class="cls-41" x="44.21" y="19.39" width="0.7" height="32.36"/><rect class="cls-42" x="44.91" y="19.39" width="0.7" height="32.36"/><rect class="cls-43" x="45.61" y="19.39" width="0.7" height="32.36"/><rect class="cls-44" x="46.31" y="19.39" width="0.7" height="32.36"/><rect class="cls-45" x="47.01" y="19.39" width="0.7" height="32.36"/><rect class="cls-46" x="47.71" y="19.39" width="0.7" height="32.36"/><rect class="cls-47" x="48.42" y="19.39" width="0.7" height="32.36"/><rect class="cls-48" x="49.12" y="19.39" width="0.7" height="32.36"/><rect class="cls-49" x="49.82" y="19.39" width="0.7" height="32.36"/><rect class="cls-50" x="50.52" y="19.39" width="0.7" height="32.36"/><rect class="cls-51" x="51.22" y="19.39" width="0.7" height="32.36"/><rect class="cls-52" x="51.92" y="19.39" width="0.7" height="32.36"/><rect class="cls-53" x="52.62" y="19.39" width="0.7" height="32.36"/><rect class="cls-54" x="53.33" y="19.39" width="0.7" height="32.36"/><rect class="cls-55" x="54.03" y="19.39" width="0.7" height="32.36"/><rect class="cls-56" x="54.73" y="19.39" width="0.7" height="32.36"/><rect class="cls-57" x="55.43" y="19.39" width="0.7" height="32.36"/><rect class="cls-58" x="56.13" y="19.39" width="0.7" height="32.36"/><rect class="cls-59" x="56.83" y="19.39" width="0.7" height="32.36"/><rect class="cls-60" x="57.53" y="19.39" width="0.7" height="32.36"/><rect class="cls-61" x="58.24" y="19.39" width="0.7" height="32.36"/><rect class="cls-62" x="58.94" y="19.39" width="0.7" height="32.36"/><rect class="cls-63" x="59.64" y="19.39" width="0.7" height="32.36"/><rect class="cls-64" x="60.34" y="19.39" width="0.7" height="32.36"/><rect class="cls-65" x="61.04" y="19.39" width="0.7" height="32.36"/><rect class="cls-65" x="61.74" y="19.39" width="0.7" height="32.36"/><rect class="cls-66" x="62.45" y="19.39" width="0.7" height="32.36"/><rect class="cls-67" x="63.15" y="19.39" width="0.7" height="32.36"/><rect class="cls-68" x="63.85" y="19.39" width="0.7" height="32.36"/><rect class="cls-69" x="64.55" y="19.39" width="0.7" height="32.36"/><rect class="cls-70" x="65.25" y="19.39" width="0.7" height="32.36"/><rect class="cls-71" x="65.95" y="19.39" width="0.7" height="32.36"/><rect class="cls-72" x="66.65" y="19.39" width="0.7" height="32.36"/><rect class="cls-73" x="67.36" y="19.39" width="0.7" height="32.36"/><rect class="cls-73" x="68.06" y="19.39" width="0.7" height="32.36"/><rect class="cls-74" x="68.76" y="19.39" width="0.7" height="32.36"/><rect class="cls-75" x="69.46" y="19.39" width="0.7" height="32.36"/><rect class="cls-76" x="70.16" y="19.39" width="0.7" height="32.36"/><rect class="cls-76" x="70.86" y="19.39" width="0.7" height="32.36"/><rect class="cls-77" x="71.56" y="19.39" width="0.7" height="32.36"/><rect class="cls-77" x="72.27" y="19.39" width="0.7" height="32.36"/><rect class="cls-78" x="72.97" y="19.39" width="0.7" height="32.36"/><rect class="cls-79" x="73.67" y="19.39" width="0.7" height="32.36"/><rect class="cls-80" x="74.37" y="19.39" width="0.7" height="32.36"/><rect class="cls-81" x="75.07" y="19.39" width="0.7" height="32.36"/><rect class="cls-81" x="75.77" y="19.39" width="0.7" height="32.36"/><rect class="cls-82" x="76.47" y="19.39" width="0.7" height="32.36"/><rect class="cls-82" x="77.18" y="19.39" width="0.7" height="32.36"/><rect class="cls-82" x="77.88" y="19.39" width="0.7" height="32.36"/><rect class="cls-83" x="78.58" y="19.39" width="0.7" height="32.36"/><rect class="cls-83" x="79.28" y="19.39" width="0.7" height="32.36"/><rect class="cls-83" x="79.98" y="19.39" width="0.7" height="32.36"/><rect class="cls-84" x="80.68" y="19.39" width="0.7" height="32.36"/><rect class="cls-84" x="81.39" y="19.39" width="0.7" height="32.36"/><rect class="cls-84" x="82.09" y="19.39" width="0.7" height="32.36"/><rect class="cls-84" x="82.79" y="19.39" width="2.75" height="32.36"/></g></g><rect class="cls-1" x="18.25" y="19.01" width="67.28" height="32.36"/></g><path class="cls-176" d="M80.64,30.78A13.42,13.42,0,1,1,94.07,17.36,13.43,13.43,0,0,1,80.64,30.78Zm0-24.11A10.69,10.69,0,1,0,91.33,17.36,10.71,10.71,0,0,0,80.64,6.67Z" transform="translate(0 0)"/><g class="cls-178"><rect class="cls-179" x="18.25" y="19.39" width="67.28" height="32.36"/></g><g class="cls-180"><rect class="cls-179" x="18.25" y="19.48" width="67.28" height="32.36"/></g><path class="cls-179" d="M52,41h0a6.09,6.09,0,0,1-4.57-2.2,1,1,0,1,1,1.5-1.19A4.21,4.21,0,0,0,52,39.11h0a2.36,2.36,0,0,0,1.88-.83,1.25,1.25,0,0,0,.28-1c-.19-.81-1.26-1.09-2.75-1.4a9.71,9.71,0,0,1-1.66-.45A2.8,2.8,0,0,1,48,33.3c-.31-2,1.58-3.58,3.07-3.91a5.25,5.25,0,0,1,4.72,1.8.94.94,0,0,1,0,1.35,1,1,0,0,1-1.35,0c-.48-.48-1.7-1.56-3-1.28-.72.16-1.72.94-1.6,1.75.05.28.37.5.62.61a9,9,0,0,0,1.33.34c1.57.33,3.72.79,4.21,2.83a3.16,3.16,0,0,1-.65,2.69A4.24,4.24,0,0,1,52,41Z" transform="translate(0 0)"/><path class="cls-179" d="M51.69,30.67a1,1,0,0,1-1-1v-1.6a1,1,0,0,1,1.91,0v1.6A1,1,0,0,1,51.69,30.67Z" transform="translate(0 0)"/><path class="cls-179" d="M51.69,43.16a1,1,0,0,1-1-1V40.61a1,1,0,1,1,1.91,0V42.2A1,1,0,0,1,51.69,43.16Z" transform="translate(0 0)"/><g class="cls-180"><polygon class="cls-179" points="14.13 15.4 76.56 15.4 76.56 9.95 9.28 9.95 9.28 42.31 14.13 42.31 14.13 15.4"/></g><g class="cls-181"><path class="cls-84" d="M76.56,10v5.47H70.07A10.36,10.36,0,0,1,72.88,10Z" transform="translate(0 0)"/></g><g class="cls-182"><path class="cls-86" d="M0,0V0Z" transform="translate(0 0)"/><rect class="cls-86" width="0.4" height="32.36"/><rect class="cls-87" x="0.4" width="0.4" height="32.36"/><rect class="cls-88" x="0.79" width="0.4" height="32.36"/><rect class="cls-89" x="1.19" width="0.4" height="32.36"/><rect class="cls-90" x="1.58" width="0.4" height="32.36"/><rect class="cls-91" x="1.98" width="0.4" height="32.36"/><rect class="cls-92" x="2.38" width="0.4" height="32.36"/><rect class="cls-93" x="2.77" width="0.4" height="32.36"/><rect class="cls-94" x="3.17" width="0.4" height="32.36"/><rect class="cls-95" x="3.56" width="0.4" height="32.36"/><rect class="cls-96" x="3.96" width="0.4" height="32.36"/><rect class="cls-97" x="4.36" width="0.4" height="32.36"/><rect class="cls-98" x="4.75" width="0.4" height="32.36"/><rect class="cls-99" x="5.15" width="0.4" height="32.36"/><rect class="cls-100" x="5.54" width="0.4" height="32.36"/><rect class="cls-101" x="5.94" width="0.4" height="32.36"/><rect class="cls-102" x="6.33" width="0.4" height="32.36"/><rect class="cls-103" x="6.73" width="0.4" height="32.36"/><rect class="cls-104" x="7.13" width="0.4" height="32.36"/><rect class="cls-105" x="7.52" width="0.4" height="32.36"/><rect class="cls-106" x="7.92" width="0.4" height="32.36"/><rect class="cls-107" x="8.31" width="0.4" height="32.36"/><rect class="cls-108" x="8.71" width="0.4" height="32.36"/><rect class="cls-109" x="9.11" width="0.4" height="32.36"/><rect class="cls-110" x="9.5" width="0.4" height="32.36"/><rect class="cls-111" x="9.9" width="0.4" height="32.36"/><rect class="cls-112" x="10.29" width="0.4" height="32.36"/><rect class="cls-113" x="10.69" width="0.4" height="32.36"/><rect class="cls-114" x="11.09" width="0.4" height="32.36"/><rect class="cls-115" x="11.48" width="0.4" height="32.36"/><rect class="cls-116" x="11.88" width="0.4" height="32.36"/><rect class="cls-117" x="12.27" width="0.4" height="32.36"/><rect class="cls-118" x="12.67" width="0.4" height="32.36"/><rect class="cls-119" x="13.07" width="0.4" height="32.36"/><rect class="cls-120" x="13.46" width="0.4" height="32.36"/><rect class="cls-121" x="13.86" width="0.4" height="32.36"/><rect class="cls-122" x="14.25" width="0.4" height="32.36"/><rect class="cls-123" x="14.65" width="0.4" height="32.36"/><rect class="cls-124" x="15.05" width="0.4" height="32.36"/><rect class="cls-125" x="15.44" width="0.4" height="32.36"/><rect class="cls-126" x="15.84" width="0.4" height="32.36"/><rect class="cls-127" x="16.23" width="0.4" height="32.36"/><rect class="cls-128" x="16.63" width="0.4" height="32.36"/><rect class="cls-129" x="17.03" width="0.4" height="32.36"/><rect class="cls-130" x="17.42" width="0.4" height="32.36"/><rect class="cls-131" x="17.82" width="0.4" height="32.36"/><rect class="cls-132" x="18.21" width="0.4" height="32.36"/><rect class="cls-133" x="18.61" width="0.4" height="32.36"/><rect class="cls-134" x="19" width="0.4" height="32.36"/><rect class="cls-135" x="19.4" width="0.4" height="32.36"/><rect class="cls-136" x="19.8" width="0.4" height="32.36"/><rect class="cls-137" x="20.19" width="0.4" height="32.36"/><rect class="cls-138" x="20.59" width="0.4" height="32.36"/><rect class="cls-139" x="20.98" width="0.4" height="32.36"/><rect class="cls-6" x="21.38" width="0.4" height="32.36"/><rect class="cls-140" x="21.78" width="0.4" height="32.36"/><rect class="cls-8" x="22.17" width="0.4" height="32.36"/><rect class="cls-141" x="22.57" width="0.4" height="32.36"/><rect class="cls-142" x="22.96" width="0.4" height="32.36"/><rect class="cls-10" x="23.36" width="0.4" height="32.36"/><rect class="cls-143" x="23.76" width="0.4" height="32.36"/><rect class="cls-12" x="24.15" width="0.4" height="32.36"/><rect class="cls-144" x="24.55" width="0.4" height="32.36"/><rect class="cls-145" x="24.94" width="0.4" height="32.36"/><rect class="cls-14" x="25.34" width="0.4" height="32.36"/><rect class="cls-15" x="25.74" width="0.4" height="32.36"/><rect class="cls-16" x="26.13" width="0.4" height="32.36"/><rect class="cls-17" x="26.53" width="0.4" height="32.36"/><rect class="cls-146" x="26.92" width="0.4" height="32.36"/><rect class="cls-147" x="27.32" width="0.4" height="32.36"/><rect class="cls-19" x="27.72" width="0.4" height="32.36"/><rect class="cls-148" x="28.11" width="0.4" height="32.36"/><rect class="cls-149" x="28.51" width="0.4" height="32.36"/><rect class="cls-150" x="28.9" width="0.4" height="32.36"/><rect class="cls-23" x="29.3" width="0.4" height="32.36"/><rect class="cls-151" x="29.7" width="0.4" height="32.36"/><rect class="cls-152" x="30.09" width="0.4" height="32.36"/><rect class="cls-25" x="30.49" width="0.4" height="32.36"/><rect class="cls-153" x="30.88" width="0.4" height="32.36"/><rect class="cls-154" x="31.28" width="0.4" height="32.36"/><rect class="cls-27" x="31.67" width="0.4" height="32.36"/><rect class="cls-155" x="32.07" width="0.4" height="32.36"/><rect class="cls-29" x="32.47" width="0.4" height="32.36"/><rect class="cls-30" x="32.86" width="0.4" height="32.36"/><rect class="cls-156" x="33.26" width="0.4" height="32.36"/><rect class="cls-157" x="33.65" width="0.4" height="32.36"/><rect class="cls-158" x="34.05" width="0.4" height="32.36"/><rect class="cls-34" x="34.45" width="0.4" height="32.36"/><rect class="cls-159" x="34.84" width="0.4" height="32.36"/><rect class="cls-35" x="35.24" width="0.4" height="32.36"/><rect class="cls-36" x="35.63" width="0.4" height="32.36"/><rect class="cls-160" x="36.03" width="0.4" height="32.36"/><rect class="cls-38" x="36.43" width="0.4" height="32.36"/><rect class="cls-161" x="36.82" width="0.4" height="32.36"/><rect class="cls-162" x="37.22" width="0.4" height="32.36"/><rect class="cls-163" x="37.61" width="0.4" height="32.36"/><rect class="cls-41" x="38.01" width="0.4" height="32.36"/><rect class="cls-164" x="38.41" width="0.4" height="32.36"/><rect class="cls-42" x="38.8" width="0.4" height="32.36"/><rect class="cls-43" x="39.2" width="0.4" height="32.36"/><rect class="cls-44" x="39.59" width="0.4" height="32.36"/><rect class="cls-45" x="39.99" width="0.4" height="32.36"/><rect class="cls-165" x="40.39" width="0.4" height="32.36"/><rect class="cls-46" x="40.78" width="0.4" height="32.36"/><rect class="cls-47" x="41.18" width="0.4" height="32.36"/><rect class="cls-48" x="41.57" width="0.4" height="32.36"/><rect class="cls-166" x="41.97" width="0.4" height="32.36"/><rect class="cls-50" x="42.36" width="0.4" height="32.36"/><rect class="cls-167" x="42.76" width="0.4" height="32.36"/><rect class="cls-51" x="43.16" width="0.4" height="32.36"/><rect class="cls-52" x="43.55" width="0.4" height="32.36"/><rect class="cls-53" x="43.95" width="0.4" height="32.36"/><rect class="cls-54" x="44.34" width="0.4" height="32.36"/><rect class="cls-55" x="44.74" width="0.4" height="32.36"/><rect class="cls-56" x="45.14" width="0.4" height="32.36"/><rect class="cls-56" x="45.53" width="0.4" height="32.36"/><rect class="cls-57" x="45.93" width="0.4" height="32.36"/><rect class="cls-58" x="46.32" width="0.4" height="32.36"/><rect class="cls-168" x="46.72" width="0.4" height="32.36"/><rect class="cls-60" x="47.12" width="0.4" height="32.36"/><rect class="cls-60" x="47.51" width="0.4" height="32.36"/><rect class="cls-61" x="47.91" width="0.4" height="32.36"/><rect class="cls-169" x="48.3" width="0.4" height="32.36"/><rect class="cls-63" x="48.7" width="0.4" height="32.36"/><rect class="cls-63" x="49.1" width="0.4" height="32.36"/><rect class="cls-64" x="49.49" width="0.4" height="32.36"/><rect class="cls-65" x="49.89" width="0.4" height="32.36"/><rect class="cls-66" x="50.28" width="0.4" height="32.36"/><rect class="cls-66" x="50.68" width="0.4" height="32.36"/><rect class="cls-67" x="51.08" width="0.4" height="32.36"/><rect class="cls-68" x="51.47" width="0.4" height="32.36"/><rect class="cls-68" x="51.87" width="0.4" height="32.36"/><rect class="cls-69" x="52.26" width="0.4" height="32.36"/><rect class="cls-70" x="52.66" width="0.4" height="32.36"/><rect class="cls-71" x="53.06" width="0.4" height="32.36"/><rect class="cls-72" x="53.45" width="0.4" height="32.36"/><rect class="cls-72" x="53.85" width="0.4" height="32.36"/><rect class="cls-73" x="54.24" width="0.4" height="32.36"/><rect class="cls-74" x="54.64" width="0.4" height="32.36"/><rect class="cls-74" x="55.03" width="0.4" height="32.36"/><rect class="cls-75" x="55.43" width="0.4" height="32.36"/><rect class="cls-170" x="55.83" width="0.4" height="32.36"/><rect class="cls-76" x="56.22" width="0.4" height="32.36"/><rect class="cls-171" x="56.62" width="0.4" height="32.36"/><rect class="cls-77" x="57.01" width="0.4" height="32.36"/><rect class="cls-77" x="57.41" width="0.4" height="32.36"/><rect class="cls-78" x="57.81" width="0.4" height="32.36"/><rect class="cls-78" x="58.2" width="0.4" height="32.36"/><rect class="cls-79" x="58.6" width="0.4" height="32.36"/><rect class="cls-80" x="58.99" width="0.4" height="32.36"/><rect class="cls-81" x="59.39" width="0.4" height="32.36"/><rect class="cls-81" x="59.79" width="0.4" height="32.36"/><rect class="cls-172" x="60.18" width="0.4" height="32.36"/><rect class="cls-82" x="60.58" width="0.4" height="32.36"/><rect class="cls-82" x="60.97" width="0.4" height="32.36"/><rect class="cls-173" x="61.37" width="0.4" height="32.36"/><rect class="cls-83" x="61.77" width="0.4" height="32.36"/><rect class="cls-83" x="62.16" width="0.4" height="32.36"/><rect class="cls-83" x="62.56" width="0.4" height="32.36"/><rect class="cls-84" x="62.95" width="0.4" height="32.36"/><rect class="cls-84" x="63.35" width="0.4" height="32.36"/><rect class="cls-84" x="63.75" width="0.4" height="32.36"/><rect class="cls-84" x="64.14" width="0.4" height="32.36"/><rect class="cls-84" x="64.54" width="2.75" height="32.36"/></g></g></g></svg>