<svg xmlns="http://www.w3.org/2000/svg" xmlns:xlink="http://www.w3.org/1999/xlink" viewBox="0 0 200 200"><defs><style>.cls-1{fill:none;}.cls-2{isolation:isolate;}.cls-3{mix-blend-mode:multiply;}.cls-4{clip-path:url(#clip-path);}.cls-5{fill:#a4dded;}.cls-6{fill:#a2dced;}.cls-7{fill:#a1dcec;}.cls-8{fill:#9fdbec;}.cls-9{fill:#9edbec;}.cls-10{fill:#9cdaeb;}.cls-11{fill:#9ad9eb;}.cls-12{fill:#99d9eb;}.cls-13{fill:#97d8ea;}.cls-14{fill:#96d8ea;}.cls-15{fill:#94d7ea;}.cls-16{fill:#93d7ea;}.cls-17{fill:#91d6e9;}.cls-18{fill:#8fd5e9;}.cls-19{fill:#8ed5e9;}.cls-20{fill:#8cd4e8;}.cls-21{fill:#8bd4e8;}.cls-22{fill:#89d3e8;}.cls-23{fill:#88d3e7;}.cls-24{fill:#86d2e7;}.cls-25{fill:#85d2e7;}.cls-26{fill:#83d1e7;}.cls-27{fill:#82d0e6;}.cls-28{fill:#81d0e6;}.cls-29{fill:#7fcfe6;}.cls-30{fill:#7ecfe5;}.cls-31{fill:#7ccee5;}.cls-32{fill:#7bcee5;}.cls-33{fill:#79cde5;}.cls-34{fill:#78cde4;}.cls-35{fill:#77cce4;}.cls-36{fill:#75cce4;}.cls-37{fill:#74cbe4;}.cls-38{fill:#73cbe3;}.cls-39{fill:#71cae3;}.cls-40{fill:#70cae3;}.cls-41{fill:#6fc9e2;}.cls-42{fill:#6dc9e2;}.cls-43{fill:#6cc8e2;}.cls-44{fill:#6bc8e2;}.cls-45{fill:#69c7e1;}.cls-46{fill:#68c7e1;}.cls-47{fill:#67c6e1;}.cls-48{fill:#66c6e1;}.cls-49{fill:#64c5e0;}.cls-50{fill:#63c5e0;}.cls-51{fill:#62c4e0;}.cls-52{fill:#61c4e0;}.cls-53{fill:#5fc4df;}.cls-54{fill:#5ec3df;}.cls-55{fill:#5dc3df;}.cls-56{fill:#5cc2df;}.cls-57{fill:#5bc2df;}.cls-58{fill:#59c1de;}.cls-59{fill:#58c1de;}.cls-60{fill:#57c1de;}.cls-61{fill:#56c0de;}.cls-62{fill:#55c0dd;}.cls-63{fill:#54bfdd;}.cls-64{fill:#53bfdd;}.cls-65{fill:#51bedd;}.cls-66{fill:#50bedd;}.cls-67{fill:#4fbedc;}.cls-68{fill:#4ebddc;}.cls-69{fill:#4dbddc;}.cls-70{fill:#4cbcdc;}.cls-71{fill:#4bbcdc;}.cls-72{fill:#4abcdb;}.cls-73{fill:#49bbdb;}.cls-74{fill:#48bbdb;}.cls-75{fill:#47bbdb;}.cls-76{fill:#46badb;}.cls-77{fill:#45bada;}.cls-78{fill:#44bada;}.cls-79{fill:#43b9da;}.cls-80{fill:#42b9da;}.cls-81{fill:#41b8da;}.cls-82{fill:#40b8d9;}.cls-83{fill:#3fb7d9;}.cls-84{fill:#3eb7d9;}.cls-85{fill:#3db7d9;}.cls-86{fill:#3cb7d9;}.cls-87{fill:#3bb6d8;}.cls-88{fill:#3ab6d8;}.cls-89{fill:#39b5d8;}.cls-90{fill:#38b5d8;}.cls-91{fill:#37b5d8;}.cls-92{fill:#36b4d7;}.cls-93{fill:#35b4d7;}.cls-94{fill:#34b4d7;}.cls-95{fill:#33b3d7;}.cls-96{fill:#32b3d7;}.cls-97{fill:#31b3d6;}.cls-98{fill:#31b2d6;}.cls-99{fill:#30b2d6;}.cls-100{fill:#2fb2d6;}.cls-101{fill:#2eb1d6;}.cls-102{fill:#2db1d6;}.cls-103{fill:#2cb1d5;}.cls-104{fill:#2bb0d5;}.cls-105{fill:#2ab0d5;}.cls-106{fill:#29b0d5;}.cls-107{fill:#29afd5;}.cls-108{fill:#28afd5;}.cls-109{fill:#27afd4;}.cls-110{fill:#26afd4;}.cls-111{fill:#26aed4;}.cls-112{fill:#25aed4;}.cls-113{fill:#fff;}.cls-114{clip-path:url(#clip-path-2);}.cls-115{clip-path:url(#clip-path-3);}.cls-116{fill:#e44626;}</style><clipPath id="clip-path"><rect class="cls-1" x="28" y="61.62" width="111.25" height="53.51"/></clipPath><clipPath id="clip-path-2"><rect class="cls-1" x="40.24" y="74.8" width="111.25" height="53.51"/></clipPath><clipPath id="clip-path-3"><rect class="cls-1" x="51.96" y="88.87" width="111.25" height="53.51"/></clipPath></defs><g class="cls-2"><g id="레이어_1" data-name="레이어 1"><g class="cls-3"><g class="cls-4"><rect class="cls-5" x="28" y="61.62" width="4.68" height="53.51"/><rect class="cls-5" x="32.68" y="61.62" width="0.84" height="53.51"/><rect class="cls-6" x="33.52" y="61.62" width="0.84" height="53.51"/><rect class="cls-7" x="34.36" y="61.62" width="0.84" height="53.51"/><rect class="cls-8" x="35.2" y="61.62" width="0.84" height="53.51"/><rect class="cls-9" x="36.04" y="61.62" width="0.84" height="53.51"/><rect class="cls-10" x="36.88" y="61.62" width="0.84" height="53.51"/><rect class="cls-11" x="37.72" y="61.62" width="0.84" height="53.51"/><rect class="cls-12" x="38.56" y="61.62" width="0.84" height="53.51"/><rect class="cls-13" x="39.4" y="61.62" width="0.84" height="53.51"/><rect class="cls-14" x="40.24" y="61.62" width="0.84" height="53.51"/><rect class="cls-15" x="41.07" y="61.62" width="0.84" height="53.51"/><rect class="cls-16" x="41.91" y="61.62" width="0.84" height="53.51"/><rect class="cls-17" x="42.75" y="61.62" width="0.84" height="53.51"/><rect class="cls-18" x="43.59" y="61.62" width="0.84" height="53.51"/><rect class="cls-19" x="44.43" y="61.62" width="0.84" height="53.51"/><rect class="cls-20" x="45.27" y="61.62" width="0.84" height="53.51"/><rect class="cls-21" x="46.11" y="61.62" width="0.84" height="53.51"/><rect class="cls-22" x="46.95" y="61.62" width="0.84" height="53.51"/><rect class="cls-23" x="47.79" y="61.62" width="0.84" height="53.51"/><rect class="cls-24" x="48.63" y="61.62" width="0.84" height="53.51"/><rect class="cls-25" x="49.47" y="61.62" width="0.84" height="53.51"/><rect class="cls-26" x="50.31" y="61.62" width="0.84" height="53.51"/><rect class="cls-27" x="51.14" y="61.62" width="0.84" height="53.51"/><rect class="cls-28" x="51.98" y="61.62" width="0.84" height="53.51"/><rect class="cls-29" x="52.82" y="61.62" width="0.84" height="53.51"/><rect class="cls-30" x="53.66" y="61.62" width="0.84" height="53.51"/><rect class="cls-31" x="54.5" y="61.62" width="0.84" height="53.51"/><rect class="cls-32" x="55.34" y="61.62" width="0.84" height="53.51"/><rect class="cls-33" x="56.18" y="61.62" width="0.84" height="53.51"/><rect class="cls-34" x="57.02" y="61.62" width="0.84" height="53.51"/><rect class="cls-35" x="57.86" y="61.62" width="0.84" height="53.51"/><rect class="cls-36" x="58.7" y="61.62" width="0.84" height="53.51"/><rect class="cls-37" x="59.54" y="61.62" width="0.84" height="53.51"/><rect class="cls-38" x="60.38" y="61.62" width="0.84" height="53.51"/><rect class="cls-39" x="61.21" y="61.62" width="0.84" height="53.51"/><rect class="cls-40" x="62.05" y="61.62" width="0.84" height="53.51"/><rect class="cls-41" x="62.89" y="61.62" width="0.84" height="53.51"/><rect class="cls-42" x="63.73" y="61.62" width="0.84" height="53.51"/><rect class="cls-43" x="64.57" y="61.62" width="0.84" height="53.51"/><rect class="cls-44" x="65.41" y="61.62" width="0.84" height="53.51"/><rect class="cls-45" x="66.25" y="61.62" width="0.84" height="53.51"/><rect class="cls-46" x="67.09" y="61.62" width="0.84" height="53.51"/><rect class="cls-47" x="67.93" y="61.62" width="0.84" height="53.51"/><rect class="cls-48" x="68.77" y="61.62" width="0.84" height="53.51"/><rect class="cls-49" x="69.61" y="61.62" width="0.84" height="53.51"/><rect class="cls-50" x="70.44" y="61.62" width="0.84" height="53.51"/><rect class="cls-51" x="71.28" y="61.62" width="0.84" height="53.51"/><rect class="cls-52" x="72.12" y="61.62" width="0.84" height="53.51"/><rect class="cls-53" x="72.96" y="61.62" width="0.84" height="53.51"/><rect class="cls-54" x="73.8" y="61.62" width="0.84" height="53.51"/><rect class="cls-55" x="74.64" y="61.62" width="0.84" height="53.51"/><rect class="cls-56" x="75.48" y="61.62" width="0.84" height="53.51"/><rect class="cls-57" x="76.32" y="61.62" width="0.84" height="53.51"/><rect class="cls-58" x="77.16" y="61.62" width="0.84" height="53.51"/><rect class="cls-59" x="78" y="61.62" width="0.84" height="53.51"/><rect class="cls-60" x="78.84" y="61.62" width="0.84" height="53.51"/><rect class="cls-61" x="79.68" y="61.62" width="0.84" height="53.51"/><rect class="cls-62" x="80.51" y="61.62" width="0.84" height="53.51"/><rect class="cls-63" x="81.35" y="61.62" width="0.84" height="53.51"/><rect class="cls-64" x="82.19" y="61.62" width="0.84" height="53.51"/><rect class="cls-65" x="83.03" y="61.62" width="0.84" height="53.51"/><rect class="cls-66" x="83.87" y="61.62" width="0.84" height="53.51"/><rect class="cls-67" x="84.71" y="61.62" width="0.84" height="53.51"/><rect class="cls-68" x="85.55" y="61.62" width="0.84" height="53.51"/><rect class="cls-69" x="86.39" y="61.62" width="0.84" height="53.51"/><rect class="cls-70" x="87.23" y="61.62" width="0.84" height="53.51"/><rect class="cls-71" x="88.07" y="61.62" width="0.84" height="53.51"/><rect class="cls-72" x="88.91" y="61.62" width="0.84" height="53.51"/><rect class="cls-73" x="89.74" y="61.62" width="0.84" height="53.51"/><rect class="cls-74" x="90.58" y="61.62" width="0.84" height="53.51"/><rect class="cls-75" x="91.42" y="61.62" width="0.84" height="53.51"/><rect class="cls-76" x="92.26" y="61.62" width="0.84" height="53.51"/><rect class="cls-77" x="93.1" y="61.62" width="0.84" height="53.51"/><rect class="cls-78" x="93.94" y="61.62" width="0.84" height="53.51"/><rect class="cls-79" x="94.78" y="61.62" width="0.84" height="53.51"/><rect class="cls-80" x="95.62" y="61.62" width="0.84" height="53.51"/><rect class="cls-81" x="96.46" y="61.62" width="0.84" height="53.51"/><rect class="cls-82" x="97.3" y="61.62" width="0.84" height="53.51"/><rect class="cls-82" x="98.14" y="61.62" width="0.84" height="53.51"/><rect class="cls-83" x="98.98" y="61.62" width="0.84" height="53.51"/><rect class="cls-84" x="99.81" y="61.62" width="0.84" height="53.51"/><rect class="cls-85" x="100.65" y="61.62" width="0.84" height="53.51"/><rect class="cls-86" x="101.49" y="61.62" width="0.84" height="53.51"/><rect class="cls-87" x="102.33" y="61.62" width="0.84" height="53.51"/><rect class="cls-88" x="103.17" y="61.62" width="0.84" height="53.51"/><rect class="cls-88" x="104.01" y="61.62" width="0.84" height="53.51"/><rect class="cls-89" x="104.85" y="61.62" width="0.84" height="53.51"/><rect class="cls-90" x="105.69" y="61.62" width="0.84" height="53.51"/><rect class="cls-91" x="106.53" y="61.62" width="0.84" height="53.51"/><rect class="cls-92" x="107.37" y="61.62" width="0.84" height="53.51"/><rect class="cls-92" x="108.21" y="61.62" width="0.84" height="53.51"/><rect class="cls-93" x="109.05" y="61.62" width="0.84" height="53.51"/><rect class="cls-94" x="109.88" y="61.62" width="0.84" height="53.51"/><rect class="cls-95" x="110.72" y="61.62" width="0.84" height="53.51"/><rect class="cls-95" x="111.56" y="61.62" width="0.84" height="53.51"/><rect class="cls-96" x="112.4" y="61.62" width="0.84" height="53.51"/><rect class="cls-97" x="113.24" y="61.62" width="0.84" height="53.51"/><rect class="cls-98" x="114.08" y="61.62" width="0.84" height="53.51"/><rect class="cls-99" x="114.92" y="61.62" width="0.84" height="53.51"/><rect class="cls-100" x="115.76" y="61.62" width="0.84" height="53.51"/><rect class="cls-100" x="116.6" y="61.62" width="0.84" height="53.51"/><rect class="cls-101" x="117.44" y="61.62" width="0.84" height="53.51"/><rect class="cls-101" x="118.28" y="61.62" width="0.84" height="53.51"/><rect class="cls-102" x="119.11" y="61.62" width="0.84" height="53.51"/><rect class="cls-103" x="119.95" y="61.62" width="0.84" height="53.51"/><rect class="cls-103" x="120.79" y="61.62" width="0.84" height="53.51"/><rect class="cls-104" x="121.63" y="61.62" width="0.84" height="53.51"/><rect class="cls-104" x="122.47" y="61.62" width="0.84" height="53.51"/><rect class="cls-105" x="123.31" y="61.62" width="0.84" height="53.51"/><rect class="cls-105" x="124.15" y="61.62" width="0.84" height="53.51"/><rect class="cls-106" x="124.99" y="61.62" width="0.84" height="53.51"/><rect class="cls-107" x="125.83" y="61.62" width="0.84" height="53.51"/><rect class="cls-107" x="126.67" y="61.62" width="0.84" height="53.51"/><rect class="cls-108" x="127.51" y="61.62" width="0.84" height="53.51"/><rect class="cls-108" x="128.35" y="61.62" width="0.84" height="53.51"/><rect class="cls-109" x="129.18" y="61.62" width="0.84" height="53.51"/><rect class="cls-109" x="130.02" y="61.62" width="0.84" height="53.51"/><rect class="cls-109" x="130.86" y="61.62" width="0.84" height="53.51"/><rect class="cls-110" x="131.7" y="61.62" width="0.84" height="53.51"/><rect class="cls-111" x="132.54" y="61.62" width="0.84" height="53.51"/><rect class="cls-111" x="133.38" y="61.62" width="0.84" height="53.51"/><rect class="cls-111" x="134.22" y="61.62" width="0.84" height="53.51"/><rect class="cls-112" x="135.06" y="61.62" width="0.84" height="53.51"/><rect class="cls-112" x="135.9" y="61.62" width="0.84" height="53.51"/><rect class="cls-112" x="136.74" y="61.62" width="0.84" height="53.51"/><rect class="cls-112" x="137.58" y="61.62" width="0.84" height="53.51"/><rect class="cls-112" x="138.41" y="61.62" width="0.84" height="53.51"/></g></g><rect class="cls-113" x="35.51" y="70.67" width="111.25" height="53.51"/><g class="cls-3"><g class="cls-114"><rect class="cls-5" x="40.24" y="74.8" width="4.68" height="53.51"/><rect class="cls-5" x="44.92" y="74.8" width="0.84" height="53.51"/><rect class="cls-6" x="45.76" y="74.8" width="0.84" height="53.51"/><rect class="cls-7" x="46.6" y="74.8" width="0.84" height="53.51"/><rect class="cls-8" x="47.44" y="74.8" width="0.84" height="53.51"/><rect class="cls-9" x="48.28" y="74.8" width="0.84" height="53.51"/><rect class="cls-10" x="49.12" y="74.8" width="0.84" height="53.51"/><rect class="cls-11" x="49.96" y="74.8" width="0.84" height="53.51"/><rect class="cls-12" x="50.8" y="74.8" width="0.84" height="53.51"/><rect class="cls-13" x="51.64" y="74.8" width="0.84" height="53.51"/><rect class="cls-14" x="52.47" y="74.8" width="0.84" height="53.51"/><rect class="cls-15" x="53.31" y="74.8" width="0.84" height="53.51"/><rect class="cls-16" x="54.15" y="74.8" width="0.84" height="53.51"/><rect class="cls-17" x="54.99" y="74.8" width="0.84" height="53.51"/><rect class="cls-18" x="55.83" y="74.8" width="0.84" height="53.51"/><rect class="cls-19" x="56.67" y="74.8" width="0.84" height="53.51"/><rect class="cls-20" x="57.51" y="74.8" width="0.84" height="53.51"/><rect class="cls-21" x="58.35" y="74.8" width="0.84" height="53.51"/><rect class="cls-22" x="59.19" y="74.8" width="0.84" height="53.51"/><rect class="cls-23" x="60.03" y="74.8" width="0.84" height="53.51"/><rect class="cls-24" x="60.87" y="74.8" width="0.84" height="53.51"/><rect class="cls-25" x="61.71" y="74.8" width="0.84" height="53.51"/><rect class="cls-26" x="62.54" y="74.8" width="0.84" height="53.51"/><rect class="cls-27" x="63.38" y="74.8" width="0.84" height="53.51"/><rect class="cls-28" x="64.22" y="74.8" width="0.84" height="53.51"/><rect class="cls-29" x="65.06" y="74.8" width="0.84" height="53.51"/><rect class="cls-30" x="65.9" y="74.8" width="0.84" height="53.51"/><rect class="cls-31" x="66.74" y="74.8" width="0.84" height="53.51"/><rect class="cls-32" x="67.58" y="74.8" width="0.84" height="53.51"/><rect class="cls-33" x="68.42" y="74.8" width="0.84" height="53.51"/><rect class="cls-34" x="69.26" y="74.8" width="0.84" height="53.51"/><rect class="cls-35" x="70.1" y="74.8" width="0.84" height="53.51"/><rect class="cls-36" x="70.94" y="74.8" width="0.84" height="53.51"/><rect class="cls-37" x="71.77" y="74.8" width="0.84" height="53.51"/><rect class="cls-38" x="72.61" y="74.8" width="0.84" height="53.51"/><rect class="cls-39" x="73.45" y="74.8" width="0.84" height="53.51"/><rect class="cls-40" x="74.29" y="74.8" width="0.84" height="53.51"/><rect class="cls-41" x="75.13" y="74.8" width="0.84" height="53.51"/><rect class="cls-42" x="75.97" y="74.8" width="0.84" height="53.51"/><rect class="cls-43" x="76.81" y="74.8" width="0.84" height="53.51"/><rect class="cls-44" x="77.65" y="74.8" width="0.84" height="53.51"/><rect class="cls-45" x="78.49" y="74.8" width="0.84" height="53.51"/><rect class="cls-46" x="79.33" y="74.8" width="0.84" height="53.51"/><rect class="cls-47" x="80.17" y="74.8" width="0.84" height="53.51"/><rect class="cls-48" x="81.01" y="74.8" width="0.84" height="53.51"/><rect class="cls-49" x="81.84" y="74.8" width="0.84" height="53.51"/><rect class="cls-50" x="82.68" y="74.8" width="0.84" height="53.51"/><rect class="cls-51" x="83.52" y="74.8" width="0.84" height="53.51"/><rect class="cls-52" x="84.36" y="74.8" width="0.84" height="53.51"/><rect class="cls-53" x="85.2" y="74.8" width="0.84" height="53.51"/><rect class="cls-54" x="86.04" y="74.8" width="0.84" height="53.51"/><rect class="cls-55" x="86.88" y="74.8" width="0.84" height="53.51"/><rect class="cls-56" x="87.72" y="74.8" width="0.84" height="53.51"/><rect class="cls-57" x="88.56" y="74.8" width="0.84" height="53.51"/><rect class="cls-58" x="89.4" y="74.8" width="0.84" height="53.51"/><rect class="cls-59" x="90.24" y="74.8" width="0.84" height="53.51"/><rect class="cls-60" x="91.07" y="74.8" width="0.84" height="53.51"/><rect class="cls-61" x="91.91" y="74.8" width="0.84" height="53.51"/><rect class="cls-62" x="92.75" y="74.8" width="0.84" height="53.51"/><rect class="cls-63" x="93.59" y="74.8" width="0.84" height="53.51"/><rect class="cls-64" x="94.43" y="74.8" width="0.84" height="53.51"/><rect class="cls-65" x="95.27" y="74.8" width="0.84" height="53.51"/><rect class="cls-66" x="96.11" y="74.8" width="0.84" height="53.51"/><rect class="cls-67" x="96.95" y="74.8" width="0.84" height="53.51"/><rect class="cls-68" x="97.79" y="74.8" width="0.84" height="53.51"/><rect class="cls-69" x="98.63" y="74.8" width="0.84" height="53.51"/><rect class="cls-70" x="99.47" y="74.8" width="0.84" height="53.51"/><rect class="cls-71" x="100.31" y="74.8" width="0.84" height="53.51"/><rect class="cls-72" x="101.14" y="74.8" width="0.84" height="53.51"/><rect class="cls-73" x="101.98" y="74.8" width="0.84" height="53.51"/><rect class="cls-74" x="102.82" y="74.8" width="0.84" height="53.51"/><rect class="cls-75" x="103.66" y="74.8" width="0.84" height="53.51"/><rect class="cls-76" x="104.5" y="74.8" width="0.84" height="53.51"/><rect class="cls-77" x="105.34" y="74.8" width="0.84" height="53.51"/><rect class="cls-78" x="106.18" y="74.8" width="0.84" height="53.51"/><rect class="cls-79" x="107.02" y="74.8" width="0.84" height="53.51"/><rect class="cls-80" x="107.86" y="74.8" width="0.84" height="53.51"/><rect class="cls-81" x="108.7" y="74.8" width="0.84" height="53.51"/><rect class="cls-82" x="109.54" y="74.8" width="0.84" height="53.51"/><rect class="cls-82" x="110.38" y="74.8" width="0.84" height="53.51"/><rect class="cls-83" x="111.21" y="74.8" width="0.84" height="53.51"/><rect class="cls-84" x="112.05" y="74.8" width="0.84" height="53.51"/><rect class="cls-85" x="112.89" y="74.8" width="0.84" height="53.51"/><rect class="cls-86" x="113.73" y="74.8" width="0.84" height="53.51"/><rect class="cls-87" x="114.57" y="74.8" width="0.84" height="53.51"/><rect class="cls-88" x="115.41" y="74.8" width="0.84" height="53.51"/><rect class="cls-88" x="116.25" y="74.8" width="0.84" height="53.51"/><rect class="cls-89" x="117.09" y="74.8" width="0.84" height="53.51"/><rect class="cls-90" x="117.93" y="74.8" width="0.84" height="53.51"/><rect class="cls-91" x="118.77" y="74.8" width="0.84" height="53.51"/><rect class="cls-92" x="119.61" y="74.8" width="0.84" height="53.51"/><rect class="cls-92" x="120.44" y="74.8" width="0.84" height="53.51"/><rect class="cls-93" x="121.28" y="74.8" width="0.84" height="53.51"/><rect class="cls-94" x="122.12" y="74.8" width="0.84" height="53.51"/><rect class="cls-95" x="122.96" y="74.8" width="0.84" height="53.51"/><rect class="cls-95" x="123.8" y="74.8" width="0.84" height="53.51"/><rect class="cls-96" x="124.64" y="74.8" width="0.84" height="53.51"/><rect class="cls-97" x="125.48" y="74.8" width="0.84" height="53.51"/><rect class="cls-98" x="126.32" y="74.8" width="0.84" height="53.51"/><rect class="cls-99" x="127.16" y="74.8" width="0.84" height="53.51"/><rect class="cls-100" x="128" y="74.8" width="0.84" height="53.51"/><rect class="cls-100" x="128.84" y="74.8" width="0.84" height="53.51"/><rect class="cls-101" x="129.68" y="74.8" width="0.84" height="53.51"/><rect class="cls-101" x="130.51" y="74.8" width="0.84" height="53.51"/><rect class="cls-102" x="131.35" y="74.8" width="0.84" height="53.51"/><rect class="cls-103" x="132.19" y="74.8" width="0.84" height="53.51"/><rect class="cls-103" x="133.03" y="74.8" width="0.84" height="53.51"/><rect class="cls-104" x="133.87" y="74.8" width="0.84" height="53.51"/><rect class="cls-104" x="134.71" y="74.8" width="0.84" height="53.51"/><rect class="cls-105" x="135.55" y="74.8" width="0.84" height="53.51"/><rect class="cls-105" x="136.39" y="74.8" width="0.84" height="53.51"/><rect class="cls-106" x="137.23" y="74.8" width="0.84" height="53.51"/><rect class="cls-107" x="138.07" y="74.8" width="0.84" height="53.51"/><rect class="cls-107" x="138.91" y="74.8" width="0.84" height="53.51"/><rect class="cls-108" x="139.74" y="74.8" width="0.84" height="53.51"/><rect class="cls-108" x="140.58" y="74.8" width="0.84" height="53.51"/><rect class="cls-109" x="141.42" y="74.8" width="0.84" height="53.51"/><rect class="cls-109" x="142.26" y="74.8" width="0.84" height="53.51"/><rect class="cls-109" x="143.1" y="74.8" width="0.84" height="53.51"/><rect class="cls-110" x="143.94" y="74.8" width="0.84" height="53.51"/><rect class="cls-111" x="144.78" y="74.8" width="0.84" height="53.51"/><rect class="cls-111" x="145.62" y="74.8" width="0.84" height="53.51"/><rect class="cls-111" x="146.46" y="74.8" width="0.84" height="53.51"/><rect class="cls-112" x="147.3" y="74.8" width="0.84" height="53.51"/><rect class="cls-112" x="148.14" y="74.8" width="0.84" height="53.51"/><rect class="cls-112" x="148.98" y="74.8" width="0.84" height="53.51"/><rect class="cls-112" x="149.81" y="74.8" width="0.84" height="53.51"/><rect class="cls-112" x="150.65" y="74.8" width="0.84" height="53.51"/></g></g><rect class="cls-113" x="47.75" y="83.85" width="111.25" height="53.51"/><g class="cls-3"><g class="cls-115"><rect class="cls-5" x="51.96" y="88.87" width="4.68" height="53.51"/><rect class="cls-5" x="56.65" y="88.87" width="0.84" height="53.51"/><rect class="cls-6" x="57.48" y="88.87" width="0.84" height="53.51"/><rect class="cls-7" x="58.32" y="88.87" width="0.84" height="53.51"/><rect class="cls-8" x="59.16" y="88.87" width="0.84" height="53.51"/><rect class="cls-9" x="60" y="88.87" width="0.84" height="53.51"/><rect class="cls-10" x="60.84" y="88.87" width="0.84" height="53.51"/><rect class="cls-11" x="61.68" y="88.87" width="0.84" height="53.51"/><rect class="cls-12" x="62.52" y="88.87" width="0.84" height="53.51"/><rect class="cls-13" x="63.36" y="88.87" width="0.84" height="53.51"/><rect class="cls-14" x="64.2" y="88.87" width="0.84" height="53.51"/><rect class="cls-15" x="65.04" y="88.87" width="0.84" height="53.51"/><rect class="cls-16" x="65.88" y="88.87" width="0.84" height="53.51"/><rect class="cls-17" x="66.71" y="88.87" width="0.84" height="53.51"/><rect class="cls-18" x="67.55" y="88.87" width="0.84" height="53.51"/><rect class="cls-19" x="68.39" y="88.87" width="0.84" height="53.51"/><rect class="cls-20" x="69.23" y="88.87" width="0.84" height="53.51"/><rect class="cls-21" x="70.07" y="88.87" width="0.84" height="53.51"/><rect class="cls-22" x="70.91" y="88.87" width="0.84" height="53.51"/><rect class="cls-23" x="71.75" y="88.87" width="0.84" height="53.51"/><rect class="cls-24" x="72.59" y="88.87" width="0.84" height="53.51"/><rect class="cls-25" x="73.43" y="88.87" width="0.84" height="53.51"/><rect class="cls-26" x="74.27" y="88.87" width="0.84" height="53.51"/><rect class="cls-27" x="75.11" y="88.87" width="0.84" height="53.51"/><rect class="cls-28" x="75.95" y="88.87" width="0.84" height="53.51"/><rect class="cls-29" x="76.78" y="88.87" width="0.84" height="53.51"/><rect class="cls-30" x="77.62" y="88.87" width="0.84" height="53.51"/><rect class="cls-31" x="78.46" y="88.87" width="0.84" height="53.51"/><rect class="cls-32" x="79.3" y="88.87" width="0.84" height="53.51"/><rect class="cls-33" x="80.14" y="88.87" width="0.84" height="53.51"/><rect class="cls-34" x="80.98" y="88.87" width="0.84" height="53.51"/><rect class="cls-35" x="81.82" y="88.87" width="0.84" height="53.51"/><rect class="cls-36" x="82.66" y="88.87" width="0.84" height="53.51"/><rect class="cls-37" x="83.5" y="88.87" width="0.84" height="53.51"/><rect class="cls-38" x="84.34" y="88.87" width="0.84" height="53.51"/><rect class="cls-39" x="85.18" y="88.87" width="0.84" height="53.51"/><rect class="cls-40" x="86.01" y="88.87" width="0.84" height="53.51"/><rect class="cls-41" x="86.85" y="88.87" width="0.84" height="53.51"/><rect class="cls-42" x="87.69" y="88.87" width="0.84" height="53.51"/><rect class="cls-43" x="88.53" y="88.87" width="0.84" height="53.51"/><rect class="cls-44" x="89.37" y="88.87" width="0.84" height="53.51"/><rect class="cls-45" x="90.21" y="88.87" width="0.84" height="53.51"/><rect class="cls-46" x="91.05" y="88.87" width="0.84" height="53.51"/><rect class="cls-47" x="91.89" y="88.87" width="0.84" height="53.51"/><rect class="cls-48" x="92.73" y="88.87" width="0.84" height="53.51"/><rect class="cls-49" x="93.57" y="88.87" width="0.84" height="53.51"/><rect class="cls-50" x="94.41" y="88.87" width="0.84" height="53.51"/><rect class="cls-51" x="95.25" y="88.87" width="0.84" height="53.51"/><rect class="cls-52" x="96.08" y="88.87" width="0.84" height="53.51"/><rect class="cls-53" x="96.92" y="88.87" width="0.84" height="53.51"/><rect class="cls-54" x="97.76" y="88.87" width="0.84" height="53.51"/><rect class="cls-55" x="98.6" y="88.87" width="0.84" height="53.51"/><rect class="cls-56" x="99.44" y="88.87" width="0.84" height="53.51"/><rect class="cls-57" x="100.28" y="88.87" width="0.84" height="53.51"/><rect class="cls-58" x="101.12" y="88.87" width="0.84" height="53.51"/><rect class="cls-59" x="101.96" y="88.87" width="0.84" height="53.51"/><rect class="cls-60" x="102.8" y="88.87" width="0.84" height="53.51"/><rect class="cls-61" x="103.64" y="88.87" width="0.84" height="53.51"/><rect class="cls-62" x="104.48" y="88.87" width="0.84" height="53.51"/><rect class="cls-63" x="105.32" y="88.87" width="0.84" height="53.51"/><rect class="cls-64" x="106.15" y="88.87" width="0.84" height="53.51"/><rect class="cls-65" x="106.99" y="88.87" width="0.84" height="53.51"/><rect class="cls-66" x="107.83" y="88.87" width="0.84" height="53.51"/><rect class="cls-67" x="108.67" y="88.87" width="0.84" height="53.51"/><rect class="cls-68" x="109.51" y="88.87" width="0.84" height="53.51"/><rect class="cls-69" x="110.35" y="88.87" width="0.84" height="53.51"/><rect class="cls-70" x="111.19" y="88.87" width="0.84" height="53.51"/><rect class="cls-71" x="112.03" y="88.87" width="0.84" height="53.51"/><rect class="cls-72" x="112.87" y="88.87" width="0.84" height="53.51"/><rect class="cls-73" x="113.71" y="88.87" width="0.84" height="53.51"/><rect class="cls-74" x="114.55" y="88.87" width="0.84" height="53.51"/><rect class="cls-75" x="115.38" y="88.87" width="0.84" height="53.51"/><rect class="cls-76" x="116.22" y="88.87" width="0.84" height="53.51"/><rect class="cls-77" x="117.06" y="88.87" width="0.84" height="53.51"/><rect class="cls-78" x="117.9" y="88.87" width="0.84" height="53.51"/><rect class="cls-79" x="118.74" y="88.87" width="0.84" height="53.51"/><rect class="cls-80" x="119.58" y="88.87" width="0.84" height="53.51"/><rect class="cls-81" x="120.42" y="88.87" width="0.84" height="53.51"/><rect class="cls-82" x="121.26" y="88.87" width="0.84" height="53.51"/><rect class="cls-82" x="122.1" y="88.87" width="0.84" height="53.51"/><rect class="cls-83" x="122.94" y="88.87" width="0.84" height="53.51"/><rect class="cls-84" x="123.78" y="88.87" width="0.84" height="53.51"/><rect class="cls-85" x="124.62" y="88.87" width="0.84" height="53.51"/><rect class="cls-86" x="125.45" y="88.87" width="0.84" height="53.51"/><rect class="cls-87" x="126.29" y="88.87" width="0.84" height="53.51"/><rect class="cls-88" x="127.13" y="88.87" width="0.84" height="53.51"/><rect class="cls-88" x="127.97" y="88.87" width="0.84" height="53.51"/><rect class="cls-89" x="128.81" y="88.87" width="0.84" height="53.51"/><rect class="cls-90" x="129.65" y="88.87" width="0.84" height="53.51"/><rect class="cls-91" x="130.49" y="88.87" width="0.84" height="53.51"/><rect class="cls-92" x="131.33" y="88.87" width="0.84" height="53.51"/><rect class="cls-92" x="132.17" y="88.87" width="0.84" height="53.51"/><rect class="cls-93" x="133.01" y="88.87" width="0.84" height="53.51"/><rect class="cls-94" x="133.85" y="88.87" width="0.84" height="53.51"/><rect class="cls-95" x="134.68" y="88.87" width="0.84" height="53.51"/><rect class="cls-95" x="135.52" y="88.87" width="0.84" height="53.51"/><rect class="cls-96" x="136.36" y="88.87" width="0.84" height="53.51"/><rect class="cls-97" x="137.2" y="88.87" width="0.84" height="53.51"/><rect class="cls-98" x="138.04" y="88.87" width="0.84" height="53.51"/><rect class="cls-99" x="138.88" y="88.87" width="0.84" height="53.51"/><rect class="cls-100" x="139.72" y="88.87" width="0.84" height="53.51"/><rect class="cls-100" x="140.56" y="88.87" width="0.84" height="53.51"/><rect class="cls-101" x="141.4" y="88.87" width="0.84" height="53.51"/><rect class="cls-101" x="142.24" y="88.87" width="0.84" height="53.51"/><rect class="cls-102" x="143.08" y="88.87" width="0.84" height="53.51"/><rect class="cls-103" x="143.92" y="88.87" width="0.84" height="53.51"/><rect class="cls-103" x="144.75" y="88.87" width="0.84" height="53.51"/><rect class="cls-104" x="145.59" y="88.87" width="0.84" height="53.51"/><rect class="cls-104" x="146.43" y="88.87" width="0.84" height="53.51"/><rect class="cls-105" x="147.27" y="88.87" width="0.84" height="53.51"/><rect class="cls-105" x="148.11" y="88.87" width="0.84" height="53.51"/><rect class="cls-106" x="148.95" y="88.87" width="0.84" height="53.51"/><rect class="cls-107" x="149.79" y="88.87" width="0.84" height="53.51"/><rect class="cls-107" x="150.63" y="88.87" width="0.84" height="53.51"/><rect class="cls-108" x="151.47" y="88.87" width="0.84" height="53.51"/><rect class="cls-108" x="152.31" y="88.87" width="0.84" height="53.51"/><rect class="cls-109" x="153.15" y="88.87" width="0.84" height="53.51"/><rect class="cls-109" x="153.99" y="88.87" width="0.84" height="53.51"/><rect class="cls-109" x="154.82" y="88.87" width="0.84" height="53.51"/><rect class="cls-110" x="155.66" y="88.87" width="0.84" height="53.51"/><rect class="cls-111" x="156.5" y="88.87" width="0.84" height="53.51"/><rect class="cls-111" x="157.34" y="88.87" width="0.84" height="53.51"/><rect class="cls-111" x="158.18" y="88.87" width="0.84" height="53.51"/><rect class="cls-112" x="159.02" y="88.87" width="0.84" height="53.51"/><rect class="cls-112" x="159.86" y="88.87" width="0.84" height="53.51"/><rect class="cls-112" x="160.7" y="88.87" width="0.84" height="53.51"/><rect class="cls-112" x="161.54" y="88.87" width="0.84" height="53.51"/><rect class="cls-112" x="162.38" y="88.87" width="0.84" height="53.51"/></g></g><g class="cls-3"><path class="cls-116" d="M153.28,96.27h-.08a2.16,2.16,0,0,1-1.75-1l-4.91-8A2.14,2.14,0,0,1,150.19,85l3.23,5.3L163.3,76.5A2.14,2.14,0,0,1,166.77,79L155,95.38A2.13,2.13,0,0,1,153.28,96.27Z"/><path class="cls-116" d="M155.93,108A22.07,22.07,0,1,1,178,85.94,22.09,22.09,0,0,1,155.93,108Zm0-39.87a17.8,17.8,0,1,0,17.8,17.8A17.83,17.83,0,0,0,155.93,68.14Z"/></g><g class="cls-3"><path class="cls-116" d="M107.6,125.1h0a9.87,9.87,0,0,1-7.39-3.57l2.13-1.69a7.1,7.1,0,0,0,5.27,2.54h0a4.11,4.11,0,0,0,3.29-1.46,2.35,2.35,0,0,0,.51-1.91c-.35-1.46-2.18-2-4.72-2.48a16.18,16.18,0,0,1-2.72-.73,4.43,4.43,0,0,1-2.8-3.28c-.5-3.23,2.53-5.69,4.91-6.21s5.22.51,7.6,2.91l-1.93,1.91c-.81-.81-2.92-2.65-5.08-2.17-1.3.29-3,1.66-2.81,3.15a1.84,1.84,0,0,0,1.16,1.18,15.65,15.65,0,0,0,2.23.58c2.54.53,6,1.26,6.8,4.5a5.08,5.08,0,0,1-1,4.26A6.8,6.8,0,0,1,107.6,125.1Z"/><rect class="cls-116" x="105.66" y="103.98" width="2.72" height="2.65"/><rect class="cls-116" x="105.66" y="124.64" width="2.72" height="2.63"/></g></g></g></svg>