<svg xmlns="http://www.w3.org/2000/svg" xmlns:xlink="http://www.w3.org/1999/xlink" viewBox="0 0 84.38 68.14"><defs><style>.cls-1{fill:none;}.cls-2{clip-path:url(#clip-path);}.cls-3{fill:#e44626;}.cls-4{fill:#e44727;}.cls-5{fill:#e44828;}.cls-6{fill:#e44929;}.cls-7{fill:#e54a2a;}.cls-8{fill:#e54b2c;}.cls-9{fill:#e54c2d;}.cls-10{fill:#e54d2e;}.cls-11{fill:#e54e2f;}.cls-12{fill:#e54f30;}.cls-13{fill:#e55031;}.cls-14{fill:#e65032;}.cls-15{fill:#e65133;}.cls-16{fill:#e65234;}.cls-17{fill:#e65335;}.cls-18{fill:#e65437;}.cls-19{fill:#e65538;}.cls-20{fill:#e65639;}.cls-21{fill:#e7573a;}.cls-22{fill:#e7583b;}.cls-23{fill:#e7593c;}.cls-24{fill:#e75a3d;}.cls-25{fill:#e75b3e;}.cls-26{fill:#e75c3f;}.cls-27{fill:#e75d40;}.cls-28{fill:#e75e41;}.cls-29{fill:#e85e42;}.cls-30{fill:#e85f44;}.cls-31{fill:#e86045;}.cls-32{fill:#e86146;}.cls-33{fill:#e86247;}.cls-34{fill:#e86348;}.cls-35{fill:#e86449;}.cls-36{fill:#e9654a;}.cls-37{fill:#e9664b;}.cls-38{fill:#e9674c;}.cls-39{fill:#e9684d;}.cls-40{fill:#e9684e;}.cls-41{fill:#e9694f;}.cls-42{fill:#e96a50;}.cls-43{fill:#e96b51;}.cls-44{fill:#ea6c52;}.cls-45{fill:#ea6d53;}.cls-46{fill:#ea6e54;}.cls-47{fill:#ea6f55;}.cls-48{fill:#ea6f56;}.cls-49{fill:#ea7057;}.cls-50{fill:#ea7158;}.cls-51{fill:#ea7259;}.cls-52{fill:#eb735a;}.cls-53{fill:#eb745b;}.cls-54{fill:#eb755c;}.cls-55{fill:#eb755d;}.cls-56{fill:#eb765e;}.cls-57{fill:#eb775f;}.cls-58{fill:#eb7860;}.cls-59{fill:#eb7961;}.cls-60{fill:#ec7962;}.cls-61{fill:#ec7a63;}.cls-62{fill:#ec7b64;}.cls-63{fill:#ec7c65;}.cls-64{fill:#ec7d66;}.cls-65{fill:#ec7d67;}.cls-66{fill:#ec7e67;}.cls-67{fill:#ec7f68;}.cls-68{fill:#ed8069;}.cls-69{fill:#ed806a;}.cls-70{fill:#ed816b;}.cls-71{fill:#ed826c;}.cls-72{fill:#ed836d;}.cls-73{opacity:0.8;}.cls-74{fill:#25aed4;}.cls-75{fill:#fff;}.cls-76{fill:#3c354a;}</style><clipPath id="clip-path" transform="translate(0 3.27)"><path class="cls-1" d="M83.27,24.57c-2.49,14.77-34.11,40.3-34.11,40.3s-32.51-27.21-34.1-40.3c-1-8.07-.12-16.48,9.35-22.15S43,2.86,43,2.86l6.2,6.2,6.2-6.2s9.14-5.68,18.6,0S84.38,17.93,83.27,24.57Z"/></clipPath></defs><g id="Layer_2" data-name="Layer 2"><g id="Layer_1-2" data-name="Layer 1"><g class="cls-2"><rect class="cls-3" x="14.08" width="70.31" height="68.14"/><ellipse class="cls-3" cx="49.19" cy="35.7" rx="25.49" ry="26.08"/><ellipse class="cls-4" cx="49.19" cy="35.7" rx="25.2" ry="25.78"/><ellipse class="cls-5" cx="49.19" cy="35.7" rx="24.92" ry="25.49"/><ellipse class="cls-6" cx="49.19" cy="35.7" rx="24.63" ry="25.2"/><ellipse class="cls-7" cx="49.19" cy="35.7" rx="24.35" ry="24.9"/><ellipse class="cls-8" cx="49.19" cy="35.7" rx="24.06" ry="24.61"/><ellipse class="cls-9" cx="49.19" cy="35.7" rx="23.77" ry="24.32"/><ellipse class="cls-10" cx="49.19" cy="35.7" rx="23.49" ry="24.02"/><ellipse class="cls-11" cx="49.19" cy="35.7" rx="23.2" ry="23.73"/><ellipse class="cls-12" cx="49.19" cy="35.7" rx="22.91" ry="23.44"/><ellipse class="cls-13" cx="49.19" cy="35.7" rx="22.63" ry="23.14"/><ellipse class="cls-14" cx="49.19" cy="35.7" rx="22.34" ry="22.85"/><ellipse class="cls-15" cx="49.19" cy="35.7" rx="22.05" ry="22.56"/><ellipse class="cls-16" cx="49.19" cy="35.7" rx="21.77" ry="22.26"/><ellipse class="cls-17" cx="49.19" cy="35.7" rx="21.48" ry="21.97"/><ellipse class="cls-18" cx="49.19" cy="35.7" rx="21.19" ry="21.68"/><ellipse class="cls-19" cx="49.19" cy="35.7" rx="20.91" ry="21.39"/><ellipse class="cls-20" cx="49.19" cy="35.7" rx="20.62" ry="21.09"/><ellipse class="cls-21" cx="49.19" cy="35.7" rx="20.33" ry="20.8"/><ellipse class="cls-22" cx="49.19" cy="35.7" rx="20.05" ry="20.51"/><ellipse class="cls-23" cx="49.19" cy="35.7" rx="19.76" ry="20.21"/><ellipse class="cls-24" cx="49.19" cy="35.7" rx="19.47" ry="19.92"/><ellipse class="cls-25" cx="49.19" cy="35.7" rx="19.19" ry="19.63"/><ellipse class="cls-26" cx="49.19" cy="35.7" rx="18.9" ry="19.33"/><ellipse class="cls-27" cx="49.19" cy="35.7" rx="18.61" ry="19.04"/><ellipse class="cls-28" cx="49.19" cy="35.7" rx="18.33" ry="18.75"/><ellipse class="cls-29" cx="49.19" cy="35.7" rx="18.04" ry="18.45"/><ellipse class="cls-30" cx="49.19" cy="35.7" rx="17.75" ry="18.16"/><ellipse class="cls-31" cx="49.19" cy="35.7" rx="17.47" ry="17.87"/><ellipse class="cls-32" cx="49.19" cy="35.7" rx="17.18" ry="17.57"/><ellipse class="cls-33" cx="49.19" cy="35.7" rx="16.89" ry="17.28"/><ellipse class="cls-34" cx="49.19" cy="35.7" rx="16.61" ry="16.99"/><ellipse class="cls-35" cx="49.19" cy="35.7" rx="16.32" ry="16.69"/><ellipse class="cls-36" cx="49.19" cy="35.7" rx="16.03" ry="16.4"/><ellipse class="cls-37" cx="49.19" cy="35.7" rx="15.75" ry="16.11"/><ellipse class="cls-38" cx="49.19" cy="35.7" rx="15.46" ry="15.81"/><ellipse class="cls-39" cx="49.19" cy="35.7" rx="15.17" ry="15.52"/><ellipse class="cls-40" cx="49.19" cy="35.7" rx="14.89" ry="15.23"/><ellipse class="cls-41" cx="49.19" cy="35.7" rx="14.6" ry="14.93"/><ellipse class="cls-42" cx="49.19" cy="35.7" rx="14.31" ry="14.64"/><ellipse class="cls-43" cx="49.19" cy="35.7" rx="14.03" ry="14.35"/><ellipse class="cls-44" cx="49.19" cy="35.7" rx="13.74" ry="14.06"/><ellipse class="cls-45" cx="49.19" cy="35.7" rx="13.45" ry="13.76"/><ellipse class="cls-46" cx="49.19" cy="35.7" rx="13.17" ry="13.47"/><ellipse class="cls-47" cx="49.19" cy="35.7" rx="12.88" ry="13.18"/><ellipse class="cls-48" cx="49.19" cy="35.7" rx="12.59" ry="12.88"/><ellipse class="cls-49" cx="49.19" cy="35.7" rx="12.31" ry="12.59"/><ellipse class="cls-50" cx="49.19" cy="35.7" rx="12.02" ry="12.3"/><ellipse class="cls-51" cx="49.19" cy="35.7" rx="11.73" ry="12"/><ellipse class="cls-52" cx="49.19" cy="35.7" rx="11.45" ry="11.71"/><ellipse class="cls-53" cx="49.19" cy="35.7" rx="11.16" ry="11.42"/><ellipse class="cls-54" cx="49.19" cy="35.7" rx="10.87" ry="11.12"/><ellipse class="cls-55" cx="49.19" cy="35.7" rx="10.59" ry="10.83"/><ellipse class="cls-56" cx="49.19" cy="35.7" rx="10.3" ry="10.54"/><ellipse class="cls-57" cx="49.19" cy="35.7" rx="10.01" ry="10.24"/><ellipse class="cls-58" cx="49.19" cy="35.7" rx="9.73" ry="9.95"/><ellipse class="cls-59" cx="49.19" cy="35.7" rx="9.44" ry="9.66"/><ellipse class="cls-60" cx="49.19" cy="35.7" rx="9.15" ry="9.36"/><ellipse class="cls-61" cx="49.19" cy="35.7" rx="8.87" ry="9.07"/><ellipse class="cls-62" cx="49.19" cy="35.7" rx="8.58" ry="8.78"/><ellipse class="cls-63" cx="49.19" cy="35.7" rx="8.29" ry="8.48"/><ellipse class="cls-64" cx="49.19" cy="35.7" rx="8.01" ry="8.19"/><ellipse class="cls-65" cx="49.19" cy="35.7" rx="7.72" ry="7.9"/><ellipse class="cls-66" cx="49.19" cy="35.7" rx="7.43" ry="7.6"/><ellipse class="cls-67" cx="49.19" cy="35.7" rx="7.15" ry="7.31"/><ellipse class="cls-68" cx="49.19" cy="35.7" rx="6.86" ry="7.02"/><ellipse class="cls-69" cx="49.19" cy="35.7" rx="6.57" ry="6.73"/><ellipse class="cls-70" cx="49.19" cy="35.7" rx="6.29" ry="6.43"/><ellipse class="cls-71" cx="49.19" cy="35.7" rx="6" ry="6.14"/><ellipse class="cls-71" cx="49.19" cy="35.7" rx="5.71" ry="5.85"/><ellipse class="cls-72" cx="49.19" cy="35.7" rx="5.43" ry="5.55"/></g><g class="cls-73"><polygon class="cls-74" points="45.15 47.6 29.56 24.39 24.63 32.56 0 32.56 0 27.41 21.72 27.41 29.33 14.82 45.3 38.6 54.02 26.57 72.94 26.57 72.94 31.72 56.64 31.72 45.15 47.6"/></g><path class="cls-75" d="M29.9,22.12,45.42,45.33,56.85,29.45l16.37-.16V24.15l-19,.17-8.68,12L29.67,12.57,22.11,25.16H15.43c0,.14,0,.28.05.42a15.86,15.86,0,0,0,1.57,4.71H25Z" transform="translate(0 3.27)"/><path class="cls-76" d="M29.56,21.12,45.15,44.33,56.64,28.45h16.3V23.31H54l-8.72,12-16-23.79-7.6,12.59H15c0,.14,0,.28.05.42a15.68,15.68,0,0,0,1.58,4.72h8Z" transform="translate(0 3.27)"/><path class="cls-76" d="M45.15,44.35v0L29.56,21.14,24.63,29.3h-8a15.28,15.28,0,0,1-1.58-4.72l0-.23c0-.06,0-.12,0-.19h6.71l7.61-12.6v0l16,23.77L54,23.3H73v5.16H56.64ZM29.56,21.1h0l15.58,23.2L56.63,28.44h16.3V23.32H54l-8.72,12h0l-16-23.78L21.74,24.16H15a1.1,1.1,0,0,1,0,.18l0,.23a15.53,15.53,0,0,0,1.57,4.71h8Z" transform="translate(0 3.27)"/></g></g></svg>