<svg xmlns="http://www.w3.org/2000/svg" xmlns:xlink="http://www.w3.org/1999/xlink" viewBox="0 0 200 200"><defs><style>.cls-1{fill:none;}.cls-2{isolation:isolate;}.cls-3{clip-path:url(#clip-path);}.cls-4{fill:#e44626;}.cls-5{fill:#e44727;}.cls-6{fill:#e44828;}.cls-7{fill:#e44829;}.cls-8{fill:#e4492a;}.cls-9{fill:#e54a2a;}.cls-10{fill:#e54a2b;}.cls-11{fill:#e54b2c;}.cls-12{fill:#e54c2d;}.cls-13{fill:#e54c2e;}.cls-14{fill:#e54d2e;}.cls-15{fill:#e54e2f;}.cls-16{fill:#e54f30;}.cls-17{fill:#e54f31;}.cls-18{fill:#e65032;}.cls-19{fill:#e65133;}.cls-20{fill:#e65234;}.cls-21{fill:#e65335;}.cls-22{fill:#e65436;}.cls-23{fill:#e65437;}.cls-24{fill:#e65538;}.cls-25{fill:#e75639;}.cls-26{fill:#e7573a;}.cls-27{fill:#e7583b;}.cls-28{fill:#e7593c;}.cls-29{fill:#e75a3d;}.cls-30{fill:#e75b3e;}.cls-31{fill:#e75c3f;}.cls-32{fill:#e85d41;}.cls-33{fill:#e85e42;}.cls-34{fill:#e85e43;}.cls-35{fill:#e85f44;}.cls-36{fill:#e86045;}.cls-37{fill:#e86146;}.cls-38{fill:#e86247;}.cls-39{fill:#e96349;}.cls-40{fill:#e9644a;}.cls-41{fill:#e9654b;}.cls-42{fill:#e9664c;}.cls-43{fill:#e9674d;}.cls-44{fill:#e9684f;}.cls-45{fill:#ea6950;}.cls-46{fill:#ea6a51;}.cls-47{fill:#ea6c52;}.cls-48{fill:#ea6d53;}.cls-49{fill:#ea6e55;}.cls-50{fill:#ea6f56;}.cls-51{fill:#ea7057;}.cls-52{fill:#eb7158;}.cls-53{fill:#eb725a;}.cls-54{fill:#eb735b;}.cls-55{fill:#fff;}.cls-56{mix-blend-mode:multiply;}.cls-57{fill:#25aed4;}</style><clipPath id="clip-path"><path class="cls-1" d="M162.34,87c-4.41,26.22-60.51,71.51-60.51,71.51S44.14,110.27,41.32,87c-1.74-14.32-.21-29.24,16.59-39.3s32.92.79,32.92.79l11,11,11-11s16.21-10.09,33,0S164.32,75.26,162.34,87Z"/></clipPath></defs><g class="cls-2"><g id="레이어_1" data-name="레이어 1"><g class="cls-3"><rect class="cls-4" x="39.58" y="37.65" width="124.75" height="120.9"/><ellipse class="cls-4" cx="142.8" cy="65.48" rx="32.07" ry="33.48" transform="translate(-4.97 12.15) rotate(-4.79)"/><ellipse class="cls-4" cx="142.85" cy="65.41" rx="31.46" ry="32.85" transform="translate(-4.96 12.15) rotate(-4.79)"/><ellipse class="cls-5" cx="142.9" cy="65.33" rx="30.86" ry="32.21" transform="translate(-4.96 12.16) rotate(-4.79)"/><ellipse class="cls-5" cx="142.95" cy="65.26" rx="30.25" ry="31.58" transform="translate(-4.95 12.16) rotate(-4.79)"/><ellipse class="cls-6" cx="143" cy="65.19" rx="29.65" ry="30.95" transform="translate(-4.94 12.17) rotate(-4.79)"/><ellipse class="cls-7" cx="143.04" cy="65.11" rx="29.04" ry="30.32" transform="translate(-4.94 12.17) rotate(-4.79)"/><ellipse class="cls-8" cx="143.09" cy="65.04" rx="28.44" ry="29.69" transform="translate(-4.93 12.17) rotate(-4.79)"/><ellipse class="cls-9" cx="143.14" cy="64.96" rx="27.83" ry="29.06" transform="translate(-4.92 12.18) rotate(-4.79)"/><ellipse class="cls-10" cx="143.19" cy="64.89" rx="27.23" ry="28.42" transform="translate(-4.92 12.18) rotate(-4.79)"/><ellipse class="cls-11" cx="143.24" cy="64.81" rx="26.62" ry="27.79" transform="matrix(1, -0.08, 0.08, 1, -4.91, 12.18)"/><ellipse class="cls-12" cx="143.28" cy="64.74" rx="26.02" ry="27.16" transform="translate(-4.9 12.19) rotate(-4.79)"/><ellipse class="cls-13" cx="143.33" cy="64.66" rx="25.41" ry="26.53" transform="translate(-4.9 12.19) rotate(-4.79)"/><ellipse class="cls-14" cx="143.38" cy="64.59" rx="24.81" ry="25.9" transform="translate(-4.89 12.2) rotate(-4.79)"/><ellipse class="cls-15" cx="143.43" cy="64.51" rx="24.2" ry="25.27" transform="translate(-4.89 12.2) rotate(-4.79)"/><ellipse class="cls-16" cx="143.48" cy="64.44" rx="23.6" ry="24.63" transform="translate(-4.88 12.2) rotate(-4.79)"/><ellipse class="cls-17" cx="143.52" cy="64.36" rx="22.99" ry="24" transform="translate(-4.87 12.21) rotate(-4.79)"/><ellipse class="cls-18" cx="143.57" cy="64.29" rx="22.39" ry="23.37" transform="translate(-4.87 12.21) rotate(-4.79)"/><ellipse class="cls-19" cx="143.62" cy="64.21" rx="21.78" ry="22.74" transform="translate(-4.86 12.21) rotate(-4.79)"/><ellipse class="cls-20" cx="143.67" cy="64.14" rx="21.18" ry="22.11" transform="translate(-4.85 12.22) rotate(-4.79)"/><ellipse class="cls-21" cx="143.72" cy="64.06" rx="20.57" ry="21.48" transform="translate(-4.85 12.22) rotate(-4.79)"/><ellipse class="cls-22" cx="143.76" cy="63.99" rx="19.97" ry="20.84" transform="translate(-4.84 12.23) rotate(-4.79)"/><ellipse class="cls-23" cx="143.81" cy="63.92" rx="19.36" ry="20.21" transform="translate(-4.83 12.23) rotate(-4.79)"/><ellipse class="cls-24" cx="143.86" cy="63.84" rx="18.76" ry="19.58" transform="translate(-4.83 12.23) rotate(-4.79)"/><ellipse class="cls-25" cx="143.91" cy="63.77" rx="18.15" ry="18.95" transform="translate(-4.82 12.24) rotate(-4.79)"/><ellipse class="cls-26" cx="143.96" cy="63.69" rx="17.55" ry="18.32" transform="translate(-4.81 12.24) rotate(-4.79)"/><ellipse class="cls-27" cx="144" cy="63.62" rx="16.94" ry="17.69" transform="translate(-4.81 12.24) rotate(-4.79)"/><ellipse class="cls-28" cx="144.05" cy="63.54" rx="16.34" ry="17.05" transform="translate(-4.8 12.25) rotate(-4.79)"/><ellipse class="cls-29" cx="144.1" cy="63.47" rx="15.73" ry="16.42" transform="translate(-4.8 12.25) rotate(-4.79)"/><ellipse class="cls-30" cx="144.15" cy="63.39" rx="15.13" ry="15.79" transform="translate(-4.79 12.26) rotate(-4.79)"/><ellipse class="cls-31" cx="144.2" cy="63.32" rx="14.52" ry="15.16" transform="translate(-4.78 12.26) rotate(-4.79)"/><ellipse class="cls-32" cx="144.24" cy="63.24" rx="13.92" ry="14.53" transform="translate(-4.78 12.26) rotate(-4.79)"/><ellipse class="cls-33" cx="144.29" cy="63.17" rx="13.31" ry="13.9" transform="translate(-4.77 12.27) rotate(-4.79)"/><ellipse class="cls-34" cx="144.34" cy="63.09" rx="12.71" ry="13.26" transform="translate(-4.76 12.27) rotate(-4.79)"/><ellipse class="cls-35" cx="144.39" cy="63.02" rx="12.1" ry="12.63" transform="translate(-4.76 12.27) rotate(-4.79)"/><ellipse class="cls-36" cx="144.44" cy="62.94" rx="11.5" ry="12" transform="translate(-4.75 12.28) rotate(-4.79)"/><ellipse class="cls-37" cx="144.49" cy="62.87" rx="10.89" ry="11.37" transform="translate(-4.74 12.28) rotate(-4.79)"/><ellipse class="cls-38" cx="144.53" cy="62.79" rx="10.29" ry="10.74" transform="translate(-4.74 12.29) rotate(-4.79)"/><ellipse class="cls-39" cx="144.58" cy="62.72" rx="9.68" ry="10.11" transform="translate(-4.73 12.29) rotate(-4.79)"/><ellipse class="cls-40" cx="144.63" cy="62.65" rx="9.08" ry="9.47" transform="translate(-4.73 12.29) rotate(-4.79)"/><ellipse class="cls-41" cx="144.68" cy="62.57" rx="8.47" ry="8.84" transform="translate(-4.72 12.3) rotate(-4.79)"/><ellipse class="cls-42" cx="144.73" cy="62.5" rx="7.87" ry="8.21" transform="translate(-4.71 12.3) rotate(-4.79)"/><ellipse class="cls-43" cx="144.77" cy="62.42" rx="7.26" ry="7.58" transform="translate(-4.71 12.3) rotate(-4.79)"/><ellipse class="cls-44" cx="144.82" cy="62.35" rx="6.66" ry="6.95" transform="translate(-4.7 12.31) rotate(-4.79)"/><ellipse class="cls-45" cx="144.87" cy="62.27" rx="6.05" ry="6.32" transform="translate(-4.69 12.31) rotate(-4.79)"/><ellipse class="cls-46" cx="144.92" cy="62.2" rx="5.45" ry="5.68" transform="translate(-4.69 12.32) rotate(-4.79)"/><ellipse class="cls-47" cx="144.97" cy="62.12" rx="4.84" ry="5.05" transform="translate(-4.68 12.32) rotate(-4.79)"/><ellipse class="cls-48" cx="145.01" cy="62.05" rx="4.24" ry="4.42" transform="translate(-4.67 12.32) rotate(-4.79)"/><ellipse class="cls-49" cx="145.06" cy="61.97" rx="3.63" ry="3.79" transform="translate(-4.67 12.33) rotate(-4.79)"/><ellipse class="cls-50" cx="145.11" cy="61.9" rx="3.03" ry="3.16" transform="translate(-4.66 12.33) rotate(-4.79)"/><ellipse class="cls-51" cx="145.16" cy="61.82" rx="2.42" ry="2.53" transform="translate(-4.65 12.33) rotate(-4.79)"/><ellipse class="cls-52" cx="145.21" cy="61.75" rx="1.82" ry="1.89" transform="translate(-4.65 12.34) rotate(-4.79)"/><ellipse class="cls-53" cx="145.25" cy="61.67" rx="1.21" ry="1.26" transform="translate(-4.64 12.34) rotate(-4.79)"/><ellipse class="cls-54" cx="145.3" cy="61.6" rx="0.61" ry="0.63" transform="translate(-4.64 12.34) rotate(-4.79)"/></g><path class="cls-55" d="M64.85,82.76l27.72,41.47L113,95.86l29.24-.3V86.39l-33.9.29L92.84,108.19,64.43,65.69,50.92,88.18H39c0,.25,0,.5.08.75a28.25,28.25,0,0,0,2.81,8.43H56.07Z"/><g class="cls-56"><polygon class="cls-57" points="94.99 120.73 67.15 79.28 58.38 93.8 13 93.98 13 84.64 53.11 84.45 66.73 61.89 95.28 104.39 110.8 82.95 144.66 82.95 144.66 92.3 115.57 92.3 94.99 120.73"/></g></g></g></svg>