<svg xmlns="http://www.w3.org/2000/svg" xmlns:xlink="http://www.w3.org/1999/xlink" viewBox="0 0 200 200"><defs><style>.cls-1{fill:none;}.cls-2{isolation:isolate;}.cls-3{fill:#fff;}.cls-4{opacity:0.9;}.cls-5{clip-path:url(#clip-path);}.cls-6{fill:#a4dded;}.cls-7{fill:#a2dced;}.cls-8{fill:#9fdbec;}.cls-9{fill:#9ddbec;}.cls-10{fill:#9bdaeb;}.cls-11{fill:#99d9eb;}.cls-12{fill:#97d8ea;}.cls-13{fill:#95d7ea;}.cls-14{fill:#92d7ea;}.cls-15{fill:#90d6e9;}.cls-16{fill:#8ed5e9;}.cls-17{fill:#8cd4e8;}.cls-18{fill:#8ad3e8;}.cls-19{fill:#88d3e8;}.cls-20{fill:#86d2e7;}.cls-21{fill:#84d1e7;}.cls-22{fill:#82d1e6;}.cls-23{fill:#80d0e6;}.cls-24{fill:#7fcfe6;}.cls-25{fill:#7dcee5;}.cls-26{fill:#7bcee5;}.cls-27{fill:#79cde5;}.cls-28{fill:#77cce4;}.cls-29{fill:#75cce4;}.cls-30{fill:#74cbe3;}.cls-31{fill:#72cae3;}.cls-32{fill:#70cae3;}.cls-33{fill:#6fc9e2;}.cls-34{fill:#6dc9e2;}.cls-35{fill:#6bc8e2;}.cls-36{fill:#6ac7e2;}.cls-37{fill:#68c7e1;}.cls-38{fill:#66c6e1;}.cls-39{fill:#65c6e1;}.cls-40{fill:#63c5e0;}.cls-41{fill:#62c4e0;}.cls-42{fill:#60c4e0;}.cls-43{fill:#5fc3df;}.cls-44{fill:#5dc3df;}.cls-45{fill:#5cc2df;}.cls-46{fill:#5ac2df;}.cls-47{fill:#59c1de;}.cls-48{fill:#58c1de;}.cls-49{fill:#56c0de;}.cls-50{fill:#55c0dd;}.cls-51{fill:#54bfdd;}.cls-52{fill:#52bfdd;}.cls-53{fill:#51bedd;}.cls-54{fill:#50bedc;}.cls-55{fill:#4fbddc;}.cls-56{fill:#4dbddc;}.cls-57{fill:#4cbddc;}.cls-58{fill:#4bbcdb;}.cls-59{fill:#4abcdb;}.cls-60{fill:#49bbdb;}.cls-61{fill:#48bbdb;}.cls-62{fill:#47badb;}.cls-63{fill:#45bada;}.cls-64{fill:#44bada;}.cls-65{fill:#43b9da;}.cls-66{fill:#42b9da;}.cls-67{fill:#41b8da;}.cls-68{fill:#40b8d9;}.cls-69{fill:#3fb8d9;}.cls-70{fill:#3eb7d9;}.cls-71{fill:#3db7d9;}.cls-72{fill:#3cb6d8;}.cls-73{fill:#3bb6d8;}.cls-74{fill:#3ab6d8;}.cls-75{fill:#39b5d8;}.cls-76{fill:#38b5d8;}.cls-77{fill:#37b5d8;}.cls-78{fill:#36b4d7;}.cls-79{fill:#35b4d7;}.cls-80{fill:#34b4d7;}.cls-81{fill:#33b3d7;}.cls-82{fill:#25aed4;}.cls-83{mix-blend-mode:multiply;}.cls-84{fill:#e44626;}</style><clipPath id="clip-path"><path class="cls-1" d="M48.67,119.44s8.19-14.17,0-34.46l89.1-.63c15.8,0,18.69,8.82,18.69,8.82,5.52,25.3-12.91,26.15-12.91,26.15l-94.88.12"/></clipPath></defs><g class="cls-2"><g id="레이어_1" data-name="레이어 1"><path class="cls-3" d="M153.21,162.64s-8.37-14.18,0-34.46l-91.05-.64c-16.14,0-19.1,8.83-19.1,8.83-5.64,25.3,13.19,26.15,13.19,26.15l97,.12"/><g class="cls-4"><g class="cls-5"><polygon class="cls-6" points="60.69 84.34 48.67 86.2 48.67 84.34 60.69 84.34"/><polygon class="cls-6" points="64.85 84.34 48.67 86.84 48.67 86.2 60.69 84.34 64.85 84.34"/><polygon class="cls-7" points="69.01 84.34 48.67 87.48 48.67 86.84 64.85 84.34 69.01 84.34"/><polygon class="cls-8" points="73.17 84.34 48.67 88.13 48.67 87.48 69.01 84.34 73.17 84.34"/><polygon class="cls-9" points="77.33 84.34 48.67 88.77 48.67 88.13 73.17 84.34 77.33 84.34"/><polygon class="cls-10" points="81.48 84.34 48.67 89.41 48.67 88.77 77.33 84.34 81.48 84.34"/><polygon class="cls-11" points="85.64 84.34 48.67 90.05 48.67 89.41 81.48 84.34 85.64 84.34"/><polygon class="cls-12" points="89.8 84.34 48.67 90.69 48.67 90.05 85.64 84.34 89.8 84.34"/><polygon class="cls-13" points="93.96 84.34 48.67 91.33 48.67 90.69 89.8 84.34 93.96 84.34"/><polygon class="cls-14" points="98.12 84.34 48.67 91.97 48.67 91.33 93.96 84.34 98.12 84.34"/><polygon class="cls-15" points="102.28 84.34 48.67 92.62 48.67 91.97 98.12 84.34 102.28 84.34"/><polygon class="cls-16" points="106.44 84.34 48.67 93.26 48.67 92.62 102.28 84.34 106.44 84.34"/><polygon class="cls-17" points="110.59 84.34 48.67 93.9 48.67 93.26 106.44 84.34 110.59 84.34"/><polygon class="cls-18" points="114.75 84.34 48.67 94.54 48.67 93.9 110.59 84.34 114.75 84.34"/><polygon class="cls-19" points="118.91 84.34 48.67 95.18 48.67 94.54 114.75 84.34 118.91 84.34"/><polygon class="cls-20" points="123.07 84.34 48.67 95.82 48.67 95.18 118.91 84.34 123.07 84.34"/><polygon class="cls-21" points="127.23 84.34 48.67 96.47 48.67 95.82 123.07 84.34 127.23 84.34"/><polygon class="cls-22" points="131.39 84.34 48.67 97.11 48.67 96.47 127.23 84.34 131.39 84.34"/><polygon class="cls-23" points="135.54 84.34 48.67 97.75 48.67 97.11 131.39 84.34 135.54 84.34"/><polygon class="cls-24" points="139.7 84.34 48.67 98.39 48.67 97.75 135.54 84.34 139.7 84.34"/><polygon class="cls-25" points="143.86 84.34 48.67 99.03 48.67 98.39 139.7 84.34 143.86 84.34"/><polygon class="cls-26" points="148.02 84.34 48.67 99.67 48.67 99.03 143.86 84.34 148.02 84.34"/><polygon class="cls-27" points="152.18 84.34 48.67 100.31 48.67 99.67 148.02 84.34 152.18 84.34"/><polygon class="cls-28" points="156.34 84.34 48.67 100.96 48.67 100.31 152.18 84.34 156.34 84.34"/><polygon class="cls-29" points="159.9 84.34 159.92 84.44 48.67 101.6 48.67 100.96 156.34 84.34 159.9 84.34"/><polygon class="cls-30" points="159.92 84.44 160.01 85.06 48.67 102.24 48.67 101.6 159.92 84.44"/><polygon class="cls-31" points="160.01 85.06 160.11 85.69 48.67 102.88 48.67 102.24 160.01 85.06"/><polygon class="cls-32" points="160.11 85.69 160.21 86.31 48.67 103.52 48.67 102.88 160.11 85.69"/><polygon class="cls-33" points="160.21 86.31 160.3 86.94 48.67 104.16 48.67 103.52 160.21 86.31"/><polygon class="cls-34" points="160.3 86.94 160.4 87.57 48.67 104.81 48.67 104.16 160.3 86.94"/><polygon class="cls-35" points="160.4 87.57 160.5 88.19 48.67 105.45 48.67 104.81 160.4 87.57"/><polygon class="cls-36" points="160.5 88.19 160.59 88.82 48.67 106.09 48.67 105.45 160.5 88.19"/><polygon class="cls-37" points="160.59 88.82 160.69 89.45 48.67 106.73 48.67 106.09 160.59 88.82"/><polygon class="cls-38" points="160.69 89.45 160.79 90.08 48.67 107.37 48.67 106.73 160.69 89.45"/><polygon class="cls-39" points="160.79 90.08 160.88 90.7 48.67 108.01 48.67 107.37 160.79 90.08"/><polygon class="cls-40" points="160.88 90.7 160.98 91.33 48.67 108.66 48.67 108.01 160.88 90.7"/><polygon class="cls-41" points="160.98 91.33 161.08 91.95 48.67 109.3 48.67 108.66 160.98 91.33"/><polygon class="cls-42" points="161.08 91.95 161.17 92.58 48.67 109.94 48.67 109.3 161.08 91.95"/><polygon class="cls-43" points="161.17 92.58 161.27 93.21 48.67 110.58 48.67 109.94 161.17 92.58"/><polygon class="cls-44" points="161.27 93.21 161.37 93.83 48.67 111.22 48.67 110.58 161.27 93.21"/><polygon class="cls-45" points="161.37 93.83 161.46 94.46 48.67 111.86 48.67 111.22 161.37 93.83"/><polygon class="cls-46" points="161.46 94.46 161.56 95.09 48.67 112.5 48.67 111.86 161.46 94.46"/><polygon class="cls-47" points="161.56 95.09 161.66 95.72 48.67 113.15 48.67 112.5 161.56 95.09"/><polygon class="cls-48" points="161.66 95.72 161.75 96.34 48.67 113.79 48.67 113.15 161.66 95.72"/><polygon class="cls-49" points="161.75 96.34 161.85 96.97 48.67 114.43 48.67 113.79 161.75 96.34"/><polygon class="cls-50" points="161.85 96.97 161.95 97.59 48.67 115.07 48.67 114.43 161.85 96.97"/><polygon class="cls-51" points="161.95 97.59 161.98 97.81 161.98 98.23 48.67 115.71 48.67 115.07 161.95 97.59"/><polygon class="cls-52" points="161.98 98.87 48.67 116.35 48.67 115.71 161.98 98.23 161.98 98.87"/><polygon class="cls-53" points="161.98 99.51 48.67 117 48.67 116.35 161.98 98.87 161.98 99.51"/><polygon class="cls-54" points="161.98 100.16 48.67 117.64 48.67 117 161.98 99.51 161.98 100.16"/><polygon class="cls-55" points="161.98 100.8 48.67 118.28 48.67 117.64 161.98 100.16 161.98 100.8"/><polygon class="cls-56" points="161.98 101.44 48.67 118.92 48.67 118.28 161.98 100.8 161.98 101.44"/><polygon class="cls-57" points="161.98 102.08 49.45 119.44 48.67 119.44 48.67 118.92 161.98 101.44 161.98 102.08"/><polygon class="cls-58" points="161.98 102.72 53.61 119.44 49.45 119.44 161.98 102.08 161.98 102.72"/><polygon class="cls-59" points="161.98 103.36 57.77 119.44 53.61 119.44 161.98 102.72 161.98 103.36"/><polygon class="cls-60" points="161.98 104 61.93 119.44 57.77 119.44 161.98 103.36 161.98 104"/><polygon class="cls-61" points="161.98 104.65 66.09 119.44 61.93 119.44 161.98 104 161.98 104.65"/><polygon class="cls-62" points="161.98 105.29 70.25 119.44 66.09 119.44 161.98 104.65 161.98 105.29"/><polygon class="cls-63" points="161.98 105.93 74.4 119.44 70.25 119.44 161.98 105.29 161.98 105.93"/><polygon class="cls-64" points="161.98 106.57 78.56 119.44 74.4 119.44 161.98 105.93 161.98 106.57"/><polygon class="cls-65" points="161.98 107.21 82.72 119.44 78.56 119.44 161.98 106.57 161.98 107.21"/><polygon class="cls-66" points="161.98 107.86 86.88 119.44 82.72 119.44 161.98 107.21 161.98 107.86"/><polygon class="cls-67" points="161.98 108.5 91.04 119.44 86.88 119.44 161.98 107.86 161.98 108.5"/><polygon class="cls-68" points="161.98 109.14 95.2 119.44 91.04 119.44 161.98 108.5 161.98 109.14"/><polygon class="cls-69" points="161.98 109.78 99.36 119.44 95.2 119.44 161.98 109.14 161.98 109.78"/><polygon class="cls-70" points="161.98 110.42 103.51 119.44 99.36 119.44 161.98 109.78 161.98 110.42"/><polygon class="cls-70" points="161.98 111.06 107.67 119.44 103.51 119.44 161.98 110.42 161.98 111.06"/><polygon class="cls-71" points="161.98 111.7 111.83 119.44 107.67 119.44 161.98 111.06 161.98 111.7"/><polygon class="cls-72" points="161.98 112.35 115.99 119.44 111.83 119.44 161.98 111.7 161.98 112.35"/><polygon class="cls-73" points="161.98 112.99 120.15 119.44 115.99 119.44 161.98 112.35 161.98 112.99"/><polygon class="cls-74" points="161.98 113.63 124.31 119.44 120.15 119.44 161.98 112.99 161.98 113.63"/><polygon class="cls-75" points="161.98 114.27 128.47 119.44 124.31 119.44 161.98 113.63 161.98 114.27"/><polygon class="cls-76" points="161.98 114.91 132.62 119.44 128.47 119.44 161.98 114.27 161.98 114.91"/><polygon class="cls-76" points="161.98 115.55 136.78 119.44 132.62 119.44 161.98 114.91 161.98 115.55"/><polygon class="cls-77" points="161.98 116.19 140.94 119.44 136.78 119.44 161.98 115.55 161.98 116.19"/><polygon class="cls-78" points="161.98 116.84 145.1 119.44 140.94 119.44 161.98 116.19 161.98 116.84"/><polygon class="cls-79" points="161.98 117.48 149.26 119.44 145.1 119.44 161.98 116.84 161.98 117.48"/><polygon class="cls-79" points="161.98 118.12 153.42 119.44 149.26 119.44 161.98 117.48 161.98 118.12"/><polygon class="cls-80" points="161.98 118.76 157.57 119.44 153.42 119.44 161.98 118.12 161.98 118.76"/><polygon class="cls-81" points="161.98 119.4 161.73 119.44 157.57 119.44 161.98 118.76 161.98 119.4"/><polygon class="cls-81" points="161.73 119.44 161.98 119.4 161.98 119.44 161.73 119.44"/></g></g><path class="cls-82" d="M141.23,121.8H43.6a2.36,2.36,0,1,1,0-4.72h97.63c6.78,0,12.72-4,13.83-9.42a27.91,27.91,0,0,0,0-11.26c-1.14-5.61-7-9.69-13.9-9.69H43.6a2.37,2.37,0,1,1,0-4.73h97.54c9.16,0,17,5.67,18.53,13.49a32.49,32.49,0,0,1,0,13.14C158.12,116.26,150.35,121.8,141.23,121.8Z"/><path class="cls-82" d="M156.4,165H58.77c-9.12,0-16.88-5.55-18.46-13.19a32.54,32.54,0,0,1,0-13.15c1.58-7.81,9.37-13.48,18.53-13.48H156.4a2.36,2.36,0,1,1,0,4.72H58.86c-6.92,0-12.76,4.08-13.9,9.7a27.86,27.86,0,0,0,0,11.25c1.11,5.37,7.05,9.42,13.83,9.42H156.4a2.37,2.37,0,1,1,0,4.73Z"/><g class="cls-83"><path class="cls-84" d="M146.88,137.62H52.7a2.17,2.17,0,1,1,0-4.33h94.18a2.17,2.17,0,1,1,0,4.33Z"/></g><circle class="cls-3" cx="71.2" cy="54.57" r="17.2"/><path class="cls-84" d="M71.2,74.13A19.57,19.57,0,1,1,90.76,54.57,19.58,19.58,0,0,1,71.2,74.13Zm0-34.4A14.84,14.84,0,1,0,86,54.57,14.85,14.85,0,0,0,71.2,39.73Z"/><circle class="cls-3" cx="127.76" cy="54.57" r="17.2"/><path class="cls-84" d="M127.76,74.13a19.57,19.57,0,1,1,19.57-19.56A19.58,19.58,0,0,1,127.76,74.13Zm0-34.4A14.84,14.84,0,1,0,142.6,54.57,14.85,14.85,0,0,0,127.76,39.73Z"/><path class="cls-84" d="M110.22,52.63a2.37,2.37,0,0,1-1.45-.49c-10.08-7.79-19.07-.39-19.45-.07a2.36,2.36,0,0,1-3.07-3.59,20,20,0,0,1,25.41-.08,2.36,2.36,0,0,1-1.44,4.23Z"/><path class="cls-84" d="M53.43,53.93H46.57a2.37,2.37,0,0,1,0-4.73h6.86a2.37,2.37,0,1,1,0,4.73Z"/><path class="cls-84" d="M152.13,53.93h-6.82a2.37,2.37,0,0,1,0-4.73h6.82a2.37,2.37,0,0,1,0,4.73Z"/><path class="cls-3" d="M149.16,105.55H50.94a2.17,2.17,0,0,1,0-4.33h98.22a2.17,2.17,0,0,1,0,4.33Z"/><path class="cls-3" d="M145.93,96.84H48.85a2.17,2.17,0,1,1,0-4.34h97.08a2.17,2.17,0,0,1,0,4.34Z"/><path class="cls-3" d="M145.93,114.27H48.85a2.17,2.17,0,1,1,0-4.33h97.08a2.17,2.17,0,1,1,0,4.33Z"/><g class="cls-83"><path class="cls-84" d="M143.66,112.78H46.57a2.17,2.17,0,0,1,0-4.33h97.09a2.17,2.17,0,1,1,0,4.33Z"/></g><g class="cls-83"><path class="cls-84" d="M146.88,104.06H48.67a2.17,2.17,0,1,1,0-4.33h98.21a2.17,2.17,0,1,1,0,4.33Z"/></g><g class="cls-83"><path class="cls-84" d="M143.66,95.34H46.57a2.17,2.17,0,0,1,0-4.33h97.09a2.17,2.17,0,1,1,0,4.33Z"/></g></g></g></svg>