<svg xmlns="http://www.w3.org/2000/svg" xmlns:xlink="http://www.w3.org/1999/xlink" viewBox="0 0 61.9 65.04"><defs><style>.cls-1{fill:none;}.cls-2{clip-path:url(#clip-path);}.cls-3{fill:#ecf8fb;}.cls-4{fill:#ebf8fb;}.cls-5{fill:#eaf7fb;}.cls-6{fill:#e9f7fa;}.cls-7{fill:#e8f6fa;}.cls-8{fill:#e7f6fa;}.cls-9{fill:#e6f6fa;}.cls-10{fill:#e5f5fa;}.cls-11{fill:#e4f5fa;}.cls-12{fill:#e3f5f9;}.cls-13{fill:#e2f4f9;}.cls-14{fill:#e1f4f9;}.cls-15{fill:#e0f4f9;}.cls-16{fill:#dff3f9;}.cls-17{fill:#def3f8;}.cls-18{fill:#ddf2f8;}.cls-19{fill:#dcf2f8;}.cls-20{fill:#dbf1f8;}.cls-21{fill:#daf1f8;}.cls-22{fill:#d9f1f7;}.cls-23{fill:#d8f0f7;}.cls-24{fill:#d7f0f7;}.cls-25{fill:#d6f0f7;}.cls-26{fill:#d5eff7;}.cls-27{fill:#d3eff6;}.cls-28{fill:#d2eef6;}.cls-29{fill:#d1eef6;}.cls-30{fill:#d0eef6;}.cls-31{fill:#cfedf6;}.cls-32{fill:#ceedf5;}.cls-33{fill:#cdecf5;}.cls-34{fill:#ccecf5;}.cls-35{fill:#cbecf5;}.cls-36{fill:#caebf5;}.cls-37{fill:#c9ebf4;}.cls-38{fill:#c8ebf4;}.cls-39{fill:#c7eaf4;}.cls-40{fill:#c6eaf4;}.cls-41{fill:#c5e9f4;}.cls-42{fill:#c4e9f3;}.cls-43{fill:#c3e9f3;}.cls-44{fill:#c2e8f3;}.cls-45{fill:#c1e8f3;}.cls-46{fill:#c0e7f3;}.cls-47{fill:#bee7f2;}.cls-48{fill:#bde7f2;}.cls-49{fill:#bce6f2;}.cls-50{fill:#bbe6f2;}.cls-51{fill:#bae5f2;}.cls-52{fill:#b9e5f1;}.cls-53{fill:#b8e5f1;}.cls-54{fill:#b7e4f1;}.cls-55{fill:#b6e4f1;}.cls-56{fill:#b5e3f1;}.cls-57{fill:#b4e3f0;}.cls-58{fill:#b3e2f0;}.cls-59{fill:#b1e2f0;}.cls-60{fill:#b0e2f0;}.cls-61{fill:#afe1f0;}.cls-62{fill:#aee1ef;}.cls-63{fill:#ade0ef;}.cls-64{fill:#ace0ef;}.cls-65{clip-path:url(#clip-path-2);}.cls-66{fill:#25aed4;}.cls-67{fill:#3c354a;}.cls-68{fill:#fff;}.cls-69{fill:#e44626;}</style><clipPath id="clip-path" transform="translate(1.19)"><path class="cls-1" d="M56.31,63.94s-4.16-7,0-17.11L11.1,46.52c-8,0-9.48,4.38-9.48,4.38-2.81,12.56,6.54,13,6.54,13l48.15,0"/></clipPath><clipPath id="clip-path-2" transform="translate(1.19)"><path class="cls-1" d="M3.22,42.5s4.16-7,0-17.11l45.21-.32c8,0,9.48,4.38,9.48,4.38,2.8,12.57-6.55,13-6.55,13L3.22,42.5"/></clipPath></defs><g id="Layer_2" data-name="Layer 2"><g id="Layer_1-2" data-name="Layer 1"><g class="cls-2"><rect class="cls-3" x="57.28" y="46.52" width="0.22" height="17.43"/><rect class="cls-3" x="56.44" y="46.52" width="0.84" height="17.43"/><rect class="cls-4" x="55.6" y="46.52" width="0.84" height="17.43"/><rect class="cls-5" x="54.76" y="46.52" width="0.84" height="17.43"/><rect class="cls-5" x="53.92" y="46.52" width="0.84" height="17.43"/><rect class="cls-6" x="53.08" y="46.52" width="0.84" height="17.43"/><rect class="cls-7" x="52.24" y="46.52" width="0.84" height="17.43"/><rect class="cls-8" x="51.4" y="46.52" width="0.84" height="17.43"/><rect class="cls-9" x="50.56" y="46.52" width="0.84" height="17.43"/><rect class="cls-10" x="49.72" y="46.52" width="0.84" height="17.43"/><rect class="cls-11" x="48.88" y="46.52" width="0.84" height="17.43"/><rect class="cls-12" x="48.04" y="46.52" width="0.84" height="17.43"/><rect class="cls-13" x="47.2" y="46.52" width="0.84" height="17.43"/><rect class="cls-14" x="46.36" y="46.52" width="0.84" height="17.43"/><rect class="cls-15" x="45.52" y="46.52" width="0.84" height="17.43"/><rect class="cls-16" x="44.68" y="46.52" width="0.84" height="17.43"/><rect class="cls-17" x="43.84" y="46.52" width="0.84" height="17.43"/><rect class="cls-17" x="43" y="46.52" width="0.84" height="17.43"/><rect class="cls-18" x="42.16" y="46.52" width="0.84" height="17.43"/><rect class="cls-19" x="41.32" y="46.52" width="0.84" height="17.43"/><rect class="cls-20" x="40.48" y="46.52" width="0.84" height="17.43"/><rect class="cls-21" x="39.64" y="46.52" width="0.84" height="17.43"/><rect class="cls-22" x="38.8" y="46.52" width="0.84" height="17.43"/><rect class="cls-23" x="37.96" y="46.52" width="0.84" height="17.43"/><rect class="cls-24" x="37.12" y="46.52" width="0.84" height="17.43"/><rect class="cls-25" x="36.28" y="46.52" width="0.84" height="17.43"/><rect class="cls-26" x="35.44" y="46.52" width="0.84" height="17.43"/><rect class="cls-27" x="34.6" y="46.52" width="0.84" height="17.43"/><rect class="cls-28" x="33.76" y="46.52" width="0.84" height="17.43"/><rect class="cls-29" x="32.92" y="46.52" width="0.84" height="17.43"/><rect class="cls-30" x="32.08" y="46.52" width="0.84" height="17.43"/><rect class="cls-31" x="31.24" y="46.52" width="0.84" height="17.43"/><rect class="cls-32" x="30.4" y="46.52" width="0.84" height="17.43"/><rect class="cls-33" x="29.56" y="46.52" width="0.84" height="17.43"/><rect class="cls-34" x="28.72" y="46.52" width="0.84" height="17.43"/><rect class="cls-35" x="27.88" y="46.52" width="0.84" height="17.43"/><rect class="cls-36" x="27.04" y="46.52" width="0.84" height="17.43"/><rect class="cls-37" x="26.2" y="46.52" width="0.84" height="17.43"/><rect class="cls-38" x="25.36" y="46.52" width="0.84" height="17.43"/><rect class="cls-39" x="24.52" y="46.52" width="0.84" height="17.43"/><rect class="cls-40" x="23.68" y="46.52" width="0.84" height="17.43"/><rect class="cls-41" x="22.84" y="46.52" width="0.84" height="17.43"/><rect class="cls-42" x="22" y="46.52" width="0.84" height="17.43"/><rect class="cls-43" x="21.16" y="46.52" width="0.84" height="17.43"/><rect class="cls-44" x="20.32" y="46.52" width="0.84" height="17.43"/><rect class="cls-45" x="19.48" y="46.52" width="0.84" height="17.43"/><rect class="cls-46" x="18.64" y="46.52" width="0.84" height="17.43"/><rect class="cls-47" x="17.8" y="46.52" width="0.84" height="17.43"/><rect class="cls-48" x="16.96" y="46.52" width="0.84" height="17.43"/><rect class="cls-49" x="16.12" y="46.52" width="0.84" height="17.43"/><rect class="cls-50" x="15.28" y="46.52" width="0.84" height="17.43"/><rect class="cls-51" x="14.44" y="46.52" width="0.84" height="17.43"/><rect class="cls-52" x="13.6" y="46.52" width="0.84" height="17.43"/><rect class="cls-53" x="12.76" y="46.52" width="0.84" height="17.43"/><rect class="cls-54" x="11.92" y="46.52" width="0.84" height="17.43"/><rect class="cls-55" x="11.08" y="46.52" width="0.84" height="17.43"/><rect class="cls-56" x="10.24" y="46.52" width="0.84" height="17.43"/><rect class="cls-57" x="9.4" y="46.52" width="0.84" height="17.43"/><rect class="cls-58" x="8.56" y="46.52" width="0.84" height="17.43"/><rect class="cls-59" x="7.72" y="46.52" width="0.84" height="17.43"/><rect class="cls-60" x="6.88" y="46.52" width="0.84" height="17.43"/><rect class="cls-61" x="6.04" y="46.52" width="0.84" height="17.43"/><rect class="cls-62" x="5.2" y="46.52" width="0.84" height="17.43"/><rect class="cls-63" x="4.36" y="46.52" width="0.84" height="17.43"/><rect class="cls-64" x="3.52" y="46.52" width="0.84" height="17.43"/><rect class="cls-64" y="46.52" width="3.52" height="17.43"/></g><g class="cls-65"><rect class="cls-3" x="4.4" y="25.07" width="0.22" height="17.43"/><rect class="cls-3" x="4.62" y="25.07" width="0.84" height="17.43"/><rect class="cls-4" x="5.46" y="25.07" width="0.84" height="17.43"/><rect class="cls-5" x="6.3" y="25.07" width="0.84" height="17.43"/><rect class="cls-5" x="7.14" y="25.07" width="0.84" height="17.43"/><rect class="cls-6" x="7.98" y="25.07" width="0.84" height="17.43"/><rect class="cls-7" x="8.82" y="25.07" width="0.84" height="17.43"/><rect class="cls-8" x="9.66" y="25.07" width="0.84" height="17.43"/><rect class="cls-9" x="10.5" y="25.07" width="0.84" height="17.43"/><rect class="cls-10" x="11.34" y="25.07" width="0.84" height="17.43"/><rect class="cls-11" x="12.18" y="25.07" width="0.84" height="17.43"/><rect class="cls-12" x="13.02" y="25.07" width="0.84" height="17.43"/><rect class="cls-13" x="13.86" y="25.07" width="0.84" height="17.43"/><rect class="cls-14" x="14.7" y="25.07" width="0.84" height="17.43"/><rect class="cls-15" x="15.54" y="25.07" width="0.84" height="17.43"/><rect class="cls-16" x="16.38" y="25.07" width="0.84" height="17.43"/><rect class="cls-17" x="17.22" y="25.07" width="0.84" height="17.43"/><rect class="cls-17" x="18.06" y="25.07" width="0.84" height="17.43"/><rect class="cls-18" x="18.9" y="25.07" width="0.84" height="17.43"/><rect class="cls-19" x="19.74" y="25.07" width="0.84" height="17.43"/><rect class="cls-20" x="20.58" y="25.07" width="0.84" height="17.43"/><rect class="cls-21" x="21.42" y="25.07" width="0.84" height="17.43"/><rect class="cls-22" x="22.26" y="25.07" width="0.84" height="17.43"/><rect class="cls-23" x="23.1" y="25.07" width="0.84" height="17.43"/><rect class="cls-24" x="23.94" y="25.07" width="0.84" height="17.43"/><rect class="cls-25" x="24.78" y="25.07" width="0.84" height="17.43"/><rect class="cls-26" x="25.62" y="25.07" width="0.84" height="17.43"/><rect class="cls-27" x="26.46" y="25.07" width="0.84" height="17.43"/><rect class="cls-28" x="27.3" y="25.07" width="0.84" height="17.43"/><rect class="cls-29" x="28.14" y="25.07" width="0.84" height="17.43"/><rect class="cls-30" x="28.98" y="25.07" width="0.84" height="17.43"/><rect class="cls-31" x="29.82" y="25.07" width="0.84" height="17.43"/><rect class="cls-32" x="30.66" y="25.07" width="0.84" height="17.43"/><rect class="cls-33" x="31.5" y="25.07" width="0.84" height="17.43"/><rect class="cls-34" x="32.34" y="25.07" width="0.84" height="17.43"/><rect class="cls-35" x="33.18" y="25.07" width="0.84" height="17.43"/><rect class="cls-36" x="34.02" y="25.07" width="0.84" height="17.43"/><rect class="cls-37" x="34.86" y="25.07" width="0.84" height="17.43"/><rect class="cls-38" x="35.7" y="25.07" width="0.84" height="17.43"/><rect class="cls-39" x="36.54" y="25.07" width="0.84" height="17.43"/><rect class="cls-40" x="37.38" y="25.07" width="0.84" height="17.43"/><rect class="cls-41" x="38.22" y="25.07" width="0.84" height="17.43"/><rect class="cls-42" x="39.06" y="25.07" width="0.84" height="17.43"/><rect class="cls-43" x="39.9" y="25.07" width="0.84" height="17.43"/><rect class="cls-44" x="40.74" y="25.07" width="0.84" height="17.43"/><rect class="cls-45" x="41.58" y="25.07" width="0.84" height="17.43"/><rect class="cls-46" x="42.42" y="25.07" width="0.84" height="17.43"/><rect class="cls-47" x="43.26" y="25.07" width="0.84" height="17.43"/><rect class="cls-48" x="44.1" y="25.07" width="0.84" height="17.43"/><rect class="cls-49" x="44.94" y="25.07" width="0.84" height="17.43"/><rect class="cls-50" x="45.78" y="25.07" width="0.84" height="17.43"/><rect class="cls-51" x="46.62" y="25.07" width="0.84" height="17.43"/><rect class="cls-52" x="47.46" y="25.07" width="0.84" height="17.43"/><rect class="cls-53" x="48.3" y="25.07" width="0.84" height="17.43"/><rect class="cls-54" x="49.14" y="25.07" width="0.84" height="17.43"/><rect class="cls-55" x="49.98" y="25.07" width="0.84" height="17.43"/><rect class="cls-56" x="50.82" y="25.07" width="0.84" height="17.43"/><rect class="cls-57" x="51.66" y="25.07" width="0.84" height="17.43"/><rect class="cls-58" x="52.5" y="25.07" width="0.84" height="17.43"/><rect class="cls-59" x="53.34" y="25.07" width="0.84" height="17.43"/><rect class="cls-60" x="54.18" y="25.07" width="0.84" height="17.43"/><rect class="cls-61" x="55.02" y="25.07" width="0.84" height="17.43"/><rect class="cls-62" x="55.86" y="25.07" width="0.84" height="17.43"/><rect class="cls-63" x="56.7" y="25.07" width="0.84" height="17.43"/><rect class="cls-64" x="57.54" y="25.07" width="0.84" height="17.43"/><rect class="cls-64" x="58.38" y="25.07" width="3.52" height="17.43"/></g><path class="cls-66" d="M50.36,43.59H1.88a1.1,1.1,0,0,1,0-2.19H50.36c3.4,0,6.39-2,7-4.74a14.18,14.18,0,0,0,0-5.62c-.58-2.82-3.51-4.88-7-4.88H1.88a1.1,1.1,0,0,1,0-2.19H50.32c4.51,0,8.34,2.79,9.12,6.64a15.94,15.94,0,0,1,0,6.49C58.68,40.86,54.85,43.59,50.36,43.59Z" transform="translate(1.19)"/><path class="cls-66" d="M57.9,65H9.42C4.92,65,1.1,62.31.33,58.55a16.17,16.17,0,0,1,0-6.5c.78-3.84,4.62-6.63,9.13-6.63H57.9a1.1,1.1,0,0,1,0,2.19H9.46c-3.47,0-6.41,2-7,4.88a14,14,0,0,0,0,5.62c.56,2.7,3.54,4.74,7,4.74H57.9a1.1,1.1,0,0,1,0,2.19Z" transform="translate(1.19)"/><path class="cls-67" d="M54.73,34.74H8a1,1,0,0,1,0-1.92H54.73a1,1,0,0,1,0,1.92Z" transform="translate(1.19)"/><path class="cls-67" d="M51.57,30.41H4.8a1,1,0,1,1,0-1.92H51.57a1,1,0,0,1,0,1.92Z" transform="translate(1.19)"/><path class="cls-67" d="M51.57,39.07H4.8a1,1,0,1,1,0-1.92H51.57a1,1,0,0,1,0,1.92Z" transform="translate(1.19)"/><path class="cls-67" d="M53.17,51.4H6.4a1,1,0,1,1,0-1.91H53.17a1,1,0,1,1,0,1.91Z" transform="translate(1.19)"/><circle class="cls-68" cx="16.77" cy="9.64" r="8.54"/><path class="cls-69" d="M15.59,19.27a9.64,9.64,0,1,1,9.63-9.63A9.64,9.64,0,0,1,15.59,19.27Zm0-17.08A7.45,7.45,0,1,0,23,9.64,7.46,7.46,0,0,0,15.59,2.19Z" transform="translate(1.19)"/><circle class="cls-68" cx="44.86" cy="9.64" r="8.54"/><path class="cls-69" d="M43.67,19.27a9.64,9.64,0,1,1,9.64-9.63A9.64,9.64,0,0,1,43.67,19.27Zm0-17.08a7.45,7.45,0,1,0,7.45,7.45A7.45,7.45,0,0,0,43.67,2.19Z" transform="translate(1.19)"/><path class="cls-69" d="M35,8.6a1.13,1.13,0,0,1-.67-.23,7.65,7.65,0,0,0-9.75,0,1.1,1.1,0,1,1-1.43-1.66,9.87,9.87,0,0,1,12.52,0,1.09,1.09,0,0,1,.2,1.53A1.1,1.1,0,0,1,35,8.6Z" transform="translate(1.19)"/><path class="cls-69" d="M6.77,9.24H3.36a1.1,1.1,0,1,1,0-2.19H6.77a1.1,1.1,0,0,1,0,2.19Z" transform="translate(1.19)"/><path class="cls-69" d="M55.77,9.24H52.39a1.1,1.1,0,1,1,0-2.19h3.38a1.1,1.1,0,1,1,0,2.19Z" transform="translate(1.19)"/></g></g></svg>