<svg xmlns="http://www.w3.org/2000/svg" xmlns:xlink="http://www.w3.org/1999/xlink" viewBox="0 0 200 200"><defs><style>.cls-1{fill:none;}.cls-2{isolation:isolate;}.cls-3{clip-path:url(#clip-path);}.cls-4{fill:#25aed4;}.cls-5{fill:#26aed4;}.cls-6{fill:#27afd4;}.cls-7{fill:#28afd5;}.cls-8{fill:#29afd5;}.cls-9{fill:#2ab0d5;}.cls-10{fill:#2bb0d5;}.cls-11{fill:#2cb0d5;}.cls-12{fill:#2cb1d5;}.cls-13{fill:#2db1d6;}.cls-14{fill:#2eb1d6;}.cls-15{fill:#2fb2d6;}.cls-16{fill:#30b2d6;}.cls-17{fill:#31b2d6;}.cls-18{fill:#31b3d6;}.cls-19{fill:#32b3d7;}.cls-20{fill:#33b3d7;}.cls-21{fill:#34b3d7;}.cls-22{fill:#35b4d7;}.cls-23{fill:#36b4d7;}.cls-24{fill:#37b5d8;}.cls-25{fill:#38b5d8;}.cls-26{fill:#39b5d8;}.cls-27{fill:#3ab6d8;}.cls-28{fill:#3bb6d8;}.cls-29{fill:#3cb6d8;}.cls-30{fill:#3cb7d9;}.cls-31{fill:#3db7d9;}.cls-32{fill:#3eb7d9;}.cls-33{fill:#3fb8d9;}.cls-34{fill:#40b8d9;}.cls-35{fill:#41b8d9;}.cls-36{fill:#42b9da;}.cls-37{fill:#43b9da;}.cls-38{fill:#44b9da;}.cls-39{fill:#45bada;}.cls-40{fill:#46bada;}.cls-41{fill:#47badb;}.cls-42{fill:#48bbdb;}.cls-43{fill:#49bbdb;}.cls-44{fill:#4abcdb;}.cls-45{fill:#4bbcdc;}.cls-46{fill:#4cbddc;}.cls-47{fill:#4dbddc;}.cls-48{fill:#4ebddc;}.cls-49{fill:#4fbedc;}.cls-50{fill:#50bedc;}.cls-51{fill:#51bedd;}.cls-52{fill:#52bfdd;}.cls-53{fill:#53bfdd;}.cls-54{fill:#54bfdd;}.cls-55{fill:#55c0dd;}.cls-56{fill:#57c0de;}.cls-57{fill:#58c1de;}.cls-58{fill:#59c1de;}.cls-59{fill:#5ac1de;}.cls-60{fill:#5bc2de;}.cls-61{fill:#5cc2df;}.cls-62{fill:#5dc3df;}.cls-63{fill:#5ec3df;}.cls-64{fill:#5fc3df;}.cls-65{fill:#60c4e0;}.cls-66{fill:#61c4e0;}.cls-67{fill:#62c5e0;}.cls-68{fill:#63c5e0;}.cls-69{fill:#64c5e0;}.cls-70{fill:#65c6e1;}.cls-71{fill:#66c6e1;}.cls-72{fill:#68c7e1;}.cls-73{fill:#69c7e1;}.cls-74{fill:#6ac7e1;}.cls-75{fill:#6bc8e2;}.cls-76{fill:#6cc8e2;}.cls-77{fill:#6dc9e2;}.cls-78{fill:#6ec9e2;}.cls-79{fill:#6fc9e3;}.cls-80{fill:#70cae3;}.cls-81{fill:#72cae3;}.cls-82{fill:#73cbe3;}.cls-83{fill:#74cbe3;}.cls-84{fill:#75cbe4;}.cls-85{fill:#76cce4;}.cls-86{fill:#77cce4;}.cls-87{fill:#78cde4;}.cls-88{fill:#7acde5;}.cls-89{fill:#7bcee5;}.cls-90{fill:#7ccee5;}.cls-91{fill:#7dcee5;}.cls-92{fill:#7ecfe5;}.cls-93{fill:#7fcfe6;}.cls-94{fill:#81d0e6;}.cls-95{fill:#82d0e6;}.cls-96{fill:#83d1e6;}.cls-97{fill:#84d1e7;}.cls-98{fill:#85d1e7;}.cls-99{fill:#86d2e7;}.cls-100{fill:#88d2e7;}.cls-101{fill:#89d3e8;}.cls-102{fill:#8ad3e8;}.cls-103{fill:#8bd4e8;}.cls-104{fill:#8cd4e8;}.cls-105{fill:#8ed5e8;}.cls-106{fill:#8fd5e9;}.cls-107{fill:#90d5e9;}.cls-108{fill:#91d6e9;}.cls-109{fill:#92d6e9;}.cls-110{fill:#94d7ea;}.cls-111{fill:#95d7ea;}.cls-112{fill:#96d8ea;}.cls-113{fill:#97d8ea;}.cls-114{fill:#99d9eb;}.cls-115{fill:#9ad9eb;}.cls-116{fill:#9bd9eb;}.cls-117{fill:#9cdaeb;}.cls-118{fill:#9ddaec;}.cls-119{fill:#9fdbec;}.cls-120{fill:#a0dbec;}.cls-121{fill:#a1dcec;}.cls-122{fill:#a2dced;}.cls-123{fill:#a4dded;}.cls-124{fill:#a5dded;}.cls-125{fill:#a6deed;}.cls-126{fill:#a7deee;}.cls-127{fill:#a9dfee;}.cls-128{fill:#aadfee;}.cls-129{fill:#fff;}.cls-130,.cls-134{opacity:0.9;}.cls-131,.cls-134{mix-blend-mode:multiply;}.cls-132{fill:#e44626;}.cls-133{fill:#fffeff;}</style><clipPath id="clip-path"><circle class="cls-1" cx="103.6" cy="100.98" r="57.5"/></clipPath></defs><g class="cls-2"><g id="레이어_1" data-name="레이어 1"><g class="cls-3"><rect class="cls-4" x="46.1" y="43.48" width="115" height="115"/><circle class="cls-4" cx="103.6" cy="100.94" r="57.38"/><circle class="cls-4" cx="103.6" cy="100.82" r="56.96"/><circle class="cls-5" cx="103.6" cy="100.69" r="56.54"/><circle class="cls-5" cx="103.6" cy="100.56" r="56.12"/><circle class="cls-6" cx="103.6" cy="100.43" r="55.7"/><circle class="cls-6" cx="103.6" cy="100.3" r="55.28"/><circle class="cls-7" cx="103.59" cy="100.18" r="54.86"/><circle class="cls-7" cx="103.59" cy="100.05" r="54.44"/><circle class="cls-8" cx="103.59" cy="99.92" r="54.03"/><circle class="cls-9" cx="103.59" cy="99.79" r="53.61"/><circle class="cls-9" cx="103.59" cy="99.66" r="53.19"/><circle class="cls-10" cx="103.59" cy="99.54" r="52.77"/><circle class="cls-11" cx="103.58" cy="99.41" r="52.35"/><circle class="cls-12" cx="103.58" cy="99.28" r="51.93"/><circle class="cls-13" cx="103.58" cy="99.15" r="51.51"/><circle class="cls-14" cx="103.58" cy="99.02" r="51.1"/><circle class="cls-14" cx="103.58" cy="98.9" r="50.68"/><circle class="cls-15" cx="103.58" cy="98.77" r="50.26"/><circle class="cls-16" cx="103.57" cy="98.64" r="49.84"/><circle class="cls-17" cx="103.57" cy="98.51" r="49.42"/><circle class="cls-18" cx="103.57" cy="98.38" r="49"/><circle class="cls-19" cx="103.57" cy="98.26" r="48.58"/><circle class="cls-20" cx="103.57" cy="98.13" r="48.16"/><circle class="cls-21" cx="103.57" cy="98" r="47.75"/><circle class="cls-22" cx="103.57" cy="97.87" r="47.33"/><circle class="cls-23" cx="103.56" cy="97.74" r="46.91"/><circle class="cls-23" cx="103.56" cy="97.62" r="46.49"/><circle class="cls-24" cx="103.56" cy="97.49" r="46.07"/><circle class="cls-25" cx="103.56" cy="97.36" r="45.65"/><circle class="cls-26" cx="103.56" cy="97.23" r="45.23"/><circle class="cls-27" cx="103.56" cy="97.1" r="44.82"/><circle class="cls-28" cx="103.55" cy="96.98" r="44.4"/><circle class="cls-29" cx="103.55" cy="96.85" r="43.98"/><circle class="cls-30" cx="103.55" cy="96.72" r="43.56"/><circle class="cls-31" cx="103.55" cy="96.59" r="43.14"/><circle class="cls-32" cx="103.55" cy="96.46" r="42.72"/><circle class="cls-33" cx="103.55" cy="96.34" r="42.3"/><circle class="cls-34" cx="103.54" cy="96.21" r="41.88"/><circle class="cls-35" cx="103.54" cy="96.08" r="41.47"/><circle class="cls-36" cx="103.54" cy="95.95" r="41.05"/><circle class="cls-37" cx="103.54" cy="95.82" r="40.63"/><circle class="cls-38" cx="103.54" cy="95.69" r="40.21"/><circle class="cls-39" cx="103.54" cy="95.57" r="39.79"/><circle class="cls-40" cx="103.53" cy="95.44" r="39.37"/><circle class="cls-41" cx="103.53" cy="95.31" r="38.95"/><circle class="cls-42" cx="103.53" cy="95.18" r="38.54"/><circle class="cls-42" cx="103.53" cy="95.05" r="38.12"/><circle class="cls-43" cx="103.53" cy="94.93" r="37.7"/><circle class="cls-44" cx="103.53" cy="94.8" r="37.28"/><circle class="cls-45" cx="103.53" cy="94.67" r="36.86"/><circle class="cls-46" cx="103.52" cy="94.54" r="36.44"/><circle class="cls-47" cx="103.52" cy="94.41" r="36.02"/><circle class="cls-48" cx="103.52" cy="94.29" r="35.6"/><circle class="cls-49" cx="103.52" cy="94.16" r="35.19"/><circle class="cls-50" cx="103.52" cy="94.03" r="34.77"/><circle class="cls-51" cx="103.52" cy="93.9" r="34.35"/><circle class="cls-52" cx="103.51" cy="93.77" r="33.93"/><circle class="cls-53" cx="103.51" cy="93.65" r="33.51"/><circle class="cls-54" cx="103.51" cy="93.52" r="33.09"/><circle class="cls-55" cx="103.51" cy="93.39" r="32.67"/><circle class="cls-56" cx="103.51" cy="93.26" r="32.26"/><circle class="cls-57" cx="103.51" cy="93.13" r="31.84"/><circle class="cls-58" cx="103.5" cy="93.01" r="31.42"/><circle class="cls-59" cx="103.5" cy="92.88" r="31"/><circle class="cls-60" cx="103.5" cy="92.75" r="30.58"/><circle class="cls-61" cx="103.5" cy="92.62" r="30.16"/><circle class="cls-62" cx="103.5" cy="92.49" r="29.74"/><circle class="cls-63" cx="103.5" cy="92.37" r="29.32"/><circle class="cls-64" cx="103.49" cy="92.24" r="28.91"/><circle class="cls-65" cx="103.49" cy="92.11" r="28.49"/><circle class="cls-66" cx="103.49" cy="91.98" r="28.07"/><circle class="cls-67" cx="103.49" cy="91.85" r="27.65"/><circle class="cls-68" cx="103.49" cy="91.73" r="27.23"/><circle class="cls-69" cx="103.49" cy="91.6" r="26.81"/><circle class="cls-70" cx="103.49" cy="91.47" r="26.39"/><circle class="cls-71" cx="103.48" cy="91.34" r="25.98"/><circle class="cls-72" cx="103.48" cy="91.21" r="25.56"/><circle class="cls-73" cx="103.48" cy="91.09" r="25.14"/><circle class="cls-74" cx="103.48" cy="90.96" r="24.72"/><circle class="cls-75" cx="103.48" cy="90.83" r="24.3"/><circle class="cls-76" cx="103.48" cy="90.7" r="23.88"/><circle class="cls-77" cx="103.47" cy="90.57" r="23.46"/><circle class="cls-78" cx="103.47" cy="90.45" r="23.04"/><circle class="cls-79" cx="103.47" cy="90.32" r="22.63"/><circle class="cls-80" cx="103.47" cy="90.19" r="22.21"/><circle class="cls-81" cx="103.47" cy="90.06" r="21.79"/><circle class="cls-82" cx="103.47" cy="89.93" r="21.37"/><circle class="cls-83" cx="103.46" cy="89.81" r="20.95"/><circle class="cls-84" cx="103.46" cy="89.68" r="20.53"/><circle class="cls-85" cx="103.46" cy="89.55" r="20.11"/><circle class="cls-86" cx="103.46" cy="89.42" r="19.7"/><circle class="cls-87" cx="103.46" cy="89.29" r="19.28"/><circle class="cls-88" cx="103.46" cy="89.17" r="18.86"/><circle class="cls-89" cx="103.46" cy="89.04" r="18.44"/><circle class="cls-90" cx="103.45" cy="88.91" r="18.02"/><circle class="cls-91" cx="103.45" cy="88.78" r="17.6"/><circle class="cls-92" cx="103.45" cy="88.65" r="17.18"/><circle class="cls-93" cx="103.45" cy="88.53" r="16.76"/><circle class="cls-94" cx="103.45" cy="88.4" r="16.35"/><circle class="cls-95" cx="103.45" cy="88.27" r="15.93"/><circle class="cls-96" cx="103.44" cy="88.14" r="15.51"/><circle class="cls-97" cx="103.44" cy="88.01" r="15.09"/><circle class="cls-98" cx="103.44" cy="87.89" r="14.67"/><circle class="cls-99" cx="103.44" cy="87.76" r="14.25"/><circle class="cls-100" cx="103.44" cy="87.63" r="13.83"/><circle class="cls-101" cx="103.44" cy="87.5" r="13.42"/><circle class="cls-102" cx="103.43" cy="87.37" r="13"/><circle class="cls-103" cx="103.43" cy="87.25" r="12.58"/><circle class="cls-104" cx="103.43" cy="87.12" r="12.16"/><circle class="cls-105" cx="103.43" cy="86.99" r="11.74"/><circle class="cls-106" cx="103.43" cy="86.86" r="11.32"/><circle class="cls-107" cx="103.43" cy="86.73" r="10.9"/><circle class="cls-108" cx="103.42" cy="86.61" r="10.48"/><circle class="cls-109" cx="103.42" cy="86.48" r="10.07"/><circle class="cls-110" cx="103.42" cy="86.35" r="9.65"/><circle class="cls-111" cx="103.42" cy="86.22" r="9.23"/><circle class="cls-112" cx="103.42" cy="86.09" r="8.81"/><circle class="cls-113" cx="103.42" cy="85.97" r="8.39"/><circle class="cls-114" cx="103.42" cy="85.84" r="7.97"/><circle class="cls-115" cx="103.41" cy="85.71" r="7.55"/><circle class="cls-116" cx="103.41" cy="85.58" r="7.14"/><circle class="cls-117" cx="103.41" cy="85.45" r="6.72"/><circle class="cls-118" cx="103.41" cy="85.33" r="6.3"/><circle class="cls-119" cx="103.41" cy="85.2" r="5.88"/><circle class="cls-120" cx="103.41" cy="85.07" r="5.46"/><circle class="cls-121" cx="103.4" cy="84.94" r="5.04"/><circle class="cls-122" cx="103.4" cy="84.81" r="4.62"/><circle class="cls-123" cx="103.4" cy="84.68" r="4.2"/><circle class="cls-124" cx="103.4" cy="84.56" r="3.79"/><circle class="cls-125" cx="103.4" cy="84.43" r="3.37"/><circle class="cls-126" cx="103.4" cy="84.3" r="2.95"/><circle class="cls-127" cx="103.39" cy="84.17" r="2.53"/><circle class="cls-128" cx="103.39" cy="84.04" r="2.11"/></g><path class="cls-129" d="M103.87,104.7c-6.45,0-12.87-2.83-18.12-8l2.16-2.2c4.73,4.65,10.24,7.1,15.94,7.1h.21c5.6-.06,10.92-2.51,15.39-7.08l2.2,2.15c-5.05,5.17-11.12,7.94-17.56,8Z"/><path class="cls-129" d="M91.55,84.25h0c-3.5,0-6-3.19-6.08-3.33l2.45-1.87c.46.59,2,2.12,3.63,2.12h0c1.1,0,2.2-.72,3.26-2.12l2.45,1.87C95.59,83.13,93.66,84.25,91.55,84.25Z"/><path class="cls-129" d="M116.9,84.25h0c-3.5,0-6-3.19-6.08-3.33l2.45-1.87c.46.59,2,2.12,3.63,2.12h0c1.1,0,2.2-.72,3.26-2.12l2.45,1.87C120.94,83.13,119,84.25,116.9,84.25Z"/><path class="cls-129" d="M103.69,93.11A4.13,4.13,0,1,1,107.81,89,4.14,4.14,0,0,1,103.69,93.11Zm0-5.17a1,1,0,1,0,1,1A1,1,0,0,0,103.69,87.94Z"/><g class="cls-130"><g class="cls-131"><path class="cls-132" d="M103.11,103.85c-6.32,0-12.63-2.78-17.77-7.84l2.16-2.19c4.63,4.55,10,7,15.6,7h.2c5.48-.06,10.69-2.46,15-6.93L120.56,96c-5,5.08-10.91,7.79-17.22,7.86Z"/></g><g class="cls-131"><path class="cls-132" d="M91,83.81c-3.44,0-5.87-3.13-6-3.27l2.45-1.88c.47.61,2,2.16,3.69,2.06a4.4,4.4,0,0,0,3-2l2.44,1.87A7.3,7.3,0,0,1,91.4,83.8Z"/></g><g class="cls-131"><path class="cls-132" d="M115.88,83.81c-3.44,0-5.87-3.14-6-3.27l2.45-1.87-1.22.93,1.22-.94c.45.58,2,2.07,3.53,2.07h0c1.07,0,2.14-.7,3.18-2.06l2.44,1.87C119.86,82.71,118,83.81,115.88,83.81Z"/></g><g class="cls-131"><path class="cls-132" d="M102.94,92.49A4.08,4.08,0,1,1,107,88.41,4.08,4.08,0,0,1,102.94,92.49Zm0-5.07a1,1,0,1,0,1,1A1,1,0,0,0,102.94,87.42Z"/></g></g><path class="cls-129" d="M147.37,34.08a21.67,21.67,0,0,1,2.29-.12,22.3,22.3,0,1,1-2.29.12"/><g class="cls-131"><path class="cls-129" d="M75,125.14s3,28.39-23.11,28.39c-24.89,0-23.11-28.39-23.11-28.39Z"/><path class="cls-132" d="M51.91,155.07c-7.22,0-13-2.28-17.24-6.78-8.22-8.74-7.44-22.66-7.4-23.25l.09-1.44h49l.15,1.38c.06.57,1.39,14.15-6.53,23C65.76,152.67,59.66,155.07,51.91,155.07ZM30.32,126.68c0,3.63.74,13.28,6.61,19.52,3.61,3.84,8.65,5.79,15,5.79,6.84,0,12.16-2.06,15.82-6.12,5.64-6.27,5.94-15.68,5.83-19.19Z"/></g><g class="cls-131"><path class="cls-132" d="M79.35,143H75.82a1.54,1.54,0,0,1,0-3.08h3.53a.74.74,0,0,0,.74-.66L80.9,131a.7.7,0,0,0-.19-.57.72.72,0,0,0-.54-.24H78.54a1.54,1.54,0,0,1,0-3.08h1.63a3.81,3.81,0,0,1,3.8,4.19l-.82,8.28A3.8,3.8,0,0,1,79.35,143Z"/></g><g class="cls-131"><path class="cls-132" d="M48.18,120a1.54,1.54,0,0,1-.79-2.86c.87-.53,1.76-1.45,1.67-2.27a4,4,0,0,0-.94-1.58,6.61,6.61,0,0,1-1.55-2.88,4.38,4.38,0,0,1,1.38-4,1.54,1.54,0,1,1,2.2,2.15c-.66.68-.58,1.09-.55,1.25a4.31,4.31,0,0,0,.94,1.54,6.41,6.41,0,0,1,1.58,3.14c.26,2.32-1.45,4.24-3.15,5.26A1.5,1.5,0,0,1,48.18,120Z"/></g><g class="cls-131"><path class="cls-132" d="M55.94,119.86a1.54,1.54,0,0,1-.79-2.86c1.31-.79,2.56-2.15,2.42-3.44a5.33,5.33,0,0,0-1.33-2.32,8.35,8.35,0,0,1-1.94-3.57A5.27,5.27,0,0,1,56,102.89,1.54,1.54,0,1,1,58.18,105a2.23,2.23,0,0,0-.85,2.06,5.88,5.88,0,0,0,1.33,2.24,7.71,7.71,0,0,1,2,3.88c.33,2.82-1.79,5.17-3.89,6.43A1.52,1.52,0,0,1,55.94,119.86Z"/></g><polyline class="cls-129" points="37.58 33.03 35.23 46.29 39.93 52.92 39.93 79.45 44.62 79.45 44.62 52.92 49.32 46.29 46.97 33.03"/><path class="cls-132" d="M44.62,81H39.93a1.54,1.54,0,0,1-1.54-1.54v-26L34,47.18A1.54,1.54,0,0,1,33.72,46l2.34-13.26a1.54,1.54,0,0,1,3,.53L36.86,45.92,41.19,52a1.57,1.57,0,0,1,.28.89v25h1.61v-25a1.5,1.5,0,0,1,.29-.89l4.32-6.11L45.46,33.29a1.54,1.54,0,1,1,3-.53L50.84,46a1.59,1.59,0,0,1-.26,1.16l-4.42,6.23v26A1.53,1.53,0,0,1,44.62,81Z"/><path class="cls-132" d="M42.28,47.83a1.54,1.54,0,0,1-1.54-1.54V33a1.54,1.54,0,1,1,3.08,0V46.29A1.54,1.54,0,0,1,42.28,47.83Z"/><g class="cls-131"><path class="cls-129" d="M62,79.45h4.7V47.79c0-4.92,0-9.85,0-14.77a42.27,42.27,0,0,0-6.72,13c-1.26,4.13.06,7.55,2,11.28Z"/><path class="cls-132" d="M66.67,81H62a1.54,1.54,0,0,1-1.54-1.54V57.73c-1.76-3.38-3.42-7.35-2-12.11a43.66,43.66,0,0,1,7-13.53,1.54,1.54,0,0,1,2.76.93c0,3.83,0,7.66,0,11.49V79.45A1.54,1.54,0,0,1,66.67,81Zm-3.16-3.08h1.62V38.08a39.94,39.94,0,0,0-3.73,8.44c-1,3.44-.08,6.31,1.93,10.1a1.58,1.58,0,0,1,.18.73Z"/></g><circle class="cls-129" cx="139.32" cy="157.44" r="4.12"/><path class="cls-132" d="M139.32,163.1a5.66,5.66,0,1,1,5.66-5.66A5.66,5.66,0,0,1,139.32,163.1Zm0-8.23a2.58,2.58,0,1,0,2.58,2.57A2.57,2.57,0,0,0,139.32,154.87Z"/><g class="cls-130"><circle class="cls-129" cx="159.06" cy="157.44" r="4.12"/><path class="cls-132" d="M159.06,163.1a5.66,5.66,0,1,1,5.66-5.66A5.66,5.66,0,0,1,159.06,163.1Zm0-8.23a2.58,2.58,0,1,0,2.58,2.57A2.58,2.58,0,0,0,159.06,154.87Z"/></g><path class="cls-133" d="M70.49,155.69a7.36,7.36,0,0,0,4.63-3.79H28.78s2.17,3.92,5.14,3.92Z"/><path class="cls-129" d="M73.6,126.67S76.41,151.94,52,151.94c-23.31,0-21.64-25.27-21.64-25.27Z"/><g class="cls-131"><path class="cls-133" d="M71,157.25c4.42-.87,6.52-6.78,6.52-6.78H26.54s1.66,5.83,6.65,6.78Z"/><path class="cls-132" d="M71,158.79H33.19a1.43,1.43,0,0,1-.29,0c-5.85-1.11-7.76-7.59-7.84-7.87a1.54,1.54,0,0,1,1.48-2H77.47a1.52,1.52,0,0,1,1.25.65,1.55,1.55,0,0,1,.2,1.4c-.1.28-2.45,6.75-7.67,7.78A1.53,1.53,0,0,1,71,158.79Zm-37.61-3.08H70.79c1.94-.45,3.36-2.24,4.22-3.7H28.89A7.09,7.09,0,0,0,33.34,155.71Z"/></g><polygon class="cls-129" points="128.3 124.14 170.75 124.14 164.73 139.1 132.07 139.1 128.3 124.14"/><g class="cls-134"><path class="cls-129" d="M147.21,32.56c.81-.08,1.62-.12,2.45-.12a23.73,23.73,0,1,1-2.45.12"/><path class="cls-132" d="M149.66,81.58A25.34,25.34,0,1,1,175,56.24,25.37,25.37,0,0,1,149.66,81.58Zm0-47.6c-.77,0-1.54,0-2.29.11h0a22.33,22.33,0,1,0,2.29-.11Zm-2.45-1.42h0Z"/></g><polyline class="cls-129" points="149.26 41.04 149.26 57.48 160.21 57.48"/><path class="cls-132" d="M160.21,59h-11a1.54,1.54,0,0,1-1.54-1.54V41a1.54,1.54,0,0,1,3.08,0v14.9h9.41a1.54,1.54,0,1,1,0,3.08Z"/><g class="cls-131"><polyline class="cls-129" points="131.06 140.66 164.22 140.66 170.49 122.58 126.27 122.58"/><path class="cls-132" d="M164.22,142.2H131.06a1.54,1.54,0,0,1,0-3.08h32.07l5.19-15h-42a1.54,1.54,0,0,1,0-3.08h44.22a1.54,1.54,0,0,1,1.25.64,1.52,1.52,0,0,1,.2,1.4l-6.26,18.07A1.55,1.55,0,0,1,164.22,142.2Z"/></g><g class="cls-131"><path class="cls-132" d="M164.2,149.69H140.88c-6.2,0-10.32-2.86-11.3-7.84l-6.13-24.11h-6.29a1.54,1.54,0,0,1,0-3.08h7.48a1.53,1.53,0,0,1,1.49,1.16l6.45,25.35c.94,4.74,5.6,5.44,8.3,5.44H164.2a1.54,1.54,0,1,1,0,3.08Z"/></g></g></g></svg>