<svg xmlns="http://www.w3.org/2000/svg" xmlns:xlink="http://www.w3.org/1999/xlink" viewBox="0 0 81.89 76.45"><defs><style>.cls-1{fill:none;}.cls-2{opacity:0.7;}.cls-3{clip-path:url(#clip-path);}.cls-4{fill:#25aed4;}.cls-5{fill:#26afd4;}.cls-6{fill:#28afd5;}.cls-7{fill:#29b0d5;}.cls-8{fill:#2bb0d5;}.cls-9{fill:#2cb1d5;}.cls-10{fill:#2db1d6;}.cls-11{fill:#2fb2d6;}.cls-12{fill:#30b2d6;}.cls-13{fill:#31b3d6;}.cls-14{fill:#33b3d7;}.cls-15{fill:#34b4d7;}.cls-16{fill:#36b4d7;}.cls-17{fill:#37b5d8;}.cls-18{fill:#38b5d8;}.cls-19{fill:#3ab6d8;}.cls-20{fill:#3bb6d8;}.cls-21{fill:#3cb7d9;}.cls-22{fill:#3eb7d9;}.cls-23{fill:#3fb8d9;}.cls-24{fill:#40b8d9;}.cls-25{fill:#42b9da;}.cls-26{fill:#43b9da;}.cls-27{fill:#44bada;}.cls-28{fill:#46bada;}.cls-29{fill:#47bbdb;}.cls-30{fill:#48bbdb;}.cls-31{fill:#4abcdb;}.cls-32{fill:#4bbcdb;}.cls-33{fill:#4cbddc;}.cls-34{fill:#4ebddc;}.cls-35{fill:#4fbedc;}.cls-36{fill:#50bedd;}.cls-37{fill:#52bfdd;}.cls-38{fill:#53bfdd;}.cls-39{fill:#54c0dd;}.cls-40{fill:#55c0de;}.cls-41{fill:#57c1de;}.cls-42{fill:#58c1de;}.cls-43{fill:#59c2de;}.cls-44{fill:#5bc2df;}.cls-45{fill:#5cc3df;}.cls-46{fill:#5dc3df;}.cls-47{fill:#5ec3df;}.cls-48{fill:#60c4e0;}.cls-49{fill:#61c4e0;}.cls-50{fill:#62c5e0;}.cls-51{fill:#64c5e0;}.cls-52{fill:#65c6e1;}.cls-53{fill:#66c6e1;}.cls-54{fill:#67c7e1;}.cls-55{fill:#69c7e1;}.cls-56{fill:#6ac8e2;}.cls-57{fill:#6bc8e2;}.cls-58{fill:#6cc9e2;}.cls-59{fill:#6dc9e2;}.cls-60{fill:#6fcae3;}.cls-61{fill:#70cae3;}.cls-62{fill:#71cae3;}.cls-63{fill:#72cbe3;}.cls-64{fill:#74cbe3;}.cls-65{fill:#75cce4;}.cls-66{fill:#76cce4;}.cls-67{fill:#77cde4;}.cls-68{fill:#78cde4;}.cls-69{fill:#7acee5;}.cls-70{fill:#7bcee5;}.cls-71{fill:#7ccfe5;}.cls-72{fill:#7dcfe5;}.cls-73{fill:#7ecfe6;}.cls-74{fill:#80d0e6;}.cls-75{fill:#81d0e6;}.cls-76{fill:#82d1e6;}.cls-77{fill:#83d1e7;}.cls-78{fill:#84d2e7;}.cls-79{fill:#85d2e7;}.cls-80{fill:#87d2e7;}.cls-81{fill:#88d3e7;}.cls-82{fill:#89d3e8;}.cls-83{fill:#8ad4e8;}.cls-84{fill:#8bd4e8;}.cls-85{fill:#8cd5e8;}.cls-86{fill:#8dd5e9;}.cls-87{fill:#8fd5e9;}.cls-88{fill:#90d6e9;}.cls-89{fill:#91d6e9;}.cls-90{fill:#92d7e9;}.cls-91{fill:#93d7ea;}.cls-92{fill:#94d8ea;}.cls-93{fill:#95d8ea;}.cls-94{fill:#96d8ea;}.cls-95{fill:#97d9eb;}.cls-96{fill:#99d9eb;}.cls-97{fill:#9adaeb;}.cls-98{fill:#9bdaeb;}.cls-99{fill:#9cdaeb;}.cls-100{fill:#9ddbec;}.cls-101{fill:#9edbec;}.cls-102{fill:#9fdcec;}.cls-103{fill:#a0dcec;}.cls-104{fill:#a1dcec;}.cls-105{fill:#a2dded;}.cls-106{fill:#a3dded;}.cls-107{fill:#a4deed;}.cls-108{fill:#a5deed;}.cls-109{fill:#a6deed;}.cls-110{fill:#a7dfee;}.cls-111{fill:#a8dfee;}.cls-112{fill:#a9e0ee;}.cls-113{fill:#abe0ee;}.cls-114{fill:#ace0ee;}.cls-115{fill:#ade1ef;}.cls-116{fill:#aee1ef;}.cls-117{fill:#afe1ef;}.cls-118{fill:#b0e2ef;}.cls-119{fill:#b1e2ef;}.cls-120{fill:#b2e3f0;}.cls-121{fill:#b3e3f0;}.cls-122{fill:#b4e4f0;}.cls-123{fill:#b5e4f0;}.cls-124{fill:#b6e4f1;}.cls-125{fill:#b7e5f1;}.cls-126{fill:#b8e5f1;}.cls-127{fill:#b9e5f1;}.cls-128{fill:#bae6f1;}.cls-129{fill:#bbe6f2;}.cls-130{fill:#bce6f2;}.cls-131{fill:#bde7f2;}.cls-132{fill:#bee7f2;}.cls-133{fill:#bfe8f2;}.cls-134{fill:#c0e8f2;}.cls-135{fill:#c1e8f3;}.cls-136{fill:#c2e9f3;}.cls-137{fill:#c3e9f3;}.cls-138{fill:#c4eaf3;}.cls-139{fill:#c5eaf4;}.cls-140{fill:#c6eaf4;}.cls-141{fill:#c7ebf4;}.cls-142{fill:#c8ebf4;}.cls-143{fill:#c9ebf4;}.cls-144{fill:#caecf5;}.cls-145{fill:#cbecf5;}.cls-146{fill:#ccecf5;}.cls-147{fill:#cdedf5;}.cls-148{fill:#ceedf5;}.cls-149{fill:#cfeef6;}.cls-150{fill:#d0eef6;}.cls-151{fill:#d1eef6;}.cls-152{fill:#d2eff6;}.cls-153{fill:#d3eff6;}.cls-154{fill:#d4eff6;}.cls-155{fill:#d5f0f7;}.cls-156{fill:#d6f0f7;}.cls-157{fill:#d7f1f7;}.cls-158{fill:#d8f1f7;}.cls-159{fill:#d9f1f7;}.cls-160{fill:#daf2f8;}.cls-161{fill:#dbf2f8;}.cls-162{fill:#dcf2f8;}.cls-163{fill:#ddf3f8;}.cls-164{fill:#def3f8;}.cls-165{fill:#dff3f9;}.cls-166{fill:#dff4f9;}.cls-167{fill:#e0f4f9;}.cls-168{fill:#e1f4f9;}.cls-169{fill:#e2f4f9;}.cls-170{fill:#e2f5f9;}.cls-171{fill:#e3f5f9;}.cls-172{fill:#e4f5fa;}.cls-173{fill:#e4f6fa;}.cls-174{fill:#e5f6fa;}.cls-175{fill:#e6f6fa;}.cls-176{fill:#e7f6fa;}.cls-177{fill:#e7f7fa;}.cls-178{fill:#e8f7fa;}.cls-179{fill:#e9f7fb;}.cls-180{fill:#eaf8fb;}.cls-181{fill:#ebf8fb;}.cls-182{fill:#fff;}.cls-183{fill:#e44626;}.cls-184{fill:#fffeff;}.cls-185{fill:#3c354a;}</style><clipPath id="clip-path"><circle class="cls-1" cx="42.52" cy="42.41" r="32.52"/></clipPath></defs><g id="Layer_2" data-name="Layer 2"><g id="Layer_1-2" data-name="Layer 1"><g class="cls-2"><g class="cls-3"><rect class="cls-4" x="10.01" y="9.89" width="65.04" height="65.04"/><circle class="cls-4" cx="42.52" cy="42.02" r="31.19"/><circle class="cls-5" cx="42.52" cy="41.98" r="31.05"/><circle class="cls-6" cx="42.52" cy="41.94" r="30.9"/><circle class="cls-7" cx="42.52" cy="41.9" r="30.76"/><circle class="cls-8" cx="42.52" cy="41.86" r="30.61"/><circle class="cls-9" cx="42.52" cy="41.82" r="30.47"/><circle class="cls-10" cx="42.52" cy="41.78" r="30.32"/><circle class="cls-11" cx="42.52" cy="41.73" r="30.18"/><circle class="cls-12" cx="42.52" cy="41.69" r="30.04"/><circle class="cls-13" cx="42.52" cy="41.65" r="29.89"/><circle class="cls-14" cx="42.52" cy="41.61" r="29.75"/><circle class="cls-15" cx="42.52" cy="41.57" r="29.6"/><circle class="cls-16" cx="42.52" cy="41.53" r="29.46"/><circle class="cls-17" cx="42.52" cy="41.48" r="29.31"/><circle class="cls-18" cx="42.52" cy="41.44" r="29.17"/><circle class="cls-19" cx="42.51" cy="41.4" r="29.03"/><circle class="cls-20" cx="42.51" cy="41.36" r="28.88"/><circle class="cls-21" cx="42.51" cy="41.32" r="28.74"/><circle class="cls-22" cx="42.51" cy="41.28" r="28.59"/><circle class="cls-23" cx="42.51" cy="41.24" r="28.45"/><circle class="cls-24" cx="42.51" cy="41.19" r="28.3"/><circle class="cls-25" cx="42.51" cy="41.15" r="28.16"/><circle class="cls-26" cx="42.51" cy="41.11" r="28.01"/><circle class="cls-27" cx="42.51" cy="41.07" r="27.87"/><circle class="cls-28" cx="42.51" cy="41.03" r="27.73"/><circle class="cls-29" cx="42.51" cy="40.99" r="27.58"/><circle class="cls-30" cx="42.51" cy="40.94" r="27.44"/><circle class="cls-31" cx="42.51" cy="40.9" r="27.29"/><circle class="cls-32" cx="42.51" cy="40.86" r="27.15"/><circle class="cls-33" cx="42.51" cy="40.82" r="27"/><circle class="cls-34" cx="42.51" cy="40.78" r="26.86"/><circle class="cls-35" cx="42.51" cy="40.74" r="26.71"/><circle class="cls-36" cx="42.51" cy="40.69" r="26.57"/><circle class="cls-37" cx="42.51" cy="40.65" r="26.43"/><circle class="cls-38" cx="42.51" cy="40.61" r="26.28"/><circle class="cls-39" cx="42.51" cy="40.57" r="26.14"/><circle class="cls-40" cx="42.51" cy="40.53" r="25.99"/><circle class="cls-41" cx="42.51" cy="40.49" r="25.85"/><circle class="cls-42" cx="42.51" cy="40.45" r="25.7"/><circle class="cls-43" cx="42.51" cy="40.4" r="25.56"/><circle class="cls-44" cx="42.51" cy="40.36" r="25.41"/><circle class="cls-45" cx="42.51" cy="40.32" r="25.27"/><circle class="cls-46" cx="42.5" cy="40.28" r="25.13"/><circle class="cls-47" cx="42.5" cy="40.24" r="24.98"/><circle class="cls-48" cx="42.5" cy="40.2" r="24.84"/><circle class="cls-49" cx="42.5" cy="40.15" r="24.69"/><circle class="cls-50" cx="42.5" cy="40.11" r="24.55"/><circle class="cls-51" cx="42.5" cy="40.07" r="24.4"/><circle class="cls-52" cx="42.5" cy="40.03" r="24.26"/><circle class="cls-53" cx="42.5" cy="39.99" r="24.12"/><circle class="cls-54" cx="42.5" cy="39.95" r="23.97"/><circle class="cls-55" cx="42.5" cy="39.9" r="23.83"/><circle class="cls-56" cx="42.5" cy="39.86" r="23.68"/><circle class="cls-57" cx="42.5" cy="39.82" r="23.54"/><circle class="cls-58" cx="42.5" cy="39.78" r="23.39"/><circle class="cls-59" cx="42.5" cy="39.74" r="23.25"/><circle class="cls-60" cx="42.5" cy="39.7" r="23.1"/><circle class="cls-61" cx="42.5" cy="39.66" r="22.96"/><circle class="cls-62" cx="42.5" cy="39.61" r="22.82"/><circle class="cls-63" cx="42.5" cy="39.57" r="22.67"/><circle class="cls-64" cx="42.5" cy="39.53" r="22.53"/><circle class="cls-65" cx="42.5" cy="39.49" r="22.38"/><circle class="cls-66" cx="42.5" cy="39.45" r="22.24"/><circle class="cls-67" cx="42.5" cy="39.41" r="22.09"/><circle class="cls-68" cx="42.5" cy="39.36" r="21.95"/><circle class="cls-69" cx="42.5" cy="39.32" r="21.8"/><circle class="cls-70" cx="42.5" cy="39.28" r="21.66"/><circle class="cls-71" cx="42.5" cy="39.24" r="21.52"/><circle class="cls-72" cx="42.49" cy="39.2" r="21.37"/><circle class="cls-73" cx="42.49" cy="39.16" r="21.23"/><circle class="cls-74" cx="42.49" cy="39.11" r="21.08"/><circle class="cls-75" cx="42.49" cy="39.07" r="20.94"/><circle class="cls-76" cx="42.49" cy="39.03" r="20.79"/><circle class="cls-77" cx="42.49" cy="38.99" r="20.65"/><circle class="cls-78" cx="42.49" cy="38.95" r="20.51"/><circle class="cls-79" cx="42.49" cy="38.91" r="20.36"/><circle class="cls-80" cx="42.49" cy="38.87" r="20.22"/><circle class="cls-81" cx="42.49" cy="38.82" r="20.07"/><circle class="cls-82" cx="42.49" cy="38.78" r="19.93"/><circle class="cls-83" cx="42.49" cy="38.74" r="19.78"/><circle class="cls-84" cx="42.49" cy="38.7" r="19.64"/><circle class="cls-85" cx="42.49" cy="38.66" r="19.49"/><circle class="cls-86" cx="42.49" cy="38.62" r="19.35"/><circle class="cls-87" cx="42.49" cy="38.57" r="19.21"/><circle class="cls-88" cx="42.49" cy="38.53" r="19.06"/><circle class="cls-89" cx="42.49" cy="38.49" r="18.92"/><circle class="cls-90" cx="42.49" cy="38.45" r="18.77"/><circle class="cls-91" cx="42.49" cy="38.41" r="18.63"/><circle class="cls-92" cx="42.49" cy="38.37" r="18.48"/><circle class="cls-93" cx="42.49" cy="38.32" r="18.34"/><circle class="cls-94" cx="42.49" cy="38.28" r="18.19"/><circle class="cls-95" cx="42.49" cy="38.24" r="18.05"/><circle class="cls-96" cx="42.49" cy="38.2" r="17.91"/><circle class="cls-97" cx="42.49" cy="38.16" r="17.76"/><circle class="cls-98" cx="42.48" cy="38.12" r="17.62"/><circle class="cls-99" cx="42.48" cy="38.08" r="17.47"/><circle class="cls-100" cx="42.48" cy="38.03" r="17.33"/><circle class="cls-101" cx="42.48" cy="37.99" r="17.18"/><circle class="cls-102" cx="42.48" cy="37.95" r="17.04"/><circle class="cls-103" cx="42.48" cy="37.91" r="16.89"/><circle class="cls-104" cx="42.48" cy="37.87" r="16.75"/><circle class="cls-105" cx="42.48" cy="37.83" r="16.61"/><circle class="cls-106" cx="42.48" cy="37.78" r="16.46"/><circle class="cls-107" cx="42.48" cy="37.74" r="16.32"/><circle class="cls-108" cx="42.48" cy="37.7" r="16.17"/><circle class="cls-109" cx="42.48" cy="37.66" r="16.03"/><circle class="cls-110" cx="42.48" cy="37.62" r="15.88"/><circle class="cls-111" cx="42.48" cy="37.58" r="15.74"/><circle class="cls-112" cx="42.48" cy="37.53" r="15.6"/><circle class="cls-113" cx="42.48" cy="37.49" r="15.45"/><circle class="cls-114" cx="42.48" cy="37.45" r="15.31"/><circle class="cls-115" cx="42.48" cy="37.41" r="15.16"/><circle class="cls-116" cx="42.48" cy="37.37" r="15.02"/><circle class="cls-117" cx="42.48" cy="37.33" r="14.87"/><circle class="cls-118" cx="42.48" cy="37.29" r="14.73"/><circle class="cls-119" cx="42.48" cy="37.24" r="14.58"/><circle class="cls-120" cx="42.48" cy="37.2" r="14.44"/><circle class="cls-121" cx="42.48" cy="37.16" r="14.3"/><circle class="cls-121" cx="42.48" cy="37.12" r="14.15"/><circle class="cls-122" cx="42.48" cy="37.08" r="14.01"/><circle class="cls-123" cx="42.48" cy="37.04" r="13.86"/><circle class="cls-124" cx="42.47" cy="36.99" r="13.72"/><circle class="cls-125" cx="42.47" cy="36.95" r="13.57"/><circle class="cls-126" cx="42.47" cy="36.91" r="13.43"/><circle class="cls-127" cx="42.47" cy="36.87" r="13.28"/><circle class="cls-128" cx="42.47" cy="36.83" r="13.14"/><circle class="cls-129" cx="42.47" cy="36.79" r="13"/><circle class="cls-130" cx="42.47" cy="36.74" r="12.85"/><circle class="cls-131" cx="42.47" cy="36.7" r="12.71"/><circle class="cls-132" cx="42.47" cy="36.66" r="12.56"/><circle class="cls-133" cx="42.47" cy="36.62" r="12.42"/><circle class="cls-134" cx="42.47" cy="36.58" r="12.27"/><circle class="cls-135" cx="42.47" cy="36.54" r="12.13"/><circle class="cls-136" cx="42.47" cy="36.5" r="11.98"/><circle class="cls-136" cx="42.47" cy="36.45" r="11.84"/><circle class="cls-137" cx="42.47" cy="36.41" r="11.7"/><circle class="cls-138" cx="42.47" cy="36.37" r="11.55"/><circle class="cls-139" cx="42.47" cy="36.33" r="11.41"/><circle class="cls-140" cx="42.47" cy="36.29" r="11.26"/><circle class="cls-141" cx="42.47" cy="36.25" r="11.12"/><circle class="cls-142" cx="42.47" cy="36.2" r="10.97"/><circle class="cls-143" cx="42.47" cy="36.16" r="10.83"/><circle class="cls-143" cx="42.47" cy="36.12" r="10.69"/><circle class="cls-144" cx="42.47" cy="36.08" r="10.54"/><circle class="cls-145" cx="42.47" cy="36.04" r="10.4"/><circle class="cls-146" cx="42.47" cy="36" r="10.25"/><circle class="cls-147" cx="42.47" cy="35.95" r="10.11"/><circle class="cls-148" cx="42.46" cy="35.91" r="9.96"/><circle class="cls-148" cx="42.46" cy="35.87" r="9.82"/><circle class="cls-149" cx="42.46" cy="35.83" r="9.67"/><circle class="cls-150" cx="42.46" cy="35.79" r="9.53"/><circle class="cls-151" cx="42.46" cy="35.75" r="9.39"/><circle class="cls-152" cx="42.46" cy="35.71" r="9.24"/><circle class="cls-152" cx="42.46" cy="35.66" r="9.1"/><circle class="cls-153" cx="42.46" cy="35.62" r="8.95"/><circle class="cls-154" cx="42.46" cy="35.58" r="8.81"/><circle class="cls-155" cx="42.46" cy="35.54" r="8.66"/><circle class="cls-155" cx="42.46" cy="35.5" r="8.52"/><circle class="cls-156" cx="42.46" cy="35.46" r="8.37"/><circle class="cls-157" cx="42.46" cy="35.41" r="8.23"/><circle class="cls-158" cx="42.46" cy="35.37" r="8.09"/><circle class="cls-158" cx="42.46" cy="35.33" r="7.94"/><circle class="cls-159" cx="42.46" cy="35.29" r="7.8"/><circle class="cls-160" cx="42.46" cy="35.25" r="7.65"/><circle class="cls-161" cx="42.46" cy="35.21" r="7.51"/><circle class="cls-161" cx="42.46" cy="35.16" r="7.36"/><circle class="cls-162" cx="42.46" cy="35.12" r="7.22"/><circle class="cls-163" cx="42.46" cy="35.08" r="7.08"/><circle class="cls-163" cx="42.46" cy="35.04" r="6.93"/><circle class="cls-164" cx="42.46" cy="35" r="6.79"/><circle class="cls-165" cx="42.46" cy="34.96" r="6.64"/><circle class="cls-166" cx="42.46" cy="34.92" r="6.5"/><circle class="cls-167" cx="42.46" cy="34.87" r="6.35"/><circle class="cls-167" cx="42.45" cy="34.83" r="6.21"/><circle class="cls-168" cx="42.45" cy="34.79" r="6.06"/><circle class="cls-169" cx="42.45" cy="34.75" r="5.92"/><circle class="cls-170" cx="42.45" cy="34.71" r="5.78"/><circle class="cls-171" cx="42.45" cy="34.67" r="5.63"/><circle class="cls-171" cx="42.45" cy="34.62" r="5.49"/><circle class="cls-172" cx="42.45" cy="34.58" r="5.34"/><circle class="cls-173" cx="42.45" cy="34.54" r="5.2"/><circle class="cls-174" cx="42.45" cy="34.5" r="5.05"/><circle class="cls-175" cx="42.45" cy="34.46" r="4.91"/><circle class="cls-175" cx="42.45" cy="34.42" r="4.76"/><circle class="cls-175" cx="42.45" cy="34.37" r="4.62"/><circle class="cls-176" cx="42.45" cy="34.33" r="4.48"/><circle class="cls-177" cx="42.45" cy="34.29" r="4.33"/><circle class="cls-178" cx="42.45" cy="34.25" r="4.19"/><circle class="cls-178" cx="42.45" cy="34.21" r="4.04"/><circle class="cls-179" cx="42.45" cy="34.17" r="3.9"/><circle class="cls-179" cx="42.45" cy="34.13" r="3.75"/><circle class="cls-179" cx="42.45" cy="34.08" r="3.61"/><circle class="cls-180" cx="42.45" cy="34.04" r="3.46"/><circle class="cls-180" cx="42.45" cy="34" r="3.32"/><circle class="cls-180" cx="42.45" cy="33.96" r="3.18"/><circle class="cls-181" cx="42.45" cy="33.92" r="3.03"/><circle class="cls-181" cx="42.45" cy="33.88" r="2.89"/><circle class="cls-181" cx="42.45" cy="33.83" r="2.74"/></g></g><polyline class="cls-182" points="59.63 64.39 77.55 64.39 80.93 54.63 57.05 54.63"/><path class="cls-183" d="M77.54,65.35H59.63a1,1,0,0,1,0-1.92H76.86l2.72-7.84H57.05a1,1,0,0,1,0-1.92H80.93a1,1,0,0,1,.78.41.93.93,0,0,1,.12.87l-3.38,9.76A1,1,0,0,1,77.54,65.35Z"/><circle class="cls-182" cx="63.87" cy="73.27" r="2.22"/><path class="cls-183" d="M63.87,76.45a3.18,3.18,0,1,1,3.18-3.18A3.19,3.19,0,0,1,63.87,76.45Zm0-4.45a1.27,1.27,0,1,0,1.26,1.27A1.27,1.27,0,0,0,63.87,72Z"/><circle class="cls-182" cx="74.53" cy="73.27" r="2.22"/><path class="cls-183" d="M74.53,76.45a3.18,3.18,0,1,1,3.18-3.18A3.18,3.18,0,0,1,74.53,76.45Zm0-4.45a1.27,1.27,0,1,0,1.26,1.27A1.27,1.27,0,0,0,74.53,72Z"/><circle class="cls-182" cx="68.02" cy="13.81" r="12.85"/><path class="cls-183" d="M68,27.62A13.81,13.81,0,1,1,81.83,13.81,13.82,13.82,0,0,1,68,27.62Zm0-25.7A11.9,11.9,0,1,0,79.91,13.81,11.91,11.91,0,0,0,68,1.92Z"/><polyline class="cls-182" points="68.02 5.61 68.02 14.48 73.93 14.48"/><path class="cls-183" d="M73.93,15.44H68a1,1,0,0,1-1-1V5.61a1,1,0,1,1,1.91,0v7.92h5a1,1,0,1,1,0,1.91Z"/><path class="cls-182" d="M26.87,56S28.49,71.34,14.4,71.34C1,71.34,1.92,56,1.92,56Z"/><path class="cls-183" d="M14.4,72.3A12.33,12.33,0,0,1,5,68.6C.52,63.84.94,56.27,1,56l.06-.9H27.74l.09.86c0,.31.75,7.7-3.56,12.49C21.94,71,18.62,72.3,14.4,72.3ZM2.86,57C2.9,59,3.33,64,6.4,67.3a10.48,10.48,0,0,0,8,3.09c3.65,0,6.49-1.1,8.44-3.26C25.79,63.86,26,58.94,26,57Z"/><path class="cls-183" d="M29.22,65.77H27.31a1,1,0,1,1,0-1.91h1.91a.28.28,0,0,0,.27-.25l.44-4.47a.25.25,0,0,0-.07-.21.29.29,0,0,0-.2-.09h-.88a1,1,0,1,1,0-1.91h.88a2.2,2.2,0,0,1,2.18,2.4l-.45,4.47A2.17,2.17,0,0,1,29.22,65.77Z"/><path class="cls-183" d="M12.38,53.22A.82.82,0,0,1,12,51.7c.47-.28,1-.79.91-1.23a2.15,2.15,0,0,0-.51-.86,3.51,3.51,0,0,1-.83-1.55,2.34,2.34,0,0,1,.73-2.14.82.82,0,0,1,1.16,0,.81.81,0,0,1,0,1.16c-.36.37-.32.59-.3.68a2.36,2.36,0,0,0,.51.84,3.39,3.39,0,0,1,.85,1.69,3.1,3.1,0,0,1-1.7,2.83A.78.78,0,0,1,12.38,53.22Z"/><path class="cls-183" d="M16.82,53.15a.82.82,0,0,1-.42-1.52c.71-.43,1.39-1.17,1.31-1.87A2.79,2.79,0,0,0,17,48.5a4.46,4.46,0,0,1-1-1.92,2.84,2.84,0,0,1,.9-2.58A.82.82,0,1,1,18,45.15a1.22,1.22,0,0,0-.47,1.12,3.33,3.33,0,0,0,.72,1.21,4.17,4.17,0,0,1,1.06,2.09A3.77,3.77,0,0,1,17.24,53,.79.79,0,0,1,16.82,53.15Z"/><path class="cls-184" d="M24.94,73.48c2.39-.47,3.52-3.66,3.52-3.66H1s.9,3.15,3.59,3.66Z"/><path class="cls-183" d="M24.94,74.44H4.55l-.18,0C1.13,73.81.08,70.23,0,70.08a.94.94,0,0,1,.15-.84A1,1,0,0,1,1,68.86h27.5a1,1,0,0,1,.78.41.93.93,0,0,1,.12.87c-.05.15-1.34,3.71-4.23,4.28ZM4.65,72.52H24.84a3.71,3.71,0,0,0,2.07-1.74H2.45A3.55,3.55,0,0,0,4.65,72.52Z"/><path class="cls-185" d="M42.44,44.74a15.68,15.68,0,0,1-10.91-4.81,1.09,1.09,0,0,1,0-1.54,1.1,1.1,0,0,1,1.55,0,13.36,13.36,0,0,0,9.38,4.18h.12a12.73,12.73,0,0,0,9-4.16,1.1,1.1,0,1,1,1.57,1.53,14.92,14.92,0,0,1-10.59,4.82Z"/><path class="cls-185" d="M35.11,32.56a5.23,5.23,0,0,1-3.76-2.05,1.09,1.09,0,1,1,1.73-1.34,3.07,3.07,0,0,0,2,1.2h0a2.5,2.5,0,0,0,1.81-1.19,1.1,1.1,0,1,1,1.74,1.33A4.49,4.49,0,0,1,35.11,32.56Z"/><path class="cls-185" d="M50.21,32.56h0a5.23,5.23,0,0,1-3.76-2.05,1.1,1.1,0,0,1,1.74-1.34,3.07,3.07,0,0,0,2,1.2h0A2.51,2.51,0,0,0,52,29.18a1.1,1.1,0,1,1,1.74,1.33A4.47,4.47,0,0,1,50.21,32.56Z"/><path class="cls-185" d="M42.34,37.83A2.64,2.64,0,1,1,45,35.2,2.63,2.63,0,0,1,42.34,37.83Zm0-3.08a.45.45,0,1,0,.45.45A.45.45,0,0,0,42.34,34.75Z"/><polyline class="cls-182" points="7.49 1.28 6.22 8.44 8.76 12.02 8.76 26.34 11.29 26.34 11.29 12.02 13.83 8.44 12.56 1.28"/><path class="cls-183" d="M11.29,27.3H8.76a1,1,0,0,1-1-.95v-14L5.44,9a.93.93,0,0,1-.16-.72L6.55,1.11A1,1,0,0,1,7.66.33a1,1,0,0,1,.77,1.11L7.23,8.21l2.31,3.26a1,1,0,0,1,.18.55V25.39h.62V12a1,1,0,0,1,.17-.55l2.31-3.26-1.2-6.77a1,1,0,1,1,1.88-.33l1.27,7.16a.93.93,0,0,1-.16.72l-2.36,3.34v14A1,1,0,0,1,11.29,27.3Z"/><line class="cls-182" x1="10.03" y1="1.28" x2="10.03" y2="8.44"/><path class="cls-183" d="M10,9.4a1,1,0,0,1-1-1V1.28a1,1,0,1,1,1.91,0V8.44A1,1,0,0,1,10,9.4Z"/><path class="cls-182" d="M20.66,26.35H23.2V9.25q0-4,0-8a22.94,22.94,0,0,0-3.63,7.05c-.68,2.23,0,4.08,1.1,6.09Z"/><path class="cls-183" d="M23.2,27.31H20.66a1,1,0,0,1-1-1V14.65c-1-1.84-1.85-4-1.06-6.61A23.76,23.76,0,0,1,22.43.7.94.94,0,0,1,23.49.37a1,1,0,0,1,.66.9q0,3.15,0,6.3V26.35A1,1,0,0,1,23.2,27.31Zm-1.58-1.92h.62V4.48A20.85,20.85,0,0,0,20.48,8.6c-.56,1.82-.05,3.34,1,5.36a1,1,0,0,1,.11.45Z"/><path class="cls-183" d="M77.53,69.39H64.94c-3.37,0-5.69-1.62-6.23-4.33L55.43,52.14h-3.3a1,1,0,1,1,0-1.91h4a1,1,0,0,1,.93.72l3.48,13.69c.49,2.48,2.94,2.84,4.36,2.84H77.53a1,1,0,1,1,0,1.91Z"/></g></g></svg>