<svg xmlns="http://www.w3.org/2000/svg" xmlns:xlink="http://www.w3.org/1999/xlink" viewBox="0 0 97.22 86.16"><defs><style>.cls-1{fill:none;}.cls-2{fill:#25aed4;}.cls-3{clip-path:url(#clip-path);}.cls-4{fill:#e44626;}.cls-5{fill:#e44727;}.cls-6{fill:#e44828;}.cls-7{fill:#e44929;}.cls-8{fill:#e54a2a;}.cls-9{fill:#e54b2b;}.cls-10{fill:#e54c2d;}.cls-11{fill:#e54d2e;}.cls-12{fill:#e54d2f;}.cls-13{fill:#e54e30;}.cls-14{fill:#e54f31;}.cls-15{fill:#e65032;}.cls-16{fill:#e65133;}.cls-17{fill:#e65234;}.cls-18{fill:#e65335;}.cls-19{fill:#e65436;}.cls-20{fill:#e65537;}.cls-21{fill:#e65639;}.cls-22{fill:#e6573a;}.cls-23{fill:#e7583b;}.cls-24{fill:#e7593c;}.cls-25{fill:#e75a3d;}.cls-26{fill:#e75a3e;}.cls-27{fill:#e75b3f;}.cls-28{fill:#e75c40;}.cls-29{fill:#e75d41;}.cls-30{fill:#e85e42;}.cls-31{fill:#e85f43;}.cls-32{fill:#e86045;}.cls-33{fill:#e86146;}.cls-34{fill:#e86247;}.cls-35{fill:#e86348;}.cls-36{fill:#e86449;}.cls-37{fill:#e9654a;}.cls-38{fill:#e9664b;}.cls-39{fill:#e9664c;}.cls-40{fill:#e9674d;}.cls-41{fill:#e9684e;}.cls-42{fill:#e9694f;}.cls-43{fill:#e96a50;}.cls-44{fill:#e96b51;}.cls-45{fill:#ea6c53;}.cls-46{fill:#ea6d54;}.cls-47{fill:#ea6e55;}.cls-48{fill:#ea6f56;}.cls-49{fill:#ea7057;}.cls-50{fill:#ea7058;}.cls-51{fill:#ea7159;}.cls-52{fill:#eb725a;}.cls-53{fill:#eb735b;}.cls-54{fill:#eb745c;}.cls-55{fill:#eb755d;}.cls-56{fill:#eb765e;}.cls-57{fill:#eb775f;}.cls-58{fill:#eb7860;}.cls-59{fill:#ec7961;}.cls-60{fill:#ec7a63;}.cls-61{fill:#ec7a64;}.cls-62{fill:#ec7b65;}.cls-63{fill:#ec7c66;}.cls-64{fill:#ec7d67;}.cls-65{fill:#ec7e68;}.cls-66{fill:#ec7f69;}.cls-67{fill:#ed806a;}.cls-68{fill:#ed816b;}.cls-69{fill:#ed826c;}.cls-70{fill:#ed836d;}.cls-71{fill:#ed836e;}.cls-72{fill:#ed846f;}.cls-73{fill:#ed8570;}.cls-74{fill:#ee8671;}.cls-75{fill:#ee8772;}.cls-76{fill:#ee8873;}.cls-77{fill:#ee8974;}.cls-78{fill:#ee8a75;}.cls-79{fill:#ee8b77;}.cls-80{fill:#ee8b78;}.cls-81{fill:#ee8c79;}.cls-82{fill:#ef8d7a;}.cls-83{fill:#ef8e7b;}.cls-84{fill:#ef8f7c;}.cls-85{fill:#ef907d;}.cls-86{fill:#ef917e;}.cls-87{fill:#ef927f;}.cls-88{fill:#ef9380;}.cls-89{fill:#ef9381;}.cls-90{fill:#f09482;}.cls-91{fill:#f09583;}.cls-92{fill:#f09684;}.cls-93{fill:#f09785;}.cls-94{fill:#f09886;}.cls-95{fill:#f09987;}.cls-96{fill:#f09a88;}.cls-97{fill:#f19a89;}.cls-98{fill:#f19b8a;}.cls-99{fill:#f19c8b;}.cls-100{fill:#f19d8c;}.cls-101{fill:#f19e8d;}.cls-102{fill:#f19f8e;}.cls-103{fill:#f1a08f;}.cls-104{fill:#f1a190;}.cls-105{fill:#f2a191;}.cls-106{fill:#f2a292;}.cls-107{fill:#f2a393;}.cls-108{fill:#f2a494;}.cls-109{fill:#f2a595;}.cls-110{fill:#f2a696;}.cls-111{fill:#f2a797;}.cls-112{fill:#f2a798;}.cls-113{fill:#f3a899;}.cls-114{fill:#f3a99a;}.cls-115{fill:#f3aa9c;}.cls-116{fill:#f3ab9d;}.cls-117{fill:#f3ac9e;}.cls-118{fill:#f3ad9f;}.cls-119{fill:#f3ada0;}.cls-120{fill:#f3aea1;}.cls-121{fill:#f4afa2;}.cls-122{fill:#f4b0a3;}.cls-123{fill:#f4b1a4;}.cls-124{fill:#f4b2a5;}.cls-125{fill:#f4b3a5;}.cls-126{fill:#f4b3a6;}.cls-127{fill:#f4b4a7;}.cls-128{fill:#f4b5a8;}.cls-129{fill:#f5b6a9;}.cls-130{fill:#f5b7aa;}.cls-131{fill:#f5b8ab;}.cls-132{fill:#f5b8ac;}.cls-133{fill:#f5b9ad;}.cls-134{fill:#f5baae;}.cls-135{fill:#f5bbaf;}.cls-136{fill:#f5bcb0;}.cls-137{fill:#f6bdb1;}.cls-138{fill:#f6bdb2;}.cls-139{fill:#f6beb3;}.cls-140{fill:#f6bfb4;}.cls-141{fill:#f6c0b5;}.cls-142{fill:#f6c1b6;}.cls-143{fill:#f6c2b7;}.cls-144{fill:#f6c2b8;}.cls-145{fill:#f7c3b9;}.cls-146{fill:#f7c4ba;}.cls-147{fill:#f7c5bb;}.cls-148{fill:#f7c6bc;}.cls-149{fill:#f7c6bd;}.cls-150{fill:#f7c7be;}.cls-151{fill:#f7c8bf;}.cls-152{fill:#f7c9c0;}.cls-153{fill:#f8cac1;}.cls-154{fill:#f8cbc2;}.cls-155{fill:#f8ccc3;}.cls-156{fill:#f8cdc4;}.cls-157{fill:#f8cec5;}.cls-158{fill:#f8cec6;}.cls-159{fill:#f8cfc7;}.cls-160{fill:#f8d0c8;}.cls-161{fill:#f9d1c9;}.cls-162{fill:#f9d1ca;}.cls-163{fill:#f9d2cb;}.cls-164{fill:#f9d3cc;}.cls-165{fill:#f9d4cc;}.cls-166{fill:#f9d5cd;}.cls-167{fill:#f9d5ce;}.cls-168{fill:#f9d6cf;}.cls-169{fill:#f9d7d0;}.cls-170{fill:#fad8d1;}.cls-171{fill:#fad8d2;}.cls-172{fill:#fad9d3;}.cls-173{fill:#fadad3;}.cls-174{fill:#fadad4;}.cls-175{fill:#fadbd5;}.cls-176{fill:#fadcd6;}.cls-177{fill:#faddd7;}.cls-178{fill:#faddd8;}.cls-179{fill:#fbded8;}.cls-180{fill:#fbdfd9;}.cls-181{fill:#fbdfda;}.cls-182{fill:#fbe0db;}.cls-183{fill:#fbe1dc;}.cls-184{fill:#3c354a;}.cls-185{fill:#fff;}</style><clipPath id="clip-path"><path class="cls-1" d="M82.76,40.42c-2.13,12.66-29.2,34.51-29.2,34.51s-27.84-23.3-29.2-34.51c-.84-6.91-.1-14.11,8-19s15.88.38,15.88.38l5.31,5.31,5.31-5.31s7.82-4.87,15.93,0S83.72,34.74,82.76,40.42Z"/></clipPath></defs><g id="Layer_2" data-name="Layer 2"><g id="Layer_1-2" data-name="Layer 1"><path class="cls-2" d="M61.06,12.52h0a1,1,0,0,1-.9-.62l-.65-1.75A5.76,5.76,0,0,0,58,8L56.87,7a1,1,0,0,1-.31-.68,1,1,0,0,1,.27-.7l1.44-1.48a9,9,0,0,0,1.42-2.23L60.16.62A1,1,0,0,1,61.05,0h0A1,1,0,0,1,62,.61l.48,1.21A10.27,10.27,0,0,0,64,4.28l1.3,1.3a1,1,0,0,1,.28.72.92.92,0,0,1-.34.69l-1.11.93a6.47,6.47,0,0,0-1.54,2.36L62,11.9A1,1,0,0,1,61.06,12.52ZM58.9,6.22l.4.37a7.67,7.67,0,0,1,1.77,2.34,7.71,7.71,0,0,1,1.79-2.47l.32-.26-.56-.56A10.77,10.77,0,0,1,61.07,3.4a10.45,10.45,0,0,1-1.43,2.05Z"/><path class="cls-2" d="M20.6,70.93h0a1.09,1.09,0,0,1-1-.75L19,68.4a5.73,5.73,0,0,0-1.33-2.15l-1-1.06a1.1,1.1,0,0,1,0-1.48l1.3-1.5A9.71,9.71,0,0,0,19.13,60l.43-1.28a1.07,1.07,0,0,1,1-.75,1.05,1.05,0,0,1,1,.73l.43,1.24a10.5,10.5,0,0,0,1.38,2.48l1.17,1.32a1.09,1.09,0,0,1-.07,1.52l-1,1a6.49,6.49,0,0,0-1.35,2.36l-.56,1.65A1.1,1.1,0,0,1,20.6,70.93Zm-1.72-6.55.33.34a8.05,8.05,0,0,1,1.39,1.94A7.48,7.48,0,0,1,22,64.59l.25-.23-.47-.53A9.64,9.64,0,0,1,20.61,62a9.73,9.73,0,0,1-1.08,1.66Z"/><path class="cls-2" d="M83.74,86.16h0a1.1,1.1,0,0,1-1-.71l-.87-2.33a7.75,7.75,0,0,0-2-2.93L78.27,78.8a1.1,1.1,0,0,1-.36-.77,1.08,1.08,0,0,1,.31-.8l1.92-2a12.3,12.3,0,0,0,1.94-3l.63-1.69a1.11,1.11,0,0,1,1-.71,1.13,1.13,0,0,1,1,.7l.65,1.62a13.84,13.84,0,0,0,2.1,3.34l1.74,1.73a1.09,1.09,0,0,1,.32.82,1.08,1.08,0,0,1-.39.79l-1.49,1.25a8.7,8.7,0,0,0-2.1,3.2l-.82,2.17A1.1,1.1,0,0,1,83.74,86.16ZM80.58,78l.68.62A9.86,9.86,0,0,1,83.75,82a10.49,10.49,0,0,1,2.52-3.61l.57-.47L86,77a14.36,14.36,0,0,1-2.2-3.25,13.78,13.78,0,0,1-2.05,3Z"/><path class="cls-2" d="M90.31,31.29a2.94,2.94,0,1,1,2.94-2.93A2.94,2.94,0,0,1,90.31,31.29Zm0-3.68a.75.75,0,1,0,.75.75A.75.75,0,0,0,90.31,27.61Z"/><g class="cls-3"><rect class="cls-4" x="23.52" y="16.59" width="60.2" height="58.34"/><ellipse class="cls-4" cx="53.56" cy="45.74" rx="25.28" ry="24.21"/><ellipse class="cls-5" cx="53.56" cy="45.72" rx="25.15" ry="24.09"/><ellipse class="cls-6" cx="53.56" cy="45.71" rx="25.03" ry="23.97"/><ellipse class="cls-7" cx="53.56" cy="45.69" rx="24.9" ry="23.85"/><ellipse class="cls-8" cx="53.56" cy="45.67" rx="24.78" ry="23.73"/><ellipse class="cls-9" cx="53.56" cy="45.66" rx="24.65" ry="23.61"/><ellipse class="cls-10" cx="53.56" cy="45.64" rx="24.53" ry="23.49"/><ellipse class="cls-11" cx="53.56" cy="45.62" rx="24.4" ry="23.38"/><ellipse class="cls-12" cx="53.56" cy="45.61" rx="24.28" ry="23.26"/><ellipse class="cls-13" cx="53.56" cy="45.59" rx="24.15" ry="23.14"/><ellipse class="cls-14" cx="53.56" cy="45.57" rx="24.03" ry="23.02"/><ellipse class="cls-15" cx="53.56" cy="45.56" rx="23.9" ry="22.9"/><ellipse class="cls-16" cx="53.56" cy="45.54" rx="23.78" ry="22.78"/><ellipse class="cls-17" cx="53.56" cy="45.52" rx="23.65" ry="22.66"/><ellipse class="cls-18" cx="53.56" cy="45.5" rx="23.53" ry="22.54"/><ellipse class="cls-19" cx="53.56" cy="45.49" rx="23.4" ry="22.42"/><ellipse class="cls-20" cx="53.56" cy="45.47" rx="23.28" ry="22.3"/><ellipse class="cls-21" cx="53.56" cy="45.45" rx="23.15" ry="22.18"/><ellipse class="cls-22" cx="53.56" cy="45.44" rx="23.03" ry="22.06"/><ellipse class="cls-23" cx="53.56" cy="45.42" rx="22.9" ry="21.94"/><ellipse class="cls-24" cx="53.56" cy="45.4" rx="22.78" ry="21.82"/><ellipse class="cls-25" cx="53.56" cy="45.39" rx="22.65" ry="21.7"/><ellipse class="cls-26" cx="53.56" cy="45.37" rx="22.53" ry="21.58"/><ellipse class="cls-27" cx="53.56" cy="45.35" rx="22.4" ry="21.46"/><ellipse class="cls-28" cx="53.56" cy="45.34" rx="22.28" ry="21.34"/><ellipse class="cls-29" cx="53.56" cy="45.32" rx="22.15" ry="21.22"/><ellipse class="cls-30" cx="53.56" cy="45.3" rx="22.03" ry="21.1"/><ellipse class="cls-31" cx="53.56" cy="45.28" rx="21.9" ry="20.98"/><ellipse class="cls-32" cx="53.56" cy="45.27" rx="21.78" ry="20.86"/><ellipse class="cls-33" cx="53.56" cy="45.25" rx="21.65" ry="20.74"/><ellipse class="cls-34" cx="53.56" cy="45.23" rx="21.53" ry="20.62"/><ellipse class="cls-35" cx="53.55" cy="45.22" rx="21.4" ry="20.5"/><ellipse class="cls-36" cx="53.55" cy="45.2" rx="21.28" ry="20.38"/><ellipse class="cls-37" cx="53.55" cy="45.18" rx="21.15" ry="20.26"/><ellipse class="cls-38" cx="53.55" cy="45.17" rx="21.03" ry="20.14"/><ellipse class="cls-39" cx="53.55" cy="45.15" rx="20.9" ry="20.02"/><ellipse class="cls-40" cx="53.55" cy="45.13" rx="20.78" ry="19.9"/><ellipse class="cls-41" cx="53.55" cy="45.12" rx="20.65" ry="19.78"/><ellipse class="cls-42" cx="53.55" cy="45.1" rx="20.53" ry="19.66"/><ellipse class="cls-43" cx="53.55" cy="45.08" rx="20.4" ry="19.54"/><ellipse class="cls-44" cx="53.55" cy="45.07" rx="20.28" ry="19.42"/><ellipse class="cls-45" cx="53.55" cy="45.05" rx="20.15" ry="19.3"/><ellipse class="cls-46" cx="53.55" cy="45.03" rx="20.03" ry="19.18"/><ellipse class="cls-47" cx="53.55" cy="45.01" rx="19.9" ry="19.06"/><ellipse class="cls-48" cx="53.55" cy="45" rx="19.78" ry="18.94"/><ellipse class="cls-49" cx="53.55" cy="44.98" rx="19.65" ry="18.82"/><ellipse class="cls-50" cx="53.55" cy="44.96" rx="19.53" ry="18.7"/><ellipse class="cls-51" cx="53.55" cy="44.95" rx="19.4" ry="18.58"/><ellipse class="cls-52" cx="53.55" cy="44.93" rx="19.28" ry="18.46"/><ellipse class="cls-53" cx="53.55" cy="44.91" rx="19.15" ry="18.35"/><ellipse class="cls-54" cx="53.55" cy="44.9" rx="19.03" ry="18.23"/><ellipse class="cls-55" cx="53.55" cy="44.88" rx="18.9" ry="18.11"/><ellipse class="cls-56" cx="53.55" cy="44.86" rx="18.78" ry="17.99"/><ellipse class="cls-57" cx="53.55" cy="44.85" rx="18.65" ry="17.87"/><ellipse class="cls-58" cx="53.55" cy="44.83" rx="18.53" ry="17.75"/><ellipse class="cls-59" cx="53.55" cy="44.81" rx="18.4" ry="17.63"/><ellipse class="cls-60" cx="53.55" cy="44.8" rx="18.28" ry="17.51"/><ellipse class="cls-61" cx="53.55" cy="44.78" rx="18.15" ry="17.39"/><ellipse class="cls-62" cx="53.55" cy="44.76" rx="18.03" ry="17.27"/><ellipse class="cls-63" cx="53.55" cy="44.74" rx="17.9" ry="17.15"/><ellipse class="cls-64" cx="53.55" cy="44.73" rx="17.78" ry="17.03"/><ellipse class="cls-65" cx="53.55" cy="44.71" rx="17.65" ry="16.91"/><ellipse class="cls-66" cx="53.55" cy="44.69" rx="17.53" ry="16.79"/><ellipse class="cls-67" cx="53.55" cy="44.68" rx="17.4" ry="16.67"/><ellipse class="cls-68" cx="53.55" cy="44.66" rx="17.28" ry="16.55"/><ellipse class="cls-69" cx="53.55" cy="44.64" rx="17.15" ry="16.43"/><ellipse class="cls-70" cx="53.55" cy="44.63" rx="17.03" ry="16.31"/><ellipse class="cls-71" cx="53.55" cy="44.61" rx="16.9" ry="16.19"/><ellipse class="cls-72" cx="53.55" cy="44.59" rx="16.78" ry="16.07"/><ellipse class="cls-73" cx="53.54" cy="44.58" rx="16.65" ry="15.95"/><ellipse class="cls-74" cx="53.54" cy="44.56" rx="16.53" ry="15.83"/><ellipse class="cls-75" cx="53.54" cy="44.54" rx="16.4" ry="15.71"/><ellipse class="cls-76" cx="53.54" cy="44.52" rx="16.28" ry="15.59"/><ellipse class="cls-77" cx="53.54" cy="44.51" rx="16.15" ry="15.47"/><ellipse class="cls-78" cx="53.54" cy="44.49" rx="16.03" ry="15.35"/><ellipse class="cls-79" cx="53.54" cy="44.47" rx="15.9" ry="15.23"/><ellipse class="cls-80" cx="53.54" cy="44.46" rx="15.78" ry="15.11"/><ellipse class="cls-81" cx="53.54" cy="44.44" rx="15.65" ry="14.99"/><ellipse class="cls-82" cx="53.54" cy="44.42" rx="15.53" ry="14.87"/><ellipse class="cls-83" cx="53.54" cy="44.41" rx="15.4" ry="14.75"/><ellipse class="cls-84" cx="53.54" cy="44.39" rx="15.28" ry="14.63"/><ellipse class="cls-85" cx="53.54" cy="44.37" rx="15.15" ry="14.51"/><ellipse class="cls-86" cx="53.54" cy="44.36" rx="15.03" ry="14.39"/><ellipse class="cls-87" cx="53.54" cy="44.34" rx="14.9" ry="14.27"/><ellipse class="cls-88" cx="53.54" cy="44.32" rx="14.78" ry="14.15"/><ellipse class="cls-89" cx="53.54" cy="44.31" rx="14.65" ry="14.03"/><ellipse class="cls-90" cx="53.54" cy="44.29" rx="14.53" ry="13.91"/><ellipse class="cls-91" cx="53.54" cy="44.27" rx="14.4" ry="13.79"/><ellipse class="cls-92" cx="53.54" cy="44.25" rx="14.28" ry="13.67"/><ellipse class="cls-93" cx="53.54" cy="44.24" rx="14.15" ry="13.55"/><ellipse class="cls-94" cx="53.54" cy="44.22" rx="14.03" ry="13.43"/><ellipse class="cls-95" cx="53.54" cy="44.2" rx="13.9" ry="13.32"/><ellipse class="cls-96" cx="53.54" cy="44.19" rx="13.78" ry="13.2"/><ellipse class="cls-97" cx="53.54" cy="44.17" rx="13.65" ry="13.08"/><ellipse class="cls-98" cx="53.54" cy="44.15" rx="13.53" ry="12.96"/><ellipse class="cls-99" cx="53.54" cy="44.14" rx="13.4" ry="12.84"/><ellipse class="cls-100" cx="53.54" cy="44.12" rx="13.28" ry="12.72"/><ellipse class="cls-101" cx="53.54" cy="44.1" rx="13.15" ry="12.6"/><ellipse class="cls-102" cx="53.54" cy="44.09" rx="13.03" ry="12.48"/><ellipse class="cls-103" cx="53.54" cy="44.07" rx="12.9" ry="12.36"/><ellipse class="cls-104" cx="53.54" cy="44.05" rx="12.78" ry="12.24"/><ellipse class="cls-105" cx="53.54" cy="44.04" rx="12.65" ry="12.12"/><ellipse class="cls-106" cx="53.54" cy="44.02" rx="12.53" ry="12"/><ellipse class="cls-107" cx="53.54" cy="44" rx="12.4" ry="11.88"/><ellipse class="cls-108" cx="53.54" cy="43.98" rx="12.28" ry="11.76"/><ellipse class="cls-109" cx="53.54" cy="43.97" rx="12.15" ry="11.64"/><ellipse class="cls-110" cx="53.54" cy="43.95" rx="12.03" ry="11.52"/><ellipse class="cls-111" cx="53.54" cy="43.93" rx="11.9" ry="11.4"/><ellipse class="cls-112" cx="53.53" cy="43.92" rx="11.78" ry="11.28"/><ellipse class="cls-113" cx="53.53" cy="43.9" rx="11.65" ry="11.16"/><ellipse class="cls-114" cx="53.53" cy="43.88" rx="11.53" ry="11.04"/><ellipse class="cls-115" cx="53.53" cy="43.87" rx="11.4" ry="10.92"/><ellipse class="cls-116" cx="53.53" cy="43.85" rx="11.28" ry="10.8"/><ellipse class="cls-117" cx="53.53" cy="43.83" rx="11.15" ry="10.68"/><ellipse class="cls-118" cx="53.53" cy="43.82" rx="11.03" ry="10.56"/><ellipse class="cls-119" cx="53.53" cy="43.8" rx="10.9" ry="10.44"/><ellipse class="cls-120" cx="53.53" cy="43.78" rx="10.78" ry="10.32"/><ellipse class="cls-121" cx="53.53" cy="43.76" rx="10.65" ry="10.2"/><ellipse class="cls-122" cx="53.53" cy="43.75" rx="10.53" ry="10.08"/><ellipse class="cls-123" cx="53.53" cy="43.73" rx="10.4" ry="9.96"/><ellipse class="cls-124" cx="53.53" cy="43.71" rx="10.28" ry="9.84"/><ellipse class="cls-125" cx="53.53" cy="43.7" rx="10.15" ry="9.72"/><ellipse class="cls-126" cx="53.53" cy="43.68" rx="10.03" ry="9.6"/><ellipse class="cls-127" cx="53.53" cy="43.66" rx="9.9" ry="9.48"/><ellipse class="cls-128" cx="53.53" cy="43.65" rx="9.77" ry="9.36"/><ellipse class="cls-129" cx="53.53" cy="43.63" rx="9.65" ry="9.24"/><ellipse class="cls-130" cx="53.53" cy="43.61" rx="9.52" ry="9.12"/><ellipse class="cls-131" cx="53.53" cy="43.6" rx="9.4" ry="9"/><ellipse class="cls-132" cx="53.53" cy="43.58" rx="9.27" ry="8.88"/><ellipse class="cls-133" cx="53.53" cy="43.56" rx="9.15" ry="8.76"/><ellipse class="cls-134" cx="53.53" cy="43.55" rx="9.02" ry="8.64"/><ellipse class="cls-135" cx="53.53" cy="43.53" rx="8.9" ry="8.52"/><ellipse class="cls-136" cx="53.53" cy="43.51" rx="8.77" ry="8.4"/><ellipse class="cls-137" cx="53.53" cy="43.49" rx="8.65" ry="8.29"/><ellipse class="cls-138" cx="53.53" cy="43.48" rx="8.52" ry="8.17"/><ellipse class="cls-139" cx="53.53" cy="43.46" rx="8.4" ry="8.05"/><ellipse class="cls-140" cx="53.53" cy="43.44" rx="8.27" ry="7.93"/><ellipse class="cls-141" cx="53.53" cy="43.43" rx="8.15" ry="7.81"/><ellipse class="cls-142" cx="53.53" cy="43.41" rx="8.02" ry="7.69"/><ellipse class="cls-143" cx="53.53" cy="43.39" rx="7.9" ry="7.57"/><ellipse class="cls-144" cx="53.53" cy="43.38" rx="7.77" ry="7.45"/><ellipse class="cls-145" cx="53.53" cy="43.36" rx="7.65" ry="7.33"/><ellipse class="cls-146" cx="53.53" cy="43.34" rx="7.52" ry="7.21"/><ellipse class="cls-147" cx="53.53" cy="43.33" rx="7.4" ry="7.09"/><ellipse class="cls-148" cx="53.53" cy="43.31" rx="7.27" ry="6.97"/><ellipse class="cls-149" cx="53.53" cy="43.29" rx="7.15" ry="6.85"/><ellipse class="cls-150" cx="53.53" cy="43.28" rx="7.02" ry="6.73"/><ellipse class="cls-151" cx="53.52" cy="43.26" rx="6.9" ry="6.61"/><ellipse class="cls-152" cx="53.52" cy="43.24" rx="6.77" ry="6.49"/><ellipse class="cls-153" cx="53.52" cy="43.22" rx="6.65" ry="6.37"/><ellipse class="cls-153" cx="53.52" cy="43.21" rx="6.52" ry="6.25"/><ellipse class="cls-154" cx="53.52" cy="43.19" rx="6.4" ry="6.13"/><ellipse class="cls-155" cx="53.52" cy="43.17" rx="6.27" ry="6.01"/><ellipse class="cls-156" cx="53.52" cy="43.16" rx="6.15" ry="5.89"/><ellipse class="cls-157" cx="53.52" cy="43.14" rx="6.02" ry="5.77"/><ellipse class="cls-158" cx="53.52" cy="43.12" rx="5.9" ry="5.65"/><ellipse class="cls-159" cx="53.52" cy="43.11" rx="5.77" ry="5.53"/><ellipse class="cls-160" cx="53.52" cy="43.09" rx="5.65" ry="5.41"/><ellipse class="cls-161" cx="53.52" cy="43.07" rx="5.52" ry="5.29"/><ellipse class="cls-162" cx="53.52" cy="43.06" rx="5.4" ry="5.17"/><ellipse class="cls-163" cx="53.52" cy="43.04" rx="5.27" ry="5.05"/><ellipse class="cls-164" cx="53.52" cy="43.02" rx="5.15" ry="4.93"/><ellipse class="cls-165" cx="53.52" cy="43" rx="5.02" ry="4.81"/><ellipse class="cls-166" cx="53.52" cy="42.99" rx="4.9" ry="4.69"/><ellipse class="cls-167" cx="53.52" cy="42.97" rx="4.77" ry="4.57"/><ellipse class="cls-168" cx="53.52" cy="42.95" rx="4.65" ry="4.45"/><ellipse class="cls-169" cx="53.52" cy="42.94" rx="4.52" ry="4.33"/><ellipse class="cls-170" cx="53.52" cy="42.92" rx="4.4" ry="4.21"/><ellipse class="cls-171" cx="53.52" cy="42.9" rx="4.27" ry="4.09"/><ellipse class="cls-172" cx="53.52" cy="42.89" rx="4.15" ry="3.97"/><ellipse class="cls-173" cx="53.52" cy="42.87" rx="4.02" ry="3.85"/><ellipse class="cls-174" cx="53.52" cy="42.85" rx="3.9" ry="3.73"/><ellipse class="cls-175" cx="53.52" cy="42.84" rx="3.77" ry="3.61"/><ellipse class="cls-176" cx="53.52" cy="42.82" rx="3.65" ry="3.49"/><ellipse class="cls-177" cx="53.52" cy="42.8" rx="3.52" ry="3.37"/><ellipse class="cls-178" cx="53.52" cy="42.79" rx="3.4" ry="3.26"/><ellipse class="cls-179" cx="53.52" cy="42.77" rx="3.27" ry="3.14"/><ellipse class="cls-180" cx="53.52" cy="42.75" rx="3.15" ry="3.02"/><ellipse class="cls-181" cx="53.52" cy="42.73" rx="3.02" ry="2.9"/><ellipse class="cls-182" cx="53.52" cy="42.72" rx="2.9" ry="2.78"/><ellipse class="cls-182" cx="53.52" cy="42.7" rx="2.77" ry="2.66"/><ellipse class="cls-183" cx="53.52" cy="42.68" rx="2.65" ry="2.54"/></g><path class="cls-2" d="M41.36,12.89A2.6,2.6,0,1,1,44,10.29,2.6,2.6,0,0,1,41.36,12.89Zm0-3.27a.68.68,0,1,0,.67.67A.67.67,0,0,0,41.36,9.62Z"/><path class="cls-184" d="M53.05,48.42a15.08,15.08,0,0,1-10.46-4.61,1.09,1.09,0,0,1,0-1.55,1.08,1.08,0,0,1,1.54,0,12.58,12.58,0,0,0,9,4,12.21,12.21,0,0,0,8.6-4,1.09,1.09,0,0,1,1.57,1.52,14.29,14.29,0,0,1-10.15,4.63Z"/><path class="cls-184" d="M46,36.78a5.06,5.06,0,0,1-3.63-2,1.1,1.1,0,0,1,1.74-1.33,2.72,2.72,0,0,0,1.9,1.12,2.29,2.29,0,0,0,1.68-1.12,1.1,1.1,0,0,1,1.54-.2,1.09,1.09,0,0,1,.2,1.53A4.32,4.32,0,0,1,46,36.78Z"/><path class="cls-184" d="M60.47,36.78a5,5,0,0,1-3.63-2,1.09,1.09,0,0,1,1.73-1.33,2.93,2.93,0,0,0,1.9,1.12h0a2.31,2.31,0,0,0,1.69-1.12A1.1,1.1,0,0,1,63.9,34.8,4.33,4.33,0,0,1,60.47,36.78Z"/><path class="cls-184" d="M53,41.82a2.57,2.57,0,1,1,2.57-2.57A2.58,2.58,0,0,1,53,41.82Zm0-2.94a.38.38,0,1,0,.38.37A.38.38,0,0,0,53,38.88Z"/><path class="cls-2" d="M9.39,58a3,3,0,1,1,3-3A3,3,0,0,1,9.39,58Zm0-3.83a.82.82,0,1,0,.82.82A.82.82,0,0,0,9.39,54.19Z"/><polygon class="cls-185" points="14.45 34.26 25.86 36.43 30.78 37.93 31.15 40.05 28.51 41.15 34.67 44.71 37.66 47.25 37.67 48.48 35.49 48.7 34.23 48.11 36.73 50.08 37.3 51.96 35.24 52.3 36.06 54.2 35.1 54.9 33.49 54.9 34.67 55.9 33.95 56.68 29.52 56.01 21.68 53.54 15.54 50.94 7.63 45.95 0.66 40.72 14.45 34.26"/><polygon class="cls-185" points="82.87 50.37 75.15 52.04 68.01 53.44 66.26 55.06 67.25 56.63 69.81 56.63 62.26 61.39 59.92 63.89 60.79 64.97 63.48 64.25 61.44 65.88 60.3 66.82 60.46 68.07 61.91 68.53 62.52 68.42 61.71 69.7 61.71 71.01 63.1 71.01 64.2 70.71 63.16 71.66 64.06 72.79 73.08 70.93 81.67 67.12 90.39 60.93 96.58 55.71 82.87 50.37"/><path class="cls-184" d="M24.77,40.58a14.67,14.67,0,0,0,4.4,1.15c1.76,0,3.62-1.37,2.69-3.28s-3.67-2.18-5.56-2.54-3.62-.56-5.42-.83a30.59,30.59,0,0,1-5.75-1.42c-1-.36-1.42,1.23-.43,1.58a42.85,42.85,0,0,0,8.54,1.81c1.83.27,3.65.61,5.45,1.06.6.15,1.69.49,1.77,1.25.07.56-.73.72-1.14.73A12.58,12.58,0,0,1,25.21,39c-1-.34-1.44,1.25-.44,1.58Z"/><path class="cls-184" d="M24.58,40.5a61.91,61.91,0,0,1,9.23,4.93c.63.41,1.27.82,1.86,1.27a3.19,3.19,0,0,1,1.12,1.19c.24.64-.73.26-1.06.17a22.68,22.68,0,0,1-2.51-1c-1-.42-1.8,1-.83,1.42a19.45,19.45,0,0,0,3.12,1.23,2.4,2.4,0,0,0,2.56-.44c1.2-1.41-.36-3.06-1.46-3.9A54.31,54.31,0,0,0,25.4,39.08c-1-.41-1.79,1-.82,1.42Z"/><path class="cls-184" d="M27.92,46.18a49.72,49.72,0,0,1,6,3.24q.67.44,1.35.9a4,4,0,0,1,1.11.89c.52.79-.63.59-1.05.5-1-.24-1.47,1.35-.44,1.58s2.77.26,3.18-1.14-.78-2.44-1.84-3.16a50.56,50.56,0,0,0-7.44-4.23.85.85,0,0,0-1.13.29.84.84,0,0,0,.3,1.13Z"/><path class="cls-184" d="M26.54,49a48.94,48.94,0,0,1,5.23,2.6,26.53,26.53,0,0,1,2.33,1.44,3.15,3.15,0,0,1,.76.7,1.52,1.52,0,0,1,.18.36.78.78,0,0,1,0,.21c0,.14.11-.12,0,.07l.3-.29c-.53.4-1.53.1-2-.19a.82.82,0,0,0-.83,1.42,4.4,4.4,0,0,0,2.06.57,2.25,2.25,0,0,0,1.94-.68c.82-1.21-.26-2.64-1.21-3.37a28.33,28.33,0,0,0-3.73-2.27q-2-1.1-4.13-2a.86.86,0,0,0-1.13.29.84.84,0,0,0,.3,1.13Z"/><path class="cls-184" d="M.28,41.49c5.5,4.56,11.15,9,17.8,11.8a76.63,76.63,0,0,0,9.09,3.22c1.39.38,2.8.68,4.22.93,1.21.21,3.24.67,3.82-.85a1.88,1.88,0,0,0-.9-2.16,27.94,27.94,0,0,0-2.7-1.71A41.09,41.09,0,0,0,25.79,50c-1-.38-1.41,1.21-.43,1.58A37.73,37.73,0,0,1,30,53.72c.7.37,1.38.77,2,1.19.36.22.7.45,1,.68a4.46,4.46,0,0,1,.43.33c.17.13.18,0,.09.07-.38.26-1.3-.05-1.69-.12q-1-.18-2.07-.39-1.74-.37-3.45-.9A59.07,59.07,0,0,1,10.2,47.09c-3-2.08-5.92-4.41-8.76-6.76-.81-.67-2,.49-1.16,1.16Z"/><path class="cls-184" d="M72.38,54.92A17.89,17.89,0,0,1,68.81,56a1.92,1.92,0,0,1-1.48-.27c-.63-.57.41-1.29.91-1.49a15.91,15.91,0,0,1,2.84-.69c.87-.18,1.75-.33,2.64-.47,1.4-.22,2.81-.38,4.22-.61a28.52,28.52,0,0,0,5-1.3c1-.35.56-1.94-.44-1.58-3.37,1.2-6.84,1.48-10.34,2.1-1.14.2-2.27.43-3.4.7a4.66,4.66,0,0,0-2.56,1.34,2.26,2.26,0,0,0-.35,2.73,2.76,2.76,0,0,0,2,1.17c1.72.21,3.39-.58,5-1.12,1-.33.57-1.92-.44-1.58Z"/><path class="cls-184" d="M72.19,55A54.14,54.14,0,0,0,61,61.29c-1.1.83-2.66,2.48-1.46,3.89a2.4,2.4,0,0,0,2.56.44,19.45,19.45,0,0,0,3.12-1.23c1-.42.14-1.83-.83-1.42A22.77,22.77,0,0,1,62,64c-.33.1-1.42.53-1.17-.14a3.25,3.25,0,0,1,1.06-1.15c.61-.47,1.28-.89,1.92-1.31A62,62,0,0,1,73,56.42c1-.42.13-1.83-.83-1.42Z"/><path class="cls-184" d="M68.84,60.68a50.56,50.56,0,0,0-7.44,4.23c-1,.72-2.27,1.71-1.84,3.16s2,1.41,3.18,1.14.6-1.81-.43-1.58c-.41.09-1.55.3-1.07-.47a3.49,3.49,0,0,1,1.06-.88q.69-.48,1.41-.93a50.58,50.58,0,0,1,6-3.25A.83.83,0,0,0,70,61a.84.84,0,0,0-1.13-.29Z"/><path class="cls-184" d="M70.22,63.52c-1.38.59-2.74,1.24-4.06,2a28.24,28.24,0,0,0-3.8,2.3c-.93.72-2,2.12-1.24,3.33a2.21,2.21,0,0,0,2,.72,4.36,4.36,0,0,0,2.06-.57.82.82,0,0,0-.83-1.42c-.52.29-1.52.6-2,.19l.29.29c-.07-.08-.06-.11,0,0a.79.79,0,0,1,0-.22,1.34,1.34,0,0,1,.16-.37,2.94,2.94,0,0,1,.74-.71,27.77,27.77,0,0,1,2.38-1.48,50.89,50.89,0,0,1,5.23-2.6.84.84,0,0,0,.3-1.13.85.85,0,0,0-1.13-.29Z"/><path class="cls-184" d="M71.8,65.92a41.34,41.34,0,0,0-5.61,2.6c-.86.49-1.71,1-2.53,1.57s-1.54,1.15-1.35,2.14c.33,1.81,2.63,1.35,3.89,1.14,1.55-.26,3.09-.53,4.61-.92a48.67,48.67,0,0,0,10.06-4,46.18,46.18,0,0,0,8.24-5.39c2.68-2.18,5.17-4.58,7.83-6.79.82-.67-.35-1.83-1.16-1.16-4.24,3.52-8.1,7.48-12.86,10.33a54.19,54.19,0,0,1-9.3,4.41,45.43,45.43,0,0,1-8.07,1.95A6.47,6.47,0,0,1,64.4,72a.94.94,0,0,1-.44-.06c-.16-.13,0,.1,0,0,.2-.36.91-.66,1.24-.88s.92-.57,1.38-.84a38.34,38.34,0,0,1,5.64-2.69c1-.37.56-2-.43-1.58Z"/></g></g></svg>