<svg xmlns="http://www.w3.org/2000/svg" xmlns:xlink="http://www.w3.org/1999/xlink" viewBox="0 0 200 200"><defs><style>.cls-1{fill:none;}.cls-2{isolation:isolate;}.cls-3{opacity:0.9;}.cls-4{fill:#ed8772;}.cls-5{fill:#ef9380;}.cls-6{clip-path:url(#clip-path);}.cls-7{fill:#e44626;}.cls-8{fill:#e44727;}.cls-9{fill:#e44828;}.cls-10{fill:#e44829;}.cls-11{fill:#e44929;}.cls-12{fill:#e5492a;}.cls-13{fill:#e54a2b;}.cls-14{fill:#e54b2b;}.cls-15{fill:#e54b2c;}.cls-16{fill:#e54c2d;}.cls-17{fill:#e54d2e;}.cls-18{fill:#e54d2f;}.cls-19{fill:#e54e2f;}.cls-20{fill:#e54f30;}.cls-21{fill:#e55031;}.cls-22{fill:#e65032;}.cls-23{fill:#e65133;}.cls-24{fill:#e65234;}.cls-25{fill:#e65335;}.cls-26{fill:#e65436;}.cls-27{fill:#e65437;}.cls-28{fill:#e65538;}.cls-29{fill:#e65639;}.cls-30{fill:#e7573a;}.cls-31{fill:#e7583b;}.cls-32{fill:#e7593c;}.cls-33{fill:#e7593d;}.cls-34{fill:#e75a3e;}.cls-35{fill:#e75b3f;}.cls-36{fill:#e75c40;}.cls-37{fill:#e75d41;}.cls-38{fill:#e85e42;}.cls-39{fill:#e85f43;}.cls-40{fill:#e86044;}.cls-41{fill:#e86145;}.cls-42{fill:#e86146;}.cls-43{fill:#e86247;}.cls-44{fill:#e86348;}.cls-45{fill:#e96449;}.cls-46{fill:#e9654a;}.cls-47{fill:#e9664c;}.cls-48{fill:#e9674d;}.cls-49{fill:#e9684e;}.cls-50{fill:#e9694f;}.cls-51{fill:#e96a50;}.cls-52{fill:#ea6b51;}.cls-53{fill:#ea6c52;}.cls-54{fill:#ea6d54;}.cls-55{fill:#ea6e55;}.cls-56{fill:#ea6f56;}.cls-57{fill:#ea7057;}.cls-58{fill:#ea7158;}.cls-59{fill:#eb7259;}.cls-60{fill:#eb735b;}.cls-61{fill:#eb745c;}.cls-62{fill:#eb755d;}.cls-63{fill:#eb765e;}.cls-64{fill:#eb7760;}.cls-65{fill:#ec7861;}.cls-66{fill:#ec7962;}.cls-67{fill:#ec7a63;}.cls-68{fill:#ec7c64;}.cls-69{fill:#ec7d66;}.cls-70{fill:#ec7e67;}.cls-71{fill:#ed7f68;}.cls-72{fill:#ed8069;}.cls-73{fill:#ed816b;}.cls-74{fill:#ed826c;}.cls-75{fill:#fff;}.cls-76,.cls-79{mix-blend-mode:multiply;}.cls-77{fill:#25aed4;}.cls-78{fill:#ef907d;}.cls-79{opacity:0.8;}</style><clipPath id="clip-path"><path class="cls-1" d="M160.05,86.3c-4.4,26.13-60.28,71.24-60.28,71.24S42.3,109.44,39.49,86.3C37.75,72,39.28,57.18,56,47.15s32.8.79,32.8.79l11,11,11-11s16.15-10,32.88,0S162,74.57,160.05,86.3Z"/></clipPath></defs><g class="cls-2"><g id="레이어_1" data-name="레이어 1"><g class="cls-3"><path class="cls-4" d="M169.81,63.78a3,3,0,1,1,3-3A3,3,0,0,1,169.81,63.78Zm0-4.67a1.66,1.66,0,1,0,1.66,1.66A1.66,1.66,0,0,0,169.81,59.11Z"/></g><g class="cls-3"><path class="cls-5" d="M136.46,163.1a16.63,16.63,0,0,0,8.37-9.9h0a16.63,16.63,0,0,0,8.36,9.9"/><path class="cls-5" d="M153.19,163.1a16.63,16.63,0,0,0-8.36,9.9h0a16.63,16.63,0,0,0-8.37-9.9"/></g><g class="cls-6"><rect class="cls-7" x="37.75" y="37.11" width="124.27" height="120.44"/><ellipse class="cls-7" cx="63.69" cy="64.04" rx="25.36" ry="24.29"/><ellipse class="cls-7" cx="63.66" cy="64" rx="24.99" ry="23.94"/><ellipse class="cls-8" cx="63.62" cy="63.97" rx="24.63" ry="23.59"/><ellipse class="cls-8" cx="63.58" cy="63.93" rx="24.27" ry="23.25"/><ellipse class="cls-9" cx="63.55" cy="63.9" rx="23.91" ry="22.9"/><ellipse class="cls-10" cx="63.51" cy="63.86" rx="23.55" ry="22.55"/><ellipse class="cls-11" cx="63.48" cy="63.83" rx="23.18" ry="22.21"/><ellipse class="cls-12" cx="63.44" cy="63.79" rx="22.82" ry="21.86"/><ellipse class="cls-13" cx="63.4" cy="63.75" rx="22.46" ry="21.51"/><ellipse class="cls-14" cx="63.37" cy="63.72" rx="22.1" ry="21.16"/><ellipse class="cls-15" cx="63.33" cy="63.68" rx="21.73" ry="20.82"/><ellipse class="cls-16" cx="63.3" cy="63.65" rx="21.37" ry="20.47"/><ellipse class="cls-17" cx="63.26" cy="63.61" rx="21.01" ry="20.12"/><ellipse class="cls-18" cx="63.22" cy="63.58" rx="20.65" ry="19.78"/><ellipse class="cls-19" cx="63.19" cy="63.54" rx="20.29" ry="19.43"/><ellipse class="cls-20" cx="63.15" cy="63.51" rx="19.92" ry="19.08"/><ellipse class="cls-21" cx="63.12" cy="63.47" rx="19.56" ry="18.74"/><ellipse class="cls-22" cx="63.08" cy="63.44" rx="19.2" ry="18.39"/><ellipse class="cls-23" cx="63.04" cy="63.4" rx="18.84" ry="18.04"/><ellipse class="cls-24" cx="63.01" cy="63.37" rx="18.47" ry="17.7"/><ellipse class="cls-25" cx="62.97" cy="63.33" rx="18.11" ry="17.35"/><ellipse class="cls-26" cx="62.94" cy="63.29" rx="17.75" ry="17"/><ellipse class="cls-27" cx="62.9" cy="63.26" rx="17.39" ry="16.65"/><ellipse class="cls-28" cx="62.86" cy="63.22" rx="17.03" ry="16.31"/><ellipse class="cls-29" cx="62.83" cy="63.19" rx="16.66" ry="15.96"/><ellipse class="cls-30" cx="62.79" cy="63.15" rx="16.3" ry="15.61"/><ellipse class="cls-31" cx="62.76" cy="63.12" rx="15.94" ry="15.27"/><ellipse class="cls-32" cx="62.72" cy="63.08" rx="15.58" ry="14.92"/><ellipse class="cls-33" cx="62.68" cy="63.05" rx="15.21" ry="14.57"/><ellipse class="cls-34" cx="62.65" cy="63.01" rx="14.85" ry="14.23"/><ellipse class="cls-35" cx="62.61" cy="62.98" rx="14.49" ry="13.88"/><ellipse class="cls-36" cx="62.58" cy="62.94" rx="14.13" ry="13.53"/><ellipse class="cls-37" cx="62.54" cy="62.91" rx="13.76" ry="13.18"/><ellipse class="cls-38" cx="62.5" cy="62.87" rx="13.4" ry="12.84"/><ellipse class="cls-39" cx="62.47" cy="62.83" rx="13.04" ry="12.49"/><ellipse class="cls-40" cx="62.43" cy="62.8" rx="12.68" ry="12.14"/><ellipse class="cls-41" cx="62.4" cy="62.76" rx="12.32" ry="11.8"/><ellipse class="cls-42" cx="62.36" cy="62.73" rx="11.95" ry="11.45"/><ellipse class="cls-43" cx="62.32" cy="62.69" rx="11.59" ry="11.1"/><ellipse class="cls-44" cx="62.29" cy="62.66" rx="11.23" ry="10.76"/><ellipse class="cls-45" cx="62.25" cy="62.62" rx="10.87" ry="10.41"/><ellipse class="cls-46" cx="62.22" cy="62.59" rx="10.5" ry="10.06"/><ellipse class="cls-47" cx="62.18" cy="62.55" rx="10.14" ry="9.72"/><ellipse class="cls-48" cx="62.14" cy="62.52" rx="9.78" ry="9.37"/><ellipse class="cls-49" cx="62.11" cy="62.48" rx="9.42" ry="9.02"/><ellipse class="cls-50" cx="62.07" cy="62.45" rx="9.06" ry="8.67"/><ellipse class="cls-51" cx="62.04" cy="62.41" rx="8.69" ry="8.33"/><ellipse class="cls-52" cx="62" cy="62.38" rx="8.33" ry="7.98"/><ellipse class="cls-53" cx="61.96" cy="62.34" rx="7.97" ry="7.63"/><ellipse class="cls-54" cx="61.93" cy="62.3" rx="7.61" ry="7.29"/><ellipse class="cls-55" cx="61.89" cy="62.27" rx="7.24" ry="6.94"/><ellipse class="cls-56" cx="61.86" cy="62.23" rx="6.88" ry="6.59"/><ellipse class="cls-57" cx="61.82" cy="62.2" rx="6.52" ry="6.25"/><ellipse class="cls-58" cx="61.78" cy="62.16" rx="6.16" ry="5.9"/><ellipse class="cls-59" cx="61.75" cy="62.13" rx="5.8" ry="5.55"/><ellipse class="cls-60" cx="61.71" cy="62.09" rx="5.43" ry="5.2"/><ellipse class="cls-61" cx="61.68" cy="62.06" rx="5.07" ry="4.86"/><ellipse class="cls-62" cx="61.64" cy="62.02" rx="4.71" ry="4.51"/><ellipse class="cls-63" cx="61.61" cy="61.99" rx="4.35" ry="4.16"/><ellipse class="cls-64" cx="61.57" cy="61.95" rx="3.98" ry="3.82"/><ellipse class="cls-65" cx="61.53" cy="61.92" rx="3.62" ry="3.47"/><ellipse class="cls-66" cx="61.5" cy="61.88" rx="3.26" ry="3.12"/><ellipse class="cls-67" cx="61.46" cy="61.84" rx="2.9" ry="2.78"/><ellipse class="cls-68" cx="61.43" cy="61.81" rx="2.54" ry="2.43"/><ellipse class="cls-69" cx="61.39" cy="61.77" rx="2.17" ry="2.08"/><ellipse class="cls-70" cx="61.35" cy="61.74" rx="1.81" ry="1.73"/><ellipse class="cls-71" cx="61.32" cy="61.7" rx="1.45" ry="1.39"/><ellipse class="cls-72" cx="61.28" cy="61.67" rx="1.09" ry="1.04"/><ellipse class="cls-73" cx="61.25" cy="61.63" rx="0.72" ry="0.69"/><ellipse class="cls-74" cx="61.21" cy="61.6" rx="0.36" ry="0.35"/></g><path class="cls-75" d="M54.09,91.09c2.94,1.27,5.82,2.85,9.07,3.26,3.73.46,8-1.83,6.41-5.75s-7.3-5.09-11.24-6.24c-3.74-1.09-7.54-1.94-11.32-2.88-4.1-1-4.23-1.85-8-3.59-2-.92-5,2.94-3,3.85,5.7,2.59,9.52,2.62,15.6,4.13,3.83.95,7.62,2,11.33,3.33,1.24.43,3.47,1.34,3.49,2.85,0,1.1-1.72,1.22-2.59,1.14-3-.27-5.77-1.91-8.47-3.08a1.62,1.62,0,1,0-1.27,3Z"/><path class="cls-75" d="M53.7,90.88a137.25,137.25,0,0,1,18.51,11.74c1.24.94,2.52,1.88,3.68,2.9A6.64,6.64,0,0,1,78,108.1c.37,1.29-1.6.33-2.29.07a45.91,45.91,0,0,1-5.11-2.55c-2-1-4,1.53-2.06,2.56a45.2,45.2,0,0,0,6.36,3.13c1.83.63,4,1.08,5.52-.26,2.85-2.46-.11-6-2.26-7.91A118.77,118.77,0,0,0,55.76,88.32c-1.95-1-4,1.52-2.06,2.56Z"/><path class="cls-75" d="M59.57,102.69a111,111,0,0,1,11.94,7.7c.9.67,1.79,1.35,2.67,2a8.39,8.39,0,0,1,2.15,2c1,1.65-1.46,1-2.33.72-2.13-.7-3.4,2.28-1.26,3,2.39.78,5.81,1.16,7-1.48s-1.14-4.91-3.22-6.56a109.84,109.84,0,0,0-14.87-10,1.9,1.9,0,0,0-2.45.31,1.55,1.55,0,0,0,.39,2.25Z"/><path class="cls-75" d="M56,107.89a107.92,107.92,0,0,1,10.53,6.28c1.58,1.06,3.17,2.14,4.63,3.33A6.45,6.45,0,0,1,72.65,119a2.11,2.11,0,0,1,.3.75,1.19,1.19,0,0,1,0,.42c0,.27.25-.23-.1.12l.69-.5c-1.21.66-3.26-.16-4.3-.85-1.85-1.21-3.91,1.35-2.06,2.56a10,10,0,0,0,4.25,1.6c1.39.18,3.27.19,4.25-.87,2-2.17,0-5.19-1.85-6.83a60,60,0,0,0-7.4-5.27q-4-2.6-8.35-4.85a1.91,1.91,0,0,0-2.44.31,1.56,1.56,0,0,0,.38,2.26Z"/><path class="cls-75" d="M11.45,88.26c10.7,10.13,14,14.24,26.78,24.22,5.3,4.15,11.4,6.64,17.76,9,2.87,1.06,5.57,3.08,8.53,3.9,2.5.7,6.72,2.07,8.27-.76.9-1.66-.1-3.25-1.45-4.41A62.8,62.8,0,0,0,66,116.27a89.18,89.18,0,0,0-11.76-6.65c-2-1-3.26,2-1.26,3a83.12,83.12,0,0,1,9.43,5.24q2.09,1.35,4.07,2.8,1,.77,2.07,1.56c.3.24.57.48.85.74s.37.06.17.16c-.87.41-2.75-.39-3.56-.62-1.44-.4-2.87-.81-4.29-1.26q-3.61-1.12-7.13-2.54c-11.79-4.75-21.26-11.27-31.07-19-6-4.75-3.83-8.15-9.36-13.38-1.57-1.49-4.29.48-2.71,2Z"/><polygon class="cls-75" points="38.96 75.89 57.87 84.68 68 88.63 68.33 92.65 62.51 94.09 74.84 102.15 80.66 107.58 80.42 109.88 75.76 109.77 73.21 108.39 78.12 112.63 78.94 116.27 74.5 116.43 75.84 120.16 73.67 121.22 70.24 120.84 72.55 122.98 70.86 124.27 61.61 121.98 45.49 115.56 33.01 109.29 24.26 99.74 11.81 85.83 38.96 75.89"/><g class="cls-76"><path class="cls-77" d="M57.48,90.4c2.81,1.33,5.56,3,8.69,3.42,3.59.49,7.74-1.91,6.31-6s-7-5.36-10.74-6.56c-3.59-1.15-7.24-2-10.87-3a62.22,62.22,0,0,1-11.38-4.3c-2-1-3.22,2.16-1.28,3.13,5.45,2.72,11.16,4.21,17,5.8,3.67,1,7.31,2.14,10.87,3.49,1.19.46,3.33,1.42,3.32,3,0,1.16-1.69,1.29-2.53,1.2-2.91-.29-5.53-2-8.12-3.23-2-.94-3.24,2.2-1.28,3.13Z"/><path class="cls-77" d="M57.1,90.18a127.8,127.8,0,0,1,17.65,12.35c1.18,1,2.39,2,3.5,3a6.71,6.71,0,0,1,2,2.71c.33,1.36-1.56.36-2.21.08a42.22,42.22,0,0,1-4.89-2.68c-1.86-1.08-3.91,1.6-2,2.69a41.48,41.48,0,0,0,6.08,3.29c1.76.67,3.81,1.14,5.34-.27,2.8-2.59,0-6.35-2-8.32A110.8,110.8,0,0,0,59.14,87.49c-1.86-1.09-3.92,1.6-2,2.69Z"/><path class="cls-77" d="M62.53,102.6a103.43,103.43,0,0,1,11.38,8.11c.86.7,1.71,1.42,2.54,2.15a8,8,0,0,1,2,2.11c.89,1.73-1.42,1-2.26.75-2-.73-3.33,2.4-1.28,3.13,2.3.82,5.59,1.22,6.77-1.56s-1-5.16-3-6.9A102.09,102.09,0,0,0,64.57,99.91a1.73,1.73,0,0,0-2.36.32,1.71,1.71,0,0,0,.32,2.37Z"/><path class="cls-77" d="M59,108.07a102.85,102.85,0,0,1,10,6.61c1.5,1.12,3,2.25,4.41,3.5a6.67,6.67,0,0,1,1.37,1.63,2.29,2.29,0,0,1,.28.78,1.69,1.69,0,0,1,0,.45c0,.28.25-.24-.1.13l.68-.53c-1.18.7-3.14-.17-4.14-.89-1.76-1.28-3.8,1.41-2,2.69a9.08,9.08,0,0,0,4.07,1.68c1.34.19,3.16.2,4.13-.91,2-2.29.11-5.46-1.65-7.19a56.43,56.43,0,0,0-7-5.55q-3.85-2.73-8-5.09a1.75,1.75,0,0,0-2.37.32,1.7,1.7,0,0,0,.33,2.37Z"/><path class="cls-77" d="M9.44,86.94c10.12,10.71,18.09,20.53,31.23,27.94a158.86,158.86,0,0,0,17.77,8.84c2.75,1.13,5.56,2.09,8.4,3,2.4.74,6.45,2.18,8-.81.91-1.75,0-3.44-1.31-4.66A56,56,0,0,0,68.46,117a82.12,82.12,0,0,0-11.22-7c-1.93-1-3.2,2.15-1.28,3.15a76.27,76.27,0,0,1,9,5.54c1.32.94,2.62,1.93,3.88,3,.66.54,1.32,1.09,2,1.65.29.26.55.51.81.78s.36.07.16.17c-.85.44-2.65-.41-3.43-.65-1.38-.42-2.76-.86-4.12-1.33-2.31-.79-4.59-1.69-6.83-2.68-11.3-5-22-11.2-31.29-19.38-5.72-5-8.77-9.84-14-15.37-1.48-1.57-4.16.52-2.66,2.11Z"/></g><polygon class="cls-75" points="155.01 98.26 135.03 103.07 124.84 105.8 124 109.94 129.38 112.23 116.55 118.95 110.3 123.81 110.23 126.24 114.69 126.76 117.31 125.67 112.08 129.41 110.83 133.09 115.05 133.86 113.29 137.56 115.22 138.96 118.55 139.03 116.08 140.95 117.52 142.52 126.66 141.4 142.9 136.9 155.64 132.07 171.02 120.84 183.06 112.25 155.01 98.26"/><path class="cls-75" d="M136.52,110.73c-3,.89-5.92,2.11-9.09,2.09-3.62,0-7.39-2.9-5.39-6.66s7.64-4.18,11.55-4.82c3.71-.6,7.46-1,11.19-1.41,4.05-.5,6.36-.43,10.23-1.67,2.07-.67-1.5,3.38-3.55,4-5.78,1.86-5.62.74-11.63,1.46-3.78.45-7.55,1-11.26,1.86-1.24.27-3.49.9-3.7,2.42-.16,1.12,1.48,1.46,2.33,1.5,2.92.12,5.76-1.16,8.49-2,2.08-.63,2.9,2.55.83,3.18Z"/><path class="cls-75" d="M136.93,110.57A128.5,128.5,0,0,0,117.72,120c-1.31.79-2.64,1.56-3.89,2.44a6.56,6.56,0,0,0-2.35,2.33c-.52,1.25,1.49.55,2.17.38a41.76,41.76,0,0,0,5.22-1.91c2-.78,3.65,2.08,1.64,2.87a42.64,42.64,0,0,1-6.47,2.32c-1.84.39-3.94.56-5.25-1-2.41-2.87.87-6.08,3.17-7.7a112.38,112.38,0,0,1,23.33-12c2-.78,3.65,2.07,1.64,2.86Z"/><path class="cls-75" d="M129.81,121.73a104.88,104.88,0,0,0-12.41,6.21c-1,.56-1.88,1.13-2.81,1.72a8,8,0,0,0-2.32,1.74c-1.12,1.54,1.27,1.2,2.14,1,2.13-.42,3,2.75.83,3.17-2.39.48-5.71.4-6.49-2.42s1.72-4.81,3.92-6.21a103.64,103.64,0,0,1,15.49-8.1,1.77,1.77,0,0,1,2.3.64,1.62,1.62,0,0,1-.65,2.22Z"/><path class="cls-75" d="M132.52,127.46a104.36,104.36,0,0,0-10.87,5c-1.64.87-3.3,1.75-4.85,2.76a6,6,0,0,0-1.59,1.37,2.14,2.14,0,0,0-.39.71,1.22,1.22,0,0,0-.06.42c0,.28-.21-.26.08.14l-.6-.6c1.08.83,3.14.27,4.22-.28,1.92-1,3.57,1.87,1.64,2.86a9.35,9.35,0,0,1-4.26,1.05c-1.35,0-3.16-.24-4-1.44-1.63-2.46.66-5.25,2.64-6.67a59.51,59.51,0,0,1,7.76-4.35q4.2-2.09,8.6-3.79a1.78,1.78,0,0,1,2.3.64,1.63,1.63,0,0,1-.66,2.23Z"/><path class="cls-75" d="M130.91,142c-2.89.69-5.81,1.22-8.74,1.66-2.48.37-6.69,1.2-7.81-1.87-.65-1.79.51-3.27,2-4.26a58.25,58.25,0,0,1,5.61-3.28A84.86,84.86,0,0,1,134,129.05c2.05-.7,2.87,2.48.83,3.18a76.81,76.81,0,0,0-9.69,4.05q-2.16,1.08-4.25,2.28c-.73.43-1.46.86-2.17,1.31-.32.2-.62.41-.92.63s-.36,0-.18.14c.78.53,2.68,0,3.49-.15,1.43-.21,2.85-.44,4.26-.7,2.4-.45,4.79-1,7.14-1.63"/><g class="cls-76"><path class="cls-77" d="M134.11,110c-3,.92-5.93,2.17-9.09,2.14-3.62,0-7.39-3-5.38-6.89s7.66-4.3,11.57-5c3.72-.62,7.46-1,11.2-1.44a62,62,0,0,0,11.88-2.63c2.07-.68,2.87,2.61.82,3.29-5.79,1.91-11.65,2.56-17.67,3.29-3.78.46-7.55,1.07-11.26,1.9-1.25.28-3.5.92-3.72,2.49-.15,1.15,1.49,1.52,2.33,1.56,2.92.13,5.76-1.19,8.5-2,2.09-.64,2.89,2.64.82,3.28Z"/><path class="cls-77" d="M134.52,109.82a127.86,127.86,0,0,0-19.24,9.69c-1.31.81-2.65,1.61-3.9,2.51a6.7,6.7,0,0,0-2.36,2.4c-.53,1.3,1.49.57,2.17.4a40.48,40.48,0,0,0,5.22-2c2-.8,3.65,2.15,1.64,3a41.09,41.09,0,0,1-6.49,2.39c-1.84.4-3.94.57-5.24-1-2.4-3,.89-6.28,3.2-7.94a110.76,110.76,0,0,1,23.37-12.37c2-.8,3.64,2.15,1.63,3Z"/><path class="cls-77" d="M127.36,121.33a103.37,103.37,0,0,0-12.43,6.39q-1.43.85-2.82,1.77a8,8,0,0,0-2.32,1.79c-1.12,1.59,1.26,1.25,2.13,1.07,2.13-.43,3,2.85.82,3.28-2.39.48-5.71.4-6.48-2.52s1.74-5,3.94-6.4a103.42,103.42,0,0,1,15.52-8.34,1.74,1.74,0,0,1,2.3.67,1.69,1.69,0,0,1-.66,2.29Z"/><path class="cls-77" d="M130.05,127.25a104.66,104.66,0,0,0-10.89,5.1c-1.64.89-3.31,1.79-4.86,2.83a6.32,6.32,0,0,0-1.59,1.41,2.2,2.2,0,0,0-.39.74,1.68,1.68,0,0,0-.07.44c0,.28-.21-.27.08.14l-.59-.62c1.07.86,3.13.28,4.22-.29,1.93-1,3.56,1.95,1.63,3a9,9,0,0,1-4.26,1.08c-1.36,0-3.16-.25-4-1.49-1.62-2.55.67-5.43,2.67-6.88a56,56,0,0,1,7.77-4.48q4.22-2.14,8.61-3.9a1.74,1.74,0,0,1,2.29.66,1.7,1.7,0,0,1-.66,2.3Z"/><path class="cls-77" d="M184.41,113c-11.55,9.11-23.38,18-37.19,23.43a158.26,158.26,0,0,1-18.84,6.17c-2.89.71-5.81,1.26-8.74,1.7-2.48.38-6.7,1.23-7.8-2-.65-1.85.52-3.38,2-4.4a59.33,59.33,0,0,1,5.62-3.38,83.14,83.14,0,0,1,12.11-5.32c2.05-.72,2.85,2.57.81,3.28a78.27,78.27,0,0,0-9.7,4.17q-2.16,1.11-4.25,2.36c-.74.44-1.47.88-2.18,1.35-.32.2-.61.42-.92.65s-.36,0-.18.14c.78.55,2.68,0,3.49-.15q2.15-.32,4.26-.72c2.4-.45,4.79-1,7.14-1.66,11.9-3.33,23.34-7.9,33.74-14.63,6.37-4.12,12.38-8.79,18.34-13.49,1.7-1.34,4,1.1,2.33,2.45Z"/></g><g class="cls-3"><path class="cls-4" d="M85.08,35.49A3.5,3.5,0,1,1,88.57,32,3.5,3.5,0,0,1,85.08,35.49Zm0-5.64A2.14,2.14,0,1,0,87.22,32,2.15,2.15,0,0,0,85.08,29.85Z"/></g><g class="cls-3"><path class="cls-78" d="M106.63,24.9a11.75,11.75,0,0,0,5.9-7h0a11.75,11.75,0,0,0,5.9,7"/><path class="cls-78" d="M118.43,24.9a11.72,11.72,0,0,0-5.9,7h0a11.72,11.72,0,0,0-5.9-7"/></g><g class="cls-3"><path class="cls-4" d="M15.76,122.23a3.3,3.3,0,1,1,3.3-3.3A3.3,3.3,0,0,1,15.76,122.23Zm0-5.25a2,2,0,1,0,2,2A2,2,0,0,0,15.76,117Z"/></g><path class="cls-5" d="M25.1,135.78A13.75,13.75,0,0,0,32,127.59h0a13.78,13.78,0,0,0,6.92,8.19"/><path class="cls-5" d="M38.93,135.78A13.74,13.74,0,0,0,32,144h0a13.71,13.71,0,0,0-6.91-8.18"/><path class="cls-75" d="M100.79,98.92C94.11,98.92,87.46,96,82,90.65a1.58,1.58,0,0,1,2.22-2.26c5,4.88,10.76,7.4,16.75,7.37,5.81-.06,11.33-2.6,16-7.34a1.58,1.58,0,0,1,2.26,2.2C114,96,107.69,98.85,101,98.92Z"/><path class="cls-75" d="M88,77.72c-3.61,0-6.17-3.3-6.28-3.44a1.58,1.58,0,0,1,2.51-1.92c.48.62,2.08,2.2,3.77,2.2h0c1.15,0,2.29-.74,3.4-2.2a1.58,1.58,0,0,1,2.51,1.92C92.2,76.56,90.2,77.72,88,77.72Z"/><path class="cls-75" d="M114.29,77.72c-3.61,0-6.17-3.3-6.28-3.44a1.58,1.58,0,0,1,2.51-1.92c.48.62,2.08,2.2,3.77,2.2h0c1.15,0,2.29-.74,3.4-2.2a1.58,1.58,0,0,1,2.51,1.92C118.47,76.56,116.48,77.72,114.29,77.72Z"/><path class="cls-75" d="M100.6,86.9a4.26,4.26,0,1,1,4.26-4.26A4.26,4.26,0,0,1,100.6,86.9Zm0-5.36a1.1,1.1,0,0,0,0,2.2,1.1,1.1,0,1,0,0-2.2Z"/><g class="cls-79"><path class="cls-77" d="M99.5,98.59c-6.67,0-13.33-2.93-18.76-8.27A1.58,1.58,0,0,1,83,88.07c5,4.88,10.81,7.44,16.76,7.36s11.32-2.6,16-7.34a1.58,1.58,0,0,1,2.26,2.21c-5.22,5.35-11.51,8.22-18.18,8.29Z"/><path class="cls-77" d="M86.74,77.4c-3.62,0-6.18-3.3-6.28-3.44A1.58,1.58,0,1,1,83,72c.48.61,2.09,2.2,3.78,2.2h0c1.14,0,2.29-.75,3.4-2.2A1.58,1.58,0,1,1,92.66,74C90.91,76.24,88.92,77.4,86.74,77.4Z"/><path class="cls-77" d="M113,77.4c-3.61,0-6.17-3.3-6.28-3.44A1.58,1.58,0,1,1,109.24,72c.47.61,2.08,2.2,3.77,2.2h0c1.15,0,2.29-.75,3.4-2.2A1.58,1.58,0,1,1,118.93,74C117.19,76.24,115.19,77.4,113,77.4Z"/><path class="cls-77" d="M99.32,86.57a4.26,4.26,0,1,1,4.26-4.25A4.26,4.26,0,0,1,99.32,86.57Zm0-5.35a1.1,1.1,0,1,0,1.1,1.1A1.1,1.1,0,0,0,99.32,81.22Z"/></g></g></g></svg>