<svg fill="currentColor" height="24" viewBox="0 0 24 24" width="24" xmlns="http://www.w3.org/2000/svg"><path d="m0 0h24v24h-24z" fill="none"/><path d="m20 5h-3.17l-1.83-2h-6l-1.83 2h-3.17c-1.1 0-2 .9-2 2v12c0 1.1.9 2 2 2h16c1.1 0 2-.9 2-2v-12c0-1.1-.9-2-2-2zm0 14h-16v-12h3.17.88l.59-.65 1.24-1.35h4.24l1.24 1.35.59.65h.88 3.17z"/><path d="m12 17c-2.21 0-4-1.79-4-4h2l-2.5-2.5-2.5 2.5h2c0 2.76 2.24 5 5 5 .86 0 1.65-.24 2.36-.62l-.74-.74c-.49.23-1.04.36-1.62.36z"/><path d="m12 8c-.86 0-1.65.24-2.36.62l.74.73c.49-.22 1.04-.35 1.62-.35 2.21 0 4 1.79 4 4h-2l2.5 2.5 2.5-2.5h-2c0-2.76-2.24-5-5-5z"/></svg>