<svg id="Layer_1" data-name="Layer 1" xmlns="http://www.w3.org/2000/svg" viewBox="0 0 20 20"><defs><style>.cls-1{fill-rule:evenodd;}</style></defs><title>icon_calendar</title><g id="_24_time_calendar-dates" data-name="24 / time / calendar-dates"><path id="icon" class="cls-1" d="M8,6H6V5H4V8H20V5H18V6H16V5H8Zm12,4H4V20H20ZM16,3H8V2H6V3H4A2,2,0,0,0,2,5V20a2,2,0,0,0,2,2H20a2,2,0,0,0,2-2V5a2,2,0,0,0-2-2H18V2H16ZM7,14V12H9v2Zm4,0h2V12H11Zm4,0V12h2v2ZM7,16v2H9V16Zm6,2H11V16h2Z" transform="translate(-2 -2)"/></g></svg>