<svg id="Layer_1" data-name="Layer 1" xmlns="http://www.w3.org/2000/svg" viewBox="0 0 22 18"><defs><style>.cls-1{fill-rule:evenodd;}</style></defs><title>icon_camera</title><g id="_24_basic_camera" data-name="24 / basic / camera"><path id="icon" class="cls-1" d="M6.94,5.85c.07-.1.15-.22.25-.39s.13-.22.21-.34h0L7.48,5C8.31,3.62,8.91,3,10,3h4c1.09,0,1.69.62,2.52,2l.08.14c.08.12.18.28.21.34s.18.29.25.39l.12.15H20a3,3,0,0,1,3,3v9a3,3,0,0,1-3,3H4a3,3,0,0,1-3-3V9A3,3,0,0,1,4,6H6.82ZM4,8A1,1,0,0,0,3,9v9a1,1,0,0,0,1,1H20a1,1,0,0,0,1-1V9a1,1,0,0,0-1-1H17a1.88,1.88,0,0,1-1.56-1c-.1-.14-.21-.3-.33-.5l-.23-.37L14.81,6c-.45-.74-.72-1-.81-1H10c-.09,0-.36.28-.81,1l-.07.12h0l-.23.37c-.12.2-.23.36-.33.5A1.88,1.88,0,0,1,7,8Zm16,2a1,1,0,1,1-1-1A1,1,0,0,1,20,10ZM7,13a5,5,0,1,0,5-5A5,5,0,0,0,7,13Zm8,0a3,3,0,1,1-3-3A3,3,0,0,1,15,13Z" transform="translate(-1 -3)"/></g></svg>