<svg width="21" height="27" viewBox="0 0 21 27" fill="none" xmlns="http://www.w3.org/2000/svg">
  <path fill="currentColor" clip-rule="" d="M9.96967 13.4123C10.6527 12.4536 10.5765 11.4439 10.1029 9.62775C9.16616 6.03585 9.53915 4.06711 12.7683 1.73627L14.3444 0.598633L14.7256 2.50468C15.1308 4.53033 15.7961 5.7832 17.5044 8.19312C17.5723 8.28885 17.5723 8.28885 17.6404 8.385C20.1011 11.8566 20.9999 13.9493 20.9999 17.7498C20.9999 22.3603 16.3391 26.4998 10.9999 26.4998C5.66043 26.4998 0.999918 22.3608 0.999918 17.7498C0.999918 17.6636 1.00001 17.6662 0.985404 17.2854C0.872459 14.3396 1.41718 12.034 3.62125 9.54465C4.08694 9.01868 4.61627 8.51316 5.21195 8.02946L6.52694 6.96164L7.15949 8.53304C7.62689 9.69416 8.17454 10.6069 8.79318 11.2767C9.31715 11.844 9.70584 12.5574 9.96967 13.4123ZM5.49303 11.2019C3.79632 13.1182 3.39293 14.8256 3.48357 17.1896C3.50044 17.6297 3.49992 17.6142 3.49992 17.7498C3.49992 20.9097 6.97942 23.9998 10.9999 23.9998C15.0201 23.9998 18.4999 20.9092 18.4999 17.7498C18.4999 14.5726 17.7896 12.9186 15.6008 9.83069C15.533 9.73505 15.533 9.73505 15.4648 9.63888C14.1356 7.76371 13.3433 6.45931 12.8191 5.00047C11.963 6.0263 12.0134 7.04656 12.522 8.99689C13.4587 12.5888 13.0857 14.5575 9.85651 16.8884L8.01526 18.2174L7.87723 15.9508C7.78904 14.5026 7.46125 13.5193 6.95666 12.9729C6.45813 12.4332 6.00801 11.8013 5.60436 11.0783C5.56671 11.1194 5.5296 11.1606 5.49303 11.2019Z"/>
</svg>
