<svg xmlns="http://www.w3.org/2000/svg" width="24" height="24" viewBox="0 0 24 24">
  <path fill="currentColor" d="M23,13.58V10.45L20.44,9l-.33-.81.79-2.84L18.68,3.13l-2.84.78L15,3.57,13.58,1H10.45L9,3.56l-.81.33L5.34,3.1,3.13,5.32l.78,2.84L3.57,9,1,10.42v3.13L3.56,15l.33.81L3.1,18.66l2.22,2.21,2.84-.78.81.34L10.42,23h3.13L15,20.44l.81-.33,2.84.79,2.21-2.22-.78-2.84.34-.81Zm-4.15.05L18,15.71l.66,2.38-.57.57L15.69,18l-2.08.85L12.39,21h-.81l-1.21-2.15L8.29,18l-2.38.66-.57-.57L6,15.69l-.86-2.08L3,12.39v-.81l2.15-1.21L6,8.29,5.36,5.91l.57-.57L8.31,6l2.08-.86L11.61,3h.8l1.21,2.15L15.7,6l2.39-.66.57.57L18,8.31l.86,2.08L21,11.61v.8Z"/>
  <path fill="currentColor" d="M12,8a4,4,0,1,0,4,4A4,4,0,0,0,12,8Zm0,6a2,2,0,1,1,2-2A2,2,0,0,1,12,14Z"/>
</svg>