<svg xmlns="http://www.w3.org/2000/svg" width="24" height="24" viewBox="0 0 24 24">
  <path fill="currentColor" d="M19,10c0-4.06-2.24-6.88-5.13-7.72a2.15,2.15,0,0,0-.5-.74,2,2,0,0,0-3.23.74C7.24,3.12,5,5.93,5,10c0,2.63-.53,4.11-1.51,5.18-.17.18-.61.59-.92.87h0l-.28.26L2,16.6V20H8.09a3.42,3.42,0,0,0,1.82,2.41,4,4,0,0,0,4.18,0A3.91,3.91,0,0,0,15.87,20H22V16.6l-.29-.29-.27-.25c-.3-.28-.76-.7-.92-.88C19.53,14.1,19,12.62,19,10ZM13.74,20H10.18a1.92,1.92,0,0,0,.77.71,2,2,0,0,0,2.1,0A2.12,2.12,0,0,0,13.74,20ZM19,16.53c.21.23.66.65,1,.92V18H4v-.56c.3-.27.75-.69,1-.92C6.29,15.08,7,13.12,7,10c0-3.78,2.33-6,5-6s5,2.22,5,6C17,13.11,17.71,15.07,19,16.53Z"/>
</svg>