<?xml version="1.0" encoding="utf-8"?>
<!-- Generator: Adobe Illustrator 24.0.3, SVG Export Plug-In . SVG Version: 6.00 Build 0)  -->
<svg version="1.1" id="Layer_1" xmlns="http://www.w3.org/2000/svg" xmlns:xlink="http://www.w3.org/1999/xlink" x="0px" y="0px"
	 viewBox="0 0 24 24" style="enable-background:new 0 0 24 24;" xml:space="preserve">
<path d="M16.7,21.7c-0.4,0-0.8-0.3-1-0.7l-0.4-1.5c-0.6-2.2-2.1-3-3.3-3s-2.7,0.8-3.3,3L8.2,21c-0.1,0.5-0.7,0.8-1.2,0.7
	c-0.5-0.1-0.8-0.7-0.7-1.2l0.4-1.5c0.7-2.7,2.8-4.5,5.2-4.5s4.5,1.8,5.2,4.5l0.4,1.5c0.1,0.5-0.2,1.1-0.7,1.2
	C16.8,21.7,16.8,21.7,16.7,21.7z"/>
<path d="M12,16.5c-2,0-3.6-1.6-3.6-3.6S10,9.2,12,9.2c2,0,3.6,1.6,3.6,3.6S14,16.5,12,16.5z M12,11.2c-0.9,0-1.6,0.7-1.6,1.6
	c0,0.9,0.7,1.6,1.6,1.6c0.9,0,1.6-0.7,1.6-1.6C13.6,12,12.9,11.2,12,11.2z"/>
<path d="M14.2,15.8c-0.1,0-0.2,0-0.3,0c-0.5-0.1-0.8-0.7-0.7-1.2l0.4-1.4c0.7-2.6,2.6-4.2,5-4.2c2.3,0,4.3,1.7,5,4.2l0.4,1.4
	c0.1,0.5-0.2,1.1-0.7,1.2c-0.5,0.1-1.1-0.2-1.2-0.7l-0.4-1.4c-0.6-2-1.9-2.7-3-2.7c-1.1,0-2.5,0.7-3,2.7L15.2,15
	C15.1,15.5,14.7,15.8,14.2,15.8z"/>
<path d="M18.6,10.9c-1.9,0-3.4-1.5-3.4-3.4S16.7,4,18.6,4s3.4,1.5,3.4,3.4S20.5,10.9,18.6,10.9z M18.6,6c-0.8,0-1.4,0.6-1.4,1.4
	s0.6,1.4,1.4,1.4s1.4-0.6,1.4-1.4S19.4,6,18.6,6z"/>
<path d="M9.8,15.8c-0.4,0-0.8-0.3-1-0.7l-0.4-1.4c-0.6-2-1.9-2.7-3-2.7c-1.1,0-2.5,0.7-3,2.7L2,15c-0.1,0.5-0.7,0.8-1.2,0.7
	C0.2,15.6-0.1,15,0,14.5l0.4-1.4c0.7-2.6,2.6-4.2,5-4.2c2.3,0,4.3,1.7,5,4.2l0.4,1.4c0.1,0.5-0.2,1.1-0.7,1.2
	C9.9,15.8,9.9,15.8,9.8,15.8z"/>
<path d="M5.4,10.9c-1.9,0-3.4-1.5-3.4-3.4S3.5,4,5.4,4s3.4,1.5,3.4,3.4S7.3,10.9,5.4,10.9z M5.4,6C4.6,6,3.9,6.6,3.9,7.4
	s0.6,1.4,1.4,1.4c0.8,0,1.4-0.6,1.4-1.4S6.2,6,5.4,6z"/>
</svg>
