<svg width="21" height="27" viewBox="0 0 21 27" xmlns="http://www.w3.org/2000/svg">
<path fill="currentColor" d="M5,20c-0.1,0-0.2,0-0.3,0c-0.5-0.1-0.8-0.7-0.7-1.2l0.6-2.2c1-3.7,3.8-6.1,7.1-6.1s6.1,2.4,7.1,6.1l0.6,2.2c0.1,0.5-0.2,1.1-0.7,1.2c-0.5,0.1-1.1-0.2-1.2-0.7l-0.6-2.2c-0.9-3.4-3.3-4.6-5.2-4.6s-4.3,1.2-5.2,4.6L6,19.3C5.8,19.7,5.4,20,5,20z"/>
<path fill="currentColor" d="M11.8,12.5C9.1,12.5,7,10.4,7,7.8S9.1,3,11.8,3s4.8,2.1,4.8,4.8S14.4,12.5,11.8,12.5z M11.8,5C10.2,5,9,6.2,9,7.8s1.2,2.8,2.8,2.8s2.8-1.2,2.8-2.8S13.3,5,11.8,5z"/>
</svg>
