<svg id="Layer_11" data-name="Layer 11" xmlns="http://www.w3.org/2000/svg" xmlns:xlink="http://www.w3.org/1999/xlink" viewBox="0 0 247.56 288"><defs><style>.cls-1{fill:none;}.cls-2{fill:#d1d1d1;}.cls-3{clip-path:url(#clip-path);}.cls-4{fill:#25aed4;}.cls-5{fill:#202020;}</style><clipPath id="clip-path" transform="translate(-4.89 -4.22)"><circle class="cls-1" cx="128.66" cy="128" r="123.78"/></clipPath></defs><circle class="cls-2" cx="123.78" cy="123.78" r="123.78"/><g class="cls-3"><path class="cls-4" d="M71.12,151.74C60,170.5,51.43,191,49.87,213.34a79.24,79.24,0,0,0,17.71,55.41C95.94,303,147.4,290.07,176,263.17c18.06-17,11.59-46,2.64-66.33-7.92-18-23.88-33-42.43-36.79-21.22-4.39-42.68,2.23-55.32,21.7C69.12,200,70.12,224,78.51,243.4c15.34,35.42,59.9,54.71,93.75,39.49,22.13-9.95,31.65-33.74,27.47-58.24-1.85-10.89-6.94-21.22-12.39-30.53a133.42,133.42,0,0,0-16.43-23c-14.09-15.33-34.57-24.61-54.63-18.05C98.22,159,84.41,175,77.14,193.18c-8.32,20.78-11.77,46.68,1.62,66.11,11.38,16.53,30.77,26.1,50.05,24.82,20.75-1.37,38.45-13.13,50.66-30.7,12.49-18,15.44-40.67,12.28-62.34-3.22-22.09-14.29-41.53-27.34-58.58C152,116.21,135.6,96.43,113.91,98.37c-23.25,2.08-38.2,20.66-47.8,41.74-9.82,21.59-15.23,44.29-11.46,68.26C58,229.7,71.07,248.68,88.89,258.91c17.06,9.79,37.32,13.15,56.47,10.7,21.07-2.69,45.13-11.36,56.78-31.75,6.14-10.75,5.91-23.15,5.29-35.26-.58-11.34-1.62-22.85-4.2-33.89C199.72,153.65,192.89,140,182,129.57c-8.79-8.44-19.7-15.95-31.51-18.28-14.21-2.81-29.12,1.69-36.27,16.12-6.56,13.25-5.18,30.17-1.22,44.09,2.6,9.17,7.11,18.45,15.22,23.34,9.42,5.68,21.79,3.87,29.62-4,10.7-10.75,9.3-28.26,2.22-40.72-7.38-13-21.36-22.7-36-18.57-8.49,2.39-15,8.88-19.57,16.64-6.2,10.53-6.19,23-3.68,34.78,2.44,11.42,9.64,22.22,20.62,25.5,13.53,4,26.7-4.05,33.4-16.48,5.46-10.14,7.84-23.25,7.26-34.84-.38-7.73-1.69-15.67-7-21.46a25.24,25.24,0,0,0-18.78-8.47c-27.17,0-35.05,35.5-35.57,58.36-.43,18.6,1.93,39,11.18,55.23,4.77,8.36,11.74,16.16,20.06,20.55,13.46,7.11,30.4,6.32,38.73-8.91,5.58-10.19,5-24.16,4.39-35.57-.56-11-1.55-23.17-5-33.64-3.09-9.34-10.45-17.14-20.29-17.22-8.3-.07-15.64,4.56-20.07,12-6.52,10.92-7.7,24.72-4.73,37.09,1.45,6,6.7,12.37,12.67,13.5l4.72.9c9.31,1.76,20-2.68,22.32-13.51,2-9.43-2.68-21.89-12.68-23.78l-4.71-.9L160,204.84c-1.14-4.76-.29,3.68-.32-1.24a21.89,21.89,0,0,1,0-2.43c.08-1.45,0-1.08-.23,1.11-.17-1.32.8-3.55,1.23-4.71l-.59,1.61q4.27-7.2-10.29,5.53l-9.16-2.64-2.66-4q-3.47-6.56-2.49-3.33a16.66,16.66,0,0,0,.57,2.37c.47,2,.87,4.1,1.24,6.16.31,1.77.56,3.54.85,5.32.51,3.07-.2-2.91,0,.21.09,1.19.24,2.38.34,3.58q.48,5.82.51,11.68c0,1.8,0,3.61-.07,5.41-.05,1.53-.95,5.42-.38,6.73-.05-.13.62-3.85.1-1.78s.66-1.43.71-1.51c2.32-3.73,7.07-6.23,11.2-5.12-4-1.08.45.3.28.46a9.63,9.63,0,0,1-1.69-.93c-.54-.32-1.07-.69-1.61-1-2.36-1.39.22.71.69.74-.93-.06-2.39-2.36-3.1-3.06A11.65,11.65,0,0,1,144,222.6c.07-.15,2,3.26,1,1.39-1.47-2.62-2.95-5.14-4.24-7.88-.93-2,.7,1.62.63,1.58a13.28,13.28,0,0,1-.85-2.51c-.4-1.27-.76-2.56-1.09-3.85-.73-2.87-.71-6.62-1.82-9.27,0,0,.43,4,.23,1.79-.06-.67-.14-1.33-.21-2-.14-1.55-.25-3.09-.33-4.64-.22-3.87-.31-7.74-.22-11.61,0-1.69.11-3.38.23-5.06.06-.85.13-1.68.2-2.53,0-.35.47-3.07.08-.76-.42,2.51.22-1,.33-1.58q.24-1.23.51-2.46.66-2.86,1.56-5.64c.27-.8.53-1.6.83-2.38-1.29,3.29-.26.76.08.16.82-1.41,2.31-3.7.38-1.09.62-.83,1.84-1,.35-.42s-2.43,1.67-4,1.89a8.71,8.71,0,0,1-3.76-.22l-2.28-1L125.83,157c0-.18-.27-4.12-.14-1.56,0,.87.12,1.73.15,2.6.07,2-.15,4.05-.14,6.07,0,2.21.09-.43.16-.82-.16.86-.3,1.72-.47,2.57-.47,2.3-1.19,4.48-1.82,6.73-.71,2.54.34-1.31.53-1.32a16.11,16.11,0,0,0-.95,1.82c-.65,1.77.7-.82,1-1.1-2.19,2.4.39,0,.89-.31-.77.52-2,.69,0,.17a16.08,16.08,0,0,1,3.39-1,8.94,8.94,0,0,1,3.94.85c.76.32,4.38,3.39,2.63,1.47-.09-.1,2.42,3.38,1.35,1.62s.72,1.8.65,2c.19-.42-.88-2.92-1-3.48a19.08,19.08,0,0,0-.47-2.39s.35,4.19.27,2.19-.2-3.75-.31-5.62c.06,1-1.23,3.45,0,.23-.11.28-1.49,2.69-.45,1.47a15.6,15.6,0,0,0,1.63-2.78c.78-1.6-1.34,2-1.44,2,.28-.08,1-1.14,1.16-1.28,2.17-1.66-4,2.45-1,.93,1.11-.57-4.82,1.76-1.94.9,3.23-1-4.54.38-2.13.33,2.57-.05-5-.88-2.47-.34,3.3.72-2.9-1.93-1.49-.76a6.7,6.7,0,0,0,1.63,1.06c-1.32-.38-3.71-3.61-1.4-1,.46.52.93,1.06,1.4,1.55,2.27,2.35-2-3.49-1-1.33.53,1.07,2.8,5.8,1.37,2.1s.06,1.45.5,2.54c.28.69-.46-5.8-.41-2.37.05,3.07.33-2.27.43-2.87-.49,2.83.89-2.07,1.17-2.61-.85,1.65,3.6-4.22,1.34-1.88a10.5,10.5,0,0,1,5.69-3.6c-2.88,1,2.83-.08,3.87.07a12.11,12.11,0,0,1,4.6,1.64c-.6-.36-1.81-1.3.58.57s1.23.95.67.36c3.42,3.64,1.81,2.79,1.1,1.26-.33-.71-1.77-3.94-.51-.84s-.18-.86-.39-1.58c-.61-2.14-1.08-4.33-1.48-6.53-.13-.76-.24-1.52-.37-2.28-.46-2.69.5.85.17,1.39.61-1-.28-6.21-.23-7.72,0-.48.1-1,.12-1.44.07-2.37-1,4.62-.28,2.48.24-.74.4-1.62.57-2.38.75-3.48-1.67,3.73-.63,1.56,1.45-3.05-1.54,1.81-1.26,1.46.61-.75,2.39-2.19-.36,0-3,2.39-.73.52.06.16,2.35-1.06-4.57,2.15-2.22,1a4.89,4.89,0,0,1,.85-.25c2.84-.67-2.76.45-2.75.32,0-.51,7.12.55,2.07-.24-3.88-.61,1.25.37,2.4.74.84.27,1.66.6,2.49.9,3,1.08-2.41-1.3-1.46-.67,1.61,1.05,3.42,1.81,5.05,2.85s3.06,2.15,4.59,3.26c2.43,1.77-3.15-2.88-1-.76.85.83,1.76,1.6,2.61,2.44,1.38,1.35,2.69,2.78,3.94,4.27.57.67,1.07,1.44,1.67,2.08,1.23,1.31-1.62-2.33-1.53-2.14a15.53,15.53,0,0,0,1.21,1.82c1,1.57,1.87,3.2,2.73,4.85,1.48,2.85.23-.61-.19-.75.67.22,1.66,4.82,1.89,5.6a102.22,102.22,0,0,1,2.57,10.7c.2,1.11.37,2.23.57,3.35.05.29.5,3.11.15.8s.06.5.09.82c.12,1.13.24,2.27.34,3.4.34,3.7.57,7.4.75,11.11.2,4-.22,8.34.33,12.25.27,1.94.16,0,.26-.7-.13.84-.51,1.76-.57,2.6-.22,2.84,1.56-2.45.26-.49-.07.12-1,1.88-1,1.84s2.3-2.68.81-1c-.48.52-.91,1.09-1.39,1.61s-1.07,1-1.5,1.52c-1.33,1.65,2.61-1.75-.17.21a87.82,87.82,0,0,1-7.6,4.7c-3,1.68-.73.44,0,.13-.74.32-1.48.62-2.23.91-1.74.7-3.51,1.32-5.29,1.87-3.35,1-6.73,1.7-10.14,2.4-2.11.44.58-.09.85-.11-1.06.08-2.12.23-3.19.31-1.86.15-3.73.23-5.6.26-3.25,0-6.49-.16-9.73-.43-3.61-.3,2.66.59-.89-.11-1.89-.38-3.77-.75-5.63-1.24-3-.79-5.9-1.9-8.84-2.95-2.07-.74,1.09.5,1.08.5-.35.07-1.56-.78-1.9-1-1.67-.88-3.3-1.83-4.88-2.87-.55-.37-4.08-2.74-2.15-1.41s0,0-.33-.3c-.69-.65-1.39-1.27-2.06-1.95-1-1-1.92-2.08-2.87-3.15-.22-.25-1.8-2.29-.45-.48s-.51-.86-.73-1.22A51.07,51.07,0,0,1,93,210.44c-.75-1.54-1.41-4.21-.54-1.07-1-3.52-2-6.9-2.71-10.51-.08-.43-.37-3-.11-.53.28,2.69,0-.67,0-1.32-.11-1.56-.16-3.12-.16-4.69s.06-3.18.16-4.77c0-.57.31-4.23.08-1.76-.21,2.26.22-1.33.28-1.73a98.48,98.48,0,0,1,2.54-11c.48-1.68,1-3.35,1.57-5,.28-.83.57-1.66.87-2.48.47-1.29,1.47-3.62.4-1.1a155.73,155.73,0,0,1,9.78-19.34c.41-.7,2.1-2.78-.11,0,.49-.62,1-1.25,1.49-1.85,1-1.21,2.25-2.25,3.24-3.46,1.28-1.59-.48.3-.81.54.78-.55,1.53-1.12,2.33-1.63.59-.37,1.27-.67,1.84-1.07,1.9-1.35-2.68.74-.47.19a20.59,20.59,0,0,0,2-.67c2.8-1.07-.45.84-.74-.12,0,0,4.14-.15,4.12-.07-.11.44-3.43-1.05-1.44-.12.29.14,1.93.34,2,.65s-3.91-2.46-.46,0c.78.55,1.59,1.14,2.39,1.65-2.59-1.64-.46-.35.76.84s2.44,2.48,3.63,3.75c2.6,2.78,5.15,5.61,7.62,8.51q3.18,3.72,6.17,7.62c.32.42,2.37,3.17,1,1.31s.33.49.48.7c1.07,1.57,2.13,3.15,3.15,4.75q2.84,4.47,5.29,9.17,1.32,2.53,2.5,5.13c.34.75.64,1.51,1,2.25-.79-1.68-.55-1.55,0,.1a98.89,98.89,0,0,1,3.14,10.58c.39,1.66.72,3.32,1,5,.1.6.5,4.15.27,1.64-.22-2.36.05,1.25.08,1.65a84.28,84.28,0,0,1-.1,11c-.25,3.77.55-2.11-.26,1.57-.49,2.23-.95,4.44-1.6,6.62-.3,1-1.39,2.87-1.32,3.89,0-.22,1.49-3.27.51-1.45-.32.6-.57,1.25-.87,1.87-.71,1.44-1.49,2.85-2.31,4.23-.35.59-.73,1.16-1.08,1.75-1.2,2-.1.58.48-.53-1.28,2.46-3.94,4.79-5.88,6.68l-1.49,1.4c-2.14,2,.41-.6.54-.42s-3.56,2.49-3.89,2.7-4.12,2.26-4.11,2.3c0-.12,3.26-1.26,1.26-.57-.63.22-1.25.5-1.89.73-1.27.45-2.57.84-3.88,1.17a11.45,11.45,0,0,0-2.46.53c.7-.51,3.72-.32,1.08-.2-1.26.06-2.51.15-3.77.13-.63,0-1.26,0-1.88-.07-.88-.05-3.27.37-.72,0,2-.27.91.18-.07-.05l-1.83-.4a42.72,42.72,0,0,1-4.79-1.48,9.84,9.84,0,0,0-1.74-.69c.15,0,3.17,1.66,1.53.62-1-.67-2.17-1.2-3.21-1.88-.69-.44-1.33-1-2-1.41-1.84-1,1.51,1,1.28,1.09s-2.69-2.7-3-3a15.2,15.2,0,0,1-1.18-1.41c.28-.46,2.1,3.55.71.89-.25-.49-2-2.77-1.77-3.27,0-.1,1.09,3.63.45,1.13-.28-1.07-.66-2.11-.92-3.19-.19-.8-.31-1.63-.51-2.43.42,1.69.15,2.3.1.18,0-1.69-.09-3.36,0-5,.06-1.13.15-2.25.27-3.38,0,.37-.62,3.06,0,.93,1-3.81,1.66-7.64,2.91-11.39a8,8,0,0,0,.66-1.92c0,.08-1.47,3.42-.59,1.45.66-1.47,1.29-3,2-4.39.4-.81,5-8.14,4.91-8.31.1.14-2.21,2.75-.8,1.16.45-.5.85-1.06,1.29-1.58.87-1,1.78-2,2.72-3,.26-.26,1.94-1.72,1.93-1.83,0,.13-2.84,2.1-1.15.94,1.25-.86,2.44-1.77,3.75-2.54a13.58,13.58,0,0,0,2.24-1.22c-.11.2-3.28,1.19-1.41.69,1.18-.31,2.51-.67,3.65-1.1,2.06-.78-1.8.22-1.66.12a9.52,9.52,0,0,1,2.61-.19c.68,0,1.35,0,2,0s3.17.78.87,0c-2.58-.86,1.34.47,2,.68,4.3,1.36-1.76-1.28,1,.29,1.15.64,2.29,1.28,3.4,2,.74.48,1.45,1,2.18,1.52,2.5,1.77-.62-.35-.53-.47s5.94,6,6.3,6.38c.92,1.06,1.81,2.15,2.67,3.25.18.22,1.32,1.42,1.29,1.68.07-.53-2-2.89-.38-.49a153.09,153.09,0,0,1,10.67,18.22c.49,1,2.41,5.84,1.19,2.42.57,1.6,1.11,3.21,1.56,4.86.17.61,1.48,4.59,1.1,5,.08-.08-.24-4.06-.17-.94,0,.95.08,1.89.07,2.84,0,.7-.1,1.43-.08,2.13.08,2.14.06-1.42.28-1.61-.37.33-1,4.1-1.1,4.81-.36,2.15.28-1.35.63-1.32-.07,0-.82,1.74-.9,1.89s-1,1.84-1,1.82c1.41-1.78,1.68-2.14.82-1.06a11.65,11.65,0,0,1-.92,1.06c-.15.17-1.32,1.6-1.5,1.55s2.85-1.88.88-.76c-1,.57-3.17,2.68-4.31,2.57-.06,0,3.18-1.06,1-.53-.69.16-1.38.49-2.06.7-1.08.33-4.66,1.82-5.65,1.33,0,0,3.49-.29,1.23-.22-.67,0-1.35.13-2,.17-1.3.07-2.61.09-3.91.07-1.52,0-3-.21-4.54-.29-2-.1,1.52.2,1.61.26a8.81,8.81,0,0,0-2.54-.49,57,57,0,0,1-8.07-2.39c-4-1.52,1.83,1.11-1-.38-1.34-.7-2.68-1.4-4-2.17-2-1.2-4.81-4.28-7-4.79.14,0,2.62,2.36,1.19.94-.46-.46-1-.87-1.44-1.31q-1.87-1.77-3.6-3.72c-.53-.6-1.78-2.77-2.48-3,.06,0,2.06,3.06.94,1.32-.47-.72-1-1.42-1.42-2.15-1.36-2.19-2.27-5.49-3.87-7.4,1.72,2.05,1,2.91.45,1-.18-.62-.39-1.23-.58-1.84q-.55-1.86-1-3.75c-.14-.64-.24-1.27-.37-1.91-.69-3.41.26.85.14,1.27.35-1.22-.2-3.51-.19-4.83,0-.74.06-1.47.07-2.21.08-4.22.07.78-.18.72-.1,0,.8-4,.89-4.35.18-.7.48-1.41.62-2.12.43-2.32-.55,1.29-.57,1.16,0-.36,2.32-5.21,2.71-5.18.11,0-2.27,2.62-.71.95.5-.53.93-1.13,1.43-1.66a22.9,22.9,0,0,0,2-1.92c0,.27-2.88,2-1.18,1,1.07-.59,2.19-1.3,3.21-2,1.63-1.07-1.3.66-1.5.62.57.1,2.29-.82,3-1s1.22-.31,1.82-.49c1.24-.36,1.34-1,.06-.11s-1.34.08.09,0c.84,0,1.68-.12,2.53-.14,1.28,0,2.54.06,3.82.12.51,0,2.72.32.13-.05s.19.1.74.22a41.46,41.46,0,0,1,4.32,1.22c.6.21,1.19.48,1.8.67,2,.66-1.51-.62-1.41-.65.86-.2,3.08,1.69,3.88,2.21.53.35,1.05.72,1.58,1.08,2.11,1.42.09-.43-.44-.42.78,0,3.12,3.06,3.56,3.54s3.27,3.77,1.75,1.93,1,1.58,1.4,2.22c1,1.65,1.91,3.35,2.75,5.1.32.65,2,4.7,1.12,2.38s.79,2.51,1,3.24a84.58,84.58,0,0,1,2.36,10.07c.12.73.21,1.46.34,2.19.41,2.31-.21-1.51-.19-1.49.58.51.27,4.06.3,4.87.13,3.62-.11.49.11-.33.07-.25,1.56-2.8.48-1.13-1.18,1.84.9-.93.89-1,.09.28-1.72,1.87-1.93,2.11-2.21,2.4-.22.28.38-.18-.58.44-1.15.87-1.74,1.3-1.2.88-2.42,1.72-3.65,2.54a100.68,100.68,0,0,1-9.08,5.42c-1.56.83-3.15,1.63-4.75,2.36,2.93-1.34.07-.11-1.24.38a74.16,74.16,0,0,1-10,3c-1.67.37-4.13,1.1-.93.32a25.58,25.58,0,0,1-5,.4c-1.43.05-2.86,0-4.28,0a13.77,13.77,0,0,1-2.13-.15c.08.36,3.88.77-.08-.07a41.66,41.66,0,0,1-4.12-1.1c-.69-.22-1.36-.48-2-.71-2.85-1,.57,0,.47.24,0,.06-3.16-1.8-3.43-2-.55-.36-1.09-.73-1.63-1.11s-2.45-2.3-.74-.51c1.9,2-1.48-1.56-2-2.09s-2.11-3-2.56-3c.1,0,2,3,.89,1.24-.46-.75-1-1.47-1.43-2.23q-1.22-2-2.25-4.11c-.3-.6-.54-1.24-.86-1.82-1.22-2.3,1.12,3.37.31.86-.42-1.29-.89-2.56-1.27-3.86s-.72-2.63-1-4c-.19-.89-.37-1.78-.53-2.68s-.11-3.5-.16-.8c0,2.92,0-1.39-.06-2.17-.07-1.68-.08-3.36,0-5s.23-3.29.34-4.93c0,.26-.56,3.28-.12,1.06.27-1.34.45-2.71.72-4.05a98.38,98.38,0,0,1,2.5-9.58c.58-1.85,1.28-3.65,1.9-5.49.7-2.08-.19.47-.31.75l1-2.31a178.81,178.81,0,0,1,10.42-20c5.07-8.57,2-21.69-6.51-26.46-9-5-19.41-2.2-24.83,6.94Z" transform="translate(-4.89 -4.22)"/><path class="cls-4" d="M100.36,235a61.26,61.26,0,0,0,19.42,14.3c9.37,4.46,19.23,7.78,29.57,5,19.78-5.28,30.14-31.43,25.47-51.23-2.31-9.82-13.14-16.67-22.32-13.51-9.53,3.29-15.15,13.27-12.67,23.79.95,4,.25-2.79,0-.51-.35,3.75.91.48.3-.37.34.47-.78,3-.91,3.46-.55,2.14,2-3.43-.3.25-.57.9-1.13,1.84-1.67,2.77,1.46-2.51.46-.61-.18,0-1.12,1.07,2.48-1.87,3.28-2.1,2.1-.6,2.42-.43,0-.22-2.07.19,3.72,1.15.16-.08-.77-.27-1.56-.48-2.33-.76,0,0-4.38-2-2.24-.9s-1.53-.86-1.93-1.08-6.11-3.65-6-3.89,2.77,2.6.61.45c-.9-.91-1.78-1.79-2.64-2.75-6.55-7.34-19.14-7.56-25.66,0a20.68,20.68,0,0,0,0,27.35Z" transform="translate(-4.89 -4.22)"/><path class="cls-4" d="M83,214.13c7.61,15,24.55,33.66,41.94,23.82,15.21-8.6,16-32.21,13-48-1.89-9.94-13.45-16.57-22.32-13.51-9.89,3.41-14.7,13.15-12.68,23.79.84,4.39.27-2.81.18,1.31,0,.55,0,6.59.09,3.95s-.49,2.37-.66,3-.41,1.58-.66,2.36a13.14,13.14,0,0,1,4.7-6.35l9.16-2.64c2.52-.17,3.94,1.54,5.93,2.45-1.36-.62-2.79-2.74-3.78-3.89-.51-.59-1-1.19-1.48-1.81,1.13,1.61,1.33,1.85.58.72-.84-1.62-1.86-3.14-2.7-4.78-4.52-8.91-16.77-12.47-24.82-6.94A20.49,20.49,0,0,0,83,214.13Z" transform="translate(-4.89 -4.22)"/><path class="cls-4" d="M112.59,163.66q-4.25,1.76-1.53.85,2.88-.63-1.86.21l1,0c2,.12,1.34,0-1.85-.37a10.3,10.3,0,0,1,1.45.38q2,.66-2-1a13.91,13.91,0,0,1,1.7,1c-2.32-2.06-2.81-2.41-1.44-1,6.84,7,19,7.79,25.66,0,6.55-7.61,7.3-19.85,0-27.35-4.53-4.66-10.4-8.33-16.67-9.44-8.27-1.47-15.15-.24-22.75,3.41-3.89,1.87-7.25,7.35-8.33,11.55-1.2,4.63-.66,10.79,1.82,14.9s6.22,7.77,10.85,8.89c5,1.22,9.3.3,14-2Z" transform="translate(-4.89 -4.22)"/><path class="cls-4" d="M115.73,140.22q3-.85-.63-.13-3.67-.84-.63-.05c-6.48-3.15,5.66,2.32,3.55,1.54a32,32,0,0,0,6.83,1.54c.51.08,8.82,1.35,4,.39,1.41.28,2.77.75,4.17,1.05q2.9,1.09-.35-.33,1.29.63,2.52,1.38c1,.58,4.68,2.17.93.38,1.45.69,2.89,3,3.89,4.22l25.66-27.35a94,94,0,0,0-20.6-14.94c-9.72-5.32-19.11-10.13-30.31-7-8.76,2.42-14.17,11.92-13,21.22s8.73,16.81,17.83,16.76c2.27,0,4.54.25,6.8.25,2.64,0-2.9-.65-.33-.09,1,.22,2,.37,3,.61,2.21.52,4.28,1.32,6.43,2-1.46-.46-2-1.08-.27-.07,1.08.63,2.16,1.23,3.2,1.93.41.27,2.77,2.28,1,.68s.5.61.8.92c.54.56,2.22,2,2.36,2.73-.17-.92-1.58-2.6-.45-.32a26,26,0,0,1,1.31,2.55c-.14.11-1.07-3.78-.35-.6.12.52.59,4.51.48,1.64-.11-3.17-.13,1.54-.14,1.74-.24,10.11,8.52,19.79,18.15,19.33,10-.48,17.88-8.49,18.14-19.33.41-16.79-8.27-31.41-20.68-41-11.2-8.67-25.86-11.7-39.45-11.62l4.82,38c-1.66.46-2.67-.24-4.12-.25q-1.69-.9.79.38l1.42.75c2.37,1.23,4.73,2.49,7.06,3.83,2.07,1.19,4.12,2.44,6.11,3.8,1.1.75,2.17,1.52,3.23,2.34-2.54-2,.21.32,1.11,1.19,7,6.81,18.82,7.94,25.66,0,7.09-8.23,6.59-19.1,0-27.35a47.28,47.28,0,0,0-27.17-16.64c-3.17-.6-6.38-.79-9.56-1.24q2.7.49.75,0c-1.13-.36-1.07-.27.18.26s1.31.62.39.2l-2.75-1.24a29.71,29.71,0,0,0-21.41-1.27c-9.08,2.88-15.73,13.7-12.67,23.78,3,9.8,12.58,16.6,22.32,13.51Z" transform="translate(-4.89 -4.22)"/><path class="cls-4" d="M62,160.87c-3.55,5.21-5.18,12.27-6.67,18.46-1.63,6.8-2.75,14-2.2,21,.8,10.06,7.78,19.83,18.15,19.34,9.53-.46,18.52-8.51,18.14-19.34l-.58-16.89c-.34-9.66-6.65-17.69-15.74-19a18.1,18.1,0,0,0-19.91,13.85c-2.82,12.9-2.69,26.49,1.56,39,3.09,9.14,10.54,15.19,19.9,13.85,8.33-1.19,16.43-9.37,15.74-19-.36-4.94-1-9.84-1.37-14.77-.2-2.46-.36-4.92-.37-7.39,0-1.23.06-2.46.07-3.69l.13-1.84c-.33,2.18-.38,2.6-.15,1.28l1.36-5.32c.59-2.35-1.54,2.83-.29.8.47-.77.82-1.64,1.28-2.42s2.09-2.22.47-.83c-1.81,1.55.33,0,.74-.57,1.27-1.72-2.49,1.44-.64.48.93-.48,3.75-1.95-.25-.24,8.77-3.76,15.93-13.07,12.67-23.79-2.75-9-12.89-17.54-22.32-13.5-13.48,5.78-22.69,16.24-27.07,31.11-3.95,13.39-1.53,27.09-.55,40.69l35.64-5.14c-.74-2.17-1.21-4.38-1.85-6.58q-.57-3.39-.14.06c-.1-.85-.16-1.71-.2-2.57-.11-2,0-4,0-6q.3-3.44-.06,0c.19-1.14.41-2.27.68-3.38l-35.64-5.15.58,16.89H89.46a42,42,0,0,1,0-7.09c-.37,4.28.72-2.86.92-3.68.56-2.34,1.19-4.66,1.87-7,.27-1,.56-1.94.89-2.89q-1.36,3.41.25.64c5.6-8.22,1.57-21.91-6.51-26.46C77.45,148.63,68,152.1,62,160.87Z" transform="translate(-4.89 -4.22)"/><path class="cls-4" d="M102.72,106.89C83.62,105.34,70.5,125,64.35,141.73a71.61,71.61,0,0,0-.63,46.79C67,198,76.17,205.43,86,202c8.71-3,16.19-13.62,12.67-23.78-.81-2.36-1.32-4.74-2-7.14-1-3.55,0,2.33-.09,0-.06-1.24-.19-2.47-.22-3.71s0-2.49,0-3.73-.25-4.62-.15-.07c0-2.28,1-5.14,1.59-7.31.12-.43.56-2.68.92-2.85-.86,2-1,2.42-.46,1.13.29-.69.6-1.37.93-2.05,1-2,2.23-3.89,3.33-5.85s-2,2.19.21-.22c.08-.08,3.09-3.42,1.15-1.45s.84-.83,1.54-.86l-1.88,1c-2.69.25-3,.4-.93.47,9.49.77,18.56-9.45,18.15-19.34-.47-11.14-8-18.51-18.15-19.34Z" transform="translate(-4.89 -4.22)"/><path class="cls-4" d="M94.22,110.12c-21.17,4-35.1,24.31-40.81,45.06-5.84,21.27-7.31,47.91,9.87,63.93,7.14,6.66,18.73,8,25.66,0,6.29-7.3,7.63-20.23,0-27.35a21.43,21.43,0,0,1-2-2q-1.64-2-.25-.26c.88,1.2.86,1.07-.06-.41-.9-1.91-.86-1.66.14.76-.74-.87-.86-3-1.15-4.09-1.06-4-.17,3.83-.1-1.24,0-1.8.06-3.59.1-5.39.22-2.32.2-2.4-.05-.26.13-.89.27-1.79.44-2.68.63-3.62,1.39-7.23,2.37-10.77.44-1.61,1-3.17,1.46-4.76,1.32-4.14-1.25,1.94.65-1.52.91-1.66,2-3.38,2.77-5.08.82-1.27.56-1-.78.91.57-.75,1.16-1.47,1.78-2.18.76-.86,1.94-2.65,3-3q-2.58,2-1,.81c.55-.42,1.12-.81,1.71-1.18.78-.5,1.58-1,2.4-1.39l-1.83.81c1-1,4-1.21,5.29-1.47,9.37-1.79,15.5-14.48,12.68-23.79-3.26-10.71-12.29-15.41-22.32-13.5Z" transform="translate(-4.89 -4.22)"/><path class="cls-4" d="M91.3,214.87c-.58-2.61-1.15-5.22-1.63-7.86-.06-.37-.59-4-.34-1.83.29,2.42-.13-2.82-.13-2.76,0-1.08,0-2.17,0-3.25,0-2.2.3-1.37-.13.26.34-1.29.7-2.65,1-4,.51-2.52-1.76,3.52.41-.61,4.63-8.83,2.26-21.51-6.51-26.45-8.56-4.82-19.88-2.49-24.83,6.93-8.32,15.86-6.54,32.82-2.82,49.8,2.16,9.86,13.25,16.64,22.32,13.51,9.66-3.33,15-13.23,12.68-23.79Z" transform="translate(-4.89 -4.22)"/><path class="cls-4" d="M57.62,154.2c-4.27,18.08-10.83,37.55-9.91,56.4.89,18.32,9.11,37.2,25.24,45.54,8.53,4.4,20,2.78,24.83-6.94,4.3-8.67,2.61-21.74-6.51-26.45-.41-.22-3.31-1.38-3.4-2q2.91,2.55.67.5l-.91-.94c-.6-.64-1.16-1.31-1.7-2L87.25,220c-.64-.11-1.55-2.82-1.94-3.51-2-3.45.71,3.22-.14-.41-.31-1.31-.64-2.66-1-4-1.09-3.78-.07,3.86-.11-.66,0-2.1-.14-4.16,0-6.26,0-.63.54-5.84.25-3.69s.56-3.06.67-3.67c.68-3.57,1.49-7.1,2.32-10.63q2.67-11.38,5.37-22.77c2.31-9.8-3-21.43-12.67-23.79A18.34,18.34,0,0,0,57.62,154.2Z" transform="translate(-4.89 -4.22)"/><path class="cls-4" d="M171.27,212.58l-.7,8.09-.3,3.53c-.18,1.91-.52,3.37,0,.65-.2,1.09-.37,2.18-.63,3.26-.15.61-1.72,4.53-.55,2.11s-.47.67-.68,1.06c-.61,1.1-1.27,2.15-2,3.18,2.21-3.23-1,.88-2,1.86s-1.86,1.73-2.78,2.61c-2,1.89,2.18-1.44-.07,0-4.28,2.79-8.42,5.77-12.78,8.45-8.22,5.07-11.8,17.71-6.51,26.46s16,12.36,24.83,6.94c11.67-7.19,22.66-15,30.64-26.84,8.24-12.19,8.56-27,9.8-41.4.88-10.1-9-19.77-18.14-19.33-10.58.5-17.21,8.51-18.15,19.33Z" transform="translate(-4.89 -4.22)"/><path class="cls-4" d="M96.84,283.08c10.42,10.3,23.69,10.21,36.88,7.82a69.37,69.37,0,0,0,29.06-13c7.71-5.87,12.16-17.13,6.51-26.46-4.92-8.14-16.57-13.23-24.82-6.94a68.16,68.16,0,0,1-9.25,5.89c-4.32,2.31,3.23-1-1.39.57-1.73.58-3.44,1.19-5.2,1.67s-3.53.86-5.32,1.16c3.24-.55.17-.08-1.36,0-.87,0-3.24.49-4.06-.06,2.58.43,2.88.4.9-.11a8.05,8.05,0,0,1,3.71,2.19c-7-6.88-18.86-7.9-25.66,0-6.44,7.48-7.43,20,0,27.34Z" transform="translate(-4.89 -4.22)"/><path class="cls-5" d="M105.52,172.74c-.16-.08-.13.22-.15,0C105.47,172.68,105.55,172.65,105.52,172.74Z" transform="translate(-4.89 -4.22)"/><path class="cls-5" d="M144.82,173.42c.25.89-.79.94-.85,1.68,0,.08-.28-.29-.31-.11,0,.8-.92,1.21-1.73,1.29l0-.12c-.15,0,0,.42-.18.47s0-.12-.12-.18c.12.21-.13.24-.08.41-.09,0-.2-.19-.32-.22l.1.25c.18.62-.46.28-.53.72,0-.06,0-.12-.07-.15-.2.58-.76.86-1.16,1.26a.81.81,0,0,0-.18-.31.42.42,0,0,1-.1.51c-.2-.21-.1.34-.33.3v-.07c0,.32-.25-.05-.18.31l-.17-.15c.13.37-.26-.1-.26.13l0,.07c-.05.13-.19,0-.24.07l0,0c-.15.18-.36,0-.22.32-.18-.19.14-.2-.13-.47a4.38,4.38,0,0,1-1.88,1.12c-.12-.09-.18-.11-.24-.21,0,.08-.23.14-.24.31,0,0-.1-.13-.14-.13s0,.37-.2.29a.4.4,0,0,0,0-.3c0,.26-.21.28-.32.41a.25.25,0,0,0,0-.19c-.06.31-.29,0-.37.24v-.18c-.28-.14.05.37-.18.3,0-.06,0-.12,0-.19-.07.35-.39.34-.53.49a.56.56,0,0,0,0-.07c-.18.09-.4.07-.58.25-.09-.06-.08-.43-.27-.32.1.35-.3.23-.09.59-.19,0-.49-.08-.58.07,0-.15-.18-.41,0-.47l-.16-.18c0-.15.12,0,.05-.15-.07,0-.24.21-.32.17-.09.24-.13.66-.34.75.08-.16-.13-.37-.07-.45l-.18.73c-.07,0-.07-.27-.16-.16a.5.5,0,0,1,0,.24s-.29.14-.38-.2c-.06-.13.1-.1,0-.2s-.12.15-.25.17v0c-.1,0-.24.18-.12.36.07,0,0-.21.06-.12a.37.37,0,0,1-.33.31c0-.06,0-.15,0-.26a1.44,1.44,0,0,1-.53.56c0,.16,0-.32.08-.23-.29-.2-.51.4-.77.08,0,0,0,.23,0,.19s-.15-.26-.23-.16c0-.14-.1.05-.18.1s0-.07,0-.09c-.1.13-.58.39-.87.2,0,.1-.15.36-.22.35l0-.22c-.07-.13-.22,0-.24-.17-.12.28.52-.24.34,0,0-.17-.24.36-.21.06-.13,0-.25.26-.38.06,0,0,.1-.31,0-.29s-.05.11-.19.18l-.09.09c0,.22-.17,0-.1.22,0-.18-.26.11-.25-.24l0-.28c-.08,0-.13.29-.19.42a.18.18,0,0,1,0-.13c0,.43-.19,0-.29.3-.16-.16-.43,0-.5-.3-.13.13-.25.28-.4.18,0,0,.07,0,.09-.14s-.12,0-.2,0-.18-.26-.27-.41c-.13.12-.1.35-.12.49-.09-.43-.38.24-.5-.15,0,0,.2-.19.1-.31-.08-.42-.26.3-.43.08l0,.35c-.06-.22-.3.18-.24-.18-.08.12-.21-.13-.23.21-.27-.3-.77.08-.88-.55,0,.06-.15,0-.15.16s.12-.12.13,0-.07.1-.08.14-.15-.12,0-.39c-.18-.24-.3.54-.55.37,0-.13,0-.19-.06-.18l-.19.22c-.17-.08,0-.33,0-.57-.1,0-.21,0-.28.16l-.06-.32c0,.23-.1.13-.16.18l.06,0c0-.1-.12-.06-.18,0a.35.35,0,0,0,.14.28c-.07.09-.14.05-.22.16.06-.22-.12-.19-.19-.23s-.14.19-.16.18-.13-.05,0-.2,0,.13.11,0,0-.31-.14-.18-.07.46-.2.28a1,1,0,0,0,.13-.21l-.13-.15,0,.21c0-.06,0-.07,0-.1-.09.21-.25,0-.33.26-.09,0-.13-.19-.2-.23h0c-.06-.15-.2-.1-.31,0v0a.24.24,0,0,0-.26.08c-.08-.18.16-.79,0-.56-.13,0-.3.33-.28.47-.19-.19-.54.08-.66-.31,0,.08,0,.14-.13.16-.3-.17-.77,0-.91-.44.13-.06.07-.2.11-.32-.14.16,0-.22-.16.09s-.09.27,0,.37a.49.49,0,0,1-.57-.27c0,.1,0,.14-.1.18.11-.29,0-.38-.16-.32l-.07.18v-.21c-.06,0-.18.35-.22.14a1.81,1.81,0,0,0,0-.19c-.16.1-.41.29-.48.1v-.3c-.06,0-.2.13-.14.24-.15-.24-.27-.31-.25-.56a1.27,1.27,0,0,1-1.47,0l.07-.13c0-.17-.16.2-.2.08s.05-.31.2-.41c-.09-.21-.3.12-.43.13s.13-.07,0,.14c0,.05-.15-.23-.29,0a.93.93,0,0,1,.2-.38l-.16.07c0-.34.52-.4.57-.82H113c.05-.3.36-.19.2-.38-.15.08-.41.41-.38.56-.23,0-.39.55-.58.43,0-.17.18,0,.24-.18s-.25,0-.3-.09c0,.14-.16.35-.25.36,0-.17.19-.2.06-.3-.1.13-.29.16-.23.32-.22.3-.11-.17-.32,0,.07-.26.43-.45.33-.65-.09.24-.36.19-.45.56a.47.47,0,0,1,.18-.38c0-.18-.44.28-.24-.17l-.15.2c0-.08,0-.16,0-.3s-.43.15-.23-.17c0,0-.21-.1-.28.17s.23-.1.11.25c.07-.3-.18-.06-.29,0l.06-.13c-.07,0-.14-.06-.25.07a.23.23,0,0,0,.1-.2l-.16.16c-.21,0,.17-.36,0-.39l.2-.08s0-.2-.1-.18-.31.33-.42.46.08-.23-.11-.1l.24-.14s.1-.34,0-.4-.38.2-.33.36c-.06,0-.07-.18,0-.28-.16,0-.1.19-.28.23,0-.14,0-.39,0-.62l.3-.21-.07-.05c.24-.16.06-.21.27-.41,0-.08-.13,0-.22,0-.11.48-.52.41-.71.79-.28,0,.45-.94-.14-.54,0,.12-.31.31-.11.3-.1-.13-.33.29-.38,0,.21-.07.13-.43.43-.53-.09.11,0,.15.08.13s.25-.34.12-.43-.21-.08-.32.11.13.06-.06.22c-.21,0,0-.35-.33-.05.12,0,0,.26-.1.39H108l.12-.11c-.12-.23-.23.2-.39,0l.11-.32c.21-.19.18.29.42-.09-.11-.1-.28.05-.32-.12,0,0,.09,0,.14,0s.28-.55-.09-.4c-.16,0-.11.11-.22.24-.21-.1-.37,0-.5-.08.22-.24-.19-.19.15-.35-.06.2.21.39.47.19s.1.16.38-.12c-.14-.12.1-.42.23-.63,0,0-.13,0-.18,0-.16.17-.1.21-.25.4a.44.44,0,0,0-.58-.08c0-.13.18-.3.26-.27a1.08,1.08,0,0,1-.53-.48c-.14.39-.25-.1-.38.2a.53.53,0,0,1-.23.51c0-.07.11-.12.14-.2-.21.09.11-.36-.18-.18.24.06.34-.32.56-.52-.23,0,.15-.15,0-.26a1.31,1.31,0,0,1-.63-.07c0-.35-.39-.39-.54-.52,0-.18.32-.37.28-.49s-.19.33-.21.08l.06,0c-.1,0-.08-.41-.47-.11l.31-.21s-.09,0-.14,0,.14-.19.23-.2c.11-.26-.2-.14-.29-.23l-.1.21c-.27-.05-.21-.31-.4-.41l.16-.14h-.18c.18-.11.21-.28,0-.22l.61-.1c0,.15-.26.09-.38.27s.06.27.23.15c0-.07-.06,0-.16,0,.21-.22.27-.12.45-.22,0,0,0-.12-.07-.06a.25.25,0,0,1,.3.09c-.14,0-.1.15-.18.19.2-.17.33-.13.38,0-.14.28.34.07.4.25a1.27,1.27,0,0,1-.6.21c0,.17.09.09.07.26.18-.1.43-.29.61-.27l-.13.14c.16,0,.36-.18.44,0a3,3,0,0,0,.5.62l-.12.15c.36-.24.4.15.64.11.08.34.58.23.48.58a3.72,3.72,0,0,1,1.26.67l-.23.18c.2-.12,0,.17,0,.18,0-.24.27-.17.42-.28.06.31.43.29.7.22l-.09.16c.36-.2.39.19.57.37,0,.09-.07.27,0,.29.28-.2.33-.14.6-.21a1,1,0,0,1,.36.42c.68-.12,1,.38,1.66.37l-.06.23c.68-.2,1.12.44,1.65.39l-.19.35c.09.16.34,0,.41-.24.09.16.41-.06.38.27.11.12.23-.1.37-.11a.74.74,0,0,0,.62.27l0-.05c-.06.07-.11.23-.06.27s.34.22.38-.25c.21.34.73,0,.9.42,0-.14.09-.14.14-.21.25.07.45.38.71.22,0,.07-.12.19,0,.23s0-.16.13-.21c.46-.13.77.44,1.17.45a9,9,0,0,1,2,.17l0,.09c.26-.32.47.43.7-.1,0,.1.2.06.14.24.19-.24.47.28.74,0,0,0,0,0-.06,0,.24.24.48,0,.74.15a.34.34,0,0,0-.1.16c.1.18.27-.39.31.07.06,0,.05-.23,0-.22a3.59,3.59,0,0,0,1.82-.21c.45.25.06.76.39.41,0,.08,0-.18,0-.09.13-.13.24.49.32.25s.06-.16,0-.33c.28.16.36.4.55.18v.14c.21-.42.52-.23.67-.73a30,30,0,0,0,3.8-1.15c1.28-.26,2.38-.89,3.67-1.18.44.22.46.19.69-.09,0,.06,0,.08.05.12-.12-.29.2-.13.1-.41a7.49,7.49,0,0,0,1.23-.7c-.05.07,0,.31.12.24l0-.22.06.07a.26.26,0,0,0-.09-.29c.89-.87,2.24-1,3.11-1.9.31-.09.51-.47.69-.73a3,3,0,0,0,2.11-1.71S144.93,173,144.82,173.42Z" transform="translate(-4.89 -4.22)"/><path class="cls-5" d="M105.67,172.87c-.09.13-.08.27-.3.34A2.51,2.51,0,0,1,105.67,172.87Z" transform="translate(-4.89 -4.22)"/><path class="cls-5" d="M106.74,176.26s0,.08,0,.11-.16,0-.13,0S106.69,176.3,106.74,176.26Z" transform="translate(-4.89 -4.22)"/><path class="cls-5" d="M107.32,176.88a.37.37,0,0,1-.4,0Z" transform="translate(-4.89 -4.22)"/><path class="cls-5" d="M107.58,177.82c0,.14-.07.18-.14.12S107.53,177.86,107.58,177.82Z" transform="translate(-4.89 -4.22)"/><path class="cls-5" d="M107.82,177.6c.06,0,0,.13,0,.21C107.9,177.71,107.66,177.78,107.82,177.6Z" transform="translate(-4.89 -4.22)"/><path class="cls-5" d="M109,178.94s.18,0,.13.12C109.14,179,108.85,179.09,109,178.94Z" transform="translate(-4.89 -4.22)"/><path class="cls-5" d="M109.78,179.2s0,0,.06,0a.13.13,0,0,1-.13.13Z" transform="translate(-4.89 -4.22)"/><polygon class="cls-5" points="118.59 178.88 118.5 178.94 118.53 178.8 118.59 178.88"/><path class="cls-5" d="M129.7,182.92c.07-.09.08.13.09.15S129.8,182.89,129.7,182.92Z" transform="translate(-4.89 -4.22)"/><polygon class="cls-5" points="127.94 177.38 127.92 177.39 127.86 177.11 127.94 177.38"/><path class="cls-5" d="M101.08,143.63c.06-.22-.27,0,0-.18C101.14,143.54,101.19,143.62,101.08,143.63Z" transform="translate(-4.89 -4.22)"/><path class="cls-5" d="M101.82,143.19a.77.77,0,0,1,.68-.72,2.49,2.49,0,0,1,1.09.07,3.07,3.07,0,0,0,.63.1c.11,0-.22.33,0,.37,1.06,0,1.78,1.56,1.56,2.58l-.13,0c0,.19.39.31.36.51-.08,0-.12-.05-.22,0,.24,0,.14.3.3.4-.09.06-.27,0-.38.07l.25.17a.4.4,0,0,1,.1.63c-.14.17-.32.27-.37.55,0-.07,0-.14-.1-.16a.92.92,0,0,1-.19.33c-.48.49-1.4.33-2.1.25a.51.51,0,0,0,.11-.34c-.11.25-.38.24-.62.21,0-.3-.47.08-.66-.2l0,0c-.32.15-.18-.29-.5-.09v-.26c-.31.27-.11-.34-.36-.29l0,.06c-.19,0-.12-.24-.26-.31l0,0c-.32-.21-.22-.53-.49-.37.15-.22.28.25.48-.11a1.49,1.49,0,0,1-.4-1.62A1.81,1.81,0,0,1,102,143.8c.17.15.24.11.28.24.1-.07.4,0,.52-.16,0,0,0,.17.09.21.14.19.31-.24.46,0a.23.23,0,0,0-.19.21c.24-.1.42.12.58.26,0,0-.1,0-.16.07.32,0,.14.44.32.54a.4.4,0,0,1-.15,0c0,.2,0,.19.09.17s.21-.06.17.13c-.06-.06-.13,0-.19,0,.33.17.16.73.09,1,0,0-.06,0-.06,0-.11.31-.52.69-.64.49a1.79,1.79,0,0,1-.22-.25,1.67,1.67,0,0,0-.23-.23c.08.11,0,.14,0,.11s-.23,0,0,.33a1.74,1.74,0,0,1-.63-.55l-.15-.29c0-.1-.1-.2-.08-.24v-.28a1.64,1.64,0,0,0,0-.52c.11.25.31.37.34.55a.31.31,0,0,1,0-.09c0,.06,0,.13,0,.13a1,1,0,0,1,0-.48c0-.16,0-.26,0-.56a2,2,0,0,1,.07-.41.62.62,0,0,1,.17-.26c-.12.25.08.44,0,.52a2.39,2.39,0,0,1,.49-1c.14,0,0,.28.18.19,0-.09.11-.15.2-.2s.6.17.44.52c0,.15-.19-.07-.14.12s.23.07.37.25l0,0c0,.16.29.32.37,0,0-.12-.13.17-.13-.05.2,0,.37.24.42.51-.06-.06-.14,0-.23,0a1.33,1.33,0,0,1,.43,1.11c.16,0-.26-.17-.17-.23a3.87,3.87,0,0,0-.26.88c-.09.3-.27.64-.64.68.05-.08.22.15.17.12-.31.21-.45,0-.6.14-.09-.14-.26.13-.52.13s-.07-.07.13-.07a1.31,1.31,0,0,1-1-.18,2,2,0,0,1-.83-.88s-.39-.27-.43-.42l.15,0c0-.12-.16-.43,0-.43-.1-.15,0,.12.11.35s.31.43.15.28c0-.09-.41-.46-.21-.4-.09-.23-.27-.53-.16-.74,0,.07.18.26.16.07,0-.35,0-.12-.07-.42v-.21c-.12-.1.12-.3,0-.27.07,0,.2-.57.34-.33l.09.19a2.2,2.2,0,0,0,.06-.55s.08,0,.09.05c-.13-.32.29-.25.39-.6l.29-.09.15-.15c0-.06.09-.1.15-.08.22,0,.41,0,.48.18a.81.81,0,0,1,.86,0c-.07,0-.15,0-.2.07.14.19.22.09.41.12,0,0,0,.12.1.25l0,.09v0h0l0-.05h0v0l0,.05a1,1,0,0,1,.07.2c.27.05.36-.17.47-.26,0,.24.13.32.32.43s.38.27.28.5c-.09-.06-.37-.21-.35,0-.26.38.5.24.44.67l.3-.2c-.15.22.35.5,0,.54.15.1,0,.44.29.36a5.91,5.91,0,0,0-.11,1c0,.35-.17.66-.52.72,0,.1-.11.27.07.3s-.06-.24.09-.24c0,.08.06.13.1.15-.15.16-.23.27-.42,0-.35.23.33.68-.18,1.1-.08-.11-.15-.12-.25,0a1.89,1.89,0,0,1-.1.41c-.35.2-.36-.14-.5-.32-.07.08-.17.14-.24.22a.28.28,0,0,0-.1.2,2.14,2.14,0,0,1-.32-.2c.23.16-.09.19-.17.26l.07-.08c-.06-.08-.24,0-.35.06,0,.15.29.17.43.17-.07.13-.24.14-.36.29,0-.24-.35-.13-.52-.16s-.22.2-.28.18-.3-.05-.13-.21.13.14.24,0c-.12-.1-.08-.3-.33-.19s0,.47-.36.24c.11,0,.15-.12.23-.19l-.28-.19-.07.2c0-.07,0-.08,0-.11-.16.18-.49-.12-.66.06-.17-.08-.24-.32-.35-.43h0A.53.53,0,0,0,100,149l0,0a.74.74,0,0,0-.42-.26c0-.31.6-.54.24-.6a.42.42,0,0,0-.6,0c-.1-.45-.59-.84-.37-1.33-.1,0-.15,0-.22-.11,0-.64-.35-1.48.19-1.95.05.21.21.06.33.08-.15-.19.24-.12-.06-.26s-.27-.09-.41.09c0-.44.29-1.09.6-1.19-.14.06-.14-.05-.13-.17.24.19.44,0,.52-.27l-.12-.15.25,0c0-.11-.21-.36.1-.39a.34.34,0,0,0,.18.11c.07-.28.24-.7.56-.7l.32.15c.08-.08.19-.32,0-.3.49,0,.76-.08,1,.12a1.79,1.79,0,0,1,1.21-.66,3.21,3.21,0,0,1,1.42.15l-.06.13c.18.19.18-.21.32-.06-.12.11.07.34-.15.43.24.25.47-.09.7,0,.11-.15-.21,0-.07-.17.06,0,.36.34.54.13,0,.14-.14.28-.23.36h.24c0,.39-.76.23-.74.71a.76.76,0,0,1,.16,0c0,.32-.5.1-.24.36.19,0,.55-.29.49-.48.35.14.52-.45.88-.14,0,.2-.32-.2-.39,0s.41.17.49.37c-.08-.23.25-.3.39-.23.07.27-.3.07-.09.33.16-.07.45.11.37-.18.36-.13.14.35.49.35-.16.23-.69.05-.59.42.17-.2.53.22.74-.14,0,.18-.15.28-.33.26,0,.24.65.3.22.56H108a3,3,0,0,1-.18.37c.06.17.48.61.09.63.06.06,0,.53.31.35s-.22-.33.12-.56c-.26.27.08.46.18.66l-.15,0c.05.11,0,.36.15.45a.14.14,0,0,0-.23,0l.21.15c0,.46-.4,0-.43.43,0-.11-.06-.22-.1-.33,0,.08-.21.15-.19.34a5.45,5.45,0,0,1,.49.45c0,.26-.25,0-.15.3,0-.12-.07-.24-.11-.36s-.38.06-.5.29.1.59.34.38c-.07.14-.28.25-.35.07-.11.31.22.08.16.4-.18,0-.57.19-.85.21,0-.15-.05-.29-.08-.43l-.12.13c-.06-.35-.22-.06-.36-.35-.1.06-.12.21-.14.33.57.1.15.73.47,1-.38.43-.83-.66-.92.18.13.05.06.46.29.19-.31.12,0,.48-.45.5.19-.28-.44-.27-.18-.66,0,.14.24,0,.27-.06-.18-.09-.18-.39-.43-.27s-.36.2-.26.4.26-.13.24.14c-.34.22-.5-.13-.54.33.23-.09.36.12.41.28l-.27.18,0-.17c-.5,0-.07.33-.57.38-.09-.1-.18-.19-.26-.29.07-.28.69,0,.51-.41-.27,0-.34.28-.62.19,0,0,.13-.06.19-.11-.12,0-.26-.58-.61-.22-.2.14-.06.16-.06.33a6.68,6.68,0,0,1-1,.16c.12-.31-.53-.15-.12-.4.09.23.8.31,1,0-.15-.39.35.06.42-.35-.33,0-.31-.38-.36-.63-.07,0-.15.09-.21.13,0,.23.06.23.06.47a1.3,1.3,0,0,0-1,.15c-.1-.15,0-.36.15-.35a2.1,2.1,0,0,1-1.17-.55c0,.48-.44-.21-.48.15.14.22.18.58,0,.64-.13-.12.1-.14.08-.25-.29,0-.06-.45-.41-.33.43.21.36-.3.62-.48-.32-.05.14-.15-.05-.33a1.66,1.66,0,0,1-.87-.47c0-.47-.44-.87-.54-1.22.1-.21.46-.18.48-.36s-.33.23-.24-.11l.07,0c-.1-.09.16-.57-.33-.65l.38.08s-.06-.1-.1-.15c.12,0,.23-.07.31,0,.25-.18,0-.37,0-.57l-.23.11c-.14-.38.13-.58.16-.92l.2.07a1.55,1.55,0,0,1-.06-.23c.18.12.37,0,.25-.15a3,3,0,0,0,.32.62c-.16.09-.21-.2-.43-.2s-.23.34,0,.42c0-.1,0-.12,0-.22.29,0,.24.2.42.31,0-.06.11-.11,0-.14a.44.44,0,0,1,.1.39c-.1-.12-.19,0-.26,0,.25.05.31.2.24.4-.31.15.2.37.15.59a1,1,0,0,1-.62-.31c-.12.18,0,.18-.08.37a1.55,1.55,0,0,1,.67.21l-.18.06c.13.15.42,0,.43.27a1.76,1.76,0,0,0,.42.89l-.14.14c.4-.17.48.24.76.18.21.34.7.09.8.44a6.73,6.73,0,0,0,1.67-.46l0,.3c0-.24.14.11.23,0-.22-.13,0-.33,0-.52.35.05.46-.4.4-.66l.16.11c-.17-.38.21-.41.36-.67.08,0,.27,0,.27-.1-.28-.21-.25-.28-.45-.45a2.35,2.35,0,0,1,.09-.49c-.6-.31-.82-.88-1.48-.9l0-.22a2.21,2.21,0,0,1-1,0,.9.9,0,0,0-.77.15l-.07-.38c-.2-.07-.3.22-.14.45-.19,0-.16.31-.42.1-.14,0,0,.23,0,.34-.27.08-.27.18-.29.4a.08.08,0,0,1,0,0c-.07-.05-.22-.13-.27-.08s-.2.32.28.33c-.16.09-.12.26-.07.41s.1.29-.05.46c.12-.05.16,0,.25,0,.05.21-.06.56.22.58,0,.06-.21.08-.16.16s.13-.1.22-.09.22.16.28.28.12.25.24.24a1.48,1.48,0,0,0,.28-.19.71.71,0,0,0,.3-.52l.09,0c-.16-.12-.06-.18,0-.28s.11-.21-.17-.23c.09,0,0-.14.2-.16-.14,0-.11-.12-.1-.23s0-.21-.16-.14c0,0,0,0,.05,0,.07-.24-.18-.1-.22-.29a.61.61,0,0,0,.11-.14c0-.19-.24.34-.18-.09,0,0-.06.21,0,.2a.31.31,0,0,0-.43.16.48.48,0,0,0,0,.47c-.07.17-.42,0-.12.19,0,0,.08,0,0,0s-.07.23.07.21.08,0,.12-.09c.1.13.21.25.34.13v.06c.07-.1.12-.16.16-.23a.12.12,0,0,0-.07-.2c.12-.22-.16-.45-.28-.23s0,.23,0,.22,0-.08,0-.08h0c.06.26-.07-.34,0-.28h0v0s0,0,0,0a.69.69,0,0,0-.19-.2l-.08,0h0l.48.13h0l-.07,0h-.1s-.08,0,0,0h-.07s0,0,.12,0c-.06,0-.08,0-.12.06.27-.16.09.09.35-.09a2.13,2.13,0,0,0,1.12.62c-.09,0-.21.23-.11.25l.16-.17v.09a.24.24,0,0,0,.14-.27h.24a0,0,0,0,0,0,0s0,0,0,0a.15.15,0,0,0,.22,0,.09.09,0,0,0,0-.06s0-.11,0-.19a1.58,1.58,0,0,0-.21-.55,1.42,1.42,0,0,0-.7-.86,1.79,1.79,0,0,0-.38-.66.54.54,0,0,0-.55-.16c-.21.06-.29.22-.2.3a1.25,1.25,0,0,1-.39-.19A.53.53,0,0,1,101.82,143.19Z" transform="translate(-4.89 -4.22)"/><path class="cls-5" d="M101,143.86c-.16-.05-.32.06-.44-.15A1.63,1.63,0,0,1,101,143.86Z" transform="translate(-4.89 -4.22)"/><path class="cls-5" d="M100.41,148.74s0,.11,0,.14-.22,0-.21-.11C100.3,148.82,100.34,148.76,100.41,148.74Z" transform="translate(-4.89 -4.22)"/><path class="cls-5" d="M101.78,149.67c-.07.13-.46.09-.67,0C101.34,149.68,101.57,149.68,101.78,149.67Z" transform="translate(-4.89 -4.22)"/><path class="cls-5" d="M103.26,150.5c.15.12.11.18-.09.18C103.16,150.6,103.22,150.57,103.26,150.5Z" transform="translate(-4.89 -4.22)"/><path class="cls-5" d="M103.38,150.18a.34.34,0,0,1,.27.15C103.64,150.21,103.34,150.42,103.38,150.18Z" transform="translate(-4.89 -4.22)"/><path class="cls-5" d="M106.82,149.25c.06-.07.12-.29.3-.25C107,149,106.91,149.45,106.82,149.25Z" transform="translate(-4.89 -4.22)"/><path class="cls-5" d="M107.72,147.72s.07-.05.06-.13.15.08.12.16Z" transform="translate(-4.89 -4.22)"/><path class="cls-5" d="M105.38,144.85l.13.13-.14,0A.92.92,0,0,0,105.38,144.85Z" transform="translate(-4.89 -4.22)"/><path class="cls-5" d="M104.89,145c-.11-.14.09-.18.1-.22C105,145,104.83,144.8,104.89,145Z" transform="translate(-4.89 -4.22)"/><polygon class="cls-5" points="98.2 142.72 98.18 142.71 97.98 142.41 98.2 142.72"/><path class="cls-5" d="M142.83,143.77c.07-.21-.27-.05,0-.18C142.89,143.69,142.94,143.77,142.83,143.77Z" transform="translate(-4.89 -4.22)"/><path class="cls-5" d="M143.58,143.34c0-.51.52-.77,1-.76s.9.18,1.41.2c.1,0-.23.33,0,.37,1.06,0,1.79,1.56,1.56,2.59l-.12,0c0,.19.38.32.35.52-.08,0-.11,0-.21,0,.23,0,.13.31.3.41-.1.06-.28,0-.38.07.09.05.16.11.25.17a.41.41,0,0,1,.1.63c-.14.16-.33.27-.38.54,0-.06,0-.13-.1-.16a.73.73,0,0,1-.19.33c-.48.49-1.4.33-2.09.25a.55.55,0,0,0,.11-.34c-.11.26-.39.25-.63.21,0-.29-.47.08-.66-.19l0,0c-.32.15-.17-.28-.5-.09v-.25c-.31.27-.11-.34-.36-.3l0,.07c-.19-.05-.11-.24-.26-.32l0,0c-.32-.21-.23-.52-.49-.36.14-.23.28.25.48-.11a1.5,1.5,0,0,1-.41-1.62,1.83,1.83,0,0,1,1.39-1.12c.16.14.23.11.27.24.1-.08.4-.05.52-.16,0,0,0,.17.1.2.14.19.3-.23.45,0a.21.21,0,0,0-.18.21c.23-.11.41.11.57.26-.05,0-.1,0-.15.07.32,0,.14.44.32.54h-.16c0,.2,0,.19.1.17s.21-.06.16.13c-.06-.06-.13,0-.19,0,.33.17.16.74.1,1.05a.13.13,0,0,0-.07,0c-.1.31-.51.69-.64.48a3,3,0,0,1-.22-.25,1.15,1.15,0,0,0-.22-.22c.07.1,0,.13,0,.11s-.23,0,0,.32a1.46,1.46,0,0,1-.63-.54l-.15-.3c-.05-.09-.11-.2-.09-.23v-.28a1.7,1.7,0,0,0,0-.53c.1.26.3.38.33.56a.33.33,0,0,1,0-.1c0,.06,0,.13,0,.13a1.11,1.11,0,0,1-.05-.47c0-.16,0-.27,0-.57a1.76,1.76,0,0,1,.07-.4.66.66,0,0,1,.17-.27c-.11.26.09.44,0,.53a2.33,2.33,0,0,1,.49-.95c.13,0,0,.28.17.18,0-.09.12-.14.2-.2s.6.18.45.53c0,.14-.2-.07-.15.12s.23.06.38.25l0,0c0,.15.3.32.37,0,0-.12-.12.17-.13-.05.2,0,.38.23.43.51-.07-.07-.15,0-.24,0a1.33,1.33,0,0,1,.43,1.11c.17,0-.26-.18-.17-.24a4,4,0,0,0-.25.88c-.09.3-.28.65-.65.69,0-.09.22.14.18.11-.32.21-.45,0-.61.14-.09-.13-.25.14-.52.13-.11.09-.07-.07.14-.07a1.24,1.24,0,0,1-1-.18,2,2,0,0,1-.83-.88s-.39-.27-.42-.42l.14,0c0-.12-.16-.43-.05-.44-.1-.15,0,.12.11.36s.32.42.16.28c0-.09-.42-.47-.21-.4-.1-.24-.28-.54-.16-.74,0,.06.17.25.16.06,0-.34-.06-.12-.07-.42v-.21c-.11-.09.13-.3,0-.27.08,0,.2-.56.34-.33l.09.2A2.94,2.94,0,0,0,143,144s.08,0,.09,0c-.13-.31.29-.25.39-.6a1.13,1.13,0,0,0,.28-.09l.15-.15c0-.06.1-.09.15-.07.22,0,.41,0,.48.18a.81.81,0,0,1,.87,0c-.08,0-.16,0-.21.07.15.18.22.09.41.12,0,0,0,.11.1.24l.05.1h0l0-.06h0l0,0,0,.06c0,.07.06.13.08.19.26,0,.35-.17.46-.26,0,.25.14.32.32.44s.38.27.29.49c-.1-.06-.38-.21-.35,0-.26.38.49.24.43.68l.3-.2c-.14.22.35.49,0,.54.15.09-.05.44.28.35a6,6,0,0,0-.1,1c0,.34-.18.65-.53.72,0,.09-.11.26.07.29s-.05-.23.09-.23c0,.07.06.12.1.15-.14.15-.23.27-.41,0-.36.24.32.69-.18,1.11-.09-.12-.16-.12-.26,0a2.88,2.88,0,0,1-.09.4c-.36.2-.36-.13-.51-.32-.07.08-.17.15-.24.22a.38.38,0,0,0-.1.21l-.32-.2c.23.15-.09.18-.16.26l.07-.08c-.06-.09-.25,0-.35.06s.28.16.42.17c-.07.13-.23.14-.36.28,0-.23-.35-.13-.51-.16s-.22.2-.28.19-.3-.06-.14-.21.13.14.24,0c-.11-.11-.07-.31-.32-.19s0,.46-.37.23c.11,0,.15-.12.24-.18l-.28-.2-.08.2c0-.06,0-.07,0-.1-.17.17-.49-.13-.67,0-.16-.07-.24-.31-.35-.43h0a.54.54,0,0,0-.52-.32l0,0a.73.73,0,0,0-.42-.27c0-.3.6-.54.23-.59a.4.4,0,0,0-.59,0c-.11-.44-.6-.83-.38-1.32-.1,0-.14,0-.22-.12,0-.64-.35-1.48.2-2,0,.21.2.06.32.09-.14-.2.24-.12-.06-.27s-.27-.08-.4.09c0-.44.29-1.09.6-1.18-.15,0-.15-.06-.14-.17.24.19.45,0,.52-.27l-.11-.15h.24c0-.11-.2-.35.1-.38a.54.54,0,0,0,.18.1c.07-.27.25-.7.57-.69l.31.14c.08-.07.19-.31,0-.29.48,0,.75-.09.94.11a1.81,1.81,0,0,1,1.21-.66,3.18,3.18,0,0,1,1.42.16l-.06.13c.19.19.19-.21.32-.06-.11.1.07.33-.15.43.24.25.47-.09.7-.05.11-.15-.21,0-.07-.16.07,0,.36.33.55.13,0,.14-.15.28-.24.35h.24c0,.39-.75.23-.73.71l.15,0c0,.32-.49.09-.23.36.19,0,.55-.29.48-.48.36.14.53-.45.88-.15,0,.21-.31-.2-.38,0s.4.16.48.36c-.07-.22.25-.3.39-.22.08.26-.3.07-.08.33.15-.07.45.1.36-.18.37-.14.15.34.49.34-.15.23-.69,0-.59.42.18-.2.53.22.74-.14,0,.18-.14.28-.33.26,0,.24.65.3.23.57l.26,0a2.22,2.22,0,0,1-.17.37c.06.18.47.61.08.64.06.06,0,.53.31.34s-.21-.33.12-.55c-.26.26.08.45.18.66l-.15,0c.06.12,0,.36.15.45a.13.13,0,0,0-.22,0l.2.14c0,.46-.4,0-.43.44,0-.11-.06-.22-.1-.33,0,.07-.21.15-.19.33a4.45,4.45,0,0,1,.49.46c0,.25-.25,0-.14.3l-.12-.37c-.05-.06-.38.06-.49.3s.09.58.34.38c-.07.14-.29.24-.35.07-.12.31.21.08.15.39a5.26,5.26,0,0,1-.85.21c0-.14,0-.29-.08-.43l-.11.13c-.07-.34-.23-.06-.37-.34-.09,0-.12.2-.14.33.57.1.15.73.47,1-.38.44-.83-.65-.92.18.13,0,.06.47.29.19-.3.12,0,.49-.44.51.18-.28-.44-.27-.19-.67,0,.14.24,0,.28-.06-.19-.09-.18-.38-.44-.26s-.36.19-.25.39.25-.12.23.15c-.34.22-.49-.13-.53.32.22-.09.36.13.41.29l-.27.18v-.17c-.5,0-.07.32-.56.37l-.27-.28c.07-.28.69,0,.52-.42-.28,0-.34.29-.63.19.06,0,.14,0,.19-.11-.11,0-.25-.57-.61-.21-.2.13-.06.16-.06.32a5.49,5.49,0,0,1-.95.16c.13-.3-.52-.14-.12-.4.1.23.81.32,1,0-.16-.38.34.07.41-.34-.33,0-.31-.39-.35-.63-.08,0-.16.09-.21.12,0,.23.06.24.05.48a1.36,1.36,0,0,0-1,.14c-.1-.15,0-.36.16-.34a2,2,0,0,1-1.18-.56c0,.48-.44-.21-.48.16.14.21.19.57,0,.63-.13-.12.1-.14.09-.24-.3,0-.06-.45-.42-.33.44.2.36-.31.62-.48-.32-.06.14-.16-.05-.34a1.67,1.67,0,0,1-.86-.47c0-.46-.44-.86-.55-1.21.11-.21.47-.18.48-.36s-.33.22-.24-.11h.08c-.11-.09.15-.57-.33-.64l.37.08c0-.06-.06-.11-.1-.15.12,0,.23-.07.31,0,.26-.17,0-.36,0-.57l-.23.11c-.13-.38.13-.58.16-.92l.2.08a1.89,1.89,0,0,1-.05-.23c.17.11.36,0,.24-.15a3.61,3.61,0,0,0,.32.62c-.15.08-.2-.21-.43-.2s-.22.33,0,.42c0-.11,0-.12-.06-.23.3.05.25.2.43.31,0,0,.1-.1,0-.13.13.13.11.22.11.39-.1-.13-.19,0-.27,0,.26.05.31.2.24.4-.31.16.2.37.16.59a1,1,0,0,1-.62-.3c-.13.18,0,.18-.09.37a1.58,1.58,0,0,1,.68.2l-.19.06c.14.15.42.06.43.27a1.8,1.8,0,0,0,.42.9l-.13.14c.39-.17.47.24.75.17.22.35.7.1.8.45a6.81,6.81,0,0,0,1.68-.47l0,.31c0-.24.14.11.23,0-.22-.14,0-.34,0-.52.34,0,.45-.4.4-.66l.16.1c-.18-.37.21-.4.35-.67.08,0,.28,0,.27-.1-.28-.21-.25-.28-.45-.44a2.42,2.42,0,0,1,.09-.5c-.6-.3-.82-.87-1.48-.89l.05-.23a2.21,2.21,0,0,1-1,0,.94.94,0,0,0-.77.16l-.07-.39c-.19-.06-.3.22-.14.46-.18-.05-.16.31-.41.09-.14,0,0,.24,0,.35-.27.07-.27.17-.29.39l0,0c-.07,0-.22-.12-.27-.07s-.2.31.28.32c-.15.09-.12.26-.07.41a.41.41,0,0,1-.05.47c.12,0,.16,0,.25,0,.06.2-.06.56.23.57,0,.07-.21.08-.17.16s.14-.09.22-.08.22.15.28.27.13.26.24.25l.29-.19a.74.74,0,0,0,.29-.52l.09,0c-.16-.12,0-.18,0-.27s.1-.21-.17-.23c.08,0,0-.15.19-.16-.13,0-.1-.13-.09-.24s0-.21-.17-.14c0,0,0,0,.06,0,.07-.24-.19-.09-.23-.29a.38.38,0,0,0,.11-.13c0-.2-.24.34-.18-.1,0,0-.06.22,0,.21a.31.31,0,0,0-.43.16.46.46,0,0,0,0,.46c-.06.17-.41.05-.12.19,0,0,.08,0,0,0s-.07.24.08.21.08,0,.11-.09c.1.13.21.25.34.14v.06c.07-.11.13-.17.17-.24s0-.14-.08-.2c.12-.22-.16-.44-.27-.23s0,.24,0,.22,0-.08,0-.07h0c.05.25-.07-.35-.06-.29h0v0h0a.65.65,0,0,0-.2-.21l-.07,0h0l.48.13h-.09l-.11,0h0s-.07,0-.07,0,0,0,.12,0a.75.75,0,0,0-.12.07c.27-.17.1.08.35-.09a2.1,2.1,0,0,0,1.12.61c-.08,0-.21.23-.1.25l.16-.16v.09a.26.26,0,0,0,.15-.27H146a0,0,0,0,0,0,0s0,0,0,0a.15.15,0,0,0,.21,0l.05-.06s0-.11,0-.2a1.53,1.53,0,0,0-.21-.55,1.37,1.37,0,0,0-.7-.85c-.17-.44-.35-.75-.63-.82s-.66.17-.5.3a1.36,1.36,0,0,1-.39-.19A.52.52,0,0,1,143.58,143.34Z" transform="translate(-4.89 -4.22)"/><path class="cls-5" d="M142.72,144c-.16,0-.31.07-.44-.14A1.89,1.89,0,0,1,142.72,144Z" transform="translate(-4.89 -4.22)"/><path class="cls-5" d="M142.17,148.88s0,.11,0,.14-.21,0-.21-.1C142.05,149,142.1,148.9,142.17,148.88Z" transform="translate(-4.89 -4.22)"/><path class="cls-5" d="M143.53,149.81c-.07.13-.45.09-.66,0A3.64,3.64,0,0,0,143.53,149.81Z" transform="translate(-4.89 -4.22)"/><path class="cls-5" d="M145,150.64c.14.12.11.19-.1.18C144.91,150.75,145,150.71,145,150.64Z" transform="translate(-4.89 -4.22)"/><path class="cls-5" d="M145.13,150.33a.31.31,0,0,1,.27.14C145.39,150.35,145.09,150.57,145.13,150.33Z" transform="translate(-4.89 -4.22)"/><path class="cls-5" d="M148.57,149.4c.07-.08.13-.3.3-.25C148.73,149.14,148.66,149.6,148.57,149.4Z" transform="translate(-4.89 -4.22)"/><path class="cls-5" d="M149.47,147.87c0-.05.07-.06.06-.13s.15.07.12.16Z" transform="translate(-4.89 -4.22)"/><path class="cls-5" d="M147.13,145l.13.13-.14,0A.86.86,0,0,0,147.13,145Z" transform="translate(-4.89 -4.22)"/><path class="cls-5" d="M146.64,145.16c-.11-.15.09-.19.1-.23C146.79,145.1,146.58,145,146.64,145.16Z" transform="translate(-4.89 -4.22)"/><polygon class="cls-5" points="139.96 142.87 139.93 142.85 139.74 142.56 139.96 142.87"/><path class="cls-5" d="M126.26,147.78c0-.18-.26,0-.05-.14C126.31,147.71,126.37,147.77,126.26,147.78Z" transform="translate(-4.89 -4.22)"/><path class="cls-5" d="M125.29,149c.86.31.37,1.22,1,1.66,0,.06-.39.1-.25.23.72.39.67,1.37.46,2.18h-.12c0,.16.36.21.36.36s-.12,0-.21,0c.23,0,.18.22.36.22-.07.09-.24.13-.32.23h.27c.66,0,.13.54.52.74-.06,0-.11,0-.16,0,.5.37.62,1,.92,1.49a.73.73,0,0,0-.35.09.45.45,0,0,1,.48.22c-.25.15.32.17.22.39h-.06c.32,0-.1.24.26.23l-.18.15c.39-.06-.14.24.08.28l.08,0c.12.06-.06.17,0,.24l0,0c.17.19,0,.37.29.28-.21.14-.17-.17-.48,0a5.28,5.28,0,0,1,.9,2c-.1.11-.12.17-.22.22.08.06.13.25.3.27,0,0-.13.09-.14.13s.37,0,.28.22a.4.4,0,0,0-.3,0c.27.05.28.22.4.34a.3.3,0,0,0-.19,0c.31.07,0,.3.24.38h-.19c-.14.28.38,0,.31.18-.07,0-.13,0-.2,0,.36.08.35.4.51.59h-.08c.09.22,0,.44.19.7-.08.07-.43-.09-.37.12.37.08.11.42.51.41-.08.21-.33.44-.31.62-.07-.15-.41-.16-.36-.31l-.26-.05c-.13-.1.1-.05-.09-.14,0,.06,0,.3-.11.3.11.25.28.63.07.79,0-.17-.3-.29-.27-.38a2.48,2.48,0,0,1,.05.72c-.08,0-.15-.25-.23-.13a.33.33,0,0,1,0,.24s-.38.18-.5-.16c-.08-.12.11-.09,0-.2s-.13.15-.29.17v0c-.11,0-.25.18-.13.36.06,0,0-.21,0-.12a.37.37,0,0,1-.33.31c0-.06,0-.16,0-.26a1.41,1.41,0,0,1-.55.54c0,.17,0-.31.09-.23-.29-.2-.54.38-.79.06,0,0,0,.23,0,.19s-.14-.26-.22-.16c0-.15-.11,0-.19.09s0-.06,0-.08a.82.82,0,0,1-.89.16c0,.1-.17.35-.23.34l0-.22c-.06-.13-.22,0-.24-.16-.13.27.54-.24.35,0-.05-.18-.25.36-.22.06-.13,0-.26.25-.38,0,0,0,.1-.31,0-.29s-.06.1-.21.18l-.09.09c0,.21-.17,0-.1.21,0-.18-.28.1-.25-.26l0-.27c-.08,0-.14.29-.21.41a.25.25,0,0,1,0-.13c0,.43-.19,0-.3.29-.17-.16-.43,0-.5-.31-.14.13-.27.27-.41.17,0,0,.07,0,.09-.14s-.12,0-.21,0-.17-.26-.26-.42c-.13.12-.11.35-.13.49-.09-.43-.4.24-.51-.16,0-.05.21-.18.11-.3-.07-.43-.27.29-.43.06v.36c-.06-.23-.3.17-.24-.19-.08.12-.21-.14-.23.2-.16-.3-1.16,0-1.12-.61-.08,0-.2,0-.26.12s.21-.09.18,0-.11.08-.14.12c-.1-.11-.18-.15.08-.38-.14-.25-.62.46-.92.22.12-.11.13-.17,0-.19a2.42,2.42,0,0,1-.36.1c-.16-.16.13-.29.31-.47-.14,0-.24-.1-.42,0l.13-.28c-.1.2-.18,0-.27,0H118c.07-.07-.07-.14-.13-.18a.29.29,0,0,0-.07.32c-.13,0-.17-.08-.32-.09.21-.09,0-.26,0-.37s-.23,0-.23-.06,0-.2.15-.18-.09.14,0,.16.26-.19.08-.27-.44.2-.33-.08c.06,0,.16,0,.24,0l.1-.24-.21.06s.07,0,.1-.05c-.23,0-.07-.29-.32-.29,0-.11.18-.25.23-.36v0a.24.24,0,0,0,0-.39h0a.29.29,0,0,0,0-.33c.24-.16.85,0,.65-.17.06-.15-.27-.34-.44-.3.29-.28.16-.82.53-.82-.06-.07-.12-.07-.14-.16.22-.26.08-.74.57-.81,0,.13.19.1.3.15-.13-.15.22,0-.06-.17s-.26-.12-.37-.07c0-.22.12-.5.34-.52-.11,0-.14,0-.18-.12.27.15.38,0,.33-.11l-.16-.1.2,0c0-.07-.33-.21-.12-.24a.58.58,0,0,0,.19.06c-.09-.17-.25-.43,0-.47l.29,0c0-.06-.12-.21-.23-.16.24-.12.32-.24.56-.2a1.28,1.28,0,0,1,.07-1.44l.13.07c.16-.05-.2-.16-.08-.19s.3,0,.41.2c.21-.09-.13-.3-.14-.42s.07.13-.13,0,.23-.15,0-.29a1.23,1.23,0,0,1,.38.19l-.08-.14c.35,0,.4.5.82.56v-.11c.3,0,.19.37.38.2-.08-.15-.4-.4-.55-.37,0-.23-.56-.38-.44-.57.17,0-.05.18.18.24s0-.25.09-.3c-.14.05-.36-.15-.37-.24.16,0,.2.18.3.05-.14-.1-.18-.28-.34-.21-.3-.21.17-.11-.05-.32.25.07.46.41.66.31-.24-.09-.21-.35-.58-.42a.5.5,0,0,1,.39.15c.18,0-.31-.41.15-.23l-.21-.14h.3c0-.08-.18-.41.16-.23,0,0,.08-.22-.19-.27s.11.22-.24.13c.3,0,0-.18,0-.29l.14,0c0-.06,0-.14-.09-.23a.24.24,0,0,0,.2.08l-.18-.14c0-.21.38.13.39-.05l.1.19s.19,0,.17-.1l-.5-.37c0-.13.22.06.07-.12l.17.22c.06,0,.35.07.4-.05s-.24-.35-.4-.28c0-.06.17-.09.29,0,0-.17-.21-.08-.27-.25.15,0,.39-.05.61-.05l.25.27,0-.08c.2.22.22,0,.45.22.07,0,0-.14,0-.23-.5,0-.49-.45-.89-.58,0-.27,1,.3.5-.21-.12,0-.36-.25-.31-.06.1-.12-.34-.28-.11-.36.1.19.45.06.6.34-.13-.08-.15,0-.12.09s.38.19.44.06,0-.22-.15-.3,0,.14-.24,0c0-.21.35-.08,0-.33,0,.12-.26,0-.41,0l0-.17.13.09c.2-.14-.23-.18-.1-.35l.33,0c.22.17-.25.23.17.39.08-.12-.11-.26,0-.33s0,.09,0,.13.59.17.36-.15c-.08-.15-.13-.1-.28-.17,0-.22-.07-.35,0-.49.28.16.14-.22.37.07-.2,0-.32.28-.07.48s-.13.14.21.35c.08-.16.42,0,.66.09,0,0,0-.12-.06-.16-.21-.12-.23-.06-.45-.17a.42.42,0,0,0-.05-.57c.13,0,.33.11.32.19a1.24,1.24,0,0,1,.33-.63c-.4,0,0-.26-.3-.31a.56.56,0,0,1-.55-.08c.06-.06.15.07.24.08-.15-.18.37,0,.11-.22,0,.25.4.24.66.4-.09-.21.19.1.25,0a1.39,1.39,0,0,1-.1-.62c.35-.07.24-.49.31-.66s.46.18.56.1-.37-.07-.15-.17l0,0c0-.08.36-.21-.06-.47l.31.21s0-.08,0-.13.22.06.27.15c.28,0,.07-.24.12-.36l-.24,0c-.06-.27.2-.31.22-.53l.19.1-.06-.17c.17.11.34.07.22-.07l.33.52c-.16,0-.19-.2-.41-.24s-.21.17,0,.29c0-.06,0-.09,0-.17.27.1.21.2.37.34,0,0,.11-.05,0-.1a.27.27,0,0,1,0,.33c-.06-.13-.18,0-.24-.1.23.12.25.26.11.37-.32,0,0,.35-.1.48a1.32,1.32,0,0,1-.41-.5c-.17.05-.05.12-.22.17.16.13.41.3.46.48l-.18-.07c0,.16.29.29.16.42a4.34,4.34,0,0,0-.46.69l-.18-.07c.32.29,0,.44,0,.68-.29.18-.1.64-.47.63a3.36,3.36,0,0,1-.43,1.43l-.22-.2c.15.18-.17,0-.17.09.25,0,.21.24.33.38-.3.11-.21.49-.12.76l-.18-.08c.24.35-.16.44-.32.65-.09,0-.28,0-.29,0,.22.26.17.32.26.59a1.06,1.06,0,0,1-.42.42c.15.7-.35,1.11-.37,1.76l-.23-.06c.2.73-.51,1.18-.5,1.74l-.33-.22c-.17.09-.06.37.21.45-.17.09,0,.43-.33.38-.13.11.08.25.07.39a.87.87,0,0,0-.35.65l0-.06c-.06-.06-.21-.14-.26-.08s-.27.32.19.42c-.38.18-.12.77-.58.89.13,0,.12.12.18.18s-.12.11-.18.14-.08.06,0,.1c-.08,0-.22,0-.25,0s.17,0,.24,0,0,.07-.08.14-.25.18-.2.23a3.94,3.94,0,0,0,.6.11l0,.09c.09-.17.08-.08.11,0s.22.14.33-.11c0,.09.19.06.13.24.2-.24.47.29.76,0,0,0,0,0-.07.05.24.23.49,0,.75.17,0,0-.08.06-.1.15s.28-.37.31.08c.06,0,.06-.22,0-.21a3.73,3.73,0,0,0,1.86-.17c.45.26,0,.76.39.41,0,.09,0-.17,0-.08.13-.12.23.5.32.26s.05-.16.05-.32c.28.17.35.41.56.19v.15c.23-.43.54-.23.72-.72.33-.05.7-.13,1-.2a.31.31,0,0,0,.11-.15.21.21,0,0,0-.1-.21s0,0,0,0-.07-.24-.11-.38l-.33-1a10.9,10.9,0,0,1-.51-2.08c.27-.43.25-.45,0-.76.06,0,.08,0,.13,0-.31.08-.11-.24-.4-.18a13.65,13.65,0,0,0-.49-1.49c0,.07.31,0,.26-.06l-.22,0,.08,0a.24.24,0,0,0-.31,0c-.67-1.23-.46-2.71-.93-4a2.23,2.23,0,0,0-.38-1.06,4.47,4.47,0,0,0-.44-3S125,148.62,125.29,149Z" transform="translate(-4.89 -4.22)"/><path class="cls-5" d="M126.2,148c-.15,0-.28,0-.43-.14A4.34,4.34,0,0,1,126.2,148Z" transform="translate(-4.89 -4.22)"/><path class="cls-5" d="M123.37,150.17s-.08,0-.11,0-.1-.13,0-.12S123.31,150.13,123.37,150.17Z" transform="translate(-4.89 -4.22)"/><path class="cls-5" d="M122.93,150.87a.38.38,0,0,1-.12-.38Z" transform="translate(-4.89 -4.22)"/><path class="cls-5" d="M122.08,151.31c-.13,0-.18,0-.14-.12S122,151.26,122.08,151.31Z" transform="translate(-4.89 -4.22)"/><path class="cls-5" d="M122.35,151.49c0,.06-.12.06-.2,0C122.26,151.59,122.14,151.37,122.35,151.49Z" transform="translate(-4.89 -4.22)"/><path class="cls-5" d="M121.27,152.81s.06.17-.1.14C121.29,153,121.09,152.7,121.27,152.81Z" transform="translate(-4.89 -4.22)"/><path class="cls-5" d="M121.13,153.6s0,0,0,.06-.15-.08-.14-.12Z" transform="translate(-4.89 -4.22)"/><polygon class="cls-5" points="116.39 161.78 116.3 161.84 116.32 161.7 116.39 161.78"/><path class="cls-5" d="M127.61,166c.08-.09.08.13.09.15S127.71,166,127.61,166Z" transform="translate(-4.89 -4.22)"/><polygon class="cls-5" points="125.39 159.16 125.4 159.19 125.11 159.12 125.39 159.16"/></g></svg>