<svg id="레이어_1" data-name="레이어 1" xmlns="http://www.w3.org/2000/svg" xmlns:xlink="http://www.w3.org/1999/xlink" viewBox="0 0 200 200"><defs><style>.cls-1{fill:none;}.cls-2{fill:#d1d1d1;}.cls-3{clip-path:url(#clip-path);}.cls-4{fill:#25aed4;}.cls-5{fill:#202020;}</style><clipPath id="clip-path"><circle class="cls-1" cx="100" cy="100" r="99.97"/></clipPath></defs><circle class="cls-2" cx="100" cy="100" r="99.97"/><g class="cls-3"><path class="cls-4" d="M129.43,60.51c5.63-17,8.95-35,6.37-53.23a65.92,65.92,0,0,0-23.55-41.69C83.85-57.24,45.15-38.13,27-11.63c-11.46,16.72-1.36,39,9.23,53.91,9.37,13.17,24.62,22.54,40,22.51,17.63,0,33.55-9,40.27-26.81,6.29-16.67,1.37-35.92-8.61-50.11-18.25-26-57-34-81.28-16C10.72-16.41,7.22,4.37,14.72,23.42c3.34,8.46,9.15,15.93,15.07,22.52a110.22,110.22,0,0,0,17,15.79c13.82,10,31.69,14,46.51,5.34,13.35-7.8,21.59-23.08,24.26-38.95,3.07-18.15,1.38-39.61-12.58-53-11.87-11.4-28.92-15.85-44-11.57-16.25,4.61-28.32,17.07-35,33.29-6.86,16.6-5.33,35.38.89,52.32C33.14,66.4,45.27,80.2,58.56,91.75c12.68,11,29.06,24.21,46,19,18.13-5.59,26.84-23.09,30.87-41.7,4.12-19.06,4.54-38.27-2.55-56.95-6.31-16.63-19.94-29.73-35.86-35-15.24-5-31.92-4.31-46.73.89C34-16.27,16.33-5.23,10.55,13.17c-3,9.71-.74,19.66,1.82,29.32A161.94,161.94,0,0,0,21.5,69.1c5.36,11.54,13.13,21.39,23.56,28,8.43,5.32,18.39,9.54,28.17,9.43,11.78-.14,22.87-6.28,26.09-19.12,3-11.78-1-25.19-6.57-35.74C89.12,44.69,84,38,76.66,35.39A19.61,19.61,0,0,0,53.8,43.6C47.13,54.06,51.23,67.94,59,76.79c8.08,9.22,20.86,14.7,31.8,8.9C97.13,82.33,101.2,76,103.51,69c3.13-9.53,1-19.59-3-28.66C96.59,31.53,89,24,79.73,23.24,68.29,22.27,59.2,31,56,42.16c-2.61,9.09-2.26,20.06.18,29.3,1.63,6.17,4,12.35,9.22,16.12a20.36,20.36,0,0,0,16.38,3.66c21.59-4.6,21.79-34.51,18.3-53C97.24,23.15,91.88,7.07,81.76-4.42c-5.23-5.94-12.1-11-19.46-13.19C50.38-21.07,37.05-17.58,33-3.9c-2.69,9.16.17,20.32,2.59,29.41,2.33,8.77,5.19,18.42,9.73,26.27,4,7,11.23,12.06,19.07,10.47,6.61-1.34,11.65-6.31,13.91-13,3.31-9.9,1.89-21.23-2.58-30.69-2.18-4.62-7.44-8.85-12.38-8.75l-3.9.07C51.75,10,44,15.36,44,24.48c0,7.94,5.87,17.19,14.14,17l3.9-.08L49.68,32.69c1.72,3.64-.4-3,.47.94a18.91,18.91,0,0,1,.4,2c.19,1.19.18.88,0-.93.36,1,0,3-.17,4l.19-1.4q-2.18,6.52,7.23-6.19l7.73.58,2.8,2.74q3.87,4.71,2.55,2.27A14.23,14.23,0,0,0,70,34.86c-.72-1.57-1.39-3.16-2-4.76-.55-1.37-1-2.76-1.58-4.14-.93-2.39.65,2.3-.05-.17-.27-.95-.6-1.88-.88-2.83q-1.38-4.62-2.4-9.33c-.31-1.45-.6-2.91-.87-4.37C62,8,62,4.73,61.35,3.77c.07.09.17,3.21.22,1.45s-.27,1.26-.3,1.33c-1.2,3.4-4.55,6.22-8,6,3.37.2-.41-.17-.3-.32a7.91,7.91,0,0,1,1.5.46c.49.17,1,.38,1.46.54,2.11.73-.3-.53-.68-.48.75-.11,2.3,1.5,3,2a8.66,8.66,0,0,1,1.2.95c0,.13-2.17-2.29-1-1,1.62,1.87,3.22,3.65,4.72,5.64,1.07,1.43-.84-1.18-.77-1.16a11.33,11.33,0,0,1,1.1,1.87C64,22,64.48,23,65,24c1.07,2.18,1.69,5.21,3,7.16,0,0-1-3.15-.48-1.41.16.53.34,1.06.5,1.59.38,1.22.73,2.44,1.07,3.68.83,3.08,1.56,6.19,2.15,9.32.26,1.37.49,2.74.68,4.12.1.69.19,1.38.27,2.06,0,.29.16,2.56.07.64-.09-2.1,0,.83,0,1.32,0,.69,0,1.38,0,2.07,0,1.61-.11,3.22-.28,4.82-.07.68-.14,1.37-.25,2,.47-2.87.08-.66-.09-.11-.41,1.27-1.2,3.36-.11.94-.35.77-1.29,1.12-.21.39s1.64-1.75,2.89-2.2a7,7,0,0,1,3-.46l2,.44L85,65.49c.08.13.92,3.28.39,1.23-.18-.69-.4-1.37-.57-2.07-.4-1.63-.57-3.29-.93-4.92s0,.36,0,.69c0-.72-.06-1.43-.07-2.15,0-1.93.19-3.81.3-5.73.13-2.16,0,1.12-.2,1.16a14,14,0,0,0,.45-1.63c.21-1.54-.42.78-.57,1,1.32-2.29-.32,0-.66.4.53-.55,1.47-.88,0-.13a12.81,12.81,0,0,1-2.54,1.34,7.22,7.22,0,0,1-3.27,0c-.66-.14-4.06-2-2.35-.75.1.07-2.49-2.31-1.34-1.08s-.89-1.33-.86-1.47c-.07.37,1.21,2.21,1.41,2.64A15,15,0,0,0,75,55.9s-1-3.33-.59-1.72.8,3,1.2,4.47c-.22-.82.39-3-.07-.18,0-.24.72-2.41.11-1.26a12.39,12.39,0,0,0-.82,2.52c-.35,1.42.73-1.81.8-1.85-.21.11-.58,1.08-.7,1.22-1.45,1.71,2.77-2.64.66-.91-.79.65,3.53-2.23,1.38-1-2.4,1.32,3.54-1.08,1.64-.63s4.12-.13,2-.14c-2.74,0,2.65,1.07,1.32.36a5.24,5.24,0,0,0-1.47-.58c1.11.08,3.56,2.28,1.28.59-.45-.34-.91-.69-1.38-1-2.2-1.52,2.21,2.48,1,.91-.59-.77-3.21-4.21-1.44-1.46s-.3-1.16-.83-2c-.34-.52,1.35,4.59.73,1.84-.57-2.47.13,1.88.15,2.39-.1-2.37-.36,1.81-.49,2.29.39-1.47-2.14,4-.74,1.74a8.5,8.5,0,0,1-3.91,3.86c2.12-1.25-2.23.55-3.09.6a9.67,9.67,0,0,1-3.93-.55c.53.2,1.66.74-.57-.36-2.08-1-1.14-.56-.59-.17-3.34-2.36-1.91-2-1.09-.83.39.51,2.09,2.88.55.59s.29.66.58,1.21c.85,1.62,1.6,3.3,2.29,5,.24.59.46,1.18.69,1.77.82,2.1-.55-.6-.37-1.09-.32.91,1.28,5,1.49,6.19.07.39.09.79.16,1.18.34,1.92,0-3.89-.2-2a19.27,19.27,0,0,0,0,2c0,2.94.69-3.28.24-1.36-.64,2.7.91-1.72.75-1.39-.36.71-1.53,2.17.29-.06,2-2.43.48-.54-.08-.12-1.69,1.25,3.26-2.5,1.58-1.2a3.16,3.16,0,0,1-.63.34c-2.14,1,2.13-.82,2.14-.72.05.42-5.76.76-1.61.55,3.19-.17-1.06-.1-2-.2-.71-.07-1.42-.2-2.13-.3-2.59-.37,2.14.64,1.27.29-1.45-.58-3-.88-4.49-1.45S63.18,72,61.78,71.38c-2.24-1,3,1.79.89.45-.82-.52-1.68-1-2.5-1.52q-2-1.29-3.86-2.78c-.57-.45-1.1-1-1.68-1.4-1.2-.84,1.68,1.61,1.58,1.47a12.71,12.71,0,0,0-1.28-1.26c-1.06-1.1-2-2.27-3-3.46-1.66-2-.08.54.28.58-.57-.06-2.15-3.61-2.47-4.2a86,86,0,0,1-3.86-8.18c-.36-.87-.68-1.74-1-2.61-.09-.23-.93-2.42-.26-.62s-.13-.4-.21-.64c-.29-.9-.58-1.79-.85-2.69-.9-2.92-1.72-5.87-2.5-8.83-.83-3.17-1.24-6.76-2.35-9.81-.55-1.52-.12.05-.08.6,0-.7.1-1.51,0-2.19-.31-2.33-.82,2.24-.12.44,0-.11.43-1.68.48-1.66s-1.36,2.55-.45,1c.28-.5.53-1,.82-1.53s.68-1,.94-1.48c.77-1.55-1.78,1.85.09-.2a69.74,69.74,0,0,1,5.25-5.07c2.11-1.86.5-.48,0-.1.53-.39,1.07-.75,1.61-1.12q1.91-1.28,3.89-2.4c2.48-1.4,5.06-2.5,7.65-3.64,1.6-.7-.45.18-.66.24.83-.25,1.65-.55,2.49-.79C62,7.52,63.51,7.14,65,6.81c2.58-.59,5.19-1,7.81-1.3,2.92-.37-2.22,0,.73-.06,1.56,0,3.12,0,4.69,0,2.53.12,5,.54,7.53.89,1.77.24-1-.22-1-.22.27-.12,1.38.36,1.68.45a45.91,45.91,0,0,1,4.37,1.49c.5.2,3.71,1.52,2,.77s0,0,.32.19c.65.41,1.31.79,2,1.22,1,.65,1.89,1.36,2.82,2.06.22.16,1.83,1.55.45.32s.55.6.79.85A43.58,43.58,0,0,1,102,16.88c.86,1.12,1.84,3.16.61.77,1.38,2.68,2.79,5.23,4,8,.13.33.8,2.38.17.41s.12.53.27,1.05c.35,1.24.65,2.5.92,3.76s.5,2.57.69,3.87c.07.47.48,3.46.24,1.43-.22-1.86.06,1.11.07,1.45a80.28,80.28,0,0,1-.13,9.31c-.1,1.44-.23,2.87-.4,4.3-.08.72-.17,1.43-.27,2.14-.15,1.12-.54,3.17-.12,1a132.58,132.58,0,0,1-4.47,17.24c-.21.63-1.2,2.59.08,0-.28.58-.56,1.17-.86,1.74-.6,1.15-1.41,2.19-2,3.34-.75,1.49.33-.33.55-.58-.52.58-1,1.16-1.57,1.71s-.9.75-1.28,1.17c-1.28,1.41,2-1,.34-.23a16.86,16.86,0,0,0-1.48.87c-2,1.34.21-.75.6,0,0,0-3.26.81-3.26.75,0-.37,2.91.27,1.16-.15-.25-.06-1.59.06-1.73-.17s3.53,1.32.37-.06c-.72-.31-1.46-.65-2.19-.92,2.35.88.43.2-.74-.55S89.16,76.88,88,76.06q-3.81-2.7-7.51-5.58c-2.11-1.65-4.18-3.34-6.21-5.1-.32-.28-2.42-2.16-1-.89s-.35-.34-.5-.48c-1.11-1.09-2.23-2.18-3.32-3.3-2-2.08-3.94-4.24-5.77-6.5-1-1.21-1.94-2.45-2.86-3.72-.4-.54-.77-1.1-1.17-1.64.91,1.22.7,1.16-.05-.07a82,82,0,0,1-4.31-8c-.59-1.27-1.14-2.56-1.65-3.86-.19-.46-1.11-3.26-.5-1.28s-.25-1-.34-1.32A70.73,70.73,0,0,1,51,25.43c-.44-3.07-.07,1.8-.06-1.31,0-1.87,0-3.73.15-5.6.06-.86.61-2.55.38-3.36.05.17-.63,2.89-.16,1.26.16-.54.24-1.11.38-1.66.31-1.28.69-2.55,1.1-3.79.18-.54.39-1.07.57-1.6.61-1.81,0-.49-.29.5.59-2.19,2.31-4.52,3.53-6.37l1-1.38c1.35-2-.23.56-.36.43S59.56,0,59.79-.28s2.89-2.52,2.87-2.55-2.38,1.57-.9.67c.46-.28.91-.61,1.37-.9.94-.58,1.9-1.11,2.89-1.6a9.5,9.5,0,0,0,1.87-.84c-.47.53-2.91.89-.83.34,1-.26,2-.54,3-.74.51-.1,1-.18,1.52-.26.7-.1,2.53-.85.56-.14-1.55.55-.75,0,.06,0l1.53,0a34.62,34.62,0,0,1,4.06.38,7.89,7.89,0,0,0,1.5.27c-.12,0-2.81-.81-1.32-.24.94.36,1.93.6,2.87,1,.62.24,1.23.59,1.85.79,1.65.54-1.36-.54-1.2-.66S84.06-3,84.39-2.81a12.48,12.48,0,0,1,1.18.94c-.14.42-2.28-2.51-.72-.6.29.36,2,1.9,2,2.34,0,.08-1.49-2.74-.55-.84.4.82.88,1.59,1.27,2.42.29.61.53,1.26.82,1.87-.62-1.29-.5-1.83-.1-.12.32,1.35.64,2.68.87,4.05.15.92.27,1.85.37,2.77,0-.3,0-2.56-.12-.75-.16,3.23,0,6.43-.37,9.67a6.47,6.47,0,0,0-.2,1.65c0-.05.59-3,.22-1.26-.27,1.29-.52,2.59-.84,3.87-.19.73-2.61,7.41-2.49,7.53-.1-.09,1.29-2.59.44-1.07-.27.48-.5,1-.75,1.49-.52,1-1.08,1.93-1.66,2.85-.16.26-1.25,1.72-1.22,1.8,0-.09,1.9-2.17.75-.94-.85.9-1.64,1.83-2.54,2.67-.3.28-1.49,1.09-1.58,1.36.06-.18,2.41-1.51,1-.79a30.05,30.05,0,0,0-2.71,1.51c-1.5,1,1.39-.49,1.3-.39a7.29,7.29,0,0,1-2,.6c-.53.13-1.07.23-1.61.32s-2.65-.09-.69.15l-1.72-.21c-3.64-.37,1.62.73-.88-.06-1-.32-2-.64-3-1-.67-.27-1.33-.58-2-.86-2.3-1,.54.18.5.29s-5.75-3.81-6.1-4.09c-.92-.69-1.81-1.42-2.69-2.16-.17-.15-1.29-.92-1.31-1.14,0,.44,2.08,2,.39.33A125.63,125.63,0,0,1,46,18.48c-.57-.75-2.92-4.31-1.37-1.76-.72-1.19-1.43-2.4-2.07-3.65-.23-.46-2-3.45-1.72-3.84,0,.08.88,3.23.29.73-.17-.76-.39-1.51-.54-2.28-.12-.56-.16-1.17-.3-1.73-.43-1.71.19,1.16,0,1.35a20.16,20.16,0,0,0,.06-4.07c-.08-1.79,0,1.14-.28,1.18.06,0,.36-1.55.39-1.68s.48-1.65.5-1.64q-1.22,2.52-.47,1c.17-.35.35-.69.55-1,.09-.16.78-1.51.93-1.49s-1.95,2-.57.75c.7-.63,2.06-2.69,3-2.8,0,0-2.35,1.4-.72.61.52-.25,1-.63,1.52-.92.8-.45,3.39-2.25,4.26-2,0,0-2.72.82-.94.38.53-.13,1.05-.33,1.58-.47q1.53-.42,3.09-.72c1.22-.23,2.44-.34,3.66-.53,1.64-.26-1.24.1-1.33.06a7.12,7.12,0,0,0,2.11,0,46.16,46.16,0,0,1,6.83.57c3.45.54-1.65-.59.88.13,1.18.34,2.37.67,3.54,1.07,1.82.63,4.56,2.64,6.34,2.69-.11,0-2.48-1.45-1.1-.55.44.29.91.53,1.36.81C76.67-.65,77.84.15,79,1c.53.39,1.89,1.93,2.48,2,0,0-2.16-2.11-1-.9.49.5,1,1,1.49,1.5,1.46,1.53,2.74,4,4.34,5.3C84.6,7.52,85,6.71,85.78,8.14c.26.46.53.91.78,1.38.51.93,1,1.89,1.41,2.86l.62,1.47c1.13,2.64-.35-.63-.33-1-.07,1.05.76,2.8,1,3.86.12.6.21,1.2.33,1.8.66,3.41-.19-.62,0-.61s0,3.35,0,3.65c0,.6-.14,1.23-.12,1.82,0,1.94.21-1.14.25-1,.1.29-.95,4.6-1.27,4.64-.09,0,1.36-2.5.4-.89-.3.51-.55,1.07-.85,1.58a17.68,17.68,0,0,0-1.24,1.89c0-.23,2-2.09.76-1.05-.75.65-1.52,1.41-2.22,2.13-1.11,1.13.92-.75,1.09-.76-.47,0-1.68,1.05-2.18,1.32s-.91.46-1.36.7c-.92.5-.88,1,0,.11s1.05-.29-.08,0c-.66.17-1.31.38-2,.54-1,.23-2,.38-3,.55-.41.07-2.22.2-.09.06s-.18,0-.63,0a34.07,34.07,0,0,1-3.64-.26c-.52-.07-1-.18-1.55-.24-1.73-.19,1.31.25,1.23.29-.65.31-2.73-.84-3.46-1.13-.49-.19-1-.4-1.44-.6-1.92-.79,0,.36.42.26-.62.15-3-1.93-3.44-2.25s-3.24-2.49-1.72-1.26-1.07-1.1-1.49-1.55c-1.07-1.17-2.09-2.38-3.06-3.65-.36-.47-2.36-3.46-1.29-1.73s-1.06-1.89-1.36-2.44a68.43,68.43,0,0,1-3.59-7.72c-.23-.57-.43-1.14-.65-1.71-.72-1.79.42,1.19.4,1.17-.54-.32-.9-3.23-1.07-3.87-.72-2.9,0-.42,0,.28,0,.22-.76,2.52-.19,1s-.55.9-.54.92c-.12-.21,1-1.8,1.18-2,1.34-2.31.12-.26-.28.21.38-.45.77-.9,1.16-1.34.8-.91,1.63-1.8,2.47-2.67a83.32,83.32,0,0,1,6.29-5.9C62.46-4,63.59-5,64.74-5.82c-2.1,1.57,0,.1.92-.52a58.7,58.7,0,0,1,7.4-4.1c1.27-.59,3.1-1.59.69-.42A20.35,20.35,0,0,1,77.67-12c1.13-.28,2.26-.51,3.41-.69A11.66,11.66,0,0,1,82.79-13c-.12-.27-3.21,0,.08.05a31,31,0,0,1,3.47.19c.58.06,1.15.15,1.73.23,2.44.3-.45.07-.41-.11s2.82.91,3.07,1c.5.19,1,.4,1.48.62s2.34,1.44.68.28C91-12,94.33-9.68,94.81-9.34s2.19,2.06,2.55,2c-.08,0-2.11-2.11-.92-.85.5.52,1,1,1.52,1.56.87.93,1.7,1.91,2.49,2.93.34.43.64.9,1,1.32,1.37,1.65-1.47-2.52-.39-.64.56,1,1.14,1.91,1.67,2.9s1,2,1.48,3q.47,1,.87,2.07c.24.6.69,2.8.27.62-.46-2.37.26,1.11.42,1.74.35,1.34.64,2.69.87,4.06s.38,2.69.57,4c0-.21-.11-2.74-.08-.88,0,1.13.1,2.26.11,3.39a78.91,78.91,0,0,1-.35,8.14c-.14,1.59-.39,3.16-.57,4.75-.2,1.79.08-.42.12-.65-.13.67-.25,1.34-.38,2a149.31,149.31,0,0,1-4.87,17.88c-2.57,7.76,2.16,17.81,9.7,20.23,8,2.55,15.81-1.5,18.55-9.78Z"/><path class="cls-4" d="M92-1.69A49.68,49.68,0,0,0,74.07-9.94C65.86-12,57.46-13,49.7-9,34.88-1.43,31.11,21.4,38.21,36.57c3.51,7.52,13.29,11.23,20,7.13,7-4.26,9.78-13.25,6-21.31-1.44-3.08.28,2.29.06.42-.36-3.09-.8-.24-.17.34-.35-.32.11-2.52.13-2.94.07-1.81-1,3.11.19-.25.3-.82.59-1.68.86-2.51-.73,2.27-.26.56.14,0,.71-1-1.65,1.93-2.25,2.25-1.56.84-1.85.76.06.17,1.61-.5-3.15-.3-.11.1.66.08,1.32.12,2,.22,0,0,3.82.85,1.93.34s1.36.44,1.72.55,5.48,1.91,5.41,2.13-2.65-1.63-.56-.26c.87.58,1.72,1.14,2.56,1.77,6.47,4.81,16.52,2.87,20.41-4.33A17.21,17.21,0,0,0,92-1.69Z"/><path class="cls-4" d="M109.32,12.22C100.7,1.42,84-10.77,71.91.09,61.28,9.59,64.67,28.75,69.75,41c3.19,7.68,13.52,11.08,20,7.12,7.28-4.42,9.44-13.07,6-21.31-1.41-3.4.27,2.31-.36-1-.09-.45-1.11-5.32-.75-3.17s0-2,0-2.56.06-1.34.13-2a10.82,10.82,0,0,1-2.66,5.91l-6.83,3.67c-2,.56-3.39-.58-5.13-1,1.18.27,2.69,1.74,3.67,2.5.51.39,1,.79,1.49,1.21-1.18-1.1-1.38-1.27-.59-.48,1,1.16,2,2.22,3,3.4,5.12,6.41,15.47,7.22,20.93,1.4a17,17,0,0,0,.65-22.42Z"/><path class="cls-4" d="M94.42,57.89c2-1.42,2.41-1.74,1.07-.94s-1,.5,1.45-.49l-.79.19q-2.36.36,1.53,0a8.31,8.31,0,0,1-1.22-.06q-1.71-.19,1.79.48a11.38,11.38,0,0,1-1.52-.53q3.3,1.89,1.32.6c-6.63-4.51-16.4-3.08-20.4,4.33-3.91,7.23-2.41,17.22,4.67,22,4.41,3,9.69,5,14.87,4.8,6.83-.21,12.09-2.36,17.5-6.58,2.78-2.16,4.51-7.15,4.66-10.72.16-3.93-1.32-8.81-4-11.7s-6.27-5.21-10.14-5.34c-4.22-.13-7.45,1.33-10.79,3.93Z"/><path class="cls-4" d="M95.93,77.32q-2.27,1.19.53,0c2,0,2.21,0,.5-.07,5.7,1.45-4.89-.91-3.08-.64a25.78,25.78,0,0,0-5.69-.09c-.42,0-7.24.4-3.23.36-1.17,0-2.34-.14-3.5-.14-1.66-.27-1.54-.2.33.2-.75-.19-1.49-.42-2.23-.68s-4.1-1-.81-.16c-1.26-.31-2.8-1.9-3.81-2.74L59.21,99.72a76.59,76.59,0,0,0,18.94,8.57c8.63,2.65,16.92,4.95,25.29.57,6.55-3.43,9.23-12,6.71-19.3s-9.81-12.08-17-10.51c-1.81.4-3.66.57-5.46,1-2.1.44,2.43,0,.28,0-.82,0-1.63,0-2.45,0-1.85,0-3.63-.35-5.46-.54,1.24.13,1.78.54.23,0-1-.32-1.93-.62-2.88-1-.37-.15-2.59-1.37-.94-.37s-.5-.41-.8-.61c-.52-.36-2.11-1.25-2.33-1.8.29.71,1.69,1.83.41.18a20.55,20.55,0,0,1-1.48-1.83c.1-.11,1.5,2.86.38.42-.18-.4-1.24-3.54-.66-1.24.63,2.54-.16-1.27-.19-1.42C70.24,63.62,61.62,57.3,54,59.29c-7.9,2.08-12.76,9.86-11.12,18.64,2.55,13.61,11.94,23.92,23.46,29.58,10.38,5.1,22.55,5.07,33.35,2.72L89.4,80.42c1.24-.65,2.17-.25,3.32-.49,1,.29.77.24-.7-.17l-1.25-.36c-2.1-.6-4.19-1.22-6.26-1.9-1.86-.61-3.7-1.28-5.52-2-1-.42-2-.86-3-1.34,2.35,1.16-.23-.22-1.09-.77-6.74-4.3-16.32-3.23-20.4,4.33-4.23,7.82-2,16.5,4.67,22a38.36,38.36,0,0,0,24.45,8.83c2.62,0,5.21-.44,7.81-.61-1.49,0-1.69.08-.59.12s.89,0-.19-.17-1.15-.28-.35-.1,1.6.37,2.4.54A23.9,23.9,0,0,0,110,105.75c6.73-3.86,10.17-13.7,6-21.31-4-7.4-12.84-11.26-20.06-7.12Z"/><path class="cls-4" d="M135.09,51.62c1.93-4.8,2-10.76,2.15-16a57,57,0,0,0-1.85-17.35c-2.35-8-9.57-14.67-17.73-12.52a15.59,15.59,0,0,0-11.12,18.64l3.35,13.52c1.92,7.73,8.31,13.13,15.75,12.65A14.7,14.7,0,0,0,139.1,36c.05-10.87-2.38-21.81-7.9-31.2C127.18-2,120.22-5.63,113-3c-6.41,2.36-11.45,10.32-9.26,18,1.13,3.92,2.45,7.77,3.61,11.68.58,1.94,1.13,3.9,1.56,5.88.22,1,.37,2,.57,3l.22,1.51c-.12-1.81-.15-2.16-.1-1.06-.06,1.5-.12,3-.17,4.52-.07,2,.73-2.54.09-.69-.24.69-.37,1.45-.6,2.16s-1.29,2.14-.24.75c1.17-1.55-.26.07-.49.59-.71,1.59,1.74-1.59.43-.5-.66.55-2.65,2.21.24.15-6.33,4.51-10.43,13.22-6,21.31,3.73,6.83,13.25,12,20.05,7.12,9.74-6.93,15.26-16.91,16.21-29.63.85-11.47-3.41-22.1-6.52-32.9L105.13,19c1,1.63,1.72,3.33,2.6,5q1,2.64.1-.07.33,1,.6,2c.43,1.6.68,3.22,1,4.85q.34,2.82,0,0c0,1,.05,1.9,0,2.84l29.21-1.86-3.35-13.52-28.85,6.12a37.08,37.08,0,0,1,1.22,5.72c-.44-3.51-.08,2.42-.1,3.12q-.07,3-.3,5.93c0,.83-.11,1.66-.21,2.48.34-2,.23-2.14-.31-.47-3,7.56,2.5,17.92,9.7,20.23,8.39,2.68,15.3-1.71,18.55-9.78Z"/><path class="cls-4" d="M112,102c15.46-2,22.52-20,24.56-34.54A59.78,59.78,0,0,0,129,29.61c-4.22-7.07-12.79-11.53-20-7.12-6.41,3.89-10.54,13.71-6,21.31,1,1.76,1.86,3.6,2.79,5.42,1.39,2.7-.41-1.87.08,0,.26,1,.57,2,.81,3s.43,2,.59,3,1,3.68.13,0a22.69,22.69,0,0,1,0,6.16c0,.37,0,2.26-.24,2.46.33-1.8.39-2.13.17-1-.11.6-.24,1.21-.39,1.8-.44,1.82-1.11,3.52-1.65,5.29s1.26-2.12-.13.2c-.05.08-1.87,3.29-.66,1.37s-.53.81-1.08,1l1.32-1.11q3.15-1,.66-.53c-7.67,1-13.14,10.74-11.12,18.64C96.52,98.35,103.75,103,112,102Z"/><path class="cls-4" d="M118.18,98c16.14-6.82,23.75-25.51,24.74-43.2,1-18.13-2.37-39.85-18.77-49.87-6.81-4.16-16.27-3.32-20.4,4.33-3.75,6.94-2.61,17.59,4.67,22a16.81,16.81,0,0,1,1.9,1.25c1.1.9,1.18,1,.25.17s-.86-.72.12.32q1.56,2.09-.24-.59c.73.57,1.2,2.3,1.61,3.1,1.52,3-.52-3.11.29,1,.29,1.46.56,2.91.85,4.37.21,1.9.24,2,.08.19,0,.75.08,1.5.11,2.24.11,3,.12,6.07,0,9.08-.08,1.37-.22,2.72-.35,4.09-.34,3.55.67-1.78-.25,1.33-.44,1.49-1,3-1.34,4.57-.43,1.15-.28.86.47-.88-.33.7-.67,1.39-1,2.06-.46.83-1.1,2.47-1.84,2.92q1.7-2.07.62-.82c-.37.44-.76.85-1.16,1.25s-1.09,1-1.67,1.52l1.32-1c-.65,1-2.94,1.65-4,2.08-7.14,3-9.85,14.28-6,21.31,4.42,8.09,12.4,10.35,20.05,7.12Z"/><path class="cls-4" d="M102.6,13c.91,2,1.81,4,2.63,6.06.12.29,1.17,3.13.59,1.42-.64-1.9.59,2.25.58,2.2.21.87.36,1.75.54,2.63.36,1.77,0,1.15.06-.24,0,1.1-.11,2.26-.09,3.35,0,2.12.8-3.13-.22.56-2.18,7.9,1.87,17.72,9.69,20.23,7.63,2.44,16.23-1.34,18.56-9.78,3.9-14.18-.41-27.55-6.27-40.61-3.4-7.58-13.38-11.18-20.06-7.13C101.51-4,99,4.9,102.6,13Z"/><path class="cls-4" d="M139.75,56.25c.3-15.29,2.19-32.09-1.77-47.13-3.84-14.62-13.59-28.45-27.85-32.45-7.53-2.12-16.38,1.13-18.55,9.77-1.93,7.72,1.64,18,9.7,20.23.37.1,2.86.55,3,1q-2.75-1.58-.61-.3l.88.6c.58.42,1.15.87,1.69,1.34l-1.34-1.18c.52,0,1.71,2,2.14,2.5,2.16,2.45-1.11-2.47.19.31.46,1,1,2,1.47,3,1.51,2.86-.61-3.13.2.51.38,1.68.82,3.33,1.11,5,.08.51.57,4.79.43,3s.08,2.57.1,3.08c.07,3,0,6,0,9-.12,6.42-.26,12.84-.38,19.26-.17,8.29,6,16.78,14.14,17a14.89,14.89,0,0,0,15.44-14.65Z"/><path class="cls-4" d="M39.41,28.35l-.82-6.64c-.12-1-.25-1.93-.36-2.9-.19-1.57-.17-2.81-.11-.52,0-.91-.08-1.82-.06-2.74,0-.51.59-3.94.08-1.79s.26-.62.36-1c.3-1,.64-1.95,1-2.9-1.21,3,.66-.88,1.26-1.83S42,6.35,42.56,5.48c1.23-1.85-1.49,1.53,0,0,2.92-3,5.71-6.07,8.71-9C57-9,57.68-19.79,52-25.95s-14.86-7.26-20.93-1.4C23-19.59,15.6-11.42,11.28-.56c-4.47,11.22-2.19,23.21-.72,35,1,8.29,10.51,14.43,17.73,12.53,8.32-2.19,12.23-9.76,11.12-18.64Z"/><path class="cls-4" d="M86.54-41C76.49-47.57,66-45.26,55.88-41.11A56.12,56.12,0,0,0,35-25.69c-5.12,6-6.74,15.85-.66,22.42C39.66,2.46,49.79,4.6,55.28-1.86a54.66,54.66,0,0,1,6.34-6.3c3-2.6-2.4,1.32,1-.7,1.28-.76,2.53-1.54,3.85-2.22s2.66-1.29,4-1.84c-2.48,1-.12.1,1.08-.21.69-.18,2.5-.94,3.24-.64-2.13.09-2.36.17-.7.25a6.52,6.52,0,0,1-3.32-1.14c6.71,4.37,16.34,3.19,20.4-4.32,3.85-7.12,2.49-17.38-4.67-22Z"/><path class="cls-5" d="M99.41,52.43c.13,0,0-.2.11,0S99.41,52.51,99.41,52.43Z"/><path class="cls-5" d="M72.53,60.69c-.43-.58.34-.81.18-1.35,0-.05.28.16.26,0-.21-.57.35-1,.92-1.23l.06.08c.11,0-.08-.31,0-.37s.05.08.13.11c-.14-.13,0-.19,0-.31.08,0,.2.1.29.11l-.13-.17c-.31-.42.26-.29.18-.62,0,0,.05.08.1.1,0-.46.31-.77.49-1.13a.8.8,0,0,0,.21.2.32.32,0,0,1-.06-.39c.19.12,0-.28.15-.28l0,0c-.11-.23.19,0,0-.26l.17.09c-.2-.26.21,0,.15-.15l0,0c0-.11.14,0,.15-.1l0,0c.06-.17.24-.1.07-.28.18.11,0,.17.21.32a2.86,2.86,0,0,1,1-1.17c.11,0,.16,0,.23.11s.12-.15.08-.28.1.08.13.07-.08-.28.07-.25a.36.36,0,0,0,.11.22c0-.21.06-.26.11-.37a.27.27,0,0,0,.06.14c0-.25.19-.09.19-.25l0,.13c.23.06-.13-.27,0-.26,0,0,0,.09.07.15,0-.29.18-.34.24-.48a.12.12,0,0,0,0,.05c.1-.11.27-.12.34-.3.08,0,.17.31.27.19-.16-.24.15-.23-.1-.47.14,0,.37,0,.39-.16,0,.12.23.27.15.35l.16.1c.05.11-.09,0,0,.13,0,0,.11-.22.17-.2,0-.2-.09-.53,0-.63,0,.13.19.25.17.32L80,51.66s.12.2.15.09a.39.39,0,0,1,0-.18s.16-.17.31.07c.07.09,0,.09,0,.15s0-.14.13-.18l0,0c.08,0,.12-.19,0-.3s.09.15,0,.1a.26.26,0,0,1,.14-.3c0,.06,0,.12,0,.2a1,1,0,0,1,.22-.53c-.06-.12,0,.25,0,.19.25.09.25-.41.51-.22,0,0-.09-.17-.07-.14s.16.16.19.07c0,.11,0-.06.1-.11s0,0,0,.07c0-.12.3-.41.54-.33,0-.07,0-.31.07-.32l0,.18c.08.08.14-.07.2.07,0-.24-.29.3-.22.1.08.12.07-.33.13-.09.09,0,.1-.26.24-.13,0,0,0,.25.08.22s0-.09.09-.18l0-.09c-.06-.17.12,0,0-.19.06.13.15-.14.23.13l.05.22s0-.25,0-.36a.24.24,0,0,1,0,.09c-.1-.33.13,0,.12-.29.15.08.29-.08.41.11.06-.12.1-.27.23-.22a.13.13,0,0,0,0,.12c.1.08.09,0,.13-.08s.18.16.28.26c.06-.13,0-.3,0-.41.17.3.2-.28.38,0,0,.05-.09.19,0,.26.16.31.1-.29.27-.16L85,49.32c.09.15.15-.21.2.07,0-.11.18.06.1-.21.27.17.51-.24.73.22,0-.06.11,0,.07-.16s0,.12-.09,0,0-.09,0-.12.14.06.12.29c.18.14.07-.49.28-.42,0,.12,0,.16.09.13l.07-.21c.13,0,.11.24.14.43.06,0,.15,0,.16-.19l.11.23c-.08-.17,0-.12.06-.17l0,.05c0,.08.09,0,.13,0a.29.29,0,0,0-.16-.19c0-.08.08-.07.11-.18,0,.19.12.12.18.14s0-.18.07-.18.1,0,.07.15-.06-.09-.09,0,.07.24.14.1-.07-.37.07-.26a.9.9,0,0,0,0,.19l.12.09V49s0,0,0,.08c0-.19.16-.08.16-.29.06,0,.14.11.19.13h0c.08.1.16,0,.2-.1v0s.12,0,.16-.13c.1.13.08.65.17.43.09,0,.12-.33.07-.44.18.1.35-.19.52.07,0-.07,0-.11.05-.15.25.06.51-.23.72.11-.07.07,0,.17,0,.27,0-.16.07.16.09-.11s0-.23-.08-.29a.35.35,0,0,1,.46.06c0-.07,0-.12,0-.17,0,.25.09.29.18.21v-.16l0,.16s0-.32.12-.17a.7.7,0,0,0,0,.16c.09-.12.22-.33.3-.2l.07.22s.11-.15,0-.22c.15.15.25.17.29.37a.87.87,0,0,1,1-.38l0,.11c.07.12.06-.19.11-.11s0,.25,0,.37c.11.13.18-.18.26-.22s-.07.09,0-.1.16.14.2-.08a.8.8,0,0,1-.05.34l.09-.1c.06.27-.26.44-.21.77l.07,0c0,.24-.2.24,0,.34a.75.75,0,0,0,.14-.53c.16,0,.14-.52.3-.48s-.14,0-.13.2.17-.08.23,0c-.07-.09,0-.31.09-.34s-.09.2,0,.24c0-.12.16-.2.08-.31.09-.28.11.1.21-.11,0,.21-.2.45-.08.58,0-.2.2-.24.18-.55a.46.46,0,0,1,0,.34c0,.13.24-.33.19.06l.06-.19c0,.07,0,.12.06.24s.25-.24.19.06c0,0,.17,0,.16-.21s-.14.14-.14-.15c0,.24.14,0,.21-.08v.12s.11,0,.15-.12a.2.2,0,0,0,0,.18l.07-.17c.15-.06,0,.32.1.29L94.7,49s0,.15.1.11L95,48.6c.09-.06,0,.19.1,0l-.13.17s0,.28.09.3.22-.26.15-.37.09.12,0,.23c.12,0,0-.17.14-.25,0,.11.1.29.13.47l-.17.24.07,0c-.14.2,0,.17-.11.39,0,0,.1,0,.16-.07,0-.39.27-.45.32-.79.2,0-.11.83.21.36,0-.09.15-.32,0-.25.1.06.17-.31.26-.14-.13.11,0,.36-.19.52,0-.11,0-.1-.08-.08s-.1.33,0,.36.17,0,.21-.17-.11,0,0-.19c.15,0,.09.27.24,0-.09,0,0-.2,0-.32l.12-.05-.06.11c.13.14.12-.21.26-.13v.27c-.1.2-.19-.16-.27.19.09,0,.18-.12.24,0s-.06,0-.09.05-.08.49.14.27.06-.12.11-.25c.16,0,.26-.09.36-.08-.1.24.17.09,0,.3,0-.16-.23-.23-.36,0s-.11-.08-.24.21c.12.05,0,.34,0,.54,0,0,.09,0,.12-.07.07-.18,0-.19.09-.37.12.09.28,0,.42-.11,0,.1-.07.28-.12.27a.7.7,0,0,1,.47.21c0-.33.19,0,.22-.27a.44.44,0,0,1,0-.44s0,.13,0,.2c.13-.13,0,.29.16.07-.18,0-.17.34-.29.55.16-.08-.07.16,0,.2a1,1,0,0,1,.45-.13c.06.27.36.17.49.23s-.15.36-.1.44.07-.3.14-.12l0,0c.07,0,.14.28.36-.06l-.18.25s.06,0,.1,0-.06.18-.13.22c0,.22.17,0,.26.08l0-.18c.2,0,.21.16.37.18l-.09.15.12,0c-.1.13-.08.26,0,.17l-.41.25c0-.12.16-.15.21-.32s-.1-.17-.19,0,0,0,.12,0c-.1.22-.17.17-.28.29s0,.09.07,0a.19.19,0,0,1-.24,0c.1,0,0-.14.1-.19-.11.18-.21.19-.28.1,0-.25-.25,0-.33-.07a1.06,1.06,0,0,1,.38-.33c0-.13-.08,0-.1-.17-.11.13-.24.33-.37.38l.06-.15c-.12,0-.22.24-.3.15a1.93,1.93,0,0,0-.48-.31l.06-.15c-.21.28-.31,0-.47.11-.13-.22-.45,0-.46-.3a2.23,2.23,0,0,1-1-.13l.12-.2c-.11.14,0-.14-.08-.12,0,.19-.15.2-.23.32-.1-.21-.35-.08-.52,0l0-.16c-.21.26-.31,0-.47-.11,0-.07,0-.22-.06-.22-.15.23-.19.2-.36.33a.69.69,0,0,1-.34-.22c-.43.28-.78,0-1.2.17v-.19c-.42.34-.86,0-1.2.15l.05-.32c-.1-.1-.24.07-.22.29-.1-.1-.26.15-.32-.11-.1-.06-.13.15-.22.19a.47.47,0,0,0-.48,0l0,0c0-.07,0-.21,0-.23s-.28-.08-.2.3c-.21-.21-.48.19-.7-.1,0,.11,0,.13,0,.2-.18,0-.39-.18-.53,0,0-.05,0-.18,0-.19s0,.14,0,.2c-.28.21-.62-.15-.89-.06a5.66,5.66,0,0,1-1.4.36v-.07c-.1.3-.42-.22-.45.23,0-.06-.14,0-.15-.15-.07.23-.38-.1-.49.19,0,0,0,0,0,0-.22-.13-.31.15-.53,0a.26.26,0,0,0,0-.14c-.11-.12-.08.36-.22,0,0,0,0,.18,0,.16-.44,0-.79.35-1.17.57-.37-.1-.23-.57-.37-.23,0-.06,0,.14,0,.07,0,.13-.29-.33-.28-.12s0,.13,0,.26c-.23-.06-.34-.24-.42,0l0-.11c0,.37-.3.28-.27.7a23.49,23.49,0,0,0-2.3,1.62c-.81.45-1.41,1.11-2.23,1.57-.37-.09-.38-.07-.46.19,0,0,0-.06-.07-.09.16.19-.11.14,0,.33a4.3,4.3,0,0,0-.68.73c0-.06-.12-.22-.15-.16l.07.16-.06,0a.26.26,0,0,0,.15.2c-.4.78-1.33,1.13-1.73,1.9-.2.11-.25.42-.31.63a2,2,0,0,0-1.11,1.57S72.56,61,72.53,60.69Z"/><path class="cls-5" d="M99.28,52.38c0-.12,0-.22.15-.34A2.67,2.67,0,0,1,99.28,52.38Z"/><path class="cls-5" d="M97.84,50.21s0-.06,0-.09.1-.08.1,0S97.87,50.16,97.84,50.21Z"/><path class="cls-5" d="M97.3,49.91a.31.31,0,0,1,.28-.13Z"/><path class="cls-5" d="M96.92,49.29c0-.11,0-.15.07-.13S97,49.24,96.92,49.29Z"/><path class="cls-5" d="M96.8,49.52s0-.09,0-.15C96.72,49.46,96.87,49.34,96.8,49.52Z"/><path class="cls-5" d="M95.7,48.85s-.11.07-.11-.06C95.6,48.89,95.77,48.69,95.7,48.85Z"/><path class="cls-5" d="M95.1,48.88s0,0,0,0a.12.12,0,0,1,.07-.13Z"/><polygon class="cls-5" points="84.92 49.42 84.96 49.35 84.98 49.46 84.92 49.42"/><path class="cls-5" d="M80.72,50.91c0,.09-.08-.07-.1-.09S80.67,51,80.72,50.91Z"/><polygon class="cls-5" points="78.92 52.55 78.93 52.53 79.05 52.73 78.92 52.55"/><path class="cls-5" d="M112.65,72.8c0,.18.22,0,0,.13C112.63,72.88,112.57,72.83,112.65,72.8Z"/><path class="cls-5" d="M112.19,73.31c.13.38-.2.7-.55.8s-.7.09-1.08.21c-.09,0,.08-.31-.11-.28-.77.31-1.72-.69-1.79-1.49l.1,0c0-.12-.36-.11-.39-.27s.1,0,.17,0c-.19,0-.18-.2-.33-.24.06-.06.21-.07.28-.13l-.24-.07c-.29-.12-.29-.3-.23-.45s.18-.27.15-.49c0,0,.06.09.12.1a.67.67,0,0,1,.07-.31c.25-.46.94-.56,1.48-.69a.44.44,0,0,0,0,.3c0-.23.22-.29.4-.33.07.23.33-.18.54,0l0,.05c.2-.2.21.18.4-.07l0,.2c.16-.29.17.23.35.12l0-.06c.15,0,.14.15.27.16v0c.29.07.3.33.46.13-.05.21-.28-.1-.33.22a1.14,1.14,0,0,1,.72,1.09,1.42,1.42,0,0,1-.76,1.16c-.15-.06-.2,0-.26-.11-.06.08-.28.13-.34.26s-.08-.12-.13-.13-.16.26-.34.1a.17.17,0,0,0,.08-.21c-.14.15-.33,0-.49,0,0,0,.08,0,.1-.1-.24.09-.22-.28-.38-.3l.11-.06c0-.16-.06-.14-.12-.1s-.13.11-.15,0c.06,0,.1,0,.14-.07-.29,0-.31-.48-.34-.71h.06c0-.23.2-.67.33-.53l.25.12.22.09c-.09,0-.08-.06,0,0s.06,0-.2-.17h.08l.1.06.9.57,0,.12,0,.07a3.08,3.08,0,0,0,.16.28c-.13-.17-.31-.25-.38-.37a.09.09,0,0,1,0,.06s-.05-.09-.07-.09a.87.87,0,0,1,.16.34c0,.12.06.21.13.43a1.87,1.87,0,0,1,0,.32.49.49,0,0,1-.06.25c0-.23-.17-.32-.13-.41a2,2,0,0,1-.13.84c-.1.06,0-.22-.18-.1a.3.3,0,0,1-.1.21s-.48,0-.46-.28c0-.11.16,0,.08-.13s-.19,0-.34-.08v0c-.07-.1-.3-.15-.29.08.06.08,0-.16.11,0-.14.08-.33-.07-.44-.25.06,0,.11,0,.17-.07-.27-.06-.46-.32-.6-.67-.12,0,.24,0,.19.11a2.25,2.25,0,0,0,0-.69.66.66,0,0,1,.3-.68c0,.07-.22,0-.17,0,.18-.25.35-.12.42-.29.11.08.15-.18.37-.26.07-.1.07,0-.09.1a1,1,0,0,1,.86-.13,1.56,1.56,0,0,1,.86.47s.37.12.43.23h-.13c0,.09.22.28.13.31.12.08,0-.1-.16-.24s-.34-.25-.18-.17c0,.07.43.25.25.25.12.15.33.33.29.5,0,0-.2-.15-.15,0s.08.07.16.29l0,.16c.12,0,0,.25.1.2-.07,0,0,.46-.19.32l-.12-.13c0,.11.07.28.09.43,0,0-.06,0-.08,0,.18.22-.16.25-.15.54a1.15,1.15,0,0,0-.19.14l-.08.14s-.05.09-.09.09a.37.37,0,0,1-.4,0,.63.63,0,0,1-.64.21s.12,0,.13-.11c-.15-.1-.18,0-.33,0,0,0,0-.07-.13-.16l-.07-.06,0,0h0v0h0v0l-.11-.13c-.21,0-.22.23-.28.33,0-.2-.18-.2-.34-.24s-.35-.09-.34-.29c.08,0,.33.06.25-.11.1-.36-.44,0-.5-.4l-.18.23c0-.2-.4-.28-.13-.4-.15,0-.08-.35-.31-.2a5,5,0,0,0-.18-.82.57.57,0,0,1,.23-.67c0-.06,0-.22-.12-.21s.09.17,0,.21-.07-.09-.11-.09c.07-.15.11-.28.32-.1.22-.27-.41-.45-.12-.88.09.07.14.06.19-.07a1.84,1.84,0,0,1,0-.33c.22-.23.31,0,.46.14a1.48,1.48,0,0,1,.13-.21.25.25,0,0,0,0-.19l.29.08c-.2-.06,0-.16.06-.23l0,.07c.07.06.18-.07.25-.12-.08-.11-.26-.06-.36,0s.14-.16.19-.29c.06.18.3,0,.43,0s.11-.2.15-.21.24,0,.16.13-.13-.07-.19,0c.11,0,.13.21.29.06s-.09-.36.21-.27c-.07,0-.08.13-.13.2l.26.08V68.4s0,0,0,.08c.08-.18.39,0,.48-.22.14,0,.26.17.37.23h0a.41.41,0,0,0,.47.1l0,0a.54.54,0,0,0,.38.08c.09.23-.31.57,0,.52A.35.35,0,0,0,113,69c.19.31.66.48.62.9.08,0,.1,0,.19,0,.2.47.64,1,.33,1.52-.09-.14-.17,0-.27,0,.16.11-.16.14.11.18s.23,0,.29-.16a1.12,1.12,0,0,1-.18,1c.09-.07.12,0,.14.1-.23-.09-.33.12-.34.32l.13.09-.19,0c0,.09.23.24,0,.34a.47.47,0,0,0-.16,0c0,.24-.07.65-.34.71l-.27,0c-.06.08-.12.3,0,.24-.39.14-.61.24-.77.11a1.79,1.79,0,0,1-1,.8,2.75,2.75,0,0,1-1.22.11l.07-.11c-.15-.12-.19.19-.29.1.11-.1,0-.25.17-.36-.19-.15-.42.15-.62.15s.18-.06,0,.11-.29-.2-.47,0c0-.11.15-.23.24-.29L109,75c0-.14.18-.2.35-.27s.35-.18.36-.34h-.14c0-.22.46-.17.24-.29-.18.07-.52.29-.47.41-.31,0-.5.39-.8.22,0-.14.27.1.35-.07s-.36-.06-.43-.18c.06.14-.23.23-.35.19s.27-.08.08-.23c-.14.07-.41,0-.33.16-.32.12-.14-.22-.44-.19.13-.17.61-.1.51-.33-.15.14-.48-.1-.65.16,0-.12.12-.2.28-.2,0-.16-.57-.13-.23-.34l-.22,0a1.8,1.8,0,0,1,.12-.25l0,0c-.11-.11-.38-.28-.11-.35,0,0-.13-.32-.3-.16s.22.17,0,.35c.18-.19-.13-.26-.24-.36l.12,0c-.07-.06-.08-.22-.21-.25a.12.12,0,0,0,.17,0l-.19,0c-.12-.28.31-.1.24-.37a1.39,1.39,0,0,0,.15.19s.13-.14.07-.26a4.1,4.1,0,0,1-.5-.18c-.06-.16.19-.06,0-.22l.19.2c.06,0,.28-.12.3-.31s-.24-.36-.37-.16c0-.11.15-.23.25-.14,0-.23-.18,0-.24-.21.13-.06.37-.27.58-.36l.2.25,0-.12c.16.2.19,0,.39.11.06-.06,0-.16,0-.25-.47.1-.36-.41-.71-.48.11-.38.89.16.62-.39-.12,0-.24-.27-.29,0,.17-.17-.2-.3.11-.45,0,.23.45,0,.43.35-.09-.07-.19.08-.19.12.18,0,.3.19.44,0s.2-.23,0-.33-.14.16-.24,0c.15-.24.43-.06.25-.37-.12.13-.32,0-.43,0a2,2,0,0,1,.11-.2l.07.12c.36-.16-.1-.24.23-.42l.33.1c.08.2-.5.21-.18.43.19-.11.12-.29.37-.32,0,0-.07.08-.09.13s.47.3.55,0c.07-.15,0-.13-.12-.24.3-.17.34-.32.56-.41.07.25.42-.06.28.24-.18-.13-.69,0-.64.31.3.22-.28.07-.13.36.24-.11.42.16.57.31.07,0,.07-.09.09-.13s-.16-.14-.28-.31a.73.73,0,0,0,.59-.4c.14.08.18.26.08.3a1.56,1.56,0,0,1,1,0c-.24-.36.36,0,.2-.3-.18-.11-.38-.35-.28-.48.13,0,0,.13.06.21.16-.15.26.32.4.08-.34,0-.06.38-.12.61.21-.08,0,.17.18.24a1.13,1.13,0,0,1,.7,0c.18.39.62.52.82.77,0,.21-.25.33-.2.48s.15-.31.2,0h-.06c.1,0,0,.5.43.41l-.3,0c0,.06.07.07.11.09s-.15.12-.23.08c-.15.2.12.26.15.42l.15-.14c.2.25,0,.46.11.72h-.18l.1.16c-.16,0-.28.08-.15.17a2.38,2.38,0,0,0-.4-.38c.1-.1.21.1.38,0s.09-.3-.08-.31c0,.09,0,.09.09.15-.23,0-.23-.09-.4-.13,0,0,0,.1,0,.11a.33.33,0,0,1-.17-.26c.11.07.13-.08.21-.06-.21,0-.3-.08-.28-.22.19-.19-.23-.17-.23-.31a.55.55,0,0,1,.51,0c0-.17-.06-.13,0-.31-.16,0-.38.16-.52.13l.12-.12c-.14,0-.29.15-.34,0a1.2,1.2,0,0,0-.47-.52l0-.2c-.15.38-.35,0-.46.21a.27.27,0,0,0-.34-.05c-.09,0-.16.06-.33-.13-.33.26-.42.53-.78.72l-.32-.28c.22.23-.25-.09-.26,0,.37.11.32.3.55.45-.43,0-.19.35.1.5l-.31-.06c.55.23,0,.26-.1.47-.14,0-.45.08-.4.14.54.05.51.1.87.14,0,0,0,.11,0,.2a.85.85,0,0,1-.1.18,1.86,1.86,0,0,1,.75.06.54.54,0,0,0,.5,0l-.12.24c.29-.24.38-.27.5-.29s.25,0,.29-.19l.11.33c.12,0,.12-.2,0-.38.11,0,0-.2.2-.07.09,0-.07-.14-.09-.21.19-.11.16-.18.12-.33l0,0c.07,0,.2,0,.23,0s.07-.27-.3-.17c.1-.09,0-.2,0-.29a.28.28,0,0,1-.07-.34c-.08.07-.13,0-.19.06s-.08-.41-.29-.34c0-.06.14-.12.09-.17s-.08.11-.15.13-.19,0-.26-.12-.16-.17-.23-.13l-.17.22a1.09,1.09,0,0,0-.08.15.29.29,0,0,0,0,.09.86.86,0,0,0,0,.16h-.08c.15,0,.09.11.06.19s0,.17.17.11c-.05,0,0,.1-.11.16.2,0,0,.34.25.17,0,0,0,0,0,0,0,.2.17,0,.24.16a.5.5,0,0,0,0,.13c.06.15.09-.32.16,0,0,0,0-.18,0-.17a.24.24,0,0,0,.28-.22.35.35,0,0,0-.14-.34c0-.13.31-.1,0-.15,0,0-.06,0,0,0s0-.17-.11-.13,0,0-.07.08-.21-.11-.28,0l0,0c0,.15-.16.29,0,.31,0,.2.23.28.26.09s-.09-.16-.07-.15,0,.06,0,0h0c.22.39.06.11.11.2h0l0,0a.68.68,0,0,0,.24.13c.05,0,.07,0,.08,0h0l-.38,0h.09l.08,0s0,0,0,0l0,0-.09,0s0,0,.07-.08-.1.09-.11.08,0,0-.11.08a1.71,1.71,0,0,0-1-.15c.06,0,.09-.24,0-.22l-.08.16v-.07a.19.19,0,0,0,0,.25l-.1,0s0,0,0,0a0,0,0,0,0,0,0s0,0,0,0a.13.13,0,0,0-.18,0s0,.07,0,.11a1.12,1.12,0,0,0,.27.31,1,1,0,0,0,.71.44c.23.28.44.46.66.45s.45-.29.3-.31a1.42,1.42,0,0,1,.34,0A.39.39,0,0,1,112.19,73.31Z"/><path class="cls-5" d="M112.68,72.61c.13,0,.22-.12.37,0A1.51,1.51,0,0,1,112.68,72.61Z"/><path class="cls-5" d="M111.59,68.78s-.06-.08-.08-.1.13-.09.17,0S111.62,68.73,111.59,68.78Z"/><path class="cls-5" d="M110.32,68.57c0-.12.24-.22.41-.23C110.59,68.42,110.45,68.48,110.32,68.57Z"/><path class="cls-5" d="M108.91,68.46c-.16,0-.16-.09,0-.15S108.91,68.4,108.91,68.46Z"/><path class="cls-5" d="M109,68.71a.39.39,0,0,1-.26,0C108.79,68.77,108.9,68.54,109,68.71Z"/><path class="cls-5" d="M106.84,70.33c0,.06,0,.22-.13.24C106.82,70.53,106.7,70.23,106.84,70.33Z"/><path class="cls-5" d="M106.65,71.54s0,0,0,.1-.14,0-.14-.07Z"/><polygon class="cls-5" points="109.15 73.03 109.02 72.97 109.11 72.91 109.15 73.03"/><path class="cls-5" d="M109.48,72.81c.12.07,0,.16,0,.19S109.58,72.94,109.48,72.81Z"/><polygon class="cls-5" points="110.31 70.93 110.33 70.93 110.58 71.07 110.31 70.93"/><path class="cls-5" d="M78.56,83.8c0,.18.22,0,0,.13C78.53,83.88,78.48,83.83,78.56,83.8Z"/><path class="cls-5" d="M78.1,84.31c.13.38-.2.7-.55.8s-.7.09-1.09.21c-.08,0,.08-.31-.1-.28-.77.31-1.72-.69-1.79-1.49l.1,0c0-.12-.36-.11-.39-.27s.1,0,.17,0c-.19,0-.18-.2-.34-.24.07-.06.22-.07.29-.13l-.24-.07c-.29-.12-.29-.3-.24-.45s.19-.27.16-.49c0,0,.06.09.12.1a.67.67,0,0,1,.07-.31c.25-.46.94-.56,1.47-.69a.51.51,0,0,0,0,.3c0-.23.22-.29.4-.33.07.23.33-.18.54,0l0,.05c.2-.2.21.18.4-.07l0,.2c.16-.29.17.23.34.12l0-.06c.15,0,.14.15.27.16v0c.29.07.3.33.46.13,0,.21-.28-.1-.33.22a1.14,1.14,0,0,1,.72,1.09,1.42,1.42,0,0,1-.76,1.16c-.15-.06-.2,0-.26-.11-.06.08-.28.13-.34.26s-.08-.12-.13-.13-.16.26-.34.1a.17.17,0,0,0,.08-.21c-.14.15-.33,0-.49,0,0,0,.08,0,.1-.1-.24.09-.23-.28-.38-.3l.11-.06c0-.16-.06-.14-.12-.1s-.13.11-.15,0c.06,0,.1,0,.14-.07-.29,0-.31-.48-.34-.71h.06c0-.23.2-.67.33-.53l.24.12.23.09c-.09,0-.08-.06,0,0s.06-.06-.2-.18h.08l.1.06.9.57,0,.13,0,.06a3.08,3.08,0,0,0,.16.28c-.13-.17-.31-.25-.38-.37s0,0,0,.06,0-.09-.07-.09a.87.87,0,0,1,.16.34c0,.12.06.21.13.43a1.87,1.87,0,0,1,0,.32.49.49,0,0,1-.06.25c0-.23-.17-.32-.14-.41a2,2,0,0,1-.12.84c-.1.06,0-.22-.18-.1a.3.3,0,0,1-.1.21s-.49,0-.46-.28c0-.11.16,0,.08-.13s-.19,0-.34-.08v0c-.07-.1-.3-.15-.29.08.06.08,0-.16.11,0-.14.08-.33-.07-.44-.25.06,0,.11,0,.17-.07-.27-.06-.46-.32-.6-.67-.12,0,.24,0,.19.11a2.25,2.25,0,0,0,0-.69.66.66,0,0,1,.3-.68c0,.07-.22,0-.17,0,.18-.25.35-.12.42-.29.11.08.15-.18.36-.26s.08,0-.08.1a1,1,0,0,1,.86-.13,1.56,1.56,0,0,1,.86.47s.37.12.43.23h-.13c0,.09.22.28.13.31.12.08,0-.1-.16-.24s-.34-.25-.19-.17c0,.07.44.25.26.25.12.15.33.33.29.5,0,0-.2-.15-.15,0s.08.07.16.29l0,.16c.11,0,0,.25.1.2-.07,0,0,.46-.19.32l-.12-.13c0,.11.07.28.09.43,0,0-.06,0-.08,0,.18.22-.16.25-.15.54a1.15,1.15,0,0,0-.19.14l-.08.14s0,.09-.09.09a.37.37,0,0,1-.4,0,.63.63,0,0,1-.64.21c.05,0,.12,0,.13-.11-.15-.1-.18,0-.33,0,0,0-.05-.07-.13-.16l-.07,0,0,0h0v0h0v0l-.11-.13c-.21,0-.22.23-.28.33,0-.2-.18-.2-.35-.24s-.34-.09-.34-.29c.09,0,.34.06.26-.11.1-.36-.44,0-.5-.4l-.18.23c.05-.2-.4-.28-.13-.4-.15,0-.08-.35-.31-.2a5,5,0,0,0-.18-.82.57.57,0,0,1,.23-.67c0-.06,0-.22-.12-.21s.09.17,0,.21-.08-.09-.11-.09c.07-.15.11-.28.32-.1.22-.27-.41-.45-.12-.88.09.07.14.06.19-.07a1.84,1.84,0,0,1,0-.33c.22-.23.31,0,.46.14a1.48,1.48,0,0,1,.13-.21.25.25,0,0,0,0-.19l.29.08c-.2-.06,0-.16.06-.23l0,.07c.07.06.18-.07.24-.12s-.25-.06-.35,0,.14-.16.19-.29c.06.18.3,0,.42,0s.12-.21.16-.22.24,0,.16.13-.13-.07-.19,0c.11,0,.13.21.29.06s-.09-.36.21-.27c-.07,0-.08.13-.13.2l.26.08V79.4s0,0,0,.08c.08-.18.39,0,.48-.22.14,0,.25.17.36.23h0a.41.41,0,0,0,.47.1l0,0a.54.54,0,0,0,.38.08c.09.23-.32.57,0,.52a.35.35,0,0,0,.45-.19c.19.31.66.48.62.9.08,0,.1,0,.19,0,.2.47.64,1,.33,1.52-.09-.14-.17,0-.27,0,.16.11-.16.14.11.18s.23,0,.29-.16a1.12,1.12,0,0,1-.18,1c.09-.07.12,0,.14.1-.23-.09-.33.12-.34.32l.13.09-.19,0c0,.09.23.24,0,.34a.47.47,0,0,0-.16,0c0,.24-.07.65-.34.71l-.28,0c-.05.08-.11.3.06.24-.39.14-.61.24-.77.11a1.79,1.79,0,0,1-1,.8,2.75,2.75,0,0,1-1.22.11l.07-.11c-.15-.12-.19.19-.29.1.11-.1,0-.25.17-.36-.19-.15-.43.15-.62.15s.18-.06,0,.11-.29-.2-.47,0c0-.11.15-.23.23-.29l-.21,0c0-.14.18-.2.35-.27s.35-.18.36-.34h-.14c0-.22.46-.17.24-.29-.18.07-.52.29-.47.41-.31,0-.5.39-.8.22,0-.14.27.1.35-.07s-.37,0-.43-.18c.06.14-.23.23-.35.19s.27-.08.08-.23c-.14.07-.41,0-.33.16-.33.12-.14-.22-.44-.19.13-.17.61-.1.51-.33-.15.15-.48-.1-.65.16,0-.12.12-.2.28-.2,0-.16-.57-.13-.23-.34l-.22,0a1.8,1.8,0,0,1,.12-.25.08.08,0,0,0,0,0c-.11-.11-.38-.28-.11-.35,0,0-.13-.32-.3-.16s.22.17,0,.35c.18-.19-.13-.26-.24-.36l.11,0c-.06-.06-.07-.22-.2-.25a.12.12,0,0,0,.17,0l-.19,0c-.12-.28.3-.1.23-.37,0,.07.11.13.16.19s.12-.14.07-.26a4.1,4.1,0,0,1-.5-.18c-.06-.16.19-.06,0-.22l.19.2c.06,0,.28-.12.3-.31s-.24-.36-.37-.16c0-.11.15-.23.25-.14,0-.23-.19,0-.24-.21.13-.06.37-.27.58-.36l.2.25.05-.12c.16.2.19,0,.39.11.06-.06,0-.16,0-.25-.47.1-.36-.41-.71-.48.11-.38.89.16.62-.39-.12,0-.24-.27-.29,0,.17-.17-.2-.3.11-.45,0,.23.45,0,.43.35-.09-.07-.19.08-.19.12.18,0,.3.19.44,0s.2-.23,0-.33-.14.16-.24,0c.15-.24.43-.06.25-.37-.12.13-.32,0-.43,0a2,2,0,0,1,.11-.2l.07.12c.36-.16-.1-.24.23-.42l.33.1c.08.2-.51.21-.18.43.19-.11.12-.29.37-.32,0,0-.07.08-.09.13s.47.3.55,0c.07-.15,0-.13-.13-.24.31-.17.34-.32.57-.41.07.25.42-.06.28.24-.18-.13-.69,0-.64.31.3.22-.28.07-.13.36.23-.11.42.16.57.31.07,0,.07-.09.09-.13s-.16-.14-.28-.31a.75.75,0,0,0,.59-.39c.14.07.18.25.08.29a1.56,1.56,0,0,1,1,0c-.24-.36.36,0,.2-.3-.18-.11-.38-.35-.28-.48.13,0,0,.13.06.21.16-.15.25.32.4.08-.35,0-.06.38-.12.61.21-.08,0,.17.18.24a1.13,1.13,0,0,1,.7,0c.18.39.62.52.82.77,0,.21-.25.33-.2.48s.15-.31.19,0H79c.1,0,.05.5.43.42l-.3,0c0,.06.07.07.11.09s-.15.12-.24.08c-.14.2.13.26.16.42l.15-.14c.2.25,0,.46.11.72H79.2l.1.16c-.16,0-.28.08-.15.17a2.38,2.38,0,0,0-.4-.38c.1-.1.21.1.38,0s.09-.3-.08-.31c0,.09,0,.09.09.15-.23,0-.23-.09-.4-.13,0,0,0,.1,0,.11-.13-.07-.14-.14-.17-.26.11.07.13-.08.21-.06-.21,0-.3-.08-.28-.22.19-.19-.23-.17-.23-.31a.55.55,0,0,1,.51,0c0-.17-.06-.13,0-.31-.16,0-.38.16-.52.13l.12-.12c-.14,0-.29.15-.34,0a1.27,1.27,0,0,0-.47-.52v-.2c-.14.38-.34,0-.45.21a.27.27,0,0,0-.34-.05c-.09,0-.16.06-.33-.13-.33.26-.42.53-.78.72l-.32-.28c.22.23-.25-.09-.26,0,.37.11.32.3.55.45-.43,0-.19.35.1.5l-.31-.06c.55.23,0,.26-.1.47-.14,0-.45.08-.4.14.54.05.51.1.87.14,0,0,0,.11,0,.2a.85.85,0,0,1-.1.18,1.89,1.89,0,0,1,.75.06.54.54,0,0,0,.5,0l-.12.24c.29-.24.38-.27.5-.29s.25,0,.29-.19l.11.33c.12,0,.12-.2,0-.38.11,0,0-.2.2-.07.09,0-.07-.14-.09-.21.19-.11.16-.18.12-.33l0,0c.06,0,.2,0,.22,0s.08-.27-.29-.16c.1-.1,0-.21,0-.3A.27.27,0,0,1,77.7,82c-.08.07-.13,0-.19.06s-.08-.41-.29-.34c0-.06.13-.12.09-.17s-.08.11-.15.13-.19,0-.26-.12-.16-.17-.23-.13l-.17.22a1.09,1.09,0,0,0-.08.15.29.29,0,0,0,0,.09.86.86,0,0,0,0,.16h-.08c.15,0,.09.11,0,.19s0,.17.18.11c0,0,0,.1-.11.16.2,0,0,.34.25.17,0,0,0,0,0,0,0,.2.17,0,.24.16a.5.5,0,0,0,0,.13c.06.15.09-.32.16,0,0,0,0-.18,0-.17a.24.24,0,0,0,.28-.22.35.35,0,0,0-.14-.34c0-.13.31-.1.05-.15,0,0-.06,0,0,0s0-.17-.1-.13-.05,0-.07.09-.21-.12-.28,0l0,0c0,.15-.16.29,0,.31,0,.2.23.28.26.09s-.09-.16-.07-.15,0,.06,0,0h0c.22.39.06.11.11.2h0l0,0a.6.6,0,0,0,.24.13s.07,0,.08,0h0l-.37,0h.09l.08,0s0,0,0,0l0,0-.09,0s0,0,.07-.08-.1.09-.11.08-.05,0-.12.08a1.68,1.68,0,0,0-1-.15c.07,0,.1-.24,0-.22l-.08.16v-.07a.19.19,0,0,0,0,.25l-.1,0s0,0,0,0a0,0,0,0,0,0,0,.08.08,0,0,0,0,0,.13.13,0,0,0-.18,0,.11.11,0,0,0,0,.11,1.12,1.12,0,0,0,.27.31,1,1,0,0,0,.71.44c.23.28.43.46.66.45s.45-.29.3-.31a1.42,1.42,0,0,1,.34,0A.39.39,0,0,1,78.1,84.31Z"/><path class="cls-5" d="M78.59,83.61c.13,0,.22-.12.37,0A1.51,1.51,0,0,1,78.59,83.61Z"/><path class="cls-5" d="M77.5,79.78s-.06-.08-.08-.1.12-.09.17,0S77.53,79.73,77.5,79.78Z"/><path class="cls-5" d="M76.23,79.57c0-.12.24-.22.41-.23C76.5,79.42,76.36,79.48,76.23,79.57Z"/><path class="cls-5" d="M74.82,79.46c-.16,0-.17-.09,0-.15S74.82,79.4,74.82,79.46Z"/><path class="cls-5" d="M74.9,79.71a.39.39,0,0,1-.26,0C74.7,79.77,74.81,79.54,74.9,79.71Z"/><path class="cls-5" d="M72.75,81.33c0,.06,0,.22-.13.24C72.73,81.53,72.61,81.23,72.75,81.33Z"/><path class="cls-5" d="M72.56,82.54s0,0,0,.1-.14,0-.14-.07Z"/><polygon class="cls-5" points="75.06 84.03 74.92 83.97 75.02 83.91 75.06 84.03"/><path class="cls-5" d="M75.39,83.81c.12.07,0,.16,0,.19S75.49,83.94,75.39,83.81Z"/><polygon class="cls-5" points="76.22 81.93 76.24 81.93 76.48 82.07 76.22 81.93"/><path class="cls-5" d="M91,75.05c0,.14.21,0,.07.1C91,75.12,90.88,75.09,91,75.05Z"/><path class="cls-5" d="M91.42,74c-.73,0-.58-.81-1.15-1-.06,0,.27-.18.13-.23-.64-.1-.83-.84-.86-1.5l.09,0c0-.13-.33,0-.36-.17s.09,0,.14-.09c-.16.08-.18-.12-.32-.07,0-.08.15-.16.19-.26l-.21.07c-.51.15-.22-.37-.57-.41,0,0,.09,0,.11-.07-.47-.14-.7-.56-1-.85a.78.78,0,0,0,.24-.16.33.33,0,0,1-.41,0c.15-.17-.29,0-.27-.22l0,0c-.25,0,0-.21-.25-.11l.1-.15c-.28.15,0-.22-.13-.19l0,0c-.11,0,0-.14-.09-.17l0,0c-.17-.09-.08-.27-.28-.13.12-.16.17.09.35-.16a4,4,0,0,1-1.17-1.26.82.82,0,0,1,.11-.23c-.07,0-.16-.14-.29-.11s.08-.11.07-.14-.28.07-.26-.09a.28.28,0,0,0,.22-.1c-.21,0-.26-.09-.38-.14a.22.22,0,0,0,.14,0c-.25,0-.09-.21-.27-.22l.14,0c0-.25-.27.13-.28-.05a.3.3,0,0,0,.15-.07c-.3,0-.38-.23-.53-.33l.06,0c-.12-.14-.12-.31-.29-.48,0-.07.36,0,.26-.16-.3,0-.16-.29-.47-.21,0-.17.19-.39.14-.52.08.1.35,0,.34.17l.22,0c.13.06-.07.06.1.09,0,0,0-.22,0-.24-.14-.16-.35-.41-.23-.57,0,.13.3.16.3.23a1.89,1.89,0,0,1-.21-.53s.17.16.2.05a.32.32,0,0,1-.06-.18s.24-.22.41,0-.06.1.06.15.06-.14.17-.19l0,0c.09,0,.14-.2,0-.31s.09.15,0,.11a.3.3,0,0,1,.18-.32c0,.06,0,.13,0,.21A1.06,1.06,0,0,1,86,62c0-.13,0,.25,0,.19.27.09.3-.41.57-.22,0,0-.09-.18-.07-.14s.17.16.2.07c0,.1.07-.07.12-.12s0,0,0,.08c0-.13.35-.43.61-.34,0-.07,0-.31.09-.32l0,.17c.08.09.16-.07.21.08,0-.24-.33.31-.25.1.09.13.1-.33.15-.1.1,0,.13-.25.27-.13,0,0,0,.26.07.23s0-.1.11-.19l.05-.09c-.05-.17.13,0,0-.19.06.13.18-.14.25.14l0,.22c.06,0,0-.26.05-.37a.73.73,0,0,1,0,.09c-.09-.33.15,0,.15-.29.16.08.33-.08.44.11.07-.12.13-.27.26-.23s0,.06,0,.13.09,0,.14-.08.19.16.3.26c.07-.12,0-.3,0-.41.16.31.23-.28.41,0,0,0-.11.19,0,.26.16.31.13-.29.31-.16l-.1-.27c.1.16.18-.2.23.08,0-.11.19.06.12-.21.24.19.87-.29,1,.19,0-.06.16,0,.16-.16s-.13.12-.14,0,.07-.1.08-.14.17.08,0,.32c.15.16.34-.5.62-.4,0,.11,0,.16,0,.14a2.07,2.07,0,0,1,.24-.17c.15.07,0,.26-.12.44.1,0,.2,0,.31-.11l0,.24c0-.17.13-.07.2-.09l-.07,0c0,.07.09.08.15.09a.22.22,0,0,0,0-.25c.1-.05.15,0,.27,0-.14.14,0,.2.08.27s.19,0,.2,0,.08.13-.06.17,0-.12-.07-.1-.14.21,0,.22.28-.27.27,0c-.06,0-.12,0-.19,0a1.27,1.27,0,0,1,0,.2l.15-.1c0,.05,0,0-.06.07.17-.08.13.18.32.11,0,.07-.07.23-.07.31h0c-.08.14,0,.23.12.27h0a.2.2,0,0,0,.12.21c-.13.19-.66.24-.45.32,0,.12.3.15.42.08-.14.27.09.6-.21.84.06,0,.11,0,.14.09-.1.24.12.57-.24.73-.06-.09-.17,0-.27,0,.15.09-.17,0,.09.11s.23,0,.3,0a.38.38,0,0,1-.13.47c.08,0,.12,0,.17,0-.25,0-.3.07-.23.16l.15,0-.16,0s.31.08.15.15a.43.43,0,0,0-.16,0c.11.11.3.26.16.34l-.23.05s.14.13.21.06c-.15.15-.19.25-.38.28a1,1,0,0,1,.3,1.08l-.11,0c-.12.07.19.07.1.12s-.24,0-.36,0c-.14.11.17.19.21.28s-.09-.08.1,0-.14.16.08.21a.76.76,0,0,1-.34-.06l.09.1c-.27,0-.43-.29-.77-.23l0,.07c-.25,0-.24-.22-.35-.06a.67.67,0,0,0,.53.15c0,.17.52.16.47.33-.13,0,0-.15-.2-.14s.08.18,0,.24c.09-.07.31,0,.34.09-.12.08-.2-.09-.24,0,.12,0,.2.16.31.08.28.08-.1.12.12.22-.22,0-.46-.2-.58-.08.2,0,.24.21.55.18a.38.38,0,0,1-.34,0c-.13.06.33.24-.06.21l.2,0a1.84,1.84,0,0,1-.24.07c0,.07.24.26-.07.21,0,0,0,.18.22.15s-.14-.14.15-.15c-.24,0,0,.14.08.21h-.12s0,.12.13.15a.23.23,0,0,0-.18,0l.18.06c.07.15-.32,0-.29.13l-.12-.12s-.15,0-.1.12l.47.16c.06.08-.19,0,0,.1l-.18-.12c-.06,0-.29,0-.3.12s.28.2.38.12-.11.1-.23,0c0,.12.18,0,.27.12-.12,0-.29.12-.46.17L93,69.87v.07c-.21-.12-.18,0-.4-.06,0,0,0,.11.08.16.39-.08.49.22.83.23.07.2-.84,0-.34.26.1,0,.34.11.26,0-.05.11.33.13.17.24-.13-.12-.36.06-.54-.11.11,0,.1-.07.07-.1s-.34-.05-.36.06,0,.18.19.19,0-.11.19,0-.25.13.08.24c0-.09.19-.09.33-.07l.06.12-.12,0c-.12.16.22.08.16.24l-.26,0c-.21-.07.13-.22-.23-.24,0,.1.15.16,0,.25s0-.06-.06-.09-.5,0-.24.2c.09.09.12,0,.26.06,0,.17.14.24.15.36-.26-.06-.06.18-.31,0,.16,0,.18-.28-.06-.38s.07-.13-.24-.21c0,.14-.33.09-.53.08,0,0,.06.08.08.11.19,0,.19,0,.39,0-.08.14,0,.3.18.41-.1,0-.29,0-.3-.06a.89.89,0,0,1-.1.53c.32-.06,0,.21.31.17a.43.43,0,0,1,.44-.06c0,.05-.13,0-.2,0,.16.1-.29.08,0,.19-.08-.18-.37-.09-.61-.15.12.13-.17,0-.18.08a1.17,1.17,0,0,1,.23.44c-.25.13-.06.42-.08.56s-.39,0-.45.05.3,0,.16.1l0,0s-.23.24.16.33L91.78,74s0,.06.06.08-.19,0-.24,0c-.22.06,0,.19,0,.29l.18,0c.11.19-.08.27,0,.44l-.17,0,.09.11c-.16,0-.28,0-.15.1l-.38-.31c.11,0,.19.11.37.09s.12-.18,0-.22,0,.06.07.11c-.24,0-.22-.1-.37-.16,0,0-.07.06,0,.08a.22.22,0,0,1-.11-.24c.08.08.15,0,.22,0-.21,0-.26-.14-.19-.25.26,0-.12-.25,0-.38a1,1,0,0,1,.43.28c.12-.07,0-.1.13-.17-.15-.07-.39-.13-.47-.26h.16c-.06-.11-.29-.14-.23-.27a3.27,3.27,0,0,0,.19-.62h.15c-.32-.14-.08-.33-.2-.49.18-.2-.08-.5.2-.57a2.68,2.68,0,0,1,0-1.16l.22.1c-.16-.1.14,0,.11-.11-.19.06-.22-.13-.35-.2.2-.15,0-.41-.09-.59h.16c-.27-.2,0-.36.09-.55.06,0,.22,0,.21-.09-.24-.15-.21-.2-.35-.38a.87.87,0,0,1,.22-.41c-.29-.49,0-.9-.14-1.39h.18c-.32-.5.11-1,0-1.4l.31.08c.11-.11,0-.28-.27-.28.11-.11-.11-.32.16-.36.08-.11-.12-.17-.15-.28a.62.62,0,0,0,.11-.55l0,.05c.06,0,.19.06.22,0s.13-.3-.25-.27c.24-.2-.09-.62.22-.76-.1,0-.12,0-.19,0s.23-.13,0-.13c.06,0,.18,0,.2-.06s-.14,0-.2,0,0,0,0-.12.14-.21.09-.23c-.29.07-.34.06-.48.09v-.07c0,.15,0,.07-.08,0s-.16-.07-.17.16c0-.07-.16,0-.16-.16-.09.23-.42-.1-.55.19,0,0,0,0,0,0-.24-.12-.36.15-.6.06,0,0,0-.07,0-.15s-.1.36-.24,0c0,0,0,.18,0,.17a2.68,2.68,0,0,0-1.33.58c-.4-.1-.22-.58-.39-.23,0-.06,0,.14,0,.07-.07.13-.29-.33-.3-.13s0,.14,0,.27c-.25-.07-.36-.24-.46,0l0-.11c-.07.38-.34.3-.35.72a6.47,6.47,0,0,0-.69.38.19.19,0,0,0,0,.14.15.15,0,0,0,.12.14h0l.05.08.49.65a9.46,9.46,0,0,1,.88,1.4c-.1.39-.09.4.18.56,0,0-.06,0-.09.06.21-.14.14.15.35,0a9.46,9.46,0,0,0,.73,1c-.06,0-.25,0-.19.11l.18,0-.05,0a.19.19,0,0,0,.23-.09c.8.74,1,1.88,1.66,2.69.05.27.34.5.54.68a3.32,3.32,0,0,0,1,2.11S91.73,74.13,91.42,74Z"/><path class="cls-5" d="M91,74.89c.13,0,.21-.09.37,0A2.26,2.26,0,0,1,91,74.89Z"/><path class="cls-5" d="M92.6,72.63s.06,0,.08,0,.11.07,0,.09S92.65,72.65,92.6,72.63Z"/><path class="cls-5" d="M92.77,72a.3.3,0,0,1,.18.26Z"/><path class="cls-5" d="M93.31,71.5c.1,0,.15,0,.14,0A.58.58,0,0,1,93.31,71.5Z"/><path class="cls-5" d="M93.06,71.42s.08-.07.14-.08C93.11,71.33,93.25,71.46,93.06,71.42Z"/><path class="cls-5" d="M93.57,70.2s-.09-.11,0-.12C93.52,70.1,93.73,70.24,93.57,70.2Z"/><path class="cls-5" d="M93.49,69.58s0,0,0,0a.11.11,0,0,1,.14,0Z"/><polygon class="cls-5" points="90.35 60.55 90.41 60.48 90.42 60.59 90.35 60.55"/><path class="cls-5" d="M85.69,62.06c0,.09-.09-.08-.11-.09S85.62,62.11,85.69,62.06Z"/><polygon class="cls-5" points="84.21 64.58 84.2 64.55 84.44 64.56 84.21 64.58"/></g></svg>