<svg id="Layer_13" data-name="Layer 13" xmlns="http://www.w3.org/2000/svg" xmlns:xlink="http://www.w3.org/1999/xlink" viewBox="0 0 243.97 299.01"><defs><style>.cls-1{fill:none;}.cls-2{fill:#d1d1d1;}.cls-3{clip-path:url(#clip-path);}.cls-4{fill:#25aed4;}.cls-5{fill:#202020;}</style><clipPath id="clip-path" transform="translate(-5.02 49.02)"><circle class="cls-1" cx="127" cy="128" r="121.95"/></clipPath></defs><circle class="cls-2" cx="121.98" cy="177.02" r="121.95"/><g class="cls-3"><path class="cls-4" d="M162.9,79.83c6.87-20.73,10.92-42.64,7.77-64.94A80.45,80.45,0,0,0,142-36c-34.66-27.85-81.86-4.54-104,27.79-14,20.4-1.65,47.61,11.27,65.77C60.62,73.66,79.22,85.08,98,85.05c21.5,0,40.92-11,49.12-32.71C154.79,32,148.8,8.53,136.63-8.78,114.37-40.46,67.14-50.26,37.48-28.33,18.09-14,13.82,11.35,23,34.58,27,44.9,34.13,54,41.35,62.05A134.24,134.24,0,0,0,62.09,81.31c16.87,12.18,38.66,17.1,56.74,6.52,16.28-9.52,26.33-28.16,29.59-47.51,3.74-22.14,1.69-48.32-15.34-64.67C118.59-38.26,97.79-43.69,79.36-38.47,59.53-32.85,44.81-17.65,36.63,2.14,28.27,22.39,30.13,45.3,37.72,66c7.73,21.06,22.52,37.9,38.73,52,15.47,13.45,35.45,29.54,56.08,23.17,22.12-6.82,32.74-28.16,37.65-50.87,5-23.24,5.54-46.68-3.11-69.47C159.37.48,142.74-15.5,123.33-21.89c-18.59-6.12-38.94-5.27-57,1.08-19.87,7-41.4,20.45-48.44,42.89-3.72,11.84-.91,24,2.22,35.77C23,68.87,26.45,80,31.24,90.31c6.55,14.08,16,26.09,28.74,34.12,10.29,6.48,22.44,11.63,34.37,11.49,14.37-.16,27.89-7.65,31.82-23.31,3.6-14.37-1.27-30.73-8-43.6-4.44-8.48-10.74-16.68-19.63-19.82-10.31-3.65-21.94.67-27.89,10C62.5,72,67.51,88.89,77,99.69c9.85,11.24,25.44,17.93,38.79,10.85,7.73-4.1,12.7-11.81,15.51-20.38,3.82-11.63,1.2-23.89-3.69-35-4.74-10.72-14-19.86-25.31-20.83-14-1.19-25,9.47-28.95,23.07-3.18,11.09-2.76,24.48.22,35.75,2,7.52,4.9,15.06,11.24,19.67a24.91,24.91,0,0,0,20,4.46c26.34-5.62,26.59-42.1,22.33-64.69-3.46-18.38-10-38-22.35-52C98.37-6.62,90-12.86,81-15.46c-14.54-4.23-30.8,0-35.71,16.72C42,12.43,45.51,26,48.46,37.14c2.84,10.7,6.33,22.46,11.87,32C65.27,77.74,74,83.89,83.59,82c8.06-1.64,14.21-7.7,17-15.92,4-12.07,2.31-25.89-3.14-37.44C94.75,23,88.33,17.81,82.3,17.92L77.55,18c-9.4.18-18.85,6.75-18.83,17.87,0,9.69,7.16,21,17.24,20.78l4.76-.09L65.62,45.9c2.09,4.44-.49-3.69.57,1.14a22,22,0,0,1,.49,2.39c.23,1.45.22,1.07,0-1.13.44,1.26,0,3.66-.2,4.89l.23-1.71q-2.65,8,8.82-7.56l9.44.72L88.36,48q4.74,5.75,3.11,2.77a15.85,15.85,0,0,0-1-2.21c-.88-1.91-1.7-3.85-2.48-5.81-.68-1.67-1.29-3.37-1.94-5-1.13-2.92.8,2.81-.06-.2-.33-1.16-.73-2.3-1.07-3.45Q83.2,28.39,82,22.64q-.57-2.66-1.06-5.33c-.27-1.52-.21-5.53-1-6.7.08.12.21,3.92.28,1.77s-.34,1.54-.37,1.63c-1.47,4.15-5.56,7.59-9.8,7.34,4.11.24-.5-.2-.37-.4a10.25,10.25,0,0,1,1.83.57c.6.21,1.18.46,1.78.66,2.58.89-.37-.65-.82-.58.91-.14,2.81,1.83,3.64,2.37a10.61,10.61,0,0,1,1.47,1.16c0,.16-2.65-2.79-1.24-1.17,2,2.28,3.92,4.45,5.75,6.88,1.31,1.75-1-1.44-.94-1.42a14,14,0,0,1,1.34,2.29q1,1.76,1.86,3.57c1.31,2.66,2.07,6.36,3.7,8.74,0,0-1.25-3.85-.6-1.72.2.64.42,1.28.62,1.93.46,1.49.89,3,1.3,4.49,1,3.76,1.91,7.55,2.63,11.37.31,1.67.59,3.34.83,5,.12.83.22,1.67.33,2.52,0,.35.19,3.12.08.77-.11-2.56,0,1,0,1.61,0,.85,0,1.69,0,2.53q0,2.94-.34,5.87c-.09.84-.18,1.68-.31,2.5.57-3.5.1-.8-.11-.13-.5,1.55-1.47,4.11-.14,1.14-.42.95-1.57,1.38-.25.49s2-2.14,3.52-2.69a8.56,8.56,0,0,1,3.69-.56l2.43.54,7.07,6.19c.09.17,1.13,4,.47,1.5-.22-.84-.48-1.67-.69-2.52-.49-2-.7-4-1.13-6-.48-2.17,0,.44,0,.84,0-.87-.07-1.75-.08-2.62,0-2.36.22-4.65.36-7,.16-2.64-.06,1.36-.24,1.41a16.67,16.67,0,0,0,.54-2c.26-1.87-.51,1-.69,1.28,1.62-2.81-.39,0-.81.48.65-.67,1.79-1.08,0-.16a15.38,15.38,0,0,1-3.08,1.64,9,9,0,0,1-4,0c-.8-.16-5-2.44-2.86-.91.11.08-3-2.82-1.64-1.31s-1.08-1.63-1-1.8c-.1.45,1.46,2.69,1.71,3.21a17.73,17.73,0,0,0,1,2.26s-1.22-4-.72-2.1,1,3.65,1.47,5.46c-.27-1,.47-3.64-.08-.21,0-.3.88-2.95.13-1.55a15.11,15.11,0,0,0-1,3.07c-.43,1.73.89-2.2,1-2.25-.25.14-.7,1.32-.85,1.49-1.76,2.09,3.37-3.23.8-1.11-1,.79,4.3-2.73,1.69-1.29-2.94,1.62,4.32-1.31,2-.77-2.48.58,5-.15,2.47-.17-3.35,0,3.22,1.31,1.6.44a6.59,6.59,0,0,0-1.79-.7c1.35.1,4.34,2.79,1.56.72-.55-.41-1.11-.85-1.68-1.24-2.69-1.84,2.69,3,1.21,1.12-.73-1-3.92-5.13-1.76-1.79s-.37-1.41-1-2.39c-.42-.62,1.65,5.61.89,2.25-.69-3,.16,2.29.18,2.91-.11-2.89-.43,2.21-.59,2.8.48-1.79-2.61,4.89-.9,2.12a10.36,10.36,0,0,1-4.77,4.71c2.59-1.53-2.73.67-3.77.73a12,12,0,0,1-4.8-.66c.65.23,2,.9-.69-.45-2.54-1.26-1.39-.68-.72-.21-4.08-2.87-2.33-2.37-1.33-1,.47.63,2.54,3.51.67.72s.36.81.71,1.47c1,2,1.95,4,2.79,6.12.29.71.56,1.44.84,2.16,1,2.55-.66-.73-.45-1.33-.39,1.11,1.56,6,1.82,7.55.09.47.11,1,.19,1.43.42,2.35,0-4.74-.24-2.49a22.33,22.33,0,0,0-.06,2.46c0,3.57.84-4,.29-1.67-.78,3.3,1.11-2.09.91-1.69-.43.86-1.86,2.65.35-.08,2.41-3,.6-.66-.09-.15-2.06,1.53,4-3.05,1.94-1.46a4.5,4.5,0,0,1-.78.42c-2.61,1.24,2.59-1,2.61-.88.06.51-7,.93-2,.67,3.89-.2-1.29-.12-2.49-.24-.87-.09-1.73-.25-2.6-.37-3.16-.45,2.62.78,1.55.36-1.77-.71-3.68-1.08-5.48-1.77s-3.42-1.49-5.13-2.26c-2.73-1.24,3.65,2.19,1.08.55-1-.64-2-1.21-3-1.86Q76,90.21,73.7,88.39c-.68-.54-1.34-1.2-2-1.7-1.46-1,2.06,2,1.93,1.78A16.14,16.14,0,0,0,72,86.94c-1.29-1.34-2.47-2.76-3.65-4.22-2-2.49-.1.66.35.71-.7-.08-2.62-4.4-3-5.12a103.53,103.53,0,0,1-4.72-10c-.43-1-.83-2.12-1.25-3.18-.11-.28-1.13-3-.31-.76s-.17-.48-.26-.78c-.36-1.09-.71-2.18-1.05-3.28-1.09-3.56-2.09-7.16-3-10.77-1-3.87-1.52-8.24-2.87-12-.67-1.85-.14.07-.1.74,0-.85.12-1.84,0-2.68-.39-2.84-1,2.73-.16.54,0-.13.54-2,.6-2s-1.67,3.11-.56,1.19c.35-.61.65-1.26,1-1.87s.84-1.17,1.15-1.8c.94-1.89-2.17,2.26.12-.24a84.61,84.61,0,0,1,6.39-6.18c2.58-2.28.61-.59,0-.13.64-.47,1.31-.92,2-1.36,1.54-1,3.13-2,4.74-2.93A102.18,102.18,0,0,1,76.7,16.4c2-.86-.55.21-.81.29,1-.31,2-.67,3-1,1.78-.53,3.57-1,5.38-1.4a95.94,95.94,0,0,1,9.52-1.59c3.56-.44-2.7,0,.89-.06,1.91,0,3.81,0,5.72.05,3.09.16,6.11.66,9.18,1.09,2.16.3-1.15-.27-1.15-.27.33-.15,1.69.45,2.05.55,1.8.52,3.58,1.12,5.33,1.82.61.25,4.52,1.86,2.38.94s0,0,.38.23c.8.49,1.61,1,2.4,1.49,1.18.79,2.31,1.66,3.44,2.51.26.2,2.23,1.89.54.39s.68.73,1,1a52.64,52.64,0,0,1,3.48,4.1c1,1.36,2.24,3.85.75.94,1.68,3.26,3.4,6.38,4.82,9.78.16.4,1,2.9.21.5-.83-2.59.15.65.33,1.28.42,1.52.8,3,1.12,4.59s.61,3.14.85,4.72c.08.57.57,4.22.28,1.75-.27-2.27.07,1.34.09,1.76a100.08,100.08,0,0,1-.16,11.36c-.12,1.75-.28,3.5-.48,5.24-.1.88-.21,1.75-.33,2.62-.18,1.36-.66,3.86-.15,1.16a161,161,0,0,1-5.45,21c-.26.77-1.47,3.16.1,0-.35.71-.69,1.42-1.06,2.12-.73,1.4-1.71,2.67-2.42,4.07-.92,1.82.4-.4.67-.7-.64.7-1.25,1.42-1.92,2.08-.5.49-1.09.92-1.56,1.44-1.56,1.72,2.45-1.29.41-.29a19.37,19.37,0,0,0-1.8,1.07c-2.5,1.62.25-.92.74,0,0,0-4,1-4,.92,0-.46,3.54.32,1.41-.19-.31-.07-1.94.07-2.11-.21s4.3,1.61.45-.07c-.88-.38-1.78-.79-2.67-1.12,2.86,1.07.53.24-.9-.67s-2.89-1.94-4.31-2.95q-4.65-3.29-9.16-6.8-3.86-3-7.57-6.22c-.4-.35-3-2.64-1.26-1.09s-.42-.41-.61-.59c-1.36-1.32-2.72-2.65-4-4-2.45-2.53-4.81-5.17-7-7.92q-1.8-2.22-3.49-4.54c-.48-.66-.94-1.35-1.43-2,1.11,1.48.86,1.41,0-.09a98.45,98.45,0,0,1-5.26-9.76q-1.08-2.32-2-4.71c-.22-.56-1.35-4-.6-1.56s-.31-1.21-.42-1.61A83.27,83.27,0,0,1,67.2,37c-.55-3.75-.09,2.19-.08-1.6,0-2.29,0-4.55.18-6.83.08-1.05.74-3.11.47-4.1,0,.21-.77,3.52-.2,1.53.19-.65.3-1.35.46-2,.39-1.57.84-3.12,1.35-4.64.22-.65.47-1.29.69-1.95.75-2.2,0-.59-.36.62.73-2.68,2.82-5.52,4.31-7.77.38-.57.77-1.12,1.16-1.68,1.65-2.43-.28.67-.44.52S77.67,6,78,5.68s3.52-3.08,3.51-3.12c.05.12-2.91,1.92-1.11.82C80.92,3,81.46,2.64,82,2.29,83.17,1.58,84.35.93,85.55.34a12.7,12.7,0,0,0,2.28-1c-.58.64-3.54,1.08-1,.42,1.21-.32,2.4-.66,3.63-.91.61-.12,1.22-.22,1.84-.32.86-.13,3.09-1,.69-.17-1.89.68-.92,0,.07,0,.63,0,1.25,0,1.87,0a41.43,41.43,0,0,1,5,.47,9.75,9.75,0,0,0,1.83.32c-.15,0-3.42-1-1.61-.29,1.15.44,2.35.73,3.5,1.18.76.3,1.5.72,2.26,1,2,.65-1.67-.66-1.47-.8s3.18,2.09,3.58,2.36a13,13,0,0,1,1.44,1.15c-.18.51-2.78-3.06-.88-.73.35.43,2.49,2.31,2.4,2.85,0,.1-1.81-3.35-.67-1,.49,1,1.08,1.93,1.56,2.94.35.75.64,1.54,1,2.29-.76-1.58-.62-2.23-.13-.16.39,1.65.78,3.28,1.06,5,.18,1.12.33,2.24.45,3.37,0-.37,0-3.13-.15-.92-.19,3.95,0,7.85-.44,11.8a8.07,8.07,0,0,0-.25,2c0-.06.72-3.66.27-1.54-.33,1.58-.63,3.17-1,4.73-.23.88-3.18,9-3,9.19-.12-.12,1.57-3.16.53-1.32-.33.59-.6,1.23-.92,1.82-.63,1.19-1.3,2.36-2,3.48-.2.31-1.52,2.1-1.49,2.2,0-.12,2.32-2.65.92-1.16-1,1.1-2,2.25-3.1,3.27-.37.34-1.82,1.33-1.93,1.66.07-.22,2.94-1.84,1.23-1-1.08.55-2.29,1.18-3.31,1.84-1.83,1.18,1.7-.59,1.58-.47a9.3,9.3,0,0,1-2.49.73c-.65.15-1.31.28-2,.39s-3.24-.11-.84.18c2.68.32-1.4-.18-2.1-.25-4.45-.45,2,.89-1.07-.07-1.25-.4-2.49-.78-3.71-1.27-.82-.32-1.62-.69-2.44-1-2.79-1.22.67.22.62.36s-7-4.65-7.45-5c-1.11-.85-2.2-1.74-3.27-2.65-.21-.18-1.57-1.12-1.59-1.38,0,.53,2.53,2.43.46.4A154.4,154.4,0,0,1,61.06,28.55c-.69-.9-3.55-5.25-1.66-2.13C58.51,25,57.65,23.49,56.88,22c-.29-.56-2.4-4.21-2.11-4.68-.06.1,1.08,3.94.36.88-.22-.92-.47-1.84-.66-2.77-.15-.69-.2-1.43-.37-2.11-.52-2.09.24,1.41.07,1.64.29-.4.1-4.24.06-5-.1-2.18,0,1.39-.34,1.43.07,0,.44-1.88.48-2s.58-2,.61-2q-1.48,3.08-.57,1.22a11.38,11.38,0,0,1,.67-1.24c.11-.19,1-1.84,1.13-1.82s-2.37,2.43-.7.92C56.37,5.65,58,3.14,59.16,3c.06,0-2.86,1.7-.87.73.63-.3,1.23-.76,1.85-1.11,1-.55,4.14-2.75,5.2-2.47,0,0-3.33,1-1.16.47.65-.16,1.29-.4,1.93-.58,1.25-.34,2.51-.63,3.78-.88,1.48-.28,3-.41,4.46-.65,2-.31-1.51.13-1.61.08a8.89,8.89,0,0,0,2.57,0,56.71,56.71,0,0,1,8.32.69c4.22.67-2-.71,1.07.17C86.15-.17,87.6.24,89,.73c2.22.76,5.55,3.21,7.74,3.27-.14,0-3-1.77-1.35-.67.54.35,1.11.65,1.66,1,1.46.91,2.89,1.88,4.27,2.91.65.49,2.31,2.36,3,2.42-.07,0-2.64-2.57-1.18-1.09.6.61,1.22,1.2,1.82,1.82,1.78,1.87,3.35,4.93,5.29,6.47-2.09-1.66-1.61-2.65-.65-.91.31.57.64,1.12,1,1.69.61,1.14,1.18,2.3,1.71,3.49.26.59.5,1.2.76,1.79,1.38,3.22-.43-.77-.4-1.21-.09,1.27.93,3.4,1.19,4.71.14.72.25,1.46.39,2.18.8,4.17-.23-.75,0-.74.1,0,.06,4.09,0,4.46,0,.72-.17,1.49-.15,2.21,0,2.37.26-1.39.3-1.26.12.35-1.16,5.6-1.54,5.65-.11,0,1.65-3,.48-1.08-.37.62-.67,1.3-1,1.93a22.86,22.86,0,0,0-1.51,2.3c-.05-.27,2.38-2.55.93-1.28-.91.8-1.86,1.73-2.71,2.6-1.35,1.38,1.13-.92,1.33-.93-.57,0-2,1.29-2.65,1.62s-1.11.55-1.66.85c-1.12.61-1.08,1.27,0,.13s1.28-.36-.09,0c-.82.21-1.61.46-2.43.66-1.23.28-2.48.46-3.73.67-.49.08-2.71.24-.11.07s-.21-.05-.76-.06a44.15,44.15,0,0,1-4.45-.31c-.63-.08-1.26-.23-1.89-.3-2.11-.23,1.6.31,1.5.36-.78.38-3.33-1-4.22-1.38-.59-.23-1.16-.49-1.75-.73-2.35-1,0,.43.51.31-.75.18-3.67-2.35-4.19-2.74s-4-3-2.1-1.54-1.31-1.34-1.82-1.89q-2-2.13-3.73-4.45c-.45-.58-2.88-4.22-1.58-2.11s-1.29-2.31-1.66-3a84.79,84.79,0,0,1-4.38-9.42c-.27-.69-.52-1.39-.79-2.08-.88-2.19.51,1.44.49,1.43-.66-.39-1.1-3.94-1.3-4.73-.88-3.54,0-.5,0,.34,0,.27-.93,3.08-.23,1.21.76-2-.68,1.1-.66,1.13-.15-.26,1.27-2.19,1.43-2.47,1.64-2.82.15-.32-.33.26.46-.55.93-1.1,1.41-1.64,1-1.11,2-2.19,3-3.25a104.2,104.2,0,0,1,7.68-7.2C81.21,1.08,82.58,0,84-1.08c-2.57,1.92,0,.12,1.12-.63a71.16,71.16,0,0,1,9-5c1.54-.71,3.78-1.94.83-.51a24.7,24.7,0,0,1,4.79-1.43c1.38-.34,2.76-.62,4.16-.84A13.21,13.21,0,0,1,106-9.79c-.15-.34-3.92,0,.09,0q2.13,0,4.23.24c.71.07,1.42.19,2.12.28,3,.37-.55.09-.5-.14,0-.07,3.44,1.12,3.74,1.23.61.24,1.21.49,1.81.76s2.85,1.76.82.35l2.35,1.64c.46.34,2.67,2.51,3.11,2.43-.1,0-2.57-2.57-1.13-1,.61.64,1.26,1.25,1.86,1.9q1.59,1.73,3,3.57c.41.53.78,1.11,1.21,1.63,1.67,2-1.79-3.09-.48-.79.68,1.18,1.4,2.33,2,3.54s1.24,2.43,1.8,3.68c.38.83.73,1.67,1.07,2.52s.84,3.42.32.76c-.55-2.88.33,1.36.52,2.12q.63,2.46,1.06,5c.29,1.63.46,3.28.7,4.91,0-.26-.14-3.34-.11-1.07,0,1.38.13,2.76.14,4.13,0,3.32-.12,6.64-.42,9.94-.18,1.94-.48,3.85-.7,5.78-.25,2.19.09-.5.15-.79-.16.82-.31,1.65-.47,2.47a181.84,181.84,0,0,1-5.94,21.81c-3.13,9.46,2.63,21.73,11.83,24.67,9.73,3.12,19.28-1.82,22.63-11.92Z" transform="translate(-5.02 49.02)"/><path class="cls-4" d="M117.18,4A60.66,60.66,0,0,0,95.37-6.11C85.36-8.57,75.1-9.81,65.65-5,47.56,4.27,43,32.12,51.62,50.63c4.29,9.17,16.22,13.69,24.46,8.69,8.56-5.19,11.93-16.16,7.33-26-1.75-3.76.35,2.79.08.51-.44-3.77-1-.29-.21.42-.43-.4.14-3.08.16-3.59.09-2.21-1.26,3.79.23-.3.37-1,.72-2.05,1-3.07-.89,2.77-.32.69.17,0,.87-1.28-2,2.34-2.74,2.74-1.91,1-2.26.92.06.21,2-.61-3.84-.37-.13.11.81.11,1.61.16,2.42.27,0,0,4.66,1.05,2.36.42s1.66.53,2.1.67,6.68,2.33,6.6,2.6c0,.1-3.24-2-.69-.32,1.06.71,2.1,1.39,3.13,2.16,7.89,5.87,20.14,3.5,24.88-5.28A21,21,0,0,0,117.18,4Z" transform="translate(-5.02 49.02)"/><path class="cls-4" d="M138.37,20.93c-10.51-13.18-30.83-28-45.64-14.81-13,11.6-8.82,35-2.63,49.87,3.89,9.38,16.49,13.52,24.46,8.69,8.88-5.39,11.51-16,7.33-26-1.72-4.15.32,2.82-.44-1.25-.11-.55-1.35-6.49-.92-3.86s0-2.44,0-3.14.07-1.63.15-2.44a13.16,13.16,0,0,1-3.24,7.2l-8.33,4.48c-2.41.69-4.14-.7-6.26-1.19,1.44.33,3.28,2.12,4.48,3.05.62.47,1.22,1,1.81,1.47-1.44-1.35-1.68-1.54-.72-.59,1.16,1.42,2.47,2.71,3.62,4.15,6.24,7.83,18.87,8.81,25.52,1.72a20.77,20.77,0,0,0,.8-27.35Z" transform="translate(-5.02 49.02)"/><path class="cls-4" d="M120.2,76.63Q124,74,121.5,75.48c-1.76.81-1.18.62,1.77-.59l-1,.23c-1.92.29-1.29.29,1.87,0a12.13,12.13,0,0,1-1.48-.07q-2.1-.24,2.18.58A13.66,13.66,0,0,1,123,75q4,2.31,1.61.74c-8.09-5.51-20-3.76-24.88,5.28-4.77,8.82-2.94,21,5.7,26.88,5.37,3.66,11.82,6.06,18.14,5.86,8.32-.26,14.74-2.88,21.34-8,3.39-2.64,5.5-8.72,5.68-13.08.2-4.79-1.61-10.74-4.88-14.27s-7.65-6.36-12.37-6.51c-5.14-.16-9.08,1.62-13.15,4.79Z" transform="translate(-5.02 49.02)"/><path class="cls-4" d="M122,100.33c-1.85,1-1.63,1,.64,0,2.49.05,2.7,0,.62-.08,6.94,1.77-6-1.12-3.77-.78a31,31,0,0,0-6.94-.11c-.51,0-8.83.49-3.94.44-1.42,0-2.85-.18-4.27-.18q-3-.48.41.25c-.92-.23-1.83-.51-2.72-.83-1.06-.38-5-1.18-1-.2-1.54-.37-3.41-2.31-4.65-3.34L77.25,127.66a93.05,93.05,0,0,0,23.09,10.45c10.54,3.24,20.65,6,30.86.69,8-4.18,11.26-14.63,8.18-23.53s-12-14.74-20.78-12.82c-2.2.48-4.45.69-6.65,1.15-2.56.54,3,.05.34,0-1,0-2,0-3,0-2.25-.06-4.43-.43-6.66-.65,1.52.15,2.17.65.28,0-1.18-.4-2.35-.76-3.51-1.24-.45-.18-3.16-1.66-1.15-.45s-.61-.5-1-.74c-.64-.45-2.57-1.53-2.85-2.2.36.87,2.07,2.23.5.22a25.6,25.6,0,0,1-1.8-2.24c.11-.13,1.83,3.5.46.52-.22-.49-1.51-4.31-.81-1.51.77,3.09-.19-1.55-.22-1.74-1.87-10-12.39-17.71-21.63-15.28-9.64,2.54-15.57,12-13.57,22.74,3.11,16.59,14.57,29.18,28.61,36.08,12.67,6.22,27.51,6.18,40.69,3.31l-12.6-36.35c1.52-.79,2.64-.31,4.05-.6,1.22.36.94.28-.85-.21l-1.53-.44c-2.56-.73-5.11-1.48-7.64-2.32-2.27-.74-4.51-1.55-6.72-2.48-1.22-.51-2.43-1-3.62-1.64,2.87,1.42-.28-.27-1.33-.94-8.22-5.25-19.9-3.94-24.88,5.28-5.16,9.55-2.41,20.13,5.7,26.89a46.83,46.83,0,0,0,29.82,10.78c3.2-.07,6.35-.55,9.53-.76-1.82.06-2.06.11-.73.16,1.17.12,1.09,0-.23-.21s-1.4-.35-.42-.12l2.93.65a29.1,29.1,0,0,0,21-3.15c8.21-4.71,12.41-16.71,7.33-26-4.92-9-15.66-13.74-24.46-8.69Z" transform="translate(-5.02 49.02)"/><path class="cls-4" d="M169.8,69c2.36-5.85,2.47-13.13,2.62-19.52.17-7-.25-14.36-2.25-21.15-2.87-9.72-11.68-17.9-21.63-15.28-9.15,2.4-16.19,12.17-13.57,22.74l4.09,16.48c2.34,9.44,10.14,16,19.22,15.44A17.94,17.94,0,0,0,174.7,50c.05-13.26-2.91-26.6-9.64-38.06-4.9-8.35-13.39-12.77-22.2-9.53C135,5.27,128.89,15,131.56,24.3c1.38,4.78,3,9.48,4.41,14.24.71,2.38,1.37,4.77,1.9,7.19.26,1.21.45,2.43.7,3.64l.26,1.84q-.21-3.32-.12-1.29c-.08,1.83-.15,3.68-.21,5.51-.09,2.43.9-3.1.11-.84-.29.85-.45,1.77-.73,2.63s-1.57,2.62-.29.92c1.43-1.89-.32.08-.6.72-.87,1.94,2.12-1.93.53-.61-.8.66-3.23,2.69.29.18-7.73,5.5-12.73,16.12-7.33,26,4.54,8.32,16.16,14.6,24.46,8.69,11.87-8.46,18.61-20.64,19.77-36.16,1-14-4.16-26.95-8-40.12l-33.5,12.38c1.17,2,2.09,4.06,3.17,6.09q1.26,3.22.13-.09c.27.82.51,1.65.72,2.48.53,2,.84,3.94,1.24,5.92.28,2.3.29,2.29,0,0,.06,1.16.07,2.31.05,3.47l35.64-2.28-4.09-16.48L135,35.77a42.39,42.39,0,0,1,1.49,7c-.53-4.28-.1,3-.12,3.81-.05,2.41-.18,4.83-.36,7.23-.06,1-.14,2-.26,3,.41-2.42.29-2.61-.38-.58-3.71,9.23,3,21.87,11.83,24.68,10.24,3.28,18.67-2.08,22.63-11.93Z" transform="translate(-5.02 49.02)"/><path class="cls-4" d="M141.61,130.42c18.84-2.4,27.46-24.44,29.95-42.14a72.88,72.88,0,0,0-9.15-46.14c-5.14-8.63-15.6-14.07-24.46-8.69-7.82,4.75-12.86,16.73-7.33,26,1.28,2.15,2.27,4.39,3.41,6.62,1.69,3.29-.5-2.29.09,0,.32,1.21.7,2.4,1,3.61s.52,2.45.72,3.68,1.21,4.49.16,0c.53,2.24.15,5.25,0,7.52,0,.45,0,2.75-.3,3,.41-2.19.48-2.6.21-1.21-.14.74-.3,1.47-.48,2.2-.53,2.21-1.35,4.29-2,6.44s1.54-2.58-.16.26c-.06.1-2.28,4-.81,1.67s-.64,1-1.31,1.15L132.74,93q3.84-1.19.8-.65c-9.36,1.2-16,13.11-13.56,22.75,2.77,10.85,11.6,16.56,21.63,15.28Z" transform="translate(-5.02 49.02)"/><path class="cls-4" d="M149.18,125.5c19.68-8.32,29-31.12,30.18-52.7,1.24-22.11-2.9-48.6-22.9-60.83-8.31-5.07-19.84-4.06-24.89,5.28-4.57,8.47-3.18,21.46,5.7,26.89a19.69,19.69,0,0,1,2.32,1.52q2,1.65.3.21t.15.38q1.91,2.55-.29-.71c.89.7,1.46,2.81,2,3.79,1.86,3.68-.64-3.8.36,1.19.35,1.77.68,3.55,1,5.32.26,2.33.3,2.41.1.24.06.91.1,1.82.13,2.73.14,3.69.15,7.4-.06,11.08-.09,1.67-.26,3.32-.42,5-.42,4.34.81-2.16-.31,1.63-.54,1.82-1.2,3.72-1.63,5.57-.53,1.41-.34,1.06.57-1.07-.4.86-.82,1.7-1.27,2.51-.56,1-1.34,3-2.25,3.57,1.39-1.68,1.64-2,.77-1-.46.53-.93,1-1.42,1.52a27.45,27.45,0,0,1-2,1.85l1.61-1.17c-.8,1.22-3.59,2-4.83,2.54-8.71,3.68-12,17.42-7.33,26,5.39,9.87,15.13,12.63,24.46,8.69Z" transform="translate(-5.02 49.02)"/><path class="cls-4" d="M130.18,21.9c1.1,2.45,2.2,4.9,3.21,7.39.14.36,1.41,3.82.71,1.74-.78-2.32.72,2.74.7,2.68.26,1.06.45,2.13.67,3.21.44,2.15,0,1.4.07-.3-.06,1.34-.13,2.76-.11,4.09,0,2.58,1-3.82-.27.68C132.51,51,137.45,63,147,66.06c9.3,3,19.79-1.63,22.63-11.92,4.76-17.3-.5-33.61-7.65-49.54C157.82-4.65,145.65-9,137.51-4.09c-8.67,5.26-11.78,16.08-7.33,26Z" transform="translate(-5.02 49.02)"/><path class="cls-4" d="M175.48,74.64c.37-18.66,2.68-39.15-2.15-57.5-4.68-17.83-16.58-34.71-34-39.59-9.19-2.58-20,1.38-22.63,11.93-2.36,9.41,2,21.92,11.83,24.67.45.13,3.49.67,3.71,1.28q-3.35-1.92-.75-.36l1.08.73c.71.51,1.4,1.06,2.06,1.63L133,16c.64,0,2.09,2.46,2.62,3,2.63,3-1.36-3,.22.39.57,1.22,1.18,2.48,1.81,3.67,1.83,3.49-.75-3.81.24.63.46,2.05,1,4.06,1.35,6.14.1.62.69,5.85.53,3.68s.1,3.13.11,3.75c.09,3.64,0,7.28,0,10.92q-.21,11.76-.46,23.5c-.2,10.11,7.35,20.46,17.25,20.78a18.16,18.16,0,0,0,18.83-17.86Z" transform="translate(-5.02 49.02)"/><path class="cls-4" d="M53.09,40.59l-1-8.1c-.14-1.17-.29-2.35-.43-3.53-.23-1.91-.2-3.42-.14-.63,0-1.12-.09-2.23-.06-3.34,0-.63.72-4.81.09-2.18-.59,2.45.31-.77.44-1.19.36-1.21.78-2.38,1.25-3.54-1.47,3.64.82-1.07,1.55-2.23s1.44-2.09,2.15-3.14c1.51-2.26-1.81,1.86.06-.05C60.56,9,64,5.25,67.62,1.72c6.92-6.67,7.76-19.84.8-27.36S50.29-34.49,42.9-27.35C33.08-17.88,24.05-7.91,18.77,5.33,13.33,19,16.11,33.65,17.9,48.06c1.25,10.11,12.82,17.59,21.62,15.28,10.16-2.67,14.92-11.91,13.57-22.75Z" transform="translate(-5.02 49.02)"/><path class="cls-4" d="M110.58-44c-12.26-8-25.1-5.16-37.39-.1A68.38,68.38,0,0,0,47.72-25.32C41.47-18,39.5-6,46.92,2c6.48,7,18.83,9.6,25.52,1.71a69.28,69.28,0,0,1,7.74-7.68c3.71-3.17-2.93,1.62,1.23-.85C83-5.71,84.5-6.67,86.11-7.5S89.36-9.07,91-9.74c-3,1.21-.15.12,1.32-.26.84-.21,3-1.15,4-.78-2.6.11-2.88.21-.86.3a8.12,8.12,0,0,1-4-1.38c8.19,5.33,19.94,3.88,24.89-5.28,4.69-8.68,3-21.19-5.7-26.89Z" transform="translate(-5.02 49.02)"/><path class="cls-5" d="M126.28,70c.16,0,.06-.24.14,0C126.34,70,126.28,70.07,126.28,70Z" transform="translate(-5.02 49.02)"/><path class="cls-5" d="M93.49,80c-.52-.71.41-1,.22-1.64,0-.06.34.2.32,0-.26-.69.43-1.25,1.12-1.49l.08.09c.13,0-.11-.37,0-.44s.07.09.17.12c-.17-.15,0-.23-.07-.37.1,0,.25.12.36.13l-.16-.2c-.37-.52.31-.35.22-.76,0,0,.06.1.12.12,0-.55.37-.93.6-1.38a.78.78,0,0,0,.26.25.39.39,0,0,1-.08-.48c.24.15,0-.34.18-.34l0,0c-.13-.28.23,0,0-.31l.2.1c-.24-.32.26,0,.19-.18l-.06,0c0-.13.17,0,.18-.12l0,0c.07-.2.29-.12.08-.34.22.13,0,.21.26.39a3.5,3.5,0,0,1,1.26-1.43.63.63,0,0,1,.27.14c0-.09.15-.19.11-.35,0,0,.12.1.16.09s-.11-.34.08-.3a.38.38,0,0,0,.13.26c-.06-.25.08-.31.14-.45a.25.25,0,0,0,.06.17c0-.3.24-.1.24-.3l.06.16c.28.07-.16-.33.05-.32,0,.07,0,.12.09.18-.06-.35.21-.41.28-.58l0,.06c.12-.13.32-.15.41-.36.1,0,.21.37.32.22-.19-.29.19-.28-.11-.56.17,0,.44-.05.47-.2,0,.15.28.33.19.42l.19.13c.06.13-.11,0,0,.15,0,0,.13-.26.21-.24,0-.24-.11-.64,0-.77,0,.16.24.31.21.39l-.08-.72s.14.24.18.12a.48.48,0,0,1,0-.23s.2-.21.38.08c.09.11-.05.12.06.2s.06-.17.16-.23l0,0c.09,0,.14-.23,0-.36s.11.17,0,.12a.31.31,0,0,1,.17-.37.6.6,0,0,0,.06.24,1.29,1.29,0,0,1,.27-.65c-.07-.15.06.31,0,.24.31.11.3-.51.62-.27,0,0-.11-.21-.09-.17s.21.2.24.09c.06.13.07-.08.12-.14s0,.05,0,.09c0-.15.36-.51.66-.41,0-.09,0-.38.08-.38l.06.21c.09.1.17-.08.24.09,0-.29-.35.36-.27.12.1.15.09-.4.16-.12.1,0,.12-.3.29-.15,0,0,0,.31.1.27s0-.11.1-.22l0-.12c-.06-.2.15,0,0-.22.08.16.19-.18.29.16l.06.27c.06,0,0-.32,0-.45a.29.29,0,0,1,.06.11c-.12-.4.17,0,.15-.35.19.1.36-.09.5.14.07-.15.13-.33.28-.28a.32.32,0,0,0,0,.16c.11.1.1,0,.16-.1s.21.19.34.31c.07-.15,0-.36,0-.5.2.38.24-.33.46,0,0,.07-.11.24,0,.32.19.38.12-.35.33-.19l-.12-.33c.12.19.19-.25.25.1,0-.13.21.07.12-.26.32.21.62-.3.89.26,0-.06.14,0,.08-.19s-.06.15-.11,0,0-.11,0-.16.17.08.14.36c.22.18.09-.59.34-.51,0,.14,0,.19.11.16l.09-.26c.16,0,.14.3.18.53.07,0,.17,0,.18-.23l.14.28c-.1-.21.05-.15.08-.21l0,.06c0,.09.11,0,.15,0a.33.33,0,0,0-.19-.23c0-.11.09-.09.13-.22,0,.23.16.15.23.16s0-.22.08-.21.12,0,.08.18-.07-.11-.1,0,.08.29.16.13-.07-.45.09-.33a1.44,1.44,0,0,0,0,.24l.15.1,0-.21a.26.26,0,0,1,0,.1c0-.22.2-.09.2-.34.07,0,.16.13.23.15v0c.09.11.19,0,.25-.12v0s.14,0,.19-.15c.12.15.1.79.2.51.11,0,.15-.4.09-.53.21.13.43-.24.63.09,0-.09,0-.14.06-.19.31.07.63-.27.88.13-.09.09,0,.21,0,.33.07-.19.09.2.11-.13s0-.28-.09-.35a.39.39,0,0,1,.55.07c0-.09,0-.14,0-.2,0,.3.12.35.22.24v-.18l.07.19c0-.06,0-.39.14-.21a.6.6,0,0,0,0,.2c.1-.15.26-.4.36-.24l.09.27s.13-.19,0-.27c.19.17.31.2.36.44a1.06,1.06,0,0,1,1.23-.46l0,.14c.09.14.08-.24.14-.13s0,.29,0,.44c.13.16.22-.21.32-.26s-.09.1,0-.13c0-.06.18.17.24-.1a1,1,0,0,1-.06.42l.1-.13c.07.34-.31.55-.25,1l.09,0c0,.29-.25.3-.06.42a1,1,0,0,0,.16-.64c.19-.06.17-.64.37-.6,0,.17-.17,0-.16.25s.21-.1.28,0c-.08-.12,0-.38.11-.42.08.14-.11.24,0,.3.05-.16.2-.25.1-.38.11-.35.14.12.26-.14,0,.26-.24.55-.1.71,0-.25.25-.3.23-.67a.52.52,0,0,1,0,.41c.07.16.29-.4.24.08l.07-.24a2.49,2.49,0,0,1,.07.29c.08,0,.32-.29.24.08,0,0,.21,0,.19-.25s-.17.16-.16-.19c0,.29.16,0,.25-.09l0,.14s.13,0,.19-.14a.24.24,0,0,0,0,.21l.09-.2c.18-.08,0,.39.12.36l-.15.14s0,.18.13.13l.23-.56c.11-.07,0,.23.12,0l-.16.22c0,.06,0,.34.11.36s.27-.31.18-.44c.06,0,.11.14,0,.28.15,0,0-.22.18-.32,0,.15.11.36.14.58l-.19.3.07,0c-.16.24,0,.21-.12.47,0,.06.12,0,.19-.08,0-.48.32-.55.39-1,.24-.05-.14,1,.25.45,0-.12.19-.39,0-.32.12.09.2-.37.31-.16-.16.13,0,.44-.23.63,0-.13-.06-.13-.09-.1s-.13.41,0,.44.2,0,.25-.2-.13,0,0-.23c.18,0,.1.32.29-.07-.11,0-.06-.24,0-.39l.15-.06-.07.14c.16.17.14-.26.31-.16v.33c-.13.24-.24-.2-.33.23.11,0,.22-.15.29,0s-.07,0-.11,0-.1.6.18.33c.12-.09.07-.14.12-.29.21,0,.32-.12.45-.1-.13.29.21.1,0,.36,0-.19-.28-.27-.44,0s-.13-.1-.29.26c.14.06,0,.41,0,.65,0,0,.11-.06.14-.08.1-.22,0-.23.12-.46.14.12.34,0,.51-.13,0,.13-.08.34-.15.34a.81.81,0,0,1,.57.25c0-.4.24,0,.28-.32a.56.56,0,0,1,.06-.54c.05,0-.07.15-.07.23.16-.15,0,.36.2.09-.22,0-.2.42-.35.68.19-.11-.08.19,0,.24a1.26,1.26,0,0,1,.56-.16c.06.33.43.21.6.27,0,.18-.19.45-.13.55s.09-.36.17-.15l0,.05c.08-.05.17.33.44-.07l-.22.3s.08,0,.12,0-.07.21-.15.26c0,.27.21.05.31.1l0-.22c.24,0,.25.2.44.22l-.1.18.15,0c-.12.16-.1.32,0,.2l-.49.31c0-.15.19-.18.25-.38s-.12-.21-.24,0c0,0,.07,0,.15,0-.12.27-.2.21-.34.36,0,0,0,.1.09,0a.23.23,0,0,1-.29,0c.12-.07,0-.18.12-.24-.13.22-.26.24-.34.12,0-.3-.31.06-.41-.08a1.62,1.62,0,0,1,.47-.41c0-.16-.1,0-.13-.2-.13.15-.29.41-.45.46l.08-.18c-.15,0-.27.3-.37.19a2.21,2.21,0,0,0-.58-.38l.06-.18c-.25.34-.37,0-.57.12-.15-.27-.55,0-.55-.35a3.14,3.14,0,0,1-1.23-.16l.15-.25c-.14.17,0-.17-.09-.15,0,.24-.19.25-.28.4-.13-.26-.43-.11-.64,0l0-.19c-.26.31-.38,0-.58-.14,0-.09,0-.27-.08-.26-.17.28-.23.24-.43.39a.77.77,0,0,1-.41-.26c-.53.34-1,0-1.47.21v-.23c-.51.41-1,0-1.46.17l.05-.38c-.12-.13-.29.08-.27.36-.12-.13-.31.18-.38-.14-.13-.07-.17.17-.27.23a.58.58,0,0,0-.59-.06l.06,0c0-.08,0-.25,0-.27s-.33-.1-.23.36c-.27-.26-.59.23-.86-.12,0,.13,0,.15-.05.24-.22,0-.48-.21-.64,0,0-.06,0-.22,0-.22s0,.16,0,.24c-.34.26-.76-.19-1.08-.07a7,7,0,0,1-1.72.43v-.09c-.12.38-.51-.26-.55.29-.06-.07-.17,0-.18-.18-.09.28-.47-.13-.6.23,0,0,0,0,0-.07-.27-.15-.38.19-.65.07a.27.27,0,0,0,0-.17c-.13-.15-.09.43-.26,0-.05,0,0,.22,0,.2-.54,0-1,.42-1.43.69-.45-.12-.28-.7-.45-.28-.05-.07,0,.17,0,.08-.06.16-.35-.39-.34-.14s0,.16.06.31c-.28-.07-.42-.28-.51,0l0-.14c0,.46-.36.35-.33.86a31,31,0,0,0-2.8,2c-1,.54-1.72,1.36-2.73,1.91-.44-.11-.45-.08-.56.23,0,0,0-.07-.08-.1.2.23-.13.16,0,.39a6.45,6.45,0,0,0-.84.89c0-.07-.14-.26-.18-.19l.09.19-.07,0a.27.27,0,0,0,.18.24c-.49,1-1.62,1.38-2.11,2.32-.25.14-.3.51-.38.77a2.39,2.39,0,0,0-1.35,1.91S93.53,80.45,93.49,80Z" transform="translate(-5.02 49.02)"/><path class="cls-5" d="M126.12,69.91c0-.15,0-.27.18-.41A2.54,2.54,0,0,1,126.12,69.91Z" transform="translate(-5.02 49.02)"/><path class="cls-5" d="M124.36,67.26s0-.07,0-.1.11-.11.11,0S124.4,67.21,124.36,67.26Z" transform="translate(-5.02 49.02)"/><path class="cls-5" d="M123.71,66.9a.34.34,0,0,1,.34-.15Z" transform="translate(-5.02 49.02)"/><path class="cls-5" d="M123.24,66.14c0-.13,0-.19.09-.16S123.28,66.08,123.24,66.14Z" transform="translate(-5.02 49.02)"/><path class="cls-5" d="M123.1,66.42c-.06,0-.06-.1-.06-.19C123,66.35,123.19,66.21,123.1,66.42Z" transform="translate(-5.02 49.02)"/><path class="cls-5" d="M121.76,65.6s-.14.09-.14-.06C121.63,65.65,121.84,65.42,121.76,65.6Z" transform="translate(-5.02 49.02)"/><path class="cls-5" d="M121,65.64s0,0-.06,0a.14.14,0,0,1,.07-.16Z" transform="translate(-5.02 49.02)"/><polygon class="cls-5" points="103.59 115.32 103.64 115.24 103.66 115.37 103.59 115.32"/><path class="cls-5" d="M103.49,68.12c0,.11-.1-.09-.12-.11S103.42,68.18,103.49,68.12Z" transform="translate(-5.02 49.02)"/><polygon class="cls-5" points="96.26 119.14 96.28 119.12 96.42 119.37 96.26 119.14"/><path class="cls-5" d="M142.43,94.82c0,.22.27,0,.07.16C142.4,94.92,142.33,94.86,142.43,94.82Z" transform="translate(-5.02 49.02)"/><path class="cls-5" d="M141.88,95.44c.15.47-.25.85-.68,1s-.86.1-1.32.25c-.11,0,.09-.38-.13-.33-.95.37-2.11-.84-2.19-1.82l.12,0c0-.15-.43-.14-.47-.34.07,0,.13,0,.21,0-.24,0-.22-.24-.41-.29.07-.07.26-.08.35-.16a1.4,1.4,0,0,1-.29-.09c-.36-.14-.36-.36-.29-.54s.23-.33.19-.6c0,0,.07.11.14.12a.85.85,0,0,1,.09-.38c.3-.56,1.14-.68,1.8-.83a.53.53,0,0,0,0,.35c0-.27.27-.35.5-.39.08.28.4-.23.65,0l0,.06c.24-.25.24.21.48-.08l.06.24c.2-.35.21.27.42.14l0-.07c.18,0,.18.18.33.2v0c.36.08.37.4.56.17-.06.25-.33-.13-.4.26a1.4,1.4,0,0,1,.88,1.33,1.73,1.73,0,0,1-.92,1.42c-.19-.07-.26,0-.33-.14-.07.1-.34.16-.41.32,0,0-.1-.15-.15-.16s-.2.32-.42.13a.25.25,0,0,0,.1-.27c-.18.19-.41.05-.61,0,.05,0,.1,0,.12-.12-.29.11-.27-.35-.46-.37l.14-.07c0-.19-.07-.17-.15-.12s-.16.14-.18-.05c.07,0,.12,0,.17-.08-.35,0-.38-.59-.42-.87a.08.08,0,0,0,.07,0c0-.28.25-.82.41-.64l.3.13a1.59,1.59,0,0,0,.27.12c-.1-.05-.1-.07,0-.06s.08-.06-.24-.21h.1s0,0,.13.07l1.09.7,0,.15,0,.08c.05.1.12.21.2.34-.17-.2-.38-.31-.46-.45,0,0,0,0,0,.07s-.07-.11-.08-.11a.93.93,0,0,1,.19.42,5.17,5.17,0,0,1,.15.53,1.67,1.67,0,0,1,.06.39.55.55,0,0,1-.08.29c0-.27-.21-.39-.16-.49a2.56,2.56,0,0,1-.16,1c-.12.06-.06-.28-.22-.13,0,.09,0,.18-.11.25s-.6,0-.56-.33c0-.15.19,0,.09-.16s-.23,0-.41-.1v0c-.09-.12-.37-.18-.35.1.07.09.06-.2.13,0-.17.1-.41-.08-.54-.31.08,0,.13,0,.21-.09a1.16,1.16,0,0,1-.73-.81c-.15.06.29,0,.23.14a3,3,0,0,0,0-.85.81.81,0,0,1,.36-.83c0,.09-.26,0-.21,0,.23-.3.43-.14.52-.35.14.09.18-.22.45-.31.08-.12.09,0-.11.11a1.32,1.32,0,0,1,1.06-.15,1.93,1.93,0,0,1,1,.57s.45.15.53.28H142c0,.11.26.34.15.38.15.1,0-.12-.19-.3s-.42-.29-.22-.21c0,.09.52.32.3.31.16.18.41.41.36.62,0-.07-.25-.19-.18,0s.09.09.19.36l.07.19c.13.06,0,.31.11.24-.08,0,0,.57-.22.39l-.15-.16c0,.14.09.35.1.53,0,0-.07,0-.09,0,.22.26-.2.3-.18.66a1.43,1.43,0,0,0-.24.16l-.09.17c0,.07-.06.12-.12.12a.45.45,0,0,1-.48,0,.76.76,0,0,1-.78.26c.06,0,.14,0,.16-.13-.18-.13-.23,0-.4,0,0,0-.07-.09-.17-.19l-.08-.07,0,0h0v.06h0l0,0a.83.83,0,0,1-.12-.16c-.26,0-.28.28-.35.4,0-.24-.22-.25-.42-.29s-.43-.11-.42-.35c.11,0,.42.06.32-.14.11-.44-.54-.06-.62-.48l-.22.28c.07-.25-.48-.34-.16-.5-.17,0-.09-.42-.38-.24a5.83,5.83,0,0,0-.21-1,.69.69,0,0,1,.28-.82c-.06-.08,0-.28-.15-.26s.12.21,0,.25-.09-.1-.14-.11c.09-.18.14-.34.4-.12.26-.33-.51-.55-.15-1.07.11.08.17.07.23-.09a2.46,2.46,0,0,1,0-.4c.28-.27.38,0,.57.17,0-.09.11-.17.15-.26a.28.28,0,0,0,0-.22,2.37,2.37,0,0,1,.36.09c-.26-.08,0-.19.07-.28l0,.09c.08.06.22-.09.3-.16-.09-.12-.31-.07-.44,0,0-.14.17-.2.24-.37.06.22.36,0,.51,0s.14-.25.2-.26.29,0,.19.16c0,0-.16-.09-.24,0,.14.06.17.26.36.07s-.11-.45.26-.33c-.09.06-.1.16-.16.24l.31.1v-.21s0,.07,0,.1c.1-.22.48,0,.59-.27.17,0,.31.22.44.28h0a.5.5,0,0,0,.57.12l0,0a.65.65,0,0,0,.47.1c.11.28-.39.7,0,.63a.42.42,0,0,0,.55-.22c.23.37.8.57.75,1.09.1,0,.13,0,.24,0,.24.57.77,1.26.4,1.86-.11-.18-.21,0-.33,0,.19.14-.19.18.13.23s.28,0,.36-.2a1.37,1.37,0,0,1-.23,1.27c.12-.09.15,0,.18.12-.28-.11-.41.15-.41.39l.15.11-.23,0c0,.11.28.29,0,.42a.35.35,0,0,0-.2,0c0,.29-.08.79-.41.87l-.34-.06c-.06.1-.14.37.07.3-.48.16-.74.29-.94.13a2.19,2.19,0,0,1-1.22,1,3.38,3.38,0,0,1-1.49.13l.08-.13c-.18-.15-.22.23-.35.11.13-.11,0-.3.21-.43-.23-.18-.52.18-.76.18-.13.15.23-.07.06.13-.08,0-.35-.24-.57,0,0-.13.18-.27.29-.35l-.27,0c0-.18.23-.24.44-.33s.42-.23.44-.42h-.17c.06-.27.56-.21.29-.36-.22.09-.63.37-.58.51-.38-.05-.61.47-1,.27,0-.17.32.12.42-.09s-.44-.06-.52-.22c.07.17-.28.28-.43.24-.08-.21.33-.1.1-.28-.18.08-.5,0-.4.19-.4.15-.17-.27-.54-.23.16-.2.75-.12.62-.41-.18.18-.58-.11-.79.2,0-.14.14-.24.34-.25,0-.19-.7-.16-.28-.41l-.27.05c.05-.09.06-.18.14-.31l0-.05c-.13-.13-.47-.34-.14-.42-.06,0-.15-.39-.36-.2s.27.21,0,.43c.22-.23-.16-.31-.29-.44l.14,0c-.08-.07-.09-.27-.25-.3a.14.14,0,0,0,.21-.07l-.23-.06c-.15-.34.37-.12.28-.44l.19.23s.16-.17.08-.32-.44-.16-.6-.21c-.08-.2.23-.08,0-.28l.23.25c.06,0,.33-.16.36-.39s-.29-.43-.45-.19c0-.13.18-.28.31-.16,0-.29-.23,0-.3-.26a8.29,8.29,0,0,1,.71-.45l.24.31.06-.15c.2.25.24,0,.48.14.07-.08,0-.2,0-.31-.58.13-.45-.5-.87-.58.13-.46,1.08.19.76-.47-.15,0-.3-.33-.36,0,.21-.2-.25-.36.13-.55,0,.29.55,0,.52.44-.1-.09-.22.09-.22.15.22,0,.36.22.54,0s.24-.28,0-.4-.17.19-.29,0c.18-.29.52-.08.3-.45-.15.16-.39,0-.52-.06,0-.09.09-.17.13-.25l.09.14c.44-.2-.13-.28.28-.51l.39.12c.11.25-.61.26-.21.52.23-.13.14-.35.45-.38a.91.91,0,0,0-.11.16c.1,0,.57.36.67-.06.09-.18,0-.15-.15-.28.37-.21.41-.39.69-.5.09.31.51-.08.35.29-.22-.16-.85,0-.79.38.36.26-.34.08-.16.43.29-.13.51.2.7.39.08,0,.08-.12.11-.17-.1-.21-.2-.17-.34-.37a1,1,0,0,0,.72-.48c.17.09.21.31.09.35a2,2,0,0,1,1.22.05c-.29-.44.44,0,.25-.36-.22-.14-.47-.43-.35-.59.16,0,0,.16.08.26.19-.18.31.39.49.1-.43,0-.08.46-.15.74.25-.09,0,.21.22.3a1.25,1.25,0,0,1,.85,0c.23.47.76.62,1,.93,0,.26-.31.4-.26.58s.19-.37.25,0l-.07,0c.12,0,.06.6.52.5l-.37.06c0,.07.09.08.14.11-.1,0-.18.14-.28.09-.19.25.14.32.19.51l.18-.16c.24.3.06.56.13.88h-.21a1.18,1.18,0,0,1,.11.19c-.19,0-.34.09-.18.21a3.09,3.09,0,0,0-.49-.47c.13-.12.26.13.46.06s.12-.37-.09-.39c0,.11,0,.11.11.19-.28,0-.29-.11-.49-.16,0,0-.06.12,0,.13-.16-.09-.17-.17-.22-.32.14.08.17-.09.26-.07-.25,0-.36-.09-.34-.27.24-.23-.28-.21-.28-.38a.7.7,0,0,1,.63,0c.05-.21-.08-.15,0-.37-.19,0-.46.19-.63.15l.14-.15c-.17,0-.35.19-.42,0a1.44,1.44,0,0,0-.57-.62l0-.25c-.17.47-.42,0-.56.26a.32.32,0,0,0-.41-.06c-.11,0-.2.07-.4-.16-.4.31-.52.65-1,.87l-.39-.33c.26.27-.31-.12-.32,0,.45.13.39.36.66.55-.52,0-.22.41.14.6l-.39-.07c.68.28,0,.32-.12.57-.17,0-.55.1-.49.17.66.06.62.13,1.07.17a.33.33,0,0,1,0,.24.85.85,0,0,1-.13.22,2.51,2.51,0,0,1,.91.08.67.67,0,0,0,.62-.06l-.15.3c.36-.3.46-.34.61-.36s.31,0,.35-.23l.14.4c.15,0,.15-.25,0-.46.14,0,0-.25.25-.08.11,0-.09-.18-.11-.27.23-.13.19-.22.15-.4l0,0c.08,0,.24,0,.27,0s.1-.33-.35-.2c.12-.12,0-.25,0-.36a.34.34,0,0,1-.08-.41c-.09.08-.15,0-.23.07-.11-.15-.1-.51-.36-.42,0-.07.17-.14.11-.2s-.09.13-.17.16-.24-.06-.32-.16-.19-.2-.29-.15l-.2.26a.69.69,0,0,0-.1.19.36.36,0,0,0,0,.11.61.61,0,0,0,0,.19h-.09c.18.06.1.13.06.23s-.05.21.21.14c-.06.06,0,.12-.14.19.26,0,0,.41.32.21,0,0,0,0,0,0,0,.24.2,0,.29.19a.6.6,0,0,0,0,.16c.08.18.11-.39.19,0,0,0,0-.23,0-.21a.29.29,0,0,0,.34-.27.45.45,0,0,0-.17-.41c0-.16.37-.13.06-.19,0,0-.08,0,0,0s0-.2-.13-.15-.07,0-.08.1-.26-.14-.35,0l0,0c0,.18-.2.35,0,.38,0,.23.28.34.32.11s-.1-.2-.09-.19,0,.08,0,.06h0c.27.48.07.13.13.24h0s0,0,0,0a.78.78,0,0,0,.3.16l.1,0h0l-.46,0h.2s.05,0,0,0l0,0-.11,0a.43.43,0,0,0,.09-.1c-.1.12-.12.12-.14.1s-.06,0-.14.11a2.11,2.11,0,0,0-1.2-.2c.08,0,.13-.28,0-.26l-.09.2,0-.09a.24.24,0,0,0-.05.3l-.12,0a0,0,0,0,0,0,0,0,0,0,0,0,0,0s0,0,0,0a.17.17,0,0,0-.22,0,.17.17,0,0,0,0,.14,1.41,1.41,0,0,0,.32.39,1.28,1.28,0,0,0,.88.53c.27.34.52.56.8.55s.55-.36.36-.38a1.33,1.33,0,0,1,.42.06C141.68,95,141.92,95.18,141.88,95.44Z" transform="translate(-5.02 49.02)"/><path class="cls-5" d="M142.46,94.59c.16,0,.28-.15.46,0A2.34,2.34,0,0,1,142.46,94.59Z" transform="translate(-5.02 49.02)"/><path class="cls-5" d="M141.14,89.92s-.08-.1-.1-.13.15-.1.21,0S141.18,89.86,141.14,89.92Z" transform="translate(-5.02 49.02)"/><path class="cls-5" d="M139.59,89.66c0-.14.29-.27.5-.28A4,4,0,0,0,139.59,89.66Z" transform="translate(-5.02 49.02)"/><path class="cls-5" d="M137.87,89.53c-.19,0-.2-.11,0-.19S137.87,89.46,137.87,89.53Z" transform="translate(-5.02 49.02)"/><path class="cls-5" d="M138,89.83a.4.4,0,0,1-.32,0C137.73,89.9,137.86,89.62,138,89.83Z" transform="translate(-5.02 49.02)"/><path class="cls-5" d="M135.35,91.81c0,.07,0,.26-.17.29C135.32,92.05,135.18,91.69,135.35,91.81Z" transform="translate(-5.02 49.02)"/><path class="cls-5" d="M135.11,93.28s0,.07,0,.13-.17,0-.17-.09Z" transform="translate(-5.02 49.02)"/><polygon class="cls-5" points="133.14 144.13 132.98 144.05 133.1 143.98 133.14 144.13"/><path class="cls-5" d="M138.57,94.83c.14.09,0,.19,0,.23C138.45,94.94,138.69,95,138.57,94.83Z" transform="translate(-5.02 49.02)"/><polygon class="cls-5" points="134.56 141.56 134.59 141.57 134.88 141.73 134.56 141.56"/><path class="cls-5" d="M100.85,108.24c0,.21.26,0,.06.16C100.82,108.34,100.75,108.27,100.85,108.24Z" transform="translate(-5.02 49.02)"/><path class="cls-5" d="M100.29,108.86c.16.47-.25.85-.67,1s-.87.1-1.33.25c-.1,0,.1-.38-.13-.33-.94.37-2.1-.84-2.19-1.82l.13,0c0-.15-.44-.13-.47-.33.07,0,.12,0,.2,0-.23,0-.21-.24-.41-.29.08-.07.27-.08.35-.16a1.61,1.61,0,0,1-.29-.09c-.36-.14-.36-.36-.29-.54s.23-.33.19-.6c.05.05.08.11.15.12a.84.84,0,0,1,.08-.38c.31-.56,1.15-.69,1.8-.83a.53.53,0,0,0,0,.35c0-.27.27-.35.49-.39.08.28.4-.23.65,0l0,.06c.25-.25.25.21.48-.09l.07.25c.2-.36.21.27.42.14l0-.07c.19,0,.18.18.34.19v0c.35.08.37.4.56.16-.07.26-.34-.12-.41.27a1.37,1.37,0,0,1,.88,1.32,1.75,1.75,0,0,1-.92,1.43c-.19-.07-.25,0-.32-.14-.07.1-.35.16-.42.32,0,0-.1-.15-.15-.17s-.2.33-.42.14a.25.25,0,0,0,.1-.27c-.18.19-.41,0-.6,0,0,0,.09,0,.12-.12-.29.11-.27-.35-.47-.37l.14-.07c0-.2-.07-.17-.14-.12s-.17.14-.18,0c.06,0,.11,0,.16-.08-.35,0-.37-.59-.41-.87a.16.16,0,0,0,.07,0c0-.28.25-.82.41-.64a2.38,2.38,0,0,1,.29.13,1.39,1.39,0,0,0,.28.12c-.11-.06-.1-.07,0-.06s.08-.06-.24-.21h.1s0,0,.12.07l1.09.7,0,.15,0,.08c.06.09.12.21.21.34-.17-.21-.38-.31-.47-.46l0,.08c-.05,0-.07-.11-.09-.11a.93.93,0,0,1,.19.42,4.63,4.63,0,0,1,.16.53,2.3,2.3,0,0,1,0,.39.65.65,0,0,1-.07.29c0-.27-.21-.39-.17-.49a2.33,2.33,0,0,1-.15,1c-.12.07-.06-.27-.22-.12,0,.09-.06.18-.12.25s-.59,0-.56-.33c0-.15.2,0,.1-.16s-.24,0-.42-.11v0c-.08-.12-.37-.18-.35.1.07.09.06-.2.14,0-.17.11-.41-.07-.54-.3.08,0,.13,0,.2-.09-.33-.07-.56-.39-.73-.81-.15.06.3,0,.23.14a3.09,3.09,0,0,0,0-.86.78.78,0,0,1,.36-.82c0,.09-.26,0-.21,0,.22-.3.43-.15.52-.35.13.09.18-.23.44-.31.09-.13.09,0-.1.11a1.28,1.28,0,0,1,1-.15,1.9,1.9,0,0,1,1,.57s.46.15.53.28h-.16c0,.11.27.34.16.37.14.11,0-.11-.2-.29s-.41-.3-.22-.21c0,.09.53.32.31.31.15.18.41.41.35.62,0-.07-.24-.19-.17,0s.09.09.19.36l.06.19c.14.06,0,.31.12.24-.08,0,0,.57-.23.39l-.14-.16c0,.14.08.35.1.53,0,0-.07,0-.1,0,.22.26-.19.3-.18.66a1.06,1.06,0,0,0-.23.16l-.09.17c0,.07-.06.12-.12.12s-.38.08-.49,0a.75.75,0,0,1-.78.26c.07,0,.15,0,.16-.13-.18-.13-.22,0-.4,0,0,0-.06-.09-.16-.19l-.08-.07,0,0h0l0,.06h0l0,0A1.53,1.53,0,0,1,98,109c-.26,0-.27.28-.34.4,0-.24-.22-.25-.43-.29s-.42-.11-.41-.35c.11,0,.41.06.31-.14.12-.44-.54-.06-.61-.48l-.22.28c.06-.25-.48-.34-.16-.5-.18,0-.1-.42-.38-.24a6.2,6.2,0,0,0-.22-1,.69.69,0,0,1,.28-.81c0-.08,0-.28-.15-.26s.12.21,0,.25-.1-.1-.14-.11c.09-.18.14-.34.39-.12.27-.33-.5-.55-.15-1.07.12.08.18.07.23-.09a2.6,2.6,0,0,1,0-.4c.27-.28.37,0,.56.17,0-.09.11-.17.15-.26a.3.3,0,0,0,0-.23l.35.1c-.25-.08,0-.2.07-.28l0,.09c.09.06.22-.09.3-.16-.08-.12-.31-.07-.43,0,0-.14.17-.19.23-.36.07.22.36,0,.52,0s.14-.25.19-.26.3,0,.19.15-.16-.08-.23,0c.14.06.16.26.35.08s-.11-.45.26-.33c-.09.06-.1.15-.15.24l.31.1v-.21s0,.07,0,.09c.09-.21.47,0,.58-.26.17,0,.31.21.45.28h0a.5.5,0,0,0,.57.12l0,0a.66.66,0,0,0,.47.1c.11.28-.38.7,0,.63a.41.41,0,0,0,.54-.23c.24.38.81.58.76,1.1.1,0,.13,0,.23,0,.25.57.78,1.26.4,1.86-.1-.19-.2,0-.33,0,.19.14-.19.18.13.23s.29,0,.36-.2a1.34,1.34,0,0,1-.22,1.27c.12-.09.15,0,.17.12-.27-.11-.41.15-.41.39l.16.11-.24,0c0,.11.29.29,0,.42a.39.39,0,0,0-.2,0c0,.29-.09.79-.42.87l-.33-.06c-.07.1-.14.37.07.3-.48.16-.74.29-1,.13a2.16,2.16,0,0,1-1.21,1,3.55,3.55,0,0,1-1.49.13l.08-.14c-.18-.14-.23.24-.35.12.13-.11,0-.3.2-.43-.22-.18-.51.18-.76.17-.13.16.23-.06.07.14s-.36-.24-.58,0c0-.12.19-.26.29-.35l-.26,0c0-.18.22-.25.43-.34s.42-.22.44-.41h-.17c.06-.27.56-.21.29-.36-.22.09-.63.36-.57.51-.38-.05-.62.47-1,.27,0-.17.33.12.42-.09s-.44-.07-.52-.22c.08.17-.27.28-.43.23-.07-.2.33-.09.1-.28-.17.09-.5,0-.4.2-.4.15-.17-.27-.53-.23.15-.21.74-.12.62-.41-.19.18-.59-.11-.79.2,0-.15.14-.24.34-.25,0-.19-.7-.16-.28-.41l-.27,0a1.48,1.48,0,0,1,.14-.3l0-.05c-.14-.13-.48-.34-.14-.42-.07,0-.16-.39-.37-.2s.27.21,0,.43c.21-.23-.16-.31-.29-.44l.14,0c-.08-.07-.09-.27-.25-.3a.15.15,0,0,0,.21-.07l-.24-.06c-.15-.34.37-.12.29-.44l.19.23s.15-.17.08-.32a5.11,5.11,0,0,1-.6-.22c-.08-.19.23-.08,0-.27l.22.25c.07,0,.34-.16.37-.39s-.3-.43-.45-.19c0-.13.18-.28.3-.17,0-.28-.22,0-.29-.25a7.94,7.94,0,0,1,.7-.45c.08.11.17.21.25.3l.06-.14c.19.25.23,0,.47.14.08-.08,0-.2,0-.31-.57.13-.45-.5-.87-.58.14-.47,1.08.19.76-.47-.14,0-.29-.33-.36,0,.21-.21-.24-.36.14-.55,0,.29.54,0,.52.44-.11-.09-.22.09-.23.15.22,0,.36.22.54,0s.24-.27,0-.39-.17.19-.29,0c.19-.3.53-.09.31-.45-.16.15-.4,0-.53-.07,0-.08.09-.16.14-.24l.08.14c.44-.2-.12-.28.28-.51.14,0,.27.07.4.12.1.25-.61.25-.21.52.23-.13.14-.35.44-.39,0,.06-.08.1-.1.16s.57.37.66,0c.09-.18,0-.15-.15-.28.37-.22.42-.4.69-.5.09.3.52-.08.35.29-.22-.16-.85.05-.79.38.37.26-.33.07-.15.43.28-.13.5.2.69.39.08,0,.09-.12.11-.17-.1-.21-.19-.17-.34-.37a.92.92,0,0,0,.72-.49c.17.1.21.32.09.36a2,2,0,0,1,1.23.05c-.3-.44.43,0,.24-.36-.22-.14-.47-.44-.35-.6.16,0,0,.17.09.27.18-.18.3.39.48.1-.42,0-.07.46-.15.74.25-.1,0,.21.23.3a1.25,1.25,0,0,1,.85,0c.22.48.75.63,1,.93,0,.27-.3.41-.25.59s.19-.37.24,0h-.07c.13,0,.06.61.52.51l-.36.06c0,.06.08.08.14.11-.11,0-.19.14-.29.09-.18.25.15.32.19.51l.19-.16c.23.3,0,.56.12.88h-.21a.76.76,0,0,1,.12.19c-.2-.06-.34.09-.18.21a3.09,3.09,0,0,0-.49-.47c.12-.12.25.12.46,0s.11-.36-.1-.38c0,.11,0,.11.12.18-.29.05-.29-.1-.49-.15,0,0-.07.12,0,.13a.4.4,0,0,1-.22-.32c.13.08.17-.09.26-.07-.26,0-.36-.09-.35-.27.24-.23-.28-.21-.28-.38a.7.7,0,0,1,.63,0c.06-.21-.07-.15,0-.37-.19,0-.46.19-.63.15l.14-.15c-.16-.06-.35.19-.41,0a1.46,1.46,0,0,0-.58-.62l0-.25c-.17.47-.41,0-.55.25a.35.35,0,0,0-.41-.06c-.12,0-.21.08-.4-.15-.41.31-.52.64-1,.87l-.39-.33c.26.27-.3-.12-.31,0,.44.13.39.36.66.54-.52,0-.23.42.13.61l-.39-.07c.68.27,0,.32-.12.57-.16,0-.54.1-.49.17.66.06.63.12,1.07.17a.38.38,0,0,1,0,.24.85.85,0,0,1-.13.22,2.35,2.35,0,0,1,.91.08.65.65,0,0,0,.61-.06l-.14.3c.35-.31.46-.34.61-.36a.34.34,0,0,0,.35-.23l.13.4c.15,0,.15-.25,0-.46.13,0,0-.25.25-.09.1,0-.1-.17-.12-.26.23-.13.19-.22.15-.4,0,0,0,0,0,0s.25,0,.28,0,.09-.33-.36-.2c.12-.12,0-.25,0-.36a.36.36,0,0,1-.09-.42c-.09.09-.15,0-.23.08-.1-.15-.09-.51-.35-.42,0-.07.17-.14.11-.21s-.1.14-.18.17-.23-.06-.31-.16-.2-.2-.29-.15l-.2.26a1.18,1.18,0,0,0-.11.19s0,.06,0,.11a1.21,1.21,0,0,0,0,.19h-.09c.18.06.1.13.06.23s0,.21.22.13c-.06.07,0,.13-.14.2.25-.05,0,.41.31.21,0,0,0,0,0,0,0,.24.2,0,.29.19a.6.6,0,0,0,0,.16c.08.18.11-.39.19,0,0,0,0-.22,0-.2a.3.3,0,0,0,.35-.27.46.46,0,0,0-.18-.42c0-.15.38-.12.06-.18,0,0-.07,0,0,0s0-.2-.13-.15-.06,0-.08.1-.26-.14-.34,0l0,0c0,.17-.2.35,0,.38,0,.23.28.34.31.11s-.1-.21-.08-.19,0,.08,0,.06a0,0,0,0,1,0,0h0l.13.24h0l0,0a.71.71,0,0,0,.3.16.24.24,0,0,0,.1,0h0l-.46,0h.12l.09,0s0,0,0,0l0,0-.1,0a.7.7,0,0,0,.08-.1c-.1.12-.12.11-.13.1s-.07,0-.14.11a2,2,0,0,0-1.2-.2c.07,0,.12-.28,0-.26l-.1.2,0-.09a.25.25,0,0,0,0,.3l-.12,0s0,0,0,0a0,0,0,0,0,0,0s0,0,0,0a.16.16,0,0,0-.22,0,.22.22,0,0,0,0,.14,2.28,2.28,0,0,0,1.19.92c.28.34.53.56.81.55s.54-.36.35-.38a1.4,1.4,0,0,1,.43.06A.5.5,0,0,1,100.29,108.86Z" transform="translate(-5.02 49.02)"/><path class="cls-5" d="M100.88,108c.16,0,.27-.15.45,0A2.24,2.24,0,0,1,100.88,108Z" transform="translate(-5.02 49.02)"/><path class="cls-5" d="M99.56,103.33s-.08-.09-.1-.12.15-.1.2,0S99.59,103.28,99.56,103.33Z" transform="translate(-5.02 49.02)"/><path class="cls-5" d="M98,103.08c0-.15.29-.27.5-.28A3.41,3.41,0,0,0,98,103.08Z" transform="translate(-5.02 49.02)"/><path class="cls-5" d="M96.29,102.94q-.3-.06,0-.18C96.32,102.82,96.28,102.87,96.29,102.94Z" transform="translate(-5.02 49.02)"/><path class="cls-5" d="M96.38,103.25a.4.4,0,0,1-.32,0C96.14,103.32,96.27,103,96.38,103.25Z" transform="translate(-5.02 49.02)"/><path class="cls-5" d="M93.76,105.23c0,.07,0,.26-.16.28C93.74,105.47,93.59,105.11,93.76,105.23Z" transform="translate(-5.02 49.02)"/><path class="cls-5" d="M93.52,106.7s0,.07,0,.12-.16,0-.17-.09Z" transform="translate(-5.02 49.02)"/><polygon class="cls-5" points="91.56 157.54 91.4 157.47 91.52 157.4 91.56 157.54"/><path class="cls-5" d="M97,108.25c.15.08,0,.19,0,.23C96.86,108.36,97.1,108.41,97,108.25Z" transform="translate(-5.02 49.02)"/><polygon class="cls-5" points="92.98 154.98 93 154.98 93.3 155.15 92.98 154.98"/><path class="cls-5" d="M116,97.57c0,.17.25,0,.09.12C116,97.65,115.88,97.61,116,97.57Z" transform="translate(-5.02 49.02)"/><path class="cls-5" d="M116.53,96.22c-.89,0-.7-1-1.4-1.18-.07,0,.33-.22.16-.28-.78-.13-1-1-1.05-1.83l.11,0c0-.15-.4-.06-.44-.2s.11,0,.18-.11c-.2.1-.23-.14-.4-.09,0-.1.19-.2.23-.31l-.25.09c-.62.17-.28-.45-.7-.51,0,0,.11,0,.14-.08-.57-.17-.86-.69-1.28-1a.94.94,0,0,0,.29-.2.44.44,0,0,1-.51,0c.19-.22-.34-.06-.32-.28l.06,0c-.3.06,0-.25-.31-.13l.13-.19c-.35.18.06-.26-.16-.23l-.06,0c-.13,0,0-.17-.11-.21l0,0c-.2-.11-.1-.34-.34-.16.15-.2.21.1.43-.19a5,5,0,0,1-1.43-1.54c.06-.14.06-.2.14-.28-.09,0-.2-.18-.36-.14,0,0,.1-.13.09-.17s-.35.09-.32-.1a.43.43,0,0,0,.27-.13c-.26,0-.32-.11-.46-.17a.43.43,0,0,0,.17-.07c-.31,0-.12-.25-.33-.26l.17-.07c0-.29-.33.17-.34-.06.07,0,.12,0,.18-.08-.36,0-.46-.28-.65-.41a.11.11,0,0,0,.07,0c-.14-.18-.14-.38-.35-.59.06-.08.44,0,.33-.19-.38,0-.2-.36-.59-.26,0-.21.23-.48.17-.63.1.12.44,0,.42.2l.27,0c.15.07-.08.07.12.11,0-.06-.06-.27,0-.29-.17-.2-.43-.51-.28-.7,0,.15.36.19.36.28a2.77,2.77,0,0,1-.26-.64c.06-.07.22.18.25,0a.34.34,0,0,1-.07-.22c.05,0,.29-.26.5,0,.11.1-.07.12.07.18s.07-.17.21-.23l0,0c.11,0,.18-.24,0-.38s.11.18,0,.13a.36.36,0,0,1,.21-.39.59.59,0,0,0,0,.25,1.42,1.42,0,0,1,.34-.66c-.06-.15.05.31,0,.24.32.11.37-.5.69-.27,0,0-.1-.21-.08-.17s.2.2.25.08c0,.13.07-.07.14-.14s0,0,0,.09c.06-.15.43-.52.75-.41,0-.09,0-.38.11-.39l0,.21c.09.11.19-.08.26.09,0-.29-.41.38-.31.13.1.15.13-.41.18-.12.12-.05.16-.31.33-.16,0,0,0,.32.09.27s0-.11.13-.22l.06-.12c-.06-.2.16,0,0-.22.07.16.21-.18.3.16l0,.27c.07,0,0-.31.06-.45a.27.27,0,0,1,.06.12c-.11-.41.19,0,.18-.36.2.1.4-.1.54.14.09-.16.16-.34.32-.28a.19.19,0,0,0,0,.15c.12.1.11,0,.18-.1,0,.07.23.2.36.32.08-.15,0-.36,0-.5.2.38.28-.34.5,0,0,.06-.13.24,0,.32.2.38.16-.35.37-.19l-.11-.33c.12.19.22-.25.27.1,0-.14.24.07.15-.26.29.22,1.06-.36,1.21.23.07-.08.19,0,.2-.2s-.16.15-.17,0,.08-.11.1-.16.2.09,0,.39c.19.19.42-.61.76-.5-.07.14-.06.2,0,.18a2.73,2.73,0,0,1,.3-.21c.19.09,0,.31-.15.53a.59.59,0,0,0,.39-.12l0,.29c0-.21.16-.09.25-.11l-.09,0c0,.09.11.09.18.11a.26.26,0,0,0,0-.31c.12-.06.18,0,.33,0-.17.16,0,.24.1.33s.23-.06.24,0,.1.16-.08.21,0-.15-.08-.12-.18.25,0,.26.33-.33.33,0c-.08,0-.15,0-.24.06a1.93,1.93,0,0,1,0,.24l.18-.12c0,.05-.06.05-.08.08.22-.09.16.23.39.13.05.09-.07.29-.08.39h0c-.1.17,0,.28.14.33h0a.28.28,0,0,0,.15.27c-.16.22-.8.28-.55.39,0,.14.37.18.52.09-.18.33.1.74-.27,1,.08.06.14,0,.18.11-.13.3.15.7-.29.89-.08-.1-.21,0-.33,0,.17.1-.21.06.11.13s.28,0,.37,0c.07.2,0,.48-.16.56a.17.17,0,0,1,.2.06c-.3-.06-.37.07-.28.19l.19,0-.2,0s.37.1.18.17h-.19c.13.13.36.32.19.41l-.28.06s.17.16.26.08c-.19.18-.23.31-.47.34a1.2,1.2,0,0,1,.37,1.32l-.14,0c-.14.09.23.09.13.15s-.3,0-.45-.07c-.16.14.21.24.26.35s-.1-.1.12-.05c.06,0-.17.19.1.26a1.23,1.23,0,0,1-.42-.07l.12.11c-.33.07-.53-.35-.94-.28l0,.09c-.29,0-.29-.27-.41-.07.12.11.5.25.63.18,0,.21.64.19.59.4-.17,0,0-.18-.25-.17s.09.22,0,.3c.11-.09.38,0,.42.11-.15.08-.25-.11-.3,0,.15,0,.25.2.38.1.34.1-.13.14.14.26-.26,0-.56-.24-.71-.09.25,0,.3.26.67.22a.5.5,0,0,1-.41,0c-.16.07.41.29-.07.25l.24.07c-.09,0-.15,0-.29.08s.29.31-.08.25c0,0,0,.22.26.18s-.17-.16.19-.18c-.3,0,0,.18.1.26h-.15s0,.14.16.19a.22.22,0,0,0-.22,0l.22.08c.08.17-.4,0-.36.15l-.15-.15s-.18.06-.12.14l.58.2c.07.1-.23,0,0,.13l-.22-.15c-.07,0-.35,0-.36.15s.33.25.46.14c0,.06-.14.13-.28.06,0,.15.22,0,.33.15-.14,0-.36.15-.56.21l-.32-.17v.08c-.26-.14-.22,0-.49-.07-.05,0,0,.13.1.19.47-.1.59.27,1,.29.08.24-1,0-.41.32.11,0,.41.13.31,0-.06.13.4.16.21.29-.15-.14-.44.08-.66-.14.14,0,.12-.08.08-.11s-.41-.07-.43.07,0,.21.23.23,0-.14.23-.05c.06.18-.31.16.1.29,0-.11.23-.1.4-.08l.08.14-.16,0c-.14.18.28.1.21.29l-.33,0c-.26-.09.16-.27-.28-.3,0,.13.18.2,0,.31a1.05,1.05,0,0,0-.07-.11s-.61,0-.29.24c.11.11.15,0,.31.07,0,.22.18.3.18.44-.31-.07-.06.23-.37,0,.2,0,.23-.35-.07-.46s.08-.16-.3-.26c0,.17-.4.11-.65.1,0,0,.08.1.11.13.23.06.23,0,.47,0-.09.17,0,.37.22.5-.12,0-.35,0-.36-.08a1.08,1.08,0,0,1-.13.66c.4-.08.06.24.38.19a.56.56,0,0,1,.54-.07c0,.07-.16,0-.25,0,.19.12-.35.1,0,.23-.09-.22-.45-.1-.73-.18.14.16-.21,0-.23.1a1.4,1.4,0,0,1,.28.54c-.3.16-.07.5-.09.69s-.48,0-.55,0,.37,0,.19.12l-.06,0c.06.07-.28.3.19.42l-.35-.11s0,.07.08.1c-.12,0-.23,0-.3,0-.26.07,0,.23,0,.35l.22,0c.14.22-.09.33,0,.54l-.2,0,.1.14c-.19-.06-.34,0-.18.11l-.46-.37c.13-.07.23.12.45.1s.15-.21,0-.27,0,.08.08.14c-.3,0-.27-.12-.46-.2,0,0-.08.08,0,.1a.27.27,0,0,1-.14-.29c.1.1.19,0,.27,0-.26,0-.32-.18-.23-.31.31-.07-.14-.31,0-.47a1.38,1.38,0,0,1,.53.35c.15-.09,0-.12.16-.21-.19-.08-.48-.16-.57-.32l.19,0c-.08-.14-.36-.18-.29-.33a3.05,3.05,0,0,0,.23-.76l.19,0c-.39-.18-.09-.42-.25-.6.22-.24-.1-.61.25-.7a3.1,3.1,0,0,1,0-1.42l.27.12c-.19-.11.16,0,.13-.12-.23.06-.26-.17-.42-.25.24-.19,0-.5-.12-.73l.19,0c-.33-.24,0-.43.11-.67.09,0,.27,0,.26-.11-.29-.18-.26-.25-.42-.47a1,1,0,0,1,.27-.49c-.35-.6,0-1.1-.18-1.7h.23c-.4-.61.13-1.21,0-1.71l.37.1c.14-.13,0-.34-.32-.35.13-.12-.14-.38.19-.43.09-.14-.15-.21-.18-.34A.77.77,0,0,0,117,84l0,.07c.08,0,.24.07.28,0s.15-.37-.32-.33c.31-.25-.11-.76.28-.93a1,1,0,0,1-.23,0s.28-.15.06-.15c.07,0,.22,0,.24-.08s-.17,0-.24,0-.06,0,0-.15.18-.25.11-.27l-.59.11v-.1c0,.19,0,.1-.09,0s-.21-.08-.21.19c-.07-.07-.2,0-.2-.18-.11.28-.51-.13-.68.23,0,0,0,0,.05-.06-.28-.15-.43.18-.72.06a.32.32,0,0,0,0-.17c-.15-.15-.14.43-.3,0-.06,0,0,.22,0,.2a3.49,3.49,0,0,0-1.63.71c-.48-.11-.27-.7-.48-.28,0-.07,0,.17,0,.08-.08.16-.36-.4-.37-.15s0,.17,0,.33c-.3-.08-.44-.29-.56,0l0-.14c-.08.46-.42.37-.42.88a9.32,9.32,0,0,0-.84.46.25.25,0,0,0-.06.17.2.2,0,0,0,.15.17s0,0,0,0h0l.06.09.6.8a10.17,10.17,0,0,1,1.07,1.7c-.12.48-.1.5.23.69-.06,0-.08,0-.12.07.27-.17.17.18.43,0a14,14,0,0,0,.89,1.18c-.08,0-.3.07-.23.14l.22,0-.06.07a.25.25,0,0,0,.28-.12c1,.9,1.22,2.3,2,3.29.07.32.42.6.66.83a4.09,4.09,0,0,0,1.28,2.57S116.92,96.44,116.53,96.22Z" transform="translate(-5.02 49.02)"/><path class="cls-5" d="M116,97.37c.16,0,.26-.11.45,0A2.22,2.22,0,0,1,116,97.37Z" transform="translate(-5.02 49.02)"/><path class="cls-5" d="M118,94.61s.06,0,.09,0,.13.09.05.11S118,94.64,118,94.61Z" transform="translate(-5.02 49.02)"/><path class="cls-5" d="M118.18,93.86a.36.36,0,0,1,.22.31Z" transform="translate(-5.02 49.02)"/><path class="cls-5" d="M118.84,93.23c.13,0,.19,0,.17.06A.39.39,0,0,1,118.84,93.23Z" transform="translate(-5.02 49.02)"/><path class="cls-5" d="M118.54,93.13s.09-.07.17-.09C118.59,93,118.76,93.19,118.54,93.13Z" transform="translate(-5.02 49.02)"/><path class="cls-5" d="M119.16,91.65s-.11-.14,0-.15C119.09,91.52,119.35,91.7,119.16,91.65Z" transform="translate(-5.02 49.02)"/><path class="cls-5" d="M119.05,90.9s0,0,0-.06a.13.13,0,0,1,.17.06Z" transform="translate(-5.02 49.02)"/><polygon class="cls-5" points="110.21 128.9 110.28 128.81 110.3 128.95 110.21 128.9"/><path class="cls-5" d="M109.54,81.72c0,.11-.11-.09-.13-.11S109.46,81.78,109.54,81.72Z" transform="translate(-5.02 49.02)"/><polygon class="cls-5" points="102.72 133.81 102.72 133.78 103 133.79 102.72 133.81"/></g></svg>