<svg id="Layer_15" data-name="Layer 15" xmlns="http://www.w3.org/2000/svg" xmlns:xlink="http://www.w3.org/1999/xlink" viewBox="0 0 264.32 243.53"><defs><style>.cls-1{fill:none;}.cls-2{fill:#d1d1d1;}.cls-3{clip-path:url(#clip-path);}.cls-4{fill:#46b9cc;}.cls-5{fill:#202020;}</style><clipPath id="clip-path" transform="translate(-6.29 -7.06)"><circle class="cls-1" cx="127.12" cy="128.83" r="121.77"/></clipPath></defs><circle class="cls-2" cx="121.77" cy="121.77" r="121.77"/><g class="cls-3"><path class="cls-4" d="M230.94,237.08c19.53-20.34,40.37-43.88,39.66-71.71-.24-9.37-3-18.46-6.08-27.29C255,110.79,239.8,82.25,212.38,72.45c-31-11.08-68,8.23-82.8,37.79s-10.19,65.67,5.15,94.48c11.33,21.28,31.09,40.91,55.53,41.2,26.47.31,48.66-22.73,57-47.74a97.58,97.58,0,0,0-3.44-70c-4.83-10.74-11.94-20.84-22.09-26.92s-23.7-7.5-34.1-1.51c-11.07,6.38-16.51,19.79-16.55,32.39s4.42,24.68,9,36.38c3.53,9,7.79,18.73,16.45,23.2,14.24,7.36,32.85-4.76,37.37-20.19s-1.11-31.79-8.35-46c-4.58-9-16-18.65-23.28-11.44-2.48,2.45-3.22,6.08-3.67,9.49a106.84,106.84,0,0,0,4.31,47.27c1.37,4.18,3.13,8.45,6.54,11.23,5,4,12.4,3.91,18.48,1.56,12.56-4.84,20.71-17.85,22.42-31s-2.11-26.44-7.73-38.4c-7.53-16-18.72-30.79-34.16-39.6S172.9,63.74,157,72.13c-20.08,10.55-29.19,34.14-33.35,56.18-4.71,25-3.87,54.08,15,71,20.31,18.2,52.05,14.27,78.93,7.58" transform="translate(-6.29 -7.06)"/></g><path class="cls-5" d="M149.26,131.19c-.22.05-.06,0,0,.07Z" transform="translate(-6.29 -7.06)"/><path class="cls-5" d="M149.23,131.26l0,0S149.24,131.27,149.23,131.26Z" transform="translate(-6.29 -7.06)"/><path class="cls-5" d="M149.18,131.62c-.18,0,0-.18-.25-.14S148.9,131.68,149.18,131.62Z" transform="translate(-6.29 -7.06)"/><polygon class="cls-5" points="143.02 124.4 142.88 124.43 143.11 124.43 143.02 124.4"/><polygon class="cls-5" points="143.13 124.31 143.08 124.34 143.25 124.4 143.13 124.31"/><path class="cls-5" d="M149.15,131.89l-.06-.06c.17-.12.27,0,.39-.1s-.41.07-.38-.06c-.18.06.05.18-.23.23C148.8,132,149,131.87,149.15,131.89Z" transform="translate(-6.29 -7.06)"/><path class="cls-5" d="M149.75,137h0S149.78,137,149.75,137Z" transform="translate(-6.29 -7.06)"/><path class="cls-5" d="M149,138.39h-.09l.08,0Z" transform="translate(-6.29 -7.06)"/><path class="cls-5" d="M149.68,135.94l.09,0S149.7,135.91,149.68,135.94Z" transform="translate(-6.29 -7.06)"/><path class="cls-5" d="M142.54,139l0-.08h0l0,.07Z" transform="translate(-6.29 -7.06)"/><path class="cls-5" d="M148,140a.18.18,0,0,0-.05.07S148,140,148,140Z" transform="translate(-6.29 -7.06)"/><path class="cls-5" d="M149.85,135.45v0h0Z" transform="translate(-6.29 -7.06)"/><path class="cls-5" d="M149.65,138.23a.08.08,0,0,0-.06,0Z" transform="translate(-6.29 -7.06)"/><path class="cls-5" d="M149,133s0,0,0,0S149,133,149,133Z" transform="translate(-6.29 -7.06)"/><path class="cls-5" d="M149,133.43Z" transform="translate(-6.29 -7.06)"/><path class="cls-5" d="M148.92,133.7h0S148.89,133.69,148.92,133.7Z" transform="translate(-6.29 -7.06)"/><path class="cls-5" d="M149,133.07c-.11,0-.48,0-.08.09H149c-.09,0,.06.07.07.1h.1a.23.23,0,0,1,.05-.07C149.26,133.13,149.07,133.1,149,133.07Z" transform="translate(-6.29 -7.06)"/><path class="cls-5" d="M149.69,137c.07,0,.06,0,0,0Z" transform="translate(-6.29 -7.06)"/><path class="cls-5" d="M149.64,136.42l0,0S149.65,136.44,149.64,136.42Z" transform="translate(-6.29 -7.06)"/><path class="cls-5" d="M150.34,134.86h0Z" transform="translate(-6.29 -7.06)"/><path class="cls-5" d="M149.59,136.49a.08.08,0,0,1,0,0S149.58,136.46,149.59,136.49Z" transform="translate(-6.29 -7.06)"/><path class="cls-5" d="M150,135.29h0Z" transform="translate(-6.29 -7.06)"/><path class="cls-5" d="M139.43,134.48s-.05.06-.07.1c.27-.08,0-.1.21-.14,0,0,0,0-.1,0l-.21.14C139.37,134.56,139.33,134.5,139.43,134.48Z" transform="translate(-6.29 -7.06)"/><path class="cls-5" d="M142.4,138.38v0c0-.11,0-.14,0-.21a4.27,4.27,0,0,1-.28.57s0,0,.05,0A1.11,1.11,0,0,1,142.4,138.38Z" transform="translate(-6.29 -7.06)"/><path class="cls-5" d="M142.21,138.79h0v.07s0,0,0,0Z" transform="translate(-6.29 -7.06)"/><path class="cls-5" d="M139.75,135.26v0S139.77,135.25,139.75,135.26Z" transform="translate(-6.29 -7.06)"/><path class="cls-5" d="M146.14,137.34l0-.08A.09.09,0,0,0,146.14,137.34Z" transform="translate(-6.29 -7.06)"/><path class="cls-5" d="M142.91,138.79a.06.06,0,0,0,0,.05h0Z" transform="translate(-6.29 -7.06)"/><path class="cls-5" d="M139.56,139.85c.19-.22,0,0,0-.17l-.14.08C139.45,139.83,139.52,139.83,139.56,139.85Z" transform="translate(-6.29 -7.06)"/><polygon class="cls-5" points="133.19 127.35 133.17 127.36 133.18 127.36 133.19 127.35"/><path class="cls-5" d="M138.22,138.76v0A.09.09,0,0,0,138.22,138.76Z" transform="translate(-6.29 -7.06)"/><path class="cls-5" d="M142.41,139l.16.07,0-.08C142.47,139.11,142.49,138.84,142.41,139Z" transform="translate(-6.29 -7.06)"/><path class="cls-5" d="M140.29,140.52l-.07.16c.39-.22.4.38.79,0,0,.68.38-.43.41.17l0-.09a3.23,3.23,0,0,0,2.62.59v.12a6.4,6.4,0,0,0,3.77-1.3c0-.16-.18-.34-.18-.5s.12-.09.21,0,.1.2.11.26c.11-.09.35-.08.34-.3l-.21-.09c0-.09.08-.1.12-.12s.24.21.24.27c-.11-.54.3,0,.35-.27a3.68,3.68,0,0,1-.4-1.1h.14c-.08.09.23.21.11.3.17,0,.12-.21.25-.26-.09-.05-.19-.14-.19-.21s.25.12.32.06l0,.15c.16.06,0-.11,0-.17.15.1.25,0,.39.15-.11-.23,0-.18,0-.37-.22,0-.16-.16-.28-.24l0,.15c.21-.08,0,.07.22.24-.16,0-.3-.4-.36-.25,0-.23.12-.18,0-.47,0,.12-.14-.13-.24-.13.06-.12.1,0,.28.1,0-.07.18,0,0-.18.14,0,.17.14.31.15.14.16-.4.16.15.5,0,.06.11.27,0,.35.12,0,.38,0,.32-.18l-.29-.21c0-.08-.16-.23-.1-.26s.23.12.24,0-.06,0-.11,0-.15-.27-.14-.42a1.54,1.54,0,0,1-.43,0c-.2-.16,0-.08,0-.14s0,0,.08,0l-.07-.12c.17-.06.3.21.47.18s0-.16.09-.15l-.06,0,0,0h0c0-.08.06-.14-.1-.25.08,0,0-.07,0-.12s-.21-.26.09-.17h0a.22.22,0,0,1,.28,0l.13-.11.22.12c0-.15-.14-.2-.34-.39.17,0,.13-.24.06-.33s0,0,0-.05l-.11,0c0-.09-.08-.13-.06-.19s0,0,0,0l0,0s0,0,0,0H150c.29,0-.09-.17,0-.22s0,0,0,0,.43,0,.24-.08c0,0,0,0-.06-.06l.05,0-.05,0c-.06-.05-.14-.09-.09-.08l.08-.11s0-.05,0-.09h.11s.06,0,.08,0c.4-.08-.12-.29.22-.4-.16-.07-.25,0-.34,0a1.66,1.66,0,0,1-.31-.23c.24,0,.49-.24.83-.16,0-.14-.22,0-.33-.07h0a.67.67,0,0,1-.31.07c-.18,0-.21-.14-.15-.17l.25.06c-.07-.14-.47-.16-.73-.26.11-.08.35,0,.58,0l-.06-.11.2,0c-.05-.08-.23-.1-.15-.19.19.08.2-.14.44,0,.07-.05-.31-.08,0-.1-.21,0-.11,0-.18.07-.31,0-.13-.12-.22-.18.16,0,.19,0,.29,0-.12,0-.21-.07-.07-.11-.2,0,0-.09,0-.13a.4.4,0,0,1-.35.09c-.08,0-.12-.06-.1-.15l-.09.06c-.29-.05.2-.12.11-.21.12,0,.12,0,.26.08a2.68,2.68,0,0,1-.33-.18l.28-.11c-.15,0,0-.1-.2-.07.12-.12.25,0,.4,0s-.35-.07-.07-.24l.19,0s-.11-.12,0-.14c-.07,0,0,0,0,.06-.4,0-.31-.15-.71-.07v.06c-.1-.07-.38-.07-.24-.16s.27,0,.38,0-.45,0-.43-.07a.41.41,0,0,1-.3.07c0,.06-.08.17.08.12l0,0a.39.39,0,0,1,.2,0c0,.07-.17.06-.25.09s.4-.06.41.05l-.08,0c.12,0,.14.11.39.1-.25.08.13.11,0,.19-.57.06,0-.2-.31-.22-.11.07-.28,0-.42,0l.28.14c-.08,0-.36.1-.14.11h0c.07.06.3,0,.23.09h-.19c-.05.06.14,0,.19.07s-.24,0-.3,0c.23.05-.05.1,0,.15.32,0,.46.22.74.09l.23.15c-.17,0-.47-.11-.74-.06V133c-.41,0,.28.23-.19.29,0,0,0,0-.17.14h.36a.76.76,0,0,1-.35.05.07.07,0,0,1,0,.09.27.27,0,0,1-.12-.05c-.2,0-.13,0,0,.07s.07.06.07.09l-.14,0a.31.31,0,0,0,.14.06,0,0,0,0,0,0,0,1.3,1.3,0,0,0,.37,0c-.15.11-.09.23-.41.29-.1,0-.22-.09-.24-.08s.11.13.27.15v0c-.09,0-.19,0-.21,0a.11.11,0,0,0-.08,0c.28.08.12.15.25.2a.08.08,0,0,0,0-.08c.18.08.39.17.23.17s-.31,0-.36-.12c-.38,0,.25.1.1.16l-.16,0c-.2-.06-.08-.11-.16-.12l0,0c-.14-.08,0-.2-.23-.33l-.15.14c.19.27-.15.45.22.77h0l.13,0h-.06l.14.09c-.21,0-.27,0-.44,0a.79.79,0,0,1,.28.06c.2.09.28.13.18.16s-.12-.09-.25-.09c.08,0,.17.07.17.1s-.14,0-.28,0,0,0,.05,0-.15,0-.25-.09l0,.08c-.13,0-.17-.1-.25-.12.06.13.33.32.38.46l-.28-.14c-.12,0,.25.3.23.4-.08-.06,0-.07-.06-.12a1.14,1.14,0,0,1-.76.39l.25.25-.22-.09c-.34.06-.26.36-.36.6,0,.07-.2-.13-.3-.17s.12.39,0,.56c0-.1-.23-.33-.29-.3s.16.2.09.18l-.06-.09c-.13-.09-.06,0-.16,0s0,.36.09.74c-.13,0-.21-.31-.27-.35.14.05,0-.08-.05-.19,0,.1,0,.18-.15,0,0,0-.07.06,0,.23,0-.09.08,0,.12.11s-.15.11-.31-.15a2.48,2.48,0,0,1-.79.41c0,.16.06,0,.07.15s-.09-.08-.09.1l0-.17c-.09,0-.08.35-.13.51,0-.19-.12-.13-.07-.26,0,0-.31-.77-.29-.6l.25.76c0,.08-.06,0,0,.09-.08-.14-.16-.31-.19-.3-.05-.19,0-.17,0-.17-.08-.33-.15-.18-.18-.49-.05.07,0,.16,0,.29l-.07-.05.06.1c0,.11,0,.36-.1.2v.32c-.05-.26-.06,0-.1-.1v-.17s-.07,0-.1-.12c0-.24,0,0,0-.17l-.05-.07a.91.91,0,0,0,0,.35c0,.28,0,.52-.16.51-.07-.25.05-.24,0-.49-.11-.08-.14.68-.23.64s-.11.13-.22.13c.05-.17-.06-.19-.06-.35l.06-.18c0,.05-.06,0,0-.14,0,.24-.15.21-.24.3l0,.2c-.07.05-.18.16-.23.09s-.13.22-.27.42a2.06,2.06,0,0,1,.14-.61c0,.11,0,.06.08.13.17-.14.33-.54.41-.42.12-.47-.08,0-.1-.14,0,0,0,0,0,0v0a.57.57,0,0,0,.17-.36c-.06,0-.13.47-.16.25-.09.12-.05-.26-.07-.3-.07.17-.17.55-.25.45L143,138c-.1,0-.15.38-.25.33s-.12.24-.05.28-.17.12-.2,0a.67.67,0,0,0-.07.18c0,.2.17-.14.14.14l.13-.26a.72.72,0,0,1-.09.45s0,0,0,0c-.11.43,0-.17-.17.18l.06,0c-.06.29-.2.2-.26.16a.6.6,0,0,1,0-.42l.12-.05c0-.18-.15.05-.2,0s0-.05,0-.07l0,.06s0,0,0-.09-.16.06-.18,0l-.07.18.05-.1s.06.15,0,.27,0-.26,0-.42.09,0,.18,0c.08-.27-.09-.06-.1-.28.16-.26.1.06.23-.2-.05-.07-.15.11-.2,0s.15-.1.22-.27v-.1c.12,0,.14-.36.25-.39s-.15.2-.12,0c0,.13-.1.37-.21.46l0-.12c0-.15.2-.26.22-.4l-.1.07a1.22,1.22,0,0,1-.11.24c0-.11-.22.29-.33.39s-.06-.06,0-.16c-.23.2-.34.11-.57.27a.63.63,0,0,0,.21-.41c.09,0,.24-.24.33-.4a.88.88,0,0,0-.27.34c0-.15-.15.14-.1-.07s.17-.22.22-.32-.21.28-.25.17,0,0,.06-.08-.12,0-.22.12c.18-.33-.14-.06.08-.35-.15,0-.1.18-.2.26s-.13-.06-.11-.13.11,0,.1,0l.13-.22c0-.23-.43.39-.41.13.15-.06.15-.13.29-.25-.06,0-.1-.09-.17.1a.3.3,0,0,1,0-.16,1.18,1.18,0,0,0-.32.16c0-.07,0-.25.1-.35-.25,0-.14-.3-.39-.29v0c-.06-.13-.21.28-.3.17.24-.2.1-.21.2-.35s-.37-.07-.31-.33c.05,0,.12-.08.14-.06,0-.16-.09-.19-.14-.29l0,0c.11-.28-.23-.21-.39-.33.05,0,.15-.07.19-.08s0-.25-.3-.16c.21-.24-.12,0,.07-.27,0,0,0,0,.07,0s0-.13,0-.21c-.23,0-.61.12-.58-.09.38-.19.14,0,.45-.1-.09,0-.18,0-.11-.06a1.86,1.86,0,0,0,.25-.1c.08-.07-.47.07-.43.05s-.11.07-.08.09c-.26.08-.09-.14-.22-.17s0,.14-.24.19c.05-.15-.35,0-.53,0,.13-.17.36-.06.62-.19a1.28,1.28,0,0,1,.43-.19c0-.1-.24-.07-.33-.12l.08,0c-.08-.08-.46-.09-.32-.23l-.08.08s0-.07-.22,0c.14,0,.24-.14.35-.15-.44.08-.33-.17-.76-.13a1.31,1.31,0,0,1,.38-.09c0,.08-.09.13.09.12,0-.06.08-.13.18-.14-.29,0-.41-.11-.7-.09a1,1,0,0,1,.43-.16c-.18-.16-.69.23-.73,0,.21-.14.32,0,.37-.1l0,0c.58-.19-.43,0-.43-.13.32-.06.24.05.46-.06-.1-.08-.57-.08-.48-.2h.14c0-.07,0-.2,0-.27s.05,0,.07,0c.11-.13-.17-.05.05-.15l-.16,0c-.11.05-.26.16-.07.22-.19-.06-.41.12-.69.11H137a1.12,1.12,0,0,0-.63.79c.36.1-.08.31.18.44.37-.07.08,0,.2.13-.07-.06-.29.07-.32.13a.35.35,0,0,1,.19.06c-.12.06-.35.34-.09.33-.09.13-.12,0-.2,0s.17,0,.05.1h-.06c.06.13,0,.25,0,.41.35-.12.18.09.33.1-.12,0-.09.13-.14.2l.28,0c.25,0-.11.16.05.21l0-.05c.13,0,0,.28-.13.44a.64.64,0,0,1,.51.74c0,.32,0,.7.27.94.12,0,.13-.14.29-.21s.07.06.12.11c0-.11,0,0,0-.08l-.14,0,.07-.06c-.05,0-.13,0-.14,0s.35-.16.31,0a.08.08,0,0,1-.08,0c0,.07.13,0,.11.08s0,0,0,.11v.25c.32-.12.16.16.16.21-.21.14-.15-.05-.38.06l-.09.17.16-.12,0,.12,0,0c.06,0,.13-.08.1,0s0,.07-.07.07l.13,0c-.18.1,0,.1-.18.24.08.28.45,0,.37.42.05-.1.32-.21.34-.13a.25.25,0,0,1-.13.16l.15,0c-.17.34.07.25.11.46l-.07.07c.13-.05.24-.07.28,0l-.15.14c0,.19.36-.27.37-.09.15-.17.16-.31.29-.48-.13.2,0,.31,0,.16.16,0,.07.06,0,.11l.14-.06c.06.06-.16.24-.27.32.22-.13.18,0,.23.14l-.09.06.08.11c.16-.09.26,0,.3.09l-.23.21c0,.16.09-.07.14-.1s.08.13.05.3C140.16,140,139.91,140.81,140.29,140.52Zm9.91-5.66h0C150.11,134.82,150.07,134.79,150.2,134.86Zm-.38.87c-.07-.14.05-.06.13,0-.12.08,0,.17-.18.22a.76.76,0,0,1,.18.06s-.1,0-.24,0S150,135.75,149.82,135.73Zm-.95-2.18h.06Zm.2.49a.24.24,0,0,0-.13,0C149,134.05,149.08,134.05,149.07,134Zm-.57.79c-.12,0-.1,0-.09.08S148.48,134.88,148.5,134.83Zm-3.73,3.88a.36.36,0,0,0,0-.26c0,.11-.08-.06-.06.1h0A.78.78,0,0,0,144.77,138.71Zm-2.84.77a2.08,2.08,0,0,0,.14-.32h0l0-.09s0-.07,0,0C141.89,139.4,141.81,139.44,141.93,139.48Z" transform="translate(-6.29 -7.06)"/><path class="cls-5" d="M143.23,138.17h0Z" transform="translate(-6.29 -7.06)"/><path class="cls-5" d="M142.05,139a.2.2,0,0,0,0,.12A.12.12,0,0,0,142.05,139Z" transform="translate(-6.29 -7.06)"/><path class="cls-5" d="M150.11,131.86l0,0,.11-.09a.89.89,0,0,0-.52,0c.2.06.12.13.19.24Z" transform="translate(-6.29 -7.06)"/><path class="cls-5" d="M148.82,132.16l-.19.07h.12Z" transform="translate(-6.29 -7.06)"/><path class="cls-5" d="M148.33,133.16l.11-.07C148.33,133.07,148.15,133.15,148.33,133.16Z" transform="translate(-6.29 -7.06)"/><path class="cls-5" d="M150.4,132.73l-.13,0c-.11.06-.09.12.06.13C150.24,132.75,150.4,132.79,150.4,132.73Z" transform="translate(-6.29 -7.06)"/><path class="cls-5" d="M148.29,133.36c.24,0-.11.07.12.1C148.34,133.43,148.53,133.38,148.29,133.36Z" transform="translate(-6.29 -7.06)"/><path class="cls-5" d="M150.55,133.42c.23,0,0-.09.09-.16S150.39,133.39,150.55,133.42Z" transform="translate(-6.29 -7.06)"/><path class="cls-5" d="M148.92,133.85c-.16,0-.15-.06-.1-.09s.13,0,.15.06-.09-.09-.17-.15a.72.72,0,0,1-.42.07A1.45,1.45,0,0,0,148.92,133.85Z" transform="translate(-6.29 -7.06)"/><path class="cls-5" d="M150.57,133.59c.07-.05.22-.08.22-.15s-.3,0-.27.1l-.2,0C150.17,133.56,150.58,133.49,150.57,133.59Z" transform="translate(-6.29 -7.06)"/><path class="cls-5" d="M148.43,134h.09c-.14-.09-.05-.15-.29-.21C148.23,133.85,148.32,134,148.43,134Z" transform="translate(-6.29 -7.06)"/><path class="cls-5" d="M150.18,133.83l.27,0c.05-.08-.09,0-.15,0s.07-.05,0-.07S150.09,133.74,150.18,133.83Z" transform="translate(-6.29 -7.06)"/><path class="cls-5" d="M150.45,134.12l.1.11.31,0C150.78,134.06,150.69,134.17,150.45,134.12Z" transform="translate(-6.29 -7.06)"/><path class="cls-5" d="M150.24,134.21h-.05l.37.22A1.13,1.13,0,0,0,150.24,134.21Z" transform="translate(-6.29 -7.06)"/><path class="cls-5" d="M148.09,135.21c.1.06.26,0,.13,0S148,135.21,148.09,135.21Z" transform="translate(-6.29 -7.06)"/><path class="cls-5" d="M150.26,135.74c-.1,0,0,.2.06.29C150.29,135.94,150.42,135.78,150.26,135.74Z" transform="translate(-6.29 -7.06)"/><path class="cls-5" d="M150.34,136.07l0,0Z" transform="translate(-6.29 -7.06)"/><path class="cls-5" d="M149.38,138.77s0,0,0,0Z" transform="translate(-6.29 -7.06)"/><path class="cls-5" d="M149.37,138.67c.06,0,.06-.13,0-.22a.81.81,0,0,0,0,.32S149.48,138.76,149.37,138.67Z" transform="translate(-6.29 -7.06)"/><path class="cls-5" d="M148.87,139.12c0-.08,0-.09-.06-.16S148.79,139.07,148.87,139.12Z" transform="translate(-6.29 -7.06)"/><path class="cls-5" d="M144.24,137.87c-.05-.05-.05,0,0,.16C144.26,138,144.22,137.93,144.24,137.87Z" transform="translate(-6.29 -7.06)"/><polygon class="cls-5" points="137.89 131 137.87 130.92 137.84 130.79 137.89 131"/><path class="cls-5" d="M144,137.83a.17.17,0,0,1,0-.07A.09.09,0,0,0,144,137.83Z" transform="translate(-6.29 -7.06)"/><path class="cls-5" d="M144,137.75h0Z" transform="translate(-6.29 -7.06)"/><path class="cls-5" d="M144,137.8v-.09a.08.08,0,0,1,0,0S144,137.75,144,137.8Z" transform="translate(-6.29 -7.06)"/><path class="cls-5" d="M143.89,137.81l.05.26c0-.13-.05-.13,0-.41Z" transform="translate(-6.29 -7.06)"/><path class="cls-5" d="M143.75,137.89c0-.09-.1.32-.11,0-.13.16,0,.52-.16.63.13.17.11-.59.22-.41C143.65,137.91,143.74,138,143.75,137.89Z" transform="translate(-6.29 -7.06)"/><path class="cls-5" d="M143.77,138.41c0-.15-.05-.17-.07-.07S143.74,138.58,143.77,138.41Z" transform="translate(-6.29 -7.06)"/><polygon class="cls-5" points="137.23 130.95 137.21 130.83 137.19 130.93 137.23 130.95"/><path class="cls-5" d="M143.4,137.94l.06-.17C143.44,137.84,143.39,137.82,143.4,137.94Z" transform="translate(-6.29 -7.06)"/><path class="cls-5" d="M143.26,137.68c0-.07-.13.33,0,.26v0C143.22,137.86,143.21,137.71,143.26,137.68Z" transform="translate(-6.29 -7.06)"/><path class="cls-5" d="M142.64,138.18s.06,0,.09-.1l-.1,0Z" transform="translate(-6.29 -7.06)"/><path class="cls-5" d="M142.32,139.15c-.06.25.08,0,.12.11C142.38,139.19,142.4,139.16,142.32,139.15Z" transform="translate(-6.29 -7.06)"/><path class="cls-5" d="M142.68,137.82c0-.09.06,0,.07,0C142.79,137.68,142.73,137.7,142.68,137.82Z" transform="translate(-6.29 -7.06)"/><path class="cls-5" d="M142.54,137.86c0-.1.06-.13.07-.2s-.05-.12-.13,0a2.81,2.81,0,0,1-.2.49c.12-.05.33-.48.23-.13l.22-.39C142.7,137.54,142.58,137.9,142.54,137.86Z" transform="translate(-6.29 -7.06)"/><path class="cls-5" d="M142.41,138.71v-.16a.25.25,0,0,1-.13.18C142.19,139,142.38,138.72,142.41,138.71Z" transform="translate(-6.29 -7.06)"/><polygon class="cls-5" points="135.75 130.78 135.63 130.8 135.65 130.83 135.75 130.78"/><polygon class="cls-5" points="135.75 130.66 135.79 130.58 135.64 130.7 135.75 130.66"/><polygon class="cls-5" points="135.71 130.52 135.72 130.54 135.8 130.49 135.71 130.52"/><path class="cls-5" d="M141.87,137.43l-.05.13s0,.14.09,0C141.86,137.58,141.83,137.53,141.87,137.43Z" transform="translate(-6.29 -7.06)"/><path class="cls-5" d="M139.2,139.79a.51.51,0,0,0,.15-.21l-.17.16S139.23,139.74,139.2,139.79Z" transform="translate(-6.29 -7.06)"/><path class="cls-5" d="M139.3,139.38l-.26.14c.08.11.22,0,.33,0s-.15,0-.15-.08Z" transform="translate(-6.29 -7.06)"/><path class="cls-5" d="M138,137.75c.14-.1.11-.1.24-.11-.15,0-.17-.11-.26-.19-.08.09-.28.13-.21.14l.16,0-.11.06C137.73,137.84,138,137.62,138,137.75Z" transform="translate(-6.29 -7.06)"/><path class="cls-5" d="M137.59,132.61a.93.93,0,0,0,.23,0C137.72,132.52,137.61,132.62,137.59,132.61Z" transform="translate(-6.29 -7.06)"/><path class="cls-5" d="M188.81,130.25c-.22,0-.07,0-.05.05Z" transform="translate(-6.29 -7.06)"/><path class="cls-5" d="M188.76,130.3l0,0S188.77,130.31,188.76,130.3Z" transform="translate(-6.29 -7.06)"/><path class="cls-5" d="M188.6,130.63c-.17-.08.07-.17-.19-.22S188.31,130.6,188.6,130.63Z" transform="translate(-6.29 -7.06)"/><polygon class="cls-5" points="182.48 123.46 182.33 123.44 182.55 123.52 182.48 123.46"/><polygon class="cls-5" points="182.61 123.41 182.56 123.42 182.7 123.53 182.61 123.41"/><path class="cls-5" d="M188.48,130.88l0-.08c.2-.06.26.07.39,0s-.4-.06-.34-.17c-.18,0,0,.18-.29.15C188.12,130.89,188.38,130.82,188.48,130.88Z" transform="translate(-6.29 -7.06)"/><path class="cls-5" d="M188.43,136h0S188.45,136,188.43,136Z" transform="translate(-6.29 -7.06)"/><path class="cls-5" d="M187.76,137.37h-.08a.11.11,0,0,0,.07,0Z" transform="translate(-6.29 -7.06)"/><path class="cls-5" d="M188.37,135h.09S188.39,135,188.37,135Z" transform="translate(-6.29 -7.06)"/><path class="cls-5" d="M181.39,138.08l0-.08h0l0,.07Z" transform="translate(-6.29 -7.06)"/><path class="cls-5" d="M186.84,139a.16.16,0,0,0,0,.07S186.85,139,186.84,139Z" transform="translate(-6.29 -7.06)"/><path class="cls-5" d="M188.56,134.52v0l0,0Z" transform="translate(-6.29 -7.06)"/><path class="cls-5" d="M188.38,137.2s-.06,0-.07,0A.08.08,0,0,0,188.38,137.2Z" transform="translate(-6.29 -7.06)"/><path class="cls-5" d="M188,132s0,0,0,.06S188.07,132,188,132Z" transform="translate(-6.29 -7.06)"/><path class="cls-5" d="M187.93,132.4Z" transform="translate(-6.29 -7.06)"/><path class="cls-5" d="M187.83,132.66h0Z" transform="translate(-6.29 -7.06)"/><path class="cls-5" d="M188,132c-.12,0-.48-.06-.1.08H188c-.1,0,.05.08.06.12h.09l.06-.06C188.27,132.15,188.09,132.08,188,132Z" transform="translate(-6.29 -7.06)"/><path class="cls-5" d="M188.37,136c.07,0,0,0,0,0Z" transform="translate(-6.29 -7.06)"/><path class="cls-5" d="M188.32,135.45l0,0S188.33,135.47,188.32,135.45Z" transform="translate(-6.29 -7.06)"/><path class="cls-5" d="M189.09,134h0S189.1,134,189.09,134Z" transform="translate(-6.29 -7.06)"/><path class="cls-5" d="M188.27,135.51l0,0S188.25,135.49,188.27,135.51Z" transform="translate(-6.29 -7.06)"/><path class="cls-5" d="M188.7,134.37h0Z" transform="translate(-6.29 -7.06)"/><path class="cls-5" d="M178.34,133.58s-.05.07-.07.1c.26-.07,0-.09.21-.13,0,0,0,0-.09,0l-.22.14C178.28,133.67,178.24,133.6,178.34,133.58Z" transform="translate(-6.29 -7.06)"/><path class="cls-5" d="M181.26,137.48v0a.36.36,0,0,0,0-.21,4.87,4.87,0,0,1-.28.56s0,0,0,0A1,1,0,0,1,181.26,137.48Z" transform="translate(-6.29 -7.06)"/><path class="cls-5" d="M181.06,137.89h0l0,.06s0,0,0,0A.2.2,0,0,0,181.06,137.89Z" transform="translate(-6.29 -7.06)"/><path class="cls-5" d="M178.64,134.35v0S178.67,134.34,178.64,134.35Z" transform="translate(-6.29 -7.06)"/><path class="cls-5" d="M184.83,136.46l0-.08S184.82,136.43,184.83,136.46Z" transform="translate(-6.29 -7.06)"/><path class="cls-5" d="M181.76,137.91l0,0h0Z" transform="translate(-6.29 -7.06)"/><path class="cls-5" d="M178.42,138.92c.19-.21,0,0,0-.17l-.14.09C178.31,138.91,178.38,138.9,178.42,138.92Z" transform="translate(-6.29 -7.06)"/><polygon class="cls-5" points="172.11 126.45 172.09 126.47 172.09 126.47 172.11 126.45"/><path class="cls-5" d="M177.08,137.83v0A.06.06,0,0,0,177.08,137.83Z" transform="translate(-6.29 -7.06)"/><path class="cls-5" d="M181.26,138.09l.16.07,0-.08C181.32,138.21,181.34,137.94,181.26,138.09Z" transform="translate(-6.29 -7.06)"/><path class="cls-5" d="M179.14,139.59l-.07.16c.38-.21.36.4.77,0,0,.68.39-.42.4.18l0-.08a6.8,6.8,0,0,0,1.21.59,2.25,2.25,0,0,0,1.38.05v.12a5.79,5.79,0,0,0,1.1,0,8.83,8.83,0,0,0,1-.33l.91-.49.83-.56c0-.16-.2-.33-.22-.5,0,0,.1-.09.2,0s.11.19.13.26c.1-.11.35-.1.32-.32l-.21-.08c0-.09.08-.1.12-.12s.25.19.25.25c-.13-.52.29,0,.32-.29a3.1,3.1,0,0,1-.45-1.06h.14c-.08.08.23.19.11.29.18,0,.12-.22.24-.27-.1,0-.2-.13-.21-.2s.25.1.32,0l.05.15c.16.05,0-.12,0-.17s.25,0,.39.14c-.12-.23,0-.18,0-.36-.22,0-.17-.16-.29-.23l0,.15c.21-.09,0,.07.24.23-.17,0-.32-.39-.37-.24,0-.23.12-.18,0-.47,0,.12-.15-.12-.25-.12.06-.12.1,0,.28.1,0-.07.19,0,0-.18.14,0,.18.14.31.15s-.39.15.16.48c0,.06.13.27.06.34.11,0,.37,0,.3-.17l-.3-.21c0-.07-.16-.22-.1-.25s.22.12.23.05,0,0-.1,0-.17-.26-.15-.41a1.24,1.24,0,0,1-.43,0c-.2-.16,0-.07,0-.14s0,0,.07,0l-.07-.12c.17,0,.31.21.47.18s0-.15.09-.14l-.06,0,0,0h0c0-.07.06-.13-.1-.24.08,0,0-.07,0-.12s-.21-.26.09-.17h0a.21.21,0,0,1,.27,0l.14-.1.21.13c0-.15-.13-.2-.32-.39.17,0,.13-.22.07-.32s0,0,0,0h-.11c.05-.08-.08-.12,0-.18s0,0,0,0,0,0,0,0,0,0,0,0l.08,0c.28,0-.09-.17,0-.21s0,0,0,0,.44,0,.25-.05c0,0,0,0,0-.06l0,0,0,0c-.06,0-.13-.1-.08-.08l.08-.1s0-.05,0-.09l.1,0s.06,0,.09,0c.38,0-.1-.29.25-.35-.15-.08-.25,0-.34-.07s-.19-.19-.27-.26c.26,0,.51-.15.83,0,.07-.13-.21,0-.31-.12h0a.68.68,0,0,1-.31,0c-.17,0-.2-.17-.14-.19l.25.1c0-.15-.44-.23-.68-.37.13-.07.35.05.58.09l0-.12.19.05c0-.07-.2-.13-.1-.2.16.11.21-.1.43,0,.08,0-.29-.14,0-.1-.2-.09-.11,0-.18,0-.3-.05-.12-.15-.18-.22.15,0,.17.08.28,0-.11,0-.19-.11,0-.12-.19,0,0-.09,0-.13a.4.4,0,0,1-.37,0c-.07,0-.1-.08-.06-.16l-.1,0c-.27-.12.23-.08.16-.19a1.67,1.67,0,0,0,.24.15,2.26,2.26,0,0,1-.29-.26l.3,0c-.14,0,0-.09-.17-.12.14-.08.22.11.36.15.15-.12-.31-.15,0-.24l.17.07s-.07-.14,0-.13c-.07,0,0,0,0,0-.39-.08-.25-.23-.66-.25l0,.05c-.07-.09-.34-.18-.18-.23a.66.66,0,0,1,.37.1c0-.08-.44-.1-.39-.19a.51.51,0,0,1-.32,0s-.12.14.05.14l0,0a.73.73,0,0,1,.2.07c0,.07-.19,0-.27,0s.4.05.38.16h-.08c.09.06.1.15.35.2-.27,0,.08.14-.08.18-.57-.08.06-.19-.24-.3-.13,0-.27-.07-.4-.11l.23.21c-.08,0-.38,0-.17.08h0c.06.08.3.1.21.15a.78.78,0,0,1-.18,0c-.07,0,.12.07.16.12s-.23-.07-.3,0c.21.11-.07.1-.07.15.33,0,.4.32.7.25l.19.19c-.17,0-.43-.19-.71-.21l0-.11c-.41-.06.21.29-.25.26,0,.05,0,.05-.19.11l.36.07a1.05,1.05,0,0,1-.36,0s0,.06,0,.09a.35.35,0,0,1-.11-.07c-.21,0-.13,0,0,.06s.06.08,0,.11l-.12-.07a.29.29,0,0,0,.12.09.06.06,0,0,0,0,0,1.53,1.53,0,0,0,.38,0c-.17.09-.13.22-.44.24-.1,0-.22-.12-.23-.11s.09.15.24.19,0,0,0,0-.18,0-.21,0a.08.08,0,0,0-.08,0c.27.11.1.16.21.23a.08.08,0,0,0,.05-.08c.17.1.36.22.2.2s-.31,0-.34-.16c-.38,0,.23.13.07.17h-.15c-.2-.08-.07-.13-.15-.14v.05c-.13-.09,0-.21-.18-.37l-.17.14c.17.31-.21.47.13.84h0l.12.06h-.05l.13.1a1.26,1.26,0,0,0-.44,0,.61.61,0,0,1,.28.07c.19.1.27.14.17.17s-.12-.1-.25-.1c.08,0,.17.07.17.11s-.15,0-.29,0,0,0,.06,0-.16,0-.25-.09v.08c-.13,0-.16-.11-.24-.14,0,.15.32.35.36.5-.07,0-.37-.2-.28-.16-.13,0,.24.33.22.42s0-.07-.06-.12a1.32,1.32,0,0,1-.77.42l.25.24-.23-.07c-.33.08-.27.37-.34.63,0,.07-.22-.12-.32-.16s.13.38.08.56c-.06-.09-.26-.32-.31-.28s.17.19.1.18l-.06-.09c-.14-.08-.06.05-.16.06s0,.35.13.72c-.12.06-.23-.29-.3-.33.15,0,0-.09-.06-.19,0,.1,0,.19-.14,0,0,.05-.06.06,0,.23,0-.08.08,0,.12.11-.09,0-.14.11-.31-.15a1.7,1.7,0,0,1-.34.26,2.19,2.19,0,0,0-.38.17c0,.17,0,0,.07.16s-.09-.08-.08.09l0-.16c-.08,0-.06.31-.1.49,0-.19-.11-.14-.08-.26,0,0-.29-.77-.27-.6l.24.76c0,.08,0,.05,0,.1-.07-.14-.15-.31-.17-.3-.06-.2,0-.17,0-.18-.07-.32-.13-.17-.17-.49,0,.07.05.17,0,.3l-.06-.07.06.11c0,.1,0,.35-.08.17l0,.34c0-.27-.06-.05-.1-.1v-.17s-.06,0-.09-.13,0,.06,0-.17l0-.07a1.24,1.24,0,0,0,0,.36c0,.28,0,.54-.17.5-.06-.26.06-.22,0-.48s-.16.66-.25.62-.1.13-.22.14c.05-.17-.06-.19,0-.36l.06-.17s-.05,0,0-.15c0,.24-.17.19-.26.29l0,.2c-.07,0-.18.16-.24.09s-.14.22-.28.41a2.29,2.29,0,0,1,.15-.6c0,.1.06.06.08.13.17-.14.35-.54.43-.42.14-.47-.08,0-.1-.14s0,0,0,0h0a.65.65,0,0,0,.18-.36c-.06,0-.14.47-.17.25-.09.12,0-.26-.06-.3-.08.17-.19.54-.26.44l.12-.25c-.1,0-.17.37-.27.32s-.12.24-.05.27c-.08.13-.17.13-.21,0a1.36,1.36,0,0,0-.07.18c0,.2.17-.14.14.14l.14-.27a.71.71,0,0,1-.1.45s0,0,0,0c-.12.42,0-.18-.18.17h.06c-.06.28-.19.2-.25.16a.55.55,0,0,1,0-.42l.12-.06c0-.17-.15.06-.2,0s0,0,0-.07l0,.05s0,0,0-.09-.16.06-.18,0l-.07.17.05-.09s.06.15,0,.27,0-.27,0-.42.09,0,.17,0c.09-.27-.08-.07-.09-.28.16-.27.1.05.24-.2-.05-.08-.16.11-.21,0s.15-.11.23-.28V137c.11,0,.14-.36.26-.39s-.16.21-.13,0c0,.12-.11.37-.22.45l0-.11c0-.14.21-.27.23-.4l-.11.07a.83.83,0,0,1-.11.24c0-.11-.22.28-.33.38s-.06-.06,0-.17c-.22.19-.34.11-.57.28a.63.63,0,0,0,.21-.41c.08,0,.24-.24.33-.39s-.23.23-.27.33c0-.15-.15.13-.1-.07s.18-.23.22-.32-.21.27-.25.17a.35.35,0,0,0,.07-.09c0-.07-.13,0-.22.12.18-.34-.15-.05.08-.34-.15,0-.11.17-.2.26s-.13-.07-.12-.13.11,0,.1,0l.14-.21c0-.24-.43.39-.41.12.14-.05.14-.13.29-.25-.06,0-.1-.09-.17.11a.34.34,0,0,1,0-.17.91.91,0,0,0-.32.17c0-.08,0-.25.1-.36-.25,0-.14-.29-.39-.29v0c0-.13-.21.28-.29.17.24-.2.1-.21.19-.35s-.37-.07-.3-.33c.06,0,.12-.08.15-.06,0-.15-.1-.18-.15-.28h0c.1-.28-.22-.23-.38-.34l.18-.08c0-.11,0-.24-.29-.15.22-.24-.12,0,.08-.27,0,0,.06,0,.07,0s0-.12,0-.19c-.24,0-.62.11-.57-.1.38-.18.13,0,.44-.09-.08,0-.17,0-.1-.07a1.84,1.84,0,0,0,.25-.09c.09-.07-.46.07-.42,0s-.11.06-.09.08c-.26.07-.09-.14-.22-.17s0,.13-.23.18c0-.14-.36,0-.55,0,.15-.17.36-.05.64-.18a1.05,1.05,0,0,1,.42-.18c0-.1-.22-.07-.31-.13l.08,0c-.06-.09-.47-.1-.32-.24l-.08.08c-.06,0,0-.07-.22-.05.14,0,.24-.14.36-.14-.44.07-.32-.18-.75-.15a1,1,0,0,1,.39-.08c0,.08-.11.12.08.12,0-.06.08-.12.18-.14-.29,0-.42-.11-.7-.1a1,1,0,0,1,.43-.15c-.17-.16-.69.21-.72,0,.21-.13.32.05.37-.09l0,0c.58-.17-.43,0-.43-.14.32,0,.24.06.47,0-.11-.08-.58-.09-.48-.21h.14c0-.07,0-.2,0-.27s.06,0,.08,0-.17,0,.05-.15l-.16,0c-.11,0-.27.15-.08.22-.19-.07-.41.11-.69.09h.12c-.48.21-.52.49-.65.77.35.11-.1.31.17.44.38-.05.08,0,.19.14-.07-.06-.29.06-.32.12a.31.31,0,0,1,.18.06c-.12.06-.36.34-.1.33-.09.13-.12,0-.2,0s.16,0,.05.1a.11.11,0,0,1-.06,0c.06.14,0,.25,0,.41.36-.11.18.1.33.12-.12,0-.1.13-.16.2l.29,0c.25,0-.11.16,0,.21l.06,0c.13,0,0,.29-.15.44.95.29.14,1.16.75,1.7.13,0,.14-.14.3-.21s.07.06.12.11c0-.11-.05,0,0-.08l-.15,0,.07-.06c-.05,0-.13,0-.14,0s.35-.15.31,0h-.08c0,.07.13,0,.11.08s.05,0,0,.1v.25c.32-.12.15.17.15.22-.21.14-.14-.06-.36.05l-.1.18.16-.13,0,.12,0,0c.07,0,.14-.08.1,0s-.05.06-.07.06h.14c-.19.1,0,.09-.19.24.09.27.45,0,.37.42.06-.1.32-.21.34-.13s0,.11-.13.16l.15,0c-.17.35.08.26.11.47l-.08.07c.14-.05.25-.07.3,0l-.16.15c0,.19.36-.27.37-.09.14-.17.16-.31.29-.48-.13.19-.05.3,0,.16s.06.06,0,.1l.14-.06c.06.07-.16.25-.27.33.21-.14.18.05.23.14l-.09.06a.61.61,0,0,0,.07.1c.17-.09.27,0,.3.1l-.23.2c0,.17.09-.06.14-.09s.08.12,0,.3C179,139.11,178.76,139.88,179.14,139.59Zm9.8-5.6h-.05C188.86,133.93,188.82,133.9,188.94,134Zm-.42.8c-.07-.15,0-.06.12,0-.11.06,0,.16-.18.21a1,1,0,0,1,.18.06s-.11,0-.25,0S188.69,134.82,188.52,134.79Zm-.72-2.29.06,0h0Zm.12.53h-.13C187.87,133,187.94,133.06,187.92,133Zm-.67.77c-.13,0-.11,0-.1.07A.18.18,0,0,0,187.25,133.8Zm-3.66,4.06a.36.36,0,0,0,0-.26c0,.11-.08-.06-.05.1h0A1,1,0,0,0,183.59,137.86Zm-2.82.71a2,2,0,0,0,.14-.31h0s0-.08,0-.1,0-.07,0,0C180.74,138.49,180.66,138.52,180.77,138.57Z" transform="translate(-6.29 -7.06)"/><path class="cls-5" d="M182.1,137.29h0Z" transform="translate(-6.29 -7.06)"/><path class="cls-5" d="M180.9,138.13a.32.32,0,0,0,0,.13A.12.12,0,0,0,180.9,138.13Z" transform="translate(-6.29 -7.06)"/><path class="cls-5" d="M189.41,131.13l0,0,.12,0a.86.86,0,0,0-.48-.17c.17.1.07.15.11.27Z" transform="translate(-6.29 -7.06)"/><path class="cls-5" d="M188.1,131.05l-.21,0,.12,0Z" transform="translate(-6.29 -7.06)"/><path class="cls-5" d="M187.36,132l.11-.06C187.38,131.88,187.18,131.94,187.36,132Z" transform="translate(-6.29 -7.06)"/><path class="cls-5" d="M189.48,132l-.12-.07c-.12,0-.12.09,0,.12C189.32,132,189.47,132.06,189.48,132Z" transform="translate(-6.29 -7.06)"/><path class="cls-5" d="M187.28,132.2c.22.08-.13.05.09.13C187.31,132.29,187.51,132.26,187.28,132.2Z" transform="translate(-6.29 -7.06)"/><path class="cls-5" d="M189.48,132.68c.23,0,.05-.07.12-.13S189.34,132.62,189.48,132.68Z" transform="translate(-6.29 -7.06)"/><path class="cls-5" d="M187.8,132.82c-.16,0-.14-.08-.09-.11l.14.08a1.33,1.33,0,0,1-.14-.17.66.66,0,0,1-.42,0A1.11,1.11,0,0,0,187.8,132.82Z" transform="translate(-6.29 -7.06)"/><path class="cls-5" d="M189.47,132.84c.08,0,.24,0,.24-.1s-.29,0-.28,0l-.18-.07C189.09,132.74,189.51,132.75,189.47,132.84Z" transform="translate(-6.29 -7.06)"/><path class="cls-5" d="M187.29,132.92h.1c-.13-.11,0-.16-.26-.27A.34.34,0,0,0,187.29,132.92Z" transform="translate(-6.29 -7.06)"/><path class="cls-5" d="M189.05,133l.26.09c.06-.06-.09,0-.15-.07s.08,0,0-.06S189,132.9,189.05,133Z" transform="translate(-6.29 -7.06)"/><path class="cls-5" d="M189.27,133.31l.09.13.31,0C189.6,133.31,189.51,133.4,189.27,133.31Z" transform="translate(-6.29 -7.06)"/><path class="cls-5" d="M189.06,133.37H189l.34.27A1.05,1.05,0,0,0,189.06,133.37Z" transform="translate(-6.29 -7.06)"/><path class="cls-5" d="M186.81,134.18c.1.07.27.07.14,0S186.68,134.18,186.81,134.18Z" transform="translate(-6.29 -7.06)"/><path class="cls-5" d="M189,134.82c-.1,0,0,.2.05.29C189,135,189.1,134.88,189,134.82Z" transform="translate(-6.29 -7.06)"/><path class="cls-5" d="M189,135.15l0,0A.05.05,0,0,0,189,135.15Z" transform="translate(-6.29 -7.06)"/><path class="cls-5" d="M188.13,137.73s0,0,0,0Z" transform="translate(-6.29 -7.06)"/><path class="cls-5" d="M188.12,137.63c.06,0,0-.12,0-.21a1.08,1.08,0,0,0,0,.31S188.23,137.72,188.12,137.63Z" transform="translate(-6.29 -7.06)"/><path class="cls-5" d="M187.65,138.08c0-.07,0-.08-.06-.15S187.58,138.05,187.65,138.08Z" transform="translate(-6.29 -7.06)"/><path class="cls-5" d="M183.1,137c0-.06,0,0,0,.16C183.12,137.15,183.09,137.05,183.1,137Z" transform="translate(-6.29 -7.06)"/><polygon class="cls-5" points="176.75 130.13 176.74 130.05 176.7 129.92 176.75 130.13"/><path class="cls-5" d="M182.82,137s0-.06,0-.08A.11.11,0,0,0,182.82,137Z" transform="translate(-6.29 -7.06)"/><path class="cls-5" d="M182.84,136.89h0Z" transform="translate(-6.29 -7.06)"/><path class="cls-5" d="M182.85,136.94v-.09s0,0,0,0S182.85,136.89,182.85,136.94Z" transform="translate(-6.29 -7.06)"/><path class="cls-5" d="M182.76,137l.05.26c0-.13-.05-.13,0-.41Z" transform="translate(-6.29 -7.06)"/><path class="cls-5" d="M182.63,137c0-.09-.12.32-.11,0-.13.16,0,.52-.18.63.13.16.13-.6.23-.42C182.53,137,182.61,137.08,182.63,137Z" transform="translate(-6.29 -7.06)"/><path class="cls-5" d="M182.63,137.53c0-.15,0-.17-.06-.07S182.6,137.7,182.63,137.53Z" transform="translate(-6.29 -7.06)"/><polygon class="cls-5" points="176.11 130.07 176.09 129.95 176.07 130.05 176.11 130.07"/><path class="cls-5" d="M182.28,137.06l.07-.17C182.33,137,182.28,136.93,182.28,137.06Z" transform="translate(-6.29 -7.06)"/><path class="cls-5" d="M182.14,136.8c0-.07-.14.33,0,.26v0C182.1,137,182.1,136.83,182.14,136.8Z" transform="translate(-6.29 -7.06)"/><path class="cls-5" d="M181.5,137.29s.07,0,.09-.11l-.09.06Z" transform="translate(-6.29 -7.06)"/><path class="cls-5" d="M181.16,138.25c0,.24.09,0,.12.1C181.23,138.28,181.25,138.25,181.16,138.25Z" transform="translate(-6.29 -7.06)"/><path class="cls-5" d="M181.55,136.93c0-.09.06,0,.07,0C181.66,136.79,181.6,136.81,181.55,136.93Z" transform="translate(-6.29 -7.06)"/><path class="cls-5" d="M181.41,137c0-.1.06-.13.07-.2s0-.13-.13,0a2.07,2.07,0,0,1-.21.49c.12,0,.34-.46.24-.11l.22-.38C181.58,136.65,181.44,137,181.41,137Z" transform="translate(-6.29 -7.06)"/><path class="cls-5" d="M181.27,137.81v-.15a.3.3,0,0,1-.13.18C181,138.14,181.23,137.82,181.27,137.81Z" transform="translate(-6.29 -7.06)"/><polygon class="cls-5" points="174.62 129.88 174.5 129.89 174.52 129.92 174.62 129.88"/><polygon class="cls-5" points="174.61 129.75 174.66 129.67 174.51 129.78 174.61 129.75"/><polygon class="cls-5" points="174.58 129.61 174.58 129.63 174.67 129.58 174.58 129.61"/><path class="cls-5" d="M180.74,136.52l-.06.12s0,.14.09,0C180.72,136.66,180.69,136.62,180.74,136.52Z" transform="translate(-6.29 -7.06)"/><path class="cls-5" d="M178.05,138.86a.51.51,0,0,0,.16-.2l-.18.16S178.08,138.81,178.05,138.86Z" transform="translate(-6.29 -7.06)"/><path class="cls-5" d="M178.15,138.45l-.25.14c.07.11.22,0,.33,0s-.15,0-.15-.08Z" transform="translate(-6.29 -7.06)"/><path class="cls-5" d="M176.82,136.83c.14-.1.11-.11.24-.12-.14,0-.17-.11-.26-.18-.07.08-.28.12-.21.13l.16,0-.1.06C176.6,136.91,176.83,136.69,176.82,136.83Z" transform="translate(-6.29 -7.06)"/><path class="cls-5" d="M176.56,131.69a1.43,1.43,0,0,0,.23,0C176.7,131.6,176.58,131.7,176.56,131.69Z" transform="translate(-6.29 -7.06)"/><path class="cls-5" d="M156.84,147.54c.24.06.08,0,.06,0Z" transform="translate(-6.29 -7.06)"/><path class="cls-5" d="M156.9,147.49l0,0S156.9,147.47,156.9,147.49Z" transform="translate(-6.29 -7.06)"/><path class="cls-5" d="M157.14,147.18c.18.12-.11.15.18.26S157.46,147.28,157.14,147.18Z" transform="translate(-6.29 -7.06)"/><polygon class="cls-5" points="150.63 140.19 150.79 140.24 150.55 140.11 150.63 140.19"/><polygon class="cls-5" points="150.47 140.21 150.53 140.22 150.39 140.06 150.47 140.21"/><path class="cls-5" d="M157.33,147l0,.09c-.24,0-.28-.14-.44-.13s.44.16.34.26c.2,0,.05-.19.37-.08C157.75,147.05,157.43,147,157.33,147Z" transform="translate(-6.29 -7.06)"/><path class="cls-5" d="M160.22,142.16l0,0S160.21,142.13,160.22,142.16Z" transform="translate(-6.29 -7.06)"/><path class="cls-5" d="M162.1,141.8a.19.19,0,0,0,.07.08.29.29,0,0,0,0-.09Z" transform="translate(-6.29 -7.06)"/><path class="cls-5" d="M159.4,143.1a.31.31,0,0,0-.1,0S159.37,143.11,159.4,143.1Z" transform="translate(-6.29 -7.06)"/><path class="cls-5" d="M164.72,148.25l-.09,0h0l.09,0Z" transform="translate(-6.29 -7.06)"/><path class="cls-5" d="M164.52,142.09a.17.17,0,0,0,.1,0C164.57,142.08,164.54,142.08,164.52,142.09Z" transform="translate(-6.29 -7.06)"/><path class="cls-5" d="M158.89,143.38h0l0,0Z" transform="translate(-6.29 -7.06)"/><path class="cls-5" d="M161.45,141.32a.2.2,0,0,0,.08,0A.1.1,0,0,0,161.45,141.32Z" transform="translate(-6.29 -7.06)"/><path class="cls-5" d="M158.14,146.1s0,0,0-.06S158.08,146,158.14,146.1Z" transform="translate(-6.29 -7.06)"/><path class="cls-5" d="M158.37,145.74Z" transform="translate(-6.29 -7.06)"/><path class="cls-5" d="M158.57,145.56h0S158.6,145.58,158.57,145.56Z" transform="translate(-6.29 -7.06)"/><path class="cls-5" d="M158.15,146c.13.05.48.28.13,0l-.06,0c.1,0,0-.1,0-.13l-.1-.06-.08,0C157.92,145.81,158.09,146,158.15,146Z" transform="translate(-6.29 -7.06)"/><path class="cls-5" d="M160.23,142.24c0-.08-.06,0,0,0Z" transform="translate(-6.29 -7.06)"/><path class="cls-5" d="M159.81,142.73h.05S159.82,142.7,159.81,142.73Z" transform="translate(-6.29 -7.06)"/><path class="cls-5" d="M158,143.54h0S158,143.52,158,143.54Z" transform="translate(-6.29 -7.06)"/><path class="cls-5" d="M159.91,142.71l0,0S159.9,142.74,159.91,142.71Z" transform="translate(-6.29 -7.06)"/><path class="cls-5" d="M158.65,143.42h0Z" transform="translate(-6.29 -7.06)"/><path class="cls-5" d="M161.14,148.37s0,.08,0,.12c.22-.22,0-.05.16-.23,0,0,0,0-.09,0l-.16.24C161.11,148.47,161.05,148.45,161.14,148.37Z" transform="translate(-6.29 -7.06)"/><path class="cls-5" d="M164.06,148.4h0a.49.49,0,0,0-.24-.05,5.43,5.43,0,0,1,.67.29s0,0,0,0A1.72,1.72,0,0,1,164.06,148.4Z" transform="translate(-6.29 -7.06)"/><path class="cls-5" d="M164.54,148.59h0Z" transform="translate(-6.29 -7.06)"/><path class="cls-5" d="M161.58,148.78v0C161.6,148.76,161.6,148.76,161.58,148.78Z" transform="translate(-6.29 -7.06)"/><path class="cls-5" d="M162.52,145.21l-.06.06S162.5,145.24,162.52,145.21Z" transform="translate(-6.29 -7.06)"/><path class="cls-5" d="M164.46,147.89l0,0a0,0,0,0,1,0,0Z" transform="translate(-6.29 -7.06)"/><path class="cls-5" d="M165.31,151.78c-.17-.29,0,0-.19-.05l0,.19C165.25,151.92,165.27,151.83,165.31,151.78Z" transform="translate(-6.29 -7.06)"/><polygon class="cls-5" points="154.89 141.22 154.87 141.24 154.88 141.24 154.89 141.22"/><path class="cls-5" d="M162.93,152.84l-.05,0Z" transform="translate(-6.29 -7.06)"/><path class="cls-5" d="M164.75,148.38l.06-.16-.09,0C164.88,148.31,164.57,148.31,164.75,148.38Z" transform="translate(-6.29 -7.06)"/><path class="cls-5" d="M166.42,150.89l.18.1c-.15-.5.55-.55.14-1,.79-.08-.49-.47.21-.55l-.09,0c.47-1,.87-2.21.34-3.12l.14,0a5.87,5.87,0,0,0-2.5-4.07c-.21,0-.3.33-.5.39,0,0-.15-.1-.06-.24s.17-.19.24-.23c-.17-.09-.31-.39-.57-.27l0,.26c-.1.06-.17,0-.22-.07s.09-.36.16-.39c-.55.37-.18-.35-.56-.23a4.91,4.91,0,0,1-.91,1l-.08-.14c.14,0,.06-.34.24-.29-.13-.16-.31,0-.45-.08a.38.38,0,0,1-.07.32c-.08-.07-.07-.31-.17-.35l.12-.13c-.06-.19-.14,0-.21.07,0-.2-.17-.24-.13-.46-.16.26-.21.11-.37.28.17.21,0,.26,0,.43l.17-.08c-.24-.13.08,0,.07-.37.11.16-.16.55,0,.5-.22.18-.28,0-.48.32.12-.08,0,.22.07.32-.15,0-.05-.12-.12-.33-.08,0-.14-.17-.19.09-.16-.09,0-.26-.1-.39s.44.25.35-.49c.09,0,.19-.31.32-.29-.11-.1-.3-.34-.43-.15l0,.42c-.1,0-.09.3-.17.27s-.06-.29-.14-.25.06,0,.06.12c-.15.05-.13.32-.27.44.15.07.2.2.34.37s-.08.05-.14.09,0,0,0-.1l-.05.15c-.18-.09-.06-.43-.22-.54s-.1.17-.2.05l0,.07,0,0v0c-.08.07-.18.06-.15.28,0-.09-.06.05-.07.12s0,.39-.21.07h0a.27.27,0,0,1-.25-.2l-.2,0-.09-.27c-.12.14,0,.29,0,.6-.17-.1-.29.1-.31.23s0,0-.05,0l.11.07c-.11.05,0,.17-.09.21s0,0,0,0h0s0,0,0,0l-.06-.08c-.23-.21,0,.22-.17.18s0,0,0,0-.38-.34-.26-.12c0,0,0,0,0,.1h0c0,.08.06.18,0,.13l-.14.05c-.05,0-.06,0-.06.08l-.09-.08s-.07,0-.09,0c-.41-.21-.09.34-.47.2.1.17.22.19.3.26a2.1,2.1,0,0,1,.12.42c-.25-.15-.6-.13-.86-.43-.14.11.21.13.25.29h0a.61.61,0,0,1,.33.14c.15.14.11.28,0,.27l-.2-.23c0,.18.33.46.51.73-.16,0-.33-.23-.55-.4l0,.14-.18-.15c0,.1.16.25,0,.28-.13-.2-.27,0-.44-.26-.1,0,.25.28,0,.13.18.17.14,0,.22,0,.29.2.05.21.08.32-.15-.1-.14-.16-.29-.16.1.09.16.19,0,.14.19.13,0,.11,0,.14a.52.52,0,0,1,.4.14c.05.09.08.14,0,.2h.12c.25.24-.27,0-.24.13a3.11,3.11,0,0,0-.2-.25c.06.1.16.27.21.38l-.33-.07c.14.09-.06.09.15.19-.19,0-.21-.2-.35-.29-.21.08.29.27-.09.26l-.17-.13s0,.18-.07.14c.07,0,0,0,.07,0,.4.2.2.32.65.47l0,0c.05.12.34.28.16.29s-.29-.14-.39-.21.46.24.39.31a.63.63,0,0,1,.35.1s.16-.1,0-.15h-.05a2.05,2.05,0,0,1-.2-.12c0-.08.21,0,.3.06s-.44-.18-.38-.29l.1,0c-.09-.1-.07-.19-.33-.33.3.08-.05-.18.14-.16.6.3-.13.18.18.39.15,0,.27.16.41.24l-.19-.28c.09,0,.41.13.2,0h0c0-.09-.29-.21-.18-.22a.94.94,0,0,1,.18.11c.09,0-.1-.11-.14-.17s.23.15.32.15c-.19-.19.1-.06.12-.11-.34-.17-.32-.49-.67-.55l-.12-.28c.19.07.37.39.66.53l-.07.09c.4.24-.12-.38.36-.13,0,0,0-.06.24,0l-.34-.25a1,1,0,0,1,.36.19c0-.05,0-.06.06-.07s.08.09.08.12c.21.12.15.06.06,0s0-.11,0-.13l.1.13a.29.29,0,0,0-.08-.14.11.11,0,0,0,0-.06,1.66,1.66,0,0,0-.38-.22c.22,0,.22-.14.55,0,.08.09.15.22.17.23s0-.18-.15-.31,0,0,0,0,.16.15.19.14a.14.14,0,0,0,.09,0c-.21-.27,0-.21-.11-.34s-.06,0-.08,0c-.11-.2-.24-.42-.1-.31s.29.21.26.36c.33.28-.17-.26,0-.2l.15.1c.14.2,0,.15.06.21l0-.05c.08.17-.11.17,0,.43h.21c0-.36.38-.23.27-.78h0l-.07-.14,0,.05-.06-.18c.15.17.24.17.39.31a1,1,0,0,1-.2-.28c-.1-.22-.14-.32,0-.26s0,.16.14.27c-.06-.07-.1-.19-.08-.22s.15.08.22.24,0,0,0,0,.12.12.14.27l0-.08c.09.12.07.22.12.3,0-.15-.06-.53,0-.68a2.15,2.15,0,0,0,.12.35c.1.09,0-.45.08-.51,0,.12,0,.08,0,.15.29.07.5,0,.74.38l0-.4.07.25c.22.26.36,0,.59-.08.07,0,0,.28,0,.39s.24-.35.41-.4c-.06.11-.19.43-.14.46s.11-.28.12-.2l-.06.11c0,.17.05,0,.07.12s.29-.2.61-.5c.07.1-.24.36-.26.44,0-.16-.08,0-.16.15.08-.08.16-.11,0,.13,0,0,.05,0,.2-.1-.08.07,0-.07.09-.16,0,.09.13.08-.11.35.22.09.34.33.49.55.18-.06,0-.07.16-.12s-.07.11.12.06l-.18.08c0,.08.36,0,.57,0-.21.08-.14.14-.29.13.06,0-.82.47-.63.4l.82-.4c.09,0,.06,0,.11,0a1.78,1.78,0,0,0-.32.25c-.22.1-.19,0-.19,0-.36.15-.2.19-.54.28.07,0,.18-.08.32-.1l-.06.08.11-.08c.12,0,.41-.08.23.05l.38-.05c-.29.1,0,.07-.1.13l-.19,0s0,.07-.13.13c-.27,0,0-.06-.2,0l-.07.06a1.54,1.54,0,0,0,.4-.1c.32,0,.6-.06.6.08-.29.12-.27,0-.55.07-.11.13.78,0,.75.13s.18.1.19.22c-.2,0-.21.09-.4.11l-.21,0c.06,0,0,.06-.16.05.27,0,.26.13.38.2h.24c.07.06.2.17.14.23s.27.11.51.24a3,3,0,0,1-.7-.09c.12,0,.05-.06.13-.1-.19-.15-.66-.26-.55-.36-.57-.06.07.07-.14.11h-.07a.81.81,0,0,0-.44-.11c.06.05.56.06.31.12.15.06-.29.06-.33.08.2.05.66.12.56.19l-.31-.08c0,.08.45.12.41.21s.29.1.32,0,.17.16.07.2a.81.81,0,0,0,.2.06c.23,0-.18-.16.14-.15l-.32-.11a.88.88,0,0,1,.53.07s-.05-.05,0-.06c.51.08-.2.06.22.16l0-.06c.33,0,.25.19.21.26a.61.61,0,0,1-.47,0l-.08-.13c-.2,0,.08.16.05.21h-.12s.08.16,0,.18l.2.08-.11-.05s.18-.06.31,0-.29,0-.47,0,0-.09-.05-.18c-.31-.09-.07.08-.3.08-.31-.18,0-.09-.26-.24-.08,0,.16.16,0,.19s-.14-.15-.33-.23h-.11c0-.09-.4-.17-.47-.26s.26.16,0,.09a2.09,2.09,0,0,1,.52.25h-.12c-.16-.07-.32-.22-.46-.26l.09.09a2.38,2.38,0,0,1,.27.14c-.11,0,.34.24.45.36s-.05,0-.16,0c.21.25.12.33.29.6a1,1,0,0,0-.41-.32c0-.08-.25-.3-.42-.43a2.3,2.3,0,0,0,.35.35c-.13-.05.14.19-.06.07a3.37,3.37,0,0,1-.32-.33s.28.3.18.29l-.08-.1c-.07,0,0,.11.11.25-.31-.32-.05.11-.3-.24,0,.12.14.18.22.31s-.07.07-.12,0,0-.12,0-.07L163,149c-.16-.15.3.6.09.43a1.65,1.65,0,0,0-.17-.4c0,.07-.05,0,.07.21a.33.33,0,0,1-.12-.1,3,3,0,0,0,.07.39c-.06,0-.16-.19-.21-.31-.06.21-.19-.1-.27.12h0c-.1-.05.07.39,0,.38,0-.36-.07-.24-.1-.43s-.23.24-.32,0c0-.08,0-.17.06-.17s-.13-.08-.2-.11v0c0-.3-.22,0-.39,0a2.12,2.12,0,0,0,.11-.21c0-.09-.08-.18-.27.08.1-.34-.11.07,0-.27,0-.06,0-.05.06-.06s0-.11,0-.17c-.2.13-.53.49-.54.29.32-.38.13,0,.38-.34-.07.05-.14.11-.09,0s.08-.08.21-.21-.41.32-.38.28-.09.11-.07.12c-.22.2-.11-.07-.24,0s0,.13-.19.27c0-.13-.35.16-.56.22.11-.22.36-.21.61-.45a2.22,2.22,0,0,1,.39-.36c0-.09-.23.07-.33.07l.08-.06c-.06,0-.46.12-.34,0l-.07.09a.53.53,0,0,0-.25,0,4,4,0,0,1,.38-.22c-.47.19-.34,0-.83.08a2.25,2.25,0,0,1,.44-.14c0,.06-.11.12.09.07,0,0,.09-.11.2-.14a5.19,5.19,0,0,1-.78,0,1.22,1.22,0,0,1,.5-.16c-.2-.11-.8.23-.84,0,.24-.12.37,0,.43-.09l0,0c.68-.14-.49,0-.47-.12.37,0,.26.05.53,0-.09-.06-.65-.13-.53-.23l.16,0c0-.06.08-.16.06-.23s.06,0,.08,0-.18-.09.08-.11l-.17-.08c-.13,0-.33.07-.13.17-.2-.1-.49,0-.8,0l.13,0c-.61.14-.66.5-.83.87.42.14-.08.4.24.56.43-.11.1,0,.25.15-.09-.07-.32.11-.35.19a.41.41,0,0,1,.23.05c-.13.1-.33.5,0,.43-.06.17-.14,0-.23.06s.2,0,.09.12l-.06,0c.11.15.07.33.15.52.36-.25.26,0,.43,0-.12.07,0,.19-.08.29l.31-.14c.26-.12,0,.23.15.21l0-.07c.15,0,.15.32.08.56a.9.9,0,0,1,1,.53,1.25,1.25,0,0,0,1,.77c.1-.11,0-.22.12-.39s.11,0,.2,0-.07,0,0-.1l-.16.08a.41.41,0,0,0,0-.1c-.06,0-.13.1-.18.06.11-.09.22-.39.29-.24a.16.16,0,0,1-.07.07c.08,0,.12-.1.16,0s.07,0,.05.13a1.15,1.15,0,0,0,.22.22c.19-.36.29,0,.33.06-.05.28-.18.07-.29.33l.07.22,0-.22.14.08v0c0-.08.05-.17.08-.09s0,.1,0,.11l.11-.11c-.08.22.09.08.06.35.39.13.46-.37.82,0-.06-.12.06-.45.16-.41a.2.2,0,0,1,.07.22l.11-.16c.25.38.36.1.65.14l0,.12c.05-.17.11-.31.26-.32l.07.23c.24.09-.07-.51.16-.45-.11-.23-.27-.31-.38-.52.14.23.33.18.21,0,.09-.18.1-.06.14,0v-.19c.11,0,.21.27.24.43,0-.3.17-.2.31-.24l0,.12.19-.06c0-.24.07-.35.25-.36l.14.32c.2.06,0-.13,0-.19,0-.23.2-.09.4,0C165.8,151.06,166.67,151.41,166.42,150.89Zm-8.25-7.25,0,0C158.22,143.74,158.23,143.8,158.17,143.64Zm1-.48c-.05.17-.09,0-.14-.07.16,0,.18-.1.32,0l-.11-.19c.05,0,.12,0,.2.2C159.49,143.39,159,143,159.12,143.16Zm-.59,2.55-.05-.05h0Zm.11-.54a.8.8,0,0,0,.12.08C158.69,145.19,158.63,145.14,158.64,145.17Zm1-.23c.09.11.11.05.12,0A.24.24,0,0,0,159.63,144.94ZM164.1,146a.39.39,0,0,0-.29.09c.12,0-.05.09.12,0h0Zm1.25,2.89a3,3,0,0,0-.37-.14h0c-.05,0-.09,0-.11,0s-.08,0,0,.06C165.26,148.92,165.31,149,165.35,148.88Z" transform="translate(-6.29 -7.06)"/><path class="cls-5" d="M163.7,147.64s0,0,0,0Z" transform="translate(-6.29 -7.06)"/><path class="cls-5" d="M164.84,148.75s.08,0,.14,0A.21.21,0,0,0,164.84,148.75Z" transform="translate(-6.29 -7.06)"/><path class="cls-5" d="M156.35,146.44l0-.05-.16,0a1,1,0,0,0,.5.33c-.17-.16,0-.19-.06-.34Z" transform="translate(-6.29 -7.06)"/><path class="cls-5" d="M157.79,146.91l.23,0-.13-.06Z" transform="translate(-6.29 -7.06)"/><path class="cls-5" d="M158.82,146.39h-.14C158.76,146.46,159,146.52,158.82,146.39Z" transform="translate(-6.29 -7.06)"/><path class="cls-5" d="M156.58,145.43l.1.13c.13,0,.16-.05,0-.15C156.74,145.52,156.61,145.38,156.58,145.43Z" transform="translate(-6.29 -7.06)"/><path class="cls-5" d="M159,146.25c-.2-.19.13,0-.05-.15C159,146.16,158.75,146.08,159,146.25Z" transform="translate(-6.29 -7.06)"/><path class="cls-5" d="M156.88,144.7c-.23-.13-.09.06-.19.09S157,144.83,156.88,144.7Z" transform="translate(-6.29 -7.06)"/><path class="cls-5" d="M158.66,145.42c.13.14.1.16,0,.16a1,1,0,0,1-.1-.16,1.67,1.67,0,0,1,.07.24.84.84,0,0,1,.42.24A1.81,1.81,0,0,0,158.66,145.42Z" transform="translate(-6.29 -7.06)"/><path class="cls-5" d="M157,144.53c-.09,0-.26-.08-.3,0,.12.07.29.18.32.09l.16.16C157.32,144.82,156.88,144.61,157,144.53Z" transform="translate(-6.29 -7.06)"/><path class="cls-5" d="M159.2,145.65l-.09-.07c.08.18,0,.16.14.38C159.29,145.91,159.26,145.77,159.2,145.65Z" transform="translate(-6.29 -7.06)"/><path class="cls-5" d="M157.49,144.58l-.23-.23c-.09,0,.08.07.12.15s-.1,0-.07.05C157.35,144.44,157.51,144.71,157.49,144.58Z" transform="translate(-6.29 -7.06)"/><path class="cls-5" d="M157.43,144.13V144l-.32-.19C157.09,144,157.24,143.91,157.43,144.13Z" transform="translate(-6.29 -7.06)"/><path class="cls-5" d="M157.68,144.19l0,0-.19-.46A1.27,1.27,0,0,0,157.68,144.19Z" transform="translate(-6.29 -7.06)"/><path class="cls-5" d="M160.19,145c-.05-.13-.18-.26-.09-.13S160.29,145.06,160.19,145Z" transform="translate(-6.29 -7.06)"/><path class="cls-5" d="M158.74,142.82c.09.06.16-.18.19-.3C158.87,142.62,158.64,142.66,158.74,142.82Z" transform="translate(-6.29 -7.06)"/><path class="cls-5" d="M158.94,142.48v0S158.94,142.5,158.94,142.48Z" transform="translate(-6.29 -7.06)"/><path class="cls-5" d="M162.23,141.22a.05.05,0,0,0,0,0Z" transform="translate(-6.29 -7.06)"/><path class="cls-5" d="M162.13,141.29s-.18,0-.21.16a1.06,1.06,0,0,0,.31-.23S162.15,141.12,162.13,141.29Z" transform="translate(-6.29 -7.06)"/><path class="cls-5" d="M163,141.52c-.06.07-.11,0-.13.14S163,141.62,163,141.52Z" transform="translate(-6.29 -7.06)"/><path class="cls-5" d="M163.19,146.68c-.05,0,0,0,.19,0C163.37,146.63,163.26,146.68,163.19,146.68Z" transform="translate(-6.29 -7.06)"/><polygon class="cls-5" points="157.14 139.63 157.05 139.66 156.91 139.72 157.14 139.63"/><path class="cls-5" d="M163.21,147h-.09S163.18,147,163.21,147Z" transform="translate(-6.29 -7.06)"/><path class="cls-5" d="M163.11,147h0Z" transform="translate(-6.29 -7.06)"/><path class="cls-5" d="M163.16,147l-.1,0h.05Z" transform="translate(-6.29 -7.06)"/><path class="cls-5" d="M163.19,147.05l.29-.1c-.16,0-.14.08-.47.1Z" transform="translate(-6.29 -7.06)"/><path class="cls-5" d="M163.29,147.17c-.1.05.39.06,0,.12.2.1.6-.08.74.07.19-.17-.69,0-.5-.16C163.34,147.27,163.37,147.18,163.29,147.17Z" transform="translate(-6.29 -7.06)"/><path class="cls-5" d="M163.88,147.07c-.18,0-.19.08-.06.08S164.08,147.07,163.88,147.07Z" transform="translate(-6.29 -7.06)"/><polygon class="cls-5" points="157.17 140.31 157.03 140.35 157.15 140.36 157.17 140.31"/><path class="cls-5" d="M163.4,147.51l-.21,0C163.27,147.49,163.26,147.53,163.4,147.51Z" transform="translate(-6.29 -7.06)"/><path class="cls-5" d="M163.13,147.66c-.07,0,.4.09.31,0h0C163.34,147.68,163.17,147.7,163.13,147.66Z" transform="translate(-6.29 -7.06)"/><path class="cls-5" d="M163.81,148.18s0-.06-.14-.08l.08.08Z" transform="translate(-6.29 -7.06)"/><path class="cls-5" d="M164.94,148.48c.29,0,0-.1.11-.14C165,148.4,164.94,148.38,164.94,148.48Z" transform="translate(-6.29 -7.06)"/><path class="cls-5" d="M163.39,148.13c-.11,0,0,0,0-.06C163.22,148,163.26,148.08,163.39,148.13Z" transform="translate(-6.29 -7.06)"/><path class="cls-5" d="M163.46,148.23c-.12,0-.15-.06-.23-.07s-.13,0,0,.09a4.41,4.41,0,0,1,.56.23c-.06-.11-.57-.32-.16-.2-.15-.08-.31-.14-.47-.21S163.5,148.21,163.46,148.23Z" transform="translate(-6.29 -7.06)"/><path class="cls-5" d="M164.43,148.39h-.17a.31.31,0,0,1,.21.12C164.84,148.61,164.45,148.42,164.43,148.39Z" transform="translate(-6.29 -7.06)"/><polygon class="cls-5" points="157.23 141.56 157.27 141.67 157.29 141.66 157.23 141.56"/><polygon class="cls-5" points="157.1 141.54 157.01 141.48 157.16 141.63 157.1 141.54"/><path class="cls-5" d="M163.26,148.58h0l-.06-.08Z" transform="translate(-6.29 -7.06)"/><path class="cls-5" d="M163.13,148.63l.13.09s.13.05,0-.08C163.27,148.69,163.23,148.7,163.13,148.63Z" transform="translate(-6.29 -7.06)"/><path class="cls-5" d="M165,152.22a.45.45,0,0,0-.16-.24l.08.27S165,152.18,165,152.22Z" transform="translate(-6.29 -7.06)"/><path class="cls-5" d="M164.56,152v.35c.2-.05.11-.28.22-.4-.11-.05-.08.19-.2.16Z" transform="translate(-6.29 -7.06)"/><path class="cls-5" d="M161.63,152.27c0-.19,0-.17.12-.28-.15.1-.26,0-.41,0,0,.13-.16.31-.09.28l.19-.08-.05.12C161.5,152.52,161.51,152.15,161.63,152.27Z" transform="translate(-6.29 -7.06)"/><path class="cls-5" d="M159.2,147.45a1.22,1.22,0,0,0,.27,0C159.36,147.39,159.22,147.46,159.2,147.45Z" transform="translate(-6.29 -7.06)"/><path class="cls-5" d="M186,154.09c-.18-.19-.08,0-.11.08Z" transform="translate(-6.29 -7.06)"/><path class="cls-5" d="M185.91,154.17l-.07.05A.07.07,0,0,0,185.91,154.17Z" transform="translate(-6.29 -7.06)"/><path class="cls-5" d="M185.35,154.74c-.07-.25.27-.29.07-.54C185.17,154.25,185.09,154.53,185.35,154.74Z" transform="translate(-6.29 -7.06)"/><polygon class="cls-5" points="179.37 147.55 179.24 147.45 179.37 147.72 179.37 147.55"/><polygon class="cls-5" points="179.56 147.53 179.49 147.52 179.5 147.82 179.56 147.53"/><path class="cls-5" d="M184.93,155.19,185,155c.28,0,.2.26.38.25.12-.19-.35-.32-.14-.52-.19-.09-.24.38-.49.16C184.53,155,184.9,155,184.93,155.19Z" transform="translate(-6.29 -7.06)"/><path class="cls-5" d="M178.19,164.14h0S178.2,164.17,178.19,164.14Z" transform="translate(-6.29 -7.06)"/><path class="cls-5" d="M175.52,165.87a.27.27,0,0,0-.15,0,.18.18,0,0,0,.09.06Z" transform="translate(-6.29 -7.06)"/><path class="cls-5" d="M179.46,162.53h.14A.12.12,0,0,0,179.46,162.53Z" transform="translate(-6.29 -7.06)"/><path class="cls-5" d="M161,166.2l0-.1h0l0,.09Z" transform="translate(-6.29 -7.06)"/><path class="cls-5" d="M172.36,167.68a.46.46,0,0,0-.13.08C172.32,167.74,172.35,167.71,172.36,167.68Z" transform="translate(-6.29 -7.06)"/><path class="cls-5" d="M180.33,161.84l0,0h.06l0,0Z" transform="translate(-6.29 -7.06)"/><path class="cls-5" d="M176.66,165.81a.22.22,0,0,0-.12,0A.22.22,0,0,0,176.66,165.81Z" transform="translate(-6.29 -7.06)"/><path class="cls-5" d="M183,157.13c-.05,0-.06.07-.06.12S183,157.23,183,157.13Z" transform="translate(-6.29 -7.06)"/><path class="cls-5" d="M182.34,157.94h0S182.32,157.92,182.34,157.94Z" transform="translate(-6.29 -7.06)"/><path class="cls-5" d="M181.87,158.4h0S181.84,158.37,181.87,158.4Z" transform="translate(-6.29 -7.06)"/><path class="cls-5" d="M182.94,157.25c-.15,0-.49-.28-.21.11l.07,0c-.13,0-.05.18-.09.24l.1.06a.54.54,0,0,1,.15-.1C183.09,157.58,183,157.39,182.94,157.25Z" transform="translate(-6.29 -7.06)"/><path class="cls-5" d="M178.15,164.06c.06.07.1,0,0,0Z" transform="translate(-6.29 -7.06)"/><path class="cls-5" d="M178.77,163.25l-.08,0S178.75,163.28,178.77,163.25Z" transform="translate(-6.29 -7.06)"/><path class="cls-5" d="M181.71,161.14h0S181.72,161.16,181.71,161.14Z" transform="translate(-6.29 -7.06)"/><path class="cls-5" d="M178.61,163.33a.2.2,0,0,1,.08,0S178.62,163.29,178.61,163.33Z" transform="translate(-6.29 -7.06)"/><path class="cls-5" d="M180.72,161.64h0Z" transform="translate(-6.29 -7.06)"/><path class="cls-5" d="M149.21,159.52c.07,0,0,.13,0,.2.3-.15-.21-.18.11-.27a.2.2,0,0,0-.17,0l-.12.28C149.25,159.69,149.08,159.57,149.21,159.52Z" transform="translate(-6.29 -7.06)"/><path class="cls-5" d="M160.28,165.49l0,0c0-.14,0-.18-.07-.27-.13.18,0,.51-.24.7a.12.12,0,0,1,.13,0A.68.68,0,0,1,160.28,165.49Z" transform="translate(-6.29 -7.06)"/><path class="cls-5" d="M160.13,166v0a.17.17,0,0,0,0,.07.13.13,0,0,1,.06,0A.26.26,0,0,0,160.13,166Z" transform="translate(-6.29 -7.06)"/><path class="cls-5" d="M150.86,160.92l0,.06C150.91,160.91,150.89,160.9,150.86,160.92Z" transform="translate(-6.29 -7.06)"/><path class="cls-5" d="M171.41,164.09l.06-.11A.17.17,0,0,0,171.41,164.09Z" transform="translate(-6.29 -7.06)"/><path class="cls-5" d="M161.83,166a.15.15,0,0,0,.07.05h0Z" transform="translate(-6.29 -7.06)"/><path class="cls-5" d="M155.73,167.52c.17-.29,0,0-.11-.21l-.17.13C155.54,167.52,155.65,167.5,155.73,167.52Z" transform="translate(-6.29 -7.06)"/><polygon class="cls-5" points="142.91 152.33 142.89 152.36 142.9 152.35 142.91 152.33"/><path class="cls-5" d="M152.46,166.3l0-.07A.09.09,0,0,0,152.46,166.3Z" transform="translate(-6.29 -7.06)"/><path class="cls-5" d="M160.73,166.22l.41.07-.11-.09C161,166.35,160.82,166,160.73,166.22Z" transform="translate(-6.29 -7.06)"/><path class="cls-5" d="M157.53,168.25v.2c.53-.29.91.4,1.39-.11.4.8.46-.55.84.16v-.1c1.59.37,3.35.9,4.91.51v.14a22.62,22.62,0,0,0,7.32-1.12c.18-.2,0-.45.09-.67.09,0,.26-.09.32.08-.13.14,0,.25,0,.34.26-.11.67,0,.83-.31l-.27-.15c.06-.12.22-.11.31-.12s.2.31.15.38c.3-.69.47.08.8-.29a3.06,3.06,0,0,1,.44-1.49l.22,0c-.22.1.15.32-.14.42.29,0,.42-.27.67-.3a.27.27,0,0,1-.08-.33c.16,0,.27.21.43.16l-.08.2c.18.12.16-.14.25-.21.11.16.36.08.42.3.08-.35.23-.23.37-.51-.32-.06-.06-.26-.17-.4l-.21.21c.42-.07-.11.09.07.38-.24-.06,0-.62-.28-.43.27-.31.4-.23.6-.66-.17.16-.06-.22-.22-.25.25-.15.12.07.3.22.14-.09.28.05.29-.24.28,0,.09.24.27.29,0,.26-.77.11-.35.73-.12.07-.13.41-.32.49.2,0,.54.09.65-.16l-.19-.38c.14-.08,0-.35.15-.38a.18.18,0,0,0,.29.14c-.07,0-.1,0-.13-.06.2-.15.09-.41.29-.62a1.9,1.9,0,0,1-.64-.12c-.1-.28.11-.11.2-.2s0,.06.05.09l0-.18c.31,0,.18.38.46.38s.13-.24.31-.19l-.06,0,.06,0h0c.11-.12.26-.19.18-.4.07.07.1-.1.1-.19s.05-.44.36-.22h0c.19-.07.38-.06.41.06l.3-.11.14.25c.19-.23.07-.35,0-.71.27,0,.48-.3.52-.47,0,0,.05,0,.09-.07l-.17,0c.19-.12.08-.22.19-.31,0,0-.06,0,0,0l.08,0s0,0,0,.06l.08.06c.33.12.1-.31.31-.35a.49.49,0,0,1,0,.07c.13,0,.5.2.38,0,0,0,0-.06,0-.13l.09,0-.09,0c0-.09,0-.2,0-.16l.24-.13c.07,0,.1-.08.12-.14l.11.06c.06-.08.11,0,.12,0,.53.07.25-.52.76-.52-.08-.19-.26-.15-.34-.22a1.63,1.63,0,0,1,0-.54c.31.09.84-.09,1.06.24.24-.21-.23-.1-.23-.31l0,0a.56.56,0,0,1-.41-.05.24.24,0,0,1,.07-.39l.18.25c.12-.27-.25-.55-.36-.88.24-.08.35.2.58.36l.11-.22.16.15c.06-.15-.07-.32.14-.41.05.25.37-.09.44.25.14,0-.17-.35.1-.19-.13-.22-.16,0-.26,0-.29-.2.05-.3.06-.47.15.11.11.21.3.16-.08-.11-.1-.26.09-.23-.17-.14.09-.17.16-.24a.34.34,0,0,1-.44-.11.31.31,0,0,1,.13-.33l-.16,0c-.16-.33.35-.05.41-.28,0,.15,0,.2.09.36a3.75,3.75,0,0,1,0-.59l.38.06c-.12-.12.13-.16,0-.3.26-.09.11.31.23.44.29-.15-.17-.42.27-.44l.12.2c.07-.07.08-.29.17-.24-.06,0-.06,0-.1.06-.33-.31,0-.53-.41-.78l-.1.09c0-.21-.15-.5.08-.53s.21.25.27.37c.13-.13-.33-.41-.18-.56-.12,0-.25-.06-.31-.18-.1.08-.32.24-.13.31h.06c.1.08.09.16.12.22s-.22,0-.31-.08c-.22.18.37.29.21.49l-.09,0c0,.18-.08.34.14.54-.31-.09-.08.32-.3.31-.54-.39.3-.33.09-.67-.19,0-.21-.25-.31-.39v.52c-.09,0-.43-.13-.28.08l0,0c0,.18.21.31,0,.37s-.11-.12-.14-.15,0,.17,0,.28-.18-.22-.31-.18c.11.28-.2.15-.27.26.33.2.06.75.5.74v.42c-.22,0-.26-.52-.57-.66l.18-.19c-.39-.27-.11.62-.62.41-.11.08,0,.1-.39.13l.35.25a.63.63,0,0,1-.43-.13.39.39,0,0,1-.15.16.28.28,0,0,1,0-.17c-.24-.08-.19,0-.13.11s0,.16-.08.22l-.06-.16a.22.22,0,0,0,0,.19.18.18,0,0,0,0,.1,1.07,1.07,0,0,0,.44.15c-.33.11-.43.36-.87.29-.08-.09-.1-.27-.14-.26s-.09.29,0,.42l0,.06c-.09-.06-.19-.12-.25-.09a.11.11,0,0,0-.11,0c.19.28-.11.33,0,.48a.29.29,0,0,0,.16-.13c.08.24.18.49,0,.42,0-.3-.39-.11-.24-.39-.43-.17.13.3-.13.34l-.22,0c-.14-.2.09-.25,0-.3l-.05.09c0-.2.3-.37.28-.72l-.42.21c-.22.62-1,.79-1,1.52h0a.85.85,0,0,0,.09.14l-.06,0,0,.21c-.23-.11-.43,0-.67-.07a.48.48,0,0,1,.29.19c.13.21.18.3,0,.33-.1-.14,0-.19-.2-.23a.16.16,0,0,1,.09.22c-.15,0-.28,0-.39-.1s.07,0,.11,0-.23,0-.21-.22l-.11.14c-.16-.06-.08-.22-.16-.27-.16.25,0,.67-.18.9a2.13,2.13,0,0,0-.2-.3c-.22,0-.11.57-.28.71,0-.11.06-.12.09-.2a4.27,4.27,0,0,1-1.85.51l0,.42-.27-.15a3.24,3.24,0,0,0-1.54.91c-.17.11-.22-.2-.35-.27-.41.12-.33.57-.67.81,0-.14,0-.49-.2-.44,0,.12.06.3-.07.27v-.13c-.16-.13-.19.06-.41.07a1.41,1.41,0,0,0-.73,1c-.33.07-.1-.41-.19-.47.26.06.13-.12.13-.27-.07.15-.19.26-.34,0a.52.52,0,0,0-.33.31c0-.11.17,0,.13.16-.16-.06-.47.14-.55-.21a14.49,14.49,0,0,1-2.46.57c-.11.21.12.06.07.2s-.19-.1-.32.11l0-.2c-.24,0-.45.39-.68.6,0-.22-.22-.15,0-.31-.12,0-.37-.91-.43-.69l.23.89c0,.09-.17.06-.15.12-.12-.17-.27-.37-.34-.37-.05-.23.13-.18.22-.19,0-.38-.34-.22-.24-.59-.2.08.05.2-.06.35l-.19-.07.15.12c-.13.13-.16.42-.38.22l-.19.39c0-.3-.16,0-.27-.11l.06-.2a.29.29,0,0,1-.3-.13c.07-.27.14.06.16-.2l-.16-.08c0,.17-.09.32,0,.41-.13.34-.21.61-.58.58-.18-.3.17-.26.1-.56-.38-.12-.47.77-.7.74s-.28.15-.58.16c.1-.19-.2-.22-.24-.42l.12-.2c-.09.06-.17,0-.14-.17,0,.27-.39.22-.6.34l0,.23c-.17.07-.4.2-.57.13s-.22.26-.45.49a1.27,1.27,0,0,1,0-.72c.06.13.18.07.28.16.34-.17.63-.65.93-.51.17-.56-.22.05-.35-.16a.06.06,0,0,1,0,0s0,0,0,0a.52.52,0,0,0,.35-.42c-.18,0-.17.55-.38.3-.19.14-.28-.31-.38-.36-.13.2-.19.65-.46.52l.16-.29c-.31-.05-.2.43-.49.38.1.05-.15.3,0,.33a.35.35,0,0,1-.49,0c-.05.05,0,.11-.05.21.15.25.32-.17.42.16l.17-.32a.4.4,0,0,1,0,.54s.1-.05.13,0c0,.51-.19-.21-.3.21l.13,0c0,.34-.33.25-.48.21s-.31-.26-.29-.5l.25-.07c-.09-.2-.32.07-.45.05a.34.34,0,0,0,0-.08v.06s0-.05-.06-.11-.32.08-.42,0l0,.21,0-.11a.22.22,0,0,1,.12.33c-.28.09-.25-.32-.28-.52s.24.05.39,0c0-.34-.25-.09-.46-.35.17-.33.29.06.41-.25-.19-.1-.29.14-.48,0,.06-.16.26-.13.29-.35l-.11-.12c.33,0,0-.45.29-.49-.09-.16-.22.26-.34,0,0,.16.1.47-.1.57l-.16-.14c0-.18.27-.33.18-.5l-.21.09c0,.1.06.17,0,.3-.09-.13-.27.37-.44.5-.1,0-.18-.08-.19-.21-.34.23-.68.13-1,.36.22-.17.09-.36,0-.54.21,0,.29-.31.34-.52-.12,0-.29.31-.27.43-.15-.18-.19.19-.3-.07s.15-.3.14-.43c-.2-.07-.17.37-.37.22a.12.12,0,0,0,.05-.11c-.1-.1-.27,0-.35.15,0-.45-.37-.07-.21-.47-.33,0,0,.24-.14.36s-.35-.08-.4-.17.18-.07.23,0l0-.29c-.28-.32-.45.56-.71.18.23-.07.14-.19.3-.35-.08.05-.32-.13-.24.14a1.15,1.15,0,0,1-.25-.24.9.9,0,0,0-.45.24.82.82,0,0,1-.26-.5c-.46,0-.64-.47-1.12-.44l0,0c-.28-.19,0,.41-.35.26.2-.31-.08-.31-.09-.53-.29-.36-.77-.12-1-.52,0-.06.1-.13.17-.1-.2-.24-.44-.29-.66-.45l0,0c-.21-.48-.71-.38-1.14-.55.06,0,.14-.13.19-.15-.14-.19-.39-.44-.7-.27,0-.44-.21,0-.28-.49,0-.06.06,0,.09,0-.06-.19-.18-.23-.29-.37-.42-.05-.78.25-1-.13.3-.39.28.08.54-.22-.12,0-.24,0-.26-.12.18-.1.09-.08.24-.19s-.61.16-.58.13-.07.12,0,.17c-.27.16-.34-.25-.57-.31a.26.26,0,0,1-.08.39c-.14-.27-.52,0-.8,0,0-.35.42-.17.61-.46.06-.12.17-.39.34-.42-.12-.21-.44-.11-.65-.19l.08-.07c-.25-.16-.76-.09-.79-.41v.18c-.07,0-.16-.13-.36,0,.13-.1.1-.34.25-.38-.46.26-.68-.27-1.15-.05,0-.15.24-.24.35-.3.09.17.06.28.28.22a.22.22,0,0,1,0-.34c-.34.1-.67-.11-1,0,0-.19,0-.33.28-.47-.43-.26-.48.71-.83.28,0-.35.43,0,.28-.35l.07,0c.39-.62-.49.18-.65-.06.27-.26.33,0,.42-.33-.23-.14-.73.1-.79-.18l.15-.06c-.12-.12-.24-.42-.37-.54.06-.05.07,0,.1,0-.06-.33-.23,0-.16-.34l-.19,0c0,.17-.05.48.22.49-.27,0-.24.47-.55.6l.13-.05a2.55,2.55,0,0,0,.27,1.73c.52,0,.27.56.71.68.37-.25.11,0,.4.17-.16-.09-.26.21-.23.33a.44.44,0,0,1,.29,0c-.06.14,0,.69.28.59,0,.25-.13.07-.23.1-.1.22.24,0,.18.15a.15.15,0,0,1-.07,0,5.12,5.12,0,0,1,.48.68c.32-.3.34.09.55.08-.13.07,0,.24,0,.36l.34-.12c.31-.09,0,.3.31.33v-.09c.21,0,.36.46.34.74a2.3,2.3,0,0,1,1.56,1.07,3.42,3.42,0,0,0,1.44,1.37c.16-.05.06-.22.22-.35a1.28,1.28,0,0,1,.31.15c0-.16-.11,0,0-.12l-.25,0s0,0,.05-.09-.2,0-.27-.05c.17,0,.37-.28.46-.07,0,0-.06,0-.11,0,.11.11.2,0,.25.11s.1,0,0,.16l.3.36c.37-.23.43.22.48.28-.18.23-.3-.06-.53.13l0,.26.12-.19.17.16,0,0c.07-.07.14-.13.15,0s0,.1,0,.1l.2,0c-.2.16.09.13-.06.36.41.38.78,0,1,.51,0-.15.31-.32.42-.22a.17.17,0,0,1,0,.24l.23-.05c0,.5.37.33.63.59l-.06.11c.18-.08.35-.14.51,0l-.12.21c.16.24.35-.41.54-.17.09-.24,0-.42.05-.66,0,.27.2.41.21.21.27,0,.16.07.16.14l.2-.1c.16.07-.06.34-.18.45.26-.2.36,0,.53.14l-.11.09.23.12a.46.46,0,0,1,.61.09l-.24.28c.09.21.11-.09.17-.13.27-.09.25.15.32.37C156.94,167.67,157.08,168.65,157.53,168.25Zm24-7.18-.06,0C181.5,161,181.5,160.89,181.54,161.07Zm-1.63,1.2c.11-.25.15-.08.22,0-.25.07-.29.24-.53.27a.86.86,0,0,1,.17.15.29.29,0,0,1-.31-.1C179.34,162.23,180.11,162.36,179.91,162.27Zm2.14-4.18,0,.07h0Zm-.57,1a.27.27,0,0,0-.16-.05C181.4,159.11,181.47,159.15,181.48,159.11Zm-2,1.18c-.13-.08-.19,0-.24.11A.86.86,0,0,0,179.52,160.29Zm-12.75,5.58c.06-.06.17-.22,0-.31,0,.13-.17-.06-.19.13v0A.66.66,0,0,0,166.77,165.87Zm-6.8,1c0-.14.11-.28.09-.39l0,0c0-.05,0-.09,0-.12s-.1-.08-.14-.05C159.84,166.73,159.71,166.78,160,166.83Z" transform="translate(-6.29 -7.06)"/><path class="cls-5" d="M162.42,165.24h0Z" transform="translate(-6.29 -7.06)"/><path class="cls-5" d="M160,166.29s0,.09.11.15A.16.16,0,0,0,160,166.29Z" transform="translate(-6.29 -7.06)"/><path class="cls-5" d="M185.62,156.12v.08l.19,0c0-.28-.14-.4-.31-.57.07.29-.1.33-.2.58Z" transform="translate(-6.29 -7.06)"/><path class="cls-5" d="M184.3,155.35a.61.61,0,0,0-.25,0l.1.1Z" transform="translate(-6.29 -7.06)"/><path class="cls-5" d="M182.21,157l.22-.08C182.38,156.76,182.07,156.81,182.21,157Z" transform="translate(-6.29 -7.06)"/><path class="cls-5" d="M184.65,157.78l0-.19c-.16,0-.24.13-.12.25C184.5,157.67,184.58,157.87,184.65,157.78Z" transform="translate(-6.29 -7.06)"/><path class="cls-5" d="M181.82,157.35c.16.23-.23.07-.07.27C181.73,157.53,182,157.54,181.82,157.35Z" transform="translate(-6.29 -7.06)"/><path class="cls-5" d="M183.85,159c.24.12.16-.12.3-.19C184.07,158.89,183.75,158.83,183.85,159Z" transform="translate(-6.29 -7.06)"/><path class="cls-5" d="M181.63,158.69c-.13-.14-.06-.2,0-.24s.07.15.06.2a1.19,1.19,0,0,1,.06-.37c-.19,0-.39.08-.55-.11C181.31,158.38,181.41,158.65,181.63,158.69Z" transform="translate(-6.29 -7.06)"/><path class="cls-5" d="M183.64,159.26c.14,0,.32,0,.41-.08-.12-.07-.3-.17-.39,0l-.13-.2C183.31,159,183.8,159.11,183.64,159.26Z" transform="translate(-6.29 -7.06)"/><path class="cls-5" d="M180.82,158.73l.12,0c0-.24.19-.3.05-.57A.74.74,0,0,0,180.82,158.73Z" transform="translate(-6.29 -7.06)"/><path class="cls-5" d="M182.94,159.39l.21.24c.15-.09-.08-.07-.09-.16s.13,0,.11-.1C183.08,159.53,183,159.2,182.94,159.39Z" transform="translate(-6.29 -7.06)"/><path class="cls-5" d="M182.82,160l-.06.25.37.13C183.22,160.14,183,160.25,182.82,160Z" transform="translate(-6.29 -7.06)"/><path class="cls-5" d="M182.48,160.05l-.06,0,.1.56A1.36,1.36,0,0,0,182.48,160.05Z" transform="translate(-6.29 -7.06)"/><path class="cls-5" d="M178.34,160.84c0,.13.29.16.14.08S178.16,160.8,178.34,160.84Z" transform="translate(-6.29 -7.06)"/><path class="cls-5" d="M180.47,162.45c-.14,0-.26.3-.31.45C180.24,162.76,180.6,162.58,180.47,162.45Z" transform="translate(-6.29 -7.06)"/><path class="cls-5" d="M180.14,163l0-.07A.11.11,0,0,0,180.14,163Z" transform="translate(-6.29 -7.06)"/><path class="cls-5" d="M175.68,166.45a.06.06,0,0,0,0,.05Z" transform="translate(-6.29 -7.06)"/><path class="cls-5" d="M175.77,166.31c.1,0,.23-.15.19-.29a1.39,1.39,0,0,0-.28.43S175.84,166.46,175.77,166.31Z" transform="translate(-6.29 -7.06)"/><path class="cls-5" d="M174.55,166.78c0-.1.13-.1.06-.21S174.47,166.71,174.55,166.78Z" transform="translate(-6.29 -7.06)"/><path class="cls-5" d="M165.75,164.87c-.11-.07-.17,0-.12.19C165.75,165.05,165.67,164.93,165.75,164.87Z" transform="translate(-6.29 -7.06)"/><polygon class="cls-5" points="159.2 158.05 159.18 157.95 159.1 157.8 159.2 158.05"/><path class="cls-5" d="M164.74,164.86a.25.25,0,0,1,0-.09S164.71,164.83,164.74,164.86Z" transform="translate(-6.29 -7.06)"/><path class="cls-5" d="M164.8,164.76h0Z" transform="translate(-6.29 -7.06)"/><path class="cls-5" d="M164.85,164.82v-.1l-.06,0S164.84,164.77,164.85,164.82Z" transform="translate(-6.29 -7.06)"/><path class="cls-5" d="M164.52,164.82l.15.31c.14-.15-.17-.16,0-.48Z" transform="translate(-6.29 -7.06)"/><path class="cls-5" d="M164,164.91c-.14-.1-.34.38-.41,0-.38.18.08.61-.37.73.42.2.23-.69.6-.49C163.68,165,164,165,164,164.91Z" transform="translate(-6.29 -7.06)"/><path class="cls-5" d="M164.1,165.51c0-.18-.15-.19-.21-.07S164,165.71,164.1,165.51Z" transform="translate(-6.29 -7.06)"/><polygon class="cls-5" points="156.99 158 156.88 157.85 156.85 157.97 156.99 158"/><path class="cls-5" d="M162.85,165l.13-.2C162.93,164.84,162.77,164.81,162.85,165Z" transform="translate(-6.29 -7.06)"/><path class="cls-5" d="M162.26,164.66c-.1-.08-.24.4,0,.31l0,0C162.23,164.87,162.12,164.7,162.26,164.66Z" transform="translate(-6.29 -7.06)"/><path class="cls-5" d="M160.75,165.24a.13.13,0,0,0,.17-.12l-.22.07Z" transform="translate(-6.29 -7.06)"/><path class="cls-5" d="M160.61,166.41c0,.3.2,0,.33.12C160.79,166.45,160.81,166.41,160.61,166.41Z" transform="translate(-6.29 -7.06)"/><path class="cls-5" d="M160.58,164.8c.08-.11.15,0,.19,0C160.77,164.64,160.63,164.66,160.58,164.8Z" transform="translate(-6.29 -7.06)"/><path class="cls-5" d="M160.25,164.85c-.05-.13,0-.16,0-.25s-.26-.17-.37,0a1.29,1.29,0,0,1-.08.61c.25-.06.45-.57.49-.13l.27-.48C160.4,164.47,160.37,164.9,160.25,164.85Z" transform="translate(-6.29 -7.06)"/><path class="cls-5" d="M160.55,165.88l-.09-.19c0,.17-.11.19-.18.23C160.25,166.29,160.48,165.89,160.55,165.88Z" transform="translate(-6.29 -7.06)"/><path class="cls-5" d="M159,164.82a1.27,1.27,0,0,1-.28,0l.08,0Z" transform="translate(-6.29 -7.06)"/><polygon class="cls-5" points="152.53 157.6 152.55 157.5 152.31 157.64 152.53 157.6"/><polygon class="cls-5" points="152.29 157.41 152.32 157.43 152.49 157.38 152.29 157.41"/><path class="cls-5" d="M158.09,164.26v.17c.08,0,.16.18.2,0C158.22,164.46,158.09,164.4,158.09,164.26Z" transform="translate(-6.29 -7.06)"/><path class="cls-5" d="M155.05,167.51a.33.33,0,0,0,.09-.28l-.17.23S155.05,167.44,155.05,167.51Z" transform="translate(-6.29 -7.06)"/><path class="cls-5" d="M154.86,167l-.31.21c.22.14.34-.08.56-.05-.05-.13-.25,0-.34-.08Z" transform="translate(-6.29 -7.06)"/><path class="cls-5" d="M151,164.94c.12-.17.06-.17.26-.2a1.56,1.56,0,0,1-.63-.23c0,.13-.3.23-.19.23l.31,0-.1.1C150.73,165.1,150.85,164.74,151,164.94Z" transform="translate(-6.29 -7.06)"/><path class="cls-5" d="M144.11,156.25a.39.39,0,0,0,.19-.19C144.12,156,144.14,156.27,144.11,156.25Z" transform="translate(-6.29 -7.06)"/></svg>