<svg id="레이어_1" data-name="레이어 1" xmlns="http://www.w3.org/2000/svg" xmlns:xlink="http://www.w3.org/1999/xlink" viewBox="0 0 200 200"><defs><style>.cls-1{fill:none;}.cls-2{fill:#d1d1d1;}.cls-3{clip-path:url(#clip-path);}.cls-4{fill:#25aed4;}.cls-5{fill:#202020;}</style><clipPath id="clip-path"><circle class="cls-1" cx="100" cy="100" r="100"/></clipPath></defs><circle class="cls-2" cx="100" cy="100" r="100"/><g class="cls-3"><path class="cls-4" d="M53.51,119.18c-9,15.15-15.91,31.71-17.17,49.76a64.08,64.08,0,0,0,14.31,44.78c22.92,27.67,64.49,17.21,87.62-4.52,14.6-13.7,9.37-37.15,2.14-53.58-6.4-14.54-19.3-26.63-34.28-29.73-17.15-3.55-34.48,1.8-44.69,17.53-9.55,14.71-8.74,34.17-2,49.81,12.4,28.62,48.39,44.2,75.74,31.9,17.88-8,25.57-27.25,22.2-47-1.5-8.79-5.61-17.14-10-24.66a108.13,108.13,0,0,0-13.28-18.61C122.74,122.43,106.2,114.93,90,120.23,75.41,125,64.25,138,58.37,152.66c-6.72,16.79-9.5,37.72,1.31,53.41,9.2,13.35,24.86,21.09,40.44,20.05,16.76-1.11,31.06-10.6,40.92-24.8,10.1-14.53,12.48-32.86,9.93-50.36-2.61-17.85-11.55-33.56-22.09-47.33-10.07-13.15-23.27-29.14-40.8-27.57-18.79,1.68-30.86,16.69-38.62,33.72-7.93,17.44-12.3,35.78-9.25,55.15,2.71,17.23,13.26,32.57,27.65,40.83,13.79,7.91,30.16,10.63,45.63,8.65,17-2.18,36.46-9.18,45.87-25.65,5-8.69,4.78-18.7,4.28-28.49a157.19,157.19,0,0,0-3.4-27.38c-2.83-12.16-8.35-23.19-17.14-31.62C136,94.45,127.18,88.38,117.64,86.5c-11.48-2.27-23.53,1.37-29.3,13-5.3,10.71-4.18,24.38-1,35.62,2.11,7.41,5.75,14.91,12.3,18.86a19.71,19.71,0,0,0,23.93-3.22c8.64-8.68,7.51-22.82,1.79-32.89-6-10.49-17.25-18.35-29.09-15-6.86,1.94-12.12,7.17-15.81,13.45-5,8.5-5,18.58-3,28.1,2,9.22,7.79,17.95,16.66,20.6,10.93,3.26,21.57-3.27,27-13.32,4.41-8.19,6.33-18.78,5.87-28.14-.32-6.25-1.37-12.66-5.65-17.34a20.39,20.39,0,0,0-15.17-6.84c-22,0-28.31,28.67-28.73,47.14-.35,15,1.55,31.55,9,44.62,3.87,6.76,9.49,13.06,16.21,16.61,10.88,5.74,24.57,5.1,31.3-7.2,4.5-8.23,4-19.52,3.55-28.74-.46-8.88-1.26-18.72-4-27.17-2.5-7.55-8.44-13.85-16.39-13.92-6.71-.06-12.63,3.68-16.22,9.69-5.26,8.82-6.21,20-3.82,30,1.17,4.88,5.42,10,10.24,10.91l3.81.73c7.52,1.42,16.16-2.17,18-10.92,1.63-7.61-2.16-17.68-10.24-19.21l-3.8-.72,10.23,10.91c-.92-3.85-.23,3-.26-1a18.31,18.31,0,0,1,0-2c.07-1.18,0-.88-.18.89-.14-1.07.64-2.87,1-3.81l-.48,1.3q3.47-5.81-8.31,4.48l-7.4-2.14-2.15-3.2q-2.8-5.29-2-2.69a13.07,13.07,0,0,0,.46,1.92c.38,1.64.7,3.31,1,5,.25,1.43.45,2.87.69,4.3.41,2.48-.17-2.35,0,.17.07,1,.19,1.93.27,2.89q.39,4.71.41,9.44c0,1.46,0,2.91-.06,4.37,0,1.24-.76,4.38-.3,5.44,0-.11.5-3.12.08-1.44s.53-1.15.57-1.22c1.87-3,5.71-5,9-4.13-3.23-.88.37.24.23.37a8.61,8.61,0,0,1-1.36-.76c-.45-.26-.87-.55-1.31-.81-1.91-1.13.18.57.56.6-.76-.05-1.93-1.91-2.5-2.48a7.7,7.7,0,0,1-1-1.15c.06-.13,1.64,2.63.79,1.12-1.18-2.12-2.38-4.15-3.42-6.36-.75-1.6.57,1.3.51,1.27a10.52,10.52,0,0,1-.68-2c-.33-1-.62-2.06-.89-3.11-.59-2.32-.57-5.35-1.46-7.49,0,0,.34,3.23.18,1.45,0-.54-.12-1.08-.17-1.62q-.16-1.87-.27-3.75c-.17-3.12-.25-6.25-.17-9.38,0-1.36.09-2.73.18-4.09.05-.68.11-1.35.16-2,0-.29.38-2.49.07-.62-.34,2,.18-.8.27-1.28.12-.66.26-1.32.41-2q.52-2.33,1.26-4.56c.21-.65.42-1.29.67-1.92-1,2.65-.22.61.06.12.66-1.14,1.87-3,.31-.87.5-.68,1.48-.82.28-.34s-2,1.34-3.26,1.52a7.11,7.11,0,0,1-3-.17l-1.84-.83-4.6-6c0-.14-.22-3.33-.12-1.26,0,.7.11,1.4.13,2.1.06,1.65-.12,3.27-.11,4.91s.07-.35.12-.67c-.12.7-.23,1.39-.38,2.08-.37,1.85-1,3.62-1.46,5.43-.58,2,.27-1.06.42-1.06a12.51,12.51,0,0,0-.76,1.47c-.53,1.43.56-.66.77-.89-1.77,1.93.32,0,.72-.25-.63.42-1.61.55,0,.14a13.26,13.26,0,0,1,2.74-.78,7.47,7.47,0,0,1,3.19.68c.6.27,3.53,2.75,2.12,1.2-.08-.09,2,2.72,1.09,1.3s.58,1.46.52,1.59c.16-.34-.71-2.36-.82-2.81a16.06,16.06,0,0,0-.37-1.94s.28,3.39.22,1.77-.16-3-.25-4.53c0,.83-1,2.78,0,.18-.09.22-1.2,2.17-.37,1.19a12,12,0,0,0,1.32-2.25c.63-1.29-1.08,1.59-1.16,1.61.23-.07.79-.92.93-1,1.76-1.34-3.23,2-.82.74.9-.46-3.9,1.43-1.57.73,2.61-.78-3.66.31-1.72.27s-4-.71-2-.27c2.67.58-2.35-1.57-1.2-.62a5,5,0,0,0,1.31.86c-1.07-.31-3-2.92-1.13-.83.37.41.75.85,1.13,1.25,1.83,1.9-1.63-2.82-.77-1.07.42.86,2.26,4.68,1.1,1.69s0,1.18.41,2c.22.56-.37-4.68-.33-1.91,0,2.47.26-1.83.34-2.32-.39,2.29.72-1.67,1-2.11-.69,1.33,2.91-3.41,1.08-1.52a8.45,8.45,0,0,1,4.6-2.9c-2.33.77,2.28-.07,3.12,0a9.88,9.88,0,0,1,3.72,1.32c-.48-.29-1.46-1,.47.47s1,.76.54.28c2.77,3,1.46,2.26.89,1-.27-.57-1.43-3.18-.41-.68s-.15-.69-.32-1.27c-.49-1.73-.87-3.5-1.19-5.28-.11-.61-.2-1.22-.31-1.84-.37-2.17.41.69.14,1.12.5-.8-.22-5-.18-6.23,0-.39.08-.78.09-1.17.07-1.91-.79,3.73-.22,2a18.06,18.06,0,0,0,.46-1.93c.61-2.8-1.35,3-.51,1.27,1.18-2.47-1.24,1.46-1,1.18.49-.61,1.93-1.78-.29,0-2.42,1.93-.59.41,0,.13,1.9-.86-3.69,1.73-1.79.82a4,4,0,0,1,.68-.19c2.3-.55-2.23.35-2.22.25,0-.41,5.75.44,1.67-.19-3.13-.5,1,.3,2,.6.68.21,1.33.48,2,.72,2.44.88-2-1-1.18-.54,1.3.85,2.76,1.46,4.07,2.3s2.48,1.74,3.71,2.64c2,1.43-2.54-2.33-.77-.62.69.67,1.43,1.29,2.11,2q1.68,1.65,3.19,3.45c.46.55.86,1.17,1.35,1.68,1,1.06-1.31-1.88-1.24-1.72a13.91,13.91,0,0,0,1,1.47c.81,1.26,1.51,2.58,2.2,3.92,1.2,2.3.19-.5-.15-.61.54.18,1.34,3.89,1.53,4.53a82.08,82.08,0,0,1,2.07,8.63c.17.9.31,1.81.46,2.71,0,.24.41,2.51.12.65s.05.41.08.66c.1.92.19,1.83.28,2.75.27,3,.45,6,.6,9,.16,3.21-.18,6.73.26,9.89.23,1.57.13,0,.21-.57-.1.69-.41,1.43-.46,2.11-.17,2.3,1.27-2,.22-.4-.07.09-.77,1.52-.82,1.49s1.86-2.17.65-.84c-.38.42-.73.88-1.12,1.3s-.86.79-1.21,1.23c-1.07,1.33,2.11-1.41-.14.17a69.4,69.4,0,0,1-6.14,3.79c-2.45,1.36-.59.36,0,.1-.59.27-1.19.51-1.79.75-1.41.56-2.84,1.06-4.28,1.51-2.7.84-5.44,1.37-8.19,1.94-1.71.35.47-.08.69-.1-.86.07-1.72.19-2.58.26-1.51.11-3,.18-4.52.2-2.64,0-5.25-.12-7.87-.34-2.91-.24,2.15.48-.72-.09-1.52-.31-3-.61-4.55-1-2.43-.64-4.76-1.54-7.13-2.39-1.68-.59.87.41.87.41-.29.06-1.27-.63-1.54-.78a44.66,44.66,0,0,1-3.94-2.32c-.45-.29-3.3-2.21-1.74-1.13s0,0-.27-.25c-.55-.52-1.12-1-1.66-1.57-.81-.82-1.56-1.69-2.32-2.55-.17-.2-1.45-1.85-.36-.39s-.41-.69-.59-1a41.32,41.32,0,0,1-2.09-3.81c-.6-1.24-1.14-3.4-.44-.86-.78-2.84-1.63-5.58-2.18-8.49-.07-.35-.3-2.44-.09-.43.22,2.17,0-.54,0-1.07-.09-1.26-.13-2.52-.13-3.79s.05-2.57.13-3.85c0-.46.25-3.42.07-1.42-.17,1.83.17-1.07.22-1.4a79.33,79.33,0,0,1,2.05-8.91c.39-1.36.82-2.71,1.27-4,.23-.67.46-1.34.71-2,.37-1,1.18-2.93.31-.89A127.82,127.82,0,0,1,81,113.82c.34-.56,1.71-2.24-.08,0,.4-.5.79-1,1.2-1.49.82-1,1.82-1.82,2.62-2.8,1-1.28-.39.25-.65.44.62-.45,1.23-.91,1.88-1.32.48-.3,1-.54,1.49-.86,1.53-1.1-2.18.6-.38.15a14,14,0,0,0,1.62-.54c2.26-.86-.36.68-.6-.1,0,0,3.35-.11,3.33-.06-.09.36-2.77-.84-1.16-.09.23.11,1.56.27,1.65.52s-3.16-2-.37,0c.63.45,1.28.92,1.93,1.33-2.09-1.32-.37-.28.61.68s2,2,2.94,3c2.1,2.24,4.16,4.53,6.15,6.88,1.71,2,3.38,4.05,5,6.15.26.34,1.92,2.57.82,1.07s.27.39.39.56c.86,1.27,1.72,2.54,2.55,3.84,1.52,2.4,3,4.86,4.27,7.4q1.06,2.06,2,4.15c.27.6.52,1.22.8,1.81-.63-1.35-.44-1.24,0,.08a79.84,79.84,0,0,1,2.54,8.55c.31,1.34.59,2.69.82,4,.08.47.4,3.35.21,1.32s0,1,.07,1.34a67.65,67.65,0,0,1-.08,8.89c-.2,3,.44-1.71-.21,1.27-.39,1.8-.77,3.58-1.3,5.34-.24.81-1.11,2.32-1.06,3.14,0-.17,1.2-2.63.41-1.17-.26.49-.46,1-.71,1.51q-.85,1.75-1.86,3.42c-.28.48-.59.94-.87,1.42-1,1.61-.08.47.38-.43-1,2-3.17,3.87-4.74,5.39-.4.39-.81.75-1.21,1.13-1.73,1.64.33-.48.44-.33s-2.88,2-3.15,2.18-3.32,1.83-3.32,1.86,2.64-1,1-.46c-.51.18-1,.4-1.52.58-1,.37-2.08.68-3.14,1a10.25,10.25,0,0,0-2,.43c.57-.41,3-.26.88-.16-1,0-2,.11-3,.1-.51,0-1,0-1.52,0-.71-.05-2.64.3-.58,0,1.62-.22.74.14,0,0l-1.49-.33a32.48,32.48,0,0,1-3.86-1.19,8.45,8.45,0,0,0-1.41-.56c.12,0,2.56,1.35,1.23.5-.84-.54-1.75-1-2.59-1.51-.55-.36-1.07-.82-1.64-1.14-1.48-.85,1.22.79,1,.88s-2.18-2.18-2.45-2.46a11.41,11.41,0,0,1-1-1.14c.23-.37,1.71,2.87.58.72-.21-.4-1.59-2.23-1.43-2.64,0-.08.88,2.93.36.91-.22-.86-.53-1.7-.74-2.57-.16-.65-.25-1.32-.41-2,.34,1.37.12,1.86.08.15,0-1.36-.08-2.71,0-4.07q.06-1.38.21-2.73c0,.3-.5,2.46,0,.74.82-3.07,1.34-6.17,2.35-9.2.08-.24.61-1.32.53-1.54,0,.06-1.19,2.76-.47,1.16.53-1.18,1-2.38,1.62-3.54.33-.66,4.06-6.58,4-6.72.08.12-1.79,2.22-.65.94.37-.4.69-.86,1-1.27.71-.83,1.44-1.64,2.2-2.4.21-.21,1.57-1.4,1.56-1.48,0,.1-2.29,1.69-.93.75,1-.69,2-1.42,3-2a10.44,10.44,0,0,0,1.81-1c-.09.16-2.65,1-1.14.56a29.57,29.57,0,0,0,3-.9c1.66-.62-1.45.18-1.34.11a7.4,7.4,0,0,1,2.11-.16c.55,0,1.09,0,1.63,0s2.57.62.71,0l1.63.55c3.47,1.09-1.43-1,.84.23.93.52,1.85,1,2.75,1.61.6.4,1.17.82,1.76,1.24,2,1.42-.5-.29-.43-.39s4.8,4.82,5.09,5.16c.74.86,1.46,1.73,2.16,2.63.14.17,1.07,1.14,1,1.35.06-.43-1.61-2.34-.3-.39A122.44,122.44,0,0,1,126,176.47c.4.83,2,4.72,1,2,.46,1.29.9,2.59,1.26,3.92.13.5,1.2,3.71.89,4,.06-.07-.2-3.28-.14-.76,0,.77.06,1.53.06,2.29,0,.57-.09,1.16-.07,1.73.07,1.73.05-1.15.22-1.31a20.28,20.28,0,0,0-.89,3.89c-.28,1.74.24-1.09.52-1.07-.06,0-.67,1.41-.73,1.53s-.8,1.49-.82,1.47q1.71-2.16.66-.86c-.24.3-.48.59-.74.86s-1.07,1.3-1.22,1.25,2.31-1.52.72-.61c-.82.46-2.56,2.16-3.49,2.08,0,0,2.57-.86.82-.44-.55.14-1.11.4-1.66.57-.87.27-3.77,1.47-4.57,1.08,0,0,2.83-.23,1-.18-.54,0-1.09.1-1.63.13-1,.06-2.11.08-3.16.06-1.23,0-2.44-.17-3.67-.23-1.65-.08,1.23.16,1.31.21a7.76,7.76,0,0,0-2.06-.4,46.83,46.83,0,0,1-6.52-1.93c-3.25-1.23,1.48.9-.83-.31-1.08-.56-2.17-1.12-3.22-1.75-1.65-1-3.89-3.45-5.62-3.86.11,0,2.12,1.9,1,.75-.37-.37-.78-.7-1.16-1.06q-1.52-1.43-2.91-3c-.43-.49-1.44-2.24-2-2.41,0,0,1.66,2.47.75,1.06-.37-.58-.77-1.14-1.14-1.73-1.1-1.77-1.84-4.44-3.12-6,1.38,1.65.83,2.34.36.82-.15-.5-.32-1-.47-1.49-.3-1-.56-2-.78-3-.11-.52-.2-1-.3-1.54-.56-2.76.21.68.11,1,.29-1-.16-2.83-.15-3.9,0-.6.05-1.19.06-1.79.06-3.4.05.63-.15.59s.65-3.23.72-3.52c.15-.56.39-1.14.5-1.72.35-1.86-.44,1.05-.46,1,0-.3,1.87-4.22,2.19-4.19.09,0-1.83,2.12-.57.77.4-.43.75-.91,1.15-1.34a20.17,20.17,0,0,0,1.6-1.56c0,.22-2.33,1.61-1,.85.86-.47,1.77-1.05,2.6-1.59,1.31-.86-1.06.53-1.22.51a11.18,11.18,0,0,0,2.39-.83c.49-.14,1-.25,1.47-.39,1-.3,1.08-.82,0-.1s-1.09.06.07,0c.68,0,1.36-.09,2-.11,1,0,2.06,0,3.09.09.41,0,2.2.26.1,0s.16.07.6.17a33,33,0,0,1,3.49,1c.49.17,1,.38,1.46.54,1.64.54-1.23-.5-1.14-.52.69-.17,2.48,1.36,3.13,1.78.43.28.85.58,1.27.87,1.71,1.15.08-.34-.35-.33.63,0,2.52,2.46,2.88,2.85s2.64,3.05,1.41,1.57.82,1.27,1.13,1.79q1.22,2,2.23,4.11c.25.53,1.58,3.8.9,1.93s.64,2,.82,2.62a68,68,0,0,1,1.9,8.13c.1.59.17,1.18.28,1.77.33,1.87-.17-1.22-.15-1.21.46.42.21,3.29.23,3.94.11,2.93-.08.4.09-.26.06-.21,1.27-2.26.39-.91s.73-.76.72-.78c.07.22-1.38,1.51-1.56,1.7-1.78,1.94-.18.23.31-.14l-1.4,1.05c-1,.71-2,1.39-3,2a82.44,82.44,0,0,1-7.33,4.38c-1.26.67-2.54,1.31-3.84,1.9,2.37-1.08.06-.09-1,.31a58.71,58.71,0,0,1-8,2.44c-1.35.3-3.34.89-.75.26a20.35,20.35,0,0,1-4.06.32q-1.73.06-3.45,0a11.23,11.23,0,0,1-1.72-.12c.06.29,3.13.62-.07-.06a32.73,32.73,0,0,1-3.33-.89c-.55-.18-1.09-.38-1.64-.57-2.3-.79.46,0,.38.19s-2.55-1.45-2.78-1.59c-.44-.29-.88-.59-1.31-.9s-2-1.86-.6-.41l-1.59-1.68c-.31-.34-1.71-2.42-2.07-2.43.08,0,1.62,2.45.72,1-.37-.61-.79-1.2-1.16-1.81-.65-1.08-1.26-2.18-1.81-3.32-.24-.48-.44-1-.69-1.47-1-1.86.9,2.72.24.7-.34-1.05-.72-2.07-1-3.13s-.58-2.12-.82-3.19c-.16-.72-.3-1.44-.43-2.16s-.08-2.83-.12-.65c-.05,2.36,0-1.12-.06-1.76-.06-1.36-.06-2.71,0-4.07s.19-2.65.28-4c0,.21-.45,2.65-.1.86.22-1.09.37-2.19.59-3.27a75.84,75.84,0,0,1,2-7.74c.47-1.5,1-3,1.53-4.44.57-1.68-.16.38-.25.6.26-.62.52-1.24.79-1.86A144.72,144.72,0,0,1,78.83,135c4.1-6.92,1.57-17.53-5.26-21.38-7.23-4.07-15.68-1.78-20.06,5.61Z"/><path class="cls-4" d="M77.13,186.46A49.57,49.57,0,0,0,92.82,198c7.57,3.6,15.53,6.29,23.89,4.06,16-4.25,24.35-25.38,20.58-41.38-1.87-7.93-10.61-13.47-18-10.91A16.09,16.09,0,0,0,109,169c.77,3.25.2-2.25,0-.41-.28,3,.73.39.24-.3.27.38-.64,2.4-.74,2.8-.44,1.73,1.65-2.78-.24.2-.46.73-.91,1.49-1.35,2.24,1.18-2,.38-.49-.14,0-.91.86,2-1.51,2.65-1.7,1.69-.49,2-.35,0-.17-1.67.14,3,.93.13-.07-.63-.22-1.26-.39-1.88-.62,0,0-3.54-1.59-1.81-.72s-1.24-.69-1.56-.88-4.94-2.94-4.83-3.14,2.25,2.11.5.36c-.73-.73-1.44-1.44-2.13-2.21-5.3-5.94-15.47-6.11-20.74,0a16.7,16.7,0,0,0,0,22.09Z"/><path class="cls-4" d="M63.11,169.58C69.27,181.7,83,196.78,97,188.83c12.29-7,12.94-26,10.52-38.77-1.52-8-10.86-13.38-18-10.91-8,2.76-11.87,10.62-10.24,19.22.67,3.55.22-2.27.14,1.06,0,.45,0,5.33.08,3.19s-.4,1.91-.54,2.46-.33,1.27-.53,1.9a10.66,10.66,0,0,1,3.8-5.13l7.4-2.13c2-.14,3.18,1.24,4.79,2-1.1-.5-2.26-2.22-3-3.15-.42-.47-.82-1-1.2-1.46.92,1.3,1.07,1.5.47.59-.68-1.31-1.51-2.54-2.18-3.87-3.65-7.19-13.55-10.07-20.06-5.6a16.56,16.56,0,0,0-5.26,21.37Z"/><path class="cls-4" d="M87,128.81q-3.42,1.42-1.23.68c1.55-.34,1-.28-1.51.18l.81,0q2.37.15-1.49-.3a9.15,9.15,0,0,1,1.17.31q1.63.54-1.64-.83a12.94,12.94,0,0,1,1.38.83c-1.88-1.66-2.27-2-1.17-.85,5.53,5.68,15.31,6.29,20.73,0s5.9-16,0-22.09a25.56,25.56,0,0,0-13.47-7.63c-6.68-1.18-12.24-.19-18.37,2.75-3.15,1.51-5.86,5.94-6.74,9.34a16.83,16.83,0,0,0,1.48,12c2,3.34,5,6.28,8.76,7.18,4.07,1,7.51.25,11.29-1.57Z"/><path class="cls-4" d="M89.55,109.87q2.46-.69-.51-.1-3-.69-.51,0c-5.23-2.55,4.58,1.87,2.87,1.24a26.26,26.26,0,0,0,5.52,1.25c.41.06,7.12,1.09,3.21.31,1.14.23,2.25.61,3.38.85,1.55.59,1.46.5-.29-.27.7.34,1.37.71,2,1.11s3.78,1.76.75.32c1.17.55,2.33,2.39,3.14,3.4l20.73-22.09a75.83,75.83,0,0,0-16.64-12.07c-7.86-4.3-15.44-8.19-24.49-5.69-7.07,2-11.44,9.63-10.5,17.14s7,13.59,14.4,13.55c1.84,0,3.67.2,5.5.2,2.13,0-2.35-.53-.27-.08.8.18,1.6.3,2.39.49,1.78.42,3.46,1.07,5.2,1.62-1.19-.37-1.63-.87-.22-.05.87.51,1.74,1,2.59,1.55.33.23,2.23,1.84.84.55s.4.5.64.75c.44.45,1.8,1.63,1.9,2.2-.13-.74-1.27-2.1-.36-.26a20.43,20.43,0,0,1,1.06,2.06c-.11.09-.87-3-.28-.48.1.42.47,3.64.39,1.32-.09-2.56-.11,1.25-.12,1.41-.19,8.17,6.89,16,14.66,15.62,8.12-.39,14.45-6.86,14.66-15.62.33-13.57-6.68-25.38-16.71-33.14-9-7-20.88-9.45-31.87-9.39l3.9,30.69c-1.35.37-2.16-.2-3.33-.21-.92-.48-.7-.38.64.31l1.15.6c1.91,1,3.82,2,5.69,3.1,1.68,1,3.34,2,4.94,3.07.89.61,1.76,1.23,2.61,1.89-2-1.59.18.26.9,1,5.67,5.5,15.2,6.42,20.73,0,5.73-6.65,5.32-15.43,0-22.09A38.26,38.26,0,0,0,107.93,82.4c-2.56-.48-5.16-.63-7.73-1,1.46.27,1.66.27.61,0s-.86-.23.15.2,1.06.5.32.16l-2.23-1a24,24,0,0,0-17.29-1C74.42,82.08,69,90.81,71.52,99c2.4,7.91,10.16,13.41,18,10.91Z"/><path class="cls-4" d="M46.18,126.56c-2.87,4.2-4.19,9.91-5.39,14.91a55.14,55.14,0,0,0-1.78,17c.64,8.12,6.28,16,14.66,15.62,7.7-.37,15-6.87,14.66-15.62l-.47-13.65c-.27-7.81-5.38-14.29-12.71-15.34a14.61,14.61,0,0,0-16.09,11.19c-2.28,10.42-2.18,21.4,1.25,31.54,2.5,7.38,8.52,12.27,16.09,11.19,6.73-1,13.27-7.57,12.71-15.34-.29-4-.78-8-1.11-11.94-.16-2-.28-4-.3-6,0-1,.06-2,.06-3l.1-1.48c-.26,1.75-.3,2.1-.12,1,.37-1.42.74-2.87,1.1-4.3.48-1.9-1.24,2.29-.23.64.38-.61.66-1.32,1-1.95s1.69-1.79.38-.67.27,0,.6-.46c1-1.39-2,1.16-.52.39.75-.39,3-1.58-.2-.2,7.09-3,12.87-10.55,10.24-19.21-2.22-7.31-10.42-14.18-18-10.91-10.9,4.66-18.33,13.12-21.87,25.13C37.05,146,39,157.07,39.79,168.07l28.8-4.16c-.6-1.75-1-3.54-1.5-5.31q-.47-2.74-.12.05c-.07-.69-.12-1.38-.15-2.08-.09-1.63,0-3.23,0-4.86q.26-2.78,0,0c.16-.92.34-1.83.55-2.73l-28.79-4.16L39,158.48H68.33a34.26,34.26,0,0,1,0-5.73c-.3,3.45.58-2.31.74-3,.45-1.88,1-3.76,1.51-5.62q.33-1.18.72-2.34-1.11,2.74.2.51c4.52-6.63,1.27-17.69-5.26-21.37-7.6-4.28-15.23-1.48-20.05,5.61Z"/><path class="cls-4" d="M79,83c-15.43-1.26-26,14.64-31,28.14a57.83,57.83,0,0,0-.51,37.8c2.65,7.65,10.06,13.66,18,10.91,7-2.42,13.08-11,10.24-19.21-.65-1.91-1.07-3.83-1.6-5.77-.79-2.87,0,1.88-.07,0,0-1-.16-2-.18-3s0-2,0-3-.2-3.73-.12-.05a21.92,21.92,0,0,1,1.28-5.91c.1-.35.45-2.17.74-2.31-.69,1.66-.81,2-.37.92.24-.56.49-1.11.76-1.65.8-1.65,1.8-3.15,2.69-4.74s-1.66,1.78.17-.17c.06-.07,2.5-2.77.93-1.18s.67-.66,1.24-.69l-1.52.8q-3.27.3-.75.37c7.66.63,15-7.63,14.66-15.62C93.32,89.57,87.25,83.62,79,83Z"/><path class="cls-4" d="M72.17,85.55c-17.1,3.26-28.35,19.65-33,36.41-4.73,17.18-5.91,38.7,8,51.65,5.77,5.38,15.13,6.5,20.73,0,5.08-5.9,6.16-16.35,0-22.09a19.88,19.88,0,0,1-1.59-1.59c-.89-1.09-.95-1.16-.21-.21s.69.86,0-.33c-.73-1.55-.7-1.34.11.61-.6-.7-.7-2.45-.93-3.3-.86-3.21-.13,3.09-.09-1,0-1.46.06-2.91.09-4.36.18-1.87.16-1.94,0-.21.1-.72.22-1.44.35-2.17.51-2.92,1.13-5.84,1.92-8.69.36-1.3.77-2.57,1.18-3.85,1.06-3.34-1,1.57.52-1.23.74-1.34,1.59-2.73,2.24-4.11q1-1.53-.63.74c.46-.6.94-1.19,1.44-1.76s1.57-2.14,2.39-2.43c-1.39,1.1-1.65,1.31-.78.66.45-.34.91-.66,1.39-1s1.27-.77,1.94-1.11l-1.48.65c.83-.82,3.19-1,4.27-1.19,7.57-1.44,12.52-11.7,10.24-19.21-2.63-8.66-9.92-12.46-18-10.92Z"/><path class="cls-4" d="M69.81,170.18c-.46-2.11-.93-4.22-1.31-6.34,0-.31-.48-3.25-.28-1.49.24,2-.1-2.28-.1-2.22,0-.88,0-1.76,0-2.64,0-1.77.24-1.1-.1.22.27-1,.56-2.14.77-3.19.41-2-1.42,2.84.33-.49,3.75-7.14,1.83-17.38-5.26-21.38-6.91-3.89-16.06-2-20,5.61-6.73,12.81-5.29,26.51-2.28,40.23,1.74,8,10.7,13.44,18,10.91,7.8-2.69,12.11-10.68,10.24-19.22Z"/><path class="cls-4" d="M42.6,121.16c-3.44,14.62-8.74,30.34-8,45.58.72,14.8,7.36,30,20.39,36.78,6.89,3.56,16.17,2.25,20.06-5.6,3.47-7,2.11-17.57-5.26-21.38-.34-.17-2.67-1.11-2.75-1.62,1.57,1.38,1.75,1.51.54.41l-.73-.76c-.48-.52-.94-1.06-1.37-1.62l1.06,1.4c-.51-.09-1.25-2.27-1.57-2.83-1.59-2.79.58,2.6-.11-.34-.25-1.05-.52-2.15-.82-3.19-.87-3.05-.05,3.12-.09-.53,0-1.69-.11-3.36,0-5.06,0-.5.43-4.72.2-3s.45-2.48.54-3c.55-2.88,1.21-5.73,1.88-8.58q2.16-9.21,4.34-18.4c1.86-7.91-2.41-17.31-10.24-19.22a14.82,14.82,0,0,0-18,10.91Z"/><path class="cls-4" d="M134.42,168.33l-.56,6.54c-.08.95-.16,1.9-.25,2.85-.14,1.55-.42,2.73,0,.52-.17.88-.3,1.77-.51,2.64-.12.49-1.39,3.66-.45,1.7s-.37.55-.55.86c-.49.89-1,1.74-1.59,2.57,1.78-2.61-.83.71-1.61,1.5s-1.51,1.4-2.25,2.11c-1.58,1.53,1.76-1.16-.06,0-3.45,2.26-6.8,4.67-10.32,6.83-6.64,4.1-9.54,14.31-5.26,21.38s12.95,10,20.06,5.6c9.43-5.81,18.31-12.14,24.75-21.68,6.66-9.85,6.92-21.82,7.92-33.45.71-8.16-7.24-16-14.66-15.62-8.54.41-13.9,6.88-14.66,15.62Z"/><path class="cls-4" d="M74.29,225.29c8.42,8.32,19.14,8.24,29.79,6.31a56,56,0,0,0,23.48-10.54c6.23-4.74,9.83-13.83,5.26-21.37-4-6.58-13.38-10.69-20-5.61a55.45,55.45,0,0,1-7.47,4.76c-3.49,1.87,2.61-.79-1.13.46-1.39.47-2.77,1-4.2,1.35s-2.85.69-4.3.94c2.62-.45.14-.07-1.09,0-.71,0-2.62.4-3.28,0,2.08.35,2.33.32.73-.09a6.51,6.51,0,0,1,3,1.77c-5.62-5.56-15.24-6.38-20.73,0-5.21,6-6,16.16,0,22.09Z"/><path class="cls-5" d="M81.3,136.15c-.13-.07-.1.18-.12,0S81.33,136.07,81.3,136.15Z"/><path class="cls-5" d="M113.05,136.69c.21.72-.64.76-.68,1.36,0,.06-.23-.23-.26-.08,0,.64-.73,1-1.39,1l0-.09c-.13,0,0,.33-.15.37s0-.09-.1-.14c.1.17-.1.2-.06.33-.08,0-.16-.15-.26-.18l.08.21c.15.5-.37.22-.42.58,0-.05,0-.09-.07-.12-.15.47-.61.69-.93,1a.73.73,0,0,0-.14-.26.35.35,0,0,1-.09.42c-.16-.17-.08.28-.26.24l0,0c0,.26-.19-.05-.14.24l-.14-.12c.11.31-.21-.08-.21.1l0,.06c0,.11-.14,0-.19.06l0,0c-.12.16-.29,0-.18.26-.14-.15.11-.15-.1-.37a3.64,3.64,0,0,1-1.52.9c-.1-.07-.15-.08-.2-.17,0,.07-.18.12-.19.25s-.08-.1-.11-.1,0,.29-.17.23a.29.29,0,0,0,0-.24c0,.21-.16.23-.25.33a.27.27,0,0,0,0-.15c0,.25-.23,0-.3.19v-.15c-.23-.11,0,.3-.14.25,0-.05,0-.1,0-.16-.06.29-.32.28-.43.4a.35.35,0,0,0,0-.06c-.15.08-.32.06-.47.2-.07,0-.07-.34-.21-.25.07.28-.25.18-.08.47-.15,0-.4-.06-.47.06,0-.12-.14-.33,0-.38l-.13-.15c0-.12.1,0,0-.12,0,0-.2.18-.26.14-.07.2-.1.54-.27.61.06-.13-.11-.31-.06-.37l-.15.59s0-.22-.12-.13a.4.4,0,0,1,0,.19s-.24.12-.31-.15c0-.11.09-.08,0-.17s-.1.12-.21.14v0c-.08,0-.19.14-.09.29,0,0,0-.17,0-.1a.28.28,0,0,1-.26.25.41.41,0,0,0,0-.2,1.12,1.12,0,0,1-.42.44c0,.14,0-.25.06-.18-.23-.16-.41.33-.62.06,0,0,0,.19,0,.15s-.12-.2-.18-.12c0-.12-.08,0-.15.08s0-.05,0-.07c-.09.1-.47.31-.71.16,0,.08-.12.29-.18.28v-.18c0-.1-.17,0-.18-.13-.11.22.41-.2.27,0,0-.15-.19.28-.17,0-.11,0-.2.21-.31.05,0,0,.08-.25,0-.23s0,.08-.16.14l-.08.08c0,.17-.13,0-.07.17,0-.14-.22.09-.2-.2v-.22c-.06,0-.1.24-.15.34a.3.3,0,0,1,0-.1c0,.34-.15,0-.23.23-.14-.12-.35,0-.41-.23-.1.1-.2.22-.32.14a.16.16,0,0,0,.07-.12c-.07-.1-.09,0-.16,0s-.14-.2-.22-.33c-.1.1-.08.29-.1.4-.07-.34-.3.2-.4-.12,0,0,.16-.15.08-.25-.06-.34-.2.24-.34.06v.29c0-.18-.24.14-.2-.14-.06.09-.17-.11-.18.16-.22-.24-.62.07-.71-.44,0,0-.12,0-.12.13s.09-.1.1,0,0,.07-.06.11-.12-.1,0-.32c-.14-.19-.24.44-.44.3,0-.11,0-.15,0-.14l-.16.17c-.13-.06,0-.27,0-.46-.08,0-.17,0-.23.13l-.05-.25c0,.18-.08.1-.12.14l0,0c0-.08-.09,0-.14,0a.28.28,0,0,0,.11.23c-.06.08-.11.05-.18.14,0-.19-.1-.16-.15-.19s-.11.15-.13.14-.11,0,0-.16,0,.1.09,0,0-.25-.11-.15,0,.37-.16.23a1.28,1.28,0,0,0,.1-.17l-.1-.12,0,.16s0-.05,0-.08c-.07.17-.2,0-.27.21-.07,0-.1-.15-.16-.18h0c0-.12-.17-.08-.25,0v0a.18.18,0,0,0-.21.07c-.07-.15.12-.64,0-.46-.1,0-.24.27-.22.39-.16-.16-.44.06-.54-.25,0,.06,0,.11-.1.13-.25-.15-.62,0-.73-.36.1-.05,0-.16.08-.26-.11.13,0-.17-.13.07s-.07.22,0,.3a.4.4,0,0,1-.47-.22.13.13,0,0,1-.07.15c.09-.23,0-.31-.13-.26l-.06.14v-.16s-.14.28-.18.11a.45.45,0,0,0,0-.16c-.13.09-.33.24-.39.08v-.23s-.16.1-.12.19c-.11-.19-.21-.25-.19-.45a1,1,0,0,1-1.19,0l0-.1c0-.14-.13.16-.15.06s0-.25.15-.34c-.07-.16-.24.11-.34.12s.1-.06,0,.1-.12-.18-.24,0a.84.84,0,0,1,.16-.31l-.12.07c0-.28.41-.33.45-.67h-.08c0-.24.29-.15.16-.3-.12.06-.33.32-.3.45-.19,0-.31.44-.47.35,0-.14.14,0,.2-.15s-.21,0-.25-.08c0,.12-.13.29-.2.3,0-.14.15-.16,0-.25-.08.11-.23.13-.18.27-.18.23-.08-.14-.26,0,.06-.2.35-.36.27-.52-.07.19-.29.15-.36.45,0-.08,0-.22.14-.3s-.36.22-.19-.14l-.12.16c0-.07,0-.13,0-.25s-.34.13-.18-.13c0,0-.18-.08-.23.13s.18-.07.09.21c0-.24-.15-.05-.24,0l.05-.11c-.05,0-.11-.05-.2.05a.18.18,0,0,0,.08-.16l-.12.14c-.18,0,.13-.3,0-.33l.17-.06s0-.16-.08-.14-.26.27-.34.37.06-.18-.09-.08l.19-.12s.08-.27,0-.32-.31.16-.26.3c0,0-.06-.16,0-.24-.13,0-.08.16-.23.19,0-.11,0-.31,0-.49l.24-.18-.06,0c.2-.13,0-.17.22-.33,0-.06-.11,0-.18,0-.09.39-.42.33-.57.64-.22,0,.36-.76-.11-.44,0,.1-.25.25-.09.25-.09-.11-.27.23-.31,0,.17-.06.1-.35.35-.43-.08.09,0,.12.06.11s.2-.28.1-.35-.17-.07-.26.08.11.05,0,.19c-.16,0,0-.29-.27,0,.1,0,0,.21-.08.32h-.14l.09-.09c-.09-.18-.18.16-.31,0l.09-.26c.17-.15.15.24.34-.07-.09-.08-.22,0-.26-.1s.07,0,.11,0,.23-.44-.06-.31-.1.08-.18.19c-.18-.08-.3,0-.41-.07.18-.19-.15-.15.12-.28,0,.16.17.32.38.16s.08.12.31-.11c-.11-.09.08-.33.18-.51,0,0-.1,0-.14,0s-.09.17-.2.33a.37.37,0,0,0-.47-.07c0-.1.14-.24.21-.21a.88.88,0,0,1-.43-.4c-.11.32-.2-.08-.31.17a.42.42,0,0,1-.18.41c0-.05.09-.1.11-.17-.17.08.08-.28-.15-.13.2,0,.27-.26.46-.43-.19,0,.12-.12,0-.2a1.2,1.2,0,0,1-.51-.06c0-.28-.32-.32-.44-.42,0-.15.26-.3.24-.4s-.16.27-.18.07l0,0c-.08,0-.06-.33-.38-.09l.25-.17s-.07,0-.11,0,.11-.16.19-.17c.08-.2-.17-.11-.24-.18l-.08.16c-.22,0-.17-.24-.33-.33l.14-.11h-.15c.15-.09.17-.23,0-.17l.48-.09c0,.12-.2.08-.3.23s0,.21.19.12c0-.06-.06,0-.13,0,.16-.17.22-.1.36-.17,0,0,0-.1-.06-.06a.22.22,0,0,1,.25.07c-.11,0-.09.13-.15.16.16-.14.26-.11.31,0-.12.23.27.05.32.2a1.06,1.06,0,0,1-.49.17c0,.14.08.07.07.21.14-.08.34-.23.49-.22l-.11.12c.13,0,.29-.15.36,0a1.75,1.75,0,0,0,.4.5L83,138c.3-.19.32.12.52.09.07.27.47.19.39.47a3.22,3.22,0,0,1,1,.54l-.19.14c.16-.09,0,.14,0,.15,0-.19.22-.14.34-.22.05.24.35.22.57.17l-.08.13c.29-.16.32.16.46.3s0,.22,0,.23c.22-.16.26-.11.47-.17a.77.77,0,0,1,.3.34c.55-.1.83.31,1.34.3l0,.18c.55-.16.91.37,1.33.32l-.15.28c.07.14.28,0,.33-.19.07.13.33-.05.31.22.09.1.19-.08.29-.09a.63.63,0,0,0,.51.22l0,0c0,.06-.09.18,0,.22s.27.17.31-.21c.16.28.58,0,.72.34,0-.11.08-.11.12-.17.2.06.36.31.57.18,0,.06-.1.16,0,.19s0-.13.11-.17c.37-.11.63.36.94.36a7.49,7.49,0,0,1,1.66.14l0,.07c.21-.26.38.35.57-.08,0,.08.15.05.11.19.15-.19.37.23.59,0,0,0,0,0,0,0,.2.19.39,0,.6.12a.26.26,0,0,0-.07.13c.07.15.21-.31.24.06,0,0,0-.19,0-.18a2.89,2.89,0,0,0,1.47-.17c.36.21,0,.61.32.33,0,.07,0-.14,0-.07.11-.11.2.4.26.2s.05-.13,0-.27c.22.13.29.33.45.15v.12c.18-.35.43-.19.55-.6a26.11,26.11,0,0,0,3.07-.92c1-.22,1.92-.72,3-1,.35.18.37.16.56-.08,0,0,0,.07,0,.11-.1-.24.16-.11.08-.34a5.8,5.8,0,0,0,1-.56c0,.05,0,.25.09.2v-.18l0,.05a.19.19,0,0,0-.07-.23c.72-.7,1.81-.84,2.51-1.54.25-.07.42-.38.56-.58a2.5,2.5,0,0,0,1.71-1.39S113.14,136.33,113.05,136.69Z"/><path class="cls-5" d="M81.43,136.25c-.08.1-.07.22-.25.27A2.11,2.11,0,0,1,81.43,136.25Z"/><path class="cls-5" d="M82.29,139s0,.06,0,.08-.13.05-.1,0S82.24,139,82.29,139Z"/><path class="cls-5" d="M82.76,139.49a.3.3,0,0,1-.33,0Z"/><path class="cls-5" d="M83,140.25c0,.11-.06.14-.12.09A.34.34,0,0,1,83,140.25Z"/><path class="cls-5" d="M83.16,140.07s0,.1,0,.17C83.23,140.16,83,140.21,83.16,140.07Z"/><path class="cls-5" d="M84.11,141.15s.14,0,.1.1C84.23,141.16,84,141.28,84.11,141.15Z"/><path class="cls-5" d="M84.75,141.36s0,0,0,0-.07.11-.1.1Z"/><polygon class="cls-5" points="95.81 144.52 95.74 144.57 95.76 144.46 95.81 144.52"/><path class="cls-5" d="M100.84,144.37c.06-.08.06.1.07.12S100.92,144.35,100.84,144.37Z"/><polygon class="cls-5" points="103.36 143.31 103.34 143.31 103.29 143.09 103.36 143.31"/><path class="cls-5" d="M77.71,112.62c.06-.17-.21,0,0-.14C77.76,112.56,77.8,112.62,77.71,112.62Z"/><path class="cls-5" d="M78.32,112.27a.62.62,0,0,1,.54-.58,1.87,1.87,0,0,1,.88.06,4.17,4.17,0,0,0,.51.08c.09,0-.18.26,0,.29.86,0,1.45,1.27,1.27,2.09l-.1,0c0,.16.31.26.28.42-.06,0-.09,0-.17,0,.19,0,.11.25.24.33-.07,0-.22,0-.3.06l.2.14a.32.32,0,0,1,.08.5c-.12.14-.26.22-.3.45,0-.06,0-.11-.09-.13a.68.68,0,0,1-.15.26c-.39.4-1.13.27-1.69.21a.55.55,0,0,0,.09-.28c-.09.2-.32.2-.51.17,0-.24-.38.06-.53-.16l0,0c-.26.12-.14-.24-.41-.08v-.2c-.25.21-.09-.28-.29-.24l0,.05c-.15,0-.09-.19-.21-.25l0,0c-.26-.17-.18-.42-.39-.29.12-.18.22.2.38-.09a1.22,1.22,0,0,1-.32-1.31,1.45,1.45,0,0,1,1.12-.9c.13.11.18.09.22.19.08-.06.32,0,.42-.13s0,.14.07.17.25-.19.37,0c-.09,0-.13.08-.15.18.19-.09.34.09.47.21,0,0-.08,0-.13,0,.26,0,.11.36.26.44h-.13c0,.16,0,.15.08.13s.17,0,.13.11c0-.05-.1,0-.15,0,.27.14.13.6.08.84,0,0,0,0,0,0-.09.25-.42.55-.52.39a1.3,1.3,0,0,1-.18-.21,1.53,1.53,0,0,0-.18-.18c.06.09,0,.11,0,.09s-.19,0,0,.26a1.3,1.3,0,0,1-.5-.44l-.12-.23c0-.08-.09-.17-.08-.19v-.23a1.3,1.3,0,0,0,0-.42c.09.2.25.3.27.44v-.07s0,.1,0,.1a.83.83,0,0,1,0-.38,3.88,3.88,0,0,1,0-.46,1.2,1.2,0,0,1,.06-.32.44.44,0,0,1,.14-.22c-.1.21.06.36,0,.43a1.87,1.87,0,0,1,.39-.77c.12,0,0,.22.15.15,0-.08.09-.12.16-.16s.48.14.36.42c0,.12-.16-.06-.12.1s.19.05.3.2l0,0c0,.12.24.26.3,0s-.1.14-.11,0c.17,0,.31.19.35.42,0-.06-.12,0-.19,0a1.06,1.06,0,0,1,.35.89c.13,0-.21-.14-.14-.19a3.61,3.61,0,0,0-.21.71c-.07.24-.22.52-.52.55,0-.06.18.12.14.1-.25.17-.36,0-.49.11-.07-.11-.2.11-.41.11s-.06-.06.11-.06a1.05,1.05,0,0,1-.82-.15,1.6,1.6,0,0,1-.67-.71s-.31-.22-.34-.34l.12,0c0-.09-.13-.34,0-.35-.09-.12,0,.1.08.29s.26.34.13.22c0-.07-.34-.37-.17-.32-.08-.19-.22-.43-.13-.6,0,.06.14.21.13,0s0-.09-.06-.34v-.16c-.09-.08.1-.25,0-.22.07,0,.17-.46.28-.27l.08.16a2.81,2.81,0,0,0,0-.45s.06,0,.07,0c-.11-.25.23-.2.31-.48a1.35,1.35,0,0,0,.24-.08l.11-.12a.15.15,0,0,1,.13-.06c.17,0,.33,0,.39.15a.64.64,0,0,1,.69,0c-.06,0-.12,0-.16,0s.18.08.33.1c0,0,0,.09.08.2l0,.07h0l0,0h0v0l0,0a.64.64,0,0,1,.06.16c.22,0,.29-.14.38-.21,0,.2.11.26.26.35s.31.22.23.4c-.08,0-.3-.17-.28,0-.21.31.4.19.35.54l.24-.16c-.12.18.28.4,0,.44.13.08,0,.35.24.29a4.6,4.6,0,0,0-.09.84c0,.28-.14.53-.42.58,0,.08-.09.22.05.24s0-.19.07-.19,0,.1.09.12c-.12.13-.19.22-.34,0-.29.19.26.55-.14.89-.07-.09-.13-.1-.21,0a2.25,2.25,0,0,1-.08.33c-.29.16-.29-.11-.4-.26l-.2.17a.34.34,0,0,0-.08.17,2.26,2.26,0,0,1-.26-.16c.19.12-.07.15-.13.21l0-.07c0-.07-.19,0-.28,0s.23.14.34.14c0,.1-.19.11-.28.23,0-.19-.29-.1-.42-.13s-.18.16-.23.15-.24,0-.11-.17.11.11.2,0c-.1-.08-.06-.24-.26-.15s0,.37-.3.19c.09,0,.12-.1.19-.15l-.23-.16-.06.16s0-.06,0-.08c-.13.14-.4-.1-.54,0-.13-.06-.19-.25-.28-.34h0a.44.44,0,0,0-.42-.26l0,0a.58.58,0,0,0-.34-.22c0-.25.49-.44.19-.48a.33.33,0,0,0-.48,0c-.09-.36-.48-.67-.31-1.07-.07,0-.11,0-.17-.09,0-.52-.28-1.2.16-1.58,0,.17.16,0,.26.07-.12-.16.19-.09-.05-.21s-.22-.07-.33.07c0-.35.24-.88.49-1-.12.05-.12,0-.11-.14.19.16.36,0,.42-.21l-.09-.13.19,0c0-.09-.16-.29.08-.31a.55.55,0,0,0,.15.08c.06-.22.2-.56.46-.56l.25.12c.07-.07.15-.26,0-.24.39,0,.61-.07.76.09a1.43,1.43,0,0,1,1-.53,2.59,2.59,0,0,1,1.15.12l-.05.11c.15.15.15-.17.26,0-.09.08,0,.27-.12.35.19.2.38-.07.57,0,.08-.12-.17,0-.06-.13s.29.27.44.1c0,.12-.12.23-.19.29h.19c0,.32-.61.19-.59.57l.12,0c0,.25-.4.07-.19.29.16,0,.45-.24.39-.39.29.11.43-.37.72-.12,0,.16-.26-.16-.32,0s.33.13.4.29c-.06-.18.2-.24.31-.18.06.22-.24.06-.07.27.13-.06.37.08.3-.15.29-.1.12.28.39.28-.12.19-.55,0-.47.34.14-.16.42.18.6-.11a.22.22,0,0,1-.27.21c0,.19.53.24.18.45h.21a1.87,1.87,0,0,1-.14.3c0,.14.39.49.07.51,0,0,0,.43.25.28s-.17-.27.1-.45c-.21.22.07.37.14.54l-.12,0c0,.09,0,.29.13.36a.11.11,0,0,0-.19,0l.17.12c0,.37-.32,0-.35.35a2,2,0,0,0-.08-.26s-.17.12-.15.27a4.74,4.74,0,0,1,.39.36c0,.21-.2,0-.12.25a1.49,1.49,0,0,0-.09-.3s-.31,0-.4.24.08.47.28.31c-.06.11-.23.19-.29,0-.09.25.18.07.13.32a5.35,5.35,0,0,1-.69.17c0-.12,0-.23-.06-.35l-.09.11c-.06-.28-.19,0-.3-.28-.08,0-.1.16-.11.27.46.08.12.59.38.8-.31.35-.68-.53-.75.14.11,0,0,.38.24.16-.25.1,0,.39-.36.41.15-.23-.36-.22-.15-.54,0,.11.19,0,.22-.05-.15-.07-.14-.31-.35-.21s-.29.15-.21.32.21-.1.19.12c-.27.17-.4-.11-.43.26.18-.08.29.1.33.23l-.22.14,0-.14c-.41,0-.06.27-.46.31l-.21-.23c0-.23.55,0,.41-.34-.22,0-.27.23-.51.16.05,0,.12,0,.16-.09s-.2-.47-.49-.18c-.17.11,0,.13,0,.27a6.48,6.48,0,0,1-.77.13c.1-.25-.42-.12-.1-.33.08.19.66.25.78,0-.12-.32.28,0,.34-.28-.27,0-.25-.31-.29-.51-.06,0-.12.07-.17.1,0,.19,0,.19,0,.38a1.14,1.14,0,0,0-.8.12c-.07-.12,0-.29.13-.28a1.69,1.69,0,0,1-1-.45c0,.39-.35-.17-.38.13s.14.46,0,.51c-.1-.1.08-.11.07-.2-.24,0,0-.36-.34-.27.35.17.3-.24.5-.38-.26,0,.12-.13,0-.27a1.28,1.28,0,0,1-.69-.38c0-.38-.36-.7-.44-1,.08-.17.37-.15.38-.3s-.26.19-.19-.08h.06c-.09-.07.12-.46-.27-.52l.31.06s0-.08-.08-.12.18-.06.24,0c.21-.14,0-.29,0-.45l-.19.08c-.11-.3.11-.47.13-.74l.16.06a1.06,1.06,0,0,1,0-.19c.14.1.29,0,.2-.12a2,2,0,0,0,.26.5c-.13.07-.17-.16-.35-.16s-.18.27,0,.34,0-.1,0-.18c.24,0,.2.16.35.25,0,0,.08-.08,0-.11a.34.34,0,0,1,.08.32c-.08-.11-.15,0-.21,0,.21,0,.25.17.19.33-.24.12.17.3.13.47a.76.76,0,0,1-.5-.24c-.1.14,0,.14-.07.29.17.05.41.05.54.17l-.15,0c.12.12.34,0,.35.22a1.61,1.61,0,0,0,.34.72l-.11.11c.32-.13.39.2.61.15.18.28.57.07.65.36a5.71,5.71,0,0,0,1.35-.38l0,.24c0-.19.12.1.19,0-.18-.11,0-.27,0-.42.28,0,.37-.32.32-.53l.13.09c-.14-.31.17-.34.29-.55.07,0,.22,0,.22-.08-.23-.17-.2-.22-.37-.36a2,2,0,0,1,.07-.4c-.48-.24-.66-.71-1.19-.72l0-.18a1.8,1.8,0,0,1-.76,0,.77.77,0,0,0-.63.12l0-.31c-.16,0-.25.18-.12.37-.15,0-.13.25-.33.08-.12,0,0,.19,0,.28-.22.06-.22.14-.24.31l0,0c-.06,0-.18-.1-.22-.06s-.16.26.22.27c-.12.07-.09.2-.06.33a.32.32,0,0,1,0,.37c.09,0,.13,0,.2,0,0,.16,0,.45.18.47,0,.05-.17.06-.14.13s.11-.08.19-.08.17.13.22.23.1.21.2.2l.22-.16a.53.53,0,0,0,.24-.42l.07,0c-.12-.09,0-.14,0-.22s.08-.17-.14-.19c.07,0,0-.11.16-.12-.11,0-.09-.11-.08-.19s0-.17-.13-.12,0,0,0,0c.06-.19-.15-.07-.18-.23a.65.65,0,0,0,.09-.11c0-.16-.2.27-.15-.08,0,0,0,.18,0,.17a.25.25,0,0,0-.35.13.38.38,0,0,0,0,.38c-.06.13-.34,0-.1.15,0,0,.07,0,0,0s-.06.19.06.17.07,0,.1-.07.17.2.27.1v0a1.3,1.3,0,0,0,.13-.19.1.1,0,0,0-.06-.16c.1-.18-.13-.36-.22-.18s0,.18,0,.17,0-.06,0-.06h0c0,.21-.06-.28,0-.23h0a.5.5,0,0,0-.16-.17l-.06,0h0l.39.11H78.8s-.06,0,0,0l-.06,0s0,0,.1,0a.26.26,0,0,0-.09,0c.21-.13.07.07.28-.07a1.72,1.72,0,0,0,.9.49c-.07,0-.17.19-.08.2l.13-.13v.07a.18.18,0,0,0,.12-.22h.18s0,0,0,0a.12.12,0,0,0,.18,0s0,0,0,0,0-.09,0-.16a1.23,1.23,0,0,0-.17-.44,1.16,1.16,0,0,0-.57-.7,1.39,1.39,0,0,0-.3-.53.42.42,0,0,0-.45-.13c-.16,0-.23.18-.16.25a1.19,1.19,0,0,1-.31-.16A.41.41,0,0,1,78.32,112.27Z"/><path class="cls-5" d="M77.62,112.81c-.12,0-.25,0-.35-.12A1.31,1.31,0,0,1,77.62,112.81Z"/><path class="cls-5" d="M77.18,116.75s0,.09,0,.12-.18,0-.17-.09S77.12,116.77,77.18,116.75Z"/><path class="cls-5" d="M78.28,117.5c-.06.11-.37.08-.54,0A3.21,3.21,0,0,0,78.28,117.5Z"/><path class="cls-5" d="M79.48,118.18c.12.09.09.15-.08.14C79.39,118.26,79.45,118.23,79.48,118.18Z"/><path class="cls-5" d="M79.57,117.92a.29.29,0,0,1,.22.12C79.78,117.94,79.54,118.11,79.57,117.92Z"/><path class="cls-5" d="M82.35,117.17c.05-.06.1-.24.24-.2C82.48,117,82.42,117.33,82.35,117.17Z"/><path class="cls-5" d="M83.08,115.93s0,0,0-.1.12.06.1.13Z"/><path class="cls-5" d="M81.19,113.61l.1.11-.11,0A.57.57,0,0,0,81.19,113.61Z"/><path class="cls-5" d="M80.79,113.74c-.09-.11.07-.14.08-.18C80.91,113.7,80.74,113.57,80.79,113.74Z"/><polygon class="cls-5" points="79.34 115.3 79.32 115.29 79.16 115.05 79.34 115.3"/><path class="cls-5" d="M111.44,112.74c.06-.17-.21,0,0-.14C111.49,112.67,111.53,112.74,111.44,112.74Z"/><path class="cls-5" d="M112.05,112.39c0-.41.42-.62.8-.61s.73.14,1.14.16c.08,0-.18.27,0,.3.85,0,1.44,1.26,1.26,2.09l-.1,0c0,.15.31.26.28.41s-.09,0-.17,0c.19,0,.11.25.24.33-.07,0-.22,0-.3.06l.2.13a.33.33,0,0,1,.08.51c-.11.14-.26.22-.3.44,0,0,0-.11-.08-.13a.63.63,0,0,1-.16.27c-.39.39-1.13.27-1.69.2a.42.42,0,0,0,.09-.27c-.09.2-.31.19-.5.17,0-.24-.39.06-.54-.16l0,0c-.26.13-.14-.23-.4-.07V116c-.26.22-.1-.27-.3-.23l0,0c-.15,0-.09-.19-.21-.25l0,0c-.25-.17-.18-.42-.39-.3.12-.18.22.21.39-.08a1.21,1.21,0,0,1-.33-1.31,1.47,1.47,0,0,1,1.12-.91c.13.12.19.09.22.2.08-.06.32,0,.42-.13s0,.14.08.17.24-.2.36,0a.19.19,0,0,0-.15.17c.19-.08.34.1.47.21,0,0-.08,0-.13.06.26,0,.12.35.26.44a.48.48,0,0,1-.12,0c0,.17,0,.16.08.14s.16,0,.13.1c0,0-.11,0-.16,0,.27.14.13.59.08.84,0,0-.05,0-.05,0-.09.25-.42.56-.52.39a1.8,1.8,0,0,1-.18-.2,1,1,0,0,0-.18-.18c.06.08,0,.11,0,.09s-.19,0,0,.26a1.3,1.3,0,0,1-.51-.44l-.12-.24c0-.07-.09-.16-.07-.19v-.22a1.43,1.43,0,0,0,0-.43c.08.21.24.31.27.45a.25.25,0,0,1,0-.08s0,.11,0,.11a.84.84,0,0,1,0-.38,3.88,3.88,0,0,1,0-.46,1.91,1.91,0,0,1,.06-.33.46.46,0,0,1,.14-.21c-.1.2.06.35,0,.42a2,2,0,0,1,.4-.77c.11,0,0,.23.14.15,0-.07.09-.12.16-.16s.49.14.36.43c0,.11-.16-.06-.12.09s.19.06.3.21l0,0c0,.12.24.25.31,0s-.11.13-.11,0c.16,0,.3.19.34.41,0,0-.11,0-.19,0a1.06,1.06,0,0,1,.35.9c.13,0-.21-.14-.14-.19a3,3,0,0,0-.2.71c-.08.24-.22.52-.53.55,0-.06.18.12.15.1-.26.17-.37,0-.49.11-.08-.11-.21.11-.42.1s-.06,0,.11-.06a1,1,0,0,1-.82-.14,1.65,1.65,0,0,1-.67-.71s-.31-.22-.34-.34l.12,0c0-.1-.13-.35,0-.35-.09-.12,0,.1.09.29s.25.34.12.22c0-.07-.33-.38-.17-.32-.07-.19-.22-.43-.13-.6,0,0,.14.21.13,0s0-.09-.06-.34v-.17c-.09-.07.1-.24,0-.21.06,0,.16-.46.27-.27l.08.15a2.55,2.55,0,0,0,.05-.44s.06,0,.07,0c-.1-.26.23-.2.32-.49a1.19,1.19,0,0,0,.23-.07l.12-.12s.07-.08.12-.06.33,0,.39.14a.68.68,0,0,1,.7,0c-.06,0-.13,0-.17.06.12.15.18.07.33.1,0,0,0,.09.08.19l0,.08h0l0-.05h0v0l0,0,.07.16c.21,0,.28-.14.37-.21,0,.2.11.26.26.35s.31.22.23.4c-.07-.05-.3-.17-.28,0-.21.3.4.19.35.54l.24-.16c-.12.18.29.4,0,.43.12.08,0,.36.23.29a4.81,4.81,0,0,0-.09.85c0,.28-.14.53-.42.58,0,.08-.09.21,0,.24s0-.19.08-.19,0,.1.08.12c-.12.12-.19.22-.34,0-.28.2.27.56-.14.9-.07-.1-.13-.1-.21,0s0,.22-.07.33c-.29.16-.3-.11-.41-.26-.06.07-.14.12-.2.18a.34.34,0,0,0-.08.17,2.2,2.2,0,0,1-.25-.17c.18.13-.08.15-.14.21l.06-.06c0-.07-.2,0-.29,0s.24.13.35.14c-.06.1-.19.11-.29.22,0-.19-.29-.1-.42-.13s-.18.17-.22.16-.25,0-.11-.17.1.11.19,0c-.09-.09-.06-.25-.26-.16s0,.38-.3.2c.09,0,.12-.1.19-.16l-.22-.15-.07.16s0-.06,0-.09c-.13.14-.39-.1-.54.05-.13-.06-.19-.26-.28-.35h0a.43.43,0,0,0-.42-.26l0,0a.54.54,0,0,0-.34-.21c0-.25.49-.44.19-.48a.33.33,0,0,0-.48,0c-.08-.36-.48-.68-.3-1.07-.08,0-.12,0-.18-.1,0-.51-.28-1.19.16-1.57,0,.17.16,0,.26.07-.11-.16.2-.1,0-.21s-.22-.07-.32.07c0-.36.23-.88.48-1-.11,0-.11,0-.11-.14.19.16.36,0,.42-.22l-.09-.12h.2c0-.08-.17-.28.08-.31a.31.31,0,0,0,.14.09c.06-.23.2-.57.46-.56l.26.11c.06-.06.15-.25,0-.23.4,0,.61-.07.77.09a1.44,1.44,0,0,1,1-.54,2.72,2.72,0,0,1,1.15.13l0,.11c.15.15.15-.17.26,0-.09.08.06.27-.12.35.2.2.38-.08.57,0,.09-.12-.17,0-.06-.13s.29.27.44.1c0,.11-.12.23-.19.29h.2c0,.31-.62.18-.6.57l.12,0c0,.26-.39.08-.19.29.16,0,.45-.23.39-.39.29.12.43-.36.72-.11,0,.16-.26-.17-.31,0s.33.13.39.29c-.06-.18.2-.24.32-.18.06.21-.25.05-.07.27.12-.06.36.08.29-.15.3-.11.12.28.39.28-.12.18-.55,0-.47.34.14-.16.43.18.6-.12,0,.15-.12.23-.27.21,0,.2.53.25.18.46H117a2.37,2.37,0,0,1-.14.3c0,.14.38.49.06.51,0,0,0,.43.25.28s-.17-.27.1-.45c-.21.21.07.37.14.53l-.12,0c0,.09,0,.29.13.36a.1.1,0,0,0-.18,0l.16.12c0,.37-.32,0-.35.35a2.76,2.76,0,0,0-.08-.27c0,.06-.17.12-.15.27a3.5,3.5,0,0,1,.39.37c0,.21-.2,0-.11.24a2.47,2.47,0,0,0-.1-.29s-.3,0-.4.24.08.47.28.3c-.06.11-.23.2-.28.06-.1.25.17.06.12.32a5.6,5.6,0,0,1-.68.17c0-.12,0-.24-.07-.35l-.09.11c-.06-.28-.19,0-.3-.28-.08,0-.09.16-.11.26.46.09.12.59.38.81-.31.35-.67-.53-.75.14.11,0,.05.38.24.15-.25.11,0,.4-.36.41.15-.22-.35-.21-.15-.53,0,.11.2,0,.22,0-.15-.07-.14-.31-.35-.21s-.29.15-.2.31.2-.1.18.12c-.27.18-.39-.1-.43.26.19-.07.3.11.33.23l-.21.15v-.14c-.4,0-.06.27-.46.3a2.4,2.4,0,0,1-.21-.23c.06-.22.56,0,.41-.33-.22,0-.27.23-.5.15,0,0,.11,0,.15-.08s-.2-.47-.49-.18c-.16.11,0,.13,0,.26a5,5,0,0,1-.76.13c.09-.25-.43-.12-.1-.32.08.19.65.25.78,0-.13-.31.28.06.33-.28-.27,0-.25-.31-.29-.5-.06,0-.12.07-.16.09,0,.19,0,.2,0,.39a1,1,0,0,0-.79.12c-.08-.13,0-.29.12-.28a1.69,1.69,0,0,1-1-.45c0,.39-.35-.17-.38.13s.15.46,0,.51.08-.11.07-.2c-.24,0,0-.36-.33-.27.35.17.29-.24.49-.38-.25,0,.12-.13,0-.27a1.43,1.43,0,0,1-.69-.38c0-.38-.36-.7-.44-1,.08-.17.37-.14.38-.29s-.26.19-.19-.09l.06,0c-.08-.08.13-.46-.26-.53l.3.07c0-.05,0-.09-.08-.12s.18-.06.25,0c.2-.14,0-.29,0-.46l-.19.09c-.1-.31.11-.47.13-.75l.16.07c0-.06,0-.13,0-.19.14.09.3,0,.2-.12a2.62,2.62,0,0,0,.26.5c-.13.07-.17-.17-.35-.16s-.18.27,0,.34c0-.09,0-.1,0-.18.23,0,.2.16.34.25s.08-.09,0-.11a.36.36,0,0,1,.09.31c-.09-.1-.16,0-.22,0,.21,0,.25.16.2.32-.25.13.16.3.12.48a.77.77,0,0,1-.5-.25c-.1.15,0,.15-.07.3a1.31,1.31,0,0,1,.55.17l-.15,0c.11.12.34,0,.35.21a1.5,1.5,0,0,0,.33.73l-.11.11c.33-.14.39.19.62.14.17.28.56.08.64.36a5.78,5.78,0,0,0,1.36-.37l0,.24c0-.19.11.09.18,0-.18-.11,0-.27,0-.42.28,0,.37-.32.33-.54l.13.09c-.14-.3.16-.33.28-.54.07,0,.22,0,.22-.08-.23-.17-.2-.23-.36-.36a1.87,1.87,0,0,1,.07-.4c-.48-.25-.66-.71-1.19-.72l0-.18a1.79,1.79,0,0,1-.76,0,.74.74,0,0,0-.62.13l-.06-.31c-.16,0-.25.18-.12.37-.14,0-.13.25-.33.08-.11,0,0,.19,0,.27-.22.06-.22.15-.24.32l0,0c-.06,0-.18-.1-.22-.06s-.16.25.23.26c-.13.07-.1.21-.06.33a.34.34,0,0,1,0,.38c.09,0,.13,0,.2,0,0,.16,0,.45.18.46,0,.06-.17.06-.13.13s.11-.08.18-.07.18.13.22.22.1.21.2.2l.23-.15a.58.58,0,0,0,.23-.42l.08,0c-.13-.1,0-.15,0-.22s.09-.17-.14-.19c.07,0,0-.12.16-.13-.11,0-.08-.1-.08-.19s0-.17-.13-.11,0,0,0,0c0-.19-.15-.08-.18-.23a.63.63,0,0,0,.08-.11c0-.16-.19.27-.15-.08,0,0,0,.18,0,.17a.24.24,0,0,0-.34.13.37.37,0,0,0,0,.37c0,.14-.34,0-.1.15,0,0,.07,0,0,0s-.06.19.06.17.06,0,.09-.07c.08.11.17.2.27.11v0a1.3,1.3,0,0,0,.13-.19.1.1,0,0,0-.06-.16c.1-.18-.12-.36-.22-.19s0,.19,0,.18,0-.07,0-.06h0c.05.21,0-.28,0-.23h0v0h0s0,0,0,0a.42.42,0,0,0-.16-.17l-.06,0h0c-.09,0,.74.2.39.1h0l0,0h-.11s-.06,0-.05,0,0,0,.09,0-.06,0-.09.06c.21-.14.07.06.28-.08a1.65,1.65,0,0,0,.91.5c-.07,0-.18.19-.09.2l.13-.13V115a.2.2,0,0,0,.12-.22H114a0,0,0,0,0,0,0s0,0,0,0a.11.11,0,0,0,.17,0s0,0,0,0,0-.09,0-.16a1.35,1.35,0,0,0-.17-.45,1.12,1.12,0,0,0-.56-.69c-.14-.35-.29-.6-.51-.66s-.53.14-.41.24a1.12,1.12,0,0,1-.31-.15A.43.43,0,0,1,112.05,112.39Z"/><path class="cls-5" d="M111.36,112.93c-.13,0-.26,0-.36-.12A1.39,1.39,0,0,1,111.36,112.93Z"/><path class="cls-5" d="M110.91,116.87s0,.09,0,.12-.17,0-.17-.09S110.85,116.89,110.91,116.87Z"/><path class="cls-5" d="M112,117.62c-.05.11-.37.07-.54,0A3.24,3.24,0,0,0,112,117.62Z"/><path class="cls-5" d="M113.21,118.29c.12.1.09.15-.07.15S113.18,118.35,113.21,118.29Z"/><path class="cls-5" d="M113.3,118a.24.24,0,0,1,.22.11C113.51,118.06,113.27,118.23,113.3,118Z"/><path class="cls-5" d="M116.08,117.29c0-.06.1-.24.24-.2C116.21,117.08,116.15,117.45,116.08,117.29Z"/><path class="cls-5" d="M116.81,116.05s.06,0,0-.11.12.06.1.14Z"/><path class="cls-5" d="M114.92,113.73l.11.1-.12,0A.62.62,0,0,0,114.92,113.73Z"/><path class="cls-5" d="M114.52,113.86c-.09-.12.07-.15.08-.18C114.65,113.81,114.47,113.69,114.52,113.86Z"/><polygon class="cls-5" points="113.07 115.42 113.05 115.41 112.89 115.17 113.07 115.42"/><path class="cls-5" d="M98.06,116c0-.14-.21,0,0-.12C98.09,115.92,98.15,116,98.06,116Z"/><path class="cls-5" d="M97.27,117c.7.25.3,1,.81,1.34,0,0-.32.09-.2.19.57.31.53,1.11.36,1.76h-.1c0,.13.3.17.29.29s-.09,0-.16,0c.18,0,.14.18.29.18-.06.07-.2.11-.26.19h.22c.53,0,.1.44.42.6,0,0-.09,0-.13,0,.41.3.5.8.74,1.2a.55.55,0,0,0-.28.07.36.36,0,0,1,.39.18c-.2.12.25.14.18.31h0c.25,0-.09.19.21.18l-.15.12c.32,0-.11.19.06.23l.07,0c.1,0,0,.14,0,.2l0,0c.13.14,0,.29.22.21-.17.12-.13-.13-.38,0a4.21,4.21,0,0,1,.72,1.64c-.07.1-.09.15-.17.19s.11.2.24.21-.11.08-.11.11.3,0,.22.18a.3.3,0,0,0-.24,0c.22,0,.23.18.32.27a.37.37,0,0,0-.15,0c.25.06,0,.24.19.31h-.15c-.11.23.31,0,.25.15,0,0-.1,0-.16,0,.29.06.28.32.41.47h-.06c.07.18,0,.35.15.57-.06.06-.35-.08-.3.1.3,0,.09.33.42.32-.07.17-.28.36-.26.5,0-.12-.33-.13-.29-.25l-.21,0c-.11-.09.08-.05-.07-.12s0,.25-.09.24c.09.2.23.51.06.64,0-.13-.24-.23-.22-.3a2.13,2.13,0,0,1,0,.57c-.06,0-.12-.19-.18-.1a.31.31,0,0,1,0,.19s-.3.15-.4-.12c-.06-.1.09-.08,0-.16s-.11.11-.23.14v0c-.09,0-.21.14-.11.29,0,0,0-.17,0-.09a.29.29,0,0,1-.28.24c0-.05,0-.12,0-.2a1.08,1.08,0,0,1-.45.43c0,.13,0-.25.08-.18-.24-.17-.44.3-.64,0,0,0,0,.19,0,.15s-.11-.2-.18-.13c0-.11-.08,0-.15.08s0,0,0-.07a.67.67,0,0,1-.72.14c0,.07-.14.28-.19.27l0-.18c0-.1-.18,0-.19-.13-.11.22.43-.19.28,0,0-.15-.21.29-.18,0-.11,0-.21.21-.31,0,0,0,.09-.24,0-.23s0,.09-.16.15l-.08.07c0,.17-.14,0-.08.17,0-.15-.23.08-.2-.21l0-.22c-.06,0-.11.23-.17.33a.28.28,0,0,1,0-.1c0,.34-.16,0-.25.23-.13-.12-.35,0-.4-.24-.11.09-.22.21-.33.13s.06,0,.07-.11-.09,0-.17,0-.13-.21-.21-.34c-.11.1-.09.28-.11.4-.06-.35-.31.19-.41-.13,0,0,.17-.15.09-.25-.06-.34-.21.23-.35,0v.29c0-.18-.25.14-.2-.15-.06.1-.17-.11-.19.16-.13-.24-.93,0-.9-.49-.07,0-.16,0-.21.1s.17-.08.15,0-.1.06-.12.1-.14-.13.07-.31c-.11-.2-.51.37-.74.17.09-.09.1-.13,0-.15l-.29.09c-.13-.13.1-.24.25-.39-.11,0-.19-.08-.34,0l.11-.22c-.08.16-.15,0-.22,0h.07c0-.06,0-.11-.1-.15a.23.23,0,0,0-.06.26c-.11,0-.14-.06-.26-.07.17-.08,0-.21,0-.3s-.19,0-.19,0,0-.16.12-.14-.07.11,0,.12.21-.15.07-.22-.35.16-.26-.06a.54.54,0,0,0,.19,0,1.67,1.67,0,0,1,.08-.2l-.17,0s.06,0,.08,0c-.18,0-.05-.24-.26-.23,0-.09.15-.21.18-.29h0a.2.2,0,0,0,0-.32h0a.25.25,0,0,0,0-.27c.2-.13.7,0,.53-.14,0-.12-.22-.28-.36-.24.24-.23.14-.67.43-.66-.05-.06-.1-.06-.11-.13.18-.22.06-.61.46-.65,0,.1.16.08.25.12-.12-.13.17,0-.06-.14s-.2-.1-.29-.06c0-.18.1-.4.27-.42-.09,0-.12,0-.14-.1.22.12.3,0,.26-.09l-.13-.08.17,0s-.27-.17-.1-.19a.48.48,0,0,0,.15,0c-.07-.13-.2-.34,0-.38l.23,0s-.09-.17-.18-.13c.2-.1.26-.19.45-.16a1,1,0,0,1,.06-1.17l.1.06c.13,0-.16-.13-.06-.15s.24,0,.33.16c.17-.07-.1-.24-.11-.34s0,.1-.11,0,.18-.12,0-.24a1,1,0,0,1,.31.16l-.07-.12c.28,0,.33.41.67.45v-.08c.24,0,.15.3.31.16-.07-.12-.33-.33-.45-.3,0-.18-.45-.3-.36-.46.14,0,0,.14.15.19s0-.2.07-.24c-.11,0-.29-.12-.3-.19s.17.15.25,0c-.11-.08-.15-.23-.28-.17-.24-.17.14-.09,0-.26.21.06.38.33.53.25-.19-.07-.17-.28-.47-.34.08,0,.22,0,.32.13s-.25-.34.12-.19l-.17-.11a2,2,0,0,1,.25,0c0-.06-.15-.33.12-.19,0,0,.07-.17-.15-.21s.09.17-.2.1c.25,0,0-.14,0-.23l.11,0s0-.11-.07-.19a.19.19,0,0,0,.17.07l-.15-.11c0-.17.3.1.31,0l.08.15s.16,0,.14-.09l-.41-.29c0-.11.19,0,.07-.1l.13.18s.28.06.32,0-.19-.28-.32-.23a.16.16,0,0,1,.23,0c0-.13-.16-.06-.21-.2.11,0,.31,0,.49,0l.2.22,0-.06c.16.17.17,0,.36.17,0,0,0-.11,0-.18-.4,0-.39-.36-.72-.47,0-.22.8.25.41-.17-.1,0-.29-.2-.26,0,.09-.09-.27-.22-.08-.29.08.16.36,0,.48.27-.1,0-.11,0-.1.08s.31.16.36,0,0-.17-.12-.24,0,.12-.19,0c0-.17.28-.06,0-.27,0,.1-.2,0-.32,0l0-.14.11.08c.16-.12-.19-.15-.09-.29l.27,0c.18.13-.2.18.14.31.06-.1-.09-.21,0-.26s0,.06,0,.1.48.14.3-.13-.11-.07-.23-.13c0-.18-.06-.29,0-.4.22.14.11-.17.3.06-.17,0-.27.22-.07.39s-.1.11.17.28c.07-.13.35,0,.54.08,0,0,0-.1,0-.14-.17-.1-.19,0-.36-.13a.35.35,0,0,0-.05-.46c.11,0,.28.08.26.15a1.07,1.07,0,0,1,.28-.51c-.33,0,0-.21-.25-.25a.42.42,0,0,1-.44-.07s.12.06.19.07c-.12-.14.3,0,.09-.18,0,.2.32.2.53.33-.07-.17.15.08.21,0a1.2,1.2,0,0,1-.09-.51c.28,0,.19-.39.25-.53s.37.14.45.08-.3-.06-.12-.14l0,0c0-.07.28-.18,0-.39l.25.17s0-.06,0-.1.19.05.22.12c.23,0,.06-.19.1-.29l-.19,0c0-.21.16-.25.18-.43l.15.08,0-.13c.14.09.28.05.17,0l.27.41c-.12,0-.15-.16-.33-.19s-.17.14,0,.23,0-.07,0-.13c.23.08.18.16.3.27s.09,0,0-.08a.21.21,0,0,1,0,.26c-.06-.1-.15,0-.2-.08.18.1.2.22.09.31s0,.28-.09.39a1.18,1.18,0,0,1-.32-.41c-.14,0,0,.09-.18.13.12.11.33.24.37.4l-.15-.07c0,.14.24.24.14.35a2.77,2.77,0,0,0-.38.56l-.14-.06c.26.23,0,.36,0,.54-.24.15-.08.52-.38.52a2.86,2.86,0,0,1-.35,1.15l-.18-.16c.12.14-.14,0-.14.07.2,0,.17.2.27.3-.24.1-.17.4-.1.62l-.14-.06c.19.28-.13.35-.26.52-.07,0-.22,0-.23,0,.18.22.13.26.21.48a.92.92,0,0,1-.34.34c.12.57-.29.9-.3,1.42l-.18,0c.15.59-.42.95-.41,1.4l-.27-.17c-.14.07,0,.29.17.36-.14.07,0,.34-.26.3-.11.09.06.21,0,.32a.69.69,0,0,0-.28.52l0,0c0-.06-.17-.12-.21-.07s-.22.26.16.34c-.31.14-.1.62-.48.72.11,0,.1.09.15.15s-.1.08-.14.11-.07,0,0,.07-.17,0-.19,0,.14,0,.19,0,0,0-.06.11-.21.14-.17.18a2.9,2.9,0,0,0,.49.09l0,.08c.07-.14.06-.07.09,0s.17.12.26-.09c0,.08.15.06.1.2.17-.19.38.23.62,0,0,0,0,0-.06,0,.2.19.4,0,.61.14a.18.18,0,0,0-.08.12c.08.16.22-.3.25.07.05,0,0-.18,0-.18a3.14,3.14,0,0,0,1.51-.13c.37.21,0,.61.32.33,0,.07,0-.14,0-.06.11-.1.19.4.26.21s0-.13,0-.27c.22.14.28.34.45.16v.12c.19-.34.44-.19.58-.58a8.08,8.08,0,0,0,.8-.16.24.24,0,0,0,.09-.12.16.16,0,0,0-.08-.17v0s0-.19-.09-.31L99,127a10.19,10.19,0,0,1-.41-1.67c.22-.35.21-.37,0-.62,0,0,.07,0,.1,0-.24.06-.08-.19-.32-.15a8.89,8.89,0,0,0-.4-1.2c0,.05.26,0,.22,0l-.18,0,.06,0a.2.2,0,0,0-.25,0c-.54-1-.37-2.19-.75-3.22a1.76,1.76,0,0,0-.31-.85,3.66,3.66,0,0,0-.35-2.43S97,116.66,97.27,117Z"/><path class="cls-5" d="M98,116.14c-.12,0-.23,0-.35-.11A3.58,3.58,0,0,1,98,116.14Z"/><path class="cls-5" d="M95.72,117.91s-.06,0-.08,0-.08-.1,0-.1S95.68,117.88,95.72,117.91Z"/><path class="cls-5" d="M95.37,118.48a.32.32,0,0,1-.1-.31Z"/><path class="cls-5" d="M94.68,118.83c-.11,0-.15,0-.12-.09A.27.27,0,0,1,94.68,118.83Z"/><path class="cls-5" d="M94.9,119s-.1,0-.16,0S94.73,118.88,94.9,119Z"/><path class="cls-5" d="M94,120.05s0,.13-.07.1C94,120.16,93.88,120,94,120.05Z"/><path class="cls-5" d="M93.91,120.68s0,0,0,0a.12.12,0,0,1-.12-.1Z"/><polygon class="cls-5" points="94.03 130.7 93.95 130.75 93.98 130.64 94.03 130.7"/><path class="cls-5" d="M99.15,130.7c.06-.08.06.1.08.12S99.23,130.68,99.15,130.7Z"/><polygon class="cls-5" points="101.31 128.59 101.31 128.61 101.08 128.55 101.31 128.59"/></g></svg>