<svg id="레이어_1" data-name="레이어 1" xmlns="http://www.w3.org/2000/svg" xmlns:xlink="http://www.w3.org/1999/xlink" viewBox="0 0 200 200"><defs><style>.cls-1{fill:none;}.cls-2{fill:#d1d1d1;}.cls-3{clip-path:url(#clip-path);}.cls-4{fill:#46b9cc;}.cls-5{fill:#202020;}</style><clipPath id="clip-path"><circle class="cls-1" cx="99.61" cy="100" r="100"/></clipPath></defs><circle class="cls-2" cx="100.39" cy="100" r="100"/><g class="cls-3"><path class="cls-4" d="M184.88,188.9c16-16.7,33.15-36,32.57-58.89-.2-7.7-2.47-15.16-5-22.41-7.8-22.41-20.31-45.85-42.82-53.9-25.46-9.1-55.86,6.76-68,31s-8.38,53.93,4.22,77.6c9.31,17.47,25.53,33.59,45.61,33.83,21.74.25,40-18.67,46.78-39.21a80.14,80.14,0,0,0-2.83-57.51c-4-8.82-9.81-17.11-18.14-22.11s-19.46-6.16-28-1.24c-9.1,5.24-13.56,16.25-13.59,26.61s3.62,20.27,7.38,29.87c2.9,7.42,6.4,15.38,13.51,19.06,11.69,6,27-3.92,30.69-16.58s-.91-26.11-6.86-37.76c-3.76-7.38-13.13-15.32-19.12-9.4-2,2-2.64,5-3,7.79a87.81,87.81,0,0,0,3.55,38.82c1.12,3.43,2.57,6.94,5.37,9.22,4.09,3.33,10.18,3.22,15.18,1.29,10.31-4,17-14.66,18.41-25.49S199,97.8,194.43,88c-6.18-13.14-15.38-25.28-28.06-32.51s-29.16-8.91-42.25-2c-16.5,8.67-24,28-27.39,46.14C92.86,120.08,93.54,144,109,157.85c16.68,15,42.75,11.72,64.82,6.22"/></g><path class="cls-5" d="M117.8,101.94c-.18,0,0,0,0,.06Z"/><path class="cls-5" d="M117.77,102v0S117.78,102,117.77,102Z"/><path class="cls-5" d="M117.73,102.29c-.15,0,0-.14-.2-.11S117.5,102.34,117.73,102.29Z"/><polygon class="cls-5" points="117.84 102.16 117.72 102.19 117.92 102.19 117.84 102.16"/><polygon class="cls-5" points="117.93 102.09 117.89 102.11 118.03 102.17 117.93 102.09"/><path class="cls-5" d="M117.71,102.51l0-.05c.14-.09.22,0,.31-.07s-.33,0-.3,0c-.15,0,0,.14-.2.18C117.42,102.61,117.61,102.49,117.71,102.51Z"/><path class="cls-5" d="M118.2,106.72h0S118.22,106.73,118.2,106.72Z"/><path class="cls-5" d="M117.6,107.86a.16.16,0,0,0-.07,0,.09.09,0,0,0,.06,0Z"/><path class="cls-5" d="M118.15,105.84l.07,0S118.16,105.82,118.15,105.84Z"/><path class="cls-5" d="M112.28,108.34l0-.06h0l0,.06Z"/><path class="cls-5" d="M116.75,109.14a.13.13,0,0,0,0,.06S116.76,109.16,116.75,109.14Z"/><path class="cls-5" d="M118.29,105.44h0Z"/><path class="cls-5" d="M118.12,107.72s-.05,0-.05,0Z"/><path class="cls-5" d="M117.54,103.44s0,0,0,0S117.61,103.46,117.54,103.44Z"/><path class="cls-5" d="M117.56,103.78Z"/><path class="cls-5" d="M117.52,104h0S117.49,104,117.52,104Z"/><path class="cls-5" d="M117.57,103.48c-.1,0-.4,0-.06.07h0c-.08,0,0,0,.06.08h.08l0-.06C117.8,103.53,117.64,103.51,117.57,103.48Z"/><path class="cls-5" d="M118.15,106.69c.06,0,0,0,0,0Z"/><path class="cls-5" d="M118.11,106.23l0,0S118.12,106.25,118.11,106.23Z"/><path class="cls-5" d="M118.69,105h0Z"/><path class="cls-5" d="M118.07,106.29s0,0,0,0S118.06,106.27,118.07,106.29Z"/><path class="cls-5" d="M118.4,105.3h0Z"/><path class="cls-5" d="M109.72,104.64s0,0,0,.08c.22-.06,0-.08.17-.11,0,0,0,0-.08,0l-.17.12C109.68,104.71,109.64,104.66,109.72,104.64Z"/><path class="cls-5" d="M112.16,107.84v0c0-.09,0-.11,0-.17-.08.12-.11.34-.22.47s0,0,0,0A1.19,1.19,0,0,1,112.16,107.84Z"/><path class="cls-5" d="M112,108.18h0v0a0,0,0,0,1,0,0A.14.14,0,0,0,112,108.18Z"/><path class="cls-5" d="M110,105.28v0S110,105.27,110,105.28Z"/><path class="cls-5" d="M115.24,107l0-.07S115.22,107,115.24,107Z"/><path class="cls-5" d="M112.58,108.18a.05.05,0,0,0,0,0h0Z"/><path class="cls-5" d="M109.83,109.05c.16-.18,0,0,0-.14l-.11.07C109.74,109,109.8,109,109.83,109.05Z"/><polygon class="cls-5" points="109.77 104.58 109.75 104.59 109.76 104.59 109.77 104.58"/><path class="cls-5" d="M108.73,108.16v0S108.73,108.14,108.73,108.16Z"/><path class="cls-5" d="M112.17,108.35l.13.06,0-.07C112.22,108.45,112.23,108.22,112.17,108.35Z"/><path class="cls-5" d="M110.43,109.6l-.05.13c.31-.18.32.32.64,0,0,.56.32-.35.34.14l0-.07a2.65,2.65,0,0,0,2.16.48v.1a5.29,5.29,0,0,0,3.1-1.06c0-.14-.15-.28-.14-.42s.09-.07.16,0,.08.16.09.21.29-.07.28-.25l-.17-.07c0-.07.07-.08.1-.1s.2.18.2.23c-.09-.45.24,0,.28-.23a2.87,2.87,0,0,1-.32-.9h.11c-.06.07.19.17.09.24.14,0,.1-.17.21-.21-.08,0-.16-.12-.16-.17s.2.09.26,0l0,.12c.12,0,0-.09,0-.14s.21,0,.32.13c-.09-.2,0-.16,0-.31-.19,0-.14-.14-.24-.2l0,.13c.17-.07,0,0,.18.19-.13,0-.25-.32-.3-.2,0-.19.11-.15,0-.39,0,.1-.11-.1-.2-.11s.08,0,.23.09.15,0,0-.15c.11,0,.14.12.25.13s-.33.12.12.4c0,0,.09.23,0,.29.1,0,.31,0,.26-.15l-.24-.17c0-.06-.13-.19-.08-.21s.19.1.2,0-.05,0-.09,0-.13-.22-.12-.35a1,1,0,0,1-.35,0c-.17-.14,0-.07,0-.12s0,0,.06,0l-.06-.1c.14,0,.25.18.39.15s0-.13.08-.12l-.05,0h0c0-.07,0-.12-.08-.21.07,0,0-.06,0-.1s-.17-.21.08-.14h0a.2.2,0,0,1,.23,0l.11-.08.18.1c0-.13-.12-.17-.28-.32.14,0,.1-.2.05-.27a.06.06,0,0,0,0,0l-.1,0c0-.08-.06-.1,0-.16s0,0,0,0l0,0s0,0,0,0l.07,0c.23,0-.08-.14,0-.19a.1.1,0,0,0,0,0c.06,0,.35,0,.19-.06,0,0,0,0,0,0l0,0,0,0s-.12-.07-.08-.06l.07-.09s0-.05,0-.08h.09s0,0,.07,0c.32-.06-.1-.23.17-.33-.13-.05-.2,0-.28,0a1.29,1.29,0,0,1-.25-.2c.2,0,.41-.19.68-.12,0-.12-.18,0-.26-.06h0a.48.48,0,0,1-.25.06c-.15,0-.18-.12-.13-.14l.21,0c-.07-.12-.39-.13-.6-.21.09-.07.28,0,.47,0l0-.09h.16c0-.06-.19-.08-.12-.16s.16-.11.36,0-.26-.07,0-.09c-.17,0-.09,0-.15.06-.25,0-.1-.1-.17-.15.13,0,.15,0,.23,0-.09,0-.17,0,0-.09-.17,0,0-.07,0-.1a.32.32,0,0,1-.29.07c-.07,0-.1,0-.08-.12l-.07,0c-.24,0,.16-.1.09-.18a1.77,1.77,0,0,0,.22.08,2,2,0,0,1-.28-.16l.23-.09c-.12,0,0-.07-.16-.06.09-.09.2,0,.32,0s-.28-.06,0-.19h.15s-.09-.1,0-.11,0,0,0,0c-.32,0-.25-.12-.58,0v0c-.08-.06-.31-.06-.2-.14a.5.5,0,0,1,.32,0c0-.07-.37,0-.35-.06a.42.42,0,0,1-.26.07s-.06.14.08.1l0,0a.42.42,0,0,1,.16,0c0,.06-.14.06-.21.08s.34,0,.34,0l-.06,0c.09,0,.11.1.32.08-.21.07.1.1,0,.16-.47.06,0-.16-.26-.18-.09.06-.23,0-.34,0l.23.12c-.07,0-.29.08-.12.09h0c.06,0,.25,0,.19.07a.75.75,0,0,1-.15,0s.11,0,.15.06-.19,0-.25,0c.19,0,0,.09,0,.13.27,0,.37.18.61.07l.19.12c-.14,0-.39-.08-.61,0v-.09c-.33,0,.24.19-.15.24,0,0,0,0-.14.11h.3a.78.78,0,0,1-.29,0,.06.06,0,0,1,0,.07l-.1,0c-.17,0-.1,0,0,.05s.07,0,.06.07l-.11,0a.28.28,0,0,0,.11,0s0,0,0,0a1.13,1.13,0,0,0,.3,0c-.12.09-.07.19-.33.23-.09,0-.19-.06-.2,0s.09.1.22.12a0,0,0,0,1,0,0c-.08,0-.16,0-.17,0s-.06,0-.07,0c.23.06.1.12.2.16s0,0,0-.07.32.14.19.14-.25,0-.3-.1c-.31,0,.21.09.08.14h-.12c-.17,0-.07-.09-.13-.1v0c-.11-.06,0-.16-.19-.26l-.12.11c.15.22-.13.36.18.63h0l.11,0h0l.11.08a1.94,1.94,0,0,0-.36,0,.68.68,0,0,1,.23,0c.16.07.23.11.15.13s-.1-.07-.21-.07c.06,0,.14,0,.14.08s-.12,0-.23,0,0,0,0,0-.12,0-.2-.07v.06c-.1,0-.14-.08-.21-.1s.28.27.32.39l-.23-.12c-.1,0,.21.25.19.33s0-.06,0-.1a.93.93,0,0,1-.62.32l.2.2-.18-.07c-.28,0-.21.3-.29.5,0,0-.17-.11-.25-.15s.09.32,0,.46c0-.07-.19-.27-.24-.24s.13.16.07.14l0-.07c-.11-.08,0,0-.14,0s0,.3.08.61c-.11,0-.17-.25-.23-.29.12,0,0-.06,0-.15,0,.08,0,.15-.13,0,0,0,0,0,0,.18,0-.07.06,0,.1.09s-.13.09-.26-.12a1.82,1.82,0,0,1-.65.33c0,.14,0,0,.06.13s-.07-.06-.07.08l0-.14c-.07,0-.06.28-.11.42,0-.15-.09-.11-.06-.22,0,0-.25-.63-.23-.49l.2.63c0,.06,0,0,0,.07a1.16,1.16,0,0,0-.15-.25c0-.16,0-.13,0-.14-.07-.26-.13-.15-.15-.4,0,.06,0,.13,0,.24l-.06,0,.06.08c0,.09,0,.3-.08.16l0,.27c0-.21,0,0-.08-.08v-.14s0,0-.08-.1,0,0,0-.14l0-.06a1.12,1.12,0,0,0,0,.29c0,.23,0,.42-.13.42-.05-.21,0-.2,0-.4s-.11.55-.19.52-.08.1-.18.11c0-.14-.05-.16-.05-.29l.05-.15s-.05,0,0-.12c0,.2-.13.18-.2.25l0,.16c-.06,0-.15.13-.19.08s-.11.18-.22.34a1.56,1.56,0,0,1,.11-.49c0,.08.05,0,.07.1.13-.12.27-.44.34-.34.1-.39-.07,0-.09-.12s0,0,0,0a0,0,0,0,1,0,0,.46.46,0,0,0,.14-.29s-.11.39-.13.2c-.07.1,0-.21-.06-.25-.06.14-.14.46-.2.38l.09-.21c-.08,0-.13.31-.21.27s-.1.2,0,.23-.14.1-.17,0,0,.07,0,.14.13-.11.11.12l.11-.22a.57.57,0,0,1-.08.38s0,0,0,0c-.08.36,0-.14-.13.15h0c0,.24-.15.16-.2.13a.52.52,0,0,1,0-.35l.1,0c0-.15-.12,0-.16,0v0s0,0,0-.08-.13.06-.15,0l0,.14,0-.07s0,.12,0,.22,0-.21,0-.35.08,0,.15,0c.06-.23-.07-.05-.09-.23.14-.22.09,0,.2-.17,0,0-.13.1-.17,0s.12-.09.18-.23v-.08c.09,0,.11-.3.2-.32s-.13.17-.1,0c0,.1-.08.31-.17.37l0-.09c0-.12.17-.22.18-.33l-.08.06c0,.06,0,.11-.09.2,0-.09-.18.23-.27.31s0,0,0-.13c-.18.17-.28.09-.46.23.13-.1.13-.23.17-.34s.19-.2.27-.33a.65.65,0,0,0-.22.28c0-.12-.13.11-.09-.06s.14-.18.18-.26-.17.23-.2.14a.21.21,0,0,0,0-.07c0-.06-.1,0-.18.1.14-.27-.12,0,.07-.28-.13,0-.09.14-.17.21s-.1,0-.09-.11.09,0,.08,0l.11-.18c0-.2-.35.32-.34.1.12,0,.12-.11.24-.2,0,0-.08-.08-.14.08a.3.3,0,0,1,0-.13.7.7,0,0,0-.26.13c0-.06,0-.2.07-.29-.2,0-.11-.24-.32-.23h0c0-.11-.17.23-.24.14.2-.17.08-.17.16-.29s-.31-.06-.25-.27c0,0,.1-.06.11,0s-.07-.16-.11-.23l0,0c.09-.23-.19-.18-.31-.27l.14-.07c0-.09,0-.21-.24-.13.18-.2-.09,0,.06-.22,0,0,0,0,.06,0s0-.11,0-.17c-.2,0-.51.1-.48-.07.31-.16.11,0,.36-.09-.06,0-.14,0-.08,0a1.19,1.19,0,0,0,.2-.08c.07-.06-.38.06-.35,0s-.09.06-.07.08c-.21.06-.07-.12-.18-.15s0,.12-.19.16c0-.12-.29,0-.44,0,.11-.14.29,0,.51-.16a.91.91,0,0,1,.35-.15c0-.09-.19-.06-.27-.1l.07,0c-.07-.07-.38-.07-.27-.19L109,104s0-.06-.18,0c.11,0,.19-.12.29-.12-.36.06-.28-.14-.63-.11a1,1,0,0,1,.32-.07c0,.06-.08.1.07.09,0,0,.06-.1.15-.11-.24,0-.34-.09-.58-.07a.71.71,0,0,1,.35-.13c-.14-.13-.56.19-.59,0,.17-.11.26,0,.3-.08h0c.48-.15-.35,0-.35-.1.26,0,.2,0,.38,0-.08-.07-.48-.07-.4-.16h.12s0-.16,0-.22.05,0,.06,0-.14,0,0-.13l-.13,0c-.09,0-.21.13-.06.18-.15,0-.33.1-.56.09h.09a.92.92,0,0,0-.51.65c.29.08-.07.25.15.36.31,0,.07,0,.16.11-.06,0-.23,0-.26.11a.31.31,0,0,1,.16,0c-.1,0-.29.28-.08.27-.07.11-.1,0-.16,0s.14,0,0,.08h-.05c.05.11,0,.2,0,.34.29-.1.15.07.27.08-.1,0-.08.11-.12.16l.24,0c.2,0-.09.13,0,.17l0,0c.1,0,0,.23-.11.36a.52.52,0,0,1,.42.61c0,.26,0,.57.22.77.1,0,.11-.11.23-.17s.07,0,.1.09,0,0,0-.07l-.11,0,0,0s-.1,0-.11,0,.28-.13.26,0a.09.09,0,0,1-.07,0c0,.06.11,0,.08.07s0,0,0,.08v.21c.26-.1.13.14.13.17-.17.12-.12,0-.3,0l-.08.14.13-.1,0,.1,0,0c.06,0,.11-.07.08,0l0,0h.11c-.16.08,0,.07-.16.19.07.23.37,0,.31.35,0-.09.26-.17.28-.11a.19.19,0,0,1-.11.13l.13,0c-.15.28.06.21.09.38l-.07.06c.11,0,.2-.06.24,0l-.12.12c0,.16.29-.22.3-.07.12-.14.13-.26.23-.39-.1.15,0,.24,0,.12s.05.05,0,.09l.12,0s-.13.2-.22.27c.18-.11.15,0,.19.11l-.08,0,.06.09c.14-.07.22,0,.25.08l-.19.16c0,.14.08-.05.12-.07s.07.1,0,.24C110.33,109.2,110.12,109.84,110.43,109.6Zm8.14-4.65h0S118.46,104.89,118.57,105Zm-.31.72c-.06-.12,0,0,.1,0-.09.06,0,.13-.14.18l.15,0s-.09,0-.2,0S118.4,105.69,118.26,105.67Zm-.79-1.79h0Zm.17.4a.4.4,0,0,0-.11,0C117.6,104.29,117.65,104.29,117.64,104.28Zm-.47.65c-.1,0-.08,0-.07.06S117.16,105,117.17,104.93Zm-3.06,3.18a.24.24,0,0,0,0-.21c0,.09-.06-.05,0,.08h0A.44.44,0,0,0,114.11,108.11Zm-2.33.64a2.49,2.49,0,0,0,.11-.26h0a.22.22,0,0,1,0-.08s0-.06,0,0C111.75,108.68,111.68,108.72,111.78,108.75Z"/><path class="cls-5" d="M112.85,107.67s0,0,0,0Z"/><path class="cls-5" d="M111.88,108.39s0,0,0,.1A.11.11,0,0,0,111.88,108.39Z"/><path class="cls-5" d="M118.49,102.49l0,0,.09-.07a.73.73,0,0,0-.42,0c.16,0,.09.11.15.2Z"/><path class="cls-5" d="M117.44,102.73s-.15,0-.16.07h.1Z"/><path class="cls-5" d="M117,103.56l.08-.06C117,103.48,116.89,103.55,117,103.56Z"/><path class="cls-5" d="M118.74,103.21l-.12,0c-.08,0-.07.09,0,.1C118.61,103.22,118.74,103.25,118.74,103.21Z"/><path class="cls-5" d="M117,103.72c.2,0-.09,0,.1.08C117,103.78,117.2,103.74,117,103.72Z"/><path class="cls-5" d="M118.86,103.77c.18,0,0-.07.07-.13S118.73,103.75,118.86,103.77Z"/><path class="cls-5" d="M117.52,104.12c-.14,0-.12-.05-.08-.07l.12,0a.61.61,0,0,1-.14-.11.57.57,0,0,1-.34,0A1,1,0,0,0,117.52,104.12Z"/><path class="cls-5" d="M118.87,103.91c.06,0,.19-.07.18-.12s-.24,0-.22.08l-.16,0C118.55,103.89,118.89,103.82,118.87,103.91Z"/><path class="cls-5" d="M117.12,104.25h.07c-.12-.06,0-.11-.24-.17A.26.26,0,0,0,117.12,104.25Z"/><path class="cls-5" d="M118.55,104.1l.23,0c0-.06-.08,0-.13,0s.06,0,0,0S118.48,104,118.55,104.1Z"/><path class="cls-5" d="M118.77,104.34l.08.1.26,0C119,104.3,119,104.39,118.77,104.34Z"/><path class="cls-5" d="M118.6,104.42h0l.31.18A.91.91,0,0,0,118.6,104.42Z"/><path class="cls-5" d="M116.84,105.24c.08.05.21,0,.1,0S116.73,105.24,116.84,105.24Z"/><path class="cls-5" d="M118.62,105.67c-.08,0,0,.17,0,.24S118.75,105.71,118.62,105.67Z"/><path class="cls-5" d="M118.68,105.94v0S118.67,105.93,118.68,105.94Z"/><path class="cls-5" d="M117.89,108.16a0,0,0,0,0,0,0Z"/><path class="cls-5" d="M117.89,108.08s0-.1,0-.18a1.48,1.48,0,0,0,0,.26S118,108.16,117.89,108.08Z"/><path class="cls-5" d="M117.47,108.45c0-.07,0-.07,0-.13S117.41,108.41,117.47,108.45Z"/><path class="cls-5" d="M113.67,107.42s0,0,0,.14C113.69,107.55,113.66,107.47,113.67,107.42Z"/><polygon class="cls-5" points="113.63 107.59 113.62 107.52 113.58 107.41 113.63 107.59"/><path class="cls-5" d="M113.44,107.4v-.07A.08.08,0,0,0,113.44,107.4Z"/><path class="cls-5" d="M113.45,107.32h0Z"/><path class="cls-5" d="M113.46,107.37v-.05A.28.28,0,0,0,113.46,107.37Z"/><path class="cls-5" d="M113.39,107.38l0,.21c0-.11,0-.11,0-.34Z"/><path class="cls-5" d="M113.28,107.44c0-.07-.09.26-.1,0-.1.12,0,.42-.13.51.11.14.09-.49.18-.34C113.19,107.46,113.26,107.5,113.28,107.44Z"/><path class="cls-5" d="M113.29,107.87c0-.13,0-.14-.06-.06S113.27,108,113.29,107.87Z"/><polygon class="cls-5" points="113.09 107.54 113.07 107.44 113.06 107.52 113.09 107.54"/><path class="cls-5" d="M113,107.49l0-.15C113,107.4,113,107.38,113,107.49Z"/><path class="cls-5" d="M112.87,107.27c0-.06-.11.27,0,.21h0S112.83,107.29,112.87,107.27Z"/><path class="cls-5" d="M112.36,107.68s0,0,.07-.08l-.08,0Z"/><path class="cls-5" d="M112.09,108.47c0,.21.08,0,.1.1S112.17,108.48,112.09,108.47Z"/><path class="cls-5" d="M112.39,107.38c0-.07,0,0,.06,0S112.44,107.29,112.39,107.38Z"/><path class="cls-5" d="M112.28,107.42c0-.09,0-.11.06-.17s0-.09-.11,0a2.28,2.28,0,0,1-.17.4c.1,0,.27-.39.2-.1l.17-.32C112.41,107.15,112.31,107.45,112.28,107.42Z"/><path class="cls-5" d="M112.17,108.11V108c0,.12-.07.13-.11.15C112,108.39,112.15,108.12,112.17,108.11Z"/><polygon class="cls-5" points="111.88 107.4 111.78 107.42 111.79 107.45 111.88 107.4"/><polygon class="cls-5" points="111.87 107.31 111.91 107.24 111.78 107.33 111.87 107.31"/><polygon class="cls-5" points="111.84 107.19 111.84 107.21 111.92 107.17 111.84 107.19"/><path class="cls-5" d="M111.73,107.06l0,.11s0,.11.08,0C111.72,107.19,111.69,107.15,111.73,107.06Z"/><path class="cls-5" d="M109.54,109a.48.48,0,0,0,.12-.17l-.14.13S109.56,109,109.54,109Z"/><path class="cls-5" d="M109.62,108.66l-.21.12c.06.09.18,0,.27,0s-.13,0-.13-.06Z"/><path class="cls-5" d="M108.51,107.33c.11-.08.09-.08.2-.1-.13,0-.15-.08-.22-.15s-.22.1-.17.11l.13,0-.08,0C108.33,107.4,108.52,107.22,108.51,107.33Z"/><path class="cls-5" d="M108.21,103.1a.58.58,0,0,0,.19,0C108.32,103,108.23,103.11,108.21,103.1Z"/><path class="cls-5" d="M150.27,101.16c-.17,0-.05,0,0,0Z"/><path class="cls-5" d="M150.24,101.21l0,0S150.24,101.22,150.24,101.21Z"/><path class="cls-5" d="M150.1,101.48c-.14-.07.06-.14-.15-.18S149.87,101.45,150.1,101.48Z"/><polygon class="cls-5" points="150.25 101.39 150.13 101.38 150.31 101.44 150.25 101.39"/><polygon class="cls-5" points="150.36 101.35 150.31 101.36 150.43 101.45 150.36 101.35"/><path class="cls-5" d="M150,101.68l0-.06c.16-.05.22,0,.32,0s-.33,0-.27-.14c-.15,0,0,.15-.24.12C149.71,101.7,149.93,101.64,150,101.68Z"/><path class="cls-5" d="M150,105.91h0S150,105.92,150,105.91Z"/><path class="cls-5" d="M149.42,107h-.07s0,0,.06,0Z"/><path class="cls-5" d="M149.92,105.05H150S149.93,105,149.92,105.05Z"/><path class="cls-5" d="M144.18,107.6l0-.07h0l0,.06Z"/><path class="cls-5" d="M148.66,108.33a.09.09,0,0,0,0,.06S148.67,108.35,148.66,108.33Z"/><path class="cls-5" d="M150.07,104.67v0h0Z"/><path class="cls-5" d="M149.92,106.88l0,0A.06.06,0,0,0,149.92,106.88Z"/><path class="cls-5" d="M149.61,102.57s0,0,0,.05S149.67,102.61,149.61,102.57Z"/><path class="cls-5" d="M149.55,102.93h0S149.53,102.93,149.55,102.93Z"/><path class="cls-5" d="M149.47,103.15h0S149.44,103.14,149.47,103.15Z"/><path class="cls-5" d="M149.62,102.62c-.1,0-.39-.05-.08.06h.05c-.08,0,0,.06,0,.09h.08a.23.23,0,0,1,0-.05C149.83,102.72,149.68,102.67,149.62,102.62Z"/><path class="cls-5" d="M149.92,105.87c.05,0,0,0,0,0Z"/><path class="cls-5" d="M149.87,105.44l0,0S149.88,105.45,149.87,105.44Z"/><path class="cls-5" d="M150.5,104.24h0S150.52,104.25,150.5,104.24Z"/><path class="cls-5" d="M149.83,105.49l0,0S149.82,105.47,149.83,105.49Z"/><path class="cls-5" d="M150.19,104.55h0Z"/><path class="cls-5" d="M141.68,103.9s0,.06-.06.09c.22-.06,0-.08.17-.11,0,0,0,0-.07,0l-.18.11C141.63,104,141.6,103.92,141.68,103.9Z"/><path class="cls-5" d="M144.08,107.1v0a.29.29,0,0,0,0-.17,3.29,3.29,0,0,1-.23.46s0,0,0,0A1,1,0,0,1,144.08,107.1Z"/><path class="cls-5" d="M143.91,107.44h0v0a0,0,0,0,1,0,0A.14.14,0,0,0,143.91,107.44Z"/><path class="cls-5" d="M141.93,104.53v0S142,104.53,141.93,104.53Z"/><path class="cls-5" d="M147,106.27l0-.07A.25.25,0,0,0,147,106.27Z"/><path class="cls-5" d="M144.49,107.46s0,0,0,0h0Z"/><path class="cls-5" d="M141.74,108.29c.16-.18,0,0,0-.14l-.11.07C141.65,108.28,141.71,108.27,141.74,108.29Z"/><polygon class="cls-5" points="141.73 103.85 141.71 103.86 141.72 103.86 141.73 103.85"/><path class="cls-5" d="M140.65,107.4v0S140.64,107.38,140.65,107.4Z"/><path class="cls-5" d="M144.08,107.61l.13.06,0-.07C144.13,107.7,144.14,107.48,144.08,107.61Z"/><path class="cls-5" d="M142.33,108.84l-.05.13c.31-.17.3.32.63,0,0,.55.32-.35.33.15l0-.07a5.78,5.78,0,0,0,1,.48,1.75,1.75,0,0,0,1.13,0v.1a3.86,3.86,0,0,0,.9,0,6,6,0,0,0,.85-.27c.25-.13.51-.26.75-.4l.68-.46c0-.13-.17-.27-.18-.41s.09-.08.17,0,.09.15.1.21c.08-.09.29-.09.27-.27l-.18-.06c0-.07.07-.08.1-.1s.2.16.21.21c-.12-.43.24,0,.26-.24a2.85,2.85,0,0,1-.38-.87h.12c-.07.07.19.16.1.24.14,0,.09-.17.19-.22a.3.3,0,0,1-.17-.16c.07,0,.21.08.26,0l0,.12c.13,0,0-.09,0-.14s.2,0,.32.12c-.1-.19,0-.15,0-.3s-.13-.13-.24-.19l0,.13c.17-.08,0,0,.2.18-.14,0-.27-.31-.31-.19,0-.19.1-.15,0-.38,0,.09-.12-.11-.2-.11s.08,0,.23.08.15,0,0-.14c.11,0,.14.11.25.12s-.31.12.14.4c0,.05.1.22,0,.28.1,0,.31,0,.25-.15l-.24-.17s-.14-.18-.09-.2.19.1.19,0,0,0-.08,0-.14-.21-.13-.33a1.36,1.36,0,0,1-.35,0c-.16-.13,0-.07,0-.12s0,0,.06,0l-.06-.09c.14,0,.25.17.39.14s0-.12.07-.11l-.05,0,0,0h0c0-.07.06-.11-.07-.21.06,0,0,0,0-.09s-.17-.21.07-.14h0a.18.18,0,0,1,.23,0l.11-.08.17.1c0-.12-.11-.16-.26-.32.15,0,.11-.18.06-.26s0,0,0,0h-.09c0-.07-.06-.1,0-.15s0,0,0,0l0,0s0,0,0,0l.07,0c.22,0-.08-.14,0-.18a0,0,0,0,1,0,0c.07,0,.36,0,.2,0,0,0,0,0,0-.05l0,0,0,0s-.11-.08-.07-.07l.07-.08s0,0,0-.07h.09s0,0,.06,0c.32,0-.07-.23.22-.28a.74.74,0,0,0-.28-.06.94.94,0,0,1-.23-.21c.21,0,.42-.13.69,0,0-.11-.18,0-.26-.1h0a.48.48,0,0,1-.25,0c-.15,0-.17-.14-.12-.15l.2.08c0-.12-.36-.19-.55-.31.1,0,.28,0,.47.08l0-.1.16,0c0-.06-.17-.11-.09-.17.13.09.17-.07.35,0s-.24-.12,0-.09c-.16-.07-.09,0-.15,0-.25,0-.1-.12-.15-.18.13,0,.14.06.24,0-.1,0-.16-.09,0-.09-.16,0,0-.08,0-.11a.36.36,0,0,1-.3,0c-.06,0-.09-.07,0-.13l-.08,0c-.23-.1.18-.06.12-.16a1.76,1.76,0,0,0,.2.12,1.51,1.51,0,0,1-.23-.21l.24,0c-.12,0,0-.07-.14-.09.12-.07.19.09.3.12s-.26-.12,0-.19l.15,0s-.06-.11,0-.11,0,0,0,0c-.32-.06-.2-.19-.54-.21l0,0c-.06-.07-.28-.14-.16-.18s.23,0,.31.08-.36-.09-.32-.16a.34.34,0,0,1-.26,0s-.1.12,0,.12h0a.37.37,0,0,1,.15,0c0,.06-.15,0-.22,0s.33,0,.31.13h-.06c.08.06.08.13.28.17-.22,0,.08.12-.06.14-.47-.06.05-.15-.2-.24-.1,0-.22-.06-.32-.09l.18.18c-.06,0-.3,0-.14.06h0c0,.06.24.08.16.12a.57.57,0,0,1-.14,0c-.06,0,.1.06.13.1s-.19-.06-.25,0c.17.09-.06.08,0,.12.27,0,.32.26.57.21l.16.16c-.14,0-.35-.17-.58-.18l0-.09c-.34,0,.17.24-.21.21,0,0,0,0-.16.09l.3.06a.74.74,0,0,1-.3,0,.06.06,0,0,1,0,.07.15.15,0,0,1-.09,0c-.17,0-.11,0,0,0s.05.06,0,.09l-.1-.06a.15.15,0,0,0,.1.07.06.06,0,0,0,0,0,1.08,1.08,0,0,0,.32,0c-.15.07-.11.17-.37.19-.08,0-.17-.1-.19-.09s.08.12.2.16a0,0,0,0,1,0,0,.44.44,0,0,0-.18,0h-.06c.22.09.08.13.17.19a.07.07,0,0,0,0-.07c.14.09.3.18.17.17s-.26,0-.29-.13c-.31,0,.19.1.07.14h-.13c-.16-.07-.06-.11-.12-.12v0c-.11-.08,0-.17-.15-.3l-.14.11c.13.26-.18.39.1.69h0l.1,0h0l.11.09a1.48,1.48,0,0,0-.37,0,.53.53,0,0,1,.24.06c.15.08.22.12.13.14s-.09-.08-.2-.08c.07,0,.14.06.14.09s-.12,0-.23,0,0,0,0,0-.13,0-.2-.08v.07c-.1,0-.13-.1-.2-.11s.27.28.3.4l-.23-.12c-.1,0,.2.26.18.34s0-.06,0-.1a1.05,1.05,0,0,1-.64.34l.2.2-.18-.06c-.28.07-.22.3-.28.52,0,.06-.18-.1-.26-.13s.1.31.06.46c-.05-.08-.21-.27-.25-.23s.14.15.08.14l0-.07c-.12-.07-.05,0-.13,0s0,.29.1.59c-.1,0-.18-.24-.24-.27.12,0,0-.07-.05-.15,0,.08,0,.15-.12,0,0,0,0,0,0,.18,0-.06.06,0,.1.09s-.12.09-.26-.12a1.14,1.14,0,0,1-.28.21,2.23,2.23,0,0,0-.31.15c0,.13,0,0,.06.12s-.08-.06-.07.08l0-.13c-.07,0,0,.25-.09.4,0-.16-.09-.11-.06-.22s-.24-.63-.22-.48l.2.62c0,.06,0,0,0,.08a1.62,1.62,0,0,0-.14-.25c0-.16,0-.14,0-.14-.07-.27-.11-.15-.14-.4,0,0,0,.13,0,.24l-.05-.06.05.09c0,.09,0,.29-.07.15l0,.27c0-.22,0,0-.08-.08v-.14s-.06,0-.08-.1,0,0,0-.14l0-.06a1.12,1.12,0,0,0,0,.29c0,.23,0,.44-.14.41-.05-.21.05-.18,0-.39s-.13.54-.2.51-.09.1-.18.11,0-.15,0-.29l.05-.15c0,.05-.05,0,0-.11,0,.19-.14.15-.21.23l0,.17c-.06,0-.15.13-.19.07s-.12.18-.23.34a1.58,1.58,0,0,1,.12-.5c0,.09,0,.06.07.11.14-.11.28-.44.35-.34.11-.39-.07,0-.08-.12a0,0,0,0,1,0,0h0a.49.49,0,0,0,.15-.3s-.11.39-.14.21c-.07.1,0-.22-.05-.25-.06.14-.15.45-.21.36l.09-.2c-.08,0-.13.3-.21.26s-.1.2,0,.23-.15.1-.18,0,0,.07-.05.14.14-.11.11.12l.12-.22a.6.6,0,0,1-.09.37s0,0,0,0c-.1.35,0-.14-.14.14h.05c-.05.24-.17.17-.21.13a.44.44,0,0,1,0-.34l.1,0c0-.14-.13.05-.17,0a.18.18,0,0,0,0-.06v0a.11.11,0,0,1,0-.08s-.13,0-.15,0l-.06.14,0-.08s.05.13,0,.23,0-.22,0-.35.08,0,.15,0c.07-.22-.07-.06-.08-.23s.08,0,.19-.16-.13.09-.16,0,.12-.09.18-.23v-.08c.1,0,.12-.29.22-.32s-.13.17-.11,0a1.14,1.14,0,0,1-.17.37l0-.09c0-.12.17-.22.18-.33l-.08.06a1.59,1.59,0,0,1-.09.2c0-.09-.19.23-.28.31s0,0,0-.14c-.19.15-.28.09-.47.23.13-.1.13-.22.17-.34s.2-.19.28-.32-.2.19-.23.27c0-.12-.13.11-.08-.06s.14-.18.18-.26-.18.23-.21.14,0,0,.06-.07-.11,0-.18.1c.15-.28-.12,0,.06-.28-.12,0-.08.14-.16.21s-.11-.06-.1-.11.1,0,.08,0l.12-.17c0-.2-.36.32-.34.1.12,0,.12-.11.24-.21-.05,0-.08-.07-.14.09a.32.32,0,0,1,0-.14,1,1,0,0,0-.27.14c0-.06,0-.2.08-.29-.2,0-.11-.24-.31-.24v0c0-.11-.17.23-.25.13.2-.16.09-.16.16-.28s-.3-.06-.24-.27c0,0,.1-.07.12,0,0-.13-.08-.15-.12-.23l0,0c.08-.22-.18-.18-.31-.27l.15-.07c0-.09,0-.19-.24-.12.18-.2-.1,0,.07-.22,0,0,0,0,.05,0s0-.11,0-.17c-.2,0-.51.1-.47-.07.31-.16.11,0,.36-.08-.06,0-.14,0-.08-.06a.93.93,0,0,0,.2-.07c.08-.06-.37,0-.34,0s-.09,0-.07.07c-.21,0-.07-.12-.18-.15s0,.12-.2.15c0-.11-.29,0-.44,0,.12-.14.3,0,.52-.15a1.07,1.07,0,0,1,.35-.14c0-.09-.19-.06-.26-.11l.07,0c-.06-.07-.39-.08-.27-.19l-.06.06s0-.05-.18,0c.11,0,.2-.12.29-.12-.36.06-.26-.14-.61-.12a1.13,1.13,0,0,1,.31-.06c0,.06-.08.1.07.09,0,0,.07-.1.15-.11-.24,0-.35-.09-.57-.08a.72.72,0,0,1,.35-.12c-.14-.14-.57.17-.59,0,.17-.11.26,0,.3-.08l0,0c.47-.14-.36,0-.36-.11.27,0,.2,0,.38,0-.08-.08-.47-.08-.39-.18h.12c0-.06,0-.17,0-.22h.06c.1-.1-.14,0,0-.12l-.13,0c-.09,0-.21.13-.06.18-.16,0-.34.1-.56.08h.09a1,1,0,0,0-.54.63c.3.09-.08.25.14.36s.07,0,.16.12c-.05,0-.23,0-.26.1a.19.19,0,0,1,.15,0c-.1,0-.3.27-.08.27-.08.1-.1,0-.17,0s.14,0,0,.08h0c0,.11,0,.2,0,.33.3-.09.15.08.27.1-.1,0-.08.1-.12.16l.23,0c.21,0-.09.13,0,.17l.05,0c.11,0,0,.24-.12.36.78.24.11,1,.62,1.4.1,0,.11-.12.24-.17s.06,0,.1.09,0,0,0-.07l-.12,0,.06,0s-.11,0-.12,0,.29-.12.26,0,0,0-.07,0,.11,0,.09.07,0,0,0,.08v.21c.26-.1.12.14.12.18-.17.11-.12,0-.3,0l-.08.14.13-.1,0,.1,0,0s.11-.07.08,0,0,0-.06,0h.11c-.15.08,0,.07-.15.19.07.23.37,0,.3.35,0-.09.27-.17.28-.11a.16.16,0,0,1-.1.13l.12,0c-.14.28.06.21.09.38l-.06.06c.1,0,.2-.06.24,0l-.13.12c0,.16.29-.22.3-.07.12-.14.13-.26.24-.39-.1.15,0,.24,0,.13s.05,0,0,.08l.11-.05c0,.05-.13.21-.22.27.18-.11.15,0,.19.12l-.08,0,.06.09c.14-.08.22,0,.25.08l-.19.16c0,.14.08,0,.11-.07s.07.1,0,.25C142.22,108.44,142,109.08,142.33,108.84Zm8.06-4.6h0S150.29,104.16,150.39,104.24Zm-.35.66c0-.12,0-.05.1,0s0,.13-.15.17l.15,0s-.09,0-.2,0S150.18,104.92,150,104.9Zm-.59-1.89.05,0h0Zm.1.44a.2.2,0,0,0-.11,0C149.51,103.46,149.56,103.47,149.55,103.45Zm-.56.63c-.1,0-.08,0-.07.06S149,104.12,149,104.08Zm-3,3.34a.29.29,0,0,0,0-.22c0,.09-.06,0,0,.09h0Zm-2.32.58a1.19,1.19,0,0,0,.12-.26h0a.19.19,0,0,1,0-.08s0,0,0,0C143.65,107.93,143.59,108,143.67,108Z"/><path class="cls-5" d="M144.77,107h0Z"/><path class="cls-5" d="M143.78,107.64a.19.19,0,0,0,0,.1A.11.11,0,0,0,143.78,107.64Z"/><path class="cls-5" d="M150.77,101.89l0,0,.1,0a.66.66,0,0,0-.39-.15c.14.09.06.13.09.23Z"/><path class="cls-5" d="M149.69,101.82l-.17,0,.1,0Z"/><path class="cls-5" d="M149.08,102.6l.1,0C149.1,102.51,148.94,102.55,149.08,102.6Z"/><path class="cls-5" d="M150.82,102.61l-.09-.06c-.1,0-.1.08,0,.11C150.7,102.59,150.82,102.66,150.82,102.61Z"/><path class="cls-5" d="M149,102.77c.18.07-.1,0,.07.1C149.05,102.84,149.21,102.82,149,102.77Z"/><path class="cls-5" d="M150.83,103.16c.19,0,0-.06.09-.1S150.71,103.12,150.83,103.16Z"/><path class="cls-5" d="M149.45,103.28c-.13,0-.11-.07-.07-.1s.1,0,.11.07-.06-.08-.11-.14a.58.58,0,0,1-.35,0A1.08,1.08,0,0,0,149.45,103.28Z"/><path class="cls-5" d="M150.82,103.29c.06,0,.2,0,.2-.08s-.24,0-.23,0l-.15-.06C150.51,103.21,150.85,103.22,150.82,103.29Z"/><path class="cls-5" d="M149,103.36h.08c-.1-.08,0-.13-.21-.22A.28.28,0,0,0,149,103.36Z"/><path class="cls-5" d="M150.47,103.42l.22.07s-.08,0-.12,0,.06,0,0,0S150.41,103.34,150.47,103.42Z"/><path class="cls-5" d="M150.66,103.68l.07.11H151C150.93,103.68,150.85,103.76,150.66,103.68Z"/><path class="cls-5" d="M150.49,103.73h-.05l.28.22A1.17,1.17,0,0,0,150.49,103.73Z"/><path class="cls-5" d="M148.64,104.4c.08,0,.22,0,.11,0S148.53,104.39,148.64,104.4Z"/><path class="cls-5" d="M150.39,104.92c-.08,0,0,.16,0,.24S150.52,105,150.39,104.92Z"/><path class="cls-5" d="M150.45,105.19l0,0Z"/><path class="cls-5" d="M149.72,107.31v0Z"/><path class="cls-5" d="M149.71,107.23s0-.1,0-.18a1,1,0,0,0,0,.26S149.81,107.3,149.71,107.23Z"/><path class="cls-5" d="M149.33,107.6c0-.06,0-.07-.06-.12S149.27,107.57,149.33,107.6Z"/><path class="cls-5" d="M145.59,106.71s0,0,0,.13S145.58,106.75,145.59,106.71Z"/><polygon class="cls-5" points="145.55 106.87 145.53 106.8 145.51 106.7 145.55 106.87"/><path class="cls-5" d="M145.36,106.69s0,0,0-.06A.07.07,0,0,0,145.36,106.69Z"/><path class="cls-5" d="M145.37,106.62h0Z"/><path class="cls-5" d="M145.38,106.66v-.07a0,0,0,0,1,0,0S145.38,106.62,145.38,106.66Z"/><path class="cls-5" d="M145.31,106.67l0,.22c0-.11,0-.12,0-.35Z"/><path class="cls-5" d="M145.2,106.72c0-.08-.09.26-.09,0-.11.13,0,.42-.14.51.1.14.1-.49.18-.34C145.12,106.74,145.19,106.78,145.2,106.72Z"/><path class="cls-5" d="M145.2,107.15c0-.13,0-.15,0-.06S145.18,107.28,145.2,107.15Z"/><polygon class="cls-5" points="145.02 106.82 145 106.72 144.99 106.81 145.02 106.82"/><path class="cls-5" d="M144.92,106.76l.05-.14S144.91,106.65,144.92,106.76Z"/><path class="cls-5" d="M144.8,106.54c0-.05-.11.28,0,.22v0S144.76,106.57,144.8,106.54Z"/><path class="cls-5" d="M144.27,107s.06,0,.08-.09l-.08,0Z"/><path class="cls-5" d="M144,107.73c-.05.21.07,0,.09.09S144.07,107.74,144,107.73Z"/><path class="cls-5" d="M144.32,106.65c0-.07,0,0,.05,0S144.36,106.56,144.32,106.65Z"/><path class="cls-5" d="M144.2,106.68c0-.09.05-.11.06-.17s0-.1-.11,0a1.72,1.72,0,0,1-.17.4c.1,0,.28-.38.19-.09l.19-.31C144.34,106.42,144.23,106.71,144.2,106.68Z"/><path class="cls-5" d="M144.08,107.37v-.12a.28.28,0,0,1-.11.15C143.89,107.65,144.06,107.38,144.08,107.37Z"/><polygon class="cls-5" points="143.79 106.66 143.69 106.67 143.71 106.7 143.79 106.66"/><polygon class="cls-5" points="143.79 106.56 143.82 106.49 143.7 106.58 143.79 106.56"/><polygon class="cls-5" points="143.76 106.44 143.76 106.45 143.84 106.42 143.76 106.44"/><path class="cls-5" d="M143.65,106.32l-.05.1s0,.11.08,0C143.64,106.43,143.61,106.4,143.65,106.32Z"/><path class="cls-5" d="M141.45,108.24a.48.48,0,0,0,.12-.17l-.15.13S141.47,108.2,141.45,108.24Z"/><path class="cls-5" d="M141.53,107.9l-.21.12c.06.09.18,0,.27,0s-.13,0-.13-.06Z"/><path class="cls-5" d="M140.43,106.57c.12-.08.09-.09.2-.1-.12,0-.14-.08-.22-.15s-.22.1-.17.11l.13,0-.08,0C140.25,106.64,140.44,106.45,140.43,106.57Z"/><path class="cls-5" d="M140.22,102.35a.58.58,0,0,0,.19,0C140.33,102.28,140.24,102.36,140.22,102.35Z"/><path class="cls-5" d="M124,115.36c.2.06.07,0,0,0Z"/><path class="cls-5" d="M124.07,115.32l0,0S124.07,115.31,124.07,115.32Z"/><path class="cls-5" d="M124.27,115.07c.15.1-.09.13.15.21S124.53,115.15,124.27,115.07Z"/><polygon class="cls-5" points="124.09 115.13 124.22 115.17 124.03 115.07 124.09 115.13"/><polygon class="cls-5" points="123.96 115.15 124.01 115.15 123.9 115.03 123.96 115.15"/><path class="cls-5" d="M124.42,114.89l0,.07c-.2,0-.23-.11-.36-.1s.36.13.28.21c.16,0,0-.15.3-.06S124.51,115,124.42,114.89Z"/><path class="cls-5" d="M126.8,111v0S126.79,110.92,126.8,111Z"/><path class="cls-5" d="M128.34,110.66a.17.17,0,0,0,.06.06.19.19,0,0,0,0-.08Z"/><path class="cls-5" d="M126.12,111.72s-.05,0-.07,0S126.1,111.73,126.12,111.72Z"/><path class="cls-5" d="M130.5,116l-.08,0h0l.07,0Z"/><path class="cls-5" d="M130.33,110.89a.08.08,0,0,0,.08,0S130.35,110.88,130.33,110.89Z"/><path class="cls-5" d="M125.71,112h0l0,0Z"/><path class="cls-5" d="M127.81,110.26l.06,0A.09.09,0,0,0,127.81,110.26Z"/><path class="cls-5" d="M125.09,114.18s0,0,0,0S125,114.13,125.09,114.18Z"/><path class="cls-5" d="M125.28,113.89Z"/><path class="cls-5" d="M125.45,113.74Z"/><path class="cls-5" d="M125.1,114.14c.1,0,.39.23.1,0l0,0c.08,0,0-.08,0-.1l-.08,0-.06,0C124.91,113.94,125.05,114.07,125.1,114.14Z"/><path class="cls-5" d="M126.81,111c0-.07,0,0,0,0Z"/><path class="cls-5" d="M126.46,111.41h0S126.47,111.39,126.46,111.41Z"/><path class="cls-5" d="M125,112.08h0S125,112.06,125,112.08Z"/><path class="cls-5" d="M126.54,111.4h0S126.54,111.43,126.54,111.4Z"/><path class="cls-5" d="M125.51,112h0Z"/><path class="cls-5" d="M127.55,116.05s0,.06,0,.1c.18-.19,0,0,.13-.2l-.07,0-.13.2C127.53,116.13,127.48,116.12,127.55,116.05Z"/><path class="cls-5" d="M130,116.07h0a.58.58,0,0,0-.2,0,3.28,3.28,0,0,1,.55.24s0,0,0,0A1.45,1.45,0,0,1,130,116.07Z"/><path class="cls-5" d="M130.35,116.23h0l.06,0,0,0Z"/><path class="cls-5" d="M127.92,116.39v0S127.93,116.37,127.92,116.39Z"/><path class="cls-5" d="M128.69,113.45l-.05,0S128.67,113.48,128.69,113.45Z"/><path class="cls-5" d="M130.28,115.66l0,0a0,0,0,0,0,0,0Z"/><path class="cls-5" d="M131,118.85c-.14-.24,0,0-.16,0l0,.15C130.93,119,131,118.89,131,118.85Z"/><polygon class="cls-5" points="127.59 115.98 127.57 116 127.58 115.99 127.59 115.98"/><path class="cls-5" d="M129,119.72l0,0Z"/><path class="cls-5" d="M130.52,116.06l0-.14-.07,0C130.62,116,130.37,116,130.52,116.06Z"/><path class="cls-5" d="M131.89,118.12l.15.08c-.13-.41.45-.45.11-.86.65-.06-.4-.38.18-.45l-.08,0a2.86,2.86,0,0,0,.28-2.55l.11,0a4.78,4.78,0,0,0-2-3.34c-.17,0-.25.27-.41.31s-.12-.07-.05-.19.14-.16.2-.19c-.14-.08-.25-.32-.46-.22l0,.22c-.08,0-.13,0-.17-.07s.07-.29.13-.31c-.46.3-.15-.29-.46-.2a4.36,4.36,0,0,1-.75.83l-.07-.12c.12,0,.05-.28.2-.24-.11-.13-.26,0-.37-.06,0,.1,0,.23-.06.26s-.05-.26-.14-.28l.1-.12c-.05-.15-.11,0-.17.06,0-.16-.14-.2-.11-.38-.13.22-.17.1-.3.24.14.17,0,.21,0,.35l.14-.07c-.2-.11.07,0,.06-.3.09.13-.14.45,0,.41-.18.15-.23,0-.39.26.1-.06,0,.18,0,.26-.12,0,0-.09-.09-.27-.07,0-.12-.13-.16.08-.13-.07,0-.21-.08-.32s.36.2.29-.41c.07,0,.15-.24.26-.23-.09-.08-.25-.28-.36-.13l0,.35c-.08,0-.08.25-.14.22s0-.24-.11-.2,0,0,0,.09-.11.27-.23.36c.13.06.17.17.28.31s-.06,0-.11.08,0,0,0-.09l0,.12c-.15-.07,0-.35-.18-.44s-.08.14-.17,0l0,.06h0c-.06,0-.14,0-.12.23,0-.08,0,0,0,.1s0,.31-.18.06h0a.19.19,0,0,1-.2-.16l-.17,0L126,111c-.1.11,0,.23,0,.49-.14-.09-.24.08-.25.19s0,0,0,0l.09.06c-.09,0,0,.14-.08.17s0,0,0,0h0s0,0,0,0l0-.06c-.19-.18,0,.18-.14.15s0,0,0,0-.31-.27-.22-.09c0,0,0,0,0,.08h0c0,.07.06.15,0,.11l-.12,0s0,0,0,.07l-.07-.07s-.06,0-.08,0c-.33-.18-.07.28-.39.17.09.14.19.15.25.21a1.69,1.69,0,0,1,.1.35c-.2-.13-.5-.11-.71-.36-.11.09.18.11.21.24h0a.5.5,0,0,1,.27.11c.13.12.09.24,0,.22l-.16-.18c0,.14.27.38.42.59-.13,0-.27-.19-.45-.32l0,.11-.14-.12c0,.09.12.21,0,.23-.1-.16-.21,0-.35-.21-.08,0,.2.23,0,.1.15.15.11,0,.18,0,.24.16,0,.17.07.26-.12-.08-.12-.14-.24-.13.08.07.13.15,0,.11.16.11,0,.09,0,.12a.39.39,0,0,1,.33.11c0,.07.06.11,0,.16h.1c.21.19-.22,0-.19.1-.08-.08-.07-.1-.17-.2l.18.31-.28-.06c.12.07,0,.08.13.16-.16,0-.18-.17-.29-.24s.24.22-.07.21l-.14-.11s0,.15-.06.12,0,0,.06,0c.33.17.16.27.53.4l0,0c0,.1.28.23.14.24s-.24-.11-.33-.17.38.19.32.25a.48.48,0,0,1,.29.08s.14-.08,0-.12h0a.75.75,0,0,1-.17-.1c0-.06.18,0,.25,0s-.36-.15-.31-.23h.07c-.07-.08,0-.15-.26-.26.24.07,0-.15.11-.13.5.24-.1.14.15.32.12,0,.22.13.33.19l-.15-.23c.07,0,.33.11.17,0h0c0-.08-.24-.18-.15-.19a1,1,0,0,1,.15.1c.07,0-.09-.1-.11-.15s.18.13.25.13c-.15-.16.09,0,.1-.1-.28-.14-.26-.39-.54-.45a.94.94,0,0,1-.1-.23c.15.06.3.32.54.44l-.06.07c.33.2-.1-.31.29-.1,0,0,0-.06.2,0l-.28-.2a.86.86,0,0,1,.3.16s0,0,0-.06a.28.28,0,0,1,.06.1c.17.1.12,0,0,0s0-.08,0-.1l.08.1a.28.28,0,0,0-.07-.11s0,0,0-.05a1.7,1.7,0,0,0-.31-.18c.18,0,.18-.11.45,0,.06.07.13.19.14.19s0-.15-.12-.26,0,0,0,0,.13.11.16.11,0,0,.06,0c-.17-.22,0-.17-.08-.28s-.05,0-.07,0c-.09-.16-.2-.34-.08-.25s.23.17.21.3c.27.22-.13-.22,0-.17l.12.08c.11.16,0,.12,0,.18v0c.07.13-.08.13,0,.35h.17c0-.29.31-.18.22-.63h0l-.06-.12,0,0,0-.15c.12.14.2.14.32.26a.79.79,0,0,1-.16-.23c-.09-.18-.12-.26,0-.22s0,.14.11.22a.23.23,0,0,1-.06-.17c.07.07.12.06.18.19s0,0,0,0,.1.09.11.21l0,0c.07.09.06.18.1.24,0-.12-.05-.44,0-.56l.1.29c.08.07,0-.37.07-.42s0,.07,0,.12c.23.06.41,0,.61.31l0-.33.06.21c.17.21.29,0,.48-.07s0,.23,0,.32.19-.28.33-.32c0,.09-.15.35-.12.37s.09-.22.1-.16l-.05.09c0,.14,0,0,.06.1s.24-.17.5-.41c.06.08-.19.29-.21.36,0-.13-.07,0-.13.12.07-.06.13-.09,0,.11,0,0,0,0,.17-.08-.06,0,0-.06.07-.14,0,.08.11.07-.08.3.17.07.27.27.39.44.15,0,0,0,.13-.09s-.06.09.1.05l-.14.06c0,.07.29,0,.46,0-.17.07-.11.11-.23.11,0,0-.68.38-.52.33l.68-.33c.07,0,0,0,.09,0a1.73,1.73,0,0,0-.27.2c-.18.08-.16,0-.16,0-.29.12-.16.15-.44.22.06,0,.15-.06.26-.08l0,.07.08-.07c.11,0,.34-.06.19,0l.32,0c-.24.08,0,.06-.09.11l-.15,0s0,.06-.11.11,0,0-.16,0l-.06,0a3.23,3.23,0,0,0,.33-.08c.26,0,.49,0,.49.07-.24.09-.22,0-.45,0s.63,0,.62.11.14.07.15.17c-.16,0-.17.08-.33.1l-.17,0s0,.05-.14,0c.23,0,.22.11.32.17h.19c.06,0,.17.13.12.19s.22.09.42.19a2.47,2.47,0,0,1-.58-.07c.1,0,.05-.05.11-.08-.16-.13-.54-.22-.45-.3-.47,0,.06.06-.12.1h0a.6.6,0,0,0-.36-.1c.05,0,.46.05.25.1.13,0-.24,0-.27.06.17,0,.54.1.46.17l-.25-.08c0,.07.36.1.33.18s.24.08.26,0,.14.13.06.16a1.34,1.34,0,0,0,.17,0c.19,0-.15-.13.11-.12l-.26-.1a.71.71,0,0,1,.43.06s0,0,0,0c.42.07-.16,0,.18.14l0,0c.28,0,.21.15.18.21a.56.56,0,0,1-.39,0l-.06-.1c-.16,0,.07.13,0,.17h-.07l.06,0h-.09s.07.13,0,.14l.17.07-.09,0s.14,0,.25,0-.24,0-.39,0,0-.08,0-.15c-.26-.08-.05.06-.24.07-.26-.15,0-.08-.21-.2-.07,0,.12.13,0,.15s-.11-.12-.28-.19h-.08c0-.08-.34-.14-.39-.22s.22.13,0,.08a1.89,1.89,0,0,1,.43.2h-.1a2.93,2.93,0,0,0-.38-.21l.08.07c.07,0,.12,0,.22.11-.09,0,.28.2.37.3s0,0-.14,0c.18.2.11.26.25.49-.1-.16-.23-.19-.34-.27s-.21-.24-.35-.35a2,2,0,0,0,.29.29c-.11,0,.12.16-.05.06s-.18-.2-.26-.27.23.24.14.23a.19.19,0,0,0-.06-.07c-.06,0,0,.08.09.19-.25-.25,0,.1-.25-.19,0,.1.12.15.18.25s0,.07-.09,0,0-.1,0-.06l-.14-.19c-.14-.12.24.49.07.35,0-.14-.07-.17-.14-.33,0,.06-.05,0,.06.17s-.07,0-.1-.07,0,.16.06.31-.13-.15-.18-.25c0,.17-.15-.08-.22.09v0c-.08,0,.05.32,0,.31,0-.3-.05-.2-.08-.35s-.19.19-.26,0,0-.13.05-.14-.11-.06-.16-.09v0c0-.25-.18,0-.32,0l.09-.16c0-.08-.07-.16-.23.06.09-.28-.08.06,0-.22,0,0,0,0,0,0s0-.09,0-.14c-.16.11-.44.4-.44.24.26-.31.11,0,.31-.28-.06,0-.12.09-.07,0l.17-.18c.06-.08-.33.27-.31.24s-.08.09-.06.09c-.18.17-.09-.05-.19,0s0,.1-.17.22c0-.11-.28.13-.45.18.08-.18.29-.17.49-.37a1.53,1.53,0,0,1,.33-.29c0-.08-.19.05-.27.05l.06,0s-.38.09-.27,0l-.07.07s0,0-.2,0a2.68,2.68,0,0,1,.31-.18c-.39.16-.28,0-.68.07a1.52,1.52,0,0,1,.36-.12s-.09.1.08.06c0,0,.07-.09.16-.12a4.58,4.58,0,0,1-.64,0,1,1,0,0,1,.41-.13c-.16-.09-.66.19-.69,0,.2-.1.3,0,.35-.07h0c.56-.12-.4,0-.39-.1.31,0,.23,0,.45,0-.08,0-.54-.1-.44-.18l.13,0c0-.05.06-.13,0-.19s0,0,.06,0-.14-.07.07-.09l-.14-.06c-.1,0-.27.06-.1.14-.17-.09-.41,0-.66,0l.1,0c-.49.11-.54.41-.68.71.35.12-.07.33.2.46.35-.08.08,0,.2.13-.07-.06-.26.09-.28.16a.26.26,0,0,1,.19,0c-.11.07-.27.4,0,.35-.05.14-.12,0-.19,0s.17,0,.08.09l-.06,0c.1.13.06.27.13.43.29-.21.21,0,.35,0-.1,0,0,.15-.06.23l.25-.11c.21-.1,0,.19.13.17l0-.06c.13,0,.13.26.07.47a.74.74,0,0,1,.82.43,1,1,0,0,0,.81.63c.08-.09,0-.18.09-.32a.31.31,0,0,1,.17,0c0-.11-.06,0,0-.08l-.12.07a.51.51,0,0,1,0-.09s-.11.08-.15.05.18-.32.24-.2a.17.17,0,0,1-.06.06c.06,0,.1-.08.13,0s.06,0,0,.1.12.13.18.18c.16-.29.24,0,.28.05-.05.23-.16,0-.25.27l.07.18,0-.18.11.07v0c0-.07.05-.14.07-.07s0,.08,0,.08l.09-.09c-.06.19.07.07.05.29.32.11.38-.3.67,0,0-.09.05-.36.13-.33a.15.15,0,0,1,.06.18l.09-.13c.21.31.3.08.53.11l0,.1c.05-.14.09-.25.22-.26l.05.19c.2.07-.06-.42.14-.37-.1-.19-.23-.25-.32-.43.12.19.28.15.17,0,.08-.14.09,0,.12,0v-.16c.09,0,.17.23.2.35,0-.24.13-.16.25-.19l0,.1.15,0c0-.2.06-.29.21-.3l.12.26c.16,0,0-.1-.05-.15s.16-.07.33,0C131.38,118.26,132.09,118.54,131.89,118.12Zm-6.78-6,0,0C125.15,112.25,125.17,112.29,125.11,112.16Zm.79-.39c-.05.14-.08,0-.12-.06.13,0,.14-.08.27,0l-.1-.15s.1,0,.17.16S125.79,111.64,125.9,111.77Zm-.49,2.1,0-.05h0Zm.09-.45.1.06C125.54,113.43,125.5,113.39,125.5,113.42Zm.81-.19c.08.09.09,0,.1,0A.11.11,0,0,0,126.31,113.23Zm3.67.86a.32.32,0,0,0-.23.08c.1,0-.05.07.1,0h0A.51.51,0,0,0,130,114.09Zm1,2.38c-.11,0-.22-.1-.3-.12h0l-.1,0s-.06,0,0,.05C130.94,116.5,131,116.57,131,116.47Z"/><path class="cls-5" d="M129.66,115.45v0Z"/><path class="cls-5" d="M130.59,116.36a.27.27,0,0,0,.12,0A.16.16,0,0,0,130.59,116.36Z"/><path class="cls-5" d="M123.62,114.46l0,0-.12,0c.08.14.24.19.41.27-.14-.13,0-.16-.06-.28Z"/><path class="cls-5" d="M124.8,114.85a.89.89,0,0,0,.19,0l-.1,0Z"/><path class="cls-5" d="M125.65,114.42h-.12C125.6,114.48,125.79,114.53,125.65,114.42Z"/><path class="cls-5" d="M123.81,113.64l.08.1c.11,0,.13,0,0-.12C123.94,113.71,123.84,113.59,123.81,113.64Z"/><path class="cls-5" d="M125.76,114.31c-.16-.16.11,0,0-.13C125.75,114.23,125.59,114.17,125.76,114.31Z"/><path class="cls-5" d="M124.05,113c-.19-.1-.07,0-.15.07S124.16,113.14,124.05,113Z"/><path class="cls-5" d="M125.52,113.63c.11.11.08.13,0,.12s-.08-.09-.08-.12a.67.67,0,0,1,0,.19.71.71,0,0,1,.35.2A1.32,1.32,0,0,0,125.52,113.63Z"/><path class="cls-5" d="M124.12,112.89c-.08,0-.21-.06-.24,0s.23.14.26.07l.13.14C124.41,113.13,124.06,113,124.12,112.89Z"/><path class="cls-5" d="M126,113.81l-.08,0c.07.14,0,.13.12.31C126,114,126,113.91,126,113.81Z"/><path class="cls-5" d="M124.56,112.93l-.19-.18c-.08,0,.07.06.1.12s-.08,0-.06,0S124.57,113,124.56,112.93Z"/><path class="cls-5" d="M124.51,112.56v-.14l-.26-.15C124.23,112.42,124.35,112.38,124.51,112.56Z"/><path class="cls-5" d="M124.71,112.61l0,0-.16-.38A1.21,1.21,0,0,0,124.71,112.61Z"/><path class="cls-5" d="M126.77,113.25c0-.11-.14-.21-.07-.11S126.85,113.33,126.77,113.25Z"/><path class="cls-5" d="M125.59,111.49c.07.05.12-.15.15-.24C125.69,111.33,125.5,111.36,125.59,111.49Z"/><path class="cls-5" d="M125.75,111.21v0S125.75,111.22,125.75,111.21Z"/><path class="cls-5" d="M128.45,110.18s0,0,0,0Z"/><path class="cls-5" d="M128.37,110.23c-.05,0-.15,0-.18.14a1.51,1.51,0,0,0,.26-.19S128.38,110.1,128.37,110.23Z"/><path class="cls-5" d="M129.07,110.42c-.06.06-.1,0-.11.12S129.07,110.5,129.07,110.42Z"/><path class="cls-5" d="M129.24,114.66c-.05,0,0,0,.16,0C129.38,114.62,129.3,114.66,129.24,114.66Z"/><polygon class="cls-5" points="129.44 114.67 129.36 114.7 129.25 114.75 129.44 114.67"/><path class="cls-5" d="M129.25,114.91h-.07A.09.09,0,0,0,129.25,114.91Z"/><path class="cls-5" d="M129.17,114.91h0Z"/><path class="cls-5" d="M129.22,114.89h-.05Z"/><path class="cls-5" d="M129.24,115l.23-.08c-.13,0-.11.07-.38.08Z"/><path class="cls-5" d="M129.32,115.07c-.08,0,.32,0,0,.09.16.08.49-.07.6,0,.15-.13-.56,0-.41-.13C129.36,115.15,129.39,115.07,129.32,115.07Z"/><path class="cls-5" d="M129.81,115c-.15,0-.16.07-.06.07S130,115,129.81,115Z"/><polygon class="cls-5" points="129.47 115.23 129.35 115.27 129.45 115.27 129.47 115.23"/><path class="cls-5" d="M129.41,115.34l-.17,0C129.3,115.32,129.29,115.36,129.41,115.34Z"/><path class="cls-5" d="M129.19,115.46c-.06,0,.33.08.25,0h0C129.36,115.48,129.22,115.5,129.19,115.46Z"/><path class="cls-5" d="M129.75,115.89s0,0-.12-.07l.07.07Z"/><path class="cls-5" d="M130.68,116.13c.23,0,0-.07.08-.11C130.7,116.07,130.67,116.06,130.68,116.13Z"/><path class="cls-5" d="M129.41,115.85c-.1,0,0,0,0,0C129.26,115.77,129.29,115.81,129.41,115.85Z"/><path class="cls-5" d="M129.46,115.94l-.19-.07c-.12,0-.11,0,0,.08s.36.13.46.19c-.05-.09-.47-.26-.13-.17l-.39-.17C129.15,115.81,129.49,115.92,129.46,115.94Z"/><path class="cls-5" d="M130.26,116.06h-.15c.14,0,.15.07.18.1C130.59,116.25,130.27,116.09,130.26,116.06Z"/><polygon class="cls-5" points="129.51 116.26 129.54 116.35 129.57 116.34 129.51 116.26"/><polygon class="cls-5" points="129.41 116.24 129.34 116.19 129.45 116.32 129.41 116.24"/><path class="cls-5" d="M129.3,116.22h0l-.05-.07Z"/><path class="cls-5" d="M129.19,116.26l.1.07s.11,0,0-.06C129.3,116.31,129.27,116.32,129.19,116.26Z"/><path class="cls-5" d="M130.74,119.21a.29.29,0,0,0-.13-.19l.07.21S130.7,119.18,130.74,119.21Z"/><path class="cls-5" d="M130.37,119v.29c.16,0,.08-.23.17-.33-.09,0-.06.16-.16.13Z"/><path class="cls-5" d="M128,119.25c0-.16,0-.14.09-.23-.12.08-.21,0-.34,0s-.13.25-.07.22l.16-.06,0,.1C127.85,119.46,127.86,119.15,128,119.25Z"/><path class="cls-5" d="M126,115.29h.22C126.09,115.25,126,115.3,126,115.29Z"/><path class="cls-5" d="M148,120.75c-.15-.16-.07,0-.09.06Z"/><path class="cls-5" d="M147.9,120.81l-.06,0A.06.06,0,0,0,147.9,120.81Z"/><path class="cls-5" d="M147.44,121.28c-.06-.21.22-.24.06-.45C147.29,120.88,147.23,121.1,147.44,121.28Z"/><polygon class="cls-5" points="147.69 121.18 147.59 121.09 147.7 121.31 147.69 121.18"/><polygon class="cls-5" points="147.85 121.16 147.8 121.15 147.81 121.4 147.85 121.16"/><path class="cls-5" d="M147.09,121.65l0-.15c.23,0,.16.22.31.21s-.29-.27-.11-.43c-.16-.08-.2.31-.41.13C146.76,121.53,147.06,121.51,147.09,121.65Z"/><path class="cls-5" d="M141.55,129h0S141.56,129,141.55,129Z"/><path class="cls-5" d="M139.36,130.42h-.12l.07.05Z"/><path class="cls-5" d="M142.6,127.68h.12A.11.11,0,0,0,142.6,127.68Z"/><path class="cls-5" d="M127.46,130.69a.34.34,0,0,0,0-.08h0l0,.07Z"/><path class="cls-5" d="M136.77,131.9l-.1.07C136.73,132,136.76,131.93,136.77,131.9Z"/><path class="cls-5" d="M143.32,127.11l0,0h.05l0,0Z"/><path class="cls-5" d="M140.3,130.37h-.1A.16.16,0,0,0,140.3,130.37Z"/><path class="cls-5" d="M145.51,123.24s0,.06,0,.1S145.54,123.33,145.51,123.24Z"/><path class="cls-5" d="M145,123.9Z"/><path class="cls-5" d="M144.58,124.29v0S144.55,124.26,144.58,124.29Z"/><path class="cls-5" d="M145.46,123.34c-.13,0-.4-.23-.17.09l.05,0c-.1,0,0,.15-.07.2l.08,0,.12-.08C145.58,123.61,145.48,123.45,145.46,123.34Z"/><path class="cls-5" d="M141.53,128.94c0,.05.07,0,0,0Z"/><path class="cls-5" d="M142,128.27l-.08,0A.11.11,0,0,0,142,128.27Z"/><path class="cls-5" d="M144.45,126.53h0S144.46,126.55,144.45,126.53Z"/><path class="cls-5" d="M141.9,128.33l.06,0S141.91,128.3,141.9,128.33Z"/><path class="cls-5" d="M143.63,126.94h0S143.63,127,143.63,126.94Z"/><path class="cls-5" d="M117.75,125.21c.07,0,0,.1,0,.16.24-.13-.18-.15.09-.22a.22.22,0,0,0-.14,0l-.1.23C117.79,125.34,117.65,125.25,117.75,125.21Z"/><path class="cls-5" d="M126.85,130.1l0,0c0-.11,0-.14-.06-.22-.1.15,0,.42-.19.58,0,0,.07,0,.1,0A.57.57,0,0,1,126.85,130.1Z"/><path class="cls-5" d="M126.72,130.52h0s0,0,0,.06a.1.1,0,0,1,0,0A.2.2,0,0,0,126.72,130.52Z"/><path class="cls-5" d="M119.11,126.35l0,.05C119.15,126.35,119.14,126.34,119.11,126.35Z"/><path class="cls-5" d="M136,129l0-.1A.11.11,0,0,0,136,129Z"/><path class="cls-5" d="M128.12,130.51l.06,0h0Z"/><path class="cls-5" d="M123.11,131.78c.14-.24,0,0-.09-.18l-.14.11C123,131.78,123,131.76,123.11,131.78Z"/><polygon class="cls-5" points="117.75 125.1 117.74 125.12 117.75 125.12 117.75 125.1"/><path class="cls-5" d="M120.42,130.77l0-.05S120.41,130.75,120.42,130.77Z"/><path class="cls-5" d="M127.22,130.71l.33.06-.09-.08C127.4,130.82,127.29,130.55,127.22,130.71Z"/><path class="cls-5" d="M124.59,132.37v.17c.44-.24.75.33,1.14-.09.33.65.38-.46.69.13v-.08a9,9,0,0,0,4,.41V133a18.2,18.2,0,0,0,6-.92c.15-.16,0-.37.08-.55.07,0,.22-.07.26.06s0,.22,0,.28c.21-.08.55,0,.68-.25l-.22-.12c.05-.1.18-.09.25-.1s.17.25.13.31c.24-.57.38.06.65-.24a2.54,2.54,0,0,1,.37-1.22l.18,0c-.19.08.12.26-.12.34.24,0,.35-.22.55-.25a.23.23,0,0,1-.07-.27c.13,0,.23.17.36.13l-.07.17c.15.09.14-.12.2-.18.1.14.3.07.35.25.07-.28.19-.19.31-.42-.27-.05-.06-.22-.14-.32l-.18.16c.35-.05-.08.08.07.31-.2,0,0-.5-.24-.35.22-.25.33-.19.5-.54-.14.14-.06-.18-.19-.2.21-.13.1,0,.25.17.11-.07.23.05.24-.19.22,0,.07.2.22.24,0,.21-.63.09-.29.6-.09.06-.11.33-.26.4.17,0,.44.08.53-.13l-.15-.31c.11-.07,0-.29.12-.31a.15.15,0,0,0,.24.11s-.09,0-.11,0c.17-.12.07-.34.24-.51a1.73,1.73,0,0,1-.53-.09c-.08-.24.09-.1.17-.17s0,.05,0,.08l0-.16c.26,0,.15.32.38.32s.1-.2.25-.16l-.05,0h.06l0,0c.09-.1.22-.16.15-.33.06.06.08-.08.09-.15s0-.36.29-.18h0c.15-.06.3-.05.33,0l.25-.1.11.21c.16-.19.06-.29,0-.58.22,0,.39-.25.43-.38a.17.17,0,0,0,.07-.06l-.13,0c.15-.1.06-.18.15-.26s0,0,0,0l.06,0s0,0,0,0l.06,0c.27.11.09-.25.26-.28,0,0,0,0,0,0s.42.17.31,0c0,0,0,0,0-.1h0c0-.08,0-.16,0-.13l.2-.11c.06,0,.08-.06.09-.11l.1,0c.05-.07.09,0,.1,0,.43.06.2-.43.62-.42-.07-.16-.21-.13-.27-.18a1.14,1.14,0,0,1,0-.45c.26.07.7-.07.88.2.19-.17-.2-.08-.19-.26h0a.43.43,0,0,1-.34,0,.19.19,0,0,1,.06-.31l.15.21c.09-.23-.21-.46-.3-.73.19-.06.29.17.48.29l.08-.18.14.13c.05-.13-.06-.26.11-.34.05.21.31-.07.37.21.11,0-.14-.29.08-.16-.11-.18-.13,0-.22,0-.24-.16,0-.24,0-.38.12.09.09.17.25.13-.07-.1-.08-.22.07-.19-.14-.12.07-.14.13-.19a.29.29,0,0,1-.36-.1.25.25,0,0,1,.11-.27l-.13,0c-.13-.27.29,0,.33-.24a1.29,1.29,0,0,0,.08.31,2.62,2.62,0,0,1,0-.49l.31,0c-.1-.1.11-.14,0-.25.21-.08.09.26.19.36.24-.12-.14-.34.23-.36l.09.17c.06-.06.07-.24.14-.2s-.05,0-.08.05c-.27-.26,0-.44-.34-.64l-.08.07c0-.17-.12-.41.06-.43s.18.2.23.3c.11-.11-.28-.33-.15-.46-.1,0-.21,0-.26-.15-.08.07-.26.2-.1.26h0c.08.06.07.13.1.18s-.18,0-.26-.07c-.18.15.31.24.17.41l-.07,0c0,.15-.06.28.11.45-.25-.08-.06.25-.24.25-.45-.32.24-.28.07-.55-.16,0-.17-.21-.25-.32v.42c-.08,0-.35-.1-.23.07h0c0,.15.17.25,0,.3s-.1-.1-.12-.13,0,.15,0,.24-.14-.19-.25-.15c.09.23-.16.12-.22.21.27.16,0,.62.41.61v.34c-.18,0-.22-.42-.46-.54l.14-.15c-.32-.23-.09.51-.51.33-.09.07,0,.09-.32.11l.29.21a.49.49,0,0,1-.35-.12.35.35,0,0,1-.13.14.25.25,0,0,1,0-.14c-.2-.07-.16,0-.1.09s0,.13-.07.18l-.06-.14s0,.12,0,.16a.13.13,0,0,0,0,.08.76.76,0,0,0,.36.13c-.27.09-.35.3-.71.24-.07-.08-.09-.23-.12-.22s-.07.24,0,.35l0,0c-.07,0-.15-.1-.2-.08a.12.12,0,0,0-.1,0c.16.22-.08.27,0,.39a.28.28,0,0,0,.14-.1c.06.19.14.4,0,.34,0-.24-.32-.1-.19-.32-.36-.14.1.25-.11.28l-.18,0c-.12-.16.07-.21,0-.24l0,.07c0-.17.24-.3.22-.59l-.34.17c-.18.51-.82.65-.84,1.25h0s0,.05.07.11l0,0,0,.17c-.19-.09-.35,0-.55,0a.3.3,0,0,1,.24.16c.11.17.15.24,0,.27-.08-.12,0-.16-.16-.19a.12.12,0,0,1,.07.18c-.12,0-.23,0-.32-.09s.06,0,.09,0-.19,0-.17-.18l-.09.12c-.13,0-.07-.19-.14-.23-.12.21,0,.55-.14.75a2.45,2.45,0,0,0-.16-.26c-.19,0-.09.47-.23.59,0-.09,0-.1.07-.16a3.63,3.63,0,0,1-1.52.41l0,.35-.22-.12a2.64,2.64,0,0,0-1.27.74c-.13.09-.18-.17-.28-.22-.34.1-.27.47-.56.66,0-.11,0-.4-.16-.36s0,.25-.06.23v-.11c-.13-.11-.15,0-.33,0a1.2,1.2,0,0,0-.61.84c-.26.06-.08-.34-.15-.39.22,0,.11-.1.11-.22-.06.12-.16.21-.28,0a.39.39,0,0,0-.27.25c0-.09.14,0,.1.13-.13,0-.38.11-.45-.17a14,14,0,0,1-2,.47c-.1.17.09,0,0,.16s-.15-.08-.27.09l0-.16c-.21,0-.38.32-.56.49,0-.18-.18-.13,0-.25-.1,0-.31-.75-.36-.57l.19.73c0,.07-.13.05-.12.09-.1-.13-.22-.29-.28-.29,0-.19.11-.15.19-.16,0-.32-.29-.18-.2-.48-.16.06,0,.16,0,.28l-.16-.06.13.1c-.12.11-.14.35-.32.18l-.15.33c0-.25-.13,0-.22-.09l0-.17c-.11,0-.16,0-.24-.11s.11.05.13-.16l-.13-.07c0,.14-.07.26,0,.34-.11.28-.17.5-.48.47-.14-.24.15-.21.09-.45-.32-.1-.38.63-.58.6s-.22.13-.47.14c.08-.16-.17-.19-.2-.35l.1-.17c-.08,0-.14,0-.11-.14,0,.23-.33.19-.5.29l0,.19c-.14.05-.33.16-.47.1s-.18.21-.37.4a.92.92,0,0,1,0-.59c0,.11.14.06.23.13.28-.14.51-.53.76-.42.14-.45-.18,0-.29-.13a.05.05,0,0,1,0,0h0a.43.43,0,0,0,.29-.35c-.15,0-.14.45-.31.24-.15.12-.24-.25-.31-.29-.11.16-.16.53-.38.43l.13-.24c-.25,0-.16.36-.4.31.08,0-.12.25,0,.27a.29.29,0,0,1-.4,0c-.05,0,0,.09,0,.17s.26-.14.34.13l.14-.26a.32.32,0,0,1,0,.44s.08,0,.1,0c0,.43-.15-.17-.24.18l.1,0c0,.28-.26.21-.39.17s-.26-.21-.24-.4l.21-.06c-.08-.17-.26.06-.38,0a.14.14,0,0,0,0-.07.06.06,0,0,1,0,.06.19.19,0,0,1,0-.1c-.09,0-.26.06-.34,0l0,.18,0-.1a.18.18,0,0,1,.1.28c-.23.08-.21-.27-.23-.43s.2,0,.32,0c0-.27-.2-.06-.37-.28.14-.27.24.05.33-.21-.15-.08-.24.12-.4,0,0-.13.22-.11.25-.28l-.1-.1c.27,0,0-.37.25-.4-.08-.14-.18.21-.29,0,0,.13.08.38-.07.47l-.14-.12c0-.15.22-.27.15-.41l-.18.07c0,.08.06.14,0,.25-.07-.11-.22.3-.36.4a.17.17,0,0,1-.16-.17c-.27.2-.55.11-.82.3.19-.14.07-.29,0-.44.17,0,.24-.26.28-.43-.1,0-.24.26-.22.36-.13-.15-.16.15-.25-.06s.12-.25.12-.36c-.17-.06-.14.31-.31.19,0,0,0,0,0-.09s-.22,0-.28.12c0-.38-.31-.06-.18-.39-.27,0,0,.2-.11.3s-.29-.07-.33-.14.15-.06.19,0l0-.25c-.23-.26-.37.47-.58.15.19-.06.11-.15.24-.28-.06,0-.25-.11-.19.11a.81.81,0,0,1-.21-.2.8.8,0,0,0-.37.2.65.65,0,0,1-.21-.41c-.38,0-.52-.38-.92-.36l0,0c-.23-.15,0,.34-.29.21.17-.24-.07-.25-.08-.43-.23-.29-.63-.1-.81-.42,0-.06.09-.11.14-.09-.16-.2-.36-.23-.54-.37l0,0c-.17-.39-.58-.32-.93-.45,0,0,.11-.11.15-.13-.11-.15-.31-.36-.58-.21,0-.37-.17,0-.22-.41,0,0,0,0,.07,0,0-.16-.15-.18-.23-.3-.35,0-.65.21-.85-.11.24-.32.23.07.44-.18-.1,0-.2,0-.21-.1.14-.08.07-.06.19-.15s-.49.13-.47.1-.06.11,0,.14c-.23.14-.29-.2-.47-.25a.22.22,0,0,1-.06.32c-.12-.22-.43,0-.67,0,0-.29.35-.14.51-.38s.14-.32.27-.34c-.09-.18-.36-.09-.52-.17l0,0c-.19-.13-.62-.07-.64-.33v.14c-.06,0-.13-.1-.29,0,.1-.08.08-.28.2-.31-.38.21-.56-.22-1,0,0-.12.2-.2.29-.25.07.14,0,.23.23.18a.18.18,0,0,1,0-.28c-.28.09-.55-.09-.8,0,0-.16,0-.28.23-.39-.35-.22-.39.58-.68.23,0-.29.35,0,.23-.29l.06,0c.32-.51-.4.14-.54,0,.23-.21.28,0,.35-.27-.19-.11-.6.08-.65-.15l.12,0c-.1-.1-.2-.35-.3-.44.05,0,.05,0,.08,0,0-.27-.19,0-.13-.28l-.16,0c0,.15,0,.4.19.4-.23,0-.2.39-.45.49l.1,0a2.11,2.11,0,0,0,.22,1.43c.43,0,.22.46.59.56.3-.21.09,0,.32.14-.13-.08-.21.17-.19.27a.34.34,0,0,1,.25,0c-.06.12,0,.57.23.49,0,.2-.11,0-.19.08s.19,0,.14.12,0,0,0,0a3.85,3.85,0,0,1,.39.55c.26-.24.28.08.45.07-.11.06,0,.2,0,.3l.28-.1c.24-.08,0,.25.25.27v-.08c.17,0,.29.38.27.61a1.9,1.9,0,0,1,1.29.88,2.87,2.87,0,0,0,1.18,1.13c.13-.05,0-.19.18-.29a.83.83,0,0,1,.25.12c0-.13-.08,0,0-.1h-.21s0,0,0-.08-.16,0-.22,0c.15,0,.31-.22.38-.06s0,0-.09,0,.16,0,.21.09.08,0,0,.13l.24.3c.31-.19.36.18.4.23-.15.19-.25-.05-.44.11l0,.21.1-.16.14.14,0,0c.06-.05.11-.1.13,0s0,.08,0,.08l.16,0c-.16.13.08.11,0,.3.34.31.63,0,.85.42,0-.12.26-.27.35-.18a.13.13,0,0,1,0,.19l.18,0c0,.41.3.27.52.49l0,.08c.15-.06.29-.11.42,0l-.1.17c.13.2.29-.33.44-.13.08-.2,0-.35,0-.55,0,.22.16.33.17.17.22,0,.13.06.13.12l.16-.08c.14.05,0,.27-.14.37.21-.17.3,0,.44.11l-.1.07.19.1a.39.39,0,0,1,.5.08l-.19.22c.07.18.09-.07.13-.1.23-.07.21.13.27.3C124.11,131.9,124.22,132.71,124.59,132.37Zm19.72-5.89h-.05C144.27,126.39,144.27,126.33,144.31,126.48Zm-1.34,1c.09-.21.12-.06.18,0-.2.06-.24.19-.43.22a1.74,1.74,0,0,1,.14.12.23.23,0,0,1-.26-.08C142.5,127.43,143.13,127.54,143,127.46Zm1.76-3.43,0,.06h0Zm-.47.84a.14.14,0,0,0-.13,0C144.19,124.87,144.25,124.9,144.26,124.87Zm-1.61,1c-.11-.06-.16,0-.2.1A.87.87,0,0,0,142.65,125.83Zm-10.47,4.59s.14-.18,0-.25c0,.1-.14-.06-.16.1h0C132.11,130.35,132.16,130.42,132.18,130.42Zm-5.59.79a1.07,1.07,0,0,0,.08-.32h0s0-.07,0-.1-.09-.06-.12,0C126.49,131.13,126.38,131.17,126.59,131.21Z"/><path class="cls-5" d="M128.6,129.9h0Z"/><path class="cls-5" d="M126.57,130.77a.28.28,0,0,0,.1.12S126.64,130.8,126.57,130.77Z"/><path class="cls-5" d="M147.66,122.41v.07l.16,0c0-.23-.12-.32-.26-.47.06.24-.08.27-.17.48Z"/><path class="cls-5" d="M146.58,121.78c-.06,0-.18,0-.21,0l.08.08Z"/><path class="cls-5" d="M144.86,123.11l.18-.06C145,122.94,144.74,123,144.86,123.11Z"/><path class="cls-5" d="M146.87,123.77l0-.15c-.13,0-.2.1-.1.2C146.74,123.69,146.8,123.85,146.87,123.77Z"/><path class="cls-5" d="M144.54,123.42c.13.19-.19.06-.06.23C144.47,123.57,144.7,123.58,144.54,123.42Z"/><path class="cls-5" d="M146.21,124.77c.2.1.12-.1.24-.15C146.38,124.69,146.12,124.64,146.21,124.77Z"/><path class="cls-5" d="M144.38,124.53c-.11-.12,0-.17,0-.2s.06.12.05.16a1.68,1.68,0,0,1,0-.3c-.15,0-.32.06-.45-.09C144.12,124.26,144.2,124.49,144.38,124.53Z"/><path class="cls-5" d="M146,125c.12,0,.27,0,.34-.07-.1-.06-.25-.14-.32,0l-.1-.16C145.76,124.74,146.16,124.87,146,125Z"/><path class="cls-5" d="M143.72,124.55l.1,0c0-.19.15-.25,0-.47A.6.6,0,0,0,143.72,124.55Z"/><path class="cls-5" d="M145.46,125.1l.17.19c.12-.07-.07-.05-.08-.13s.11,0,.1-.08C145.57,125.22,145.49,124.94,145.46,125.1Z"/><path class="cls-5" d="M145.36,125.62l-.05.2.3.11C145.69,125.72,145.5,125.81,145.36,125.62Z"/><path class="cls-5" d="M145.08,125.64l-.05,0,.08.46A1.29,1.29,0,0,0,145.08,125.64Z"/><path class="cls-5" d="M141.68,126.29c0,.1.24.13.12.07S141.53,126.26,141.68,126.29Z"/><path class="cls-5" d="M143.43,127.61c-.12,0-.22.25-.26.37C143.24,127.86,143.53,127.72,143.43,127.61Z"/><path class="cls-5" d="M143.15,128l0,0Z"/><path class="cls-5" d="M139.49,130.89s0,0,0,0Z"/><path class="cls-5" d="M139.57,130.78c.08,0,.19-.12.16-.24a1.25,1.25,0,0,0-.24.35S139.63,130.91,139.57,130.78Z"/><path class="cls-5" d="M138.57,131.17c0-.09.11-.08,0-.18S138.5,131.11,138.57,131.17Z"/><path class="cls-5" d="M131.34,129.6c-.09-.06-.14,0-.1.15C131.34,129.74,131.28,129.65,131.34,129.6Z"/><polygon class="cls-5" points="131.13 129.8 131.11 129.72 131.04 129.59 131.13 129.8"/><path class="cls-5" d="M130.51,129.59a.16.16,0,0,1,0-.07S130.48,129.56,130.51,129.59Z"/><path class="cls-5" d="M130.56,129.51a0,0,0,0,0,0,0Z"/><path class="cls-5" d="M130.6,129.56v-.09a.1.1,0,0,1-.05,0S130.6,129.52,130.6,129.56Z"/><path class="cls-5" d="M130.33,129.56l.12.25c.12-.12-.14-.13,0-.39Z"/><path class="cls-5" d="M129.93,129.63c-.11-.08-.27.31-.33,0-.32.15.06.5-.31.59.35.17.2-.56.49-.39C129.64,129.66,129.88,129.7,129.93,129.63Z"/><path class="cls-5" d="M130,130.13c0-.15-.12-.17-.16-.07S129.93,130.29,130,130.13Z"/><polygon class="cls-5" points="129.32 129.76 129.23 129.64 129.2 129.73 129.32 129.76"/><path class="cls-5" d="M129,129.67l.1-.16C129,129.57,128.89,129.55,129,129.67Z"/><path class="cls-5" d="M128.47,129.43c-.08-.07-.19.32,0,.25l0,0C128.45,129.6,128.36,129.46,128.47,129.43Z"/><path class="cls-5" d="M127.23,129.91a.12.12,0,0,0,.14-.11l-.18.06Z"/><path class="cls-5" d="M127.12,130.86c0,.25.17,0,.27.1C127.27,130.89,127.29,130.86,127.12,130.86Z"/><path class="cls-5" d="M127.1,129.54c.06-.09.11,0,.15,0S127.14,129.43,127.1,129.54Z"/><path class="cls-5" d="M126.82,129.58c0-.11,0-.13,0-.2s-.22-.14-.31,0a1.06,1.06,0,0,1-.07.49c.21,0,.38-.46.41-.11l.22-.39C126.94,129.27,126.92,129.62,126.82,129.58Z"/><path class="cls-5" d="M127.07,130.43l-.08-.16c0,.14-.08.16-.14.19C126.82,130.77,127,130.44,127.07,130.43Z"/><path class="cls-5" d="M125.76,129.56l-.22,0,.06,0Z"/><polygon class="cls-5" points="125.65 129.43 125.67 129.34 125.47 129.46 125.65 129.43"/><polygon class="cls-5" points="125.46 129.27 125.48 129.29 125.62 129.25 125.46 129.27"/><path class="cls-5" d="M125.05,129.1v.14c.06,0,.13.14.16,0C125.15,129.26,125.05,129.21,125.05,129.1Z"/><path class="cls-5" d="M122.56,131.76a.26.26,0,0,0,.07-.22l-.14.18S122.56,131.71,122.56,131.76Z"/><path class="cls-5" d="M122.4,131.33l-.26.17c.18.12.28-.06.46,0,0-.1-.21,0-.27-.06Z"/><path class="cls-5" d="M119.21,129.65c.1-.13.05-.13.22-.16a1.24,1.24,0,0,1-.52-.18c0,.1-.25.18-.16.18l.26,0-.09.08C119,129.78,119.1,129.49,119.21,129.65Z"/><path class="cls-5" d="M113.56,122.52a.33.33,0,0,0,.16-.15C113.58,122.31,113.59,122.53,113.56,122.52Z"/></svg>