<svg id="레이어_1" data-name="레이어 1" xmlns="http://www.w3.org/2000/svg" xmlns:xlink="http://www.w3.org/1999/xlink" viewBox="0 0 200 200"><defs><style>.cls-1{fill:none;}.cls-2{fill:#d1d1d1;}.cls-3{clip-path:url(#clip-path);}.cls-4{fill:#ea7259;}.cls-5{fill:#202020;}.cls-6{fill:#252525;}</style><clipPath id="clip-path"><circle class="cls-1" cx="100" cy="100" r="100"/></clipPath></defs><circle class="cls-2" cx="100" cy="100" r="100"/><g class="cls-3"><path class="cls-4" d="M116.72,234.82c18.68-7.68,37.83-17.24,48.51-33.65,11.5-17.65,10.74-41.71,6.72-61.26-4.29-20.82-18.63-38.18-40.77-46.1-19.58-7-44-3.82-61.67,6.12-38.52,21.74-48.29,71.89-28.58,107,10.2,18.16,31.89,30.33,54.89,27.88a75.26,75.26,0,0,0,56.56-35.89c11.91-20.07,15.36-45.34,4.12-66.26-5.76-10.72-17.27-19.35-30.21-22.25a45.54,45.54,0,0,0-39,9.67c-10.17,8.47-14.48,20.22-16.17,32.18-1.39,9.82-2.12,21.5,1.17,31.07,4.29,12.5,15.33,21.61,29.93,23.36a46.45,46.45,0,0,0,34.88-10.07c10-8.3,14-20.25,15.23-32,1-10.2-.15-21.46-6.13-30.4-9.14-13.66-29.07-17.66-42.82-6.8-4.57,3.6-7.51,8.62-10,13.52a80.61,80.61,0,0,0-6.91,18c-3,13-4.44,28.59,7.87,38.33S123.49,207,137.68,201c23.89-10.15,30.8-35.79,27.79-57.36-3-21.76-14.61-43.44-38.12-52.86-12.23-4.91-26.16-6.64-39.12-2.72A69.17,69.17,0,0,0,59,105.7c-14.91,15.16-27.88,36.08-26.9,56.84.57,12.2,5.54,23.23,14.68,32.3,7.45,7.39,17.46,11.94,27.66,15.49a126.52,126.52,0,0,0,25.31,5.45c5.76.75,10.78.87,16-1.87,4.31-2.25,8.42-6.66,9.55-11.09,2.24-8.79-3-21.34-14.51-22.83a147.52,147.52,0,0,1-19.32-3.63q-2.37-.63-4.68-1.39c-4.87-1.6,2.43,1.24-.8-.28-1.41-.66-2.84-1.27-4.22-2-.83-.44-5.45-3.26-2.87-1.57s-1.32-1.2-1.85-1.68-.86-.91-1.33-1.31c-1.53-1.31,1.16,1.3,1.2,1.44-.22-.9-1.83-2.78-2.45-3.61-1.39-1.89.89,3,.27.58-.23-.9-.64-1.79-.88-2.7,0-.17,1.31-.77-.48-2.06.95.19.2,3.71.26.75,0-1.65.11-3.29.16-4.94.08-2.24-.21,1.38-.21,1.38a10.09,10.09,0,0,1,.66-2.84,52.32,52.32,0,0,1,1.85-5.64c.28-.69.61-1.38.87-2.08.77-2.07-.48.89-.49,1,.16-1.39,1.82-3.43,2.57-4.68a93.81,93.81,0,0,1,6.13-9.08c.48-.61,3.82-4.42,2-2.46s1.83-1.84,2.26-2.26q1.52-1.49,3.14-2.87c.72-.61,1.47-1.19,2.2-1.78,2.19-1.77-.4-.23-.73.46.45-1,3.23-1.9,4.29-2.42.31-.16,1.78-.63,1.92-.89-.62,1.18-3.71,1.11-1,.41,1-.25,6-1,2.87-.87s-.38,0,.18,0l3,0c4,0-.77.19-1.1-.21a10.64,10.64,0,0,0,2.18.44c1,.21,1.89.56,2.85.76,2.37.49-1.57-.63-1.49-.63,1.38,0,3.45,1.59,4.62,2.26.13.07,1.88,1.13,1.88,1.12q-3-2.11-1.23-.81c.39.29.76.59,1.13.9s3.83,3.16,3.65,3.41-2.16-2.92-.85-1c.41.62.92,1.2,1.35,1.82,1,1.44,1.77,3,2.74,4.44,1.52,2.26-1.07-2.94-.16-.43.33.92.74,1.82,1.08,2.75.58,1.62,1.09,3.27,1.52,4.93.19.75,1.26,5.87.79,3.31s.24,2.72.28,3.35a55.84,55.84,0,0,1,.12,5.93c0,.93.3,3.7-.33,4.43,1-1.17.64-2.84,0-.56-.21.71-.37,1.43-.58,2.14s-.47,1.4-.7,2.11c-1.31,4,.19-.45.24-.37s-1,1.67-1.13,1.88c-2.24,3.44-.27-.13.27.05-.08,0-4.82,4.53-2.18,2.23s-3,1.77-2.85,1.38,3.74-1,1.57-.69a10.14,10.14,0,0,0-2.12.49c.5-.62,5,.11,1.17-.31,1.07.12,4.2.82,1.44.17-1.53-.36-2.6-1.41,1.2.46a10.16,10.16,0,0,1,2.94,2.36,9,9,0,0,1,1.86,2.78c1.24,3.4.21,2.27.39.78.08-.73.08-1.47.13-2.19s.45-4,.1-1.48c-.32,2.28.08-.34.16-.68.3-1.3.57-2.59.92-3.88a60.32,60.32,0,0,1,3.54-9.82c-1.56,3.34.68-1,1.32-2,.05-.07,1.16-1.83,1.16-1.84a7.58,7.58,0,0,1-4.38,3.16q-3.87,3-8.92.79c-5-.58-5.61-.05-8.51-2.5,2.31,1.95-.85-1.06-1-1.33,1.9,2.57-.83-3.39,0-.29a18,18,0,0,0,.66,2.21c-.11-.05-.39-4.35-.31-2.07.07,1.85.29,3.69.32,5.55,0,1.63-.07,3.25-.12,4.88-.07,2.55-1,.24.23-.81-.27.24-.33,1.67-.42,2s-1.49,4.54-1.44,4.57c-.23-.16,1.89-3.12.59-1.34-.23.32-2,2.83-1.91,2.91s2.5-2.81,1.12-1.37a14,14,0,0,0-1.35,1.18c-.39-1.23,3.85-2,1.14-.88a11.81,11.81,0,0,0-1.67.83c-2,1.35,3.9-.79,1.44-.57a12,12,0,0,0-1.83.46c-.59.17-3,.59.3,0,4.13-.71-.72-.34-.92-.22s4.91.25,2.56.24c-.66,0-3.66-.92-.29,0,2.63.75,1.21.35.4-.07a9.5,9.5,0,0,1,3.86,3.45c-1.88-2.94.57,3.11-.35-.2a12,12,0,0,1-.68-2.54c-.17.16.28,4.07.22,1-.06-3.38-.16-6.73,0-10.11.06-1.86.15-3.72.33-5.58a23.52,23.52,0,0,1,.26-2.37c-.51,2.64-.15,1.28.32-.52.4-1.55,1-3,1.51-4.54.9-2.74-1.91,2.85-.31.83a14.94,14.94,0,0,0,1.06-1.65c1.18-2,3.44-.53,1.45.13,1.37.41,0,.08-.8-.87-.2-.22,1.48-1.05,1.52-1.31-2.24,1.45-1.77-.28-1.45,1,.65,2.66.77-.45,1.18-.65,1.47-1.17-1.36.6-1.86.55a24.35,24.35,0,0,1,2.65-.7c.13.4-4.43,0-2,.29.8.11,4-.09.85-.08-2.88,0,.08,2.11.72,2.54.41.27,1.78-.86-.4-2.31s0,.27.77.6c2.19.89,2.27,3.26,3.87,4.88.63.64-4.91-4.51-4.2-3.93,1.73,1.45,0-.77,0-.75.44.17-.15.59,0,.75.24.37,3.27,6.72,2.4,4.61s.48-1.94.58-1.61c.28,1,.62,1.91.88,2.88.18.73.29,1.48.49,2.2.7,2.54-.22-4.35,0,.27.13,3.19-.06,6.32-.13,9.5,0,2.71.74-3.26.13-.6-.16.71-.27,1.44-.43,2.15a55.84,55.84,0,0,1-1.57,5.66c-.55,1.64-1.24,3.21-1.86,4.83-.78,2,.49-1,.51-1.08a12,12,0,0,1-1.42,2.62c-1.63,2.82-3.48,6.41-6,8.64,3.33-2.89-.42.24-1.21,1-1.19,1.12-2.49,2.14-3.74,3.21-2.6,2.23,3.13-1.82-1.09.75a53.71,53.71,0,0,1-5.08,2.73,12.09,12.09,0,0,0-2,.89c.06-.24,4.75-1.5.91-.34-1.37.42-2.74.84-4.14,1.17a17,17,0,0,0-2.81.56c.08-.06,4.3-.3,2-.22-1.88.06-3.79,0-5.65.09-2.19.1,1.81.17,2,.3a16.09,16.09,0,0,0-2.78-.55c-.68-.16-1.36-.42-2.05-.57-2.69-.56,3.34,1.68,1.06.41-1.12-.62-2.34-1.27-3.51-1.83-2.37-1.14,2.91,2.41,1,.73-.64-.56-1.34-1.07-2-1.63s-1.2-1.21-1.84-1.76c-1.7-1.47,1.37,1.4,1.12,1.4-.65,0-2.23-3-2.63-3.59-.83-1.25-1.53-2.54-2.27-3.83-.25-.45-1.29-2.46-.06-.09,1.4,2.73-.33-1-.45-1.31a57.51,57.51,0,0,1-2.31-7.94c-.18-.82-.31-1.65-.49-2.48-.45-2.11.37,1.92.28,1.86-.73-.53-.4-4.4-.45-5.39a70.05,70.05,0,0,1,.2-9.5c.06-.68.17-1.35.21-2,.14-2.11-.19,1.46-.26,1.57.8-1.21.75-3.9,1.12-5.33a74.69,74.69,0,0,1,3-9c1.24-3.15-1.72,3.1.58-1.09.88-1.6,1.83-3.15,2.86-4.67.32-.47,3-3.61,2.88-3.88.06.13-2.54,2.67-1,1.14.51-.49,1-1,1.46-1.52q1.75-1.74,3.68-3.34c.52-.43,1.06-.84,1.59-1.27,3.33-2.69-2.56,1.41-.35.26,1.41-.73,2.72-1.6,4.14-2.3.73-.37,5.57-2.34,2.54-1.24s2.12-.62,2.76-.8c1.55-.42,3.13-.78,4.73-1.08,5.17-1-3.09,0,.66-.17,1.61-.08,3.21-.19,4.83-.18.65,0,4.68.42,4.79.22-.07.13-4.35-.73-2.14-.24,1.09.25,2.22.39,3.32.64,1.31.31,2.59.7,3.88,1.07,3.35,1-3.59-1.67.58.36,1,.51,2.85,2,4,2.26-.58-.11-3.54-2.85-1-.6.68.61,1.41,1.18,2.08,1.81a17.87,17.87,0,0,0,1.92,1.9c-.15,0-2.26-2.94-1.08-1.24.88,1.26,1.84,2.45,2.65,3.75.58.94,1.08,2.67,1.92,3.41-1.83-1.62-1.2-2.82-.48-.87.3.81.63,1.62.92,2.44a69.65,69.65,0,0,1,2.33,8.92c.7,3.38-.4-3.83.11,1,.18,1.78.31,3.55.4,5.33.13,2.88.14,5.76.06,8.64,0,1.68-.13,3.36-.24,5-.07,1.08-.25,2.16-.27,3.23-.05,2.75.73-2.81.06-.13-.46,1.82-.95,3.65-1.43,5.47-.22.85-1.53,2.4-.06.49,1.65-2.15,0,0-.41.66-.75,1.3-1.62,2.51-2.48,3.75-.29.42-1.74,2.2,0,.13,2-2.38-.81.75-1.06,1-1,.93-1.94,1.81-3,2.67-.7.58-4.45,3.51-2.25,1.82s-1.73,1.07-2.57,1.57c-1.62,1-3.28,1.89-5,2.77-5.89,3.1-12.08,5.74-18.28,8.29-9.91,4.08-13.13,17.54-7.46,25.4,6.58,9.12,17.84,11,28.43,6.65Z"/></g><path class="cls-5" d="M117,116.29c.07,0,0-.23.07-.09S117,116.38,117,116.29Z"/><path class="cls-5" d="M116.28,115.47a.47.47,0,0,1,.51-.47c.23,0,.45,0,.67-.19.05,0,0,.38.09.29.42-.56,1.22,0,1.24.59l-.09.07c0,.1.31-.1.35,0a.36.36,0,0,0-.15.13c.16-.13.17,0,.32,0,0,.08-.19.18-.25.26l.23-.09c.29-.1.33,0,.33.11s0,.24.11.3a.37.37,0,0,0-.15,0c.41.24.33.76.28,1.19a1,1,0,0,0-.31-.12.34.34,0,0,1,.23.38c-.26-.09.1.31-.11.35l0,0c.15.27-.22,0,0,.31l-.19-.1c.22.31-.24,0-.18.16l.05.06c0,.12-.16,0-.18.09l0,0c-.1.19-.3,0-.17.3-.15-.18.11-.17-.13-.43a1.28,1.28,0,0,1-1.58.28.54.54,0,0,1,0-.28c-.07,0-.2,0-.32.06s0-.14,0-.17-.28.21-.3,0a.43.43,0,0,0,.21-.19c-.2.12-.29,0-.42,0a.35.35,0,0,0,.15-.09c-.28.09-.11-.18-.3-.16l.16-.07c.07-.23-.32.16-.31,0a.4.4,0,0,0,.18-.07c-.35,0-.37-.22-.51-.32h.07c-.1-.15,0-.32-.19-.48.08-.07.41,0,.35-.15-.35,0-.12-.28-.51-.22.07-.17.26-.36.19-.49.1.1.41.09.4.2h.22c.12.06-.07,0,.1.09,0,0-.07-.22,0-.23-.14-.17-.42-.46-.33-.65.05.15.32.2.33.28a2.73,2.73,0,0,1-.3-.62c0-.06.19.18.2,0s-.06-.13-.09-.21.21-.25.41,0c.09.1-.05.11.07.17s0-.16.15-.21l0,0c.08,0,.17-.21,0-.36-.07,0,.08.18,0,.12a.33.33,0,0,1,.3-.34c0,.06,0,.15,0,.25a.81.81,0,0,1,.65-.46c0-.16-.14.26-.16.18.14.13.31.08.49.08s.35,0,.37.24c0,0,.11-.2.09-.16s0,.29.09.28c-.08.11.12.05.22.1s0,.06-.1,0c.18,0,.7.38.61.77.08-.05.37.1.38.19h-.21c-.1.09.06.26-.12.29.14.07.07-.09,0-.21s-.19-.23-.07-.16c-.15.08.39.22.1.23,0,.13.28.29.08.45,0,0-.29-.13-.27,0s.09.06.14.25l.06.14c.2.06-.1.21.15.18-.15,0-.07.43-.36.24l-.21-.15c0,.08.16.28.19.43a.19.19,0,0,1-.12,0c.29.27-.2.19-.12.5-.28.06-.59.31-.77.09-.12.17-.28.34-.49.26,0,0,.09-.06.1-.14s-.14,0-.26,0c0-.06-.21-.26-.27-.42-.16.08-.18.3-.23.42,0-.21-.14-.18-.28-.18s-.31,0-.28-.2c.08,0,.3,0,.24-.2.13-.38-.4.09-.45-.25l-.2.27c.07-.21-.42-.24-.12-.39-.16,0,0-.34-.33-.18a3.92,3.92,0,0,0-.06-.78c0-.25.08-.47.39-.5,0-.07.06-.18-.11-.21s.08.17,0,.16-.08-.09-.12-.11c.11-.1.17-.17.38,0,.27-.13-.4-.49,0-.76.1.1.15.11.21,0a1.71,1.71,0,0,1,0-.32c.25-.13.3.16.44.33,0-.06.1-.1.14-.17l-.12.08a.21.21,0,0,0,0-.15l.27.16c-.19-.12,0-.16,0-.23v.07c.06.07.12,0,.15-.08a.26.26,0,0,0-.28-.1c0-.12.07-.14.08-.28.09.21.22.06.3,0s0-.22,0-.23.15,0,.14.14-.11-.08-.12,0,.15.24.21.07-.16-.42.06-.33a.82.82,0,0,0,0,.23l.18.08,0-.2s0,.06,0,.09c0-.23.22-.12.23-.36.08,0,.19.12.27.14v0c.1.11.21,0,.3-.1v0a.24.24,0,0,0,.25-.12c.12.17,0,.76.12.53.11,0,.26-.33.23-.46.21.17.61,0,.7.35.07-.06.07-.12.16-.12.3.22.86.26.79.76-.13,0-.15.13-.23.21.19-.06-.08.19.17,0s.21-.17.19-.3c.24.09.45.4.36.59,0-.09.12-.08.19-.06-.25.12-.23.28-.09.34h0l.17-.06-.14.15c.07,0,.37-.08.25.1a.62.62,0,0,0-.16.1c.17.07.46.21.34.39l-.25.15c0,.06.21.15.27,0-.13.26-.17.42-.39.49a1.15,1.15,0,0,1,.07,1.59l-.11-.08c-.17.06.17.19,0,.22s-.28-.06-.37-.22c-.2.07.08.31,0,.44.13.12,0-.14.13,0s-.25.13-.08.31c-.11,0-.23-.18-.3-.27l0,.17c-.31-.12-.24-.57-.62-.71l0,.08c-.25-.13-.11-.34-.3-.27.06.14.28.46.42.48-.07.19.4.5.2.66-.15-.07.12-.17-.07-.29s-.08.24-.2.25c.14,0,.25.27.21.36s-.09-.25-.25-.16c.07.14,0,.34.17.33.14.33-.22,0-.18.32-.17-.18-.12-.57-.35-.58.15.19-.07.41.19.66-.11,0-.2-.18-.21-.34-.16-.08-.1.52-.32.1l0,.24a1.58,1.58,0,0,1-.23-.2c-.07,0-.15.21-.23.21s-.07,0-.09-.16c0,0-.26.07-.13.3s.15-.15.26,0l0,.06,0,0c-.15-.16-.19.13-.27.23l0-.13c0,.06-.18,0-.2.2a.18.18,0,0,0,0-.21l0,.22c-.23.11-.08-.37-.28-.31l.15-.16s-.1-.16-.19-.1a5.6,5.6,0,0,1-.17.57c-.13.08,0-.22-.17,0l.17-.22c0-.07-.08-.32-.22-.34s-.29.31-.15.44a.18.18,0,0,1-.08-.28c-.18,0,0,.22-.19.3a4.49,4.49,0,0,1-.22-.58,2,2,0,0,0,.22-.27l-.08,0c.18-.22,0-.21.14-.45,0-.06-.12,0-.19.06,0,.47-.39.5-.5.88-.31,0,.26-.94-.25-.51,0,.12-.27.32-.07.3-.12-.12-.29.3-.39.05.21-.07.08-.43.38-.53-.08.11,0,.15.09.13,0-.17.2-.35.08-.42s-.19-.07-.3.11.13.06,0,.22c-.22,0,0-.35-.34-.07.12,0,0,.26-.08.39l-.19,0,.11-.11c-.13-.24-.23.18-.4,0l.11-.3c.21-.15.2.32.43,0-.1-.11-.28,0-.31-.16,0,0,.08,0,.13,0s.32-.48,0-.39c-.16,0-.13.08-.24.18-.2-.15-.38-.11-.5-.24.27-.15-.14-.26.23-.28-.12.17.13.46.41.32.21-.31.08.17.38-.06-.11-.13.16-.37.32-.54,0,0-.11,0-.16,0s-.14.17-.31.32c-.08-.18-.27-.24-.52-.23.06-.11.26-.21.32-.16a.84.84,0,0,1-.27-.61c-.29.26-.15-.21-.41,0,0,.14-.24.35-.42.33,0-.1.15,0,.21-.11-.23-.06.25-.26-.08-.28.18.21.44-.07.73-.1-.19-.1.19,0,.16-.18a.83.83,0,0,1-.38-.49c.27-.2.09-.55.16-.75.18,0,.44.15.53.09s-.35-.08-.14-.16l0,0c0-.09.33-.13,0-.45l.24.25s0-.07,0-.12.19.11.22.19c.23.09.08-.15.16-.23l-.18-.11c0-.26.29-.18.46-.3l.05.19a1.09,1.09,0,0,1,.08-.15c0,.2.11.31.15.15a.91.91,0,0,0-.09.51c-.08-.1,0-.24-.12-.42s-.24,0-.15.14c.06,0,0,0,0-.12.13.24.06.27.14.44,0,0,.07,0,0,0,0,.14,0,.17,0,.2s-.12-.12-.16-.19c.14.2.17.27.07.28-.26-.14.06.21,0,.23a1,1,0,0,1-.39-.42c-.14,0,0,.07-.19.08a4,4,0,0,1,.46.39l-.17-.07c.06.11.32.19.25.25a.45.45,0,0,0-.14.32l-.18,0c.39,0,.19.18.39.2-.11.22.28.17.06.41a2.55,2.55,0,0,1,.72.36l-.18.21c.14-.15,0,.14,0,.14,0-.22.2-.2.29-.34,0,.24.27.09.38-.08l0,.18c.17-.32.19,0,.32,0s0,.25.08.23c0-.3.08-.28.12-.48h0a.56.56,0,0,1,.19.11.57.57,0,0,1,.14-.38c.06-.08.15-.15.1-.31l.18.11c-.12-.23-.12-.26-.07-.34s.1-.15,0-.2h.37c.12-.06-.1-.12-.36-.06.11-.07-.2,0,.1-.15,0-.07-.19,0-.24,0l0,0c.07-.1,0-.13-.06-.13v0a1.07,1.07,0,0,0,.21-.17c-.1,0,0-.16-.32.17.08-.11,0-.1,0-.08s-.08,0,0-.14a1.63,1.63,0,0,1-.11.2s0-.25-.12-.07c0-.06,0-.2,0-.21s0,.15,0,.22-.2-.23-.28-.14a.32.32,0,0,0,0,.15l-.56-.37c0,.08.22.16.12.12h0a.48.48,0,0,0-.18,0h0a.45.45,0,0,0,.16-.19v0c0-.07,0-.08,0,0v0a.28.28,0,0,0,0,.09s0,0,0,0a.25.25,0,0,0,0,.11s0,0,0,.07h0a.71.71,0,0,0-.44-.07s-.13,0,0,0l.19,0c.11,0,.14,0,0,0l-.07,0c-.12,0,.43-.22.21-.15s-.14.06-.28.14c.14-.11.29-.3.13-.18l.1-.1c-.16.13-.19.2-.14.12a.15.15,0,0,0,0-.08h0c0,.12,0-.28,0,.28h0a.38.38,0,0,0,0,.12,1.1,1.1,0,0,0,.19.28s.12.08,0,0a.52.52,0,0,0-.18,0h-.11l.46-.06h0v0h0s0,0,0,0,0,0,.07.12c.1.33.15.31.13.16l0,.11c-.13-.25,0,0-.12-.28.07,0,0-.07,0-.09a1.29,1.29,0,0,0,.22.1L118,117l.07,0a1.28,1.28,0,0,0-.25-.1c-.13,0,0,0,.06,0s.13-.23,0-.23-.17-.07-.28,0c-.25-.45-1-.66-1.27-.18C116.37,116.46,116.07,115.74,116.28,115.47Z"/><path class="cls-5" d="M116.93,116.31c0-.15-.05-.24,0-.43A2,2,0,0,1,116.93,116.31Z"/><path class="cls-5" d="M114.91,117.68s0,.07-.06.08-.16-.05-.09-.1S114.85,117.68,114.91,117.68Z"/><path class="cls-5" d="M115.15,118.53c-.12,0-.31-.07-.37-.18A2.53,2.53,0,0,0,115.15,118.53Z"/><path class="cls-5" d="M115.21,119.54c0,.13-.09.16-.16.08S115.14,119.57,115.21,119.54Z"/><path class="cls-5" d="M115.47,119.38c0,.05,0,.13,0,.2S115.29,119.52,115.47,119.38Z"/><path class="cls-5" d="M116.81,120.72s.18-.06.18.09C117,120.7,116.71,120.89,116.81,120.72Z"/><path class="cls-5" d="M117.75,120.75s0,0,.07,0a.11.11,0,0,1-.06.16Z"/><polygon class="cls-5" points="116.21 117.97 116.07 117.94 116.18 117.86 116.21 117.97"/><path class="cls-5" d="M117.1,114.31c-.09.1-.09-.11-.11-.13S117,114.35,117.1,114.31Z"/><polygon class="cls-5" points="115.51 116.95 115.51 116.93 115.78 116.94 115.51 116.95"/><path class="cls-5" d="M82.36,115.8c.07,0,0-.23.07-.09S82.35,115.88,82.36,115.8Z"/><path class="cls-5" d="M81.65,115a.47.47,0,0,1,.52-.46c.23,0,.45,0,.67-.19,0,0,0,.37.09.29.42-.56,1.22,0,1.24.59l-.09.07c0,.1.31-.1.34,0s-.09,0-.15.13c.17-.13.18,0,.33,0,0,.08-.19.17-.25.26l.23-.1c.29-.1.33,0,.32.12s0,.23.12.3c-.06,0-.11,0-.15,0,.41.24.32.77.28,1.2a.85.85,0,0,0-.31-.13.34.34,0,0,1,.22.39c-.25-.09.11.3-.11.34l0,0c.16.26-.21,0,0,.3l-.19-.09c.22.31-.25,0-.18.15l0,.06c0,.13-.16,0-.19.09l0,0c-.1.18-.29,0-.16.29-.15-.18.11-.17-.13-.42a.58.58,0,0,1-.1.12,1.37,1.37,0,0,1-1.48.15.54.54,0,0,1,0-.28c-.07,0-.2,0-.32.07s0-.15,0-.17-.27.21-.29,0a.39.39,0,0,0,.21-.19c-.21.12-.29,0-.42,0a.27.27,0,0,0,.15-.09c-.28.1-.11-.18-.3-.16l.16-.06c.06-.23-.32.15-.31,0,.07,0,.12,0,.18-.07-.35,0-.38-.22-.51-.33s.06,0,.06,0,0-.31-.18-.47c.07-.07.4,0,.35-.16-.35,0-.12-.27-.51-.22.07-.16.26-.35.19-.49.1.11.41.09.4.2h.21c.13.06-.06,0,.11.09,0,0-.07-.21,0-.23-.14-.16-.42-.46-.33-.64,0,.15.31.2.33.28a2.61,2.61,0,0,1-.3-.63c0-.06.19.19.2.06a.4.4,0,0,1-.09-.21s.21-.26.41,0c.09.1-.06.11.06.18s0-.17.16-.22v0c.08,0,.18-.21,0-.36-.07,0,.08.18,0,.13a.32.32,0,0,1,.29-.34c0,.06,0,.15,0,.24a.88.88,0,0,1,.66-.46c0-.15-.15.27-.17.19.15.12.32.07.5.08s.35,0,.37.24c-.05,0,.11-.2.08-.16.13.11,0,.28.1.28-.08.1.12,0,.21.09s0,.07-.09,0c.18,0,.7.37.61.76.08,0,.37.1.38.2h-.21c-.1.09.06.26-.12.29.14.07.07-.09,0-.22s-.19-.23-.07-.16c-.15.09.39.22.1.23,0,.14.28.29.08.45,0,0-.29-.13-.28,0s.1.06.14.25l.06.13c.2.06-.09.22.16.19-.16,0-.07.42-.36.24l-.22-.16c0,.09.17.29.2.43s-.1,0-.12,0c.29.28-.2.19-.12.5-.28.07-.59.32-.77.1-.12.16-.29.33-.49.25,0,0,.09,0,.1-.14s-.14,0-.26,0-.21-.25-.27-.42c-.16.08-.19.3-.24.43,0-.22-.13-.19-.27-.18s-.31,0-.29-.21c.09,0,.3,0,.25-.19.13-.39-.4.08-.45-.25a3.17,3.17,0,0,0-.21.27c.07-.22-.41-.24-.11-.4-.16,0-.05-.33-.33-.18a6.33,6.33,0,0,0-.06-.78.42.42,0,0,1,.39-.5c0-.06,0-.17-.11-.2s.08.16-.05.16-.07-.09-.11-.11c.11-.11.17-.17.37,0,.28-.12-.39-.49,0-.75.09.09.15.1.2,0s0-.21,0-.32c.25-.13.29.15.44.32,0-.06.1-.1.14-.16l-.12.08a.21.21,0,0,0,0-.15l.26.15c-.18-.11,0-.15,0-.22v.07c.06.07.12,0,.15-.09a.29.29,0,0,0-.28-.1c0-.12.07-.13.07-.27.09.2.23.05.31,0s0-.22,0-.22.15,0,.14.14-.11-.08-.12,0,.15.25.21.07-.16-.41.06-.33a.93.93,0,0,0,0,.24L83,114l0-.2s0,.07,0,.09c0-.22.22-.11.22-.35.09,0,.2.11.28.13l0,0c.1.12.22,0,.31-.1v0a.24.24,0,0,0,.25-.11c.12.16,0,.76.11.53.11,0,.27-.33.24-.47.2.18.61,0,.7.36.07-.06.07-.12.16-.13.29.22.86.27.79.76-.13,0-.15.13-.24.21.19-.06-.07.19.18,0s.21-.17.19-.3c.24.1.45.41.36.6,0-.1.12-.09.19-.07-.26.13-.23.28-.09.35h0l.17-.05-.14.15c.07,0,.37-.09.25.09a.69.69,0,0,0-.17.1c.18.07.47.21.34.39l-.24.16c0,.05.2.14.27,0-.13.27-.17.42-.39.49a1.16,1.16,0,0,1,.07,1.6l-.11-.08c-.17.06.17.18,0,.22s-.29-.06-.37-.23c-.2.07.07.31.05.45s0-.14.13,0-.26.13-.08.32c-.11,0-.23-.19-.3-.27l0,.16c-.3-.11-.23-.57-.61-.71l0,.09c-.25-.13-.12-.34-.3-.27.05.13.28.45.42.47-.08.19.4.51.2.66-.15-.07.12-.16-.07-.28s-.08.23-.21.24c.15,0,.26.27.22.36s-.09-.24-.25-.16c.07.14,0,.34.17.34.14.33-.22,0-.18.32-.17-.18-.12-.58-.36-.58.16.18-.06.4.2.65-.12,0-.2-.18-.21-.33s-.1.51-.32.1l.05.24a2.91,2.91,0,0,1-.23-.2c-.1,0-.25.41-.32,0,0,0-.26.07-.13.3s.13-.21.3.1c-.17-.24-.22.08-.31.19l0-.14c-.05.07-.18,0-.2.2a.21.21,0,0,0,0-.21l0,.22c-.22.12-.07-.36-.27-.3l.15-.17s-.11-.16-.2-.09a5.71,5.71,0,0,1-.16.57c-.13.07,0-.22-.18,0l.18-.23c0-.06-.08-.32-.22-.33s-.29.3-.15.43a.16.16,0,0,1-.08-.27c-.18,0,0,.21-.19.3a6,6,0,0,1-.22-.58l.22-.27-.08,0c.18-.22,0-.2.14-.45,0-.06-.12,0-.19.06,0,.47-.39.5-.5.88-.31,0,.26-.94-.25-.5,0,.11-.27.32-.07.3-.12-.12-.3.29-.39,0,.21-.06.08-.42.38-.52-.08.11,0,.14.09.12s.2-.34.08-.41-.2-.08-.3.1.13.07-.05.22c-.21,0,0-.34-.33-.07.12,0,0,.26-.09.39l-.19,0,.12-.1c-.13-.25-.23.17-.41,0l.12-.3c.21-.15.19.32.43,0-.1-.11-.29,0-.32-.16l.14,0s.32-.49,0-.4c-.17,0-.13.08-.25.19-.19-.16-.37-.11-.49-.24.27-.15-.14-.26.23-.29-.12.17.13.46.4.32.22-.3.09.17.39-.06-.12-.12.16-.36.32-.53,0,0-.11,0-.16,0s-.14.17-.31.32a.47.47,0,0,0-.52-.23c.06-.12.26-.21.32-.16a.86.86,0,0,1-.27-.62c-.3.26-.16-.21-.41,0,0,.15-.24.35-.42.33,0-.09.15,0,.21-.11-.23,0,.25-.25-.08-.27.18.21.44-.08.73-.11-.2-.09.19,0,.16-.17a.82.82,0,0,1-.38-.5c.27-.2.09-.54.16-.75.17,0,.44.15.53.09s-.35-.07-.14-.16l0,0c0-.09.32-.13,0-.45.07.09.16.17.24.26s0-.08,0-.12.18.11.21.19c.24.09.09-.16.17-.24l-.19-.11c.06-.26.3-.17.46-.3l.06.19.08-.14c0,.19.11.31.15.14a.94.94,0,0,0-.09.51c-.09-.1,0-.24-.12-.42s-.24,0-.15.15c0,0,0,0,0-.13.13.25.06.27.14.44,0,0,.07,0,0,0,0,.13,0,.17,0,.19s-.13-.12-.17-.19c.15.2.17.28.08.28-.26-.13.06.22,0,.23a1,1,0,0,1-.39-.42c-.15,0,0,.07-.19.08a4,4,0,0,1,.46.39l-.17-.07c.06.11.32.2.25.25a.45.45,0,0,0-.14.33l-.18,0c.39,0,.19.18.39.2-.12.21.28.17.06.41.28.14.53.16.71.35l-.18.21c.15-.14,0,.15,0,.14,0-.21.19-.2.29-.34,0,.24.26.09.38-.08l0,.18c.16-.31.19,0,.32.06s0,.25.07.22c.06-.3.09-.28.13-.48a.52.52,0,0,1,.24.13c0-.23.06-.31.14-.38s.15-.16.09-.32l.19.11c-.13-.23-.12-.26-.08-.33s.1-.15,0-.21h.38c.12-.07-.1-.12-.37-.07.11-.06-.19,0,.11-.15,0-.06-.19,0-.24,0l0,0c.07-.1,0-.12-.06-.12v0a.8.8,0,0,0,.21-.17c-.11,0,0-.15-.32.18.07-.11,0-.1,0-.09s-.08,0,0-.13c0,.11-.07.12-.11.2s0-.26-.12-.07c0-.06,0-.2,0-.22s0,.16,0,.23-.2-.23-.28-.15a1.47,1.47,0,0,0,0,.16l-.55-.37c0,.07.22.16.12.12h0a.34.34,0,0,0-.18,0s0,0,0,0a.52.52,0,0,0,.16-.19h0c0-.07,0-.07,0,0v0a.31.31,0,0,0,0,.1h0a.39.39,0,0,0,0,.11l0,.07h0a.79.79,0,0,0-.44-.07s-.14,0,0,0l.19,0c.11,0,.14,0,0,0l-.07,0c-.12,0,.42-.23.2-.15s-.13,0-.27.13c.14-.1.29-.29.13-.17l.09-.1c-.15.13-.18.19-.13.11l0-.07h0c0,.13,0-.28,0,.28h0a.49.49,0,0,0,0,.13,1.29,1.29,0,0,0,.18.27s.13.08,0,0a1,1,0,0,0-.18,0h-.11l.46,0h0v0s0,0,0,0,0,0,0,0,0,0,.06.12c.08.27.14.31.14.24v-.07a.54.54,0,0,0,.05.11c-.13-.26,0-.05-.12-.28.07,0,0-.07,0-.1s.24.13.23.1l-.16-.08.07,0-.25-.1c-.13,0,0,0,.05,0s.14-.23,0-.23-.17-.07-.28,0c-.25-.45-1-.66-1.27-.19C81.75,116,81.45,115.25,81.65,115Z"/><path class="cls-5" d="M82.31,115.82c0-.15,0-.24,0-.43A3.05,3.05,0,0,1,82.31,115.82Z"/><path class="cls-5" d="M80.29,117.19s0,.06-.07.08-.15,0-.08-.11S80.23,117.18,80.29,117.19Z"/><path class="cls-5" d="M80.52,118c-.11.06-.31-.06-.37-.17A3,3,0,0,0,80.52,118Z"/><path class="cls-5" d="M80.58,119.05c0,.13-.08.16-.16.07A.33.33,0,0,1,80.58,119.05Z"/><path class="cls-5" d="M80.85,118.89c.05,0,0,.12,0,.2C80.92,119,80.67,119,80.85,118.89Z"/><path class="cls-5" d="M82.19,120.23s.18-.06.18.09C82.35,120.21,82.09,120.4,82.19,120.23Z"/><path class="cls-5" d="M83.13,120.26s0,0,.07,0a.12.12,0,0,1-.07.17Z"/><polygon class="cls-5" points="81.58 117.48 81.45 117.44 81.56 117.36 81.58 117.48"/><path class="cls-5" d="M82.48,113.82c-.09.09-.09-.12-.11-.13S82.36,113.85,82.48,113.82Z"/><polygon class="cls-5" points="80.89 116.46 80.89 116.44 81.16 116.45 80.89 116.46"/><path class="cls-5" d="M101.59,114.73c0-.1-.22,0-.08-.08S101.67,114.73,101.59,114.73Z"/><path class="cls-5" d="M105,128.74c-.27.69-.56,0-.86.4,0,0,0-.38,0-.3-.3.53-.69.18-1-.26l0-.11c-.06-.08-.16.27-.22.22a.59.59,0,0,0,0-.2c0,.21-.12.09-.16.25,0-.09,0-.26,0-.35l0,.24c-.15.58-.25-.06-.41.23a.44.44,0,0,0,0-.16c-.25.34-.53.25-.79.36a1.86,1.86,0,0,0,0-.34c0,.25-.12.31-.19.36,0-.27-.14.23-.2.08v-.06c-.08.27-.07-.17-.15.16l0-.21c-.06.37-.07-.21-.13,0v.08c0,.08-.06-.11-.1-.05v0c-.11.09-.15-.13-.18.17,0-.24.11-.1.09-.45a1.24,1.24,0,0,1-1,.15,1.45,1.45,0,0,1,0-.28c0,.06-.13,0-.17.19a.52.52,0,0,0,0-.17c0-.12-.1.31-.15.17a.68.68,0,0,0,0-.27c-.08.22-.15.17-.22.24a1.08,1.08,0,0,0,0-.17c-.1.25-.12-.07-.21.08l0-.16c-.08-.22-.07.35-.15.21a.48.48,0,0,0,0-.18c-.11.3-.24.17-.36.26a.41.41,0,0,0,0-.07c-.11,0-.18-.08-.33,0,0-.08.16-.39,0-.35-.13.32-.22.1-.33.47-.08-.07-.15-.22-.27-.14.11-.1.19-.36.27-.38l.07-.19c.09-.13,0,0,.11-.12,0,0-.2.11-.19.06-.2.18-.49.46-.62.43.13-.08.21-.28.29-.33l-.15.12a4.78,4.78,0,0,1-.42.26s.18-.18.08-.16a.87.87,0,0,1-.18.11s-.18-.1.06-.31c.08-.1.08,0,.15-.1s-.13,0-.16-.06l0,0c0-.07-.16-.06-.29.09s.15-.12.1,0-.24,0-.27-.08a.52.52,0,0,0,.2-.08.5.5,0,0,1-.44-.17c-.14.06.26-.06.19,0,.17-.24-.31-.25,0-.5,0,0-.2.07-.16.06s.23-.15.16-.18c.12,0,0-.06-.06-.12s.06,0,.07,0a.44.44,0,0,1-.06-.59c-.08,0-.27-.14-.26-.2l.19,0c.12,0,0-.15.17-.14-.21-.12.13.38,0,.24.16,0-.27-.21,0-.16,0-.08-.18-.22,0-.26,0,0,.24.12.24.05s-.08,0-.13-.13l-.06-.07c-.18,0,0-.08-.17-.09.15,0-.06-.17.23-.08l.23.07s-.23-.13-.32-.19a.26.26,0,0,1,.11,0c-.36-.11,0-.09-.21-.22.14,0,.06-.21.29-.18-.09-.1-.2-.2-.11-.25a.26.26,0,0,0,.11.08c.12,0,0-.06,0-.12s.23,0,.37,0a1,1,0,0,0-.4-.18c.36,0-.17-.25.17-.22,0,0,.14.15.24.13.36.06-.22-.21,0-.24l-.29-.08c.19,0-.13-.19.16-.08-.09-.07.13-.08-.15-.17.27-.06,0-.41.49-.32,0,0,0-.07-.12-.11s.1.09,0,.06-.08,0-.12-.07.11,0,.33.08c.2,0-.44-.29-.29-.38s.16.06.16,0l-.18-.15c.08-.07.28,0,.47.13,0-.06,0-.11-.13-.19l.26,0c-.18,0-.1-.09-.14-.13l0,0c.08,0,.05,0,0-.08a.27.27,0,0,0-.23,0c-.08-.06,0-.09-.14-.16.19.09.16,0,.19,0s-.15-.12-.14-.13,0-.06.16,0-.1,0,0,0,.25.08.14,0-.37-.14-.23-.17.12.07.18.12l.12,0-.17-.08.09,0c-.18-.1,0-.14-.22-.24,0,0,.15,0,.18-.06v0c.12,0,.07-.09,0-.17h0s0-.08-.08-.15c.15,0,.65.25.46.1,0-.07-.28-.23-.39-.26.15,0-.08-.3.22-.28-.07,0-.11-.06-.14-.11.13-.13-.08-.42.3-.4.06.08.17.08.27.12-.14-.1.17,0-.08-.1a.61.61,0,0,0-.31-.09c-.05-.13,0-.27.17-.26a.22.22,0,0,1-.16-.09c.24.12.3.07.24,0l-.15-.08.17,0s-.31-.17-.14-.15l.16,0c-.1-.1-.28-.27-.13-.28l.23.06a.25.25,0,0,0-.2-.13.59.59,0,0,1,.4,0c-.39-.38-.31-.63-.21-.82l.11.06c.13,0-.18-.12-.09-.12s.24.07.36.17-.16-.19-.19-.26.08.08-.1,0,.15-.06-.06-.17a1.44,1.44,0,0,1,.33.16l-.09-.09c.28.06.41.33.75.42l0-.06c.25.06.22.23.34.16a1.12,1.12,0,0,0-.51-.28c0-.13-.5-.29-.45-.38s0,.09.19.16-.06-.15,0-.16a.59.59,0,0,1-.34-.18c.12,0,.2.13.25.06-.13-.07-.2-.18-.31-.16-.28-.16.11,0-.1-.18.22.06.44.28.58.25-.2-.08-.23-.22-.54-.31a.66.66,0,0,1,.34.14c.13,0-.32-.28.07-.12l-.19-.1.24,0s-.22-.25.08-.11c0,0,0-.12-.2-.18s.13.14-.16,0c.24.07,0-.09-.07-.16l.12,0s0-.08-.12-.14a.31.31,0,0,0,.18.06l-.17-.09c-.06-.12.32.12.3,0l.11.12s.15,0,.11,0l-.46-.26c-.06-.08.19.06,0-.06l.17.14s.28.08.3,0-.26-.22-.37-.2.13,0,.24,0c0-.09-.18-.07-.26-.17.11,0,.3,0,.47,0l.25.18,0,0c.2.15.17,0,.39.17,0,0,0-.08-.07-.13-.39-.08-.47-.31-.81-.43-.06-.14.84.29.35,0-.09,0-.33-.18-.26-.08.06-.05-.32-.18-.15-.2s.36.08.53.25c-.11-.06-.1,0-.07,0s.34.15.36.08,0-.12-.18-.19,0,.08-.19,0c0-.12.26,0-.07-.19,0,.07-.2,0-.33-.06l-.06-.09.13.06c.12-.06-.23-.12-.16-.2l.27.06c.21.11-.14.09.22.23,0-.06-.14-.16,0-.18s0,0,.06.08.5.15.25,0c-.09-.09-.12-.07-.25-.12s-.14-.2-.14-.28c.26.12.07-.1.31.08-.16,0-.19.12,0,.26s-.07.06.24.21c0-.08.33,0,.54.12,0,0-.06-.08-.08-.1a3,3,0,0,0-.39-.13c.08-.08,0-.21-.16-.33.1,0,.29.09.29.14a.36.36,0,0,1,.14-.32c-.33-.05,0-.14-.31-.2a.71.71,0,0,1-.45-.09s.13,0,.21.06c-.16-.1.29,0,0-.1.06.13.37.16.6.27-.11-.12.17.07.2,0a1,1,0,0,1-.22-.35c.26,0,.08-.25.09-.34s.41.12.47.09-.31-.06-.16-.11l0,0s.24-.1-.15-.26l.29.13s0,0-.06-.07a.66.66,0,0,1,.25.09c.22,0,0-.13,0-.19l-.19,0c-.11-.15.08-.16,0-.28l.17.06-.09-.09c.17.06.29,0,.16,0l.38.29c-.11,0-.19-.12-.37-.14s-.14.08,0,.15,0,0-.07-.09c.25.06.22.11.38.19,0,0,.08,0,0-.05.11.07.12.12.11.18s-.16,0-.23-.06c.22.07.27.15.19.21-.26,0,.11.2,0,.27a1.7,1.7,0,0,1-.44-.3c-.12,0,0,.06-.13.08a1.66,1.66,0,0,1,.46.29l-.16,0c.07.1.3.18.23.25a1.2,1.2,0,0,0-.22.37l-.16-.06c.32.19.06.25.18.39-.19.08,0,.36-.24.32a1.14,1.14,0,0,1-.06.78l-.21-.14c.15.12-.14,0-.12,0,.19,0,.21.16.34.25-.22,0-.08.26,0,.43l-.15-.06c.25.22,0,.23-.14.33s-.22,0-.21,0a1.11,1.11,0,0,1,.31.37.39.39,0,0,1-.26.19c.25.42-.07.6,0,1l-.19-.06c.28.44-.19.61-.08.93l-.3-.17c-.12,0,0,.2.25.29-.13,0,.08.24-.19.17-.09,0,.11.16.13.23-.18.1-.17.16-.16.33l0,0c-.06,0-.19-.11-.23-.08s-.15.15.24.27c-.27,0,0,.41-.29.43.1,0,.11.07.17.12s-.29.17-.16.35c-.06,0-.16-.11-.19-.06s.13.06.18.12c.11.29-.35.33-.36.54.08.42-.14.72-.2,1l-.07,0c.25.21-.38.14,0,.38-.08,0-.06.08-.2,0,.18.15-.26.17,0,.38,0,0,0,0,0,0-.2.07,0,.25-.19.33a.48.48,0,0,0-.12-.08c-.16,0,.29.22-.08.13,0,0,.18.08.17.06a.5.5,0,0,0-.1.43,2,2,0,0,0,0,.24l0,.11,0,0c-.24,0-.65-.07-.37,0-.08,0,.15,0,.07,0,.1,0-.45,0-.25.07a2.39,2.39,0,0,1,.28,0c-.16.06-.39.13-.21.15l-.13,0c.36,0,.16.1.59,0,0,.07.14.08.24,0a.53.53,0,0,0,.17-.15v0h.13l.45,0a2.48,2.48,0,0,1,.91.22c.12.38.13.37.3.24a.29.29,0,0,0,0,.13c0-.3.11,0,.15-.3a2.64,2.64,0,0,0,.69,0s-.08.27,0,.26l.06-.19v.09a.43.43,0,0,0,.06-.29c.62-.21,1.17.44,1.77.41.13.13.34,0,.5,0,.42.43.82.77,1.28.5C105.33,127.79,105.24,128.57,105,128.74Z"/><path class="cls-5" d="M101.59,114.84c-.14,0-.22,0-.38-.08C101.33,114.79,101.47,114.8,101.59,114.84Z"/><path class="cls-5" d="M99.84,115.9s-.06,0-.09,0-.1-.08,0-.07S99.78,115.88,99.84,115.9Z"/><path class="cls-5" d="M99.64,116.25a.28.28,0,0,1-.17-.22Z"/><path class="cls-5" d="M99.06,116.41c-.1,0-.15,0-.14-.08A.64.64,0,0,1,99.06,116.41Z"/><path class="cls-5" d="M99.31,116.54s-.08,0-.15,0C99.26,116.58,99.12,116.45,99.31,116.54Z"/><path class="cls-5" d="M98.72,117.15s.08.1,0,.06C98.77,117.23,98.56,117.07,98.72,117.15Z"/><path class="cls-5" d="M98.76,117.57s0,0,0,0a.19.19,0,0,1-.14-.08Z"/><polygon class="cls-5" points="96.86 124.36 96.82 124.3 96.93 124.34 96.86 124.36"/><path class="cls-5" d="M96.36,128.11c.09,0-.09.1-.1.12S96.4,128.17,96.36,128.11Z"/><polygon class="cls-5" points="98.18 128.78 98.17 128.78 98.28 128.53 98.18 128.78"/><path class="cls-6" d="M87.2,145.52c.32.07-.08-.25.23,0C87.36,145.58,87.27,145.63,87.2,145.52Z"/><path class="cls-6" d="M88.51,145.78c1.15-.27,2.32.66,3.52.56.13,0-.11.3.2.3a8.37,8.37,0,0,1,4.08,1l-.1.07c.25.12.61-.14.87-.06,0,.06-.1.08,0,.17.1-.17.5,0,.63-.14.1.09.07.23.2.33l.18-.18c.49-.43,1,.15,1.66,0,0,0-.1.07,0,.13,1-.22,2.14-.08,3.19-.2a.3.3,0,0,0,0,.29c.05-.21.38-.27.66-.31.13.24.48-.22.81-.1l0,0c.24-.25.37.12.55-.17l.17.17c.09-.32.36.16.55,0v-.07c.18-.09.29.06.47,0l0,0c.4-.12.65,0,.62-.21.16.19-.39.13-.13.39,1.33-.37,2.71-.57,4-.87.18.06.28.07.34.15.12-.09.49-.18.58-.33,0,0,.11.1.19.09.26,0,.19-.33.48-.29-.08.09-.1.17,0,.25.18-.24.48-.3.73-.45,0,.05-.09.1-.06.17.23-.31.54-.13.75-.34l-.05.16c.47,0,0-.32.41-.34-.07.07,0,.12,0,.18.25-.34.79-.48,1.08-.68,0,0,0,.06,0,.06a5.23,5.23,0,0,0,1-.49c.15,0,.12.35.43.09-.15-.22.48-.47.1-.6a2.24,2.24,0,0,0,.85-.64c0,.18.36.14.17.35l.27,0c.06.11-.19.13,0,.19a3,3,0,0,1,.44-.54,2.15,2.15,0,0,1,.23-1.05c0,.23.31.13.26.26,0-.27,0-.54,0-.8s.2.12.26-.08c-.07,0,0-.14-.06-.22s.27-.49.53-.39-.07.22.1.15.06-.27.19-.49l0,0c.12-.13.13-.48-.09-.4-.06.09.17,0,0,.15a.9.9,0,0,1,.06-.64c0,.09.09.11.16.17-.09-.39-.15-.55-.24-.9-.14,0,.24.11.17.16a.56.56,0,0,0,0-.31,2.06,2.06,0,0,0-.12-.26c0-.1-.1-.13-.12-.2a.36.36,0,0,1,0-.21s-.14.13-.11.1.09-.26,0-.26c.07-.09-.12,0-.22-.06s0-.07.09,0h-.2a2.33,2.33,0,0,0-.32,0l-.38,0a3.29,3.29,0,0,1-.37-.1c0,.08-.29.26-.4.26l0-.17c-.1-.11-.36,0-.39-.13-.23.21.91-.2.59,0-.08-.15-.44.29-.37.05-.23,0-.43.22-.66.08.06,0,.17-.26,0-.24s-.09.09-.35.18l-.16.09c0,.17-.3,0-.15.19-.06-.14-.48.14-.48-.15l0-.23c-.14,0-.21.27-.31.38s-.07-.06-.06-.09c0,.34-.36,0-.5.3-.33-.08-.82.07-1-.13a1.09,1.09,0,0,1-.72.21s.13-.06.14-.13c-.18-.09-.22,0-.37.07,0-.05-.36-.18-.55-.29-.24.12-.14.3-.16.42-.24-.33-.66.25-1,0,.08-.05.34-.19.14-.26-.24-.33-.43.27-.79.12l.1.28c-.16-.17-.51.19-.49-.1-.11.11-.41-.08-.37.2-.58-.22-1.4.19-1.76-.3-.09,0-.29,0-.25.14s.19-.11.24,0-.08.09-.09.12c-.18-.06-.32-.07-.16-.3-.4-.17-.4.47-.91.37,0-.12,0-.16-.17-.14l-.28.2c-.33,0-.19-.26-.2-.45-.17,0-.39,0-.47.17l-.21-.25c.16.18-.14.12-.23.17l.09,0c0-.08-.24,0-.34,0s.23.17.34.2c-.09.09-.23.07-.35.17,0-.19-.28-.14-.42-.16s-.18.17-.23.16-.26,0-.14-.16.13.1.22,0c-.1-.08-.09-.25-.31-.13s0,.38-.28.25c.09,0,.1-.12.17-.19l-.29-.1,0,.17s0-.06,0-.08c-.09.18-.45.05-.52.25-.15,0-.31-.13-.45-.15h0a.5.5,0,0,0-.55.06v0a.63.63,0,0,0-.44.1c-.23-.14-.05-.65-.33-.45-.24,0-.39.3-.29.42-.43-.13-.94.12-1.33-.17-.07.06,0,.11-.16.14-.63-.09-1.36.12-1.85-.25.19-.06,0-.17,0-.27-.16.14-.17-.18-.24.08s0,.24.16.31a1.86,1.86,0,0,1-1.17-.16c.1.09,0,.13-.07.16,0-.24-.23-.3-.45-.23l0,.14-.13-.16c-.08,0-.12.3-.31.14a.34.34,0,0,0,0-.17c-.23.11-.56.28-.79.13l-.17-.24c-.1,0-.29.13-.11.21-.39-.18-.65-.22-.76-.42a4.33,4.33,0,0,1-2.57.12l0-.11c-.2-.13-.14.18-.28.08.09-.09-.13-.25.06-.36-.29-.16-.43.14-.64.16,0,.14.18-.07.11.11s-.41-.18-.49,0c-.07-.1,0-.25.07-.34l-.2.08c-.19-.29.6-.38.4-.74H90c-.13-.26.5-.2.08-.34-.21.08-.42.38-.27.5-.4,0-.26.5-.68.42-.1-.15.34,0,.29-.18s-.42,0-.59,0c.19.11,0,.31-.15.33-.2-.14.17-.19-.13-.26-.07.12-.37.17-.14.3-.16.27-.31-.13-.51.07-.06-.22.4-.42.08-.58,0,.21-.46.19-.34.52a.22.22,0,0,1,0-.35c-.17-.15-.52.28-.51-.12l-.1.19a3.17,3.17,0,0,1-.2-.27c-.17,0-.59.18-.51-.12-.06,0-.44-.06-.33.17s.3-.1.38.21c-.13-.26-.35,0-.5,0v-.12c-.09,0-.27,0-.35.08a.1.1,0,0,0,0-.18l-.12.16c-.34,0,0-.33-.34-.34l.27-.09c-.06,0-.14-.17-.3-.14s-.24.32-.32.44,0-.2-.26-.07l.28-.15s-.13-.31-.32-.33-.24.26-.13.37a.17.17,0,0,1-.08-.23c-.13.07,0,.18-.09.29a1.27,1.27,0,0,0-.34-.39,2,2,0,0,1,.09-.3l-.11,0c.1-.24-.12-.15-.08-.39-.11,0-.19.1-.25.18a.37.37,0,0,1,.13.42.53.53,0,0,0,.05.44c-.12.17-.61-.62-.51,0,.09,0,.17.31.22.13-.14.09.15.31,0,.34,0-.2-.37-.11-.38-.41.07.09.15,0,.16-.08-.15,0-.23-.28-.38-.11s-.17.28,0,.36.1-.16.21,0c-.07.22-.36.11-.1.36,0-.14.24-.05.35,0a.85.85,0,0,0,0,.16l-.1-.09c-.18.16.17.16.07.33h-.28c-.19-.12.21-.27-.13-.38-.08.15.07.26-.06.38a.7.7,0,0,1,0-.14s-.51,0-.29.32c.09.15.12,0,.25.07,0,.27.17.33.2.48-.26,0,0,.28-.28.15.14-.12.09-.45-.13-.59-.32.08.06-.21-.22-.34-.07.24-.34.2-.56.22,0,.09.05.18.08.23.19,0,.19-.06.39-.06a.6.6,0,0,0,.29.68c-.06.1-.26.13-.31,0,.14.3.28.76.4,1.12.17-.35.25.36.4.09,0-.21.11-.46.28-.42s-.12.05-.16.13c.21.06-.14.34.17.34-.26-.25-.37.12-.61.18.25.17-.16.07,0,.31s.52.38.75.56c0,.44.62.67.89.84.06.2-.19.35,0,.5s0-.34.24-.05l-.06,0c.11,0,.45.49.73.18l-.23.22c0,.05.13,0,.19,0s0,.2-.14.21c.1.29.43.18.65.27L85.4,144c.43.05.61.31,1,.4l-.08.16h.26c-.12.14,0,.32.21.23l-.73.16c-.12-.16.25-.12.22-.32a.36.36,0,0,0-.51-.14c.13.07.15,0,.27,0-.05.24-.24.15-.4.25.07,0,.14.13.18.07a.88.88,0,0,1-.55-.09c.19,0,0-.17.06-.21-.1.18-.34.15-.59,0-.09-.32-.59-.13-.88-.39a1.42,1.42,0,0,1,.71-.13c-.14-.2-.22-.11-.35-.31a.87.87,0,0,1-.67.15l.08-.14c-.26-.1-.42.1-.66-.18a8,8,0,0,1-1-1.36l.12-.09c-.43,0-.52-.67-.79-.92a3.84,3.84,0,0,0-.3-.84.86.86,0,0,1,0-.74,3.24,3.24,0,0,1,.91-3.06c0,.1,0,.21,0,.3,0-.26.18,0,.3-.16-.29,0,0-.37.09-.56.53-.19,1.09-.6,1.63-.81l0,.16a1,1,0,0,1,.85-.09c.28.08.45.2.7.27,0,.07.1.24.25.25a1.84,1.84,0,0,1,.85-.24,4.72,4.72,0,0,1,1,.34c1.11-.16,2.15.24,3.28.19l0,.19c1.12-.23,2.39.29,3.33.19l-.12.3c.27.13.66,0,.61-.24.28.13.73-.08.89.2.29.08.37-.11.62-.13a3.56,3.56,0,0,0,1.36.15l-.14,0a.13.13,0,0,0,.06.23c.21-.07.75.14.57-.25.58.26,1.4-.08,2,.24,0-.11.1-.12.16-.18.52,0,1.06.26,1.48.1.09.05-.13.17.08.19s0-.14.16-.19a16.23,16.23,0,0,1,2.47.21c1.37-.18,2.79-.09,4.1-.16V137c.42-.3,1,.26,1.37-.18.1.07.39,0,.32.16.34-.22,1,.15,1.48-.13,0,0-.07,0-.13,0,.52.14,1-.12,1.5,0-.05,0-.15.06-.16.14.22.13.47-.35.61,0,.12,0,.07-.19,0-.18a24.05,24.05,0,0,0,3.7-.55c1,.2.06.59.85.33.07.08.06-.13.07-.06.32-.09.45.45.69.29-.06-.24.16-.11.2-.24a3.66,3.66,0,0,1,.69.43,3.59,3.59,0,0,0,.64.34l-.11.06a1,1,0,0,1,.54.28,1.43,1.43,0,0,1,.4.48c.25.38.34.7.58,1a4.43,4.43,0,0,1,0,.72,2.83,2.83,0,0,1-.11.83,5.88,5.88,0,0,1-.52,1.25,12.86,12.86,0,0,1-1.28,1.9,15.52,15.52,0,0,1-1.5,1.65,9.92,9.92,0,0,1-1,.78l-.28.19-.38.2-.52.22a28.88,28.88,0,0,1-8.09,2.1,1.83,1.83,0,0,0-1.45,0s.07-.07,0-.11c0,.26-.51.07-.56.32l-1.53.08c-.51,0-1,.08-1.55.06.17,0,.25-.23,0-.21l-.21.16,0-.08c-.14,0-.29.16-.15.25-2.74.18-5.32-.65-7.87-1.07a10.3,10.3,0,0,0-2.13-.4,23.9,23.9,0,0,0-5.46-1.84A1.51,1.51,0,0,1,88.51,145.78Z"/><path class="cls-6" d="M86.84,145.4c0-.15-.2-.29,0-.38C86.84,145.13,86.9,145.3,86.84,145.4Z"/><path class="cls-6" d="M82.93,141.18s0-.09,0-.11.16.05.12.13S83,141.18,82.93,141.18Z"/><path class="cls-6" d="M82.44,139.91c.09,0,.3.22.37.37Z"/><path class="cls-6" d="M82.8,139c.1-.05.15,0,.14.06A.25.25,0,0,1,82.8,139Z"/><path class="cls-6" d="M82.55,138.87c0-.07.09-.1.16-.11C82.61,138.74,82.73,138.93,82.55,138.87Z"/><path class="cls-6" d="M83.79,137.69s.07-.13.13,0C83.86,137.6,83.83,137.85,83.79,137.69Z"/><path class="cls-6" d="M84.42,137.46s0,0,.09,0-.05.12-.1.13Z"/><polygon class="cls-6" points="110.9 139.04 110.75 139.1 110.77 138.99 110.9 139.04"/><path class="cls-6" d="M119.52,140.21c0,.13-.12,0-.14,0S119.5,140.34,119.52,140.21Z"/><polygon class="cls-6" points="116.2 144.89 116.23 144.87 116.34 145.07 116.2 144.89"/></svg>