<svg id="Layer_12" data-name="Layer 12" xmlns="http://www.w3.org/2000/svg" xmlns:xlink="http://www.w3.org/1999/xlink" viewBox="0 0 251.39 251.03"><defs><style>.cls-1{fill:none;}.cls-2{fill:#d1d1d1;}.cls-3{clip-path:url(#clip-path);}.cls-4{fill:#f2a696;}.cls-5{fill:#202020;}</style><clipPath id="clip-path" transform="translate(-0.71 -3.24)"><circle class="cls-1" cx="127.34" cy="128" r="124.76"/></clipPath></defs><circle class="cls-2" cx="126.63" cy="124.76" r="124.76"/><g class="cls-3"><path class="cls-4" d="M91.4,116.57c1.49,0,3,.1,4.44.27-3.67-.41-1-.13-.27.09,2.36.71,4.73,1.26,7.05,2.13-3.76-1.41.68.41,1.23.7.87.46,1.74.95,2.58,1.46,1.29.77,2.51,1.61,3.74,2.46-2.47-1.7.27.23,1.14,1,1.89,1.68,3.51,3.52,5.27,5.31,3.23,3.3-1-1.72.53.56.74,1.12,1.54,2.19,2.26,3.32,1.46,2.31,2.66,4.71,3.95,7.11,2.38,4.44-.5-1.74.52,1.07.65,1.79,1.33,3.56,1.9,5.39q1.23,3.9,2.1,7.91c.24,1.07.45,2.15.65,3.22.07.37.85,5.73.37,1.87a104.53,104.53,0,0,1,.76,16.87c-.05,1.32-.17,2.64-.24,4-.27,4.88.6-2-.1.85-.57,2.28-.94,4.59-1.65,6.84-.17.55-2.2,4.95-.5,1.62-.47.93-.92,1.85-1.44,2.75-.21.37-3.13,4.46-.84,1.62a44.54,44.54,0,0,1-6.71,6.55c.63-.48,2.45-1.64-.29.07-2.24,1.4-4.45,2.8-6.79,4-1.23.66-2.48,1.27-3.74,1.87-.61.28-4,1.73-1.42.68A95.85,95.85,0,0,1,96,211.51q-4.19,1.19-8.46,2c-1.14.21-2.28.41-3.43.59,3.55-.55-2.08.19-2.28.21-2.82.23-5.66.37-8.49.33-1.09,0-2.18-.09-3.27-.12-2.1-.2-2.17-.19-.23,0-.8-.15-1.59-.33-2.38-.55-1-.28-4.32-1.65-.71,0-.83-.38-1.64-.78-2.45-1.22-1.56-.84-3-1.94-4.48-2.82-2-1.14,3.17,2.92.7.46-.6-.6-1.25-1.15-1.85-1.75s-1.14-1.25-1.72-1.86c-2.4-2.47,2,3,.22.35-.93-1.42-1.87-2.82-2.68-4.31-.49-.9-.92-1.83-1.39-2.74-.87-1.71.5-1,.54,1.31,0-1.44-1.26-3.5-1.69-5-.59-2.05-1.08-4.14-1.47-6.24-.1-.54-.38-4-.2-.91s0-.49-.09-1c-.18-1.85-.29-3.7-.35-5.55a100.78,100.78,0,0,1,.4-12.41c.07-.75.17-1.5.24-2.26.38-4-.72,4.12,0,.13.33-1.85.62-3.7,1-5.55q1.11-5.4,2.72-10.7c.51-1.69,1.07-3.38,1.67-5.05.35-1,.74-1.95,1.1-2.92,1-2.72-.46,1.09-.6,1.34,1.75-3.22,3.07-6.63,5-9.8,1.26-2.11,2.65-4.11,4-6.12-2,2.83-.12.17.47-.53.79-.94,1.6-1.86,2.45-2.75,1.68-1.79,3.48-3.4,5.3-5,3.34-3-1.83,1,.5-.37,1.45-.84,2.79-1.87,4.26-2.69.84-.47,1.69-.87,2.54-1.32,4-2.12-3.21.79,1.13-.4.92-.25,1.82-.57,2.75-.8.71-.18,5.29-.79,1.17-.41a49,49,0,0,1,7.76,0c-.74,0-3.33-.71,0,.05,1.78.4,3.54.81,5.28,1.37.79.25,4,1.46,1,.18,1.21.51,2.38,1.11,3.53,1.73,2.34,1.23,4.48,2.7,6.68,4.15,2.38,1.57-2.75-2.72.82.73,1,.94,2,1.81,3,2.76a76.54,76.54,0,0,1,6,6.62c-2.22-2.76,1,1.48,1.15,1.69.62.9,1.22,1.8,1.81,2.72,1.47,2.29,2.85,4.64,4.15,7,3.69,6.73,4,7.93,6.22,14.4,1.44,4.24.43-1.17.28,1.22-.06.92.53,4.33.22,1.2.18,1.84-.5,2.07.25.29a20.24,20.24,0,0,1-2.3,3.88c1.84-2.56.31-.46-.19,0-1.15,1-2.18,2.17-3.33,3.19-.77.67-1.56,1.31-2.34,2q-2.39,1.89-.33.27c-.87.64-1.75,1.28-2.63,1.9a117.2,117.2,0,0,1-13.2,8q-1.8.93-3.63,1.8c.23-.11-4.61,2.08-2.37,1.12s-2.68,1-2.44.94c-1.52.58-3.06,1.12-4.6,1.63a115.08,115.08,0,0,1-15.73,4c-.53.1-5.85.82-1.62.33-1,.11-1.92.22-2.89.31q-4.38.39-8.79.35c-2.45,0-4.87-.22-7.32-.41,3.84.3.59.09-.42-.1-1.19-.21-2.37-.45-3.55-.73-2.34-.56-4.58-1.31-6.86-2.08,3.45,1.16.52.24-.4-.21A46.85,46.85,0,0,1,44.72,185q-1.19-.76-2.34-1.59c3.33,2.38-.35-.52-.85-.93-3.55-3,1.79,3.12.87,1.29-.33-.67,2.07,5.11,1.43,3.28s1.52-1.07.39,3.29a8.42,8.42,0,0,0,0-2.13c.15,1.63-1.14,5.16-.15,1.95.25-.83.45-1.67.72-2.49s.71-1.6.9-2.41c-1.34,5.86-.89,2.05.07.1a110.36,110.36,0,0,1,8.27-13.77c.81-1.18,1.65-2.34,2.49-3.5.35-.47.7-.94,1-1.42,1.75-2.39-.26-1.3-.55.68.14-1,2.25-2.84,2.84-3.56,1.17-1.44,2.37-2.86,3.58-4.27q6.16-7.12,13-13.64,3.35-3.18,6.87-6.17c1.14-1,2.32-1.89,3.47-2.85,2.6-2.16-3.49,2.5-.74.59.7-.49,1.38-1,2.08-1.52,2.23-1.58,4.52-3.09,6.89-4.46,1.11-.64,2.23-1.26,3.37-1.84.45-.23.9-.43,1.34-.66,3.69-1.91-3.49,1.21-.88.32,2.1-.71,4.15-1.3,6.29-1.88,3.6-1-4.77,0-1.07.18,1,0,4.93.36,1-.19s-.61.07.32.24c3.43.6-4.25-2.16-1.24-.51,3.55,1.94-2-2.25-.87-.8a8.28,8.28,0,0,0,1.22,1.22c1.44,1.15-2.49-3.9-.11-.08,1.38,2.22,2.69,4.41,3.9,6.73,2.23,4.3-.75-3,.65,1.6.3,1,.67,2,1,3,.76,2.52,1.27,5.07,1.8,7.64,1,4.8,0-2.09.1.84,0,1.83.28,3.67.32,5.51,0,2.5,0,5-.21,7.5-.07.93-.17,1.85-.27,2.78.45-4.5-.07.13-.22.92a94.11,94.11,0,0,1-4.11,14.14c-.94,2.59,1.88-3.62-.2.34-.54,1-1,2.1-1.57,3.13q-1.64,3.09-3.55,6c-.63,1-1.31,1.91-2,2.86,2.09-3,.36-.45-.27.3a66.41,66.41,0,0,1-5.2,5.54c-1,.95-2.06,1.83-3.09,2.74-.7.62-2.58,1.59.26-.19-2,1.22-3.79,2.58-5.8,3.71-1.21.68-2.46,1.27-3.69,1.89-1,.49-2.92.78.43-.17-2.44.69-4.76,1.6-7.25,2.13-.29.06-4.35,1-1.42.34s-1.07.07-1.45.1a55.71,55.71,0,0,1-6.33.08c-.84,0-1.69-.13-2.53-.16-4.28-.16,3.8.88-.39,0-2.48-.54-4.94-1-7.36-1.8-.8-.25-1.59-.56-2.39-.81-4-1.25,3.25,1.77-.47-.18-1.85-1-3.7-1.88-5.48-3-.7-.44-1.37-.93-2.07-1.37-3.31-2.06,1.64,1.89.08.1s-3.37-3-4.87-4.7L40,194q-1.8-2.2.46.59c-.33-.12-1.12-1.65-1.37-2.06-.67-1.06-1.22-2.16-1.84-3.25-1.45-2.54-.07-.06.14.53a43.21,43.21,0,0,1-2-7.12c.74,4.2.2-.52.15-1.25-.3-3.95-1,2.66,0-1.12,0-.08,1.48-4.42.45-2s1.07-1.62,1.13-1.71c-1.91,2.79.19.27.78-.43,1.55-1.86-3,1.61.75-.54,2.34-1.33,4.59-2.73,7-3.95,1.26-.64,2.53-1.26,3.82-1.85.77-.36,1.54-.7,2.32-1q-2.32,1,.55-.15a130,130,0,0,1,16.27-4.75c1.1-.23,2.21-.45,3.32-.64.29-.06,5.79-.77,2.09-.36q4.64-.53,9.3-.66c2.75-.08,5.51-.06,8.26.09,1.31.07,2.61.17,3.9.31-3.55-.39-.13.05.78.24,1.27.27,2.5.65,3.75,1,3,.76,1,.24.16-.12,1.42.64,2.66,1.52,4,2.23-2.72-1.4-.07.17.83,1-2.65-2.42-.09.08.54,1s.59,2.62-.13-.31c1,4.27.45-3.62.27.74,0,.9-.22,3.41.16-.62-.38,3.92,1.53-2.39-.22.34.28-.44,2.76-2.86.7-1.11l1.93-1.41a15.29,15.29,0,0,1-1.77,1.09c0-.34,4.21-1.74.22-.26-2.8,1,1-.47,1.42-.08a18.84,18.84,0,0,0-3.33.07c-3.26.08,1.21-.15,1.27.22,0,0-3.07-.79-3.3-.85-3.27-.84,1.14.22,1,.47a22.68,22.68,0,0,1-2.93-1.72c.43-1,2.66,2.78.91.59a24.84,24.84,0,0,1-1.77-1.92c1.21,1.57,1.25,1.55.14-.08-.43-.86-1-1.73-1.43-2.56-2.13-3.88.55,3-.47-1.32-.52-2.2-1.22-4.33-1.63-6.56-.17-1-.43-4.3-.12-.65-.11-1.28-.23-2.55-.31-3.82-.16-2.79-.2-5.59-.19-8.38L74,156.67c3,1-2.14-.19-.24,0,1,.07,1.86,2.12.72.4-1.64-2.49.86,1.14.87,1.18l-1.24-1.57.65,1,.6,1.08c-.8-2.11-1-2.56-.53-1.33a11.14,11.14,0,0,0,.69,2.35c.29,1.32.25.79-.13-1.61l.06,1.22c-1,2.33,1.11-.15.36-1-.25-.28-.64,4.48-.16,1.44.33-2.05.23,0-.47.67-.69,1.07-.39.72.92-1.08l-.84.89c-2,.62.27,1,.72-.37-.22.69-2.11,1.08-2.64,1.57-1.06,1,3.22-.73.15-.19-.43.08-2,.77-2.4.54.69.41,3.7,0,.36-.36-2.44-.27,3.44.51,1,.12-1.08-.17-3.67-1.45.14.29-1.87-.85-.41-.17.53.58-2.43-1.93,1.06,1.69,0,.1-.74-1.16.6,1.9.7,2.58.41,2.92-1.16,6.21-3.14,8.34-1.64,1.77-5.29,2.87-7.56,2.94L60.65,176c1.42.42,1.44.37.07-.15-2.65-.65,1.19,1.1-.81-.45q-1.65-1.35.05.23L58.72,174c1.21,1.64-.06.53-.15-.54,0-.14.94,4.6.62,2.39-.28-2,.07,1.35.09,1.69.1,1.35.16,2.71.27,4.06a93,93,0,0,0,1.52,11l33.58-9.25c-2.53-9.24-9-15.73-15.32-22.49-.62-.67-1.25-1.33-1.85-2l-.72-.84c-.93-1.15-.94-1.14,0,0l.69.87c-.44-.61-.85-1.23-1.24-1.87.09.14-1.15-1.95-1.09-2-.43.34,1.6,3.59.09-.25-.43-1.11-1.54-2.28,0,.91-.48-1,0-2.94-.11-4-.2-3.55-.87,3,0-.75.3-1.25,2.57-7.47.74-3.57.87-1.85,2-3.51,3-5.29,1.17-2.11-2.79,2.6.18-.16.79-.73,1.65-1.54,2.38-2.33,1.65-1.78-3.35,1.89.19-.08.8-.45,4.5-2,.6-.65,1.22-.44,2.61-.65,3.79-1.16,2.23-.95-3-.2,1.42-.21,1.42,0,3,.16,4.38.06,2.84-.21-3.41-.85,1.46.15a55.13,55.13,0,0,1,6.45,1.7c.84.28,1.66.61,2.49.91-4-1.42-.26-.05.67.43a54.42,54.42,0,0,1,5.7,3.38c.69.46,4,3.25.74.45.67.58,1.36,1.14,2,1.73A58.27,58.27,0,0,1,116,151c.08.08,3,3.39,1.21,1.31-1.58-1.85,1.48,2.15,1.76,2.57q1.65,2.52,3,5.18c.52,1,1,2,1.47,3-1.73-3.52-.35-.85,0,.15q1,2.82,1.76,5.71c.33,1.29.56,2.6.84,3.89.79,3.6-.13-3.36,0,.63a63.77,63.77,0,0,1,.1,6.63,10.65,10.65,0,0,1-.2,2.66l.28-2c-.16,1-.34,2-.56,2.94-.49,2.22-1.23,4.32-1.91,6.48-.79,2.51,2-3.15-.37.63-.79,1.26-1.5,2.57-2.29,3.83,2-3.15-.47.51-1,1.06-.69.7-1.42,1.36-2.16,2,3.26-2.84-5.46,2.27-1.64.89a59.29,59.29,0,0,1-7.57,2c3.13-.68.67-.07-.11,0-1.88.1-3.75.24-5.64.27-5.2.07-10.43-.23-15.62-.62-1.73-.13-3.46-.29-5.18-.47-.55-.05-3.34-.62-.51-.07-3.4-.67-6.65-1.49-10-2.39-.43-.12-3.1-1.19-.62-.12a32.49,32.49,0,0,1-4-2.14c-.82-.5-1.61-1-2.39-1.6,2.87,2.07.35.13-.33-.53q-1.27-1.26-2.43-2.64c2.2,2.63.57.75.24.06-.42-.89-1.7-4.7-.66-.89-.28-1-.84-4.9-.59-.79-.07-1.18,0-2.33,0-3.5-.06-2.13-1.44,3.37.2,0,1.4-2.92-.05,0-.3.4.66-1.2,1.33-2.34,2.06-3.49-.39.61-2.34,2.46-.14.32,1-1,2-2,3-2.88-.54.48-2.84,1.81-.17.22,1.21-.71,2.43-1.39,3.64-2.09,3.67-2.14-3.62.7,1.28-.46,1.1-.26,2.19-.65,3.29-.93a45.57,45.57,0,0,1,5-1c-.83.11-3,.22.49.07,6.07-.28,12.08-.21,18.15.09,1.44.07,2.88.18,4.32.23,5,.17-1.33-.69,1.38.14.67.2,4.21,1.17,1.55.06.84.35,1.51.87,2.29,1.28-3.33-1.74-.59-.31.43.61s1,2.17-.3-.47c.54,1.15,1.34,2.33,2,3.44-1.4-2.48-.37-1,.18.83.26.86.41,1.77.68,2.62,1.3,4.08,0-3.56.17.69.06,2,.17,4.08,0,6.13-.07,1.14-.72,4.11.08.13-.23,1.12-.42,2.24-.69,3.35s-.57,2.21-.92,3.3c-.21.67-1.94,4.83-.18,1a55.82,55.82,0,0,1-3.19,6.08c-.59,1-1.3,1.89-1.89,2.87-1.35,2.28,2.69-2.95-.22.28a63.4,63.4,0,0,1-4.78,4.92c-.67.62-1.38,1.2-2.08,1.78,3.09-2.58-.12,0-.92.48a49.17,49.17,0,0,1-6,3.25c3.91-1.79-2.36.6-3.57.9s-2.19.43-3.29.66c-2.58.54,4.24-.05,0-.09-2.17,0-6,.8-8-.16.31.15,4,.79.64.06-1.32-.28-2.64-.53-3.94-.87s-2.59-.74-3.86-1.18c-1-.36-4.21-2.24-.83-.27-2.32-1.35-4.7-2.62-7-4-.69-.41-2.61-2,.28.34-1-.85-2.07-1.71-3-2.63s-1.86-1.93-2.81-2.88c-3-3,1.73,2.84-.62-.67a58.62,58.62,0,0,1-4.54-8c.31.7,1,2.84-.1-.36-.62-1.81-1.22-3.62-1.73-5.46-.81-2.91-1.45-5.86-2-8.83-.24-1.35-.42-2.71-.67-4.07s-.16-1.08.06.55c-.13-1.06-.26-2.12-.37-3.18s-.2-2.1-.25-3.15,0-2.09,0-3.14c-.32,1.81-.34,2.09,0,.83.6-2-1.39,1.79-1.6,2,2.86-3.24-2.56,2.65.38-.48l1.13-.62c-2,.77-2.35.93-1.12.5,1.51-.36,3-.83,4.54-1.21,3.16-.79-.07-.11-.64,0a41.56,41.56,0,0,1,5.9-.5q5.06-.33,10.11-.28,5.52.06,11,.55c1.22.11,2.44.24,3.65.38-2.69-.32,3.84.64,4.47.75,8.93,1.6,19.19-2.41,21.41-12.16,1.94-8.49-2.57-19.7-12.16-21.41-28.53-5.09-82.72-8.6-81.89,34,.57,29.44,12.87,61.14,41.28,73.73,26.73,11.83,58.84,7.27,78.12-16C138,220.12,144,206.35,145,190.9c.87-14.05-3.94-30.18-14.81-39.64C117,139.78,97.69,139.43,81,140.32c-15.89.86-32.48,5.52-43.37,17.87-12,13.65-14.91,31.46-6.54,47.82,7.33,14.31,22.71,23.35,38,26.58,30.09,6.33,70.48,6.11,85.4-26.24,12.52-27.16,5.72-58.07-13.91-80C120.22,103.62,83,93.26,57.76,114.08c-11.27,9.31-17.9,25.09-17.53,39.61.36,14.14,7.63,24.73,17.11,34.54.73.76,1.46,1.51,2.17,2.29.4.43,3.26,3.62,1.25,1.31s.13.69.51,1c1.07,1-.68-1.87-.75-2a11.22,11.22,0,0,1,.55,1.79c2.4,8.78,12.48,15.05,21.42,12.16,9.45-3.06,14.13-11.84,12.16-21.41-.69-3.31-.07,1.61-.28-1.77-.1-1.62-.2-3.25-.33-4.86-.35-4.43-.73-9.07-2.16-13.3-2.67-7.85-8-15-15.66-18.58-9-4.31-19.36-4.43-27.55,1.9a24.91,24.91,0,0,0-8.54,26.47C45,191,64,198.87,80.91,195.32a37,37,0,0,0,28.91-31.19c2.46-18.29-9.46-35.34-26.61-41-10.87-3.61-22,6-22,16.79,0,14.28,1.5,29.93,9.7,42.1,8.05,12,21.42,20,36.17,19.3,16.17-.72,30.72-11.13,33-27.84s-7.7-33.19-23-40.06c-14.78-6.65-31.19-6.89-47-4.76a128.07,128.07,0,0,0-44.19,14.21C10.59,151.06.09,165,.74,182.92a57.94,57.94,0,0,0,17.11,38.43C35.7,239.27,64.19,246.11,88.38,239c26.76-7.86,46.23-31,54.43-57,4.36-13.83,4.95-28.3,2.87-42.57-1.93-13.19-7.56-27.61-17.12-37.19-13-13-31.26-10.6-46.4-3.39-14,6.68-26.37,17.85-37,29S24.34,151.62,17,165.3c-7.19,13.39-12.42,30.32.44,42.25,21.8,20.23,54.06,21.19,81.44,14a132.24,132.24,0,0,0,39.55-17.68c14.56-9.74,27.93-21.49,29.78-39.94,1.55-15.44-7.18-31.78-15.28-44.39S134,95,120.35,88c-14.19-7.26-30.67-10.19-46.21-5.65-13.78,4-25.94,13-34.77,24.24-14,17.75-21,38.69-23.63,61C13.45,187.15,15.93,209.73,28,226c7.67,10.3,18.25,18.77,31,21.82,15.41,3.69,33,1.34,47.94-3.18,14.57-4.4,29.78-11.54,40.45-22.68,11.43-11.95,16.22-27.58,17-43.81,1.41-28.85-8-61.89-31.35-80.42-12.15-9.63-26-15.54-41.66-15.94-9.11-.24-17.82,8.18-17.4,17.41.43,9.63,7.64,17.15,17.4,17.41Z" transform="translate(-0.71 -3.24)"/><path class="cls-4" d="M79.06,81.09C52.44,85.6,23.2,99,10.49,124.33A67.42,67.42,0,0,0,4.2,166.12c2.36,14.21,10.41,25.7,21.79,34.16,7.33,5.45,19.75,1.44,23.82-6.25,4.81-9.11,1.58-18-6.25-23.82,3.66,2.73-1.39-1.79-2.34-2.72-1.38-1.35,1.63,2.84.22.1-.54-1.05-1.2-2.15-1.79-3.17-1.57-2.72.48,2.18.08.23-.2-1-.66-2-.93-2.93-.33-1.2-.55-2.41-.82-3.62-.73-3.2-.07,2.39.06.28.14-2.28-.2-4.63,0-6.94,0-.68.83-4.06.11-1.48s.24-.86.37-1.45c.53-2.3,1.38-4.45,2.05-6.7.58-2-1.59,2.86,0,.09.64-1.09,1.17-2.23,1.84-3.32.57-.92,1.22-1.79,1.81-2.7,1.09-1.67-1.78,1.91.42-.45,1.8-1.94,3.59-3.85,5.58-5.61,1.2-1,2.31-1.9.38-.45,1.16-.87,2.34-1.69,3.54-2.49,2-1.33,4.12-2.55,6.26-3.68,1.29-.68,2.61-1.3,3.93-1.94,3-1.45-1.38.42.57-.27,2.55-.9,5.06-1.88,7.66-2.68a124.72,124.72,0,0,1,15.77-3.64c9-1.53,14.85-13.1,12.16-21.42-3.15-9.72-11.77-13.79-21.42-12.16Z" transform="translate(-0.71 -3.24)"/></g><path class="cls-5" d="M145.6,142.66c-.11,0,.15-.28,0-.08C145.54,142.68,145.54,142.77,145.6,142.66Z" transform="translate(-0.71 -3.24)"/><path class="cls-5" d="M147,141.48a.74.74,0,0,0-.77-.67c-.34,0-.67,0-1-.26-.08,0,0,.5-.14.38a.85.85,0,0,0-1.12-.14,1.56,1.56,0,0,0-.71,1.08l.11.08c0,.16-.43-.1-.47.07s.12,0,.19.16c-.16-.12-.21,0-.3,0a.19.19,0,0,1-.13,0c.06.11.24.23.3.35l-.29-.11c-.36-.1-.43.06-.42.23s.05.35-.16.47a.35.35,0,0,1,.2,0c-.54.43-.41,1.23-.33,1.88a.91.91,0,0,1,.39-.17.47.47,0,0,0-.26.56c.32-.1-.12.44.16.52l.05-.06c-.18.37.29.05.06.44l.26-.11c-.28.41.32,0,.25.24l-.06.08c0,.18.22,0,.26.15l0,0c.16.26.42.07.25.42.2-.24-.16-.25.15-.58l.11.15a2,2,0,0,0,2.19.21.72.72,0,0,0,0-.38c.1,0,.29-.07.44.06,0,0-.05-.2,0-.24,0-.2.35.27.39,0a.51.51,0,0,1-.26-.26c.27.16.39,0,.57-.05a.34.34,0,0,1-.19-.12c.35.12.16-.29.41-.27l-.2-.09c-.07-.35.39.22.39-.06-.08,0-.14-.06-.21-.1.43.06.48-.36.66-.52l-.08,0a1.88,1.88,0,0,0,.12-.48.7.7,0,0,1,.12-.27c-.09-.1-.51,0-.43-.22.43,0,.14-.43.62-.33-.09-.25-.34-.55-.26-.74-.12.15-.51.09-.49.27l-.27,0c-.16.08.09.08-.13.13,0-.07.07-.33,0-.36.17-.24.51-.65.38-.92-.06.21-.4.25-.41.36a4.42,4.42,0,0,0,.35-.86c-.06-.08-.24.24-.27.06a.48.48,0,0,0,.1-.29s-.29-.37-.54,0c-.12.13.08.16-.08.24-.14-.08-.07-.23-.23-.3l0,0c-.12,0-.26-.3-.07-.49.09,0-.11.23.05.16a.48.48,0,0,0-.43-.46.55.55,0,0,1,0,.32,1.16,1.16,0,0,0-.92-.6c0-.21.2.35.23.24-.21.17-.44.11-.68.13s-.48.09-.51.37c.06,0-.14-.27-.11-.22-.16.17,0,.4-.14.4.1.14-.15.08-.28.16s0,.08.13,0a1.19,1.19,0,0,0-.81,1.15c-.1,0-.46.17-.47.3h.26c.12.12-.07.37.14.42-.17.1-.08-.13,0-.32s.24-.34.09-.23c.19.11-.49.33-.13.33,0,.2-.35.43-.09.65,0-.07.35-.18.34,0s-.12.1-.17.37l-.08.19c-.24.07.13.3-.18.26.19,0,.08.59.45.35l.27-.21c0,.13-.2.39-.23.6a.19.19,0,0,0,.15-.06c-.37.37.26.29.17.7.36.12.8.47,1,.19.17.22.4.45.68.34-.06,0-.13-.07-.14-.18.17-.15.2,0,.36.07,0-.08.29-.35.38-.58.22.1.25.39.31.56,0-.29.19-.26.38-.26s.41,0,.39-.31c-.11,0-.4,0-.32-.24-.16-.52.53.08.6-.4l.26.36c-.09-.29.53-.36.15-.56.2,0,.06-.47.42-.27a7.82,7.82,0,0,1,.07-1.1c0-.35-.1-.67-.49-.72.05-.09-.07-.25.13-.29s-.1.23.06.23c0-.07.1-.12.15-.15-.14-.15-.22-.25-.48,0-.35-.2.5-.67,0-1.07-.12.13-.19.14-.26,0s0-.29,0-.44c-.34-.2-.39.18-.57.41a2.43,2.43,0,0,1-.2-.25l.15.12a.31.31,0,0,1,0-.21,3.79,3.79,0,0,0-.34.2c.24-.15,0-.22,0-.32v.1c-.08.09-.16-.06-.21-.13a.35.35,0,0,1,.38-.11c0-.16-.1-.2-.12-.39-.11.28-.3.06-.41,0s0-.3-.08-.31c-.06.14-.21-.06-.18.18,0,.06.14-.1.16.06s-.2.32-.29.07.21-.54-.09-.44a1.55,1.55,0,0,1,0,.32l-.25.09.05-.27c0,.06,0,.09-.05.12,0-.3-.32-.16-.33-.48-.12,0-.27.15-.38.18l0,0c-.14.16-.3,0-.42-.13v.06a.38.38,0,0,1-.35-.15c-.16.22.06,1-.16.7-.16,0-.36-.42-.32-.61-.28.25-.8,0-.94.5-.08-.08-.08-.15-.2-.16-.4.31-1.14.4-1.1,1.11.18,0,.19.18.29.29-.24-.08.08.27-.23,0-.16-.17-.26-.24-.22-.43-.32.15-.63.63-.53.92,0-.15-.14-.12-.23-.08.33.17.26.41.08.53l-.22-.07.17.21c-.09,0-.46-.09-.32.18a.61.61,0,0,1,.21.12c-.22.13-.59.37-.43.63l.3.21c0,.08-.24.23-.32.06.16.39.21.61.49.7a1.82,1.82,0,0,0,0,2.24l.14-.1c.22.09-.21.24,0,.3.11-.14.37-.07.47-.3.26.12-.08.44-.05.64-.16.16,0-.2-.17,0,0,.08.34.21.12.46.14,0,.29-.24.38-.36l0,.23c.4-.13.28-.79.77-1l0,.13c.32-.16.13-.48.38-.36-.06.19-.34.63-.52.64.11.28-.5.67-.23.91.2-.09-.17-.24.07-.4s.12.34.29.37c-.19,0-.32.36-.26.48.24,0,.1-.33.32-.2-.09.19,0,.47-.22.45-.17.44.3.07.25.45.23-.23.14-.78.46-.76-.2.24.11.56-.23.88.15,0,.26-.23.27-.44.21-.09.15.7.43.16l-.06.32c.08-.07.18-.12.32-.25.13,0,.35.56.44.08,0,.06.36.1.18.4s-.19-.28-.41.13c.24-.32.3.11.42.26l.05-.18c.07.09.25.07.28.27a.24.24,0,0,1,0-.28l.07.29c.31.16.09-.48.38-.4l-.21-.22c.05,0,.14-.21.27-.13a5.75,5.75,0,0,0,.23.76c.18.1.05-.29.24,0l-.24-.3c0-.08.11-.42.3-.45s.41.4.21.58a.23.23,0,0,0,.12-.37c.25,0,0,.28.26.39.05-.2.25-.5.31-.79a3.27,3.27,0,0,1-.3-.35l.11,0c-.24-.28,0-.28-.18-.6,0-.08.17,0,.27.07,0,.64.52.65.66,1.16.41-.06-.33-1.26.35-.71,0,.15.36.41.08.4.18-.18.4.38.54,0-.28-.07-.1-.58-.5-.69.11.14-.06.2-.12.18,0-.22-.27-.45-.09-.56s.27-.13.4.11-.18.1.05.3c.28-.08.05-.47.45-.13-.16.09,0,.36.1.53l.25,0-.15-.13c.18-.36.3.21.54-.08L148,148c-.27-.18-.27.47-.57,0,.14-.16.38,0,.42-.25-.06,0-.11,0-.17,0s-.41-.65.08-.56c.21,0,.17.1.32.24.25-.24.49-.2.64-.39-.34-.19.19-.38-.28-.39.14.24-.19.67-.54.5-.27-.41-.12.25-.5,0,.15-.2-.19-.5-.39-.73,0-.06.14,0,.2,0,.23.16.18.22.4.42a.67.67,0,0,1,.68-.38c-.07-.16-.32-.28-.4-.2a1.49,1.49,0,0,0,.36-.92c.37.35.2-.32.52-.07.06.21.3.49.53.45,0-.14-.19-.06-.27-.15.28-.08-.31-.35.1-.4-.23.31-.55-.08-.9-.11.24-.16-.25-.06-.2-.25a1.34,1.34,0,0,0,.47-.74c-.34-.3-.12-.81-.22-1.11-.22-.07-.55.19-.66.09s.44-.08.17-.22l-.06.06c.05-.14-.44-.23,0-.66l-.31.34s0-.11,0-.17c-.11.09-.24.14-.27.25-.31.1-.13-.24-.23-.35l.24-.13c0-.35-.37-.26-.55-.43l-.13.23-.06-.19c-.09.23-.28.38-.26.17a2.15,2.15,0,0,1,0,.62c.16-.1.07-.29.25-.49s.33,0,.21.21c-.09,0-.06-.06-.06-.17-.22.29-.11.32-.21.54,0,0-.13,0-.07-.06,0,.17,0,.24.06.3,0-.15.18-.14.22-.23-.2.25-.2.37-.06.41.35-.15-.05.33.08.38a1.24,1.24,0,0,0,.47-.59c.19,0,.07.11.26.15a3.32,3.32,0,0,0-.57.54l.22-.08c-.07.16-.39.27-.3.37a.84.84,0,0,1,.18.58l.23,0c-.49,0-.25.31-.5.37.12.33-.4.33-.13.66a5.78,5.78,0,0,0-1,.65l.23.27c-.19-.18.06.2,0,.2-.06-.3-.27-.25-.4-.43-.05.33-.4.16-.57-.07l0,.24c-.24-.4-.3,0-.5.09,0,.11,0,.34-.11.31a6.33,6.33,0,0,0-.21-.65.66.66,0,0,0-.38.14,1,1,0,0,0-.27-.58.63.63,0,0,1-.2-.53l-.24.14a.72.72,0,0,0,0-.66c-.07-.15-.16-.33,0-.46l-.46.05c-.15-.11.12-.23.44-.17-.13-.1.24-.12-.12-.25-.06-.1.24,0,.3,0-.12-.17-.05-.21.08-.24v0c-.08,0-.24-.18-.24-.23s0-.24.39.21c-.11-.35.35,0,.28-.41a1,1,0,0,0,.14.26c.09,0,.17-.39.31-.14,0-.09-.07-.26,0-.29s0,.2.07.29c.16.28.37-.3.52-.16a1.44,1.44,0,0,0,.1.27l.62-.33c-.05.15-.4.29-.25.23h0a.71.71,0,0,1,.29,0l0,0a.67.67,0,0,1-.19-.25v0c0-.1,0-.1,0,0v.11c0,.12,0,0,0-.07s0,0,0,.14l0-.07a.71.71,0,0,1,0,.15l-.06.08h0a1.12,1.12,0,0,1,.66-.13c-.31-.11-.88-.18-.47-.19-.1,0,.19.06.09,0,.15,0-.53-.33-.24-.25s.17.06.35.16c-.15-.18-.34-.43-.11-.31l-.12-.12c.21.15.25.18.29.24s0-.08,0-.09h0c0-.37,0,.51,0,.42h0a.73.73,0,0,1,0,.2c-.06.11,0,.12,0,.22a.43.43,0,0,1,0,.24.18.18,0,0,1-.08.06h0c.07,0,0,.1-.19.22s-.33.15-.43.3c-.1.39-.17.42-.18.3v-.08c0,.07,0,.09-.07.15.16-.36-.05-.06.14-.39-.09,0-.11-.15-.17-.31,0,0-.29.2-.28.15l.2-.14-.1,0a.74.74,0,0,1,.32-.16c.14-.31-.1-.41-.2-.6a.3.3,0,0,1,.21-.32c0-.2.31-.13.49-.07a1.24,1.24,0,0,1,2-.16S147.32,141.87,147,141.48Z" transform="translate(-0.71 -3.24)"/><path class="cls-5" d="M145.75,142.66c.08-.17.24-.28.24-.49A3.15,3.15,0,0,0,145.75,142.66Z" transform="translate(-0.71 -3.24)"/><path class="cls-5" d="M148.77,145c-.06,0,0,.09.08.11s.19-.07.11-.16C148.93,145,148.85,145,148.77,145Z" transform="translate(-0.71 -3.24)"/><path class="cls-5" d="M148.45,146.22c.15.07.4-.12.47-.28A3.24,3.24,0,0,1,148.45,146.22Z" transform="translate(-0.71 -3.24)"/><path class="cls-5" d="M148.34,147.67c0,.18.11.22.2.09C148.48,147.69,148.42,147.7,148.34,147.67Z" transform="translate(-0.71 -3.24)"/><path class="cls-5" d="M148,147.47c-.07.07,0,.18,0,.29C147.9,147.65,148.23,147.64,148,147.47Z" transform="translate(-0.71 -3.24)"/><path class="cls-5" d="M146.14,149.44c-.07,0-.25-.07-.25.14C145.92,149.43,146.27,149.67,146.14,149.44Z" transform="translate(-0.71 -3.24)"/><path class="cls-5" d="M144.85,149.53s-.06.05-.11,0a.14.14,0,0,0,.1.21Z" transform="translate(-0.71 -3.24)"/><polygon class="cls-5" points="146.28 142.06 146.46 142 146.32 141.89 146.28 142.06"/><path class="cls-5" d="M145.76,140c.13.13.12-.15.15-.17C145.78,139.77,145.93,140,145.76,140Z" transform="translate(-0.71 -3.24)"/><polygon class="cls-5" points="147.32 140.64 147.32 140.61 146.98 140.62 147.32 140.64"/><path class="cls-5" d="M108.56,141.72c-.11,0,.14-.28-.06-.08C108.49,141.75,108.49,141.83,108.56,141.72Z" transform="translate(-0.71 -3.24)"/><path class="cls-5" d="M110,140.54a.73.73,0,0,0-.77-.66c-.34,0-.67,0-1-.27-.07,0,0,.5-.14.39a.82.82,0,0,0-1.11-.15,1.57,1.57,0,0,0-.72,1.08l.11.08c0,.16-.43-.1-.47.07s.12.06.19.17c-.15-.12-.21,0-.3,0a.13.13,0,0,1-.12,0c0,.11.23.24.3.35l-.3-.11c-.36-.09-.43.06-.42.23s.06.35-.15.47c.07,0,.13,0,.19,0-.54.44-.4,1.23-.32,1.88a1,1,0,0,1,.39-.17.47.47,0,0,0-.27.56c.32-.1-.12.44.17.52l.05-.06c-.19.37.29.05.06.44l.25-.11c-.28.41.33,0,.26.24l-.07.08c0,.18.22,0,.27.15l0,0c.15.26.41.07.25.42.2-.24-.17-.25.15-.58l.11.15a1.94,1.94,0,0,0,2.18.22c0-.18.07-.25,0-.39.09,0,.28-.06.43.06,0,0,0-.2,0-.24,0-.19.36.27.39,0a.46.46,0,0,1-.25-.26c.27.16.38,0,.56-.05a.42.42,0,0,1-.19-.12c.36.12.16-.29.41-.27l-.2-.09c-.06-.35.39.22.4-.06-.09,0-.14-.06-.22-.1.44.06.48-.35.67-.52l-.09,0c.09-.14.07-.32.13-.48a.73.73,0,0,1,.11-.26c-.08-.11-.5,0-.43-.23.43,0,.14-.43.63-.33-.09-.25-.34-.55-.26-.74-.12.15-.51.1-.49.27l-.28,0c-.15.08.09.09-.12.13,0-.07.06-.33,0-.36.17-.24.5-.65.37-.92-.06.21-.4.25-.41.37a4.17,4.17,0,0,0,.35-.87c-.06-.08-.24.24-.26.06a.67.67,0,0,0,.1-.29c-.05,0-.3-.37-.55,0-.11.12.08.15-.08.24-.13-.09-.07-.24-.22-.31l0,.05c-.11,0-.26-.3-.06-.49.09,0-.11.24,0,.16a.48.48,0,0,0-.43-.46c.06.08,0,.2,0,.32a1.14,1.14,0,0,0-.92-.6c0-.21.2.35.23.24-.21.18-.44.11-.68.13s-.47.09-.51.37c.07,0-.14-.27-.11-.21-.16.17,0,.39-.13.39.1.14-.15.08-.29.16s0,.08.13,0a1.15,1.15,0,0,0-.8,1.14c-.11,0-.46.17-.48.3h.26c.13.13-.07.38.15.42-.17.1-.09-.13,0-.32s.25-.34.09-.23c.19.11-.49.33-.13.33,0,.2-.34.43-.09.65,0-.06.36-.18.34,0s-.12.09-.17.36l-.07.19c-.25.08.12.3-.19.26.19,0,.09.6.46.35l.26-.21c0,.13-.19.4-.23.6a.25.25,0,0,0,.16-.05c-.37.36.26.28.16.7.37.11.8.47,1,.18.18.22.4.45.68.34,0,0-.13-.07-.13-.18.16-.15.19,0,.35.07,0-.08.29-.35.38-.58.23.1.25.39.32.56,0-.29.18-.26.38-.26s.41,0,.38-.31c-.11,0-.4,0-.32-.24-.15-.52.54.08.6-.39.09.11.18.23.26.35-.08-.29.54-.36.16-.56.2,0,.06-.47.41-.27a7.91,7.91,0,0,1,.08-1.1c0-.34-.11-.66-.49-.72,0-.09-.08-.25.13-.29s-.1.23.06.23c0-.07.09-.12.14-.15-.14-.15-.22-.25-.47,0-.35-.2.49-.67,0-1.07-.11.13-.19.14-.26,0a3.27,3.27,0,0,0,0-.44c-.33-.2-.39.19-.57.41a2.31,2.31,0,0,1-.2-.24l.15.11a.27.27,0,0,1,0-.21l-.35.2c.25-.15,0-.22,0-.32v.1c-.09.09-.17-.06-.22-.13a.35.35,0,0,1,.38-.11c0-.16-.1-.2-.11-.38-.11.27-.3.05-.42,0s0-.3-.08-.31c-.05.14-.21-.06-.18.18,0,.07.14-.1.16.06s-.19.32-.28.08.2-.55-.1-.45a1.07,1.07,0,0,1,0,.32l-.26.09,0-.26c0,.05,0,.08,0,.11,0-.3-.32-.16-.33-.48-.11,0-.27.15-.38.18l0,0c-.14.16-.3.05-.42-.13v.06a.38.38,0,0,1-.35-.15c-.17.22.06,1-.17.7-.16,0-.36-.42-.32-.61-.28.25-.79,0-.93.5-.09-.08-.09-.15-.21-.16-.39.31-1.14.4-1.09,1.11.17,0,.18.18.29.29-.25-.08.08.27-.24,0-.16-.17-.25-.24-.22-.43-.31.15-.63.63-.52.92-.05-.14-.14-.12-.24-.08.33.17.27.41.08.53l-.21-.06.17.2c-.09,0-.47-.08-.33.18a.62.62,0,0,1,.21.13c-.21.12-.59.37-.43.62l.31.22c0,.08-.25.22-.33.05.17.39.21.61.49.7a1.83,1.83,0,0,0,0,2.25l.13-.11c.23.09-.2.24,0,.3.11-.14.36-.07.46-.29.26.11-.08.44,0,.63-.17.16,0-.2-.17,0,0,.07.33.2.11.45.15,0,.3-.24.38-.36l0,.24c.39-.13.27-.79.76-1l0,.12c.33-.16.13-.48.38-.35-.06.19-.34.62-.52.63.11.28-.5.67-.23.91.2-.08-.17-.24.08-.39s.12.34.28.36c-.19,0-.32.36-.26.48.24,0,.1-.33.32-.2-.08.19,0,.47-.21.45-.17.44.29.08.25.46.22-.23.14-.79.46-.77-.2.24.1.56-.24.88.15,0,.26-.23.27-.44.22-.09.15.7.43.16l-.06.32a2.39,2.39,0,0,0,.32-.25c.13,0,.36.56.45.08,0,.06.35.1.18.41-.26.15-.19-.29-.41.12.23-.32.3.11.42.26l0-.18c.06.09.24.07.27.27a.23.23,0,0,1,.06-.27l.06.28c.31.16.1-.48.38-.4a2.23,2.23,0,0,1-.21-.22c0,.05.15-.21.27-.13a7.78,7.78,0,0,0,.23.76c.18.1,0-.29.24,0l-.24-.3c0-.08.12-.42.31-.45s.4.4.21.58a.24.24,0,0,0,.11-.37c.25,0,0,.28.26.39a7.71,7.71,0,0,0,.31-.79l-.3-.35.12,0c-.24-.28,0-.28-.19-.6,0-.08.17,0,.27.07,0,.64.52.65.66,1.16.42-.06-.32-1.26.36-.71,0,.15.35.41.08.4.17-.17.39.38.53,0-.28-.07-.09-.57-.49-.68.1.14-.07.19-.13.17,0-.22-.26-.45-.09-.56s.27-.13.4.12-.18.09,0,.3c.29-.09.06-.48.46-.13-.16.08,0,.36.09.52l.25,0-.15-.13c.19-.36.3.21.54-.08l-.14-.41c-.27-.19-.27.46-.56,0,.13-.16.37,0,.42-.25-.06,0-.11,0-.18,0s-.4-.65.08-.56c.22,0,.17.1.32.24.26-.24.49-.19.64-.39-.34-.19.19-.38-.27-.39.14.24-.19.67-.55.5-.27-.41-.12.25-.5,0,.16-.19-.19-.5-.39-.73,0-.06.15,0,.21,0,.23.16.18.23.39.42a.68.68,0,0,1,.68-.38c-.06-.16-.32-.28-.4-.2a1.44,1.44,0,0,0,.37-.92c.36.36.2-.32.52-.07,0,.21.29.49.52.45,0-.13-.19-.06-.26-.14.28-.09-.32-.36.09-.41-.22.32-.54-.08-.9-.11.24-.16-.25-.06-.2-.25a1.35,1.35,0,0,0,.48-.74c-.34-.3-.13-.8-.23-1.11-.21-.06-.55.19-.66.09s.45-.08.17-.22l-.06.06c0-.13-.43-.23,0-.66l-.31.34c-.05,0,0-.11,0-.16s-.24.13-.28.24c-.3.1-.12-.24-.23-.35l.25-.13c-.06-.35-.38-.26-.56-.43l-.12.23-.06-.19c-.09.24-.28.38-.26.17a2.58,2.58,0,0,1,0,.62c.15-.1.07-.29.25-.49s.33,0,.2.21c-.08,0,0-.06,0-.17-.23.29-.11.32-.22.55,0,0-.12,0-.07-.06,0,.17,0,.23.06.29,0-.15.18-.14.23-.23-.2.25-.2.37-.06.41.34-.15,0,.33.08.38a1.22,1.22,0,0,0,.46-.59c.2,0,.07.12.26.15a3.23,3.23,0,0,0-.56.54l.21-.08c-.06.16-.39.27-.29.37a1,1,0,0,1,.18.58l.22,0c-.48,0-.24.31-.5.37.13.33-.4.33-.13.66a5.78,5.78,0,0,0-1,.65l.24.27c-.2-.18,0,.2,0,.2-.06-.3-.27-.25-.41-.43,0,.33-.39.16-.57-.06l.05.24c-.23-.41-.3,0-.49.09,0,.1-.06.33-.12.3a3.83,3.83,0,0,0-.21-.65.66.66,0,0,0-.38.14.92.92,0,0,0-.27-.58.66.66,0,0,1-.2-.53l-.24.14a.67.67,0,0,0,0-.65c-.06-.16-.15-.34,0-.46l-.46,0c-.15-.11.12-.22.45-.17-.14-.1.24-.11-.12-.25-.07-.1.23,0,.3,0-.13-.17-.06-.21.07-.24v0c-.09,0-.25-.17-.25-.22s0-.25.4.2c-.11-.35.35,0,.27-.41a1,1,0,0,0,.15.26c.09,0,.17-.39.31-.14,0-.09-.07-.26,0-.29s0,.2.07.29c.17.28.37-.3.53-.16a1.64,1.64,0,0,0,.09.27l.62-.33c0,.15-.39.29-.24.23h0a.69.69,0,0,1,.28,0l0,0a.68.68,0,0,1-.2-.25v0c0-.09,0-.1,0,0v.1c0,.13,0,0,0-.07a.72.72,0,0,1,0,.14v-.07c0,.07-.06.18,0,.15a.47.47,0,0,1-.06.09h0a1.07,1.07,0,0,1,.65-.13c-.3-.11-.88-.18-.47-.19-.1,0,.2.06.09,0,.16,0-.52-.33-.24-.25s.18.06.35.16c-.15-.18-.33-.43-.1-.31l-.13-.12c.21.15.26.18.3.24s0-.08,0-.09h0c0-.37,0,.51,0,.42h0s0,.09-.06.2,0,.12,0,.23a.51.51,0,0,1,0,.23.14.14,0,0,1-.09.06h0c.07,0,0,.1-.19.22s-.34.15-.44.3c-.09.39-.17.42-.18.3v-.08a.69.69,0,0,1-.07.15c.17-.35,0-.06.15-.39-.09,0-.12-.14-.17-.3,0,0-.3.2-.29.14l.2-.13-.1,0a.73.73,0,0,1,.33-.16c.13-.31-.1-.41-.2-.6a.3.3,0,0,1,.2-.32c0-.2.31-.13.49-.07a1.25,1.25,0,0,1,2-.16S110.28,140.93,110,140.54Z" transform="translate(-0.71 -3.24)"/><path class="cls-5" d="M108.7,141.72c.09-.17.24-.28.24-.49A4.4,4.4,0,0,0,108.7,141.72Z" transform="translate(-0.71 -3.24)"/><path class="cls-5" d="M111.72,144c-.06,0,.06.09.08.11s.2-.07.11-.15C111.89,144.07,111.8,144,111.72,144Z" transform="translate(-0.71 -3.24)"/><path class="cls-5" d="M111.4,145.28c.15.07.4-.12.48-.28A3.33,3.33,0,0,1,111.4,145.28Z" transform="translate(-0.71 -3.24)"/><path class="cls-5" d="M111.29,146.73c0,.18.11.22.2.09S111.37,146.76,111.29,146.73Z" transform="translate(-0.71 -3.24)"/><path class="cls-5" d="M111,146.53c-.07.07,0,.18,0,.29C110.86,146.71,111.18,146.7,111,146.53Z" transform="translate(-0.71 -3.24)"/><path class="cls-5" d="M109.09,148.51c-.06,0-.24-.08-.24.13C108.87,148.49,109.23,148.73,109.09,148.51Z" transform="translate(-0.71 -3.24)"/><path class="cls-5" d="M107.8,148.59s0,0-.1,0a.15.15,0,0,0,.09.22Z" transform="translate(-0.71 -3.24)"/><polygon class="cls-5" points="109.23 141.12 109.41 141.06 109.28 140.96 109.23 141.12"/><path class="cls-5" d="M108.71,139c.13.13.12-.15.15-.17C108.73,138.83,108.88,139.09,108.71,139Z" transform="translate(-0.71 -3.24)"/><polygon class="cls-5" points="110.27 139.7 110.27 139.67 109.94 139.69 110.27 139.7"/><path class="cls-5" d="M127.71,145.09c.05-.14.26,0,.11-.1C127.7,145,127.61,145.05,127.71,145.09Z" transform="translate(-0.71 -3.24)"/><path class="cls-5" d="M118.11,168.92c.43.83,1,0,1.42.49.06,0,0-.46.1-.35.45.64,1.13.23,1.66-.29l0-.13c.1-.09.23.33.34.27s0-.12,0-.24c0,.26.19.11.24.31a3.67,3.67,0,0,1,.09-.43l.07.3c.18.69.41-.06.65.29a.55.55,0,0,1,0-.18c.39.41.86.32,1.28.46a1.38,1.38,0,0,1,0-.41.47.47,0,0,0,.28.45c0-.32.2.28.32.1v-.07c.11.33.14-.19.23.2l.06-.25c0,.45.13-.24.22,0v.09c.08.11.11-.12.18,0v0c.17.11.26-.14.26.21,0-.28-.16-.13-.08-.54a2.68,2.68,0,0,0,1.65.25.83.83,0,0,0,.11-.31c.06.06.21.05.26.23a.45.45,0,0,1,.06-.2c.1-.13.12.39.23.23a.63.63,0,0,1-.06-.34c.1.27.23.22.36.31a.34.34,0,0,1-.06-.2c.16.3.21-.08.35.12l-.08-.2c.1-.25.15.42.27.27a.54.54,0,0,1-.1-.23c.26.37.47.24.68.36l0-.08c.2,0,.3-.08.59.07,0-.09-.37-.48-.16-.41.3.4.42.15.69.61.12-.08.23-.22.45-.11h0a2.06,2.06,0,0,1-.26-.25l-.2-.2-.09,0-.08-.11-.14-.17c-.08-.07-.06,0-.05,0s0,0-.11-.09h0s.15,0,.09-.13c.24.13.7.38.73.2-.15,0-.45-.37-.51-.35a4.25,4.25,0,0,0,.75.22c0-.07-.32-.21-.22-.25a.43.43,0,0,0,.25.07c-.05-.05.07-.29-.32-.49-.15-.09-.07.08-.22-.06,0-.11.13-.07.13-.19l-.05,0c-.07-.1.14-.2.36-.05,0,.07-.23-.09-.11,0s.26-.16.26-.31c-.06,0-.16,0-.27,0,.29-.13.36-.35.47-.59.18,0-.32.09-.22.12-.27-.31.31-.57-.07-.71,0,0,.26,0,.21,0s-.29-.07-.2-.15c-.15,0,0-.08.08-.16s-.07,0-.08,0c.12-.1.32-.5.09-.71.1,0,.35-.16.34-.21l-.24,0c-.14,0,0-.17-.19-.17.28-.13-.21.44,0,.28-.2,0,.36-.24,0-.18,0-.1.26-.22,0-.3,0,0-.32.11-.31,0s.11-.05.18-.17l.09-.08c.23,0,0-.13.22-.1-.19,0,.1-.22-.28-.17l-.29.05c0-.07.3-.13.43-.19a.31.31,0,0,0-.14,0c.46,0,0-.15.3-.25-.17-.12,0-.34-.33-.37.13-.12.29-.22.19-.33s-.06.06-.15.07,0-.08,0-.16-.27-.12-.44-.18c.13-.12.38-.1.53-.13-.46,0,.26-.3-.15-.38-.06,0-.21.16-.33.09-.46-.06.32-.22.09-.34h.38c-.24-.05.2-.24-.18-.19.13-.06-.14-.16.23-.18-.33-.21.14-.6-.53-.7.06,0,0-.12.18-.12s-.14.1,0,.11.11-.05.16-.06-.12-.12-.42,0c-.23-.15.61-.22.45-.42-.15,0-.21,0-.19-.06l.25-.14c-.07-.13-.35-.05-.6,0,0-.08,0-.17.21-.22l-.33-.06c.24,0,.15-.07.21-.11l-.06,0c-.11,0,0-.1,0-.14a.35.35,0,0,1,.28.12c.11-.05.08-.1.2-.17-.25,0-.18-.1-.21-.16s.22-.09.21-.11,0-.11-.21,0,.13,0,0,.09-.33,0-.17-.12.49,0,.33-.14a2.3,2.3,0,0,1-.25.09l-.14-.12.23,0a.39.39,0,0,0-.11,0c.24-.06.06-.2.33-.25,0-.06-.17-.12-.2-.17h0c-.14-.06-.06-.16.09-.24h-.05s0-.14.14-.2c-.18-.08-.86,0-.59-.09,0-.11.41-.2.56-.17-.17-.17.19-.41-.18-.55.09,0,.15,0,.2-.08-.11-.26.23-.59-.23-.76-.09.08-.23,0-.36,0,.2-.08-.22-.06.13-.11.2,0,.3,0,.39,0a.32.32,0,0,0-.12-.48.23.23,0,0,0,.22,0c-.32,0-.38-.07-.27-.17l.2,0-.21,0c.06,0,.41-.07.21-.14h-.21c.16-.11.42-.26.25-.35l-.3-.06s.2-.13.29-.06c-.19-.16-.22-.26-.48-.3a.92.92,0,0,0,.52-1.11l-.15,0c-.15-.08.26-.07.15-.12s-.32-.05-.49,0c-.16-.12.25-.19.31-.28s-.12.08.13,0c.07,0-.17-.17.13-.22a1.8,1.8,0,0,0-.46.05l.14-.09c-.35-.07-.6.28-1,.21l0-.08c-.32,0-.34.23-.46.05a1.21,1.21,0,0,1,.71-.14c.07-.17.7-.13.67-.31s0,.15-.28.13.12-.18,0-.25a.51.51,0,0,0,.46-.08c-.14-.08-.28.08-.32,0,.18,0,.3-.17.42-.08.39-.08-.12-.12.18-.22-.28,0-.62.19-.77.06.27,0,.35-.21.74-.17a.62.62,0,0,0-.44,0c-.17-.07.46-.24-.06-.22l.27,0-.31-.08c0-.07.35-.25-.06-.21,0,0,0-.19.3-.15s-.2.13.18.16c-.31-.05,0-.15.13-.22h-.15s0-.12.18-.16a.31.31,0,0,1-.23,0l.23-.06c.11-.15-.42,0-.36-.14l-.18.12s-.19-.05-.12-.12l.65-.15c.09-.09-.25,0,0-.11l-.26.12c-.07,0-.37,0-.37-.14s.38-.2.51-.11-.14-.11-.3,0c.07-.13.24,0,.37-.12-.15,0-.37-.14-.59-.2l-.36.14v-.07c-.29.11-.23,0-.54,0-.05,0,0-.11.13-.17.5.1.66-.21,1.12-.21.11-.2-1.11,0-.42-.28.12,0,.46-.1.34,0-.06-.12.45-.12.25-.24-.18.11-.47-.08-.73.1.15,0,.12.07.08.1s-.45,0-.46-.08,0-.18.28-.18,0,.11.24,0c.07-.15-.32-.14.13-.24,0,.09.24.09.42.08l.1-.12-.17,0c-.14-.17.31-.08.25-.25l-.35,0c-.29.07.15.24-.33.25,0-.11.22-.17.08-.26s0,.06-.09.08-.65,0-.29-.21c.14-.09.17,0,.35-.05,0-.18.22-.25.23-.36-.34.05,0-.2-.39-.05.21,0,.21.3-.12.39s.07.13-.35.21c0-.14-.42-.1-.69-.1,0,0,.09-.09.13-.11a4.13,4.13,0,0,1,.5,0c-.08-.15.05-.31.29-.42-.13,0-.38,0-.4.06a.77.77,0,0,0-.07-.56c.41.08.08-.21.42-.16a.74.74,0,0,0,.58.08c0-.06-.18,0-.27,0,.22-.1-.37-.09,0-.2-.12.19-.5.08-.81.14.17-.14-.23,0-.24-.1a1.27,1.27,0,0,0,.36-.44c-.32-.15,0-.44,0-.59-.17-.07-.53,0-.6-.07s.4.05.22-.09l-.07,0c.08-.05-.26-.26.25-.35l-.39.08s.05,0,.09-.08a.78.78,0,0,0-.32,0c-.28-.07,0-.2,0-.3l.24,0c.17-.19-.07-.28,0-.46l-.23,0,.13-.12c-.22.05-.37,0-.19-.1l-.54.31c.14.06.27-.11.5-.08s.15.18-.07.23c0-.06,0-.07.1-.12-.32,0-.3.1-.51.16,0,0-.09-.07,0-.09-.15.08-.17.14-.17.25.12-.08.2,0,.29,0-.28,0-.36.14-.27.26.33.06-.19.25-.09.39a1.66,1.66,0,0,0,.61-.28c.15.08,0,.11.15.19a1.67,1.67,0,0,0-.65.25H128c-.1.12-.41.14-.34.28a2.32,2.32,0,0,1,.18.64H128c-.44.14-.14.35-.33.5.22.22-.16.52.21.61a2.2,2.2,0,0,0-.16,1.2l.3-.1c-.22.1.18,0,.14.12-.25-.07-.31.13-.49.19.25.17,0,.43-.19.62h.21c-.38.2,0,.37.06.57.09,0,.29,0,.27.1-.33.15-.3.2-.5.39a.7.7,0,0,0,.25.42c-.44.5-.1.94-.35,1.44h.24c-.48.51,0,1-.21,1.45l.42-.07c.14.11-.09.29-.39.28.14.11-.18.33.17.37.09.12-.18.18-.23.29a.52.52,0,0,1,.09.58l0-.06c.09,0,.27-.05.3,0s.13.31-.37.27c.31.23-.19.61.21.82-.13,0-.15.06-.24.09,0,.23.3.44.08.64.07,0,.23-.08.25,0s-.18,0-.25.09c-.22.38.32.71.28,1a5,5,0,0,0,0,1.77h.1c-.36.22.43.41-.14.6.1,0,.06.17.25.12-.26.17.29.4,0,.64,0,0,0,0,0-.06.24.2,0,.42.17.64a.27.27,0,0,1,.17-.09c.19.07-.41.24.07.25,0,.05-.23.06-.22,0,.22.48,0,1.05-.12,1.58.32.35.82,0,.48.28.09,0-.18,0-.08,0-.13.13.55.14.3.24s-.16.06-.34.08c.21.22.48.24.27.44l.15,0c-.42.22-.16.55-.67.63-.05.19-.2.25-.32.18a.58.58,0,0,1-.13-.1s0,0,0,0h-.22a5.41,5.41,0,0,0-1.59.19c-.24.44-.26.43-.54.26,0,.07,0,.09,0,.15,0-.35-.2,0-.23-.37a6.64,6.64,0,0,1-1.18,0c.07,0,.11.33,0,.31l-.09-.23v.1a.38.38,0,0,1-.06-.34c-1-.28-2,.47-3,.4-.24.16-.58,0-.84,0-.76.5-1.45.9-2.24.59C117.66,167.79,117.78,168.72,118.11,168.92Z" transform="translate(-0.71 -3.24)"/><path class="cls-5" d="M127.69,145.26c.17,0,.26.1.48,0A3.84,3.84,0,0,0,127.69,145.26Z" transform="translate(-0.71 -3.24)"/><path class="cls-5" d="M129.6,147.66s.07,0,.1,0,.15-.08.06-.1S129.67,147.64,129.6,147.66Z" transform="translate(-0.71 -3.24)"/><path class="cls-5" d="M129.75,148.3a.35.35,0,0,0,.27-.25Z" transform="translate(-0.71 -3.24)"/><path class="cls-5" d="M130.41,148.86c.13,0,.2,0,.19-.05A.59.59,0,0,0,130.41,148.86Z" transform="translate(-0.71 -3.24)"/><path class="cls-5" d="M130.08,148.93s.09.07.17.09C130.13,149,130.33,148.89,130.08,148.93Z" transform="translate(-0.71 -3.24)"/><path class="cls-5" d="M130.61,150.21s-.13.11,0,.13C130.53,150.32,130.83,150.17,130.61,150.21Z" transform="translate(-0.71 -3.24)"/><path class="cls-5" d="M130.43,150.85s0,0,0,.05a.19.19,0,0,0,.19-.05Z" transform="translate(-0.71 -3.24)"/><polygon class="cls-5" points="129.95 158.81 130.01 158.74 129.87 158.76 129.95 158.81"/><path class="cls-5" d="M131,167.22c-.09.08.15.1.17.12S131,167.34,131,167.22Z" transform="translate(-0.71 -3.24)"/><polygon class="cls-5" points="128.99 166.17 129.02 166.17 128.76 165.85 128.99 166.17"/><path class="cls-5" d="M129.86,183.68c.08,0,0,.27.07.1S129.85,183.57,129.86,183.68Z" transform="translate(-0.71 -3.24)"/><path class="cls-5" d="M114.73,182.9c-.72.41.11.44-.25.84,0,0,.38-.2.31-.09-.46.48.09.7.59.52l.08-.1c.1,0-.16.3-.09.3a1.2,1.2,0,0,1,.16-.17c-.17.19,0,.15-.14.3.08-.06.22-.2.3-.27l-.17.23c-.37.58.18.09.06.45a.54.54,0,0,1,.1-.16c-.11.48.16.53.27.79a3.14,3.14,0,0,1,.18-.37c-.13.28-.1.39-.07.47.15-.28,0,.3.11.17l0-.06c-.08.33.14-.15,0,.24l.12-.22c-.14.43.15-.18.11,0l0,.08c0,.12.09-.08.1,0l0,0c0,.14.17-.08.06.25.12-.26,0-.15.14-.52.14.44.45.47.72.53a1.25,1.25,0,0,0,.12-.3c0,.08.09.09.08.27a.51.51,0,0,1,.07-.18c.07-.12,0,.39.06.24a1.47,1.47,0,0,1,0-.33c0,.28.07.24.11.34a.73.73,0,0,1,0-.2c0,.31.12-.05.14.15v-.2c.12-.23,0,.42.06.29a1,1,0,0,1,0-.23c0,.38.15.28.2.41v-.08c.07,0,.16-.05.22.11,0-.08,0-.49.11-.41,0,.41.12.18,0,.64.07-.06.19-.2.23-.06,0-.16.06-.49,0-.53l.06-.25c0-.16,0,.06,0-.15,0,0,.1.18.12.12,0,.25.06.72.15.77a3.87,3.87,0,0,1,0-.52l.08.79s0-.32.06-.21a1.1,1.1,0,0,0,0,.26c0-.05.12.11.14-.29,0-.16,0-.09,0-.23s0,.14.1.15v-.05c0-.06.1.17,0,.39,0,0,0-.24,0-.13s.08.3.14.31a1.19,1.19,0,0,1,0-.29,1.27,1.27,0,0,0,.22.55c0,.19,0-.35,0-.25.1-.26.22.38.3,0a1.61,1.61,0,0,0,0,.22s0-.3.08-.2c0-.16,0,.05.07.1s0-.08,0-.1c.05.14.24.38.34.14a1.17,1.17,0,0,0,.11.38l0-.25c0-.15.09,0,.08-.2.07.3-.21-.25-.13,0,0-.21.11.4.08.06,0,0,.12.28.15.05,0,0,0-.35,0-.33s0,.12.08.2l0,.1c0,.24.07,0,.05.23,0-.2.11.12.08-.28l0-.32s.06.33.1.47v-.15c0,.49.07,0,.13.33,0-.17.16,0,.17-.33.06.14.12.31.17.21a.41.41,0,0,1,0-.17c0-.14,0,0,.08.06a2.19,2.19,0,0,1,.07-.47,2.61,2.61,0,0,1,.08.57c0-.49.17.29.18-.15a.71.71,0,0,1-.06-.35c0-.49.12.34.17.1l0,.4c0-.25.13.22.08-.18,0,.14.07-.14.1.25.09-.34.31.16.31-.54,0,.06.06,0,.07.19s-.06-.15,0,0,0,.11,0,.17c0-.1,0-.13,0-.45s.16.65.24.49,0-.23,0-.2l.09.26c.06-.07,0-.37,0-.64,0,0,.08,0,.12.22v-.34c0,.25.05.16.07.22l0-.06c0-.12,0,0,.06,0a.51.51,0,0,1,0,.29c0,.12.06.09.1.22,0-.26,0-.2.06-.23s.07.24.08.22,0,0,0-.22,0,.14,0,0,0-.34,0-.17.06.52.11.34a1.38,1.38,0,0,1-.07-.26l0-.15,0,.25v-.12c0,.25.1.06.16.35,0,0,0-.18.06-.21v0c0-.15.07-.06.13.1V187s.07,0,.11.15c0-.19-.12-.91,0-.62a1.4,1.4,0,0,1,.14.59c.07-.18.23.19.25-.2a1.13,1.13,0,0,0,.06.21c.11-.11.32.24.34-.25a1.38,1.38,0,0,1-.06-.38c.06.21,0-.23.07.14a1.37,1.37,0,0,1,0,.42c.1.1.21.07.22-.14a.61.61,0,0,0,0,.23c-.06-.34,0-.41,0-.29l0,.21v-.23c0,.07.1.44.1.23a2,2,0,0,1,0-.22c.07.16.19.44.2.25l0-.32a.52.52,0,0,1,.08.31,1.13,1.13,0,0,0,.07-.51c.26.62.47.6.62.52l0-.16c0-.16.07.27.08.15a4.13,4.13,0,0,0-.1-.51c0-.18.13.26.19.32s-.06-.13,0,.13c0,.08,0-.18.13.13a2.66,2.66,0,0,0-.11-.47l.07.14c0-.38-.24-.63-.28-1.09l0,0c0-.33-.17-.35-.11-.48a2.52,2.52,0,0,1,.19.74c.1.07.19.73.27.69s-.08,0-.11-.29.11.12.12,0a1.46,1.46,0,0,0,.12.49c0-.16-.09-.29,0-.33a1.09,1.09,0,0,1,.11.43c.11.4,0-.13.14.18a5.38,5.38,0,0,1-.17-.81,5.68,5.68,0,0,1,.22.78,1.65,1.65,0,0,0-.09-.47c0-.18.2.48.09-.07l.08.28c0-.1,0-.17,0-.33,0,0,.19.36.09-.07,0,0,.09,0,.13.31s-.1-.2,0,.2c0-.33.07,0,.13.13l0-.17c0,.06.06,0,.11.19a.64.64,0,0,1,0-.25l.07.25c.09.11-.08-.44,0-.39l-.1-.18s0-.2,0-.13c.07.22.15.49.2.67s0-.26,0,0l-.11-.26c0-.07-.06-.39,0-.39a1.14,1.14,0,0,1,.15.52s0-.15,0-.31c.08.06,0,.25.13.38,0-.16,0-.39,0-.62l-.13-.37h0c-.12-.3,0-.24-.13-.56,0,0,.06.05.1.13a9.3,9.3,0,0,0,.33,1.16c.12.1-.22-1.16,0-.45,0,.13.14.47.05.35s.15.46.17.25-.06-.49-.19-.75c0,.15,0,.13,0,.09s-.11-.47-.06-.49.1,0,.15.28-.06,0,0,.25c.09.07,0-.34.14.13,0,0,0,.26.05.44l.08.1,0-.18c0-.15.1.32.17.25l0-.36c-.09-.3-.08.16-.19-.33.05,0,.13.21.14.07l-.06-.09s-.13-.68,0-.32c.08.14.05.17.1.36.1,0,.17.21.23.22-.1-.35.08-.06-.07-.41,0,.22-.1.23-.21-.1s-.05.08-.17-.35c.06,0,0-.45-.1-.73,0,0,.05.09.08.13.07.25,0,.26.11.53.05-.1.16,0,.26.27a1.16,1.16,0,0,0-.11-.41c.1,0,.19,0,.25-.11.05.44.11.07.17.43a1.63,1.63,0,0,0,.09.61s0-.19-.06-.28c.1.22,0-.39.09,0-.12-.12-.15-.52-.25-.84.1.17-.06-.24,0-.25a1.34,1.34,0,0,0,.29.34c0-.34.2-.07.28-.07,0-.18-.14-.55-.12-.62s.08.41.1.22l0-.08c0,.08.06-.29.23.24l-.13-.4s0,0,.06.09a2.71,2.71,0,0,0-.1-.33c0-.3.1,0,.15,0l0,.25c.13.16.11-.09.21,0l-.07-.23.09.13c-.08-.23-.08-.38,0-.2l-.28-.54c0,.15.12.27.16.51s0,.17-.12,0c0,0,0,0,.08.09a2.24,2.24,0,0,0-.2-.51s0-.1,0,0c-.07-.15-.11-.16-.15-.16a1.41,1.41,0,0,1,.07.3c-.08-.29-.15-.36-.18-.26,0,.34-.16-.18-.2-.07a3.47,3.47,0,0,0,.27.61c0,.16-.05,0-.05.16a3.76,3.76,0,0,0-.27-.65l0,.22c-.07-.1-.16-.42-.2-.34a.62.62,0,0,1-.26.22l.05.22c-.16-.45-.19-.13-.3-.31,0,.23-.28-.15-.24.24-.22-.11-.41-.23-.58-.1l.1.3c-.08-.22,0,.19,0,.15,0-.26-.12-.31-.19-.5,0,.27-.2,0-.32-.17l0,.22c-.17-.39-.18,0-.26.08s0,.3,0,.29a1.92,1.92,0,0,0-.27-.51c-.06,0-.13.12-.15.27-.31-.44-.45-.08-.72-.33l0,.26c-.31-.49-.46.05-.69-.19l.1.44c0,.14-.15-.09-.19-.41,0,.15-.18-.18-.14.19,0,.09-.11-.19-.17-.24-.08.19-.13.16-.25.1l0,0a1.09,1.09,0,0,1,0,.32c-.07-.12-.13.15-.18-.39-.06.33-.3-.2-.34.23a1.15,1.15,0,0,0-.08-.26c-.09,0-.15.32-.27.09,0,.08.06.24,0,.27s0-.19-.07-.27c-.2-.24-.29.33-.44.28-.3-.23-.54-.06-.79-.07v.1c-.12-.39-.15.45-.28-.16,0,.1-.07,0,0,.26-.09-.28-.16.29-.29-.07t0,.06c-.07.24-.19-.07-.27.15a.5.5,0,0,1,0,.19c0,.2-.13-.45-.11.07,0,0,0-.26,0-.24-.21.21-.47-.09-.69-.21-.15.32,0,.87-.12.49,0,.1,0-.19,0-.09,0-.14,0,.58-.1.32s0-.18,0-.37c-.1.21-.11.49-.2.26V185c-.1-.47-.2-.22-.28-.76-.5-.09-.94-.42-1.36-.53-.44,0-.78-.27-1.19-.1-.2.39-.22.37-.25.17a.66.66,0,0,1,0,.15c.11-.34-.06-.06,0-.38-.13,0-.2-.13-.31-.18s-.11.31-.13.28l.09-.22,0,.09a1.35,1.35,0,0,1,.14-.32c-.06-.37-.57.07-.67-.17-.13.05-.07-.09,0-.16a1,1,0,0,1-.59,0,.21.21,0,0,1,0-.35A3,3,0,0,0,114.73,182.9Z" transform="translate(-0.71 -3.24)"/><path class="cls-5" d="M129.78,183.67a1.56,1.56,0,0,0,.12.5C129.86,184,129.83,183.82,129.78,183.67Z" transform="translate(-0.71 -3.24)"/><path class="cls-5" d="M129.12,185.8c0-.05,0,.08,0,.11s.07.15.06.05S129.14,185.87,129.12,185.8Z" transform="translate(-0.71 -3.24)"/><path class="cls-5" d="M128.84,186a.41.41,0,0,0,.18.27Z" transform="translate(-0.71 -3.24)"/><path class="cls-5" d="M128.72,186.71c0,.14,0,.21.06.2S128.74,186.79,128.72,186.71Z" transform="translate(-0.71 -3.24)"/><path class="cls-5" d="M128.61,186.37s0,.09,0,.19C128.57,186.42,128.68,186.62,128.61,186.37Z" transform="translate(-0.71 -3.24)"/><path class="cls-5" d="M128.1,187s-.08-.13-.06,0C128,186.91,128.16,187.21,128.1,187Z" transform="translate(-0.71 -3.24)"/><path class="cls-5" d="M127.76,186.83s0,0,0,0a.39.39,0,0,0,.06.2Z" transform="translate(-0.71 -3.24)"/><polygon class="cls-5" points="121.62 183.96 121.66 184.04 121.64 183.88 121.62 183.96"/><path class="cls-5" d="M119.92,187.33c0-.11,0,.15,0,.17S119.89,187.3,119.92,187.33Z" transform="translate(-0.71 -3.24)"/><polygon class="cls-5" points="117.96 183.21 117.97 183.22 117.99 182.89 117.96 183.21"/><path class="cls-5" d="M91.6,166.29c0-.09.18-.15,0-.11S91.53,166.34,91.6,166.29Z" transform="translate(-0.71 -3.24)"/><path class="cls-5" d="M93.22,185.59c.76.13.35-.53.9-.55,0,0-.34-.18-.21-.2.64,0,.62-.52.43-1l-.11,0c0-.09.34,0,.33-.08a.67.67,0,0,1-.18-.08c.2.08.16-.06.32,0-.06-.06-.21-.13-.28-.2l.25.07c.59.16.08-.25.43-.26a.47.47,0,0,1-.15-.06c.45-.06.53-.37.78-.56a2.26,2.26,0,0,1-.33-.13.44.44,0,0,0,.44,0c-.24-.13.29,0,.19-.15l-.06,0c.29.05-.11-.14.23-.07l-.18-.11c.37.11-.14-.16.07-.13l.07,0c.11,0-.06-.11,0-.13l0,0c.15-.06,0-.19.26-.08-.21-.12-.15,0-.45-.12.47-.2.51-.58.65-.92a.87.87,0,0,0-.24-.15c.07,0,.1-.11.26-.09a.4.4,0,0,1-.15-.09c-.08-.09.35,0,.24-.08a.8.8,0,0,1-.29,0c.25,0,.24-.08.34-.13l-.18,0c.28,0,0-.15.18-.17l-.18,0c-.16-.16.37.06.28-.06l-.2,0c.34,0,.29-.17.43-.23H97c.08-.09,0-.21.18-.28-.06,0-.41-.08-.33-.17.34.08.18-.14.55,0,0-.1-.14-.27,0-.3-.14,0-.41-.12-.46-.06l-.19-.09c-.14,0,0,.06-.14,0,0,0,.18-.11.13-.15.22,0,.63,0,.7-.12-.15,0-.38-.09-.44-.07l.69,0s-.27-.05-.17-.09a.59.59,0,0,0,.23,0s.12-.14-.22-.2c-.13,0-.08,0-.2,0s.14-.06.16-.12h0c0-.05.17-.11.35,0,0,0-.2,0-.11,0s.28-.07.3-.14h-.25a1.2,1.2,0,0,0,.52-.24c.17,0-.3,0-.22,0-.19-.15.36-.24,0-.39,0,0,.23,0,.19,0s-.26-.09-.17-.12c-.14,0,0-.05.1-.09s-.07,0-.09,0,.35-.28.16-.44c.09,0,.34-.07.33-.1h-.22c-.12,0,0-.11-.16-.12.27-.06-.23.26,0,.17-.18,0,.36-.11.06-.11,0-.06.26-.12.06-.19,0,0-.3.05-.29,0s.11,0,.18-.1l.1,0c.21,0,0-.09.21-.05-.18,0,.11-.14-.24-.13H98a2.1,2.1,0,0,1,.42-.09l-.12,0c.42,0,0-.09.29-.14-.13-.09,0-.22-.28-.25.12-.07.27-.14.17-.21a.27.27,0,0,1-.14,0c-.13,0,0-.06,0-.11s-.26-.08-.41-.12a1.57,1.57,0,0,1,.49-.08c-.42,0,.25-.2-.14-.25a.4.4,0,0,1-.3.07c-.42,0,.29-.14.08-.22h.35c-.22,0,.19-.16-.16-.12.12,0-.13-.1.21-.12-.3-.13.13-.41-.48-.43,0,0,0-.07.16-.09s-.12.07,0,.07.1,0,.15,0-.12-.07-.38,0c-.23-.08.54-.19.37-.31-.13,0-.19,0-.17,0l.21-.11c-.07-.08-.32,0-.56,0,0-.06,0-.11.18-.16h-.31c.22,0,.13-.07.18-.1l0,0c-.1,0,0-.05,0-.08a.38.38,0,0,1,.27,0c.09,0,.06-.08.17-.13-.22,0-.18-.05-.21-.08s.19-.09.18-.1,0-.07-.2,0,.13,0,0,.06-.3,0-.16-.06.45-.08.28-.13l-.21.09-.14-.05.2-.05h-.1c.21-.07,0-.13.28-.2,0,0-.16-.06-.2-.09h0c-.14,0-.07-.09.06-.17l0,0s0-.09.11-.15c-.17,0-.77.18-.54,0,0-.06.33-.2.47-.21-.18-.07.09-.29-.26-.31.08,0,.13,0,.16-.09-.14-.14.1-.43-.34-.43-.07.07-.2.07-.31.11.16-.1-.2,0,.09-.11a.84.84,0,0,1,.36-.07.19.19,0,0,0-.19-.28.25.25,0,0,0,.18-.08c-.28.11-.35.05-.27,0l.16-.07-.19,0s.35-.16.15-.15l-.19.06c.11-.11.31-.28.13-.29l-.27.06a.29.29,0,0,1,.23-.13c-.2,0-.26-.1-.48,0,.42-.39.29-.67.14-.85l-.12.06c-.14,0,.2-.13.1-.13s-.28.09-.4.2.15-.2.17-.28-.07.09.12,0-.19,0,0-.17a1.24,1.24,0,0,0-.36.19l.08-.1c-.31.09-.41.38-.8.5l0-.06c-.28.09-.22.25-.37.2a1.41,1.41,0,0,1,.54-.34c0-.13.54-.34.45-.43s0,.1-.19.18,0-.15,0-.16a.61.61,0,0,0,.35-.22c-.14,0-.2.15-.27.09.13-.08.18-.21.32-.2.29-.2-.14,0,.07-.2-.23.09-.45.35-.61.33.22-.1.21-.26.55-.39a.74.74,0,0,0-.36.19c-.16,0,.3-.33-.12-.11l.2-.13-.27.08s.19-.3-.12-.11c0,0,0-.11.19-.21s-.11.16.2,0c-.27.1,0-.11,0-.19l-.12.07c0-.05,0-.07.09-.17a.48.48,0,0,1-.19.11l.17-.14c0-.13-.34.19-.35.08L96,168s-.17.05-.14,0l.45-.37c0-.09-.2.1-.07-.05l-.15.18s-.31.14-.35.09a.63.63,0,0,1,.36-.29s-.15,0-.25.1c0-.1.18-.11.23-.23-.12.05-.33.09-.52.15l-.23.24,0,0c-.18.19-.19.09-.39.27-.06,0,0-.08,0-.15.43-.18.43-.42.78-.63,0-.17-.85.5-.43,0,.1,0,.31-.27.27-.14-.09,0,.29-.28.09-.26s-.38.19-.5.41c.1-.09.12,0,.09,0s-.32.25-.37.18,0-.11.13-.23,0,.07.2-.09c0-.12-.3.08,0-.2,0,.07.22-.06.34-.16l0-.11-.11.1c-.18,0,.19-.19.07-.25l-.27.14c-.19.18.21.06-.14.3-.07-.05.08-.2,0-.18a.24.24,0,0,0,0,.09s-.5.31-.31,0c.06-.11.11-.1.23-.2,0-.12,0-.24,0-.32-.22.21-.12-.08-.3.19.17-.09.28.05.08.26s.1,0-.17.28c-.07-.06-.35.17-.55.3,0,0,0-.08,0-.12.17-.14.19-.12.37-.26-.12,0-.1-.19,0-.37-.11.05-.27.2-.26.24a.36.36,0,0,0-.3-.24c.34-.19,0-.15.23-.31a.87.87,0,0,0,.45-.27s-.12.11-.19.14c.1-.16-.3.16-.11-.08,0,.15-.31.3-.51.5.06-.16-.15.14-.21.08a.68.68,0,0,0,0-.41c-.28.11-.21-.19-.29-.26s-.35.31-.43.31.28-.21.1-.17l0,.05c0-.07-.29,0,0-.3l-.21.26s0,0,0-.09-.17.14-.2.21c-.21.13-.07-.11-.11-.15l.17-.12c0-.19-.19-.09-.23-.21l-.13.15,0-.13c-.12.16-.25.22-.17.07l-.18.46c.11-.06.12-.2.27-.33s.18,0,.06.14c0,0,0,0,0-.11-.2.19-.14.22-.24.37,0,0-.09,0,0,0-.06.12,0,.16,0,.2s.13-.11.17-.18c-.16.18-.16.27-.06.27.24-.16,0,.22.11.22a1.57,1.57,0,0,0,.28-.47c.13-.05,0,0,.18,0a2,2,0,0,0-.32.49l.14-.13c0,.11-.21.3-.11.32a1,1,0,0,1,.38.19l.14-.12c-.24.3,0,.23,0,.4.24,0,.07.33.37.18.06.26.1.5.33.64l.19-.19c-.13.15.14-.07.14,0-.21.09-.19.21-.3.33.24,0,.15.21.05.39l.16-.1c-.23.27.1.18.23.25s.24-.11.24-.07a1.29,1.29,0,0,0-.27.41.45.45,0,0,0,.31.11c-.22.43.17.51.1.86l.21-.09c-.3.44.24.53.12.82l.34-.17c.14,0,0,.18-.27.27.14,0-.09.22.22.14.1,0-.12.14-.14.21.19.08.17.14.15.28l0,0a.51.51,0,0,1,.26-.07c-.08.08.17.13-.28.24.3,0-.09.36.3.38-.12,0-.13.06-.21.1s.33.16.16.31c.07,0,.2-.09.23,0s-.16,0-.22.09c-.18.24.33.32.31.51-.17.36.07.64.05.95l.09,0c-.34.14.38.2-.14.34.09,0,.05.08.23.05-.24.1.26.2,0,.34,0,0,0,0,0,0,.21.11-.06.23.14.34a.6.6,0,0,1,.16-.05c.18.05-.38.13.07.14,0,0-.22,0-.21,0,.21.27-.13.58-.24.85.26.21.75,0,.41.19.09,0-.17,0-.08,0-.13.06.5.13.26.16s-.16,0-.32,0c.17.14.41.18.2.27h.15c-.42.09-.2.24-.68.29-.23.62-.58,1.17-.79,1.75a7.14,7.14,0,0,0-.51,1.78c.29.27.27.27,0,.37.06,0,.08,0,.13,0-.3-.1-.09.1-.37,0a3.5,3.5,0,0,1-.35.62s.28.05.24.09l-.2,0,.08,0a.44.44,0,0,1-.29-.09c-.52.44-.23,1.24-.69,1.73,0,.18-.2.3-.34.41.09.58.11,1.12-.41,1.39C92.24,185.32,92.94,185.67,93.22,185.59Z" transform="translate(-0.71 -3.24)"/><path class="cls-5" d="M91.66,166.36c.11-.1.21-.12.3-.3C91.86,166.16,91.74,166.26,91.66,166.36Z" transform="translate(-0.71 -3.24)"/><path class="cls-5" d="M94,166.34s.06,0,.08,0,.07-.11,0-.07S94.05,166.29,94,166.34Z" transform="translate(-0.71 -3.24)"/><path class="cls-5" d="M94.41,166.59a.26.26,0,0,0,.08-.28Z" transform="translate(-0.71 -3.24)"/><path class="cls-5" d="M95.13,166.55c.11-.05.15-.09.12-.13A.49.49,0,0,0,95.13,166.55Z" transform="translate(-0.71 -3.24)"/><path class="cls-5" d="M94.91,166.75s.1,0,.17,0C95,166.78,95.08,166.61,94.91,166.75Z" transform="translate(-0.71 -3.24)"/><path class="cls-5" d="M95.85,167.2s-.06.13.08.06C95.83,167.3,96,167.08,95.85,167.2Z" transform="translate(-0.71 -3.24)"/><path class="cls-5" d="M96,167.65s0,0,0,0,.14-.09.13-.12Z" transform="translate(-0.71 -3.24)"/><polygon class="cls-5" points="97.63 171.38 97.69 171.33 97.55 171.35 97.63 171.38"/><path class="cls-5" d="M98.26,177.77c-.1,0,.12,0,.14.06S98.23,177.82,98.26,177.77Z" transform="translate(-0.71 -3.24)"/><polygon class="cls-5" points="96.53 176.04 96.53 176.03 96.26 175.97 96.53 176.04"/></svg>