<svg id="레이어_1" data-name="레이어 1" xmlns="http://www.w3.org/2000/svg" xmlns:xlink="http://www.w3.org/1999/xlink" viewBox="0 0 200 200"><defs><style>.cls-1{fill:none;}.cls-2{fill:#d1d1d1;}.cls-3{clip-path:url(#clip-path);}.cls-4{fill:#ea7259;}.cls-5{fill:#202020;}</style><clipPath id="clip-path"><circle class="cls-1" cx="100" cy="100" r="100"/></clipPath></defs><circle class="cls-2" cx="100" cy="100" r="100"/><g class="cls-3"><path class="cls-4" d="M116.1,263.64c18.89-8.76,38.17-19.47,48.43-36.84,11.05-18.7,9.17-43.44,4.16-63.39-5.35-21.25-20.9-38.47-44-45.63-20.48-6.34-45.52-2-63.22,9.08C22.75,151,15,203.05,36.82,238.3c11.32,18.25,34.2,29.79,57.76,26.23A77.48,77.48,0,0,0,151.19,225c11.37-21.21,13.78-47.39,1.26-68.42-6.41-10.78-18.64-19.14-32.09-21.55a46.87,46.87,0,0,0-39.74,11.72c-10.08,9.17-14,21.47-15.2,33.85-1,10.18-1.22,22.24,2.6,32,5,12.68,16.76,21.56,31.86,22.71a47.89,47.89,0,0,0,35.46-11.94c9.94-9,13.54-21.48,14.24-33.67.61-10.55-1.12-22.09-7.68-31-10-13.65-30.72-16.88-44.39-5.07C93,157.5,90.17,162.8,87.86,168a83.72,83.72,0,0,0-6.3,18.89c-2.48,13.52-3.28,29.64,9.84,39.11s30.42,8.74,44.76,1.89c24.13-11.53,30.1-38.24,26-60.32-4.11-22.26-17-44.06-41.62-52.71-12.82-4.5-27.23-5.66-40.4-1a71.18,71.18,0,0,0-29.25,19.48C36.25,149.55,23.84,171.67,25.77,193c1.14,12.53,6.75,23.67,16.57,32.59,8,7.28,18.51,11.52,29.18,14.71,8.48,2.54,17.4,3.72,26.3,4.48,6,.51,11.13.4,16.39-2.65,4.34-2.51,8.37-7.24,9.34-11.85,1.91-9.16-4.06-21.83-16-22.86a151,151,0,0,1-20-2.86q-2.46-.54-4.88-1.22c-5.09-1.43,2.56,1.16-.84-.25-1.48-.62-3-1.19-4.43-1.87-.87-.41-5.76-3.11-3-1.48s-1.41-1.18-2-1.65-.93-.89-1.44-1.29c-1.63-1.27,1.26,1.29,1.3,1.43-.26-.92-2-2.78-2.68-3.6-1.52-1.89,1,3.06.3.58-.28-.92-.73-1.82-1-2.75,0-.17,1.32-.84-.58-2.1,1,.16.37,3.81.3.77,0-1.7,0-3.4,0-5.1,0-2.31-.16,1.44-.16,1.43-.18-.53.47-2.58.55-2.95a56.06,56.06,0,0,1,1.65-5.89c.25-.73.56-1.45.8-2.18.71-2.17-.45.94-.46,1.05.11-1.44,1.73-3.61,2.43-4.93a95.69,95.69,0,0,1,5.92-9.63c.46-.65,3.73-4.73,1.88-2.63s1.81-2,2.23-2.42c1-1.06,2-2.1,3.11-3.1.71-.66,1.46-1.29,2.19-1.93,2.16-1.92-.43-.22-.74.51.43-1,3.24-2.11,4.31-2.69.31-.17,1.8-.73,1.93-1-.59,1.24-3.77,1.31-1,.46,1-.3,6.15-1.28,2.92-1s-.39.06.19,0l3.06-.15c4.1-.21-.78.23-1.14-.16a11,11,0,0,0,2.26.34c1,.18,2,.5,3,.66,2.45.4-1.65-.58-1.57-.58,1.42,0,3.62,1.48,4.86,2.12.14.07,2,1.08,2,1.07q-3.15-2.05-1.31-.78c.42.28.82.57,1.21.88s4.09,3.07,3.91,3.34-2.36-2.9-.92-.94c.45.61,1,1.19,1.47,1.8,1.11,1.44,2,3,3,4.45,1.66,2.26-1.24-3-.19-.43.38.93.85,1.84,1.23,2.78.68,1.65,1.27,3.32,1.79,5,.23.76,1.56,6,1,3.37s.37,2.79.45,3.44c.22,2,.36,4.06.38,6.1,0,1,.48,3.79-.14,4.58,1-1.26.53-3-.06-.58-.18.74-.31,1.49-.5,2.23s-.41,1.47-.62,2.2c-1.17,4.16.17-.47.23-.38s-.94,1.76-1.08,2c-2.15,3.64-.29-.12.28,0-.08,0-4.75,4.88-2.14,2.39s-3,2-2.88,1.55,3.81-1.15,1.59-.78a10.49,10.49,0,0,0-2.16.6c.48-.66,5.11-.11,1.19-.37,1.11.08,4.36.66,1.49.11-1.59-.3-2.74-1.33,1.26.42a10.32,10.32,0,0,1,3.13,2.3,9.21,9.21,0,0,1,2,2.78c1.43,3.44.32,2.32.43.78.06-.75,0-1.51,0-2.26s.28-4.09,0-1.53c-.23,2.37.07-.35.13-.7.25-1.35.48-2.7.78-4a62.69,62.69,0,0,1,3.2-10.28c-1.45,3.52.65-1,1.27-2.14,0-.08,1.11-1.94,1.11-1.94a7.84,7.84,0,0,1-4.37,3.44q-3.84,3.31-9.15,1.22c-5.12-.37-5.77.2-8.88-2.2,2.48,1.91-.92-1-1.13-1.32,2.07,2.57-1-3.45,0-.3a19.67,19.67,0,0,0,.78,2.25c-.11-.05-.6-4.46-.41-2.12.16,1.91.47,3.79.58,5.7.11,1.68.07,3.35.1,5,0,2.64-1,.29.2-.84-.27.26-.27,1.73-.34,2.1s-1.33,4.74-1.28,4.77c-.24-.15,1.8-3.3.55-1.41-.23.34-1.88,3-1.84,3.09s2.45-3,1.09-1.47a16.86,16.86,0,0,0-1.34,1.28c-.45-1.25,3.87-2.28,1.14-1a11.42,11.42,0,0,0-1.68.93c-2,1.47,4-1,1.45-.66a11.23,11.23,0,0,0-1.85.56c-.6.2-3.11.74.3,0,4.22-.92-.75-.32-1-.18s5.06,0,2.64.13c-.68,0-3.81-.78-.3.05,2.74.65,1.27.3.41-.1a9.82,9.82,0,0,1,4.13,3.38c-2.06-2.94.73,3.18-.37-.19A12,12,0,0,1,108,198c-.17.17.47,4.17.27,1-.22-3.48-.47-6.93-.51-10.42,0-1.91,0-3.83.09-5.75,0-.81,0-1.65.16-2.46-.41,2.74-.1,1.33.3-.54.35-1.62.91-3.16,1.36-4.74.8-2.87-1.84,3-.28.86a15.26,15.26,0,0,0,1-1.75c1.13-2.09,3.52-.69,1.5.07,1.43.36,0,.08-.86-.85-.22-.23,1.48-1.16,1.5-1.42-2.24,1.59-1.83-.22-1.44,1.11.79,2.72.77-.5,1.18-.72,1.47-1.27-1.37.68-1.89.65a23,23,0,0,1,2.7-.84c.15.4-4.56.16-2,.39.82.07,4.13-.27.87-.12-3,.14.17,2.17.85,2.57.44.26,1.8-1-.51-2.35s0,.27.82.58c2.29.82,2.48,3.25,4.19,4.85.69.63-5.25-4.42-4.49-3.85,1.84,1.4-.07-.8,0-.78.47.16-.12.61,0,.78.26.37,3.67,6.77,2.68,4.63s.4-2,.52-1.68c.34,1,.73,1.94,1,2.93.23.74.37,1.5.61,2.24.84,2.58-.42-4.47,0,.28.28,3.28.22,6.5.3,9.78.07,2.8.61-3.38.1-.62-.13.74-.21,1.5-.34,2.24a57.9,57.9,0,0,1-1.37,5.9c-.49,1.7-1.13,3.36-1.69,5.05-.72,2.13.46-1,.47-1.13a12.2,12.2,0,0,1-1.35,2.76c-1.54,3-3.29,6.76-5.83,9.17,3.3-3.13-.42.26-1.2,1.07-1.18,1.2-2.47,2.3-3.7,3.46-2.59,2.42,3.13-2-1.09.82a55.56,55.56,0,0,1-5.11,3.05,11.19,11.19,0,0,0-2,1c.05-.26,4.82-1.77.92-.4-1.39.49-2.78,1-4.21,1.39a16.35,16.35,0,0,0-2.86.71c.07-.08,4.41-.5,2-.32-1.93.15-3.89.17-5.81.34-2.25.2,1.87.1,2.09.22a18,18,0,0,0-2.88-.44c-.71-.14-1.43-.37-2.14-.49-2.8-.46,3.52,1.57,1.11.37-1.18-.59-2.47-1.2-3.69-1.72-2.49-1.07,3.1,2.35,1.06.7-.68-.55-1.43-1-2.11-1.59s-1.28-1.19-2-1.73c-1.82-1.43,1.47,1.38,1.22,1.39-.67,0-2.43-2.95-2.87-3.57-.91-1.25-1.69-2.55-2.51-3.85-.28-.45-1.44-2.47-.07-.08,1.57,2.74-.38-1-.51-1.34a58.59,58.59,0,0,1-2.75-8.07c-.22-.84-.39-1.69-.61-2.52-.56-2.17.47,2,.38,1.89-.79-.51-.62-4.51-.71-5.53a72.67,72.67,0,0,1-.23-9.79c0-.7.11-1.4.13-2.1,0-2.18-.13,1.51-.2,1.63.77-1.28.6-4.05.91-5.54a76.63,76.63,0,0,1,2.7-9.43c1.13-3.3-1.64,3.27.54-1.15q1.25-2.52,2.74-4.94c.31-.5,2.93-3.85,2.79-4.12.07.13-2.49,2.86-.93,1.21.49-.52.94-1.09,1.43-1.62,1.15-1.25,2.36-2.46,3.63-3.61.52-.47,1.06-.92,1.59-1.38,3.31-2.92-2.58,1.57-.35.28,1.41-.81,2.72-1.76,4.15-2.55.74-.41,5.63-2.66,2.56-1.4s2.16-.73,2.81-.94q2.37-.76,4.82-1.33c5.28-1.24-3.18.14.67-.21,1.65-.15,3.3-.33,5-.4.68,0,4.85.23,5,0-.07.14-4.52-.56-2.22-.15,1.14.21,2.31.3,3.45.51,1.37.25,2.7.6,4,.93,3.49.85-3.77-1.56.62.34,1.1.48,3,2,4.25,2.14-.6-.08-3.78-2.77-1-.57.73.6,1.5,1.16,2.23,1.77a18.45,18.45,0,0,0,2.06,1.87c-.16,0-2.47-2.92-1.17-1.23,1,1.26,2,2.45,2.89,3.75.65.94,1.24,2.7,2.13,3.42-2-1.58-1.35-2.85-.53-.88.34.83.72,1.64,1.06,2.48a72.15,72.15,0,0,1,2.8,9.08c.87,3.45-.59-3.93.15,1,.27,1.81.49,3.64.65,5.46.27,3,.41,5.93.46,8.89,0,1.73,0,3.47,0,5.2,0,1.11-.16,2.23-.13,3.33.07,2.84.62-2.92.05-.14-.39,1.91-.81,3.8-1.22,5.7-.19.89-1.48,2.54,0,.51,1.6-2.28,0,0-.39.7-.72,1.37-1.56,2.66-2.39,4-.28.44-1.7,2.33,0,.12,1.92-2.53-.81.82-1,1.07q-1.41,1.48-2.94,2.88c-.7.63-4.42,3.81-2.23,2s-1.73,1.17-2.58,1.73c-1.63,1.07-3.29,2.09-5,3.08-5.93,3.45-12.17,6.44-18.45,9.35-10,4.65-12.73,18.65-6.53,26.49,7.19,9.09,18.86,10.54,29.56,5.58Z"/></g><path class="cls-5" d="M113.09,145c.06,0,0-.2.06-.08S113.08,145,113.09,145Z"/><path class="cls-5" d="M112.45,144.21a.42.42,0,0,1,.46-.42c.22,0,.41,0,.61-.17,0,0,0,.34.08.26.38-.51,1.1,0,1.12.53l-.08.07c0,.09.28-.1.31,0a.47.47,0,0,0-.14.12c.16-.12.16,0,.29,0,0,.08-.16.16-.22.24l.21-.09c.26-.09.3,0,.29.11s0,.21.11.27a.22.22,0,0,0-.14,0c.37.22.29.69.26,1.08a.92.92,0,0,0-.29-.11.3.3,0,0,1,.21.34c-.23-.08.09.28-.1.32l0,0c.14.23-.19,0,0,.27l-.17-.08c.2.27-.22,0-.16.14l0,.05c0,.11-.14,0-.17.08l0,0c-.09.17-.27,0-.15.27-.14-.17.1-.16-.12-.39a1.17,1.17,0,0,1-1.43.25.54.54,0,0,1,0-.25c-.06,0-.17,0-.28.06s0-.13,0-.16-.25.19-.26,0a.42.42,0,0,0,.18-.17c-.18.11-.26,0-.38,0a.29.29,0,0,0,.14-.08c-.26.09-.1-.16-.27-.14l.14-.06c.06-.21-.29.14-.28,0a.44.44,0,0,0,.16-.06c-.31,0-.33-.2-.46-.29l.06,0c-.08-.12,0-.28-.16-.42.06-.07.36,0,.31-.14-.31,0-.11-.25-.46-.2.07-.15.24-.32.18-.44.08.09.36.08.35.18h.2c.11.05-.06,0,.09.08s-.06-.2,0-.21c-.13-.15-.37-.42-.29-.58,0,.13.28.18.29.25a2.63,2.63,0,0,1-.27-.56c0-.06.17.16.18,0a.46.46,0,0,1-.08-.19s.19-.23.37,0c.08.09,0,.1.06.16s0-.15.14-.2v0c.08,0,.16-.19,0-.32s.08.16,0,.1.13-.27.27-.3c0,.06,0,.13,0,.22a.71.71,0,0,1,.58-.41c0-.14-.12.24-.14.16.13.12.28.07.44.07s.32,0,.34.22c0,0,.1-.18.08-.14s0,.26.08.25c-.07.1.11,0,.2.09s0,0-.09,0c.16,0,.64.34.55.69a.37.37,0,0,1,.34.17l-.19,0c-.09.08.06.23-.1.26.12.06.06-.08,0-.2s-.17-.2-.06-.14c-.14.07.35.2.09.21,0,.12.25.26.07.4,0,0-.26-.11-.25,0s.09.06.13.23l0,.12c.18.05-.09.19.14.16-.14,0-.06.39-.32.22l-.2-.14c0,.08.15.26.17.39a.14.14,0,0,1-.1,0c.26.25-.18.17-.11.45-.25.06-.54.29-.69.09-.12.15-.26.3-.45.23,0,0,.09-.05.09-.13s-.13,0-.23,0-.19-.23-.25-.38c-.14.07-.16.27-.21.38,0-.19-.12-.17-.25-.16s-.27,0-.25-.19c.07,0,.27,0,.22-.17.11-.35-.37.08-.41-.23l-.18.25c.06-.19-.38-.22-.11-.36-.14,0,0-.3-.29-.16a4.08,4.08,0,0,0-.06-.71.38.38,0,0,1,.35-.45c0-.06,0-.16-.1-.18s.08.14,0,.14-.06-.08-.1-.1.15-.15.34,0c.24-.11-.36-.44,0-.68.08.09.13.1.18,0v-.28c.23-.12.27.13.4.29a.93.93,0,0,0,.13-.15l-.11.07a.23.23,0,0,0,0-.14l.23.15c-.16-.11,0-.14,0-.21v.07c.06.06.11,0,.14-.08a.26.26,0,0,0-.26-.09c0-.11.06-.13.07-.25.08.19.2.05.28,0s0-.2,0-.2.14,0,.13.12-.1-.07-.11,0,.14.23.19.07-.14-.38,0-.3c0,.06,0,.14,0,.21l.17.07,0-.18s0,.06,0,.08c0-.2.21-.1.21-.32.08,0,.18.1.25.12l0,0c.1.1.2,0,.28-.09v0a.23.23,0,0,0,.23-.11c.1.15,0,.69.1.48.1,0,.24-.3.21-.42.19.16.55,0,.63.32.07-.05.07-.11.15-.11.26.2.78.24.71.68-.12,0-.13.12-.21.19.17-.05-.07.18.16,0s.19-.15.17-.27c.21.09.41.37.33.54,0-.09.1-.08.17-.06-.23.12-.21.25-.08.31h0l.16,0-.13.13c.06,0,.33-.07.23.09a.54.54,0,0,0-.15.09c.15.06.42.19.3.35l-.21.14c0,.05.18.13.23,0-.11.25-.14.38-.34.45a1.05,1.05,0,0,1,.06,1.44l-.1-.07c-.16.05.15.16,0,.19s-.25,0-.33-.2c-.18.06.07.28,0,.4s0-.13.12,0-.24.11-.08.28c-.1,0-.21-.17-.27-.24l0,.15c-.27-.11-.21-.52-.55-.64l0,.07c-.23-.11-.1-.3-.27-.24,0,.12.25.41.38.43-.07.17.36.45.18.59-.14-.06.11-.15-.06-.26s-.07.22-.19.23c.13,0,.23.24.19.32s-.08-.22-.22-.14c.06.12,0,.3.16.3.12.3-.21,0-.17.29-.15-.16-.11-.52-.32-.53.14.17-.06.37.17.6-.1,0-.18-.17-.19-.31s-.09.47-.28.1l0,.21c0-.05-.12-.09-.21-.18s-.14.18-.21.18-.06,0-.08-.13-.23.06-.11.27.13-.14.23,0l0,.06,0,0c-.13-.15-.17.12-.25.21l0-.13c0,.06-.16.05-.18.18a.16.16,0,0,0,0-.18l0,.19c-.21.11-.07-.33-.26-.27l.14-.15s-.09-.14-.17-.09-.11.38-.15.52,0-.2-.16,0l.16-.2c0-.06-.08-.29-.2-.3s-.27.27-.14.39a.16.16,0,0,1-.07-.25c-.16,0,0,.19-.17.27a4.78,4.78,0,0,1-.2-.52,2.43,2.43,0,0,0,.2-.25l-.07,0c.16-.2,0-.18.13-.41,0,0-.11,0-.18.06,0,.43-.35.45-.45.8-.28,0,.24-.85-.22-.46,0,.1-.25.29-.07.27-.11-.11-.26.27-.35,0,.19-.06.07-.38.34-.47-.07.09,0,.13.08.11s.19-.31.08-.38-.18-.07-.28.1.12.06,0,.2c-.19,0,0-.31-.3-.06.11,0,0,.23-.07.35l-.18,0,.11-.09c-.12-.23-.21.15-.37,0l.11-.28c.19-.13.17.29.38,0-.09-.09-.25,0-.28-.14,0,0,.08,0,.12,0s.29-.44,0-.35c-.15,0-.12.07-.23.16-.17-.13-.33-.1-.44-.21.24-.14-.12-.24.2-.26-.1.15.13.41.37.29.2-.27.08.15.35-.06-.1-.11.14-.32.29-.48,0,0-.1,0-.14,0s-.13.15-.29.29c-.07-.16-.24-.22-.46-.21,0-.1.23-.19.28-.14a.8.8,0,0,1-.24-.56c-.27.24-.14-.19-.37,0a.43.43,0,0,1-.38.29c0-.08.13,0,.19-.1-.2,0,.23-.23-.07-.25.16.2.4-.06.65-.09-.17-.09.18,0,.15-.15a.75.75,0,0,1-.34-.45c.24-.18.08-.49.14-.68.16,0,.4.13.48.08s-.32-.07-.13-.15l0,0c0-.08.29-.11,0-.4l.22.23s0-.07,0-.11.17.1.2.17c.21.08.08-.14.15-.21a1,1,0,0,0-.17-.1c.05-.24.27-.16.42-.27l.05.17a.83.83,0,0,1,.07-.13c0,.17.1.28.14.13a.85.85,0,0,0-.09.46c-.07-.09,0-.22-.1-.38s-.22,0-.14.13c0,0,0,0,0-.11.12.22.05.24.12.39,0,0,.07.05,0,0,0,.11,0,.15,0,.17s-.11-.11-.15-.17c.13.18.15.25.07.25-.23-.12.06.19,0,.21a1,1,0,0,1-.35-.38c-.13,0,0,.06-.17.07.13.12.34.25.42.35l-.16-.06c.05.1.29.18.22.22a.42.42,0,0,0-.12.3l-.16,0c.35,0,.17.16.35.18-.1.19.25.15.06.37.25.13.47.15.64.32l-.16.19c.13-.13,0,.13,0,.13,0-.2.17-.19.26-.31,0,.21.24.08.35-.08l0,.17c.15-.29.17,0,.29,0s0,.22.06.2a4.46,4.46,0,0,1,.12-.43h0a.78.78,0,0,1,.18.11c0-.21.05-.28.12-.35s.13-.13.09-.28l.17.1c-.12-.2-.11-.23-.07-.3s.09-.14,0-.19h.34c.1-.06-.09-.11-.33-.06.1-.06-.18,0,.09-.13.05-.06-.17,0-.22,0l0,0c.07-.09,0-.11-.05-.11v0a.83.83,0,0,0,.19-.15c-.1,0,0-.14-.29.16.07-.1,0-.09,0-.08s-.08,0,0-.12a1,1,0,0,1-.1.18s0-.23-.11-.06c0-.06,0-.18,0-.2s0,.14,0,.2-.19-.2-.26-.12a.29.29,0,0,0,0,.14l-.51-.34c0,.07.21.14.11.11h0a.29.29,0,0,0-.16,0h0a.43.43,0,0,0,.15-.17h0c0-.06,0-.07,0,0v.07h0a.37.37,0,0,0,0,.1.08.08,0,0,0,0,.06s0,0,0,0a.56.56,0,0,0-.39-.07s-.12,0,0,0l.17,0c.1,0,.13,0,0,0,.07,0-.14,0-.07,0-.1,0,.39-.2.19-.14s-.12.06-.25.13c.13-.1.26-.27.11-.16l.09-.09c-.14.12-.16.18-.12.1l0-.07h0c0,.11,0-.25,0,.25h0a.63.63,0,0,0,0,.12,1.15,1.15,0,0,0,.17.24s.12.08,0,0l-.16,0h-.1l.41,0h0v0h0s0,0,0,0,0,0,.06.1c.09.3.14.28.12.15a.31.31,0,0,0,0,.1c-.12-.23,0,0-.11-.25.06,0,0-.06,0-.09s.21.11.2.09l-.15-.07.07,0a.73.73,0,0,0-.23-.09c-.11,0,0,0,.05,0s.12-.2,0-.2-.16-.07-.26,0c-.23-.4-.87-.6-1.14-.17C112.54,145.1,112.26,144.46,112.45,144.21Z"/><path class="cls-5" d="M113,145c0-.13,0-.21,0-.39A2.51,2.51,0,0,1,113,145Z"/><path class="cls-5" d="M111.22,146.21s0,.06-.06.07-.14,0-.08-.09S111.16,146.21,111.22,146.21Z"/><path class="cls-5" d="M111.43,147c-.11.05-.28-.06-.33-.16A1.44,1.44,0,0,0,111.43,147Z"/><path class="cls-5" d="M111.48,147.89c0,.11-.08.14-.14.07S111.43,147.91,111.48,147.89Z"/><path class="cls-5" d="M111.72,147.74s0,.12,0,.19C111.78,147.85,111.56,147.86,111.72,147.74Z"/><path class="cls-5" d="M112.93,149s.17,0,.16.09C113.08,148.93,112.84,149.11,112.93,149Z"/><path class="cls-5" d="M113.78,149s0,0,.07,0a.1.1,0,0,1-.06.14Z"/><polygon class="cls-5" points="112.39 146.47 112.27 146.44 112.36 146.37 112.39 146.47"/><path class="cls-5" d="M113.2,143.17c-.09.08-.09-.11-.1-.12S113.09,143.2,113.2,143.17Z"/><polygon class="cls-5" points="111.76 145.55 111.76 145.53 112 145.54 111.76 145.55"/><path class="cls-5" d="M83.23,144.51c.07,0,0-.21.07-.08S83.22,144.58,83.23,144.51Z"/><path class="cls-5" d="M82.59,143.76a.42.42,0,0,1,.46-.42c.22,0,.42,0,.61-.17,0,0,0,.34.09.26.37-.5,1.09,0,1.11.54l-.08.06c0,.09.28-.09.31,0s-.08.05-.13.12c.15-.12.15,0,.29,0,0,.07-.17.16-.22.23l.2-.08c.26-.09.3,0,.3.1s0,.21.1.27a.34.34,0,0,0-.14,0c.38.22.3.69.26,1.08a1,1,0,0,0-.28-.11.3.3,0,0,1,.2.35c-.23-.08.1.27-.1.31l0,0c.14.24-.19,0,0,.27l-.18-.08c.2.28-.22,0-.16.14l0,0c0,.12-.14,0-.16.08l0,0c-.09.17-.27,0-.15.27-.14-.16.1-.16-.12-.39a.34.34,0,0,1-.09.12,1.23,1.23,0,0,1-1.33.13.43.43,0,0,1,0-.25c-.06,0-.18,0-.29.06s0-.13,0-.15-.25.18-.26,0a.42.42,0,0,0,.18-.17c-.18.1-.26,0-.38,0a.29.29,0,0,0,.14-.08c-.25.08-.1-.17-.27-.15l.14-.06c.06-.2-.28.14-.27,0,0,0,.1,0,.16-.06-.32,0-.34-.2-.47-.29h.06c-.08-.13,0-.28-.16-.43.07-.06.36,0,.31-.14-.31,0-.1-.25-.45-.2.06-.15.23-.32.17-.44.09.1.36.08.36.18h.19c.11.06-.06,0,.09.08s-.06-.19,0-.2c-.12-.15-.37-.42-.29-.59,0,.14.28.18.29.25a3.22,3.22,0,0,1-.27-.56s.18.17.19.05a.36.36,0,0,1-.08-.19s.18-.23.36,0c.08.09,0,.1.06.16s0-.15.14-.19l0,0c.07,0,.15-.19,0-.32s.07.16,0,.11a.28.28,0,0,1,.27-.3c0,.05,0,.13,0,.21a.77.77,0,0,1,.59-.41c0-.14-.13.24-.15.17.13.11.29.06.45.07s.31,0,.33.21c0,0,.1-.17.08-.14s0,.26.09.26c-.08.09.1,0,.19.08s0,.06-.09,0c.17,0,.64.34.55.69.08,0,.34.1.34.18h-.18c-.09.08,0,.23-.11.26.12.06.06-.08,0-.19s-.17-.21-.06-.15c-.14.08.35.2.09.21,0,.12.25.26.07.4,0,0-.26-.11-.25,0s.09.06.13.23l.05.12c.18,0-.08.19.14.17-.14,0-.06.38-.32.21l-.2-.14c0,.08.15.26.18.39a.15.15,0,0,1-.11,0c.26.25-.18.18-.11.46-.25.06-.53.28-.69.08-.11.15-.26.31-.44.23,0,0,.08,0,.08-.13s-.12,0-.23.05-.19-.23-.24-.38c-.15.08-.17.27-.22.38,0-.19-.12-.16-.24-.15s-.28,0-.26-.19c.07,0,.27,0,.22-.18.12-.35-.36.08-.41-.22-.06.07-.12.16-.18.24.06-.19-.38-.21-.11-.36-.14,0,0-.3-.29-.16a3.88,3.88,0,0,0-.06-.7c0-.22.08-.43.35-.46,0-.05,0-.15-.09-.18s.07.15,0,.14-.07-.08-.11-.09.15-.16.34,0c.25-.11-.36-.44,0-.69.08.09.13.1.18,0a2.81,2.81,0,0,1,0-.29c.22-.12.27.14.4.29,0-.05.09-.09.12-.15l-.11.07a.2.2,0,0,0,0-.13l.24.14c-.17-.11,0-.14,0-.21v.07c.06.06.11,0,.14-.08a.26.26,0,0,0-.26-.09c0-.1.07-.12.07-.25.08.19.2,0,.28,0s0-.2,0-.2.14,0,.13.13-.1-.07-.11,0,.14.22.19.06-.14-.37.06-.3a.73.73,0,0,0,0,.22l.17.06,0-.18s0,.06,0,.08c0-.2.2-.1.2-.31.08,0,.18.1.25.12h0c.09.11.19,0,.27-.09v0a.22.22,0,0,0,.23-.1c.11.15,0,.68.1.47.1,0,.24-.29.22-.42.18.16.55,0,.63.32.06,0,.06-.1.14-.11.27.2.78.24.72.69-.12,0-.14.12-.22.19.17-.06-.07.17.16,0s.19-.16.17-.27c.22.08.41.36.33.53,0-.08.1-.07.17,0-.23.11-.21.25-.08.31h0l.15-.05-.13.14c.07,0,.33-.08.23.08l-.15.09c.16.06.42.19.31.35l-.22.15s.18.12.24,0c-.12.24-.15.38-.35.44a1,1,0,0,1,.06,1.44l-.1-.07c-.16,0,.15.16,0,.19s-.26-.05-.33-.2c-.19.07.06.28,0,.41s0-.13.12,0-.23.11-.07.28c-.1,0-.21-.16-.28-.24l0,.15c-.28-.1-.21-.52-.56-.64v.08c-.23-.12-.11-.31-.28-.25,0,.12.25.41.38.43-.07.17.36.45.18.59-.14-.06.11-.14-.06-.25s-.07.21-.19.22c.14,0,.23.24.19.32s-.07-.22-.22-.14c.06.13,0,.31.16.3.12.3-.2,0-.17.29-.15-.16-.11-.52-.32-.52.14.16-.06.36.18.59-.11,0-.18-.16-.2-.3s-.08.46-.28.09l0,.21a1.34,1.34,0,0,1-.22-.18c-.08,0-.22.37-.28.05,0,0-.24.06-.12.27s.12-.19.27.09c-.15-.22-.2.07-.27.17l0-.12c0,.06-.16,0-.18.18a.16.16,0,0,0,0-.19l0,.2c-.21.1-.07-.33-.25-.28l.13-.15s-.09-.14-.17-.08-.11.38-.15.51,0-.2-.16,0l.16-.2c0-.06-.07-.29-.2-.3s-.26.28-.14.39a.15.15,0,0,1-.07-.24c-.16,0,0,.19-.17.26a5.28,5.28,0,0,1-.2-.52l.2-.24-.07,0c.16-.19,0-.18.13-.4,0,0-.11,0-.18.05,0,.43-.35.45-.45.8-.27,0,.24-.85-.22-.46,0,.11-.25.29-.06.27-.11-.11-.27.27-.36,0,.19-.06.07-.38.34-.47-.07.1,0,.13.08.11s.19-.31.08-.37-.18-.07-.27.09.12.06,0,.2c-.19,0,0-.31-.31-.06.11,0,0,.23-.07.35L82,148l.1-.09c-.12-.22-.21.15-.37,0l.11-.27c.19-.14.17.29.39,0-.09-.1-.26,0-.29-.15,0,0,.08,0,.12,0s.29-.43,0-.35c-.15,0-.12.07-.22.17-.18-.14-.34-.1-.45-.22.25-.13-.12-.24.2-.26-.1.16.13.42.37.29s.08.15.35-.05c-.1-.12.14-.33.29-.49,0,0-.1,0-.14,0s-.13.16-.29.29c-.06-.16-.24-.22-.46-.21,0-.1.23-.18.28-.14a.76.76,0,0,1-.24-.55c-.26.23-.14-.19-.37,0a.46.46,0,0,1-.38.3c0-.09.14,0,.19-.1-.2,0,.23-.23-.07-.25.16.19.4-.07.66-.09-.18-.09.17,0,.14-.16a.75.75,0,0,1-.34-.45c.24-.18.08-.49.15-.68.15,0,.4.14.47.08s-.31-.07-.12-.14l0,0c0-.09.3-.12,0-.41l.22.23s0-.07,0-.11.17.1.19.17c.21.08.08-.14.15-.21l-.17-.1c.05-.23.27-.16.42-.27l.05.17.07-.13c0,.18.1.28.14.13a.76.76,0,0,0-.08.46c-.08-.09,0-.21-.11-.38s-.22,0-.14.14c0,0,0,0,0-.12.12.22.06.24.13.4,0,0,.06,0,0,0,0,.12,0,.15,0,.18s-.11-.12-.15-.18c.14.18.16.25.07.25s.06.2,0,.21a.87.87,0,0,1-.34-.38c-.14,0,0,.07-.18.08a3.23,3.23,0,0,1,.42.35l-.16-.06c.05.09.29.17.23.22a.41.41,0,0,0-.13.29l-.16,0c.35,0,.17.16.35.18-.1.19.26.16.06.37.25.13.47.15.64.32l-.16.19c.13-.13,0,.13,0,.13,0-.2.18-.18.27-.31,0,.22.23.08.34-.07l0,.16c.15-.28.17,0,.29.05s0,.23.07.2a2.88,2.88,0,0,1,.11-.43.48.48,0,0,1,.22.11.5.5,0,0,1,.12-.34.27.27,0,0,0,.09-.28l.17.1c-.12-.21-.11-.24-.07-.31s.09-.13,0-.18h.34c.11-.06-.09-.11-.33-.06.1-.06-.18,0,.09-.13.05-.06-.17,0-.21,0v0c.07-.09,0-.11-.05-.12v0a.83.83,0,0,0,.19-.16c-.09,0,0-.13-.29.16.07-.1,0-.09,0-.07s-.08,0,0-.13a.72.72,0,0,1-.1.18s0-.23-.11-.06c0-.05,0-.18,0-.19s0,.14,0,.2-.19-.21-.26-.13a.56.56,0,0,0,0,.14l-.5-.33c0,.06.2.14.1.1h0l-.17,0h0a.51.51,0,0,0,.14-.17h0c0-.06,0-.07,0,0v0a.22.22,0,0,0,0,.08h0s0,.12,0,.11l0,.06s0,0,0,0a.77.77,0,0,0-.4-.07s-.12,0,0,0l.18-.05c.09,0,.12,0,0,0,.07,0-.14,0-.07,0-.1,0,.39-.21.19-.14l-.25.12c.13-.09.26-.26.12-.16l.08-.09c-.14.12-.16.18-.12.11l0-.07h0c0,.12,0-.25,0,.26h0a.36.36,0,0,0,0,.11.77.77,0,0,0,.17.25s.11.07,0,0l-.16,0h-.1l.42-.05h0v0h0s0,0,0,0,0,0,.06.11.12.27.12.21,0,0,0-.07a.31.31,0,0,0,0,.1c-.12-.23,0,0-.11-.25.06,0,0-.06,0-.08s.21.11.2.09l-.14-.08.06,0a1.1,1.1,0,0,0-.23-.09c-.11,0,0,0,.06,0s.11-.21,0-.21-.16-.06-.25,0c-.23-.4-.87-.59-1.15-.16C82.68,144.66,82.4,144,82.59,143.76Z"/><path class="cls-5" d="M83.19,144.52c0-.13,0-.21,0-.38A2.41,2.41,0,0,1,83.19,144.52Z"/><path class="cls-5" d="M81.36,145.76s0,.06-.06.07-.14,0-.08-.09S81.3,145.76,81.36,145.76Z"/><path class="cls-5" d="M81.57,146.53a.34.34,0,0,1-.33-.16A3.36,3.36,0,0,0,81.57,146.53Z"/><path class="cls-5" d="M81.63,147.44c0,.12-.08.14-.15.07S81.57,147.47,81.63,147.44Z"/><path class="cls-5" d="M81.86,147.3s0,.11,0,.18S81.7,147.42,81.86,147.3Z"/><path class="cls-5" d="M83.08,148.51s.16-.06.16.08C83.22,148.49,83,148.66,83.08,148.51Z"/><path class="cls-5" d="M83.92,148.53s0,0,.07,0a.11.11,0,0,1-.06.15Z"/><polygon class="cls-5" points="82.53 146.03 82.41 145.99 82.5 145.92 82.53 146.03"/><path class="cls-5" d="M83.34,142.72c-.08.09-.08-.1-.1-.12S83.23,142.75,83.34,142.72Z"/><polygon class="cls-5" points="81.9 145.1 81.9 145.09 82.14 145.09 81.9 145.1"/><path class="cls-5" d="M99.45,148.61c0-.09-.22,0-.08-.07S99.53,148.6,99.45,148.61Z"/><path class="cls-5" d="M103.73,160.91c-.23.63-.56,0-.83.4,0,0,0-.34-.06-.26-.26.49-.68.2-1-.18l0-.1c-.06-.07-.14.25-.2.21a1,1,0,0,0,0-.18c0,.19-.12.08-.15.23,0-.08,0-.23,0-.32l0,.22c-.11.53-.24,0-.39.23a.33.33,0,0,0,0-.14c-.23.32-.5.25-.76.36a1.06,1.06,0,0,0,0-.31c0,.24-.09.29-.16.34,0-.24-.12.21-.2.08v-.06c-.06.25-.08-.14-.14.16l0-.19c0,.33-.08-.18-.13,0v.07c0,.08-.07-.09-.11,0v0c-.11.08-.16-.11-.16.15,0-.21.1-.09,0-.39a1.37,1.37,0,0,1-1,.18.77.77,0,0,1-.06-.24s-.12,0-.16.17a.31.31,0,0,0,0-.15c0-.1-.08.29-.14.17a.66.66,0,0,0,0-.25c-.07.2-.14.16-.21.22a.43.43,0,0,0,0-.15c-.08.23-.12,0-.2.09l0-.15c-.09-.19-.05.31-.13.2a.47.47,0,0,0,0-.17c-.09.27-.23.17-.34.25l0-.06c-.11,0-.19-.06-.33,0,0-.07.13-.35,0-.31-.11.29-.22.1-.3.43-.08,0-.16-.18-.28-.1.1-.1.16-.34.25-.35l.06-.18c.08-.12,0,0,.09-.11,0,0-.19.11-.18.06-.18.17-.46.44-.59.42.13-.08.19-.26.27-.31l-.15.11a4.4,4.4,0,0,1-.39.26s.16-.18.06-.15a.82.82,0,0,1-.17.11s-.18-.08,0-.28.09,0,.14-.1-.12,0-.16,0l0,0c0-.06-.16,0-.28.09s.14-.11.09,0-.23,0-.26-.06a.55.55,0,0,0,.19-.08.53.53,0,0,1-.45-.12c-.13.06.25-.07.18,0,.16-.23-.32-.21,0-.45,0,0-.2.07-.16.06s.22-.14.15-.17c.12,0,0-.05-.07-.1s.06,0,.07,0a.37.37,0,0,1-.09-.53c-.08,0-.28-.11-.27-.16l.19,0c.11,0,0-.14.16-.13-.22-.1.15.33,0,.21.16,0-.28-.17,0-.13,0-.08-.2-.19,0-.24,0,0,.25.09.24,0s-.08,0-.13-.11l-.07-.06c-.18,0,0-.07-.17-.07.15,0-.07-.15.22-.08l.23.05s-.23-.11-.33-.15h.11c-.36-.07,0-.08-.22-.17.14-.05,0-.2.28-.19-.1-.08-.21-.16-.12-.21a.21.21,0,0,0,.11.06c.11,0,0-.05,0-.1a1.5,1.5,0,0,0,.36,0,1.06,1.06,0,0,0-.4-.14c.36,0-.18-.21.15-.2,0,0,.15.12.25.1.36,0-.23-.17,0-.21l-.29,0c.19,0-.14-.17.16-.09-.1-.05.12-.07-.17-.14.28-.07,0-.37.48-.31,0,0,0-.07-.13-.1s.1.08,0,.06-.08,0-.12-.06.11,0,.33.06-.45-.23-.31-.32.16,0,.16,0l-.18-.12c.07-.06.27,0,.47.09,0-.05,0-.1-.14-.16l.26,0c-.19,0-.11-.07-.15-.11l0,0c.09,0,0-.05,0-.08a.28.28,0,0,0-.22,0c-.08-.05-.05-.07-.15-.13.19.07.16,0,.19-.05s-.16-.1-.15-.11,0,0,.17,0-.11,0,0,.05.25,0,.14,0-.38-.1-.23-.14a1,1,0,0,0,.18.1l.12,0-.18-.05h.09c-.18-.07,0-.12-.23-.2,0,0,.15,0,.18-.06v0c.12,0,.06-.08,0-.15h0s0-.08-.09-.14c.15,0,.66.2.46.07,0-.06-.29-.19-.4-.21.15-.06-.1-.26.2-.27a.42.42,0,0,1-.15-.08c.12-.12-.1-.37.28-.37.06.06.17.06.27.09-.14-.09.18,0-.09-.09s-.23-.08-.3-.06a.15.15,0,0,1,.15-.24.27.27,0,0,1-.17-.07c.25.09.31,0,.24,0l-.15-.06.17,0c-.05,0-.31-.13-.15-.13l.16,0c-.1-.09-.29-.23-.14-.24l.23,0a.25.25,0,0,0-.21-.09.66.66,0,0,1,.4-.07c-.41-.31-.35-.54-.26-.71l.11,0c.13,0-.19-.09-.1-.1a2.05,2.05,0,0,1,.37.13c.15,0-.16-.16-.2-.22s.08.07-.1,0,.15-.05-.08-.14a1.45,1.45,0,0,1,.35.12l-.1-.08c.28,0,.43.28.78.34l0,0c.25,0,.23.19.35.12a1.24,1.24,0,0,0-.52-.22c0-.11-.53-.23-.48-.32s0,.09.2.14-.07-.13,0-.15a.59.59,0,0,1-.35-.14c.12,0,.2.11.25,0-.13-.06-.2-.16-.31-.13-.29-.13.1-.05-.11-.16.21.05.45.23.58.19-.2-.05-.24-.18-.55-.24a.75.75,0,0,1,.34.1c.14,0-.33-.22.08-.1l-.2-.09.24,0s-.24-.22.07-.11c0,0,0-.1-.21-.14s.14.11-.16,0c.25,0,0-.08-.07-.14l.12,0s0-.07-.13-.12a.55.55,0,0,0,.18,0l-.17-.08c-.07-.1.32.09.29,0l.12.1s.16,0,.11,0l-.48-.21c-.06-.07.2,0,0-.06l.18.12c.05,0,.29.06.3,0a.66.66,0,0,0-.38-.16s.12,0,.24,0c0-.08-.18-.05-.27-.14.12,0,.3,0,.47,0l.26.14,0,0c.2.12.18,0,.4.13,0,0,0-.07-.08-.11-.4-.05-.49-.25-.84-.34-.06-.13.86.2.35-.07-.09,0-.34-.15-.26-.05s-.33-.15-.17-.18.37,0,.55.2c-.11-.05-.1,0-.07,0s.35.12.37.06,0-.11-.2-.16,0,.07-.19,0c0-.1.26,0-.08-.16,0,.06-.19,0-.33,0l-.06-.08.13.05c.12-.06-.23-.1-.17-.17l.27,0c.22.09-.14.09.23.19,0-.05-.15-.13,0-.15l.06.06s.5.11.25-.06-.13-.05-.27-.09-.14-.17-.15-.24c.27.09.06-.09.31.05-.16,0-.18.12.06.23s-.07.06.25.18c0-.07.34,0,.54.07,0,0-.06-.06-.08-.08-.19-.07-.2,0-.4-.1.08-.07,0-.18-.18-.28.11,0,.3.07.3.11A.29.29,0,0,1,98,150c-.33,0-.05-.13-.32-.16a.75.75,0,0,1-.45-.06s.13,0,.21,0c-.16-.09.29,0,0-.1.07.11.38.12.62.21-.12-.11.17,0,.19,0a1.11,1.11,0,0,1-.24-.3c.26,0,.07-.23.08-.31s.41.09.47.05-.32,0-.17-.08l.06,0c-.06,0,.23-.1-.17-.22l.3.1s0,0-.06-.06a.83.83,0,0,1,.25.06c.22,0,0-.11,0-.17h-.19c-.12-.13.08-.15,0-.26l.18,0-.1-.07c.17.05.3,0,.16,0l.4.24c-.11,0-.2-.09-.38-.1s-.13.08,0,.13c0,0,0,0-.07-.08a1.14,1.14,0,0,1,.38.16s.08,0,0-.05c.11.06.12.1.12.16s-.16,0-.23-.05c.22.06.27.13.2.18-.26,0,.12.17,0,.24a2.42,2.42,0,0,1-.45-.24c-.12,0,0,0-.13.07a2,2,0,0,1,.49.24l-.17,0c.07.08.31.15.24.21a1.18,1.18,0,0,0-.19.34L99,150c.32.15.07.22.2.33-.19.08.07.32-.22.31a.91.91,0,0,1,0,.69l-.22-.11c.15.1-.14,0-.12,0,.2,0,.22.13.35.2-.21.05-.06.24.07.38l-.16-.05c.27.19,0,.21-.11.31s-.22,0-.22,0c.24.14.21.17.34.31a.34.34,0,0,1-.24.18c.27.37,0,.54.09.87l-.19,0c.31.38-.16.56,0,.83l-.31-.12c-.12,0,0,.17.26.23-.12,0,.1.22-.18.17-.08.05.12.13.14.2-.16.09-.15.15-.13.3l0,0c-.07,0-.2-.08-.23-.06s-.15.15.25.23c-.27.06.07.37-.27.4.11,0,.12.06.18.1s-.28.17-.14.32c0,0-.16-.09-.19-.05s.14.05.18.1c.13.25-.32.32-.32.5.1.37-.09.65-.13.95l-.08,0c.27.18-.37.15.06.34-.08,0-.06.08-.2,0,.19.13-.25.17,0,.34,0,0,0,0,0,0-.2.07,0,.23-.17.31a.31.31,0,0,0-.12-.07c-.16,0,.3.18-.08.12,0,0,.19.06.18,0a.45.45,0,0,0-.08.39,1.72,1.72,0,0,0,.07.21l0,.1,0,0c-.24,0-.65,0-.37,0-.08,0,.15,0,.07,0,.11,0-.44.07-.24.08s.13,0,.28,0c-.16.06-.38.14-.2.14l-.13,0c.36,0,.16.08.59-.06,0,0,.14.06.23,0a.38.38,0,0,0,.16-.15,0,0,0,0,0,0,0h.58a2.73,2.73,0,0,1,.92.15c.13.33.14.32.31.2a.21.21,0,0,0,0,.11c0-.27.12,0,.14-.28a3.18,3.18,0,0,0,.69,0s-.06.24,0,.23l0-.17v.07a.34.34,0,0,0,0-.25c.6-.22,1.19.33,1.78.26.14.12.34,0,.49,0,.45.36.87.64,1.31.38C104,160.05,103.92,160.74,103.73,160.91Z"/><path class="cls-5" d="M99.45,148.71a.77.77,0,0,1-.38-.06C99.19,148.68,99.34,148.68,99.45,148.71Z"/><path class="cls-5" d="M97.77,149.75h-.08s-.11-.06,0-.06S97.72,149.73,97.77,149.75Z"/><path class="cls-5" d="M97.6,150.07a.27.27,0,0,1-.19-.19Z"/><path class="cls-5" d="M97,150.24c-.1,0-.15,0-.14-.06A.59.59,0,0,1,97,150.24Z"/><path class="cls-5" d="M97.29,150.34s-.08,0-.15,0C97.24,150.38,97.1,150.27,97.29,150.34Z"/><path class="cls-5" d="M96.74,150.92s.09.09,0,.06C96.79,151,96.58,150.85,96.74,150.92Z"/><path class="cls-5" d="M96.81,151.3s0,0,0,0a.2.2,0,0,1-.14-.06Z"/><polygon class="cls-5" points="95.33 157.45 95.28 157.4 95.39 157.43 95.33 157.45"/><path class="cls-5" d="M95.06,160.82c.09,0-.08.09-.09.11S95.1,160.87,95.06,160.82Z"/><polygon class="cls-5" points="96.91 161.32 96.9 161.32 96.99 161.09 96.91 161.32"/><path class="cls-5" d="M89.08,166.26c-.1,0-.1.19-.11,0S89.11,166.19,89.08,166.26Z"/><path class="cls-5" d="M110.74,167.73c.19.66-.53.44-.52,1,0,.05-.21-.27-.23-.15.07.58-.5.71-1,.61l0-.09c-.1,0,0,.3-.08.3a.37.37,0,0,0-.1-.14c.1.16-.06.15,0,.28-.07,0-.16-.17-.24-.21l.09.2c.2.5-.26.15-.25.47a.33.33,0,0,0-.07-.13c-.05.42-.35.59-.56.83a1.07,1.07,0,0,0-.16-.27c.11.21.06.3,0,.38-.16-.18,0,.26-.17.2l0-.06c.06.26-.16-.07-.07.22l-.13-.14c.13.31-.18-.1-.15.08l0,.06c0,.1-.12,0-.14,0l0,0c-.06.14-.21,0-.09.24-.13-.16.06-.14-.14-.38a1.59,1.59,0,0,1-1,.72.75.75,0,0,1-.17-.19c0,.07-.12.1-.1.24s-.08-.11-.1-.12,0,.3-.09.22a.4.4,0,0,0-.06-.25c0,.22-.09.23-.14.32a.33.33,0,0,0,0-.16c0,.26-.17,0-.19.19l0-.16c-.18-.12.07.32-.07.25s0-.1,0-.16c0,.29-.2.24-.27.36a.35.35,0,0,0,0-.06c-.1.06-.24,0-.32.16-.06-.06-.09-.36-.18-.28.08.29-.16.17,0,.49-.11,0-.29-.09-.33,0,0-.12-.13-.35-.06-.39l-.1-.17c0-.12.07,0,0-.12,0,0-.12.17-.17.13,0,.2,0,.57-.15.63,0-.13-.09-.33-.06-.39l-.07.6s0-.24-.1-.15a.44.44,0,0,1,0,.2s-.16.1-.23-.2c0-.11.06-.07,0-.17s-.06.12-.14.13v0s-.13.15,0,.31c0,0,0-.18,0-.1s-.1.24-.18.25a.73.73,0,0,0,0-.22,1,1,0,0,1-.3.45c0,.15,0-.26,0-.19-.17-.18-.3.33-.45.05,0,0,0,.2,0,.16s-.08-.23-.12-.15c0-.12-.06,0-.11.08s0-.06,0-.08-.35.29-.51.12c0,.08-.1.29-.14.28l0-.19c0-.11-.13,0-.13-.14-.08.23.3-.19.2,0,0-.15-.16.3-.13.05-.07,0-.15.21-.22,0,0,0,.07-.26,0-.25s0,.09-.12.15l-.06.08c0,.18-.09,0-.06.18,0-.15-.16.09-.13-.21l0-.24s-.09.25-.13.35,0-.07,0-.11c0,.36-.1,0-.18.23-.09-.14-.25,0-.27-.27-.08.1-.16.22-.24.13s.05,0,.06-.11-.06,0-.12,0-.08-.23-.12-.36a1,1,0,0,0-.11.41c0-.36-.25.2-.28-.13,0,0,.14-.16.09-.26,0-.36-.18.25-.25.07l0,.29c0-.18-.19.14-.12-.16-.06.1-.11-.12-.15.16-.12-.28-.46,0-.45-.49,0,0-.08,0-.1.13s.08-.1.07,0,0,.08-.06.12-.08-.11,0-.33c-.07-.21-.24.45-.37.3,0-.12,0-.16,0-.16l-.14.18c-.08-.07,0-.28.08-.47-.06,0-.12,0-.19.13v-.26c0,.19-.08.1-.11.14l0,0c0-.08,0-.05-.09,0a.31.31,0,0,0,0,.24c0,.08-.08,0-.15.13.07-.18,0-.16-.07-.2s-.11.15-.12.14-.07,0,0-.17,0,.11.06,0,.06-.26,0-.16-.11.38-.16.23a1.26,1.26,0,0,0,.11-.17l-.05-.13-.06.17a.2.2,0,0,1,0-.09c-.09.18-.15,0-.24.21,0,0,0-.15-.08-.19h0c0-.12-.1-.07-.19,0l0,0s-.1,0-.17.07c0-.16.23-.65.07-.47-.07,0-.24.27-.25.39-.08-.15-.34.06-.33-.26-.05.06-.06.11-.11.13-.15-.14-.47,0-.46-.37.09,0,.08-.16.13-.25-.11.12,0-.18-.11.07s-.11.22-.09.3a.22.22,0,0,1-.29-.21.21.21,0,0,1-.1.15c.13-.23.07-.31,0-.25l-.09.14,0-.17s-.18.29-.17.13a1,1,0,0,0,.07-.16c-.12.08-.31.23-.31.07l.06-.23a.19.19,0,0,0-.13.19c0-.19-.11-.24,0-.44a.65.65,0,0,1-.91,0l.07-.1c0-.13-.14.17-.14.07s.09-.24.21-.33-.22.12-.3.13.1-.06,0,.1,0-.17-.18,0a1.21,1.21,0,0,1,.2-.3l-.11.06c.09-.27.4-.33.52-.66H93c.1-.24.27-.16.2-.3a1,1,0,0,0-.34.45c-.14,0-.35.44-.45.36s.1,0,.19-.15-.16,0-.17-.07a.48.48,0,0,1-.23.3c0-.13.16-.17.1-.24-.09.11-.22.15-.21.27-.2.24,0-.13-.21,0,.1-.19.36-.36.33-.51-.1.18-.26.17-.39.46a.56.56,0,0,1,.19-.31c0-.14-.34.24-.12-.11l-.13.16c0-.06,0-.12.07-.23s-.3.14-.11-.12c0,0-.12-.06-.22.15s.17-.09,0,.19c.1-.24-.11,0-.19,0l.07-.11s-.09,0-.18.08a.29.29,0,0,0,.1-.16l-.13.14c-.14,0,.18-.29.06-.3l.15-.08s0-.15,0-.13l-.35.38c-.09,0,.09-.17-.06-.06l.18-.13s.13-.26.07-.3-.28.18-.27.3,0-.13.08-.22c-.1,0-.1.16-.22.2,0-.11.07-.3.13-.47l.23-.19,0,0c.19-.15.08-.16.26-.34,0,0-.09,0-.15,0-.16.37-.41.36-.61.67-.17,0,.47-.75,0-.39,0,.09-.26.27-.13.24,0-.08-.26.25-.25.07s.16-.34.37-.44c-.08.09,0,.11,0,.09s.22-.29.16-.34-.13,0-.23.12.07,0-.08.17,0-.26-.21,0c.07,0,0,.2-.14.31l-.11,0,.1-.1c0-.15-.19.17-.26.07l.12-.25c.17-.16.08.19.29-.12,0-.06-.19.08-.19-.05l.09,0s.28-.44,0-.28c-.11,0-.09.09-.18.2s-.25.05-.32,0c.19-.2-.1-.11.15-.27-.07.15.08.25.28.07s0,.1.28-.14c-.08-.07.13-.32.25-.5s-.09,0-.12,0a3.88,3.88,0,0,0-.23.33c0-.11-.21-.09-.38,0,0-.1.17-.24.22-.23a.47.47,0,0,1-.29-.28c-.14.31-.15,0-.28.22a.62.62,0,0,1-.23.4s.1-.11.13-.17c-.16.1.12-.27-.1-.09.16,0,.27-.29.45-.47-.16.05.12-.14.05-.2a.82.82,0,0,1-.42.06c.07-.26-.22-.2-.31-.27s.26-.32.25-.4-.17.27-.16.1l0,0c-.07,0,0-.27-.31,0l.23-.21s-.06,0-.09,0,.11-.16.18-.19c.09-.21-.13-.07-.18-.11l-.09.17c-.19,0-.13-.16-.26-.19l.13-.13-.13,0c.13-.12.16-.24,0-.16l.43-.21c0,.11-.19.13-.29.28s0,.17.16,0,0,0-.11,0c.16-.2.2-.15.33-.26s0-.08,0,0c.12-.06.16,0,.22,0-.1,0-.09.13-.15.17.15-.16.25-.17.27-.06s.23,0,.25.1a1.4,1.4,0,0,1-.44.27c0,.13.06,0,0,.17A1.35,1.35,0,0,1,90,167l-.11.13c.11,0,.27-.2.31-.11a1.43,1.43,0,0,0,.28.37l-.1.13c.28-.23.25,0,.43,0,0,.22.35.09.24.36a1.41,1.41,0,0,1,.74.34l-.19.17c.15-.11,0,.13,0,.13.07-.19.2-.16.32-.26,0,.23.24.16.43.09l-.1.14c.28-.19.22.11.3.24s-.09.21,0,.22a1,1,0,0,1,.43-.22.47.47,0,0,1,.14.3c.47-.14.59.23,1,.21l-.09.18c.48-.21.6.29.93.23l-.18.28c0,.13.2,0,.29-.2,0,.13.25,0,.17.22,0,.1.16-.09.24-.1.08.18.15.18.32.19l0,0c0,.05-.11.18-.08.22s.15.17.27-.22c.05.28.41,0,.43.34,0-.1.07-.11.12-.17s.18.31.35.18c0,.06-.1.16,0,.19s0-.13.11-.18c.28-.11.36.36.57.38a3.1,3.1,0,0,1,1.08.15l0,.08c.18-.27.2.37.38-.05,0,.08.09.06.05.2.12-.18.22.24.39,0,0,0,0,0,0,0,.11.19.26,0,.38.14a.22.22,0,0,0-.06.13c0,.16.17-.32.15.07,0,0,0-.19,0-.18a.64.64,0,0,0,.47.06,4.84,4.84,0,0,1,.49-.18c.22.23,0,.64.19.36,0,.07,0-.15,0-.07.07-.11.12.43.17.23s0-.14,0-.28c.14.16.18.37.29.19v.12c.11-.34.28-.18.35-.6a9.74,9.74,0,0,0,1-.31c.32-.14.62-.31.94-.42a3,3,0,0,0,1-.32,3.56,3.56,0,0,1,1-.3c.29.21.3.19.4,0,0,.05,0,.06,0,.1-.12-.24.1-.09,0-.32a3.83,3.83,0,0,0,.67-.4c0,.05.07.25.11.21l0-.18,0,.06a.27.27,0,0,0-.1-.23c.45-.55,1.29-.52,1.82-1,.19,0,.31-.25.41-.41.62-.07,1.19-.18,1.44-.71C110.39,166.91,110.81,167.46,110.74,167.73Z"/><path class="cls-5" d="M89.18,166.32c-.07.11-.07.21-.23.31C89,166.53,89.1,166.4,89.18,166.32Z"/><path class="cls-5" d="M89.6,168.51s0,.06,0,.08-.11.07-.08,0S89.55,168.55,89.6,168.51Z"/><path class="cls-5" d="M89.9,168.87a.25.25,0,0,1-.27.07Z"/><path class="cls-5" d="M89.92,169.52c0,.11-.07.14-.11.11Z"/><path class="cls-5" d="M90.12,169.33s0,.09,0,.15S90,169.48,90.12,169.33Z"/><path class="cls-5" d="M90.66,170.18s.12,0,.06.07C90.75,170.17,90.54,170.31,90.66,170.18Z"/><path class="cls-5" d="M91.12,170.3s0,0,0,0a.15.15,0,0,1-.11.11Z"/><polygon class="cls-5" points="98.65 173.25 98.59 173.3 98.62 173.18 98.65 173.25"/><path class="cls-5" d="M102.25,173.34c0-.08,0,.11.06.12S102.31,173.32,102.25,173.34Z"/><polygon class="cls-5" points="104 172.39 103.98 172.4 103.92 172.16 104 172.39"/></svg>