<svg id="Layer_9" data-name="Layer 9" xmlns="http://www.w3.org/2000/svg" xmlns:xlink="http://www.w3.org/1999/xlink" viewBox="0 0 245.56 291.06"><defs><style>.cls-1{fill:none;}.cls-2{fill:#d1d1d1;}.cls-3{clip-path:url(#clip-path);}.cls-4{fill:#ea7259;}.cls-5{fill:#202020;}.cls-6{fill:#252525;}</style><clipPath id="clip-path" transform="translate(-4.54 -5.22)"><circle class="cls-1" cx="127.32" cy="128" r="122.78"/></clipPath></defs><circle class="cls-2" cx="122.78" cy="122.78" r="122.78"/><g class="cls-3"><path class="cls-4" d="M147.85,293.54c22.94-9.44,46.44-21.18,59.56-41.32,14.12-21.68,13.18-51.22,8.25-75.22-5.26-25.57-22.87-46.88-50-56.6-24.05-8.6-54.08-4.69-75.73,7.52C42.59,154.61,30.6,216.18,54.79,259.27c12.52,22.3,39.16,37.23,67.4,34.22,29.87-3.19,55.42-20.45,69.44-44.06,14.63-24.65,18.86-55.67,5.06-81.36-7.08-13.16-21.2-23.75-37.09-27.31a55.88,55.88,0,0,0-47.91,11.87C99.21,163,93.91,177.46,91.84,192.14c-1.71,12.06-2.61,26.4,1.43,38.14C98.55,245.64,112.1,256.82,130,259a57,57,0,0,0,42.83-12.37c12.3-10.18,17.23-24.85,18.7-39.32,1.27-12.52-.19-26.35-7.53-37.32-11.22-16.78-35.69-21.69-52.58-8.35-5.6,4.42-9.22,10.58-12.23,16.6a99.23,99.23,0,0,0-8.48,22.15c-3.66,16-5.45,35.1,9.67,47s35.76,12,53.19,4.58c29.32-12.46,37.81-43.94,34.11-70.43-3.72-26.7-17.93-53.32-46.79-64.89-15-6-32.12-8.16-48-3.34A84.8,84.8,0,0,0,77,135c-18.31,18.62-34.24,44.3-33,69.8.7,15,6.8,28.52,18,39.65,9.16,9.08,21.44,14.67,34,19,10,3.46,20.52,5.33,31.07,6.7,7.07.92,13.23,1.06,19.66-2.3,5.29-2.77,10.34-8.19,11.72-13.62,2.76-10.8-3.69-26.19-17.82-28a180.14,180.14,0,0,1-23.71-4.45c-1.94-.52-3.85-1.09-5.75-1.71-6-2,3,1.52-1-.34-1.73-.81-3.49-1.56-5.18-2.45-1-.54-6.69-4-3.52-1.93s-1.63-1.47-2.27-2.06-1.06-1.11-1.64-1.61c-1.88-1.6,1.43,1.6,1.47,1.77-.26-1.11-2.24-3.41-3-4.43-1.72-2.32,1.08,3.71.32.71-.28-1.11-.78-2.2-1.08-3.32,0-.2,1.62-.94-.58-2.53,1.16.24.24,4.56.32.93,0-2,.13-4,.2-6.07.09-2.75-.26,1.7-.26,1.7-.19-.66.69-3,.8-3.49A65.87,65.87,0,0,1,98,190c.34-.86.74-1.7,1.06-2.56,1-2.54-.58,1.09-.6,1.22.21-1.7,2.24-4.2,3.15-5.74a114.62,114.62,0,0,1,7.54-11.14c.58-.76,4.69-5.44,2.38-3s2.26-2.26,2.78-2.77q1.86-1.81,3.86-3.53c.88-.75,1.8-1.45,2.71-2.18,2.68-2.17-.5-.29-.91.56.56-1.17,4-2.33,5.27-3,.38-.19,2.19-.77,2.36-1.1-.77,1.45-4.56,1.38-1.2.51,1.19-.31,7.38-1.21,3.52-1.06s-.46,0,.22,0c1.22,0,2.44,0,3.66,0,4.88,0-.94.23-1.35-.25a13,13,0,0,0,2.67.53c1.18.26,2.33.69,3.51.93,2.9.61-1.93-.77-1.83-.77,1.68,0,4.23,2,5.67,2.77l2.31,1.39c-2.43-1.75-2.94-2.08-1.51-1,.47.35.94.72,1.38,1.1s4.71,3.88,4.49,4.19c-.11.15-2.66-3.58-1.05-1.18.51.76,1.13,1.48,1.66,2.23,1.25,1.77,2.17,3.68,3.37,5.46,1.86,2.77-1.32-3.62-.21-.53.41,1.13.92,2.24,1.33,3.37q1.08,3,1.86,6.06c.24.92,1.56,7.2,1,4.06s.3,3.33.35,4.12c.16,2.42.22,4.85.14,7.27,0,1.15.37,4.54-.41,5.45,1.25-1.45.79-3.49,0-.69-.26.87-.45,1.75-.72,2.62s-.57,1.73-.85,2.59c-1.61,4.89.23-.55.29-.44s-1.21,2-1.38,2.3c-2.75,4.22-.34-.16.32.06-.09,0-5.91,5.56-2.67,2.74s-3.64,2.18-3.51,1.69,4.6-1.17,1.93-.85a13,13,0,0,0-2.59.6c.6-.76,6.08.14,1.42-.37,1.32.14,5.16,1,1.78.2-1.88-.44-3.2-1.72,1.48.57a12.46,12.46,0,0,1,3.6,2.89,11.22,11.22,0,0,1,2.29,3.42c1.52,4.17.25,2.78.47.95.11-.88.1-1.8.17-2.68.06-.73.55-4.85.12-1.82-.4,2.81.1-.42.19-.83.37-1.59.71-3.19,1.14-4.77A74.56,74.56,0,0,1,165,197.56c-1.91,4.11.84-1.19,1.62-2.49.06-.09,1.43-2.25,1.42-2.25a9.38,9.38,0,0,1-5.37,3.88c-3.17,2.48-6.82,2.81-10.95,1-6.08-.7-6.89,0-10.46-3.07,2.84,2.4-1-1.3-1.28-1.63,2.33,3.16-1-4.17,0-.36a24,24,0,0,0,.81,2.72c-.13-.06-.48-5.34-.37-2.54.08,2.27.35,4.53.39,6.81,0,2-.1,4-.15,6-.09,3.14-1.18.29.29-1-.34.29-.42,2-.52,2.48s-1.83,5.57-1.77,5.61c-.28-.19,2.31-3.83.73-1.65-.29.4-2.4,3.48-2.36,3.58s3.07-3.45,1.38-1.69a21.78,21.78,0,0,0-1.66,1.45c-.47-1.51,4.73-2.51,1.41-1.07a14,14,0,0,0-2.05,1c-2.44,1.65,4.78-1,1.76-.7a12.66,12.66,0,0,0-2.24.56c-.73.21-3.73.73.36,0,5.07-.87-.88-.42-1.12-.27-.43.26,6,.31,3.14.3-.82,0-4.5-1.13-.36,0,3.22.92,1.49.42.49-.09a11.72,11.72,0,0,1,4.74,4.23c-2.3-3.61.7,3.82-.43-.24,0,.08-1-2.94-.83-3.12-.21.19.34,5,.27,1.19-.08-4.14-.2-8.26-.07-12.42.08-2.28.19-4.56.41-6.84.09-1,.14-2,.32-2.91-.63,3.23-.19,1.57.39-.64.5-1.9,1.24-3.71,1.86-5.57,1.1-3.36-2.34,3.5-.38,1a18.78,18.78,0,0,0,1.29-2c1.46-2.44,4.23-.65,1.79.16,1.68.5,0,.09-1-1.07-.25-.27,1.82-1.29,1.86-1.6-2.75,1.77-2.17-.36-1.78,1.25.8,3.26.95-.56,1.45-.8,1.81-1.44-1.66.74-2.28.67a27.35,27.35,0,0,1,3.25-.86c.16.49-5.43,0-2.41.36,1,.13,4.93-.11,1-.1-3.55,0,.09,2.59.88,3.11.5.34,2.19-1.05-.49-2.83s0,.33.95.73c2.68,1.1,2.78,4,4.74,6,.78.79-6-5.53-5.15-4.81,2.12,1.77,0-1,0-.92.55.21-.18.72,0,.92.29.45,4,8.24,3,5.66s.59-2.39.71-2c.35,1.18.76,2.34,1.07,3.53.23.9.36,1.82.61,2.71.86,3.11-.27-5.34,0,.33.16,3.91-.09,7.75-.16,11.66-.07,3.33.9-4,.15-.74-.2.88-.33,1.77-.53,2.65a64.93,64.93,0,0,1-1.93,6.94c-.67,2-1.52,3.95-2.28,5.93-1,2.5.61-1.18.63-1.32a15.34,15.34,0,0,1-1.75,3.22c-2,3.46-4.27,7.87-7.43,10.61,4.1-3.56-.51.29-1.48,1.2-1.46,1.38-3,2.62-4.59,3.93-3.2,2.75,3.85-2.23-1.34.92a65.28,65.28,0,0,1-6.23,3.36,14.07,14.07,0,0,0-2.43,1.1c.08-.31,5.84-1.85,1.13-.43-1.69.51-3.37,1-5.1,1.44a20.25,20.25,0,0,0-3.44.69c.1-.08,5.28-.36,2.45-.27-2.3.08-4.64,0-6.93.1-2.69.13,2.22.22,2.47.37a21.54,21.54,0,0,0-3.4-.67c-.84-.2-1.68-.52-2.52-.69-3.31-.7,4.1,2,1.3.5-1.38-.77-2.88-1.56-4.31-2.25-2.91-1.4,3.58,3,1.23.89-.78-.69-1.64-1.31-2.42-2s-1.47-1.48-2.26-2.16c-2.09-1.8,1.68,1.72,1.38,1.72-.8,0-2.74-3.64-3.24-4.4-1-1.54-1.87-3.13-2.78-4.71-.31-.55-1.58-3-.08-.11,1.72,3.35-.4-1.23-.54-1.61a70.06,70.06,0,0,1-2.85-9.75c-.22-1-.38-2-.59-3-.55-2.6.45,2.35.34,2.28-.9-.65-.49-5.4-.55-6.62a87.3,87.3,0,0,1,.24-11.66c.07-.83.21-1.66.26-2.49.17-2.59-.24,1.79-.32,1.92,1-1.48.93-4.79,1.37-6.54a91.91,91.91,0,0,1,3.71-11.09c1.52-3.86-2.12,3.82.7-1.33,1.08-2,2.25-3.88,3.52-5.74.39-.57,3.69-4.43,3.54-4.75.07.15-3.12,3.27-1.18,1.39.61-.6,1.18-1.26,1.79-1.86,1.43-1.43,2.94-2.8,4.51-4.1.64-.54,1.31-1,2-1.57,4.09-3.3-3.15,1.74-.43.32,1.72-.89,3.33-2,5.08-2.83.9-.44,6.83-2.86,3.12-1.52s2.6-.76,3.38-1c1.91-.53,3.85-1,5.81-1.34,6.35-1.19-3.79,0,.81-.21,2-.09,4-.23,5.93-.22.81,0,5.76.52,5.89.28-.09.16-5.35-.9-2.63-.29,1.34.3,2.73.47,4.07.78,1.62.38,3.18.85,4.77,1.32,4.11,1.2-4.41-2,.71.44,1.29.63,3.5,2.5,4.95,2.76-.71-.13-4.35-3.49-1.22-.72.84.74,1.73,1.45,2.56,2.21a22.38,22.38,0,0,0,2.35,2.34c-.18,0-2.78-3.61-1.32-1.52,1.07,1.54,2.25,3,3.25,4.6.72,1.16,1.33,3.28,2.35,4.19-2.24-2-1.46-3.46-.58-1.08.36,1,.77,2,1.13,3a86,86,0,0,1,2.86,11c.85,4.16-.5-4.7.13,1.23q.34,3.26.49,6.54c.17,3.53.18,7.07.08,10.6q-.09,3.09-.3,6.18c-.09,1.32-.3,2.65-.32,4-.06,3.38.89-3.45.07-.16-.57,2.25-1.17,4.48-1.76,6.72-.27,1-1.88,2.95-.07.6,2-2.63,0,0-.5.81-.92,1.6-2,3.09-3.06,4.61-.35.51-2.13,2.69,0,.15,2.42-2.91-1,.93-1.3,1.21-1.17,1.14-2.4,2.22-3.66,3.27-.86.72-5.46,4.32-2.76,2.25s-2.12,1.3-3.16,1.92c-2,1.19-4,2.32-6.08,3.41-7.24,3.8-14.83,7-22.45,10.17-12.16,5-16.12,21.53-9.15,31.18,8.08,11.2,21.89,13.53,34.9,8.18Z" transform="translate(-4.54 -5.22)"/></g><path class="cls-5" d="M148.18,148c.08-.05,0-.28.08-.1S148.16,148.11,148.18,148Z" transform="translate(-4.54 -5.22)"/><path class="cls-5" d="M147.3,147a.57.57,0,0,1,.63-.57c.29,0,.56,0,.83-.23.06,0,0,.46.11.35.51-.68,1.49,0,1.52.73l-.11.09c0,.12.39-.13.42,0s-.11.06-.18.16c.21-.16.21,0,.4,0-.06.1-.24.21-.3.32l.28-.12c.35-.12.4,0,.4.14s-.06.29.13.37a.28.28,0,0,0-.18,0c.51.3.4.94.35,1.47a1.23,1.23,0,0,0-.39-.16.41.41,0,0,1,.28.47c-.31-.1.13.38-.14.43l0-.05c.18.32-.27,0,0,.37l-.24-.12c.27.38-.3,0-.22.19l.06.08c0,.15-.2,0-.23.11l0,0c-.13.22-.37,0-.2.36-.19-.22.13-.21-.17-.53a1.58,1.58,0,0,1-1.94.35.7.7,0,0,1,0-.35c-.08,0-.24,0-.39.08,0,0,.06-.18,0-.21s-.34.26-.36,0a.52.52,0,0,0,.26-.23c-.25.15-.36,0-.52,0a.48.48,0,0,0,.19-.11c-.35.11-.13-.23-.37-.2l.19-.08c.09-.28-.39.19-.37,0,.08,0,.14-.05.21-.08-.42.05-.45-.27-.62-.4l.08,0c-.12-.17,0-.38-.22-.58.08-.08.49,0,.42-.18-.43,0-.15-.35-.62-.28.08-.2.32-.43.23-.6.12.13.5.11.49.25h.26c.16.07-.08.06.13.11,0-.05-.08-.27,0-.28-.17-.21-.51-.57-.4-.8.06.19.39.25.4.34a3.15,3.15,0,0,1-.37-.76c.05-.07.24.23.25.07a.54.54,0,0,1-.11-.26s.26-.31.5,0c.11.12-.07.13.08.22.12-.07.05-.21.19-.27l0,.05c.1,0,.22-.26,0-.44-.08,0,.1.22,0,.15a.4.4,0,0,1,.37-.41c-.05.07,0,.18,0,.29a1.06,1.06,0,0,1,.8-.56c0-.19-.17.33-.19.23.18.15.38.09.6.09s.43,0,.46.3c-.06,0,.13-.24.1-.2.15.14,0,.36.12.35-.1.13.14.06.26.12s0,.07-.12,0c.23,0,.87.46.75.94.11,0,.46.13.47.24l-.26,0c-.12.1.08.31-.14.35.17.09.08-.11,0-.27s-.24-.27-.09-.19c-.19.1.48.27.12.28,0,.17.34.36.09.55.05-.06-.34-.15-.33,0s.12.07.17.3l.08.17c.24.07-.12.26.18.23-.18,0-.08.52-.44.29l-.26-.19c0,.11.2.35.24.53a.21.21,0,0,1-.15-.05c.36.34-.25.23-.15.61-.34.08-.72.39-.94.12-.15.2-.35.41-.6.31.05,0,.11-.06.12-.17-.15-.14-.17,0-.32.06,0-.07-.25-.31-.33-.51-.2.09-.23.36-.29.52,0-.26-.16-.23-.34-.22s-.37,0-.35-.26c.11,0,.37-.05.3-.23.16-.48-.49.1-.55-.31a2.85,2.85,0,0,0-.25.33c.09-.26-.51-.29-.14-.49-.2,0-.06-.4-.4-.22a5.8,5.8,0,0,0-.08-1,.53.53,0,0,1,.48-.62c0-.08.07-.21-.13-.25s.1.2-.06.2c0-.07-.09-.11-.14-.14.13-.13.21-.21.46,0,.33-.15-.49-.6-.06-.93.12.12.19.13.26,0a1.7,1.7,0,0,1,0-.39c.3-.16.36.18.54.4.05-.08.13-.13.17-.21l-.15.1a.22.22,0,0,0,0-.19l.33.2c-.23-.15,0-.19,0-.28v.09c.08.08.14,0,.19-.11a.36.36,0,0,0-.36-.12c0-.15.09-.17.1-.34.11.25.27.07.38.06s0-.28.06-.28.18-.05.17.17c0,.06-.13-.09-.15,0s.19.31.26.09-.19-.51.07-.4c0,.08,0,.18,0,.29l.23.08,0-.24c0,.06,0,.08,0,.11,0-.27.28-.14.29-.43.1,0,.24.13.33.16l0,0c.13.14.27,0,.37-.13v.06a.32.32,0,0,0,.31-.15c.14.2-.06.93.14.65.13,0,.32-.4.28-.57.25.22.75,0,.86.43.09-.07.09-.14.2-.15.36.27,1.06.33,1,.94-.16,0-.19.16-.29.25.23-.07-.1.24.22,0,.16-.15.25-.21.23-.37.29.12.55.49.44.73.06-.12.14-.1.23-.08-.31.16-.28.34-.1.42h0l.2-.07-.17.18c.09,0,.45-.1.31.12l-.2.12c.21.09.57.26.41.48l-.29.2c0,.06.24.17.32,0-.16.33-.2.52-.47.61a1.43,1.43,0,0,1,.09,1.95l-.14-.09c-.22.07.2.22,0,.27-.1-.13-.34-.08-.45-.28-.24.08.09.38.06.55.16.14,0-.18.17,0,0,.07-.32.16-.1.39a1,1,0,0,1-.37-.33l0,.2c-.38-.14-.29-.7-.76-.87l0,.11c-.31-.16-.14-.42-.37-.34.07.17.34.56.52.58-.1.24.49.62.24.81-.19-.08.15-.2-.08-.35s-.1.29-.26.31c.18,0,.31.33.26.44-.22,0-.1-.31-.3-.2.08.17,0,.42.21.41.17.41-.27,0-.22.4-.21-.22-.15-.71-.44-.72.19.23-.08.5.24.81-.14,0-.25-.22-.26-.41-.2-.1-.12.63-.39.12l.06.3A3.73,3.73,0,0,1,151,153c-.08,0-.18.25-.28.25s-.08-.05-.11-.19c0,.06-.31.09-.15.37s.17-.19.32,0l0,.08,0,0c-.18-.2-.24.16-.34.28l0-.16c-.06.08-.22.06-.25.24a.2.2,0,0,0-.05-.25l0,.26c-.28.15-.09-.44-.34-.37l.18-.2s-.13-.19-.24-.12a4.94,4.94,0,0,1-.2.7c-.16.1,0-.27-.21,0l.21-.27c0-.08-.1-.39-.26-.41s-.37.37-.2.53a.2.2,0,0,1-.09-.33c-.23,0,0,.26-.24.36a6.12,6.12,0,0,1-.26-.71c.09-.1.18-.22.27-.33l-.1,0c.22-.27,0-.25.17-.56,0-.07-.14,0-.23.08,0,.58-.48.61-.62,1.08-.37,0,.33-1.15-.3-.62,0,.14-.34.39-.09.37-.15-.15-.36.36-.48,0,.26-.08.1-.52.47-.64-.1.13,0,.18.11.15,0-.2.25-.42.1-.51s-.24-.09-.37.13.16.08-.06.27c-.26-.05,0-.42-.41-.08.15.06,0,.32-.1.47l-.24,0,.15-.13c-.16-.3-.29.21-.5,0l.14-.37c.26-.19.24.39.53-.05-.13-.13-.35,0-.39-.19.06,0,.1,0,.17,0s.39-.59-.06-.48c-.21,0-.16.1-.31.23-.24-.19-.46-.14-.6-.3.33-.18-.17-.32.27-.35-.14.21.17.57.51.4.26-.38.1.2.47-.08-.14-.15.19-.44.39-.66,0-.05-.14,0-.19,0-.22.16-.18.21-.39.4a.58.58,0,0,0-.63-.29c.07-.14.32-.25.39-.19a1.06,1.06,0,0,1-.33-.76c-.37.32-.19-.25-.51,0a.57.57,0,0,1-.52.4c0-.11.19-.06.26-.13-.27-.07.32-.31-.09-.34.22.26.54-.09.89-.13-.24-.12.24-.05.2-.21a1,1,0,0,1-.47-.61c.34-.25.12-.67.2-.92.21-.05.54.18.65.11s-.43-.1-.17-.2l.06.05c-.05-.11.4-.16,0-.55a2.91,2.91,0,0,0,.3.31c.05,0,0-.09,0-.15.11.09.23.14.27.24.28.11.1-.19.2-.29l-.23-.14c.07-.32.36-.21.57-.37l.06.24a1.62,1.62,0,0,1,.1-.18c0,.24.14.38.19.18a1.07,1.07,0,0,0-.11.63c-.11-.13-.05-.3-.15-.52s-.3,0-.19.18c.07,0,.05,0,.06-.16.16.31.07.33.17.54,0,0,.08.06,0,0,0,.16,0,.21,0,.24-.05-.13-.15-.15-.2-.23.18.24.21.33.09.34-.31-.17.08.26,0,.28a1.22,1.22,0,0,1-.48-.51c-.18,0-.05.09-.23.1a4.91,4.91,0,0,1,.56.47l-.21-.08c.07.13.39.24.3.3a.54.54,0,0,0-.16.41l-.23,0c.48,0,.23.22.48.24-.14.27.35.22.08.51.34.17.64.2.87.44l-.22.25c.18-.17-.06.18,0,.18.06-.27.24-.25.36-.42,0,.29.32.11.47-.1l-.05.22c.2-.38.23,0,.39.07,0,.09,0,.31.09.28.07-.37.11-.35.16-.59h0a.56.56,0,0,1,.24.14.67.67,0,0,1,.17-.47c.07-.1.18-.19.12-.38l.23.13c-.16-.28-.15-.32-.1-.41s.13-.19,0-.25h.46c.15-.08-.12-.14-.45-.08.14-.07-.23-.05.13-.18.06-.08-.23,0-.3,0l0,0c.09-.13,0-.16-.08-.16v0a.86.86,0,0,0,.26-.2c-.13.05,0-.19-.39.21.09-.13,0-.12-.06-.1s-.1,0-.05-.17c-.06.14-.09.16-.13.25s0-.32-.15-.09c0-.07.06-.24,0-.26s0,.19-.06.27c-.1.26-.25-.28-.35-.17a1.05,1.05,0,0,0,0,.19l-.68-.46c0,.09.27.19.14.15h0a.53.53,0,0,0-.22,0s0,0,0,0a.83.83,0,0,0,.19-.24v0c0-.09,0-.09,0,0v0s0,.09,0,.12,0,0,0,0a.85.85,0,0,0,.05.13.18.18,0,0,0,.06.09h0a1,1,0,0,0-.53-.09c-.05,0-.17,0-.05,0l.24-.06c.13,0,.17-.05,0,0l-.09,0c-.14,0,.52-.28.25-.19s-.16.07-.33.17c.17-.13.35-.36.15-.22l.12-.12c-.19.16-.23.24-.17.14a.25.25,0,0,0,0-.09h0a2.2,2.2,0,1,0,0,.35h0a.64.64,0,0,0,0,.15,1.51,1.51,0,0,0,.23.34s.16.1,0,0a1.6,1.6,0,0,0-.23,0h-.13l.57-.06h0v0s0,0,0,0,0,.05,0,.05,0,0,.08.14c.12.41.19.38.16.2a.91.91,0,0,0,.07.14c-.16-.31,0-.06-.15-.35.08,0,0-.08,0-.11s.3.15.28.12l-.2-.1.09,0a1.43,1.43,0,0,0-.31-.12c-.15-.05-.05,0,.07-.06s.16-.28.05-.29c0-.17-.22-.08-.35,0-.31-.55-1.18-.81-1.56-.22C147.42,148.21,147.05,147.33,147.3,147Z" transform="translate(-4.54 -5.22)"/><path class="cls-5" d="M148.11,148c0-.18-.06-.3,0-.53A2.34,2.34,0,0,1,148.11,148Z" transform="translate(-4.54 -5.22)"/><path class="cls-5" d="M145.63,149.71c.06,0,0,.08-.08.1s-.19-.06-.11-.13S145.55,149.71,145.63,149.71Z" transform="translate(-4.54 -5.22)"/><path class="cls-5" d="M145.92,150.75c-.15.07-.38-.08-.46-.22A3.21,3.21,0,0,0,145.92,150.75Z" transform="translate(-4.54 -5.22)"/><path class="cls-5" d="M146,152c0,.16-.11.2-.2.1C145.85,152,145.91,152,146,152Z" transform="translate(-4.54 -5.22)"/><path class="cls-5" d="M146.31,151.79c.06.06,0,.16,0,.26C146.4,152,146.09,152,146.31,151.79Z" transform="translate(-4.54 -5.22)"/><path class="cls-5" d="M148,153.44c.06,0,.22-.07.22.11C148.16,153.42,147.84,153.65,148,153.44Z" transform="translate(-4.54 -5.22)"/><path class="cls-5" d="M149.11,153.48s0,.05.1,0a.15.15,0,0,1-.09.2Z" transform="translate(-4.54 -5.22)"/><polygon class="cls-5" points="142.68 144.85 142.51 144.8 142.64 144.7 142.68 144.85"/><path class="cls-5" d="M148.32,145.57c-.11.12-.11-.14-.14-.16C148.3,145.38,148.17,145.62,148.32,145.57Z" transform="translate(-4.54 -5.22)"/><polygon class="cls-5" points="141.82 143.59 141.82 143.57 142.15 143.58 141.82 143.59"/><path class="cls-5" d="M105.67,147.4c.08-.06,0-.28.08-.11S105.65,147.5,105.67,147.4Z" transform="translate(-4.54 -5.22)"/><path class="cls-5" d="M104.79,146.39a.58.58,0,0,1,.63-.58c.29,0,.56.05.83-.23.06,0,0,.46.12.35.5-.68,1.48,0,1.51.73l-.1.09c0,.12.38-.13.42,0s-.12.06-.19.16c.21-.16.22.05.4,0-.06.1-.23.22-.3.32l.28-.12c.35-.12.4,0,.4.15s-.06.28.14.36a.58.58,0,0,0-.19,0c.51.3.4.94.35,1.47a1,1,0,0,0-.38-.15.41.41,0,0,1,.27.47c-.31-.11.13.37-.13.43l0-.06c.18.32-.27,0,0,.37l-.24-.11c.28.37-.3,0-.22.19l.06.07c0,.16-.19,0-.23.11l0,0c-.13.22-.36,0-.2.36-.19-.22.13-.21-.17-.52a.57.57,0,0,1-.12.15,1.71,1.71,0,0,1-1.82.19.7.7,0,0,1,0-.35c-.08,0-.24,0-.39.08,0,0,.06-.17,0-.21s-.34.26-.35,0a.46.46,0,0,0,.25-.23c-.25.15-.36,0-.52,0a.48.48,0,0,0,.19-.11c-.35.11-.13-.22-.37-.2l.19-.08c.09-.28-.39.19-.37,0,.08,0,.14-.05.21-.08-.42,0-.45-.27-.62-.4a.15.15,0,0,0,.08,0c-.12-.18,0-.39-.22-.59.08-.08.49,0,.42-.18-.42,0-.15-.34-.62-.28.08-.2.32-.43.23-.59.12.13.5.1.49.24h.26c.16.08-.08.06.13.11,0,0-.08-.26,0-.28-.17-.2-.51-.57-.4-.79.06.18.39.24.4.34a3.66,3.66,0,0,1-.37-.77c0-.07.24.23.25.07a.49.49,0,0,1-.1-.26s.25-.31.49,0c.11.12-.06.14.08.22.12-.07,0-.2.19-.26l0,0c.1,0,.22-.26,0-.44-.08,0,.11.22,0,.15a.41.41,0,0,1,.37-.41c0,.07,0,.18,0,.29a1.06,1.06,0,0,1,.81-.56c0-.19-.18.33-.2.23.18.16.38.09.6.1s.43,0,.46.29c-.06,0,.13-.24.11-.19.14.14,0,.35.11.34-.1.13.14.06.27.12s0,.07-.13,0c.23,0,.87.47.75.94.11-.05.46.13.47.24l-.26,0c-.12.11.08.31-.14.35.17.09.09-.11,0-.26s-.24-.28-.09-.2c-.19.11.48.27.12.28,0,.17.34.36.1.55,0-.06-.35-.15-.34,0s.12.07.17.31l.08.16c.24.07-.12.26.18.23-.18,0-.08.52-.44.29l-.26-.19c0,.11.2.35.24.53a.21.21,0,0,1-.15,0c.36.34-.25.23-.14.61-.35.09-.73.39-1,.12-.15.2-.35.41-.6.31.05,0,.11-.06.12-.17-.15-.14-.17,0-.31.07,0-.07-.26-.32-.34-.52-.2.1-.23.37-.29.52,0-.26-.16-.23-.34-.22s-.37,0-.35-.25c.11,0,.37-.06.31-.24.15-.48-.5.1-.56-.31l-.25.33c.09-.26-.51-.29-.14-.48-.19,0-.06-.41-.4-.23a5.89,5.89,0,0,0-.08-.95.53.53,0,0,1,.48-.62c0-.08.07-.21-.13-.25s.1.2-.06.2c0-.06-.09-.11-.14-.13.13-.13.21-.22.46,0,.33-.15-.49-.59,0-.92.11.12.18.13.25,0a2.54,2.54,0,0,1,0-.39c.31-.16.36.19.54.4a1.73,1.73,0,0,0,.17-.21l-.14.1a.3.3,0,0,0,0-.18l.32.19c-.23-.14,0-.19,0-.28v.09c.08.08.15,0,.19-.1a.36.36,0,0,0-.35-.13c0-.14.08-.17.09-.34.11.26.27.07.38.06s0-.27.06-.28.19,0,.17.17c0,.06-.13-.09-.15,0s.19.3.26.08-.19-.51.08-.4a1.27,1.27,0,0,0,0,.29l.23.09,0-.24s0,.07,0,.1c0-.27.27-.14.28-.43.1,0,.24.14.33.17v0c.12.14.26,0,.37-.13v.06a.33.33,0,0,0,.31-.14c.14.2-.06.92.14.64.13,0,.32-.4.29-.57.25.22.74,0,.85.44.09-.07.09-.15.2-.15.36.27,1.06.32,1,.93-.16,0-.18.16-.29.26.23-.08-.1.23.22,0,.16-.15.25-.21.23-.37.29.12.56.5.44.73.06-.12.14-.1.23-.08-.31.16-.27.34-.1.43h0l.21-.06-.17.18c.08,0,.44-.11.3.12a1,1,0,0,0-.2.11c.21.09.57.26.41.48l-.29.2c0,.06.25.17.32,0-.16.33-.2.51-.47.6a1.44,1.44,0,0,1,.09,2l-.14-.1c-.21.07.2.22,0,.27-.11-.12-.35-.08-.45-.28-.25.09.08.38.06.55.15.15,0-.18.16,0,0,.07-.32.15-.1.38-.14,0-.29-.22-.37-.33l0,.21c-.38-.15-.29-.71-.75-.88l0,.11c-.31-.16-.14-.42-.37-.33.07.16.34.55.52.58-.1.23.49.61.24.81-.19-.09.15-.2-.08-.35s-.1.29-.26.3c.19,0,.31.33.26.44-.22,0-.1-.3-.3-.19.08.16,0,.41.21.4.17.41-.27.05-.22.4-.21-.22-.15-.71-.44-.71.19.22-.08.49.24.8-.14,0-.25-.22-.26-.41-.2-.1-.12.63-.38.12l.06.3a2.49,2.49,0,0,1-.29-.25c-.12,0-.31.51-.4.06,0,.06-.31.09-.15.37s.16-.25.37.12c-.22-.29-.27.1-.38.24l0-.17c-.06.08-.22.06-.25.24a.2.2,0,0,0,0-.25l0,.27c-.28.14-.09-.45-.34-.37l.18-.21s-.12-.19-.23-.12a6.62,6.62,0,0,1-.21.7c-.16.1,0-.27-.21,0l.21-.28c0-.08-.1-.39-.26-.41s-.37.38-.19.53a.21.21,0,0,1-.1-.33c-.22,0,0,.26-.24.36a5.89,5.89,0,0,1-.26-.7l.27-.34-.1,0c.22-.27,0-.25.18-.55,0-.07-.15,0-.24.07,0,.58-.48.62-.62,1.08-.37,0,.33-1.15-.3-.62,0,.14-.34.39-.08.37-.16-.15-.37.36-.49.05.26-.08.1-.51.47-.64-.1.14,0,.18.11.16,0-.21.25-.43.1-.52s-.24-.09-.37.14.16.07-.06.27c-.26-.06,0-.43-.41-.09.15.06,0,.32-.1.48l-.23,0,.14-.12c-.16-.31-.28.21-.5,0l.14-.37c.26-.19.24.39.53,0-.12-.14-.35,0-.39-.2.06,0,.11,0,.17,0s.39-.6-.06-.49c-.21,0-.16.1-.31.23-.24-.19-.45-.14-.6-.29.33-.19-.17-.33.27-.36-.14.21.17.57.51.4.26-.37.1.21.47-.07-.14-.16.19-.45.39-.66,0-.05-.14,0-.19,0-.22.15-.18.2-.39.39-.09-.22-.33-.3-.63-.28.07-.14.32-.26.39-.2a1,1,0,0,1-.33-.75c-.36.31-.19-.26-.51,0,0,.18-.29.43-.51.4,0-.11.18-.06.25-.13-.27-.06.32-.31-.09-.34.22.26.54-.09.89-.12-.24-.12.24-.06.2-.22a1,1,0,0,1-.47-.61c.34-.25.12-.67.2-.92.22,0,.55.18.65.11s-.43-.09-.17-.2l.06,0c0-.11.4-.16,0-.55a2.91,2.91,0,0,0,.3.31s0-.09,0-.14.23.13.27.23c.28.11.1-.19.2-.29a1.71,1.71,0,0,0-.23-.13c.07-.32.36-.22.57-.37l.06.23a1.62,1.62,0,0,1,.1-.18c0,.24.14.38.19.18a1.07,1.07,0,0,0-.11.63c-.11-.12,0-.3-.15-.52s-.3,0-.19.18c.07,0,0-.05.06-.16.16.31.07.34.17.55,0,0,.08.06,0,0,0,.16,0,.2,0,.24,0-.13-.15-.16-.2-.24.18.25.21.34.1.34-.32-.16.07.27,0,.29a1.23,1.23,0,0,1-.48-.52c-.18,0,0,.09-.23.1a4.9,4.9,0,0,1,.56.48l-.21-.09c.07.13.39.24.31.31a.52.52,0,0,0-.17.4l-.23,0c.48,0,.23.22.48.25-.14.26.35.21.08.5.34.18.65.21.87.44l-.21.25c.18-.17-.06.19,0,.18.07-.27.24-.25.37-.42,0,.29.32.11.46-.1l0,.22c.2-.38.23,0,.39.07s0,.31.09.28c.07-.37.11-.34.16-.59a.6.6,0,0,1,.29.15.67.67,0,0,1,.17-.47c.08-.1.18-.19.12-.38l.23.14c-.16-.29-.15-.32-.1-.42s.13-.18,0-.25h.46c.15-.08-.12-.15-.45-.09.14-.07-.23,0,.13-.17.07-.09-.23,0-.29,0l0,0c.09-.12,0-.15-.08-.16v0a1,1,0,0,0,.26-.21c-.13,0,0-.19-.39.21.09-.13,0-.12-.06-.1s-.1,0,0-.17c-.06.14-.09.16-.13.25s0-.32-.15-.08c0-.08.06-.25,0-.27s0,.19-.06.27c-.1.27-.25-.28-.35-.17a1.05,1.05,0,0,0,0,.19l-.68-.46c0,.1.27.2.14.15h0a.56.56,0,0,0-.23,0s0,0,0,0a.62.62,0,0,0,.19-.24v0c0-.08,0-.09,0,0v0s0,.09,0,.12h0s.06.15,0,.14l.06.08s0,0,0,0a1,1,0,0,0-.53-.09H106l.24-.06c.13,0,.17,0,0,0,.09,0-.19.06-.09,0-.14.05.52-.27.25-.19a3.61,3.61,0,0,1-.33.17c.17-.13.35-.36.15-.22l.12-.12c-.19.16-.22.24-.17.15a.79.79,0,0,0,0-.1h0c0,.15,0-.35,0,.34h0a.47.47,0,0,0,0,.15,1.61,1.61,0,0,0,.23.34s.16.1,0,0a.79.79,0,0,0-.23,0H106l.57-.06h0v0s0,0,0,0,0,0,0,0,0,0,.08.14c.1.33.16.38.17.29a.34.34,0,0,0,0-.09l.07.14c-.16-.31,0-.06-.15-.35.09,0,0-.08.06-.11s.29.15.27.12l-.2-.09.09,0a1.43,1.43,0,0,0-.31-.12c-.15-.05,0,0,.07-.06s.16-.28,0-.28c0-.17-.22-.09-.35,0-.31-.55-1.18-.82-1.56-.23C104.91,147.6,104.54,146.72,104.79,146.39Z" transform="translate(-4.54 -5.22)"/><path class="cls-5" d="M105.6,147.42c0-.18-.06-.29,0-.53A2.34,2.34,0,0,1,105.6,147.42Z" transform="translate(-4.54 -5.22)"/><path class="cls-5" d="M103.12,149.11c.06,0-.05.07-.08.09s-.19-.06-.11-.13S103,149.1,103.12,149.11Z" transform="translate(-4.54 -5.22)"/><path class="cls-5" d="M103.41,150.14c-.15.07-.38-.08-.46-.22A3.21,3.21,0,0,0,103.41,150.14Z" transform="translate(-4.54 -5.22)"/><path class="cls-5" d="M103.48,151.38c0,.16-.11.2-.19.1S103.4,151.42,103.48,151.38Z" transform="translate(-4.54 -5.22)"/><path class="cls-5" d="M103.8,151.19c.07.06,0,.15,0,.25C103.89,151.34,103.59,151.35,103.8,151.19Z" transform="translate(-4.54 -5.22)"/><path class="cls-5" d="M105.45,152.84c.07,0,.23-.08.22.11C105.66,152.81,105.33,153.05,105.45,152.84Z" transform="translate(-4.54 -5.22)"/><path class="cls-5" d="M106.6,152.87s.05,0,.1,0,0,.19-.09.2Z" transform="translate(-4.54 -5.22)"/><polygon class="cls-5" points="100.17 144.24 100 144.19 100.13 144.1 100.17 144.24"/><path class="cls-5" d="M105.81,145c-.11.11-.11-.14-.14-.16C105.79,144.77,105.66,145,105.81,145Z" transform="translate(-4.54 -5.22)"/><polygon class="cls-5" points="99.31 142.99 99.31 142.96 99.64 142.97 99.31 142.99"/><path class="cls-5" d="M129.27,146.09c0-.12-.26,0-.09-.1S129.37,146.08,129.27,146.09Z" transform="translate(-4.54 -5.22)"/><path class="cls-5" d="M133.51,163.29c-.34.84-.69,0-1,.48-.05,0,0-.46-.06-.36-.36.65-.85.22-1.2-.32l0-.13c-.06-.1-.19.33-.26.26a.82.82,0,0,0,0-.24c0,.26-.15.11-.19.31,0-.11,0-.32,0-.44l-.07.3c-.18.71-.3-.07-.5.28a.42.42,0,0,0,0-.19c-.31.42-.65.31-1,.44a1.93,1.93,0,0,0,0-.42c0,.31-.14.39-.23.44,0-.33-.16.29-.25.1l0-.07c-.1.33-.09-.21-.18.19l0-.26c-.07.46-.08-.25-.16,0v.1c-.06.1-.07-.13-.13-.06v-.05c-.13.11-.18-.15-.21.2,0-.29.13-.12.1-.54a1.53,1.53,0,0,1-1.23.18,1,1,0,0,1,0-.34c-.05.07-.16.05-.22.23a.39.39,0,0,0,0-.21c-.06-.14-.12.39-.19.22a.74.74,0,0,0,.07-.34c-.09.27-.18.21-.27.29a.64.64,0,0,0,0-.2c-.12.3-.15-.09-.25.1l.05-.2c-.09-.27-.09.42-.18.26a.52.52,0,0,0,0-.23c-.14.37-.3.22-.44.32l0-.08c-.14,0-.23-.1-.42,0,0-.1.2-.48.06-.42-.16.39-.28.12-.41.57-.09-.09-.18-.27-.33-.17.13-.12.23-.45.33-.46l.09-.25c.11-.15,0,.07.13-.13,0,0-.24.13-.23.06-.24.23-.61.57-.76.53.16-.09.25-.34.35-.4l-.19.15-.5.32s.21-.23.09-.21a.8.8,0,0,1-.22.14s-.22-.12.07-.38c.11-.12.11,0,.18-.12s-.15,0-.19-.08l0,0c0-.08-.2-.08-.35.11,0,0,.18-.15.11,0s-.29,0-.32-.1a.88.88,0,0,0,.24-.1.62.62,0,0,1-.54-.21c-.17.08.31-.07.23,0,.21-.29-.38-.31,0-.62,0,0-.25.09-.2.07s.29-.17.2-.22c.15,0,0-.07-.08-.14s.08,0,.09,0a.54.54,0,0,1-.07-.73c-.1,0-.34-.18-.31-.24l.22.05c.15,0,0-.2.22-.18-.26-.15.15.47,0,.29.19,0-.33-.26,0-.19,0-.1-.22-.27,0-.32,0,0,.29.15.29.07s-.1-.06-.16-.17l-.08-.09c-.21-.05,0-.09-.2-.11.18,0-.08-.2.28-.1l.29.09s-.29-.16-.4-.23a.37.37,0,0,1,.13,0c-.43-.13.06-.11-.26-.26.18-.06.08-.26.36-.23-.11-.12-.24-.24-.13-.3a.28.28,0,0,0,.14.09c.14,0,0-.06,0-.14a2.19,2.19,0,0,0,.45,0,1.23,1.23,0,0,0-.48-.22c.44.07-.21-.31.19-.27,0,0,.18.18.3.15.44.08-.27-.24,0-.29l-.36-.09c.23,0-.15-.24.2-.1-.12-.09.15-.09-.19-.21.34-.08,0-.51.61-.39-.05-.05,0-.09-.15-.14s.12.11,0,.08-.09-.07-.14-.09.14-.06.4.1c.25,0-.53-.35-.35-.46.14.06.2.07.19,0l-.21-.18c.09-.08.33.07.57.16a.25.25,0,0,0-.15-.23l.31,0c-.23,0-.12-.1-.17-.15l0,0c.1,0,.06,0,0-.1a.35.35,0,0,0-.28,0c-.1-.07-.06-.11-.17-.19.23.1.2,0,.24-.06s-.19-.14-.18-.15.05-.07.21,0-.13,0,0,.06.31.09.18,0-.46-.18-.28-.21a1.91,1.91,0,0,0,.21.14l.15,0-.2-.09.1,0c-.21-.11,0-.16-.26-.29,0-.05.18,0,.22-.07v0c.14,0,.09-.1,0-.21l0,0s0-.1-.09-.19c.18,0,.79.32.56.12,0-.07-.34-.28-.49-.31.19-.07-.09-.37.28-.35-.08-.06-.14-.07-.17-.13.15-.16-.1-.52.37-.49.06.1.2.1.32.15-.17-.13.21,0-.1-.13s-.28-.12-.37-.1c-.06-.16,0-.34.2-.33a.24.24,0,0,1-.19-.1c.29.14.37.08.29,0l-.18-.09.2.05c0-.06-.37-.2-.17-.19l.2.07c-.12-.13-.34-.34-.16-.34l.29.06s-.16-.17-.25-.15c.2,0,.25-.12.49,0-.48-.47-.38-.78-.25-1l.13.07c.15,0-.22-.14-.11-.14s.3.08.44.2c.18,0-.19-.23-.23-.32s.1.1-.13,0c-.06,0,.19-.07-.07-.2a1.88,1.88,0,0,1,.41.19l-.11-.11c.34.07.5.41.92.52l0-.08c.3.08.26.29.41.2a1.44,1.44,0,0,0-.62-.35c0-.15-.63-.35-.56-.46s0,.11.23.19-.07-.17,0-.19a.74.74,0,0,1-.41-.22c.15,0,.24.15.3.07-.15-.08-.23-.22-.37-.2-.34-.19.13-.05-.12-.22.26.08.54.35.7.31-.25-.09-.28-.27-.65-.38a.83.83,0,0,1,.41.17c.17,0-.39-.34.09-.14l-.24-.13.3.05c0-.05-.27-.31.1-.14,0,0,0-.14-.25-.21s.16.17-.2,0c.3.08,0-.12-.08-.2l.15.06c0-.05,0-.09-.15-.18a.46.46,0,0,0,.22.09l-.21-.12c-.07-.15.39.14.36,0l.15.15s.18,0,.13,0l-.57-.33c-.07-.09.23.07,0-.07l.21.17c.07,0,.35.1.37,0s-.31-.28-.45-.25c0,0,.15,0,.29.06,0-.11-.22-.09-.32-.21.14,0,.36,0,.58,0l.31.22,0,0c.24.18.21.06.48.22.06,0,0-.1-.08-.17-.49-.09-.58-.37-1-.52-.06-.18,1,.35.44-.07-.12,0-.41-.22-.32-.09.08-.06-.39-.23-.19-.26.15.15.45.1.66.31-.14-.06-.13,0-.09.05s.41.18.44.1,0-.15-.22-.23,0,.09-.23,0c0-.14.32,0-.09-.22,0,.07-.24,0-.4-.08l-.07-.12.15.08c.15-.07-.28-.15-.19-.25l.33.07c.26.14-.18.12.26.29.05-.07-.16-.19,0-.22s0,.06.07.09.62.19.32-.06c-.12-.11-.16-.08-.32-.14s-.16-.25-.16-.34c.31.14.07-.13.37.09-.2,0-.24.15.05.32s-.08.07.29.26c0-.1.42.06.67.14,0,0-.07-.09-.1-.12-.23-.1-.24-.07-.48-.16.1-.09,0-.25-.19-.4.12,0,.35.11.36.17a.42.42,0,0,1,.16-.39c-.4-.07,0-.18-.38-.24a.93.93,0,0,1-.55-.12s.17.07.25.08c-.19-.13.36,0,.05-.13.09.17.46.2.75.34-.14-.16.21.08.24,0a1,1,0,0,1-.27-.43c.32,0,.09-.3.12-.42s.49.16.57.12-.38-.08-.2-.13l.07,0c-.07-.06.29-.12-.19-.32l.36.16s0-.06-.07-.09a.94.94,0,0,1,.3.12c.27,0,0-.16,0-.24l-.23,0c-.14-.18.1-.2.05-.35l.22.07-.11-.11c.2.08.35.06.19,0l.47.36c-.14,0-.24-.14-.46-.17s-.16.1,0,.19c0,0,0-.06-.08-.12.3.08.27.15.46.24,0,0,.1,0,0-.06.14.09.15.14.13.22-.1-.09-.19,0-.27-.08.26.1.32.2.22.27-.32,0,.15.24,0,.32a1.88,1.88,0,0,1-.53-.36c-.16,0,0,.07-.17.1a1.93,1.93,0,0,1,.57.36l-.19-.07c.07.12.36.22.27.31a1.41,1.41,0,0,0-.26.45l-.2-.07c.39.23.07.3.22.47-.24.1.07.45-.29.4a1.35,1.35,0,0,1-.08,1l-.26-.17c.19.14-.17,0-.15,0,.24,0,.26.19.42.3-.26,0-.09.32.06.53l-.19-.08c.31.28-.06.29-.17.41s-.27-.07-.27,0c.28.21.24.25.39.45a.43.43,0,0,1-.32.23c.31.52-.09.74,0,1.19l-.23-.07c.35.54-.23.75-.09,1.14l-.37-.2c-.15,0,0,.25.3.34-.15,0,.1.31-.23.22-.1.06.13.19.16.29-.22.11-.21.19-.2.39l0,0c-.08,0-.24-.13-.28-.1s-.18.19.29.33c-.33.06.06.51-.36.53.13,0,.14.09.22.15s-.36.21-.2.43c-.07,0-.2-.13-.23-.08s.16.08.21.15c.14.35-.42.41-.44.67a2.9,2.9,0,0,1-.24,1.28l-.09,0c.31.26-.47.17,0,.47-.09,0-.07.1-.25,0,.23.19-.32.2,0,.46,0,0,0,0,0-.05-.25.08,0,.3-.23.4a.38.38,0,0,0-.15-.1c-.2,0,.36.26-.1.16,0,0,.22.09.21.07a.65.65,0,0,0-.13.53l.06.29,0,.14,0,.05c-.3,0-.79-.08-.46,0-.09,0,.19,0,.09,0,.13,0-.55.06-.3.09a1.8,1.8,0,0,1,.34,0c-.2.07-.48.16-.26.18l-.16,0c.45,0,.2.12.73-.05,0,.08.17.1.29,0a.57.57,0,0,0,.21-.19s0,0,0,0h.16l.56,0a3.22,3.22,0,0,1,1.11.27c.14.47.16.46.37.3a.44.44,0,0,0,0,.16c0-.37.14,0,.19-.37a3.44,3.44,0,0,0,.85,0c-.05,0-.1.33,0,.31l.08-.22v.1a.52.52,0,0,0,.07-.35c.76-.25,1.43.54,2.17.5.16.16.42,0,.61,0,.52.53,1,.95,1.57.63C133.86,162.13,133.76,163.08,133.51,163.29Z" transform="translate(-4.54 -5.22)"/><path class="cls-5" d="M129.27,146.22a.87.87,0,0,1-.47-.1C129,146.16,129.13,146.17,129.27,146.22Z" transform="translate(-4.54 -5.22)"/><path class="cls-5" d="M127.12,147.53s-.07,0-.1,0-.13-.09,0-.08S127.06,147.49,127.12,147.53Z" transform="translate(-4.54 -5.22)"/><path class="cls-5" d="M126.88,148a.36.36,0,0,1-.22-.27Z" transform="translate(-4.54 -5.22)"/><path class="cls-5" d="M126.17,148.14c-.13,0-.19,0-.17-.09Z" transform="translate(-4.54 -5.22)"/><path class="cls-5" d="M126.47,148.3s-.1,0-.18,0C126.41,148.36,126.24,148.2,126.47,148.3Z" transform="translate(-4.54 -5.22)"/><path class="cls-5" d="M125.75,149.06s.1.12-.06.08C125.8,149.16,125.56,149,125.75,149.06Z" transform="translate(-4.54 -5.22)"/><path class="cls-5" d="M125.8,149.58s0,0,0,0-.16-.07-.16-.1Z" transform="translate(-4.54 -5.22)"/><polygon class="cls-5" points="118.92 152.69 118.87 152.61 119.01 152.67 118.92 152.69"/><path class="cls-5" d="M122.86,162.52c.1,0-.12.12-.13.14S122.9,162.59,122.86,162.52Z" transform="translate(-4.54 -5.22)"/><polygon class="cls-5" points="120.55 158.12 120.53 158.12 120.66 157.81 120.55 158.12"/><path class="cls-6" d="M111.61,183.89c.39.09-.11-.31.28,0C111.8,184,111.69,184,111.61,183.89Z" transform="translate(-4.54 -5.22)"/><path class="cls-6" d="M113.21,184.21c1.42-.34,2.85.81,4.32.68.17,0-.13.38.25.37,1.45-.22,3.44.53,5,1.24l-.12.09c.3.15.74-.17,1.06-.07,0,.07-.12.09-.06.2.12-.21.62,0,.78-.16.12.11.08.28.24.4l.23-.22c.59-.53,1.27.18,2-.05,0,.05-.12.09-.07.15,1.2-.26,2.63-.09,3.93-.23a.36.36,0,0,0,0,.35c.07-.27.47-.33.81-.38.16.29.59-.27,1-.13l0,.07c.29-.31.46.15.68-.21l.2.21c.11-.4.45.19.68,0v-.08c.22-.12.36.06.57,0l0,0c.5-.14.81,0,.77-.26.2.23-.48.16-.16.49,1.63-.46,3.32-.71,5-1.07.21.07.34.07.41.18.14-.11.6-.22.71-.41-.06,0,.14.12.23.11.33,0,.24-.4.6-.36-.11.11-.13.22-.05.32.21-.3.59-.38.89-.56,0,.07-.11.12-.07.21.27-.37.66-.16.92-.42l-.06.2c.57,0,0-.39.5-.41-.08.08,0,.14,0,.21.3-.42,1-.59,1.32-.83,0,0,0,.07,0,.07a6.26,6.26,0,0,0,1.29-.6c.18,0,.15.43.53.11-.19-.27.59-.58.13-.74.35-.18.92-.51,1-.79,0,.23.45.18.21.44l.34,0c.07.14-.23.16,0,.23a3.88,3.88,0,0,1,.54-.66,2.63,2.63,0,0,1,.28-1.28c-.06.27.38.15.32.31,0-.33,0-.65-.06-1,.09-.14.24.15.32-.1-.08-.05-.06-.17-.08-.27s.34-.6.66-.47c.16,0-.09.27.12.18.16-.26.08-.34.23-.6l0,0c.15-.16.16-.59-.11-.49-.08.11.21,0,0,.18a1.19,1.19,0,0,1,.08-.78c0,.1.11.13.19.2-.1-.47-.18-.67-.3-1.1-.16,0,.3.14.21.2a.64.64,0,0,0,.06-.38,2.52,2.52,0,0,0-.15-.33c0-.11-.12-.15-.15-.24a.65.65,0,0,1,0-.26c.06,0-.17.16-.13.13s.11-.32-.06-.32c.08-.11-.14-.07-.27-.08s0-.08.11,0h-.25a2,2,0,0,0-.39,0c-.13,0-.3,0-.46-.06s-.32-.07-.46-.12-.35.32-.49.32l0-.22c-.12-.13-.45,0-.48-.15-.28.26,1.12-.25.73,0-.1-.19-.54.36-.46.06-.28,0-.53.28-.81.09.08,0,.2-.31,0-.28-.41.07-.11.11-.43.21l-.2.11c0,.22-.37,0-.19.23-.07-.16-.58.18-.58-.17l0-.28c-.17,0-.25.32-.38.46a.17.17,0,0,1-.08-.12c0,.43-.43,0-.61.37-.4-.1-1,.1-1.21-.15a1.29,1.29,0,0,1-.89.25c.07,0,.16-.06.17-.16-.22-.11-.26,0-.45.09,0-.07-.44-.22-.68-.35-.28.14-.17.36-.19.5-.29-.39-.81.32-1.17,0,.1-.07.42-.23.17-.32-.29-.4-.52.33-1,.15l.13.35c-.21-.21-.63.23-.6-.13-.14.14-.51-.1-.45.24-.72-.26-1.73.23-2.18-.37-.1.06-.35,0-.3.18s.24-.14.3,0a.14.14,0,0,0-.11.15c-.23-.07-.4-.1-.2-.38-.49-.2-.49.58-1.12.46,0-.14,0-.19-.2-.17l-.35.25c-.4-.06-.23-.32-.24-.56-.22,0-.48,0-.58.2l-.26-.29c.19.21-.17.14-.28.2l.11-.06c0-.1-.29,0-.42,0,0,.15.28.21.42.25-.11.1-.28.08-.43.2.05-.23-.35-.17-.52-.19s-.22.2-.28.2-.32,0-.17-.2.16.12.27,0c-.13-.09-.11-.3-.38-.16s0,.46-.34.31c.1-.06.12-.15.2-.23l-.36-.13V176c0-.05,0-.07,0-.1-.11.22-.55.06-.64.31-.18,0-.38-.16-.55-.18l0,0a.61.61,0,0,0-.67.08v-.05a.8.8,0,0,0-.54.12c-.29-.17-.07-.8-.4-.55-.3,0-.48.37-.37.51-.53-.16-1.15.15-1.63-.21-.08.08,0,.14-.19.18-.78-.12-1.68.14-2.27-.31.24-.08,0-.21,0-.34-.2.18-.21-.21-.3.11s0,.29.19.38a2.35,2.35,0,0,1-1.43-.19c.12.1,0,.15-.09.19.06-.3-.28-.37-.55-.29l0,.18-.15-.2c-.11,0-.15.37-.39.17a.47.47,0,0,0-.06-.2c-.28.13-.69.34-1,.15l-.22-.29c-.12,0-.35.15-.14.26-.48-.22-.8-.28-.93-.53a5.16,5.16,0,0,1-3.16.16l.05-.13c-.25-.17-.17.22-.35.1.11-.12-.16-.32.07-.45-.36-.2-.52.17-.78.2-.06.17.22-.09.14.13-.06.06-.51-.21-.61.05-.08-.12,0-.31.09-.41l-.25.09c-.24-.36.73-.47.49-.91h-.22c-.16-.31.61-.24.1-.42-.26.1-.52.47-.33.62-.49,0-.32.62-.84.51-.12-.18.42,0,.36-.21s-.51,0-.72-.07c.23.14,0,.39-.19.41-.24-.17.22-.23-.16-.32-.08.15-.45.21-.17.37-.19.33-.38-.16-.63.08-.08-.27.49-.51.1-.71,0,.25-.57.24-.41.64a.25.25,0,0,1,0-.42c-.21-.19-.64.34-.63-.15l-.12.23c-.06-.1-.16-.17-.25-.33s-.72.22-.63-.15c-.07,0-.53-.08-.4.21s.37-.12.46.25c-.15-.31-.42,0-.61,0v-.15c-.11,0-.33,0-.42.1a.13.13,0,0,0,0-.22l-.15.2c-.43,0,0-.41-.42-.42l.33-.11c-.08,0-.17-.21-.37-.18-.11.19-.3.4-.39.54s0-.24-.31-.08l.33-.18c.07-.06-.16-.38-.39-.41s-.29.33-.16.46a.21.21,0,0,1-.1-.29c-.16.08,0,.22-.11.35a1.56,1.56,0,0,0-.42-.47c0-.12.07-.24.11-.36l-.13,0c.13-.3-.15-.19-.1-.49-.13,0-.24.13-.31.23a.44.44,0,0,1,.16.52.66.66,0,0,0,.07.53c-.15.22-.75-.76-.63,0,.11,0,.21.39.27.16-.17.11.19.38-.06.42,0-.25-.46-.13-.47-.5.09.11.18,0,.2-.1-.18-.05-.29-.34-.47-.13s-.21.34,0,.44.12-.2.25,0c-.08.27-.44.13-.11.44,0-.17.29-.06.42,0a1.21,1.21,0,0,0,0,.19l-.13-.1c-.22.19.21.19.09.4h-.34c-.24-.15.25-.33-.16-.47-.1.19.09.32-.07.47a1.09,1.09,0,0,1-.05-.17c0,.05-.63,0-.36.39.12.18.16.06.32.09,0,.33.2.41.24.58-.32,0,0,.35-.34.19.17-.15.1-.56-.16-.72-.4.09.07-.26-.27-.42-.09.3-.43.24-.69.27,0,.11.06.22.1.28.23.05.23-.08.47-.07a.74.74,0,0,0,.36.83c-.08.13-.31.16-.37,0,.16.38.34.94.48,1.39.21-.44.3.43.5.1,0-.26.13-.56.34-.51,0,.14-.15.07-.2.16.26.07-.17.42.21.42-.31-.31-.45.14-.75.22.31.2-.2.08,0,.37s.64.47.91.7c.07.53.77.82,1.1,1,.08.25-.23.44-.06.62s0-.42.29-.06l-.07,0c.13,0,.55.59.89.22l-.28.26c0,.07.16,0,.23,0s0,.25-.17.26c.13.35.53.21.8.32l-.08-.27c.52.05.74.38,1.22.49l-.1.19h.32c-.14.17,0,.39.26.29l-.9.19c-.14-.19.31-.15.27-.39s-.47-.33-.62-.17c.15.09.18.05.33,0-.06.29-.3.18-.49.31.08,0,.17.16.22.08a.94.94,0,0,1-.67-.11c.23,0,0-.21.07-.25-.12.22-.42.18-.73-.06-.1-.38-.73-.15-1.08-.47a1.74,1.74,0,0,1,.87-.16c-.16-.25-.26-.14-.42-.39a1,1,0,0,1-.83.19l.1-.17c-.32-.12-.51.12-.81-.22a10.4,10.4,0,0,1-1.27-1.67l.15-.12c-.52,0-.64-.82-1-1.12a5.4,5.4,0,0,0-.37-1,1,1,0,0,1,0-.9A4,4,0,0,1,105,172.8c0,.13,0,.25,0,.38,0-.33.22,0,.37-.21-.36,0,0-.45.11-.69.65-.22,1.34-.73,2-1l0,.19a1.19,1.19,0,0,1,1-.1c.35.09.56.24.87.33,0,.09.12.29.31.3a2.35,2.35,0,0,1,1-.29,5,5,0,0,1,1.22.42c1.37-.19,2.65.29,4,.23l.06.24c1.38-.29,2.93.35,4.08.22l-.15.38c.34.16.82,0,.75-.3.35.16.9-.09,1.09.25.36.1.46-.14.77-.17a4.2,4.2,0,0,0,1.67.19l-.17,0a.16.16,0,0,0,.07.29c.26-.09.92.17.71-.31.7.32,1.7-.1,2.39.3,0-.13.13-.15.21-.23.64,0,1.3.32,1.82.12.1.07-.17.21.09.23s0-.16.2-.22c1-.19,2.09.3,3,.26,1.68-.22,3.43-.11,5-.2v.1c.52-.37,1.27.32,1.68-.23.13.09.48,0,.4.21.41-.27,1.21.18,1.81-.17-.06,0-.09,0-.15.06.63.17,1.17-.16,1.84,0-.07,0-.19.08-.2.17.27.16.58-.43.75,0,.14,0,.09-.23,0-.21,1.39.08,2.87-.49,4.54-.68,1.24.24.07.73,1.05.41.07.09.06-.17.07-.07.4-.12.56.55.85.34-.07-.28.21-.13.25-.28a4.13,4.13,0,0,1,.85.52,4.09,4.09,0,0,0,.78.42l-.13.07a1.35,1.35,0,0,1,.66.34,2,2,0,0,1,.5.59,13.68,13.68,0,0,0,.71,1.24,6.55,6.55,0,0,1,0,.88,4,4,0,0,1-.14,1,7.1,7.1,0,0,1-.65,1.53,16.13,16.13,0,0,1-1.56,2.34,19.5,19.5,0,0,1-1.85,2,11.41,11.41,0,0,1-1.15.95l-.36.24-.45.24c-.28.13-.43.18-.64.27a35.18,35.18,0,0,1-9.94,2.58,2.29,2.29,0,0,0-1.78,0c0-.06.08-.08,0-.13,0,.31-.62.08-.68.39l-1.88.11c-.62,0-1.25.09-1.91.07.21,0,.31-.29.07-.27l-.26.2-.05-.09c-.16,0-.35.19-.18.3-3.35.22-6.53-.8-9.66-1.32a14.2,14.2,0,0,0-2.61-.49,29.36,29.36,0,0,0-6.7-2.25A1.83,1.83,0,0,1,113.21,184.21Z" transform="translate(-4.54 -5.22)"/><path class="cls-6" d="M111.16,183.74c0-.18-.25-.36,0-.47C111.17,183.42,111.24,183.62,111.16,183.74Z" transform="translate(-4.54 -5.22)"/><path class="cls-6" d="M106.36,178.57s0-.12,0-.15.2.07.16.16C106.49,178.52,106.43,178.57,106.36,178.57Z" transform="translate(-4.54 -5.22)"/><path class="cls-6" d="M105.76,177c.12,0,.37.27.46.45Z" transform="translate(-4.54 -5.22)"/><path class="cls-6" d="M106.2,175.85c.13-.07.19,0,.18.07S106.27,175.88,106.2,175.85Z" transform="translate(-4.54 -5.22)"/><path class="cls-6" d="M105.9,175.73c0-.1.11-.12.19-.15C106,175.56,106.12,175.8,105.9,175.73Z" transform="translate(-4.54 -5.22)"/><path class="cls-6" d="M107.42,174.27s.08-.16.16,0C107.5,174.17,107.46,174.47,107.42,174.27Z" transform="translate(-4.54 -5.22)"/><path class="cls-6" d="M108.19,174s0,0,.11,0,0,.16-.12.16Z" transform="translate(-4.54 -5.22)"/><polygon class="cls-6" points="136.17 170.71 135.98 170.79 136 170.65 136.17 170.71"/><path class="cls-6" d="M151.29,177.37c0,.15-.15,0-.18.06S151.26,177.53,151.29,177.37Z" transform="translate(-4.54 -5.22)"/><polygon class="cls-6" points="142.67 177.9 142.71 177.87 142.84 178.12 142.67 177.9"/></svg>