<svg id="Layer_10" data-name="Layer 10" xmlns="http://www.w3.org/2000/svg" xmlns:xlink="http://www.w3.org/1999/xlink" viewBox="0 0 250.28 260.41"><defs><style>.cls-1{fill:none;}.cls-2{fill:#d1d1d1;}.cls-3{clip-path:url(#clip-path);}.cls-4{fill:#ea7259;}.cls-5{fill:#202020;}</style><clipPath id="clip-path" transform="translate(-4.51 -4.68)"><circle class="cls-1" cx="127.65" cy="127.83" r="123.14"/></clipPath></defs><circle class="cls-2" cx="123.14" cy="123.14" r="123.14"/><g class="cls-3"><path class="cls-4" d="M215.13,254.1c16.6-15.22,33-32.85,38.09-56.14,5.47-25.06-4.16-54.06-15.52-76.54-12.1-24-33.39-40.53-59.31-43.2-22.94-2.35-47.21,9.2-61.88,26.83-32.08,38.51-23.81,102.51,9.56,139,17.28,18.86,44.3,26.82,67.31,16.62,24.35-10.81,40.83-34.43,45.64-61.37,5-28.14-.68-59.93-20.05-81.81C209,106.23,193.91,99.37,179.39,99.9c-15.9.59-29.3,10.06-37,24-7.45,13.48-7.62,29.11-5,44.17,2.16,12.38,5.69,26.79,12.62,37.39,9.06,13.84,23.88,21.43,39.7,19a45.55,45.55,0,0,0,32.58-23.2c7.36-13.22,7.15-29,4.07-43.69-2.67-12.72-8-26-17.53-35-14.53-13.73-36.72-12.33-47,5.19-3.42,5.81-4.64,12.84-5.39,19.56a114.09,114.09,0,0,0-.57,24.09c1.68,16.74,5.89,36.13,22.27,44.09s33.87,2.71,46.41-9.08c21.11-19.84,18.88-53.17,7.83-78.43-11.14-25.47-31.14-48.17-59-52.24-14.53-2.11-29.64.15-41.68,9a74,74,0,0,0-23.87,30.61c-9.93,23.11-15.74,52.59-7.1,77.52a65.62,65.62,0,0,0,27.12,34.62c10.47,6.64,22.54,9,34.46,10.13,9.48.87,19,0,28.31-1.33,6.27-.9,11.53-2.34,16-7.3,3.65-4.09,6.3-10.75,5.85-16.48-.9-11.39-11-25-23.47-23.18A139.52,139.52,0,0,1,167.46,191c-1.79,0-3.59-.09-5.38-.22-5.65-.41,3,.74-.93-.09-1.71-.36-3.42-.65-5.12-1.1-1-.27-6.86-2.24-3.56-1s-1.82-1-2.54-1.46-1.23-.83-1.87-1.17c-2.07-1.11,1.69,1.21,1.78,1.37-.56-1-2.92-2.8-3.87-3.61-2.15-1.86,2,3.38.49.62-.57-1-1.32-2-1.91-3-.11-.19,1.09-1.35-1.25-2.36,1.06-.05,1.57,4.45.55.84-.57-2-1.1-4-1.65-6.06-.75-2.74.29,1.75.28,1.75-.34-.6-.32-3.2-.35-3.66a70.86,70.86,0,0,1-.14-7.43c0-.94.11-1.87.13-2.81,0-2.75-.17,1.24-.14,1.37-.34-1.73.64-4.73,1-6.49a119,119,0,0,1,3-13c.26-.89,2.34-6.57,1.11-3.6s1.23-2.82,1.52-3.45c.69-1.52,1.43-3,2.22-4.48.52-1,1.09-1.9,1.64-2.86,1.62-2.83-.51-.15-.6.8.13-1.31,2.66-3.33,3.57-4.3.27-.28,1.62-1.32,1.67-1.68-.21,1.63-3.45,2.52-.87.8.92-.61,5.89-3.09,2.67-1.95s-.38.16.2,0c1-.32,2.07-.62,3.1-1,4.12-1.29-.74.47-1.22.09a9.69,9.69,0,0,0,2.42-.15c1.08,0,2.18.08,3.25,0,2.64-.15-1.87-.28-1.78-.3,1.43-.41,4.16.85,5.63,1.29l2.37.78q-3.87-1.65-1.58-.6c.51.22,1,.47,1.5.73s5.15,2.63,5,3c0,.18-3.32-2.86-1.24-.89.66.62,1.4,1.16,2.08,1.77,1.58,1.43,2.93,3.08,4.48,4.54,2.4,2.27-2.2-3.24-.33-.47.68,1,1.44,2,2.13,3,1.2,1.79,2.34,3.63,3.39,5.52.47.84,3.47,6.72,2,3.76s1.25,3.23,1.53,4c.86,2.35,1.64,4.74,2.3,7.16.31,1.15,1.67,4.4,1.28,5.5.62-1.75-.38-3.66-.24-.68,0,.93.14,1.85.18,2.78s0,1.86.05,2.78c.1,5.25,0-.6.12-.51a10.68,10.68,0,0,1-.49,2.63c-1.06,4.88-.33-.07.3,0-.09,0-3.35,7-1.45,3.39s-2.43,3.09-2.46,2.57,3.54-2.34,1.38-1.33a10,10,0,0,0-2,1.26c.29-.91,5.19-1.42,1.1-.74,1.16-.19,4.67-.32,1.56-.25-1.72,0-3.22-.89,1.42.18a11.69,11.69,0,0,1,3.92,1.94,11.93,11.93,0,0,1,3,2.8c2.53,3.74,1,2.69.69.82-.18-.9-.46-1.8-.67-2.7-.16-.73-1-4.94-.44-1.83.51,2.88,0-.44-.08-.87-.17-1.67-.36-3.33-.47-5a84.71,84.71,0,0,1,.08-13c-.4,4.55.34-1.4.62-2.88,0-.11.54-2.59.53-2.59a8.48,8.48,0,0,1-3.39,5.21q-2.91,4.91-9,3.76c-5.36.86-5.84,1.71-9.77-.37,3.13,1.65-1.27-1-1.58-1.28,2.93,2.53-2.11-3.86-.08-.37a26.35,26.35,0,0,0,1.51,2.49c-.14,0-2-5.16-1.08-2.42.75,2.23,1.66,4.39,2.37,6.64.63,2,1.11,4,1.66,6,.86,3.12-.91.59-.05-1.06a10.42,10.42,0,0,0,.3,2.59c.06.58.12,6,.18,6-.29-.11.82-4.38.13-1.82-.13.47-1,4.06-.93,4.15s1.57-4.2.66-2a18.8,18.8,0,0,0-1,1.87c-.85-1.38,3.26-3.7.87-1.43a12.25,12.25,0,0,0-1.43,1.54c-1.57,2.26,3.77-2.19,1.29-1.15a10.28,10.28,0,0,0-1.73,1.13c-.56.39-2.95,1.67.31-.07,4-2.16-.87-.19-1,0-.28.37,5.2-1.23,2.75-.51-.69.21-4.14,0-.29.13,3,.08,1.39,0,.39-.21a11.13,11.13,0,0,1,5.28,3c-3-3,1.74,3.61-.44-.13A17,17,0,0,1,186.4,178c-.12.24,1.78,4.85.58,1.11-1.3-4.08-2.64-8.13-3.77-12.27-.62-2.28-1.2-4.57-1.7-6.88-.21-1-.47-2-.6-3,.44,3.36.31,1.6.14-.73-.15-2-.06-4-.1-6-.06-3.61-.93,4.06,0,1.1a18,18,0,0,0,.49-2.34c.5-2.78,3.39-1.72,1.56-.29,1.57.06.06.08-1.15-.81-.29-.21,1.15-1.74,1.09-2.06-1.79,2.45-1.93.2-1.12,1.69,1.65,3,.63-.8,1-1.16,1.1-1.89-1.19,1.15-1.73,1.25a21.61,21.61,0,0,1,2.5-1.68c.28.43-4.62,1.34-1.94,1,.87-.12,4.15-1.36.85-.36-3,.92.86,2.54,1.68,2.86.53.2,1.54-1.61-1.26-2.68s.06.33,1,.48c2.61.4,3.55,3.25,5.81,4.72.9.58-6.75-3.94-5.8-3.45,2.32,1.21-.32-.94-.24-.92.53.06.06.75.24.92.38.37,5.87,7.13,4.19,4.84s-.22-2.51,0-2.13c.65,1.08,1.34,2.12,2,3.22.47.82.85,1.7,1.33,2.52,1.66,2.86-1.83-5.22.07.33,1.3,3.83,2.25,7.7,3.35,11.58.94,3.31-.43-4.19-.09-.76.1.91.25,1.83.35,2.75.26,2.44.4,4.91.44,7.36,0,2.16-.11,4.3-.16,6.45-.06,2.72.15-1.32.14-1.47a16.9,16.9,0,0,1-.52,3.64c-.66,3.94-1.27,8.88-3.12,12.4,2.4-4.57-.35.42-.9,1.57-.83,1.73-1.8,3.37-2.7,5.06-1.9,3.54,2.58-3.19-.86,1.25a57.48,57.48,0,0,1-4.28,4.93c-.19.19-1.75,1.47-1.73,1.7,0-.32,4.39-3.33.83-.71-1.28.94-2.55,1.88-3.89,2.73a15.53,15.53,0,0,0-2.7,1.56c.05-.1,4.36-1.71,2-.89-1.92.66-3.93,1.19-5.84,1.88-2.25.81,2-.36,2.21-.27a15.34,15.34,0,0,0-3.09.21c-.77,0-1.57-.09-2.34-.05-3,.16,4.09,1,1.25.16-1.4-.4-2.9-.8-4.32-1.12-2.88-.64,3.91,2,1.3.57-.86-.48-1.78-.87-2.64-1.36s-1.69-1.09-2.56-1.56c-2.31-1.25,1.94,1.27,1.68,1.35-.68.19-3.41-2.91-4.05-3.53-1.32-1.26-2.53-2.61-3.77-4-.43-.46-2.24-2.58-.1-.08,2.46,2.88-.71-1.12-.94-1.46a81.11,81.11,0,0,1-5.33-8.92c-.49-.94-.93-1.9-1.41-2.85-1.24-2.43,1.09,2.21,1,2.16-1-.41-2-5.21-2.44-6.4a104.16,104.16,0,0,1-3.29-11.6c-.19-.84-.32-1.7-.52-2.54-.64-2.6.33,1.84.3,2,.38-1.72-.65-5-.8-6.82a105.4,105.4,0,0,1-.17-11.92c.13-4.22-.66,4.31.2-1.51q.48-3.32,1.25-6.57c.16-.67,1.81-5.34,1.58-5.61.11.13-1.66,4-.58,1.68.34-.76.62-1.55,1-2.3.78-1.78,1.65-3.52,2.59-5.22.39-.69.8-1.36,1.19-2,2.48-4.31-2.15,2.53-.26.43,1.19-1.32,2.23-2.79,3.45-4.1.63-.67,4.93-4.58,2.19-2.3s2-1.42,2.57-1.83q2.2-1.51,4.52-2.81c5-2.81-3.21,1,.63-.42,1.64-.59,3.27-1.23,4.95-1.73.69-.21,5-1,5.07-1.24,0,.19-4.8.48-2.31.39,1.23,0,2.45-.23,3.68-.27,1.48,0,3,0,4.43.08,3.84.14-4.34-.9.73.26,1.29.29,3.72,1.58,5,1.47-.63,0-4.72-2.34-1.25-.41.94.52,1.9,1,2.83,1.53a20.65,20.65,0,0,0,2.7,1.72c-.17,0-3.43-2.86-1.58-1.17,1.37,1.26,2.81,2.4,4.13,3.73,1,1,2.11,2.9,3.24,3.53-2.49-1.38-2.27-3-.81-.91.61.9,1.25,1.77,1.85,2.68a100.21,100.21,0,0,1,5.7,10.1c2,3.9-1.83-4.53.48,1.18.84,2.1,1.63,4.21,2.37,6.35,1.2,3.45,2.26,6.95,3.23,10.47.57,2.06,1.11,4.12,1.61,6.2.31,1.32.53,2.69.9,4,1,3.35-.27-3.65,0-.18.2,2.36.36,4.73.53,7.1.08,1.1-.72,3.39.12.61.93-3.13,0,0-.19.93-.3,1.82-.76,3.56-1.2,5.34-.15.6-1,3.21,0,.16,1.18-3.51-.58,1.17-.74,1.53q-1,2.13-2.12,4.17c-.51.93-3.33,5.67-1.66,2.93s-1.41,1.83-2.1,2.71q-2,2.53-4.14,4.93a216.53,216.53,0,0,1-16,15.81c-8.8,8.07-7.21,25.43,1.58,33.2,10.19,9,22.59,7.78,32-.84Z" transform="translate(-4.51 -4.68)"/></g><path class="cls-5" d="M155.44,133.69c.08-.07,0-.28.07-.12S155.44,133.79,155.44,133.69Z" transform="translate(-4.51 -4.68)"/><path class="cls-5" d="M154.45,132.85a.56.56,0,0,1,.52-.65c.27-.06.54,0,.75-.35.06,0,.06.45.17.33.38-.74,1.43-.23,1.56.46l-.09.1c0,.12.35-.18.41-.06s-.1.07-.15.18c.17-.18.21,0,.37-.09,0,.1-.19.25-.24.36L158,133c.31-.17.38-.05.4.08s0,.28.19.32a.55.55,0,0,0-.18.06c.54.21.53.84.56,1.36a1.17,1.17,0,0,0-.39-.09.38.38,0,0,1,.34.41c-.31-.06.18.34-.06.43l-.06,0c.23.29-.25.06,0,.37l-.25-.08c.33.32-.29,0-.18.22l.07.06c0,.15-.19,0-.2.14l0,0c-.08.23-.34.09-.14.37-.21-.18.1-.22-.23-.47a1.54,1.54,0,0,1-1.81.62c-.05-.15-.09-.2-.07-.33-.07,0-.24,0-.36.14s0-.18,0-.21-.29.3-.34.1a.61.61,0,0,0,.21-.26c-.22.17-.34.07-.5.06a.35.35,0,0,0,.16-.13c-.31.16-.16-.2-.38-.14l.17-.1c0-.28-.34.24-.37,0,.08,0,.13-.07.2-.12-.4.12-.48-.18-.66-.28a.15.15,0,0,0,.07,0c-.13-.15-.1-.36-.3-.52.07-.1.47-.09.38-.25-.41.07-.19-.3-.64-.16.05-.21.24-.47.13-.61.14.1.5,0,.51.15l.25,0c.16,0-.07.07.14.08,0,0-.12-.24,0-.27-.2-.17-.58-.46-.51-.7.09.17.41.18.44.27a3.29,3.29,0,0,1-.47-.68c0-.08.26.18.25,0a.49.49,0,0,1-.15-.23s.2-.34.48-.05c.13.1,0,.14.12.19s0-.2.14-.28l0,.05c.09,0,.16-.29,0-.43-.07,0,.14.19,0,.14a.4.4,0,0,1,.29-.45c0,.08,0,.18,0,.29a1,1,0,0,1,.68-.66c0-.19-.11.34-.15.25.19.12.38,0,.59,0s.42,0,.49.21c-.06,0,.09-.25.07-.2.16.11,0,.34.16.31-.07.14.15,0,.27.07s0,.08-.11,0c.21-.05.9.31.86.79a.5.5,0,0,1,.49.16l-.25.05c-.1.13.12.3-.08.37.17,0,.07-.12-.06-.26s-.27-.23-.12-.17c-.16.13.5.18.17.25.06.16.38.29.17.52,0-.07-.36-.1-.32,0s.12.06.21.27l.1.15c.24,0-.08.27.21.19-.19,0,0,.51-.38.35l-.28-.15c0,.11.24.31.31.48a.27.27,0,0,1-.15,0c.39.27-.2.26-.05.61-.31.13-.64.49-.88.26-.12.22-.28.45-.53.39,0-.05.09-.08.08-.18-.16-.11-.16,0-.29.11,0-.07-.29-.26-.4-.45-.17.13-.16.39-.19.54-.06-.24-.2-.19-.36-.15s-.36,0-.38-.19c.1,0,.35-.11.26-.28.07-.48-.46.18-.58-.21-.07.12-.13.24-.19.36,0-.26-.54-.2-.21-.44-.19,0-.12-.39-.42-.16a7.41,7.41,0,0,0-.22-.9.51.51,0,0,1,.36-.67c-.06-.07,0-.21-.16-.22s.12.18,0,.2c0-.06-.1-.09-.15-.1.11-.15.16-.24.44,0,.3-.19-.56-.5-.19-.88.13.1.19.1.24,0a2.32,2.32,0,0,1-.06-.38c.27-.2.38.12.58.3,0-.08.11-.14.14-.22l-.13.11a.21.21,0,0,0-.05-.17l.34.14c-.24-.11-.05-.18-.05-.27v.09c.09.06.14-.07.17-.13a.34.34,0,0,0-.36-.07c0-.14.06-.17,0-.34.15.23.28,0,.37,0s0-.27,0-.28.17-.07.19.14-.14-.07-.13.06.22.27.26.05-.27-.46,0-.4c0,.08,0,.18,0,.28l.23.05-.09-.22c.05,0,0,.07.07.09-.05-.26.24-.17.2-.45.09-.06.25.09.35.1l0,0c.14.11.26,0,.34-.18v0a.28.28,0,0,0,.28-.18c.17.17.08.9.23.6.13,0,.25-.44.19-.59.27.17.71-.15.89.28.07-.08.06-.15.17-.17.38.2,1.06.15,1.07.74-.16,0-.15.19-.24.3.21-.11-.06.24.21,0s.21-.25.17-.4c.3.07.61.39.54.64,0-.12.11-.12.2-.11-.27.19-.21.37,0,.42h0l.19-.1-.14.2c.09,0,.42-.17.31.07a.79.79,0,0,0-.17.14c.21,0,.58.16.47.4l-.25.23s.26.13.31,0c-.1.34-.11.52-.36.65a1.38,1.38,0,0,1,.38,1.86l-.14-.07c-.2.1.23.18.08.25-.12-.1-.34,0-.47-.2-.23.12.14.36.14.52.17.12-.07-.16.16,0,0,.06-.29.2,0,.39a.9.9,0,0,1-.4-.26l0,.19c-.38-.08-.38-.63-.85-.72v.1c-.32-.1-.2-.38-.41-.26.09.15.42.48.59.48-.06.24.56.52.36.74-.2-.06.11-.22-.14-.33s0,.3-.19.33c.17,0,.34.28.31.39-.22,0-.15-.28-.32-.14.11.15.05.4.27.36.22.36-.26.09-.15.41-.24-.18-.26-.66-.53-.62.21.19,0,.49.35.74-.14,0-.27-.18-.32-.36s0,.63-.34.18l.1.27a1.74,1.74,0,0,1-.32-.19c-.07,0-.14.27-.23.29s-.09,0-.13-.17c0,.06-.3.13-.1.38.22.1.14-.21.32,0l0,.07,0,0c-.2-.17-.2.19-.28.32l-.07-.15c0,.08-.2.09-.19.27a.24.24,0,0,0-.09-.24V139c-.25.18-.16-.42-.39-.31l.15-.22c0,.05-.15-.17-.25-.08a6.67,6.67,0,0,1-.08.71c-.14.11-.09-.26-.22,0l.17-.29c0-.08-.16-.36-.32-.36s-.29.42-.1.54a.2.2,0,0,1-.15-.3c-.2.07,0,.25-.17.38-.06-.16-.27-.39-.36-.64a2.12,2.12,0,0,0,.21-.36h-.1c.17-.29,0-.25.08-.56-.05-.06-.14,0-.21.11.1.55-.37.66-.43,1.13-.36,0,.14-1.16-.38-.55,0,.14-.26.43,0,.37-.17-.12-.29.4-.46.12.24-.11,0-.51.36-.68-.08.14.07.16.12.13,0-.2.18-.45,0-.51s-.24,0-.33.18.17.05,0,.27c-.26,0-.1-.4-.41,0,.15,0,.06.31,0,.47l-.23,0,.12-.15c-.2-.26-.24.25-.48,0l.08-.37c.22-.22.29.34.5-.12-.14-.11-.34.08-.4-.13.05,0,.1,0,.16,0s.29-.63-.13-.46c-.2,0-.14.12-.26.27-.26-.15-.46-.06-.63-.19.29-.23-.21-.28.21-.38-.1.22.25.51.55.3.19-.4.13.18.44-.14-.16-.13.12-.46.27-.7,0,0-.13,0-.18,0-.19.19-.14.23-.31.44a.57.57,0,0,0-.65-.17c0-.15.26-.3.34-.25a1,1,0,0,1-.43-.68c-.3.36-.22-.21-.49.05a.6.6,0,0,1-.44.47c0-.11.17-.09.23-.17-.27,0,.25-.35-.14-.32.25.22.5-.16.83-.25-.24-.08.23-.09.16-.24a1,1,0,0,1-.54-.51c.28-.29,0-.66,0-.92.2-.07.55.1.64,0s-.43,0-.2-.16l.07,0c-.06-.11.36-.22-.09-.53l.34.25s0-.09,0-.14.24.1.29.19c.29.06.08-.2.15-.31l-.24-.1c0-.32.32-.26.49-.44l.1.22a1.46,1.46,0,0,1,.07-.19c.05.22.19.34.2.14a1.19,1.19,0,0,0,0,.62c-.12-.1-.08-.28-.22-.47s-.29,0-.15.2c.07,0,0-.06,0-.16.2.27.12.31.24.49,0,0,.09.05,0,0,.07.15.07.19,0,.23-.07-.12-.17-.12-.23-.2.21.21.25.29.14.32-.33-.11.11.24,0,.28a1.26,1.26,0,0,1-.54-.43c-.17,0,0,.1-.21.14a4.22,4.22,0,0,1,.62.37l-.22-.05c.09.11.41.17.34.24a.57.57,0,0,0-.1.41l-.21.07c.46-.1.26.18.5.16-.09.28.37.15.15.48a2.86,2.86,0,0,1,.91.28l-.17.28c.14-.2,0,.18,0,.17,0-.27.19-.28.28-.46.07.27.33.05.43-.17V136c.13-.4.22,0,.38,0s.1.29.14.26a5.44,5.44,0,0,1,.05-.59h.06a.75.75,0,0,1,.25.1.71.71,0,0,1,.09-.48.34.34,0,0,0,.06-.38l.24.09c-.2-.24-.19-.28-.16-.38s.09-.2-.06-.24l.44-.06c.13-.1-.14-.12-.44,0,.12-.1-.23,0,.09-.19.06-.09-.21,0-.28,0l0,0c.07-.13,0-.15-.09-.13v0c.08-.07.22-.2.22-.24s0-.18-.34.27c.06-.15,0-.12-.08-.09s-.09.05-.07-.16c0,.14-.06.16-.09.26s-.08-.3-.16-.06c0-.07,0-.24,0-.26s0,.19,0,.27c-.06.27-.28-.23-.36-.11s0,.17,0,.18l-.72-.33c0,.09.29.14.16.12h0a.4.4,0,0,0-.2.07s0,0,0,0a.59.59,0,0,0,.15-.25v0c0-.09,0-.1,0,0v0a.35.35,0,0,0,0,.11s0,0,0,0a.53.53,0,0,0,.06.13l.07.07h0a.91.91,0,0,0-.53,0s-.16.06,0,0l.22-.09c.12,0,.15-.07,0,0l-.08,0c-.13.07.46-.35.22-.22s-.15.09-.3.21c.15-.15.28-.4.11-.23l.1-.14c-.16.19-.18.27-.14.17s0-.09,0-.1h0c0,.15,0-.33,0,.34h0l.07.14a1.61,1.61,0,0,0,.27.29s.17.07,0,0H156l-.11,0h0l.54-.15h0v0s0,0,0,0,0,0,0,0,0,0,.09.13c.18.37.24.33.19.16a1.25,1.25,0,0,0,.08.12c-.2-.27,0-.06-.19-.31.08,0,0-.08,0-.11s.31.1.29.07l-.21-.06.09,0a1,1,0,0,0-.32-.07c-.15,0,0,0,.06-.07s.12-.29,0-.28c0-.16-.21-.05-.33,0-.38-.47-1.26-.59-1.53,0C154.75,134,154.26,133.21,154.45,132.85Z" transform="translate(-4.51 -4.68)"/><path class="cls-5" d="M155.38,133.72c0-.18-.1-.27-.07-.51A3.12,3.12,0,0,1,155.38,133.72Z" transform="translate(-4.51 -4.68)"/><path class="cls-5" d="M153.26,135.72c.05,0,0,.08-.06.1s-.19,0-.12-.11S153.18,135.72,153.26,135.72Z" transform="translate(-4.51 -4.68)"/><path class="cls-5" d="M153.7,136.67a.43.43,0,0,1-.47-.14A3.64,3.64,0,0,0,153.7,136.67Z" transform="translate(-4.51 -4.68)"/><path class="cls-5" d="M154,137.85c0,.16-.08.2-.18.12C153.83,137.9,153.89,137.89,154,137.85Z" transform="translate(-4.51 -4.68)"/><path class="cls-5" d="M154.24,137.61c.06,0,0,.15,0,.24C154.34,137.74,154.05,137.8,154.24,137.61Z" transform="translate(-4.51 -4.68)"/><path class="cls-5" d="M156.07,138.94c.06,0,.2-.11.23.07C156.26,138.88,156,139.16,156.07,138.94Z" transform="translate(-4.51 -4.68)"/><path class="cls-5" d="M157.18,138.8s0,0,.09,0a.13.13,0,0,1-.05.2Z" transform="translate(-4.51 -4.68)"/><polygon class="cls-5" points="150.33 131.13 150.16 131.11 150.27 131 150.33 131.13"/><path class="cls-5" d="M155.21,131.33c-.09.13-.13-.11-.16-.13S155.07,131.4,155.21,131.33Z" transform="translate(-4.51 -4.68)"/><polygon class="cls-5" points="149.31 130.06 149.31 130.03 149.63 129.99 149.31 130.06"/><path class="cls-5" d="M116.17,130.36c.08-.06,0-.28.07-.12S116.17,130.46,116.17,130.36Z" transform="translate(-4.51 -4.68)"/><path class="cls-5" d="M115.18,129.52a.55.55,0,0,1,.52-.64c.27-.06.54,0,.75-.35.06-.05.06.44.17.32.38-.74,1.43-.23,1.57.46l-.09.1c0,.12.35-.18.4-.06s-.1.08-.15.18c.17-.18.21,0,.37-.09,0,.11-.18.25-.23.36l.25-.16c.32-.17.38,0,.4.08s0,.28.19.33a.27.27,0,0,0-.17.06c.53.2.53.84.56,1.35a1.3,1.3,0,0,0-.39-.09.39.39,0,0,1,.33.41c-.31-.06.19.34-.06.43l-.06,0c.23.28-.25.06,0,.36l-.24-.07c.32.32-.3,0-.18.21l.07.06c0,.15-.19,0-.21.14l0,0c-.08.23-.34.09-.13.38-.22-.19.09-.23-.24-.48a1.4,1.4,0,0,1-.09.17,1.64,1.64,0,0,1-1.72.45.69.69,0,0,1-.07-.32c-.07,0-.23,0-.35.13s0-.18,0-.2-.29.29-.34.09a.46.46,0,0,0,.21-.26c-.22.18-.34.08-.5.06a.37.37,0,0,0,.17-.13c-.32.16-.16-.19-.39-.13l.18-.11c0-.28-.35.24-.37,0a.45.45,0,0,0,.19-.11c-.39.11-.48-.19-.66-.29a.22.22,0,0,0,.08,0c-.14-.14-.1-.36-.31-.52.08-.1.48-.09.38-.24-.4.07-.19-.31-.63-.17,0-.21.24-.47.13-.61.13.1.49,0,.5.16l.26,0c.15.05-.07.07.13.09,0-.05-.11-.25,0-.27-.2-.17-.58-.47-.51-.7.09.16.41.17.44.26a3.51,3.51,0,0,1-.47-.67c0-.08.26.18.25,0s-.1-.14-.14-.23.19-.34.48,0c.12.1,0,.14.11.2s0-.21.14-.28l0,0c.1,0,.16-.28,0-.43-.07,0,.13.19,0,.15a.38.38,0,0,1,.28-.45c0,.08,0,.17,0,.28a1,1,0,0,1,.69-.66c0-.18-.12.34-.16.25.2.12.39,0,.6,0s.42,0,.48.21c-.06,0,.09-.25.07-.2.17.11,0,.34.17.31-.08.14.14,0,.27.07s0,.08-.12,0c.22,0,.91.31.87.78a.53.53,0,0,1,.48.16l-.24.06c-.1.12.12.29-.08.36.17.06.06-.12-.07-.25s-.27-.23-.11-.18c-.17.13.5.19.16.25.06.16.38.29.17.52,0-.06-.36-.1-.32,0s.12.06.21.27l.1.15c.24,0-.08.27.21.19-.18,0,0,.51-.37.35l-.29-.14c0,.11.25.3.31.47a.27.27,0,0,1-.15,0c.4.27-.2.27,0,.61-.32.14-.64.49-.89.26-.12.22-.27.45-.53.39,0,0,.1-.08.09-.18-.17-.11-.17,0-.29.11,0-.07-.3-.26-.41-.45-.17.13-.15.39-.19.55-.06-.25-.19-.2-.36-.16s-.36.06-.37-.19c.09,0,.34-.11.25-.27.08-.48-.46.17-.58-.22-.07.12-.13.24-.19.36,0-.26-.54-.2-.21-.44-.19,0-.12-.38-.42-.15a6.06,6.06,0,0,0-.22-.91c0-.29,0-.57.36-.66,0-.07,0-.22-.16-.22s.13.17,0,.19-.11-.09-.16-.1c.11-.15.17-.24.45,0,.29-.2-.56-.5-.2-.89.13.1.2.1.24,0s0-.25,0-.38c.27-.2.38.12.58.3,0-.08.1-.14.13-.22l-.12.12a.35.35,0,0,0-.05-.18l.34.14c-.24-.11,0-.18-.06-.27v.09c.09.06.13-.07.16-.13a.34.34,0,0,0-.35-.07c0-.13.06-.17,0-.33.14.22.27,0,.37,0s0-.26,0-.27.18-.08.19.13c0,.06-.14-.07-.13.07s.22.26.26,0-.26-.46,0-.4c0,.08,0,.18,0,.29l.23,0-.08-.22a.64.64,0,0,1,.06.1c0-.27.24-.18.2-.46.1,0,.26.09.35.11v0c.14.12.26,0,.33-.18v.06a.3.3,0,0,0,.27-.19c.17.17.09.9.23.6.13,0,.25-.43.19-.59.28.17.71-.15.89.28.07-.08.06-.15.17-.17.39.2,1.07.15,1.07.75-.16,0-.15.18-.24.29.22-.11,0,.24.21,0s.22-.24.17-.39c.3.07.61.39.54.63,0-.12.12-.12.21-.11-.28.2-.22.37,0,.42h0l.19-.1-.14.2c.09,0,.42-.17.32.07a.94.94,0,0,0-.18.14c.22.05.59.17.47.4l-.25.23c0,.06.26.13.31,0-.1.34-.11.53-.36.65a1.39,1.39,0,0,1,.39,1.86l-.15-.07c-.19.11.23.19.09.25-.13-.1-.35,0-.48-.19-.22.12.14.35.14.52.18.11-.06-.17.16,0,.05.06-.28.19,0,.38a.87.87,0,0,1-.4-.26l.06.19c-.38-.08-.39-.63-.86-.72v.1c-.32-.1-.2-.37-.4-.26.09.15.41.49.58.48,0,.24.57.52.36.74-.19,0,.11-.21-.13-.32s-.05.29-.2.33c.17,0,.35.27.32.38-.22,0-.15-.27-.33-.14.11.15,0,.4.27.36.23.36-.25.09-.15.41-.24-.18-.25-.66-.53-.61.21.18,0,.48.35.73-.13,0-.27-.17-.31-.35-.2-.07,0,.62-.35.18l.1.27c-.08-.06-.18-.09-.31-.19s-.22.53-.37.12c0,0-.29.13-.09.37s.12-.27.37.06c-.25-.25-.25.14-.33.28l-.06-.15c0,.09-.2.09-.2.27a.21.21,0,0,0-.09-.23v.26c-.24.18-.15-.42-.38-.3a1.76,1.76,0,0,0,.14-.23c0,.05-.15-.16-.24-.07a6.65,6.65,0,0,1-.09.7c-.14.11-.09-.25-.21,0l.16-.3c0-.08-.15-.36-.32-.36s-.29.42-.1.55a.21.21,0,0,1-.14-.31c-.21.07,0,.25-.17.39-.07-.17-.28-.4-.37-.64.08-.12.15-.24.22-.37h-.11c.17-.29,0-.24.09-.56,0-.06-.14,0-.22.11.11.55-.36.66-.42,1.13-.37,0,.13-1.16-.39-.54,0,.13-.26.42,0,.36-.17-.12-.3.4-.46.13.23-.12,0-.52.35-.69-.08.14.08.16.13.13,0-.2.17-.45,0-.51s-.25-.05-.34.19.17,0,0,.26c-.26,0-.09-.4-.41,0,.15,0,.06.31,0,.48h-.23l.12-.14c-.2-.27-.24.24-.49,0l.08-.38c.22-.22.29.34.5-.12-.14-.11-.33.08-.4-.13,0,0,.1,0,.16,0s.29-.63-.13-.46c-.19.05-.14.12-.26.27-.26-.14-.46-.06-.62-.19.29-.23-.21-.28.21-.38-.1.22.24.52.54.3.2-.4.13.18.44-.14-.16-.13.12-.46.27-.69,0,0-.13,0-.18,0-.19.18-.13.22-.31.43a.56.56,0,0,0-.65-.17c0-.15.27-.3.34-.25a1,1,0,0,1-.43-.67c-.3.36-.22-.22-.49,0,0,.18-.22.46-.43.47,0-.11.16-.09.22-.17-.27,0,.26-.35-.14-.31.25.21.51-.17.84-.26-.25-.08.22-.09.15-.24a1,1,0,0,1-.54-.51c.29-.29,0-.66.06-.91.19-.08.54.09.63,0s-.42,0-.19-.16l.06,0c-.06-.1.36-.22-.08-.53l.33.25s0-.09,0-.13.25.09.3.18c.29.06.07-.2.14-.31a.92.92,0,0,0-.23-.09c0-.32.31-.27.48-.45l.1.22c0-.06,0-.12.07-.19.06.23.19.35.21.14a1.1,1.1,0,0,0,0,.62c-.11-.1-.08-.27-.22-.47s-.28,0-.15.2c.07,0,0-.05,0-.16.2.27.12.31.25.5,0,0,.09,0,0-.05.06.15.07.19,0,.23-.06-.11-.17-.12-.23-.19.21.21.25.29.14.31-.33-.11.12.24,0,.28a1.16,1.16,0,0,1-.53-.42c-.18,0,0,.09-.21.13a4.08,4.08,0,0,1,.61.37l-.21-.05c.08.12.41.17.33.25a.57.57,0,0,0-.1.41l-.2.07c.45-.11.25.17.49.16-.09.27.37.15.15.47a2.78,2.78,0,0,1,.91.29l-.17.27c.15-.19,0,.19.05.17,0-.27.2-.28.29-.46.06.28.32.06.43-.17l0,.22c.14-.4.23,0,.39,0s.09.29.13.25a5.19,5.19,0,0,1,.06-.59.58.58,0,0,1,.31.1c0-.27,0-.38.08-.47s.15-.21.06-.39l.24.1c-.19-.25-.19-.29-.15-.39s.09-.19-.07-.24l.45-.06c.13-.1-.14-.12-.45,0,.12-.09-.23,0,.1-.19,0-.09-.22.05-.28.05l0,0c.07-.14,0-.16-.1-.14v0c.08-.06.22-.2.22-.24s0-.18-.34.27c.07-.14,0-.12-.07-.09s-.1,0-.08-.16a1.52,1.52,0,0,1-.09.26s-.07-.3-.15-.06c0-.07,0-.24,0-.25s0,.18,0,.27c-.06.27-.28-.23-.36-.12a.78.78,0,0,0,0,.19l-.73-.33c0,.08.3.14.17.11h0a.58.58,0,0,0-.21.07h0a.54.54,0,0,0,.15-.26v0c0-.09,0-.09,0,0v0s0,.09,0,.12h0a.58.58,0,0,0,.07.12.23.23,0,0,0,.07.07s0,0,0,0a.89.89,0,0,0-.53,0s-.15.06,0,0l.22-.09c.12-.05.16-.07,0,0l-.08,0c-.13.07.46-.35.21-.22s-.15.09-.3.21c.15-.15.29-.4.12-.23l.09-.13c-.16.18-.18.26-.13.16a.3.3,0,0,0,0-.1h0c0,.15,0-.34,0,.33h0a.52.52,0,0,0,.06.14,1.26,1.26,0,0,0,.28.29s.16.07,0,0h-.22l-.11,0h0l.53-.15h0v0h0s0,.05,0,0,0,0,.09.13c.15.3.22.33.21.25a.51.51,0,0,0,0-.09.62.62,0,0,0,.09.12c-.2-.27,0,0-.2-.3.09,0,0-.09,0-.12a1.83,1.83,0,0,0,.28.08l-.21-.07.1,0-.32-.07c-.15,0,0,0,.06-.07s.11-.29,0-.27c0-.17-.22-.05-.33,0-.39-.48-1.27-.6-1.54,0C115.48,130.67,115,129.88,115.18,129.52Z" transform="translate(-4.51 -4.68)"/><path class="cls-5" d="M116.12,130.39c0-.18-.11-.27-.08-.51A2.35,2.35,0,0,1,116.12,130.39Z" transform="translate(-4.51 -4.68)"/><path class="cls-5" d="M114,132.39s0,.08-.07.1-.19,0-.12-.1S113.92,132.39,114,132.39Z" transform="translate(-4.51 -4.68)"/><path class="cls-5" d="M114.43,133.34c-.13.09-.38,0-.47-.14A2.79,2.79,0,0,0,114.43,133.34Z" transform="translate(-4.51 -4.68)"/><path class="cls-5" d="M114.69,134.52c0,.16-.08.21-.18.12S114.62,134.57,114.69,134.52Z" transform="translate(-4.51 -4.68)"/><path class="cls-5" d="M115,134.28c.07.05,0,.15,0,.25C115.07,134.42,114.78,134.48,115,134.28Z" transform="translate(-4.51 -4.68)"/><path class="cls-5" d="M116.8,135.61c.06,0,.21-.11.23.08C117,135.56,116.72,135.83,116.8,135.61Z" transform="translate(-4.51 -4.68)"/><path class="cls-5" d="M117.91,135.47s.06,0,.09,0a.14.14,0,0,1,0,.21Z" transform="translate(-4.51 -4.68)"/><polygon class="cls-5" points="111.06 127.8 110.9 127.78 111 127.67 111.06 127.8"/><path class="cls-5" d="M115.94,128c-.09.13-.13-.12-.16-.14S115.8,128.07,115.94,128Z" transform="translate(-4.51 -4.68)"/><polygon class="cls-5" points="110.05 126.73 110.04 126.71 110.36 126.67 110.05 126.73"/><path class="cls-5" d="M135.3,132.5c-.05-.12-.29,0-.1-.1S135.4,132.49,135.3,132.5Z" transform="translate(-4.51 -4.68)"/><path class="cls-5" d="M139.86,149.09c-.36.81-.74,0-1.13.46,0,0,0-.45-.06-.35-.39.62-.91.2-1.29-.33l0-.12c-.07-.1-.2.31-.28.25a1.54,1.54,0,0,0,0-.24c0,.26-.16.11-.21.3,0-.11,0-.31,0-.42l-.07.28c-.19.68-.32-.07-.54.27a.4.4,0,0,0,0-.18c-.33.39-.69.28-1,.4a1.7,1.7,0,0,0,0-.4c0,.3-.15.37-.25.42,0-.31-.18.27-.26.09v-.07c-.11.32-.09-.2-.19.19l0-.25c-.08.44-.09-.24-.17,0v.09c-.07.1-.08-.12-.14-.06v-.05c-.14.11-.19-.15-.23.2,0-.28.14-.12.11-.52a1.77,1.77,0,0,1-1.32.15,1,1,0,0,1-.06-.32c-.05.06-.17,0-.23.21,0,0,0-.18,0-.2s-.13.37-.2.21a.81.81,0,0,0,.07-.33c-.1.26-.19.21-.29.28a.85.85,0,0,0,.06-.19c-.14.29-.17-.09-.28.09l.06-.19c-.1-.26-.09.41-.19.25a.51.51,0,0,0,.05-.22c-.15.35-.32.2-.47.3l0-.08c-.15,0-.24-.1-.45,0,0-.1.21-.46.06-.41-.17.38-.29.11-.43.54-.1-.08-.2-.26-.36-.16.14-.12.24-.43.36-.44l.09-.24c.12-.14,0,.07.14-.13,0,0-.26.13-.25.06-.26.22-.65.54-.82.5.18-.09.28-.32.39-.38l-.2.14a5.86,5.86,0,0,1-.55.3c-.05,0,.23-.22.1-.19a.68.68,0,0,1-.24.12s-.23-.11.08-.36c.11-.11.11,0,.2-.11s-.17,0-.21-.08l0,0c0-.08-.21-.08-.38.1,0,.05.2-.14.13,0-.22.08-.32,0-.35-.1A.9.9,0,0,0,129,148a.69.69,0,0,1-.58-.21c-.18.07.34-.06.24,0,.23-.29-.4-.31,0-.6,0,0-.27.08-.22.07s.31-.17.21-.21c.17,0,0-.08-.08-.14s.08,0,.09,0a.5.5,0,0,1-.07-.71c-.11,0-.36-.17-.34-.23l.24.05c.16,0,0-.19.23-.16-.28-.15.17.45,0,.27.21,0-.35-.25,0-.18,0-.1-.24-.26,0-.31-.05,0,.32.15.32.07s-.11-.06-.17-.17l-.09-.08c-.23-.06.06-.09-.22-.11.2,0-.08-.2.31-.09l.3.09s-.31-.16-.43-.23l.14,0c-.46-.13.07-.1-.27-.25.19-.06.08-.25.39-.22-.12-.11-.27-.23-.15-.29a.32.32,0,0,0,.15.09c.15,0,0-.06,0-.13a2.5,2.5,0,0,0,.48,0,1.51,1.51,0,0,0-.52-.22c.48.07-.22-.3.21-.26.06.05.19.18.33.16.47.08-.3-.24,0-.28l-.39-.1c.25,0-.16-.23.22-.09-.13-.08.16-.09-.21-.2.37-.07,0-.49.66-.37-.06,0,0-.09-.16-.14s.12.11,0,.08-.1-.07-.15-.09.14-.06.42.1c.27,0-.57-.35-.37-.45.15.06.21.07.2,0l-.23-.18c.1-.08.36.07.62.16,0-.07,0-.13-.17-.22l.34.06c-.24,0-.13-.1-.19-.15l.06.05c.11,0,.06-.06,0-.1a.49.49,0,0,0-.3,0c-.1-.07-.06-.1-.17-.18.24.1.2,0,.24-.05s-.2-.14-.18-.15,0-.07.21,0-.13,0,0,.06.33.1.19,0-.49-.17-.3-.21.15.09.23.15l.16,0-.22-.09c.06,0,.07,0,.11,0-.23-.12,0-.16-.28-.28,0-.06.19,0,.23-.07l0,0c.15,0,.09-.1,0-.2l0,0s0-.1-.09-.19c.19,0,.85.32.6.13,0-.08-.37-.28-.52-.31.2-.06-.1-.36.29-.33-.08-.06-.15-.07-.18-.13.16-.15-.1-.5.39-.46.07.09.22.09.35.14-.18-.12.23,0-.1-.12s-.3-.13-.41-.11a.2.2,0,0,1,.22-.3.3.3,0,0,1-.2-.11c.31.14.4.08.31,0l-.19-.09.21.05c-.05-.05-.39-.2-.18-.18l.21.07c-.13-.13-.36-.34-.17-.34l.31.07a.33.33,0,0,0-.27-.15c.22,0,.27-.11.53,0-.51-.46-.41-.76-.27-1l.14.06c.16,0-.24-.13-.12-.14s.32.08.47.2-.2-.22-.25-.3.11.1-.13,0c-.07,0,.2-.06-.08-.19a2.09,2.09,0,0,1,.44.19l-.12-.11c.37.07.54.4,1,.51l0-.07c.33.08.29.27.45.19a1.71,1.71,0,0,0-.67-.34c0-.15-.67-.34-.6-.46.19,0,0,.12.25.19s-.08-.17,0-.18a.8.8,0,0,1-.44-.22c.16,0,.26.15.32.08-.16-.09-.25-.22-.4-.2-.36-.19.15,0-.13-.22.28.09.58.35.76.31-.27-.09-.3-.26-.71-.37a.88.88,0,0,1,.44.17c.18,0-.41-.33.11-.14l-.26-.12.32,0s-.29-.3.11-.13c0,0,0-.14-.27-.21s.17.16-.22.05c.33.07,0-.12-.08-.2l.15.06c-.05,0,0-.09-.15-.17a.45.45,0,0,0,.23.08l-.22-.12c-.08-.14.42.15.39,0l.15.14s.2,0,.14,0l-.61-.33c-.07-.09.25.08.05-.06l.23.17c.07,0,.38.1.4,0a.8.8,0,0,0-.48-.25s.16,0,.3.06c0-.11-.23-.08-.34-.2.16,0,.39,0,.62.05l.33.22,0-.05c.26.18.23.06.52.22.06,0,0-.1-.1-.16-.52-.1-.62-.37-1.07-.52-.07-.18,1.11.35.47-.06-.13,0-.44-.22-.35-.09.08-.06-.42-.23-.2-.25.16.14.48.1.71.31-.15-.07-.14,0-.1,0s.44.18.47.1,0-.14-.24-.22,0,.09-.24,0c-.05-.14.34,0-.1-.22,0,.08-.25,0-.43-.08l-.08-.11.17.08c.16-.07-.3-.16-.21-.25l.36.08c.27.13-.19.11.28.27.05-.07-.18-.18,0-.2l.07.08s.66.19.34-.05c-.12-.11-.16-.08-.34-.15,0-.13-.17-.24-.17-.32.33.14.08-.12.4.09-.22,0-.26.14.05.31s-.09.07.31.25c0-.09.45.07.72.15,0,0-.08-.09-.11-.12-.24-.1-.25-.07-.51-.16.11-.08,0-.24-.21-.39.13,0,.38.12.38.17a.39.39,0,0,1,.18-.37c-.43-.07-.05-.17-.4-.24a1.07,1.07,0,0,1-.6-.12s.18.07.27.08c-.2-.13.39,0,.06-.13.09.17.48.2.79.34-.14-.15.23.08.26,0a1.18,1.18,0,0,1-.29-.42c.34,0,.11-.29.13-.4.18,0,.53.16.61.12s-.41-.08-.2-.13l.06,0c-.07-.06.32-.11-.2-.31l.39.16s0,0-.08-.08a1.16,1.16,0,0,1,.33.11c.29,0,0-.15,0-.23l-.24,0c-.15-.18.1-.19.05-.33l.23.07-.11-.11c.22.08.38.05.2,0l.51.35c-.15,0-.26-.14-.5-.17s-.17.1,0,.18c0,0,0-.05-.08-.11.32.08.29.14.5.24,0,0,.1,0,0-.07.14.1.15.15.14.22s-.21,0-.29-.07c.28.09.34.18.24.25-.35,0,.15.24,0,.32a3,3,0,0,1-.57-.36c-.16,0,0,.07-.18.09a2.53,2.53,0,0,1,.62.35l-.21-.06c.08.11.39.21.3.29a1.54,1.54,0,0,0-.29.43l-.21-.06c.42.22.08.29.24.46-.26.09.07.42-.32.37a1.19,1.19,0,0,1-.08.92l-.28-.16c.2.13-.18,0-.16,0,.26,0,.28.19.45.3-.28,0-.1.31.06.51l-.2-.08c.33.27-.06.27-.18.39s-.29-.07-.29,0a1.3,1.3,0,0,1,.42.44.52.52,0,0,1-.34.22c.33.5-.1.7,0,1.14l-.24-.07c.37.52-.25.72-.1,1.09l-.4-.19c-.16,0,0,.23.32.33-.16,0,.11.29-.24.21-.11.05.14.18.16.27-.22.11-.21.19-.2.38l0,0c-.08-.05-.26-.13-.3-.1s-.2.18.31.32c-.35.06.07.49-.38.51.14,0,.15.09.23.14s-.39.2-.21.41c-.08,0-.21-.13-.25-.07s.17.07.23.14c.15.35-.46.39-.47.64.1.49-.18.84-.26,1.23l-.1,0c.34.26-.5.16,0,.45-.11,0-.08.1-.27,0,.24.19-.34.2,0,.45,0,0,0,0,0-.05-.27.07,0,.29-.24.38a.57.57,0,0,0-.17-.1c-.21,0,.39.26-.11.16,0,0,.24.09.23.07a.56.56,0,0,0-.13.5,2.3,2.3,0,0,0,.06.28l0,.14,0,.05c-.32,0-.86-.09-.5,0-.1,0,.2,0,.09,0,.14,0-.59,0-.32.08a1.81,1.81,0,0,1,.37,0c-.21.07-.51.14-.27.17l-.18,0c.48,0,.21.12.78,0,0,.08.18.1.31,0a.48.48,0,0,0,.22-.18,0,0,0,0,0,0,0h.17l.6.06a3.42,3.42,0,0,1,1.19.27c.15.45.17.44.4.29a.26.26,0,0,0,0,.15c0-.35.15,0,.2-.35a3.46,3.46,0,0,0,.91.05s-.1.32,0,.3l.08-.22v.1a.41.41,0,0,0,.08-.33c.82-.24,1.54.54,2.33.51.17.16.44,0,.65,0,.56.51,1.08.93,1.69.62C140.24,148,140.13,148.89,139.86,149.09Z" transform="translate(-4.51 -4.68)"/><path class="cls-5" d="M135.29,132.63a1.11,1.11,0,0,1-.5-.11C135,132.56,135.14,132.58,135.29,132.63Z" transform="translate(-4.51 -4.68)"/><path class="cls-5" d="M133,133.85s-.08,0-.11,0-.14-.1,0-.08S132.92,133.82,133,133.85Z" transform="translate(-4.51 -4.68)"/><path class="cls-5" d="M132.73,134.26a.38.38,0,0,1-.23-.26Z" transform="translate(-4.51 -4.68)"/><path class="cls-5" d="M132,134.43q-.21,0-.18-.09Z" transform="translate(-4.51 -4.68)"/><path class="cls-5" d="M132.29,134.59s-.1,0-.19,0C132.23,134.64,132.05,134.49,132.29,134.59Z" transform="translate(-4.51 -4.68)"/><path class="cls-5" d="M131.52,135.31s.11.12-.06.07C131.58,135.4,131.31,135.2,131.52,135.31Z" transform="translate(-4.51 -4.68)"/><path class="cls-5" d="M131.58,135.81s-.05,0,0,0a.24.24,0,0,1-.18-.1Z" transform="translate(-4.51 -4.68)"/><polygon class="cls-5" points="124.57 139.1 124.52 139.03 124.66 139.09 124.57 139.1"/><path class="cls-5" d="M128.44,148.21c.11,0-.12.12-.14.14S128.48,148.28,128.44,148.21Z" transform="translate(-4.51 -4.68)"/><polygon class="cls-5" points="126.32 144.35 126.3 144.35 126.44 144.05 126.32 144.35"/><path class="cls-5" d="M129.16,159.93c-.14,0-.07.28-.13.08S129.17,159.83,129.16,159.93Z" transform="translate(-4.51 -4.68)"/><path class="cls-5" d="M157.23,154.07c.48.77-.51.75-.31,1.41,0,.06-.37-.27-.34-.11.29.71-.38,1.08-1.11,1.15l-.09-.1c-.13,0,.13.36,0,.41s-.08-.1-.18-.15c.18.17,0,.21.1.36-.11,0-.26-.16-.38-.19l.19.23c.43.57-.29.28-.16.68a.4.4,0,0,0-.13-.13c.08.54-.24.87-.43,1.25a1.29,1.29,0,0,0-.29-.28c.21.22.18.36.14.48-.26-.18.07.33-.14.31l0-.06c.16.3-.24,0,0,.3l-.21-.14c.28.35-.26-.06-.16.15l.06.07c0,.13-.16,0-.15.1l0,0c0,.2-.27.09,0,.34-.23-.16,0-.2-.32-.43a2,2,0,0,1-1,1.26.89.89,0,0,1-.29-.17c0,.08-.11.17,0,.34,0,0-.14-.12-.17-.12s.14.37,0,.31a.63.63,0,0,0-.17-.29c.09.27,0,.31-.06.45a.45.45,0,0,0-.09-.19c.09.32-.2.08-.17.3l-.09-.19c-.27-.1.2.38,0,.35,0-.08-.07-.13-.11-.2.1.38-.16.38-.2.55l0-.07c-.1.11-.3.1-.35.31-.1,0-.24-.42-.33-.28.21.34-.14.27.17.62-.15,0-.41,0-.42.15,0-.16-.29-.4-.21-.48l-.19-.17c-.07-.15.1,0,0-.17,0,0-.1.26-.17.23,0,.26.17.73,0,.85,0-.18-.24-.38-.22-.46l.12.78s-.14-.28-.17-.16a.88.88,0,0,1,.06.26s-.18.18-.36-.17c-.09-.13,0-.11-.07-.21s0,.16-.13.21l0,0c-.09,0-.12.24,0,.41.05,0-.11-.21,0-.14.05.23,0,.34-.13.39a1.26,1.26,0,0,0-.07-.28,1.23,1.23,0,0,1-.21.67c.06.18-.07-.34,0-.25-.28-.17-.26.51-.55.21,0,0,.1.25.08.2s-.19-.26-.21-.14c-.06-.15-.07.07-.11.13s0-.07,0-.1c-.05.15-.34.49-.61.32,0,.1,0,.41-.07.42l0-.25c-.08-.13-.15.07-.22-.14,0,.32.32-.35.25-.09-.09-.19-.09.43-.15.1-.09,0-.11.33-.26.13,0,0,0-.35-.08-.31s0,.12-.1.23l0,.12c.05.24-.13,0,0,.25-.06-.19-.17.17-.24-.22l-.05-.31s0,.35,0,.49a.29.29,0,0,1,0-.14c.08.48-.16,0-.15.36-.16-.14-.33,0-.44-.25-.07.16-.14.34-.26.26a.34.34,0,0,0,0-.17c-.09-.13-.09,0-.14.08,0-.07-.18-.26-.28-.41a1.32,1.32,0,0,0,0,.56c-.14-.45-.23.35-.39-.06,0-.07.11-.26,0-.36-.14-.46-.14.37-.3.16l.07.39c-.09-.23-.2.24-.21-.16,0,.15-.18-.12-.14.26-.25-.31-.57.22-.74-.47,0,.07-.11,0-.09.2s.07-.15.1,0,0,.12,0,.17-.13-.11-.07-.43c-.16-.23-.15.66-.37.51,0-.16,0-.21-.06-.19l-.12.28c-.13-.06-.07-.36-.07-.63-.07.05-.16,0-.19.24l-.08-.34c.05.25-.06.16-.1.22l0-.06c0-.11-.1-.05-.14,0a.43.43,0,0,0,.13.29c0,.12-.09.09-.15.22,0-.26-.1-.19-.16-.22s-.08.23-.1.22-.11,0-.05-.22c0,0,.05.13.09,0s0-.35-.12-.18,0,.52-.13.35a1.6,1.6,0,0,0,.08-.26l-.11-.15v.24c0-.06,0-.08,0-.11,0,.25-.18.06-.23.34-.06,0-.12-.17-.17-.2v0c-.06-.15-.16-.06-.23.09v0s-.13,0-.19.15c-.08-.19.06-.91-.08-.62-.09,0-.2.43-.18.59-.15-.17-.4.19-.51-.21,0,.09,0,.15-.09.2-.24-.14-.59.19-.71-.31.09-.09,0-.24.06-.37-.09.2,0-.23-.11.13,0,.21-.06.32,0,.41a.3.3,0,0,1-.46-.16.22.22,0,0,1-.06.22c.07-.33,0-.4-.14-.3l-.05.21v-.23c-.05.07-.13.43-.17.22a2,2,0,0,0,0-.23c-.12.15-.3.41-.36.21v-.32s-.15.19-.1.29c-.12-.22-.22-.27-.2-.54a.86.86,0,0,1-1.15.36l.05-.15c0-.16-.12.26-.15.14s0-.34.14-.5c-.07-.19-.23.23-.33.27-.06.2.1-.11,0,.14,0,.07-.12-.21-.23.09a1.53,1.53,0,0,1,.14-.46l-.11.12c0-.38.39-.56.42-1l-.08,0c0-.34.28-.3.15-.46a1.33,1.33,0,0,0-.28.7c-.18,0-.29.69-.44.61,0-.19.14,0,.18-.25s-.19.08-.23,0a.6.6,0,0,1-.19.46c0-.16.15-.26,0-.33-.08.17-.23.26-.17.41-.17.38-.09-.15-.25.13,0-.28.33-.59.24-.77-.06.27-.28.31-.34.72a.82.82,0,0,1,.13-.45c0-.19-.33.42-.18-.11l-.12.26c0-.09,0-.17,0-.33s-.33.3-.18-.1c0,0-.18,0-.22.27s.17-.18.09.22c.05-.33-.14,0-.23.09l.05-.16c-.06.05-.12,0-.2.15a.36.36,0,0,0,.07-.24l-.12.23c-.17.07.12-.43,0-.41l.16-.15s0-.2-.08-.15l-.32.61c-.11.07.06-.25-.09-.06l.18-.22c0-.07.07-.38,0-.41s-.29.33-.24.48c-.05,0-.06-.17,0-.31-.13,0-.07.23-.21.33,0-.15,0-.4,0-.64l.23-.32-.06,0c.19-.26.05-.24.21-.53,0-.06-.11,0-.18.09-.07.53-.4.61-.54,1.07-.21.06.32-1.12-.13-.49,0,.12-.23.43-.07.34-.09-.09-.25.42-.3.19.16-.15.08-.49.32-.7-.07.14,0,.14.06.1s.19-.44.08-.48-.17,0-.25.23.11,0,0,.25c-.16,0,0-.36-.26.07.09,0,0,.27-.06.44l-.14.07.08-.16c-.1-.18-.17.28-.3.18l.07-.36c.15-.27.16.21.33-.26-.09-.06-.22.17-.26,0s.07,0,.1-.07.2-.66-.08-.36c-.13.11-.09.16-.17.33-.17,0-.29.15-.4.13.17-.33-.16-.11.1-.41,0,.22.19.3.38,0s.1.11.3-.28c-.12-.06.06-.46.15-.72,0,0-.11.06-.14.09a4.24,4.24,0,0,0-.18.5c-.11-.12-.29,0-.47.16,0-.14.13-.37.19-.37a.61.61,0,0,1-.46-.25c-.08.44-.21,0-.29.38a.81.81,0,0,1-.14.59c0-.05.08-.17.1-.27-.16.19,0-.39-.16-.07.2-.07.24-.47.41-.77-.19.13.1-.22,0-.26a1.33,1.33,0,0,1-.52.22c0-.35-.36-.18-.49-.23s.21-.51.17-.6-.11.4-.16.18l0-.06c-.08.06-.11-.34-.39.13l.22-.35c0-.05-.07,0-.11.06a1.11,1.11,0,0,1,.16-.31c.05-.29-.18,0-.27-.07l-.05.25c-.23.1-.21-.16-.39-.15l.11-.22-.15.09c.13-.19.12-.37,0-.21l.47-.43c0,.16-.19.23-.26.46s.1.21.22,0c0,0-.06,0-.14.06.13-.31.2-.26.34-.44,0,0,0-.11-.08,0,.12-.12.18-.12.27-.09-.11.09-.06.2-.12.28.13-.26.25-.31.32-.18-.08.34.28-.11.36,0a1.92,1.92,0,0,1-.47.5c0,.17.09,0,.1.2a2,2,0,0,1,.46-.55l-.09.2c.14,0,.27-.35.36-.24a1.72,1.72,0,0,0,.48.37l-.09.2c.28-.39.35,0,.54-.18.11.28.49,0,.44.38a1.82,1.82,0,0,1,1.07.16l-.18.28c.15-.2,0,.18.05.16,0-.26.21-.27.32-.43.07.29.36.11.58-.05l-.07.21c.28-.33.31.07.46.2,0,.09-.05.3,0,.3a1.3,1.3,0,0,1,.46-.43.58.58,0,0,1,.3.33c.53-.35.82.08,1.29-.08l0,.26c.53-.44.87.16,1.26,0l-.13.42c.07.16.26-.05.31-.36.07.15.29-.15.28.22.09.11.17-.17.27-.22.18.2.26.18.48.13l-.05,0c0,.09-.07.27,0,.31.1-.11.26.16.27-.37.16.33.52-.16.67.28,0-.15.06-.17.09-.26.18,0,.34.33.52.1,0,.07-.08.24,0,.26s0-.19.08-.27c.32-.24.58.32.86.28a4.24,4.24,0,0,1,1.43-.19v.11c.12-.41.38.4.46-.21,0,.1.14,0,.13.25.1-.28.36.22.5-.16,0,0,0,0,0,.06.21.2.32-.14.53,0a.38.38,0,0,0,0,.19c.11.18.1-.47.22,0,0,0,0-.26,0-.24a.83.83,0,0,0,.62-.09c.19-.13.37-.3.56-.41.37.21.24.82.37.39.05.09,0-.19,0-.09.05-.16.3.5.29.23s0-.18-.06-.36c.24.14.36.4.43.13l.05.16c0-.47.29-.32.23-.89.41-.23.79-.5,1.16-.75s.68-.62,1.05-.87a3.86,3.86,0,0,0,1.09-.75,5.16,5.16,0,0,1,1.15-.74c.45.17.46.15.51-.15,0,0,0,.08.1.11-.24-.26.1-.14-.12-.41a4.93,4.93,0,0,0,.7-.74c0,.07.18.29.21.22l-.11-.2.08.06a.43.43,0,0,0-.22-.27c.38-.85,1.45-1.12,2-1.87.25-.09.31-.43.38-.66.77-.31,1.46-.65,1.58-1.42C156.5,153.15,157.23,153.7,157.23,154.07Z" transform="translate(-4.51 -4.68)"/><path class="cls-5" d="M129.31,160c-.06.17,0,.29-.19.47A3.29,3.29,0,0,1,129.31,160Z" transform="translate(-4.51 -4.68)"/><path class="cls-5" d="M130.62,162.61c0-.05,0,.08,0,.11s-.12.13-.1,0S130.57,162.67,130.62,162.61Z" transform="translate(-4.51 -4.68)"/><path class="cls-5" d="M131.13,163a.33.33,0,0,1-.32.19Z" transform="translate(-4.51 -4.68)"/><path class="cls-5" d="M131.39,163.78c0,.14,0,.21-.1.18A.64.64,0,0,1,131.39,163.78Z" transform="translate(-4.51 -4.68)"/><path class="cls-5" d="M131.57,163.47c.05,0,0,.11,0,.2C131.64,163.55,131.45,163.7,131.57,163.47Z" transform="translate(-4.51 -4.68)"/><path class="cls-5" d="M132.56,164.35s.14-.1.11.08C132.68,164.3,132.46,164.56,132.56,164.35Z" transform="translate(-4.51 -4.68)"/><path class="cls-5" d="M133.19,164.34s0,0,.05,0-.07.18-.1.18Z" transform="translate(-4.51 -4.68)"/><polygon class="cls-5" points="139.32 160.72 139.26 160.81 139.26 160.65 139.32 160.72"/><path class="cls-5" d="M148.44,164.24c0-.12.1.12.12.14S148.5,164.19,148.44,164.24Z" transform="translate(-4.51 -4.68)"/><polygon class="cls-5" points="145.81 157.72 145.79 157.74 145.63 157.46 145.81 157.72"/></svg>