<svg id="레이어_1" data-name="레이어 1" xmlns="http://www.w3.org/2000/svg" xmlns:xlink="http://www.w3.org/1999/xlink" viewBox="0 0 200 200"><defs><style>.cls-1{fill:none;}.cls-2{clip-path:url(#clip-path);}.cls-3{fill:#25aed4;}.cls-4{fill:#d1d1d1;}.cls-5{clip-path:url(#clip-path-2);}.cls-6{fill:#ea7259;}.cls-7{fill:#202020;}</style><clipPath id="clip-path"><circle class="cls-1" cx="100" cy="-118" r="100"/></clipPath><clipPath id="clip-path-2"><circle class="cls-1" cx="100" cy="100" r="100"/></clipPath></defs><g class="cls-2"><path class="cls-3" d="M53.51-98.82c-9,15.15-15.91,31.71-17.17,49.76A64.08,64.08,0,0,0,50.65-4.28c22.92,27.67,64.49,17.21,87.62-4.52,14.6-13.7,9.37-37.15,2.14-53.58C134-76.92,121.11-89,106.13-92.11,89-95.66,71.65-90.31,61.44-74.58c-9.55,14.71-8.74,34.17-2,49.81,12.4,28.62,48.39,44.2,75.74,31.9,17.88-8,25.57-27.25,22.2-47.05-1.5-8.79-5.61-17.14-10-24.66a108.13,108.13,0,0,0-13.28-18.61C122.74-95.57,106.2-103.07,90-97.77,75.41-93,64.25-80,58.37-65.34c-6.72,16.79-9.5,37.72,1.31,53.41,9.2,13.35,24.86,21.09,40.44,20C116.88,7,131.18-2.48,141-16.68,151.14-31.21,153.52-49.54,151-67c-2.61-17.85-11.55-33.56-22.09-47.33-10.07-13.15-23.27-29.14-40.8-27.57-18.79,1.68-30.86,16.69-38.62,33.72-7.93,17.44-12.3,35.78-9.25,55.15C42.92-35.84,53.47-20.5,67.86-12.24,81.65-4.33,98-1.61,113.49-3.59c17-2.18,36.46-9.18,45.87-25.65,5-8.69,4.78-18.7,4.28-28.49a157.19,157.19,0,0,0-3.4-27.38c-2.83-12.16-8.35-23.19-17.14-31.62-7.11-6.82-15.92-12.89-25.46-14.77-11.48-2.27-23.53,1.37-29.3,13-5.3,10.71-4.18,24.38-1,35.62C89.46-75.45,93.1-67.95,99.65-64a19.71,19.71,0,0,0,23.93-3.22c8.64-8.68,7.51-22.82,1.79-32.89-6-10.49-17.25-18.35-29.09-15-6.86,1.94-12.12,7.17-15.81,13.45-5,8.5-5,18.58-3,28.1,2,9.22,7.79,17.95,16.66,20.6,10.93,3.26,21.57-3.27,27-13.32,4.41-8.19,6.33-18.78,5.87-28.14-.32-6.25-1.37-12.66-5.65-17.34a20.39,20.39,0,0,0-15.17-6.84c-22,0-28.31,28.67-28.73,47.14-.35,15,1.55,31.55,9,44.62,3.87,6.76,9.49,13.06,16.21,16.61,10.88,5.74,24.57,5.1,31.3-7.2,4.5-8.23,4-19.52,3.55-28.74-.46-8.88-1.26-18.72-4-27.17C131-80.9,125.05-87.2,117.1-87.27c-6.71-.06-12.63,3.68-16.22,9.69-5.26,8.82-6.21,20-3.82,30,1.17,4.88,5.42,10,10.24,10.91l3.81.73c7.52,1.42,16.16-2.17,18-10.92,1.63-7.61-2.16-17.68-10.24-19.21l-3.8-.72,10.23,10.91c-.92-3.85-.23,3-.26-1a18.31,18.31,0,0,1,0-2c.07-1.18,0-.88-.18.89-.14-1.07.64-2.87,1-3.81l-.48,1.3q3.47-5.81-8.31,4.48l-7.4-2.14-2.15-3.2q-2.8-5.3-2-2.69a13.07,13.07,0,0,0,.46,1.92c.38,1.64.7,3.31,1,5,.25,1.43.45,2.87.69,4.3.41,2.48-.17-2.35,0,.17.07,1,.19,1.93.27,2.89q.39,4.71.41,9.44c0,1.46,0,2.91-.06,4.37,0,1.24-.76,4.38-.3,5.44,0-.11.5-3.12.08-1.44s.53-1.15.57-1.22c1.87-3,5.71-5,9-4.13-3.23-.88.37.24.23.37a8.61,8.61,0,0,1-1.36-.76c-.45-.26-.87-.55-1.31-.81-1.91-1.13.18.57.56.6-.76-.05-1.93-1.91-2.5-2.48a7.7,7.7,0,0,1-1-1.15c.06-.13,1.64,2.63.79,1.12-1.18-2.12-2.38-4.15-3.42-6.36-.75-1.6.57,1.3.51,1.27a10.52,10.52,0,0,1-.68-2c-.33-1-.62-2.06-.89-3.11-.59-2.32-.57-5.35-1.46-7.49,0,0,.34,3.23.18,1.45,0-.54-.12-1.08-.17-1.62q-.16-1.87-.27-3.75c-.17-3.12-.25-6.25-.17-9.38,0-1.36.09-2.73.18-4.09.05-.68.11-1.35.16-2,0-.29.38-2.49.07-.62-.34,2,.18-.8.27-1.28.12-.66.26-1.32.41-2q.52-2.32,1.26-4.56c.21-.65.42-1.29.67-1.92-1,2.65-.22.61.06.12.66-1.14,1.87-3,.31-.87.5-.68,1.48-.82.28-.34s-2,1.34-3.26,1.52a7.11,7.11,0,0,1-3-.17l-1.84-.83-4.6-6c0-.14-.22-3.33-.12-1.26,0,.7.11,1.4.13,2.1.06,1.65-.12,3.27-.11,4.91s.07-.35.12-.67c-.12.7-.23,1.39-.38,2.08-.37,1.85-1,3.62-1.46,5.43-.58,2,.27-1.06.42-1.06a12.51,12.51,0,0,0-.76,1.47c-.53,1.43.56-.66.77-.89-1.77,1.93.32,0,.72-.25-.63.42-1.61.55,0,.14a13.26,13.26,0,0,1,2.74-.78,7.47,7.47,0,0,1,3.19.68c.6.27,3.53,2.75,2.12,1.2-.08-.09,2,2.72,1.09,1.3s.58,1.46.52,1.59c.16-.34-.71-2.36-.82-2.81a16.06,16.06,0,0,0-.37-1.94s.28,3.39.22,1.77-.16-3-.25-4.53c0,.83-1,2.78,0,.18-.09.22-1.2,2.17-.37,1.19A12,12,0,0,0,106.45-87c.63-1.29-1.08,1.59-1.16,1.61.23-.07.79-.92.93-1,1.76-1.34-3.23,2-.82.74.9-.46-3.9,1.43-1.57.73,2.61-.78-3.66.31-1.72.27s-4-.71-2-.27c2.67.58-2.35-1.57-1.2-.62a5,5,0,0,0,1.31.86c-1.07-.31-3-2.92-1.13-.83.37.41.75.85,1.13,1.25,1.83,1.9-1.63-2.82-.77-1.07.42.86,2.26,4.68,1.1,1.69s0,1.18.41,2c.22.56-.37-4.68-.33-1.91,0,2.47.26-1.83.34-2.32-.39,2.29.72-1.67,1-2.11-.69,1.33,2.91-3.41,1.08-1.52a8.45,8.45,0,0,1,4.6-2.9c-2.33.77,2.28-.07,3.12,0A9.88,9.88,0,0,1,114.45-91c-.48-.29-1.46-1,.47.47s1,.76.54.28c2.77,3,1.46,2.26.89,1-.27-.57-1.43-3.18-.41-.68s-.15-.69-.32-1.27c-.49-1.73-.87-3.5-1.19-5.28-.11-.61-.2-1.22-.31-1.84-.37-2.17.41.69.14,1.12.5-.8-.22-5-.18-6.23,0-.39.08-.78.09-1.17.07-1.91-.79,3.73-.22,2a18.06,18.06,0,0,0,.46-1.93c.61-2.8-1.35,3-.51,1.27,1.18-2.47-1.24,1.46-1,1.18.49-.61,1.93-1.78-.29,0-2.42,1.93-.59.41,0,.13,1.9-.86-3.69,1.73-1.79.82a4,4,0,0,1,.68-.19c2.3-.55-2.23.35-2.22.25,0-.41,5.75.44,1.67-.19-3.13-.5,1,.3,2,.6.68.21,1.33.48,2,.72,2.44.88-2-1-1.18-.54,1.3.85,2.76,1.46,4.07,2.3s2.48,1.74,3.71,2.64c2,1.43-2.54-2.33-.77-.62.69.67,1.43,1.29,2.11,2q1.68,1.65,3.19,3.45c.46.55.86,1.17,1.35,1.68,1,1.06-1.31-1.88-1.24-1.72a13.91,13.91,0,0,0,1,1.47c.81,1.26,1.51,2.58,2.2,3.92,1.2,2.3.19-.5-.15-.61.54.18,1.34,3.89,1.53,4.53a82.08,82.08,0,0,1,2.07,8.63c.17.9.31,1.81.46,2.71,0,.24.41,2.51.12.65s.05.41.08.66c.1.92.19,1.83.28,2.75.27,3,.45,6,.6,9,.16,3.21-.18,6.73.26,9.89.23,1.57.13,0,.21-.57-.1.69-.41,1.43-.46,2.11-.17,2.3,1.27-2,.22-.4-.07.09-.77,1.52-.82,1.49s1.86-2.17.65-.84c-.38.42-.73.88-1.12,1.3s-.86.79-1.21,1.23c-1.07,1.33,2.11-1.41-.14.17a69.4,69.4,0,0,1-6.14,3.79c-2.45,1.36-.59.36,0,.1-.59.27-1.19.51-1.79.75-1.41.56-2.84,1.06-4.28,1.51-2.7.84-5.44,1.37-8.19,1.94-1.71.35.47-.08.69-.1-.86.07-1.72.19-2.58.26-1.51.11-3,.18-4.52.2-2.64,0-5.25-.12-7.87-.34-2.91-.24,2.15.48-.72-.09-1.52-.31-3-.61-4.55-1-2.43-.64-4.76-1.54-7.13-2.39-1.68-.59.87.41.87.41-.29.06-1.27-.63-1.54-.78a44.66,44.66,0,0,1-3.94-2.32c-.45-.29-3.3-2.21-1.74-1.13s0,0-.27-.25c-.55-.52-1.12-1-1.66-1.57-.81-.82-1.56-1.69-2.32-2.55-.17-.2-1.45-1.85-.36-.39s-.41-.69-.59-1A41.32,41.32,0,0,1,71.2-51.4c-.6-1.24-1.14-3.4-.44-.86-.78-2.84-1.63-5.58-2.18-8.49-.07-.35-.3-2.44-.09-.43.22,2.17,0-.54,0-1.07-.09-1.26-.13-2.52-.13-3.79s.05-2.57.13-3.85c0-.46.25-3.42.07-1.42-.17,1.83.17-1.07.22-1.4a79.33,79.33,0,0,1,2.05-8.91c.39-1.36.82-2.71,1.27-4,.23-.67.46-1.34.71-2,.37-1,1.18-2.93.31-.89A127.82,127.82,0,0,1,81-104.18c.34-.56,1.71-2.24-.08,0,.4-.5.79-1,1.2-1.49.82-1,1.82-1.82,2.62-2.8,1-1.28-.39.25-.65.44.62-.45,1.23-.91,1.88-1.32.48-.3,1-.54,1.49-.86,1.53-1.1-2.18.6-.38.15a14,14,0,0,0,1.62-.54c2.26-.86-.36.68-.6-.1,0,0,3.35-.11,3.33-.06-.09.36-2.77-.84-1.16-.09.23.11,1.56.27,1.65.52s-3.16-2-.37,0c.63.45,1.28.92,1.93,1.33-2.09-1.32-.37-.28.61.68s2,2,2.94,3c2.1,2.24,4.16,4.53,6.15,6.88,1.71,2,3.38,4.05,5,6.15.26.34,1.92,2.57.82,1.07s.27.39.39.56c.86,1.27,1.72,2.54,2.55,3.84,1.52,2.4,3,4.86,4.27,7.4q1.06,2.05,2,4.15c.27.6.52,1.22.8,1.81-.63-1.35-.44-1.24,0,.08a79.84,79.84,0,0,1,2.54,8.55c.31,1.34.59,2.69.82,4,.08.47.4,3.35.21,1.32s0,1,.07,1.34a67.65,67.65,0,0,1-.08,8.89c-.2,3,.44-1.71-.21,1.27-.39,1.8-.77,3.58-1.3,5.34-.24.81-1.11,2.32-1.06,3.14,0-.17,1.2-2.63.41-1.17-.26.49-.46,1-.71,1.51q-.85,1.76-1.86,3.42c-.28.48-.59.94-.87,1.42-1,1.61-.08.47.38-.43-1,2-3.17,3.87-4.74,5.39-.4.39-.81.75-1.21,1.13-1.73,1.64.33-.48.44-.33s-2.88,2-3.15,2.18-3.32,1.83-3.32,1.86,2.64-1,1-.46c-.51.18-1,.4-1.52.58-1,.37-2.08.68-3.14.95a10.25,10.25,0,0,0-2,.43c.57-.41,3-.26.88-.16-1,0-2,.11-3,.1-.51,0-1,0-1.52-.05-.71,0-2.64.3-.58,0,1.62-.22.74.14,0,0l-1.49-.33a32.48,32.48,0,0,1-3.86-1.19,8.45,8.45,0,0,0-1.41-.56c.12,0,2.56,1.35,1.23.5-.84-.54-1.75-1-2.59-1.51-.55-.36-1.07-.82-1.64-1.14-1.48-.85,1.22.79,1,.88s-2.18-2.18-2.45-2.46a11.41,11.41,0,0,1-1-1.14c.23-.37,1.71,2.87.58.72-.21-.4-1.59-2.23-1.43-2.64,0-.08.88,2.93.36.91-.22-.86-.53-1.7-.74-2.57-.16-.65-.25-1.32-.41-2,.34,1.37.12,1.86.08.15,0-1.36-.08-2.71,0-4.07q.06-1.38.21-2.73c0,.3-.5,2.46,0,.74.82-3.07,1.34-6.17,2.35-9.2.08-.24.61-1.32.53-1.54,0,.06-1.19,2.76-.47,1.16.53-1.18,1-2.38,1.62-3.54.33-.66,4.06-6.58,4-6.72.08.12-1.79,2.22-.65.94.37-.4.69-.86,1-1.27.71-.83,1.44-1.64,2.2-2.4.21-.21,1.57-1.4,1.56-1.48,0,.1-2.29,1.69-.93.75,1-.69,2-1.42,3-2a10.44,10.44,0,0,0,1.81-1c-.09.16-2.65,1-1.14.56a29.57,29.57,0,0,0,3-.9c1.66-.62-1.45.18-1.34.11a7.4,7.4,0,0,1,2.11-.16c.55,0,1.09,0,1.63,0s2.57.62.71,0l1.63.55c3.47,1.09-1.43-1,.84.23.93.52,1.85,1,2.75,1.61.6.4,1.17.82,1.76,1.24,2,1.42-.5-.29-.43-.39s4.8,4.82,5.09,5.16c.74.86,1.46,1.73,2.16,2.63.14.17,1.07,1.14,1,1.35.06-.43-1.61-2.34-.3-.39A122.44,122.44,0,0,1,126-41.53c.4.83,2,4.72,1,2,.46,1.29.9,2.59,1.26,3.92.13.5,1.2,3.71.89,4,.06-.07-.2-3.28-.14-.76,0,.77.06,1.53.06,2.29,0,.57-.09,1.16-.07,1.73.07,1.73.05-1.15.22-1.31a20.28,20.28,0,0,0-.89,3.89c-.28,1.74.24-1.09.52-1.07-.06,0-.67,1.41-.73,1.53s-.8,1.49-.82,1.47Q129-26,128-24.7c-.24.3-.48.59-.74.86s-1.07,1.3-1.22,1.25,2.31-1.52.72-.61c-.82.46-2.56,2.16-3.49,2.08,0,0,2.57-.86.82-.44-.55.14-1.11.4-1.66.57-.87.27-3.77,1.47-4.57,1.08,0,0,2.83-.23,1-.18-.54,0-1.09.1-1.63.13-1,.06-2.11.08-3.16.06-1.23,0-2.44-.17-3.67-.23-1.65-.08,1.23.16,1.31.21a7.76,7.76,0,0,0-2.06-.4,46.83,46.83,0,0,1-6.52-1.93c-3.25-1.23,1.48.9-.83-.31-1.08-.56-2.17-1.12-3.22-1.75-1.65-1-3.89-3.45-5.62-3.86.11,0,2.12,1.9,1,.75-.37-.37-.78-.7-1.16-1.06q-1.52-1.43-2.91-3c-.43-.49-1.44-2.24-2-2.41,0,0,1.66,2.47.75,1.06-.37-.58-.77-1.14-1.14-1.73-1.1-1.77-1.84-4.44-3.12-6,1.38,1.65.83,2.34.36.82-.15-.5-.32-1-.47-1.49-.3-1-.56-2-.78-3-.11-.52-.2-1-.3-1.54-.56-2.76.21.68.11,1,.29-1-.16-2.83-.15-3.9,0-.6.05-1.19.06-1.79.06-3.4.05.63-.15.59s.65-3.23.72-3.52c.15-.56.39-1.14.5-1.72.35-1.86-.44,1-.46.95,0-.3,1.87-4.22,2.19-4.19.09,0-1.83,2.12-.57.77.4-.43.75-.91,1.15-1.34a20.17,20.17,0,0,0,1.6-1.56c0,.22-2.33,1.61-1,.85.86-.47,1.77-1,2.6-1.59,1.31-.86-1.06.53-1.22.51a11.18,11.18,0,0,0,2.39-.83c.49-.14,1-.25,1.47-.39,1-.3,1.08-.82,0-.1s-1.09.06.07,0c.68,0,1.36-.09,2-.11,1,0,2.06.05,3.09.09.41,0,2.2.26.1,0s.16.07.6.17a33,33,0,0,1,3.49,1c.49.17,1,.38,1.46.54,1.64.54-1.23-.5-1.14-.52.69-.17,2.48,1.36,3.13,1.78.43.28.85.58,1.27.87,1.71,1.15.08-.34-.35-.33.63,0,2.52,2.46,2.88,2.85s2.64,3,1.41,1.57.82,1.27,1.13,1.79q1.22,2,2.23,4.11c.25.53,1.58,3.8.9,1.93s.64,2,.82,2.62a68,68,0,0,1,1.9,8.13c.1.59.17,1.18.28,1.77.33,1.87-.17-1.22-.15-1.21.46.42.21,3.29.23,3.94.11,2.93-.08.4.09-.26.06-.21,1.27-2.26.39-.91s.73-.76.72-.78c.07.22-1.38,1.51-1.56,1.7-1.78,1.94-.18.23.31-.14l-1.4,1.05c-1,.71-2,1.39-3,2.05a82.44,82.44,0,0,1-7.33,4.38c-1.26.67-2.54,1.31-3.84,1.9,2.37-1.08.06-.09-1,.31a58.71,58.71,0,0,1-8,2.44c-1.35.3-3.34.89-.75.26a20.35,20.35,0,0,1-4.06.32q-1.73.06-3.45,0a11.23,11.23,0,0,1-1.72-.12c.06.29,3.13.62-.07-.06a32.73,32.73,0,0,1-3.33-.89c-.55-.18-1.09-.38-1.64-.57-2.3-.79.46,0,.38.19s-2.55-1.45-2.78-1.59c-.44-.29-.88-.59-1.31-.9s-2-1.86-.6-.41l-1.59-1.68c-.31-.34-1.71-2.42-2.07-2.43.08,0,1.62,2.45.72,1-.37-.61-.79-1.2-1.16-1.81-.65-1.08-1.26-2.18-1.81-3.32-.24-.48-.44-1-.69-1.47-1-1.86.9,2.72.24.7-.34-1-.72-2.07-1-3.13s-.58-2.12-.82-3.19c-.16-.72-.3-1.44-.43-2.16s-.08-2.83-.12-.65c-.05,2.36,0-1.12-.06-1.76-.06-1.36-.06-2.71,0-4.07s.19-2.65.28-4c0,.21-.45,2.65-.1.86.22-1.09.37-2.19.59-3.27a75.84,75.84,0,0,1,2-7.74c.47-1.5,1-3,1.53-4.44.57-1.68-.16.38-.25.6.26-.62.52-1.24.79-1.86A144.72,144.72,0,0,1,78.83-83c4.1-6.92,1.57-17.53-5.26-21.38-7.23-4.07-15.68-1.78-20.06,5.61Z"/><path class="cls-3" d="M134.42-49.67l-.56,6.54c-.08,1-.16,1.9-.25,2.85-.14,1.55-.42,2.73,0,.52-.17.88-.3,1.77-.51,2.64-.12.49-1.39,3.66-.45,1.7s-.37.55-.55.86c-.49.89-1,1.74-1.59,2.57,1.78-2.61-.83.71-1.61,1.5s-1.51,1.4-2.25,2.11c-1.58,1.53,1.76-1.16-.06,0-3.45,2.26-6.8,4.67-10.32,6.83-6.64,4.1-9.54,14.31-5.26,21.38s12.95,10,20.06,5.6c9.43-5.81,18.31-12.14,24.75-21.68,6.66-9.85,6.92-21.82,7.92-33.45.71-8.16-7.24-16-14.66-15.62-8.54.41-13.9,6.88-14.66,15.62Z"/><path class="cls-3" d="M74.29,7.29c8.42,8.32,19.14,8.24,29.79,6.31A56,56,0,0,0,127.56,3.06c6.23-4.74,9.83-13.83,5.26-21.37-4-6.58-13.38-10.69-20-5.61a55.45,55.45,0,0,1-7.47,4.76c-3.49,1.87,2.61-.79-1.13.46-1.39.47-2.77,1-4.2,1.35s-2.85.69-4.3.94c2.62-.45.14-.07-1.09,0-.71,0-2.62.4-3.28-.05,2.08.35,2.33.32.73-.09a6.51,6.51,0,0,1,3,1.77c-5.62-5.56-15.24-6.38-20.73,0-5.21,6-6,16.16,0,22.09Z"/></g><circle class="cls-4" cx="100" cy="100" r="100"/><g class="cls-5"><path class="cls-6" d="M171,202.54c13.48-12.35,26.8-26.67,30.93-45.58,4.44-20.36-3.38-43.9-12.6-62.16-9.83-19.45-27.12-32.92-48.17-35.08C122.57,57.8,102.87,67.19,91,81.5c-26,31.28-19.34,83.25,7.77,112.85,14,15.31,36,21.77,54.66,13.49,19.77-8.78,33.15-28,37.05-49.84,4.08-22.85-.55-48.66-16.28-66.43-8.06-9.11-20.34-14.68-32.14-14.24-12.91.47-23.79,8.16-30.06,19.5-6.06,11-6.2,23.64-4.06,35.87,1.75,10.05,4.62,21.76,10.25,30.36,7.36,11.24,19.39,17.4,32.24,15.41a37,37,0,0,0,26.45-18.84c6-10.74,5.81-23.56,3.31-35.49C178,113.81,173.62,103,165.9,95.71c-11.79-11.14-29.81-10-38.19,4.22-2.78,4.72-3.77,10.43-4.38,15.88a92.76,92.76,0,0,0-.45,19.57c1.36,13.59,4.77,29.34,18.08,35.8s27.5,2.2,37.69-7.37c17.14-16.12,15.33-43.18,6.36-63.69C176,79.43,159.72,61,137.06,57.7,125.26,56,113,57.82,103.21,65A60.22,60.22,0,0,0,83.83,89.86c-8.07,18.77-12.78,42.71-5.77,63a53.31,53.31,0,0,0,22,28.12c8.5,5.39,18.3,7.33,28,8.22a98.26,98.26,0,0,0,23-1.07c5.09-.74,9.36-1.9,13-5.94a19.41,19.41,0,0,0,4.75-13.38c-.73-9.25-8.9-20.28-19.06-18.82a113.79,113.79,0,0,1-17.4,1.35c-1.45,0-2.91-.07-4.36-.18-4.59-.33,2.42.6-.76-.07-1.39-.29-2.78-.53-4.15-.89-.84-.22-5.58-1.82-2.9-.81s-1.47-.85-2.06-1.19-1-.67-1.52-1c-1.68-.9,1.37,1,1.44,1.11a18.29,18.29,0,0,0-3.13-2.93c-1.75-1.51,1.64,2.75.39.5-.47-.83-1.07-1.61-1.55-2.44-.09-.16.88-1.09-1-1.91.86-.05,1.28,3.61.45.67-.46-1.63-.89-3.27-1.34-4.92-.6-2.22.23,1.43.23,1.42a12.42,12.42,0,0,1-.29-3c-.14-2-.17-4-.11-6,0-.76.09-1.52.11-2.28,0-2.23-.14,1-.12,1.11-.27-1.41.52-3.84.77-5.27a96.81,96.81,0,0,1,2.48-10.52c.22-.73,1.9-5.34.9-2.93s1-2.28,1.24-2.8c.56-1.23,1.16-2.45,1.8-3.64.42-.78.89-1.54,1.33-2.32,1.32-2.3-.41-.12-.49.65.11-1.06,2.17-2.71,2.91-3.49.21-.23,1.31-1.07,1.35-1.37-.17,1.32-2.8,2-.7.66C124,97,128,95,125.38,95.91s-.3.13.16,0l2.52-.77c3.34-1-.6.38-1,.07a8,8,0,0,0,2-.13c.87,0,1.76.07,2.63,0,2.15-.11-1.51-.22-1.44-.24,1.16-.33,3.38.7,4.57,1.05.13,0,1.92.64,1.93.63q-3.15-1.34-1.29-.48c.41.18.82.38,1.22.6s4.18,2.13,4.1,2.43c0,.14-2.69-2.33-1-.73.53.51,1.14,1,1.68,1.44,1.29,1.17,2.39,2.51,3.64,3.69,1.95,1.84-1.79-2.63-.27-.38.56.82,1.18,1.61,1.73,2.43q1.47,2.19,2.76,4.48c.38.69,2.82,5.47,1.65,3.06s1,2.62,1.24,3.24c.7,1.91,1.34,3.85,1.87,5.81.25.94,1.36,3.58,1,4.47.51-1.42-.31-3-.19-.55,0,.75.12,1.5.15,2.26s0,1.5,0,2.26c.08,4.26,0-.49.09-.42a8.83,8.83,0,0,1-.39,2.14c-.87,4-.27-.06.24,0-.07,0-2.72,5.69-1.18,2.75s-2,2.51-2,2.09,2.88-1.9,1.12-1.08a7.52,7.52,0,0,0-1.63,1c.23-.74,4.21-1.15.89-.6.94-.15,3.79-.26,1.27-.2-1.4,0-2.62-.72,1.15.15a9.19,9.19,0,0,1,3.18,1.57,10,10,0,0,1,2.41,2.27c2.05,3,.84,2.19.55.67-.14-.73-.37-1.46-.54-2.19s-.8-4-.36-1.49c.41,2.34,0-.36-.06-.71-.14-1.35-.29-2.7-.38-4.06a69.45,69.45,0,0,1,.06-10.6c-.32,3.7.28-1.13.51-2.33,0-.09.43-2.11.43-2.11a6.88,6.88,0,0,1-2.76,4.23q-2.35,4-7.29,3.06c-4.36.69-4.75,1.38-7.94-.3,2.54,1.34-1-.83-1.28-1,2.37,2-1.72-3.14-.07-.3a23.12,23.12,0,0,0,1.22,2c-.1,0-1.62-4.19-.87-2,.61,1.81,1.34,3.57,1.92,5.4.51,1.6.91,3.22,1.35,4.84.7,2.54-.73.48,0-.85a7.91,7.91,0,0,0,.25,2.1c0,.47.09,4.85.15,4.87-.25-.09.66-3.55.09-1.47-.1.37-.8,3.29-.75,3.36s1.28-3.41.54-1.64a13.88,13.88,0,0,0-.79,1.51c-.69-1.12,2.64-3,.71-1.16a8.56,8.56,0,0,0-1.16,1.25c-1.28,1.84,3-1.78,1-.93a8.9,8.9,0,0,0-1.41.91c-.44.33-2.39,1.37.26-.05,3.27-1.76-.71-.15-.84,0s4.21-1,2.23-.42c-.56.17-3.36,0-.24.11,2.45.06,1.13,0,.32-.18a9,9,0,0,1,4.29,2.42c-2.46-2.42,1.41,2.93-.36-.11a13.91,13.91,0,0,1-1.33-2.33c-.09.2,1.45,3.94.48.9-1.06-3.31-2.14-6.6-3.06-10-.51-1.85-1-3.71-1.39-5.59-.17-.79-.38-1.6-.48-2.41.35,2.74.25,1.31.11-.59-.12-1.63-.05-3.23-.08-4.86-.05-2.93-.76,3.3,0,.9a17.29,17.29,0,0,0,.39-1.9c.41-2.26,2.75-1.4,1.27-.24,1.28,0,.05.06-.94-.66-.23-.17.94-1.42.89-1.67-1.46,2-1.57.16-.91,1.37,1.34,2.46.51-.65.8-.94.89-1.54-1,.94-1.41,1a16.59,16.59,0,0,1,2-1.36c.22.35-3.75,1.09-1.57.78.7-.1,3.36-1.11.69-.29-2.44.74.69,2.06,1.36,2.31.43.17,1.25-1.3-1-2.17s0,.27.82.39c2.12.33,2.89,2.64,4.72,3.83.73.47-5.48-3.2-4.71-2.8,1.89,1-.26-.76-.19-.75.43.06.05.62.19.75.31.31,4.77,5.79,3.4,3.94s-.17-2,0-1.74c.53.88,1.09,1.72,1.6,2.62.37.67.69,1.38,1.07,2,1.35,2.32-1.48-4.23.06.27,1.06,3.12,1.83,6.25,2.72,9.41.77,2.69-.35-3.4-.07-.62.08.74.2,1.48.28,2.23.21,2,.33,4,.36,6,0,1.76-.09,3.49-.13,5.24-.05,2.21.13-1.08.11-1.19a13.9,13.9,0,0,1-.42,2.95c-.53,3.2-1,7.21-2.53,10.07,1.95-3.71-.29.34-.73,1.27-.67,1.41-1.47,2.74-2.2,4.12-1.54,2.87,2.1-2.6-.7,1a45.62,45.62,0,0,1-3.47,4c-.15.16-1.42,1.2-1.4,1.38,0-.26,3.56-2.7.67-.57-1,.76-2.07,1.53-3.16,2.21A13.64,13.64,0,0,0,139,172.7c0-.08,3.54-1.39,1.62-.72-1.57.54-3.2,1-4.75,1.52-1.82.66,1.58-.29,1.79-.22a13,13,0,0,0-2.5.17c-.63,0-1.28-.07-1.9,0-2.45.13,3.32.79,1,.13-1.14-.33-2.36-.65-3.52-.91-2.34-.52,3.18,1.63,1.06.46-.7-.39-1.44-.71-2.15-1.11s-1.37-.88-2.08-1.26c-1.87-1,1.58,1,1.37,1.09-.55.16-2.77-2.36-3.29-2.86-1.07-1-2-2.12-3.06-3.21-.35-.37-1.82-2.1-.08-.06,2,2.33-.57-.91-.77-1.19a66.81,66.81,0,0,1-4.32-7.24c-.4-.77-.76-1.55-1.15-2.32-1-2,.89,1.8.79,1.76-.78-.34-1.65-4.23-2-5.2a85.72,85.72,0,0,1-2.66-9.43c-.15-.68-.26-1.37-.43-2-.51-2.12.27,1.49.25,1.61.31-1.4-.53-4-.65-5.54a84.55,84.55,0,0,1-.14-9.68c.11-3.42-.53,3.5.16-1.22q.39-2.7,1-5.34c.13-.54,1.47-4.33,1.28-4.56.09.11-1.35,3.28-.47,1.37.28-.61.5-1.26.78-1.87.63-1.45,1.34-2.86,2.11-4.24.31-.56.64-1.1,1-1.66,2-3.5-1.74,2-.21.35,1-1.08,1.81-2.27,2.8-3.33.51-.55,4-3.73,1.78-1.87s1.6-1.15,2.09-1.49c1.19-.82,2.41-1.58,3.67-2.28,4.08-2.28-2.61.79.5-.34,1.34-.48,2.66-1,4-1.41.55-.16,4.08-.78,4.12-1,0,.15-3.9.39-1.88.32,1,0,2-.19,3-.22,1.2,0,2.39,0,3.6.06,3.11.11-3.53-.73.59.21,1,.24,3,1.28,4.08,1.19-.52,0-3.84-1.9-1-.33.76.43,1.55.81,2.3,1.25a17.09,17.09,0,0,0,2.19,1.39c-.14,0-2.79-2.32-1.28-1,1.11,1,2.28,2,3.35,3,.78.77,1.71,2.36,2.64,2.87-2-1.13-1.85-2.48-.67-.74.5.73,1,1.44,1.51,2.18a83.41,83.41,0,0,1,4.63,8.2c1.59,3.16-1.49-3.68.38,1q1,2.55,1.93,5.15c1,2.8,1.84,5.64,2.63,8.5q.69,2.5,1.3,5c.26,1.07.43,2.18.73,3.25.78,2.72-.22-3,0-.15.16,1.92.29,3.84.43,5.76.06.9-.58,2.76.09.5.76-2.54,0,0-.14.76-.25,1.47-.62,2.89-1,4.34-.13.48-.82,2.6,0,.12,1-2.84-.46.95-.6,1.25-.52,1.15-1.1,2.28-1.72,3.39-.41.75-2.7,4.59-1.35,2.37s-1.14,1.49-1.7,2.21c-1.08,1.36-2.21,2.69-3.36,4a176.65,176.65,0,0,1-13,12.85c-7.15,6.55-5.86,20.65,1.28,27,8.28,7.32,18.34,6.32,26-.69Z"/></g><path class="cls-7" d="M122.56,104.76c.07-.05,0-.22.06-.1S122.57,104.84,122.56,104.76Z"/><path class="cls-7" d="M121.76,104.08a.46.46,0,0,1,.42-.53c.22,0,.44,0,.61-.28,0,0,0,.36.14.26.31-.6,1.16-.18,1.27.38l-.07.08c0,.1.28-.15.33,0s-.08.06-.13.15c.14-.15.17,0,.31-.07,0,.08-.16.19-.2.28l.21-.12c.26-.14.31-.05.32.06s0,.23.16.27a.29.29,0,0,0-.14,0c.43.17.43.69.45,1.1a1.07,1.07,0,0,0-.32-.07.32.32,0,0,1,.28.33c-.26,0,.15.28-.05.35l0,0c.19.23-.2,0,0,.29l-.2-.06c.26.26-.24,0-.15.18l.06,0c0,.12-.16,0-.17.11l0,0c-.07.19-.28.08-.11.31-.18-.15.08-.18-.19-.39a1.25,1.25,0,0,1-1.47.51.55.55,0,0,1-.06-.27c-.06,0-.19,0-.29.11s0-.14,0-.16-.24.24-.28.07a.36.36,0,0,0,.17-.21c-.18.14-.27.06-.4.05a.27.27,0,0,0,.13-.1c-.26.13-.13-.16-.32-.11l.15-.09c0-.23-.28.2-.3,0,.06,0,.1-.06.16-.1-.32.1-.39-.15-.54-.23l.06,0c-.11-.12-.08-.29-.24-.43,0-.07.38-.07.3-.19-.33,0-.15-.25-.51-.14,0-.17.19-.38.1-.49.11.08.4,0,.41.12l.21,0c.13,0-.06.06.11.07,0,0-.09-.19,0-.22-.16-.13-.47-.38-.42-.56.08.13.34.14.36.21a2.69,2.69,0,0,1-.38-.55c0-.06.21.15.2,0s-.08-.11-.12-.19.16-.27.39,0,0,.12.1.16,0-.16.11-.22l0,0c.08,0,.14-.23,0-.35s.11.16,0,.12a.3.3,0,0,1,.23-.36c0,.06,0,.14,0,.23a.83.83,0,0,1,.55-.54c0-.15-.09.28-.12.2.16.1.31,0,.48,0s.34,0,.39.18c0,0,.07-.21.06-.17s0,.28.13.26c-.06.11.12,0,.22,0s0,.07-.09,0c.17,0,.74.25.7.64a.4.4,0,0,1,.4.13l-.2,0c-.08.1.09.24-.07.3.14,0,0-.1,0-.21s-.22-.19-.09-.14c-.14.11.4.15.13.2.05.13.31.24.14.42,0,0-.29-.07-.26,0s.1,0,.17.22l.08.12c.2,0-.06.22.17.15-.15,0,0,.42-.3.29l-.23-.12c0,.09.19.25.25.39a.22.22,0,0,1-.13,0c.33.22-.16.22,0,.5-.26.11-.52.39-.72.21-.1.18-.22.36-.43.32,0,0,.08-.07.07-.15s-.14,0-.24.09-.24-.21-.32-.36c-.14.1-.13.31-.16.44,0-.2-.16-.16-.29-.13s-.3,0-.31-.16c.08,0,.28-.08.21-.22.06-.39-.38.15-.47-.17a2.69,2.69,0,0,0-.16.29c0-.21-.43-.16-.17-.36-.15,0-.09-.31-.34-.12a4.21,4.21,0,0,0-.18-.74.42.42,0,0,1,.3-.54s0-.17-.14-.18.11.15,0,.16-.09-.07-.13-.08.13-.19.36,0c.24-.16-.45-.4-.16-.71.11.07.16.07.2,0a2.87,2.87,0,0,1,0-.31c.22-.16.31.1.48.24,0-.06.08-.11.1-.18l-.1.1a.16.16,0,0,0,0-.14l.28.11c-.2-.09,0-.15-.05-.22v.07c.07.06.11,0,.13-.1a.28.28,0,0,0-.29-.06c0-.11,0-.14,0-.27.11.18.22,0,.3,0s0-.22,0-.23.14-.06.15.11-.11,0-.1.06.18.21.21,0-.22-.37,0-.32c0,.06,0,.14,0,.23l.18,0-.07-.19s0,.06,0,.08c0-.21.2-.14.17-.37.08,0,.2.08.28.09v0c.11.09.21,0,.27-.15v.05a.24.24,0,0,0,.23-.15c.14.14.07.73.19.48.1,0,.2-.35.15-.48.22.14.58-.12.72.24.06-.07.05-.13.14-.15.31.17.86.13.87.61-.13,0-.12.15-.19.24.17-.09,0,.19.17,0s.17-.2.13-.32c.24.06.5.32.44.52,0-.1.1-.1.17-.09-.22.16-.18.3,0,.34h0l.15-.08-.11.16c.07,0,.34-.14.26.05a.65.65,0,0,0-.15.12c.18,0,.48.13.38.32l-.2.19s.21.11.25,0c-.08.28-.09.43-.29.53a1.13,1.13,0,0,1,.31,1.52l-.11-.06c-.16.08.18.15.06.2s-.28,0-.38-.16c-.18.1.11.29.11.42s0-.13.13,0-.23.16,0,.31a.78.78,0,0,1-.33-.21l0,.15c-.31-.06-.31-.51-.69-.58v.08c-.26-.08-.16-.31-.33-.21.07.12.34.39.47.39,0,.19.46.42.3.6-.16,0,.09-.18-.11-.26s0,.23-.16.26c.14,0,.28.22.25.31s-.12-.22-.26-.11c.09.12,0,.33.22.29.18.3-.21.08-.12.34-.2-.15-.21-.54-.44-.5.18.15,0,.39.29.59-.11,0-.22-.14-.25-.28s0,.5-.29.14l.09.22a2,2,0,0,1-.26-.15c-.06,0-.11.22-.19.23s-.07,0-.11-.14c0,0-.23.11-.07.31s.11-.17.25,0l.05.06,0,0c-.16-.14-.16.15-.23.26l0-.13c0,.07-.16.08-.16.22a.18.18,0,0,0-.07-.19v.22c-.2.14-.12-.34-.31-.25l.12-.18s-.13-.14-.2-.06,0,.42-.07.57-.07-.21-.18,0l.14-.24c0-.06-.13-.29-.26-.29s-.24.34-.08.45a.17.17,0,0,1-.12-.25c-.17.06,0,.2-.14.31,0-.13-.22-.32-.29-.52s.11-.19.17-.29h-.09c.14-.24,0-.2.07-.46,0-.05-.11,0-.17.09.08.45-.3.54-.35.92-.29,0,.11-.94-.31-.44,0,.11-.21.34,0,.29-.14-.09-.24.33-.37.1.19-.09,0-.41.28-.55-.06.11.07.13.11.1s.14-.36,0-.41-.2,0-.27.15.14,0,0,.22c-.21,0-.08-.33-.33,0,.12,0,0,.25,0,.38h-.19l.1-.11c-.16-.22-.2.2-.39,0l.06-.31c.18-.17.24.28.41-.09-.12-.09-.27.06-.33-.11,0,0,.08,0,.13,0s.23-.51-.11-.37c-.15,0-.11.1-.2.22-.21-.12-.38,0-.51-.16.23-.18-.17-.22.17-.3-.08.18.2.42.44.24s.11.15.36-.11c-.13-.11.09-.38.22-.57,0,0-.11,0-.15,0s-.11.18-.25.35a.46.46,0,0,0-.53-.14c0-.12.22-.24.28-.2a.84.84,0,0,1-.35-.55c-.24.29-.18-.17-.4,0,0,.14-.18.37-.35.38s.13-.07.18-.14c-.22,0,.21-.28-.11-.25.2.17.41-.14.68-.21-.2-.07.18-.08.12-.19a.9.9,0,0,1-.44-.42c.23-.23,0-.53.05-.74s.44.07.51,0-.34,0-.16-.13l.06,0c0-.08.29-.17-.07-.43l.27.21s0-.07,0-.11.2.07.24.14c.23,0,.06-.16.12-.25l-.2-.07c0-.26.26-.22.4-.36l.08.17a1.31,1.31,0,0,1,0-.15c0,.18.16.28.17.12a1,1,0,0,0,0,.5c-.09-.08-.07-.23-.18-.39s-.23,0-.12.17c0,0,0,0,0-.13.17.22.1.25.2.4,0,0,.08,0,0,0,0,.12,0,.16,0,.19s-.13-.1-.18-.16c.17.17.2.24.11.26-.26-.09.1.19,0,.22a.88.88,0,0,1-.43-.34c-.15,0,0,.08-.17.11.15.1.4.21.5.3l-.18,0c.07.09.33.14.28.2a.41.41,0,0,0-.09.33l-.17.06c.37-.08.21.14.4.13-.07.22.31.12.13.38.29.1.53.08.74.24l-.14.22c.12-.16,0,.15,0,.13,0-.21.16-.22.23-.37,0,.23.26,0,.35-.13v.17c.11-.32.18,0,.31,0s.08.23.11.2a3.54,3.54,0,0,1,0-.47s0,0,0,0a.71.71,0,0,1,.21.08.5.5,0,0,1,.07-.39c0-.08.12-.17,0-.31l.2.08c-.16-.2-.16-.23-.13-.32s.08-.15-.05-.19l.36-.05c.11-.08-.11-.1-.36,0,.1-.08-.19,0,.08-.15,0-.07-.18,0-.23,0l0,0c0-.11,0-.13-.08-.11v0c.06-.05.18-.16.18-.19s0-.15-.28.21c.06-.11,0-.09-.06-.07s-.07.05-.06-.12c0,.11,0,.13-.07.2s-.06-.24-.13,0c0-.06,0-.2,0-.21a1.48,1.48,0,0,0,0,.22c0,.22-.23-.19-.3-.09s0,.13,0,.15l-.58-.27c0,.06.23.11.13.09h0a.43.43,0,0,0-.17.06h0a.64.64,0,0,0,.12-.21v0c0-.07,0-.08,0,0v0a.29.29,0,0,0,0,.09s0,0,0,0a.81.81,0,0,0,0,.1l.06.06h0a.75.75,0,0,0-.43,0s-.12.05,0,0l.18-.08c.1,0,.12,0,0,0,.07,0-.14.07-.07,0-.1,0,.37-.28.18-.18s-.13.08-.24.17c.11-.12.23-.32.09-.19l.07-.11c-.12.15-.14.22-.11.14a.2.2,0,0,0,0-.08h0c0,.12,0-.27,0,.27h0s0,0,0,0a.24.24,0,0,0,0,.12,1,1,0,0,0,.22.23s.14.06,0,0h-.18l-.08,0h0l.43-.12h0v0s0,0,0,0,0,0,0,0,0,0,.08.1c.15.31.2.27.15.14l.07.09c-.16-.22,0,0-.16-.25.07,0,0-.07,0-.09a1.12,1.12,0,0,0,.23.06l-.17,0h.08l-.26,0c-.12,0,0,0,0-.06s.09-.23,0-.22c0-.14-.18,0-.27,0-.31-.39-1-.48-1.25,0C122,105,121.6,104.37,121.76,104.08Z"/><path class="cls-7" d="M122.52,104.79c0-.15-.09-.23-.06-.42A2.13,2.13,0,0,1,122.52,104.79Z"/><path class="cls-7" d="M120.8,106.41s0,.06-.06.08-.15,0-.1-.08S120.73,106.41,120.8,106.41Z"/><path class="cls-7" d="M121.15,107.18c-.11.07-.31,0-.38-.11A2.38,2.38,0,0,0,121.15,107.18Z"/><path class="cls-7" d="M121.36,108.14c0,.13-.06.17-.14.1S121.3,108.18,121.36,108.14Z"/><path class="cls-7" d="M121.59,108s0,.11,0,.19C121.67,108.05,121.44,108.1,121.59,108Z"/><path class="cls-7" d="M123.08,109s.16-.09.18,0C123.23,109,123,109.2,123.08,109Z"/><path class="cls-7" d="M124,108.91s0,0,.07,0a.11.11,0,0,1,0,.17Z"/><polygon class="cls-7" points="122.08 106.49 121.94 106.47 122.03 106.38 122.08 106.49"/><path class="cls-7" d="M122.37,102.85c-.07.1-.1-.1-.12-.11S122.26,102.9,122.37,102.85Z"/><polygon class="cls-7" points="121.25 105.62 121.25 105.6 121.51 105.56 121.25 105.62"/><path class="cls-7" d="M90.68,102.06c.06,0,0-.23,0-.1S90.68,102.14,90.68,102.06Z"/><path class="cls-7" d="M89.87,101.38a.46.46,0,0,1,.42-.53c.22,0,.44,0,.61-.28,0,0,0,.36.14.26.31-.6,1.16-.19,1.27.38l-.07.08c0,.1.28-.15.33-.05s-.08.06-.13.15c.15-.15.18,0,.31-.08,0,.09-.15.2-.2.29l.21-.13c.26-.13.31,0,.33.07s0,.23.15.26a.58.58,0,0,0-.14,0c.43.17.43.68.45,1.1a1,1,0,0,0-.31-.07.31.31,0,0,1,.27.33c-.25,0,.15.28-.05.35l0,0c.19.23-.2,0,0,.3l-.2-.06c.26.26-.24,0-.15.18l.06,0c0,.13-.15,0-.16.12l0,0c-.07.19-.27.08-.11.31-.17-.15.08-.18-.19-.39a.39.39,0,0,1-.08.14,1.34,1.34,0,0,1-1.39.37.46.46,0,0,1,0-.27c-.06,0-.2,0-.3.11s0-.14,0-.17-.23.25-.27.08a.38.38,0,0,0,.16-.21c-.17.14-.27.06-.4,0,0,0,.08,0,.13-.11-.25.14-.13-.15-.31-.1l.14-.09c0-.23-.28.19-.3,0a.34.34,0,0,0,.16-.1c-.32.1-.39-.15-.54-.23a.13.13,0,0,0,.06,0c-.11-.12-.08-.29-.24-.43.06-.08.38-.07.3-.19-.32,0-.15-.25-.51-.14,0-.17.19-.38.11-.5.11.09.4,0,.41.13l.2,0c.13,0-.06.06.11.07,0,0-.09-.19,0-.22-.16-.13-.47-.38-.41-.57.07.14.33.14.35.22a3.15,3.15,0,0,1-.38-.55c0-.06.21.15.2,0s-.08-.12-.11-.19.16-.27.39,0c.1.08,0,.12.09.16s0-.16.11-.23l0,0c.07,0,.13-.23,0-.35s.11.16,0,.12a.32.32,0,0,1,.23-.37c0,.07,0,.15,0,.24a.81.81,0,0,1,.55-.54c0-.15-.09.28-.12.2.16.1.31,0,.48,0s.34,0,.4.17c0,0,.07-.2,0-.16.14.09,0,.28.14.25-.06.12.11,0,.22.06s0,.07-.1,0c.18,0,.74.25.71.64.07-.06.37,0,.39.13l-.2,0c-.08.1.1.24-.06.29.13,0,0-.09-.06-.2s-.22-.19-.09-.14c-.14.1.41.15.13.2,0,.13.31.24.14.42,0-.05-.29-.08-.26,0s.1,0,.17.22l.08.12c.2,0-.06.22.17.15-.15,0,0,.42-.3.29l-.23-.12c0,.09.2.25.25.38a.13.13,0,0,1-.12,0c.32.22-.17.21,0,.5-.26.1-.52.39-.72.21-.09.17-.22.36-.43.31,0,0,.08-.06.07-.14s-.13,0-.23.09-.25-.22-.33-.37c-.14.11-.13.32-.16.45,0-.2-.16-.16-.29-.13s-.29,0-.31-.16c.08,0,.29-.08.21-.22.06-.39-.37.14-.47-.17a2.64,2.64,0,0,0-.15.29c0-.22-.44-.16-.18-.36-.15,0-.09-.31-.34-.13a5.55,5.55,0,0,0-.17-.73.41.41,0,0,1,.29-.54c0-.06,0-.17-.13-.18s.1.15,0,.16-.09-.07-.13-.08.14-.2.36,0c.25-.16-.45-.4-.15-.72.1.08.15.08.19,0a1.36,1.36,0,0,1,0-.3c.22-.17.3.1.47.24a1,1,0,0,0,.1-.18l-.1.1a.22.22,0,0,0,0-.15l.27.12c-.2-.09,0-.15-.05-.22v.07c.07,0,.11-.05.14-.11a.3.3,0,0,0-.29-.05c0-.11,0-.14,0-.27.12.18.22,0,.3,0s0-.21,0-.22.14-.06.16.11-.12-.06-.11.05.18.22.21,0-.21-.37,0-.33a1,1,0,0,0,0,.24l.19,0-.07-.19s0,.06,0,.08c0-.21.2-.14.16-.37.08,0,.21.08.28.09v0c.12.09.21,0,.28-.15v0a.26.26,0,0,0,.22-.15c.14.14.07.73.19.48.11,0,.2-.35.15-.48.22.14.58-.12.73.23,0-.06,0-.12.13-.14.32.17.87.13.87.61-.13,0-.12.15-.19.23.17-.08,0,.2.17,0s.17-.2.14-.32c.24.06.49.32.43.52,0-.1.1-.1.17-.09-.22.16-.17.3,0,.34h0l.15-.07-.11.16c.07,0,.34-.14.26,0l-.15.12c.18,0,.48.13.39.32l-.21.19s.21.1.26,0c-.09.28-.1.43-.3.53a1.12,1.12,0,0,1,.31,1.51l-.11,0c-.16.08.18.14.07.2s-.28,0-.39-.16c-.18.1.12.29.12.42s-.06-.13.12,0-.23.17,0,.32a.69.69,0,0,1-.32-.21l0,.15c-.31-.06-.31-.51-.69-.58V104c-.26-.09-.16-.31-.33-.21.07.12.34.39.48.39,0,.19.45.42.29.6-.16,0,.09-.18-.11-.27s0,.24-.16.27c.14,0,.28.22.26.31-.18,0-.12-.22-.27-.11.09.12,0,.32.22.29.18.29-.2.07-.12.34-.19-.15-.21-.54-.43-.5.17.15,0,.39.28.59-.11,0-.22-.14-.25-.28s0,.5-.28.14l.08.22a2,2,0,0,1-.26-.15c-.08,0-.17.43-.3.09,0,0-.23.11-.07.31s.1-.22.3,0c-.2-.21-.2.11-.26.23l-.06-.13c0,.07-.16.07-.16.22a.17.17,0,0,0-.07-.19v.21c-.2.15-.12-.33-.31-.24l.12-.19s-.12-.13-.2-.06,0,.43-.07.57-.07-.2-.17,0l.13-.24c0-.06-.13-.29-.26-.29s-.23.34-.08.44c-.08,0-.18-.11-.12-.24-.17,0,0,.2-.14.31,0-.13-.22-.32-.29-.52a2.91,2.91,0,0,0,.17-.3h-.08c.13-.23,0-.19.07-.45,0,0-.12,0-.18.09.09.45-.3.54-.34.92-.3,0,.1-.94-.32-.45,0,.11-.21.35,0,.3-.13-.1-.24.33-.37.1.19-.09,0-.41.29-.56-.07.12.06.13.1.11s.14-.36,0-.41-.2,0-.27.15.14,0,0,.21c-.21,0-.07-.32-.33,0,.12,0,0,.25,0,.38H90l.09-.11c-.16-.22-.19.19-.39,0l.06-.31c.18-.17.24.28.41-.1-.11-.08-.27.07-.33-.1,0,0,.09,0,.13,0s.24-.51-.1-.37c-.16,0-.12.1-.21.22-.21-.12-.38-.05-.51-.16.24-.18-.17-.23.17-.3-.08.18.2.41.44.24.16-.32.11.15.36-.12-.13-.1.1-.37.22-.56s-.1,0-.14,0-.12.18-.26.35c-.1-.16-.29-.19-.53-.14,0-.12.22-.24.28-.2a.84.84,0,0,1-.35-.55c-.24.29-.18-.18-.4,0,0,.14-.17.37-.35.38s.14-.07.18-.14c-.22,0,.21-.28-.11-.26.2.18.41-.13.68-.2-.2-.07.18-.08.13-.2a.77.77,0,0,1-.44-.41c.23-.24,0-.54,0-.74s.44.07.52,0-.35,0-.16-.13l0,0c0-.08.29-.17-.07-.43l.27.2s0-.07,0-.11.2.08.24.15c.24,0,.06-.16.12-.25l-.19-.08c0-.25.25-.21.39-.35l.08.17a.94.94,0,0,1,.06-.15c0,.18.15.28.16.11a1,1,0,0,0,0,.51c-.09-.08-.06-.23-.18-.39s-.23,0-.12.17c.06,0,0,0,0-.13.16.22.1.25.2.4,0,0,.07,0,0,0,0,.12.06.16,0,.19s-.14-.1-.19-.16c.17.17.21.24.12.26-.27-.09.09.19,0,.22a.94.94,0,0,1-.43-.34c-.14,0,0,.08-.17.11a3.66,3.66,0,0,1,.5.3l-.18,0c.07.09.34.13.28.2a.4.4,0,0,0-.08.33l-.17.06c.36-.09.2.14.4.13-.08.22.3.12.12.38a2.48,2.48,0,0,1,.74.23l-.14.23c.12-.16,0,.15,0,.13,0-.21.16-.22.23-.37.06.23.27,0,.35-.14v.18c.11-.32.18,0,.31,0s.08.23.11.2c0-.29,0-.28,0-.47,0,0,.14,0,.25.08a.55.55,0,0,1,.07-.39c0-.09.12-.17,0-.31l.19.07c-.16-.2-.15-.23-.12-.31s.07-.16-.06-.19l.37,0c.1-.08-.12-.1-.37,0,.1-.08-.18,0,.08-.16,0-.07-.18,0-.23,0l0,0c.06-.11,0-.13-.08-.12v0c.06,0,.17-.16.17-.19s0-.15-.27.21c0-.11,0-.09-.06-.07s-.08,0-.06-.13a.93.93,0,0,1-.08.21s-.06-.24-.12,0c0-.06,0-.2,0-.21a1.41,1.41,0,0,0,0,.22c0,.21-.23-.19-.3-.09a.41.41,0,0,0,0,.14l-.59-.27c0,.07.24.12.13.1h0a.43.43,0,0,0-.17.06s0,0,0,0a.47.47,0,0,0,.12-.21v0c0-.08,0-.08,0,0v0a.29.29,0,0,0,0,.09s0,0,0,0a.81.81,0,0,0,0,.1l.06.06s0,0,0,0a.64.64,0,0,0-.42,0s-.13,0,0,0l.18-.07c.1,0,.13,0,0,0,.07,0-.14.07-.07,0-.1.05.38-.28.18-.18s-.12.07-.24.17c.12-.12.23-.32.09-.19l.08-.11c-.13.15-.15.22-.11.13s0-.07,0-.08h0c0,.12,0-.27,0,.27h0a.59.59,0,0,0,0,.12,1.21,1.21,0,0,0,.22.23s.14.06,0,0h-.18l-.09,0h0l.44-.12h0v0h0s0,0,0,0,0,0,.08.1c.12.24.18.27.17.2a.41.41,0,0,0,0-.07l.07.1c-.16-.22,0,0-.15-.25.06,0,0-.07,0-.09a1.12,1.12,0,0,0,.23.06l-.16,0h.07a1.08,1.08,0,0,0-.26,0c-.12,0,0,0,0-.06s.09-.24,0-.22c0-.14-.18,0-.27,0-.31-.39-1-.48-1.25,0C90.11,102.31,89.71,101.67,89.87,101.38Z"/><path class="cls-7" d="M90.63,102.08a1.55,1.55,0,0,1-.06-.41A1.93,1.93,0,0,1,90.63,102.08Z"/><path class="cls-7" d="M88.91,103.71s0,.06,0,.08-.16,0-.1-.09S88.84,103.71,88.91,103.71Z"/><path class="cls-7" d="M89.26,104.48c-.11.07-.31,0-.38-.11A2.72,2.72,0,0,0,89.26,104.48Z"/><path class="cls-7" d="M89.47,105.44c0,.13-.06.16-.14.09A.42.42,0,0,1,89.47,105.44Z"/><path class="cls-7" d="M89.7,105.24s0,.12,0,.2C89.78,105.35,89.55,105.4,89.7,105.24Z"/><path class="cls-7" d="M91.19,106.32s.16-.08.18.06C91.34,106.28,91.12,106.5,91.19,106.32Z"/><path class="cls-7" d="M92.09,106.21s0,0,.07,0a.11.11,0,0,1,0,.17Z"/><polygon class="cls-7" points="90.19 103.78 90.06 103.77 90.14 103.68 90.19 103.78"/><path class="cls-7" d="M90.49,100.15c-.08.1-.11-.1-.13-.11S90.38,100.2,90.49,100.15Z"/><polygon class="cls-7" points="89.37 102.92 89.36 102.9 89.62 102.86 89.37 102.92"/><path class="cls-7" d="M106.21,103.79c0-.09-.23,0-.09-.08S106.29,103.79,106.21,103.79Z"/><path class="cls-7" d="M109.92,117.27c-.3.66-.61,0-.92.37,0,0,0-.37,0-.28-.32.5-.74.16-1-.27l0-.1c-.06-.08-.16.26-.23.2a.5.5,0,0,0,0-.19c0,.21-.13.09-.17.24,0-.08,0-.25,0-.34l-.06.23c-.16.55-.26-.06-.44.22a.4.4,0,0,0,0-.15c-.27.32-.56.23-.84.33a1.69,1.69,0,0,0,0-.33c0,.25-.12.3-.2.35,0-.26-.14.22-.22.07l0-.06c-.09.26-.08-.16-.16.16l0-.21c-.06.36-.07-.19-.14,0v.08c-.06.08-.06-.1-.11,0v0c-.12.09-.16-.12-.19.16,0-.23.12-.09.09-.42a1.41,1.41,0,0,1-1.07.12.85.85,0,0,1,0-.26s-.14,0-.18.17a.34.34,0,0,0,0-.16c0-.11-.1.3-.16.17a.54.54,0,0,0,.06-.27c-.08.21-.16.17-.24.23a.37.37,0,0,0,.05-.16c-.11.24-.13-.07-.22.08l.05-.16c-.09-.21-.08.33-.16.21a.53.53,0,0,0,0-.18c-.12.28-.26.16-.38.24l0-.06c-.12,0-.19-.08-.36,0,0-.08.17-.37,0-.33-.14.3-.24.09-.35.44-.09-.07-.16-.21-.29-.13.11-.1.19-.35.28-.36l.08-.19c.1-.12,0,0,.11-.11,0,0-.21.1-.2,0-.21.18-.52.44-.66.41.14-.08.22-.27.31-.31l-.16.11-.44.24c-.05,0,.18-.17.07-.15a.69.69,0,0,1-.19.1s-.19-.09.07-.3c.09-.08.09,0,.15-.09s-.13,0-.17-.06l0,0c0-.07-.17-.07-.31.08s.16-.12.1,0-.25,0-.28-.08a1.06,1.06,0,0,0,.22-.07.63.63,0,0,1-.48-.17c-.15,0,.27-.06.2,0,.19-.23-.33-.25,0-.48,0,0-.22.06-.17,0s.25-.13.17-.17c.13,0,0-.06-.06-.11s.06,0,.07,0a.4.4,0,0,1-.06-.57c-.09,0-.29-.14-.28-.19l.2,0c.13,0,0-.15.19-.13-.23-.12.13.37,0,.22.17,0-.29-.2,0-.14,0-.08-.19-.22,0-.26,0,0,.26.12.26.06s-.09,0-.14-.14l-.07-.06c-.19,0,.05-.08-.17-.09.16,0-.07-.16.24-.07l.25.07s-.25-.13-.35-.19l.12,0c-.38-.11,0-.09-.23-.21.16,0,.07-.2.32-.17-.1-.1-.22-.19-.12-.24a.25.25,0,0,0,.12.07c.12,0,0,0,0-.11a2,2,0,0,0,.39,0,1.09,1.09,0,0,0-.43-.18c.39.06-.18-.25.18-.21a.34.34,0,0,0,.26.12c.38.07-.24-.19,0-.22l-.31-.08c.2,0-.14-.19.17-.08-.1-.06.13-.07-.17-.16.3-.06,0-.4.53-.3,0,0,0-.07-.13-.11s.11.09,0,.06-.08-.06-.12-.07.11,0,.34.08c.22,0-.46-.28-.3-.36s.17,0,.16,0l-.18-.15c.08-.06.29.06.5.14,0-.06,0-.11-.14-.18l.28,0c-.2,0-.11-.08-.15-.12l0,0c.09,0,0,0,0-.08a.4.4,0,0,0-.25,0c-.08,0,0-.08-.14-.15.2.09.17,0,.2,0s-.16-.11-.15-.12,0,0,.17,0-.11,0,0,.05.26.08.15,0-.4-.14-.24-.17a1.4,1.4,0,0,0,.18.12l.13,0-.18-.07.09,0c-.18-.09,0-.13-.22-.23,0,0,.15,0,.19-.05h0c.12,0,.07-.08,0-.16l0,0s0-.08-.08-.15c.16,0,.7.25.49.1,0-.06-.29-.23-.42-.25.17,0-.08-.29.24-.27-.07-.05-.12-.06-.15-.1.13-.13-.08-.41.32-.38.06.07.18.07.28.12-.14-.11.19,0-.08-.11s-.24-.1-.33-.08a.17.17,0,0,1,.18-.25.25.25,0,0,1-.17-.09c.26.12.33.07.26,0l-.16-.07.18,0s-.33-.16-.15-.14l.17,0c-.11-.1-.3-.26-.14-.26l.25.05a.26.26,0,0,0-.22-.12.69.69,0,0,1,.43,0c-.41-.37-.33-.61-.22-.79l.12.06c.13,0-.2-.11-.1-.11s.26.06.38.16-.17-.18-.2-.25.08.08-.11,0,.16,0-.07-.16a1.61,1.61,0,0,1,.36.15l-.09-.09c.29.06.44.33.8.42l0-.06c.26.07.23.23.36.16a1.4,1.4,0,0,0-.54-.28c0-.12-.55-.28-.49-.37s0,.09.21.16-.07-.14,0-.16a.67.67,0,0,1-.36-.17c.13,0,.21.12.27.06-.14-.07-.21-.18-.33-.16-.3-.15.12,0-.11-.18.23.07.48.29.62.25-.22-.07-.25-.21-.58-.3a.83.83,0,0,1,.36.14c.15,0-.33-.27.09-.11l-.21-.1.26,0s-.24-.25.08-.11c0,0,0-.11-.21-.17s.14.13-.18,0c.26.06,0-.09-.07-.16l.13,0s0-.07-.13-.14a.56.56,0,0,0,.19.07l-.18-.1c-.06-.11.34.12.32,0l.12.12s.16,0,.12,0l-.5-.26c-.06-.07.2.06,0,0l.19.14s.3.08.32,0a.61.61,0,0,0-.39-.2s.13,0,.25.05c0-.09-.19-.07-.28-.17.13,0,.32,0,.51,0l.26.17,0,0c.22.14.19,0,.43.17,0,0,0-.08-.08-.13-.43-.08-.51-.3-.88-.42,0-.14.91.28.39,0-.11,0-.36-.18-.28-.07.06,0-.35-.19-.17-.2s.39.08.57.24c-.11,0-.1,0-.07,0s.36.15.38.08,0-.11-.19-.18,0,.07-.2,0c0-.11.28,0-.08-.18,0,.06-.21,0-.35-.06l-.06-.1.13.07c.14-.06-.24-.13-.17-.2l.29.06c.23.11-.15.09.23.22,0,0-.14-.14,0-.16l.06.07s.53.15.27-.05c-.1-.08-.13-.06-.28-.11,0-.12-.14-.2-.14-.27.28.12.07-.1.33.08-.18,0-.21.11,0,.25s-.07,0,.25.2c0-.07.37,0,.59.12,0,0-.06-.07-.09-.09-.2-.09-.21-.06-.41-.14.08-.06,0-.19-.18-.31a.6.6,0,0,1,.32.13.3.3,0,0,1,.14-.3c-.35,0,0-.13-.33-.19a.76.76,0,0,1-.48-.1s.14.06.22.07c-.17-.11.31,0,0-.1.07.13.4.16.65.27-.12-.12.18.07.21,0a1.19,1.19,0,0,1-.24-.34c.28,0,.09-.24.11-.33s.43.13.5.1-.34-.06-.17-.11l0,0c-.06-.05.26-.09-.16-.25l.31.13s0,0-.06-.07a.79.79,0,0,1,.26.09c.24,0,0-.12,0-.18l-.2,0c-.12-.15.08-.16,0-.27l.18,0-.09-.08c.17.06.31,0,.16,0l.42.28c-.12,0-.21-.11-.41-.14s-.14.08,0,.15c0,0,0,0-.07-.09.26.07.23.12.4.19,0,0,.08,0,0,0,.12.07.13.12.11.18s-.16,0-.23-.07c.23.08.28.16.19.21-.28,0,.13.19,0,.26a2.06,2.06,0,0,1-.47-.29c-.13,0,0,.06-.15.07a2,2,0,0,1,.51.29l-.18-.05c.07.09.32.17.25.24a1.15,1.15,0,0,0-.24.35l-.17-.06c.34.18.07.24.2.37-.21.08.05.35-.26.31a1,1,0,0,1-.07.75l-.22-.14c.16.11-.15,0-.13,0,.21,0,.23.16.36.24-.23,0-.08.25,0,.41l-.16-.06c.27.22,0,.22-.15.32s-.24,0-.23,0a1.11,1.11,0,0,1,.34.36.39.39,0,0,1-.28.17c.27.41-.08.58,0,.93l-.2-.06c.3.43-.21.59-.09.89l-.32-.16c-.13,0,0,.2.27.28-.13,0,.09.23-.2.16-.09,0,.11.15.13.23-.18.09-.17.15-.17.3l0,0c-.07,0-.21-.1-.24-.08s-.17.14.25.26c-.29,0,0,.4-.31.41.11,0,.12.07.18.12s-.31.16-.17.33c-.06,0-.17-.1-.2-.06s.14.06.19.12c.12.28-.37.31-.39.51.09.4-.14.69-.21,1l-.08,0c.28.21-.4.13,0,.37-.08,0-.06.08-.21,0,.19.15-.28.15,0,.36,0,0,0,0,0,0-.21.06,0,.24-.2.31a.42.42,0,0,0-.13-.08c-.17,0,.32.21-.09.12,0,0,.2.08.19.06a.47.47,0,0,0-.11.41,1.89,1.89,0,0,0,0,.23l0,.11,0,0c-.26,0-.69-.07-.4,0-.08,0,.16,0,.07,0,.12,0-.47,0-.26.07a3,3,0,0,1,.31,0c-.18.06-.42.12-.23.14l-.14,0c.39,0,.17.1.63,0,0,.07.15.08.25,0a.42.42,0,0,0,.18-.14,0,0,0,0,0,0,0h0l.12,0,.48,0a2.86,2.86,0,0,1,1,.23c.12.36.14.35.32.23a.26.26,0,0,0,0,.12c0-.28.12,0,.16-.28a3.68,3.68,0,0,0,.74,0s-.08.26,0,.24l.06-.17v.08a.45.45,0,0,0,.06-.28c.66-.19,1.25.44,1.89.42.14.13.36,0,.53,0,.45.41.88.75,1.37.5C110.22,116.37,110.13,117.11,109.92,117.27Z"/><path class="cls-7" d="M106.2,103.9a.79.79,0,0,1-.4-.09C105.93,103.85,106.08,103.86,106.2,103.9Z"/><path class="cls-7" d="M104.33,104.89s-.06,0-.09,0-.11-.08,0-.06S104.28,104.87,104.33,104.89Z"/><path class="cls-7" d="M104.12,105.22c-.12,0-.19-.16-.18-.21Z"/><path class="cls-7" d="M103.5,105.37c-.11,0-.16,0-.14-.08A.64.64,0,0,1,103.5,105.37Z"/><path class="cls-7" d="M103.77,105.49s-.09,0-.16,0C103.71,105.53,103.57,105.41,103.77,105.49Z"/><path class="cls-7" d="M103.14,106.07s.09.1,0,.07C103.19,106.15,103,106,103.14,106.07Z"/><path class="cls-7" d="M103.19,106.48s0,0,0,0a.24.24,0,0,1-.15-.08Z"/><polygon class="cls-7" points="101.16 112.96 101.12 112.9 101.23 112.95 101.16 112.96"/><path class="cls-7" d="M100.64,116.56c.08,0-.1.09-.12.11S100.67,116.61,100.64,116.56Z"/><polygon class="cls-7" points="102.58 117.22 102.56 117.22 102.68 116.98 102.58 117.22"/><path class="cls-7" d="M101.22,126.07c-.11,0,0,.23-.1.06S101.23,126,101.22,126.07Z"/><path class="cls-7" d="M124,121.31c.39.63-.42.61-.26,1.14,0,.06-.29-.21-.27-.08.23.57-.31.87-.9.93l-.07-.08c-.11,0,.1.3,0,.33s-.06-.08-.15-.12c.15.14,0,.17.08.3-.08,0-.21-.13-.3-.16l.15.19c.35.46-.23.22-.13.55a.35.35,0,0,0-.1-.11,1.59,1.59,0,0,1-.35,1,1.05,1.05,0,0,0-.24-.23c.17.18.15.3.12.39-.22-.15.06.27-.12.25l0,0c.13.25-.2,0,0,.25l-.18-.11c.23.28-.21-.06-.13.12l.06,0c0,.11-.13,0-.13.08l0,0c0,.17-.21.07,0,.28-.19-.14,0-.17-.26-.36a1.66,1.66,0,0,1-.82,1,.53.53,0,0,1-.23-.14c0,.07-.1.14,0,.28,0,0-.11-.1-.13-.1s.11.3,0,.26a.52.52,0,0,0-.13-.24c.07.22,0,.25-.06.36a.27.27,0,0,0-.07-.15c.07.26-.16.06-.14.24l-.07-.15c-.21-.08.17.3,0,.28a.37.37,0,0,0-.09-.16c.09.31-.13.31-.16.45l0-.06c-.08.09-.23.08-.28.25-.08,0-.19-.34-.27-.23.17.28-.11.23.14.51-.12,0-.33,0-.34.12,0-.13-.23-.32-.17-.39l-.15-.14c-.06-.12.08,0,0-.13,0,0-.08.21-.14.18,0,.22.14.59,0,.69,0-.14-.19-.31-.18-.38l.11.64s-.12-.23-.15-.13a.58.58,0,0,1,0,.21s-.14.15-.29-.14c-.07-.1,0-.09-.06-.17s0,.14-.1.17l0,0c-.07,0-.1.18,0,.32s-.09-.17,0-.1,0,.27-.11.31a.87.87,0,0,0-.06-.23,1,1,0,0,1-.17.55c.05.14,0-.28,0-.21-.22-.14-.21.42-.44.17,0,0,.08.2.06.16s-.15-.2-.17-.11c-.05-.12-.05.06-.09.11s0-.06,0-.08-.27.39-.49.26c0,.08,0,.33-.06.33l0-.19c-.07-.11-.13,0-.18-.12,0,.26.26-.28.2-.07-.07-.16-.07.35-.11.08-.08,0-.1.27-.22.11,0,0,0-.29-.06-.26s0,.1-.08.19l0,.1c0,.19-.1,0,0,.2-.05-.15-.14.14-.2-.18l0-.25s0,.28,0,.4a.66.66,0,0,1,0-.11c.07.38-.12,0-.12.29-.13-.12-.26,0-.35-.21-.06.13-.11.28-.22.21a.17.17,0,0,0,0-.14c-.07-.1-.07,0-.11.07s-.15-.21-.23-.34a1.07,1.07,0,0,0,0,.47c-.11-.38-.19.28-.32-.06,0-.06.09-.2,0-.29-.11-.37-.11.3-.25.14l.06.31c-.07-.18-.16.19-.17-.13,0,.12-.15-.1-.11.21-.21-.26-.46.18-.6-.38,0,.05-.09,0-.08.16s.06-.12.08,0,0,.1,0,.14-.1-.09-.05-.35c-.14-.19-.13.54-.3.42,0-.13,0-.18-.06-.16l-.09.23c-.11-.05-.06-.29-.06-.51-.06,0-.13,0-.16.19l-.06-.27c0,.2-.05.13-.08.18l0-.05c0-.1-.07,0-.11,0a.33.33,0,0,0,.11.24c0,.09-.08.07-.12.18,0-.22-.09-.16-.13-.19s-.07.19-.09.18-.08,0,0-.18,0,.11.07,0,0-.28-.1-.14,0,.42-.1.28a1.05,1.05,0,0,0,.06-.21l-.09-.12v.19c0-.05,0-.06,0-.09,0,.2-.15,0-.19.28,0,0-.09-.14-.13-.17h0c0-.12-.13-.05-.19.07v0s-.11,0-.16.12c-.06-.15,0-.74-.06-.5-.08,0-.16.35-.14.48-.13-.14-.33.15-.42-.17,0,.07,0,.12-.08.16-.19-.11-.47.16-.57-.25.07-.07,0-.19.05-.3-.08.16,0-.19-.1.1s0,.26,0,.34a.24.24,0,0,1-.36-.13.19.19,0,0,1-.06.18c.07-.27,0-.33-.1-.25l0,.17v-.18s-.1.35-.14.17a.58.58,0,0,0,0-.18c-.1.12-.25.33-.29.17v-.26a.23.23,0,0,0-.08.24c-.1-.18-.18-.22-.17-.44a.7.7,0,0,1-.93.29l0-.12c0-.14-.1.21-.13.11s0-.27.12-.4c-.06-.16-.19.18-.27.21s.08-.08,0,.12c0,0-.1-.17-.18.07a1.21,1.21,0,0,1,.11-.37l-.09.1c0-.31.31-.46.34-.84l-.06,0c0-.27.22-.24.12-.37a1.14,1.14,0,0,0-.23.56c-.14,0-.23.57-.36.51s.12,0,.15-.21-.15.07-.19,0a.49.49,0,0,1-.15.37c0-.14.12-.22,0-.27-.06.13-.18.21-.14.33-.13.31-.07-.12-.2.11,0-.23.27-.48.2-.63-.06.22-.23.25-.28.59a.59.59,0,0,1,.11-.37c0-.15-.28.35-.15-.09l-.1.22c0-.08,0-.14,0-.27s-.27.24-.15-.09c0,0-.14,0-.18.22s.15-.14.08.19c0-.27-.12,0-.19.06l0-.13s-.09,0-.16.13a.29.29,0,0,0,.06-.19l-.1.18c-.14.06.1-.35,0-.33l.13-.12s0-.17-.06-.13-.2.37-.26.5,0-.21-.08-.05l.15-.18c0-.05.06-.31,0-.33s-.24.26-.2.39,0-.14,0-.26c-.11,0-.06.2-.18.28,0-.13,0-.33,0-.52l.18-.27,0,0c.15-.21,0-.19.16-.43,0-.05-.09,0-.15.07,0,.44-.32.5-.43.87-.17,0,.26-.91-.1-.4,0,.11-.19.35-.07.28-.06-.07-.2.34-.24.15.13-.12.07-.39.26-.56,0,.11,0,.11,0,.08s.16-.36.07-.39-.14,0-.21.18.09,0,0,.21c-.14,0,0-.29-.22.06.08,0,0,.21,0,.35l-.12.06.08-.13c-.09-.15-.14.23-.25.15l.06-.3c.12-.21.13.18.26-.21-.07-.05-.18.14-.21,0s.06,0,.09-.05.16-.54-.07-.3c-.11.09-.07.13-.13.27s-.24.12-.33.1c.13-.26-.13-.08.08-.33,0,.18.15.25.31,0s.07.09.24-.23c-.1-.05,0-.37.12-.58,0,0-.09,0-.11.07-.1.2-.06.21-.15.41-.08-.1-.23,0-.38.13,0-.11.11-.31.16-.3a.51.51,0,0,1-.38-.2c-.06.35-.17,0-.23.3a.7.7,0,0,1-.12.48s.07-.14.08-.21c-.13.15,0-.32-.13-.07.16-.05.2-.38.33-.62-.15.11.09-.17,0-.21a1.07,1.07,0,0,1-.42.18c0-.29-.29-.14-.4-.19s.18-.41.14-.49-.09.33-.13.15l0-.05c-.06.05-.1-.28-.32.11l.18-.29s-.06,0-.09,0,.07-.2.13-.25c0-.24-.15,0-.22,0l0,.2c-.19.08-.18-.14-.32-.13l.09-.17-.12.07c.1-.16.1-.3,0-.17l.39-.35c0,.13-.16.19-.22.37s.08.17.18,0,0,0-.11,0c.11-.25.16-.21.27-.36,0,0,0-.09-.06,0,.1-.1.15-.1.22-.08-.09.08,0,.17-.1.23.11-.21.2-.25.26-.15-.06.28.23-.08.29,0a1.55,1.55,0,0,1-.38.41c0,.14.07,0,.08.17.11-.15.25-.39.37-.45l-.07.16c.11,0,.22-.28.29-.19a1.35,1.35,0,0,0,.39.29l-.07.17c.23-.32.28,0,.44-.15.09.23.4,0,.36.31a1.52,1.52,0,0,1,.86.13l-.14.23c.12-.16,0,.15,0,.13,0-.21.17-.22.26-.35,0,.23.3.09.47,0l-.06.17c.23-.27.26.06.38.16s0,.25,0,.24c.17-.24.21-.21.38-.34a.44.44,0,0,1,.24.27c.43-.29.66.06,1-.07l0,.21c.43-.36.7.13,1,0l-.11.35c.06.13.22-.05.25-.3.06.13.25-.12.24.18.07.09.13-.14.21-.17.15.16.22.14.39.1l0,0c0,.08-.06.23,0,.25s.21.14.22-.29c.13.27.42-.14.54.22,0-.12,0-.13.07-.21s.28.27.42.08c0,.06-.06.2,0,.21s0-.15.07-.21c.26-.2.47.26.7.22a3.67,3.67,0,0,1,1.16-.15v.08c.1-.33.31.33.38-.16,0,.08.11,0,.1.2.08-.23.3.18.41-.13,0,0,0,0,0,.05.16.17.25-.11.43,0a.28.28,0,0,0,0,.15c.09.15.08-.38.18,0,0,0,0-.21,0-.2a.65.65,0,0,0,.51-.07c.15-.1.3-.24.45-.33.3.17.2.66.31.31,0,.08,0-.15,0-.07,0-.13.24.41.24.19s0-.15,0-.29c.19.11.29.32.35.11l0,.12c0-.38.23-.26.19-.72.33-.19.64-.4.94-.61a10.86,10.86,0,0,1,.85-.7,3.17,3.17,0,0,0,.89-.62,3.79,3.79,0,0,1,.93-.59c.36.13.37.11.41-.13a.36.36,0,0,0,.08.09c-.19-.21.08-.12-.09-.33a5.44,5.44,0,0,0,.57-.6s.14.23.17.18l-.1-.17.07,0a.31.31,0,0,0-.17-.21c.3-.7,1.17-.92,1.6-1.52.19-.08.24-.35.3-.54.63-.25,1.18-.53,1.28-1.16C123.42,120.56,124,121,124,121.31Z"/><path class="cls-7" d="M101.34,126.1a.73.73,0,0,1-.15.39A3.53,3.53,0,0,1,101.34,126.1Z"/><path class="cls-7" d="M102.41,128.25s0,.06,0,.09-.09.1-.08,0S102.37,128.3,102.41,128.25Z"/><path class="cls-7" d="M102.82,128.53a.29.29,0,0,1-.26.15Z"/><path class="cls-7" d="M103,129.2c0,.11,0,.17-.09.14A.42.42,0,0,1,103,129.2Z"/><path class="cls-7" d="M103.18,128.94s0,.09,0,.17C103.23,129,103.09,129.14,103.18,128.94Z"/><path class="cls-7" d="M104,129.66s.12-.08.09.06C104.08,129.62,103.9,129.83,104,129.66Z"/><path class="cls-7" d="M104.5,129.65s0,0,0,0,0,.15-.08.15Z"/><polygon class="cls-7" points="113.14 130.52 113.09 130.59 113.09 130.46 113.14 130.52"/><path class="cls-7" d="M116.88,129.57c0-.1.08.1.09.11S116.93,129.53,116.88,129.57Z"/><polygon class="cls-7" points="118.41 128.09 118.4 128.1 118.27 127.87 118.41 128.09"/></svg>