<svg id="레이어_1" data-name="레이어 1" xmlns="http://www.w3.org/2000/svg" xmlns:xlink="http://www.w3.org/1999/xlink" viewBox="0 0 200 200"><defs><style>.cls-1{fill:none;}.cls-2{fill:#d1d1d1;}.cls-3{clip-path:url(#clip-path);}.cls-4{fill:#f2a696;}.cls-5{fill:#202020;}</style><clipPath id="clip-path"><circle class="cls-1" cx="100" cy="100" r="100"/></clipPath></defs><circle class="cls-2" cx="100" cy="100" r="100"/><g class="cls-3"><path class="cls-4" d="M71.19,90.83c1.19,0,2.37.09,3.56.22-3-.32-.82-.1-.22.08,1.9.57,3.79,1,5.65,1.7-3-1.13.55.33,1,.57q1,.55,2.07,1.17c1,.61,2,1.29,3,2-2-1.36.22.18.92.81,1.51,1.34,2.81,2.82,4.22,4.26,2.59,2.64-.8-1.38.43.45.59.89,1.23,1.75,1.81,2.65,1.17,1.85,2.13,3.78,3.16,5.7,1.92,3.56-.4-1.39.42.86.52,1.44,1.07,2.86,1.53,4.32.66,2.08,1.21,4.2,1.68,6.34.19.86.36,1.72.52,2.58.06.3.68,4.6.29,1.5a83.71,83.71,0,0,1,.62,13.52c0,1.06-.14,2.12-.2,3.17-.22,3.92.48-1.58-.08.69-.46,1.82-.75,3.67-1.32,5.48-.14.44-1.77,4-.4,1.3-.38.74-.74,1.48-1.16,2.21-.17.29-2.51,3.57-.67,1.29a33.33,33.33,0,0,1-2.55,2.77,31.78,31.78,0,0,1-2.83,2.48c.5-.38,2-1.31-.23.06-1.79,1.12-3.57,2.24-5.44,3.23q-1.49.78-3,1.5c-.49.23-3.22,1.38-1.14.54a73.81,73.81,0,0,1-7.92,2.69q-3.36.94-6.79,1.61c-.91.17-1.83.33-2.75.47,2.85-.44-1.66.15-1.82.17-2.26.19-4.54.3-6.81.27-.87,0-1.74-.08-2.62-.1-1.68-.16-1.74-.15-.19,0-.64-.11-1.27-.26-1.9-.43-.84-.23-3.47-1.32-.57,0-.66-.3-1.32-.63-2-1-1.26-.68-2.37-1.56-3.6-2.27-1.59-.91,2.54,2.35.57.37-.49-.48-1-.92-1.49-1.4s-.91-1-1.38-1.49c-1.92-2,1.58,2.43.18.28-.74-1.14-1.5-2.26-2.15-3.45-.39-.73-.74-1.47-1.11-2.2-.7-1.37.4-.78.43,1.05,0-1.16-1-2.8-1.35-4a50.41,50.41,0,0,1-1.18-5c-.08-.43-.31-3.21-.17-.73s0-.39-.06-.77c-.15-1.48-.24-3-.29-4.45a80.47,80.47,0,0,1,.33-9.94c0-.61.13-1.21.19-1.81.3-3.24-.58,3.3,0,.1.26-1.48.5-3,.8-4.45q.89-4.33,2.18-8.57c.42-1.36.86-2.72,1.34-4.06.28-.78.6-1.55.88-2.34.8-2.17-.37.88-.48,1.08,1.41-2.58,2.47-5.32,4-7.86,1-1.69,2.13-3.29,3.25-4.9-1.59,2.27-.09.13.38-.43.63-.75,1.29-1.48,2-2.2,1.35-1.44,2.79-2.72,4.25-4,2.68-2.42-1.47.78.4-.3,1.16-.67,2.24-1.5,3.42-2.15.67-.38,1.35-.7,2-1.06,3.18-1.7-2.57.63.91-.32.74-.2,1.46-.46,2.2-.65.57-.14,4.24-.62.94-.32a39.14,39.14,0,0,1,6.22,0c-.59,0-2.67-.57,0,0,1.43.33,2.84.66,4.24,1.1.63.2,3.23,1.18.77.15,1,.41,1.91.89,2.84,1.38a62.79,62.79,0,0,1,5.35,3.33c1.9,1.26-2.21-2.18.66.58.77.76,1.6,1.46,2.38,2.22a60,60,0,0,1,4.78,5.3c-1.78-2.21.81,1.19.92,1.36.5.72,1,1.44,1.45,2.18,1.18,1.83,2.28,3.71,3.33,5.63a51.67,51.67,0,0,1,5,11.54c1.15,3.39.34-.94.22,1,0,.74.43,3.47.18,1,.14,1.48-.4,1.67.2.24a16.22,16.22,0,0,1-1.84,3.11c1.47-2.06.24-.37-.16,0-.92.81-1.75,1.74-2.67,2.55-.61.54-1.25,1.05-1.88,1.58-1.27,1-1.35,1.08-.26.21-.69.52-1.4,1-2.11,1.53A92.31,92.31,0,0,1,85.83,142c-1,.5-1.93,1-2.91,1.45.19-.09-3.69,1.67-1.9.89s-2.15.83-2,.76c-1.22.46-2.45.9-3.69,1.3a91.24,91.24,0,0,1-12.6,3.21c-.43.08-4.7.66-1.3.27l-2.32.24c-2.34.21-4.7.31-7,.29-2,0-3.9-.18-5.86-.33,3.07.24.47.07-.34-.08s-1.91-.36-2.85-.59c-1.88-.44-3.67-1.05-5.5-1.66,2.77.92.42.19-.32-.18a35.62,35.62,0,0,1-3.47-1.93c-.63-.4-1.26-.83-1.87-1.27,2.66,1.91-.29-.42-.68-.75-2.85-2.39,1.43,2.5.7,1-.27-.54,1.65,4.1,1.14,2.63s1.22-.86.31,2.64a6.52,6.52,0,0,0,0-1.71c.12,1.3-.91,4.13-.12,1.56.2-.66.36-1.34.58-2a20.67,20.67,0,0,0,.72-1.94c-1.07,4.7-.71,1.64.06.08a88.07,88.07,0,0,1,6.63-11c.65-.95,1.32-1.88,2-2.81.27-.38.56-.75.83-1.13,1.4-1.93-.21-1-.44.54.11-.79,1.8-2.28,2.27-2.86q1.41-1.72,2.87-3.42c3.3-3.8,6.76-7.47,10.41-10.93,1.79-1.7,3.63-3.36,5.51-5,.92-.77,1.86-1.51,2.78-2.28,2.09-1.74-2.8,2-.59.47.57-.4,1.11-.82,1.67-1.22,1.79-1.27,3.62-2.47,5.52-3.57.89-.52,1.79-1,2.71-1.48.35-.18.71-.34,1.06-.53,3-1.53-2.79,1-.7.26,1.68-.57,3.33-1.05,5-1.51,2.89-.78-3.82,0-.86.14.83,0,4,.3.84-.14s-.49,0,.25.18c2.75.49-3.4-1.72-1-.4,2.85,1.56-1.58-1.81-.69-.65a6.42,6.42,0,0,0,1,1c1.15.93-2-3.12-.09-.06,1.11,1.78,2.16,3.54,3.13,5.4,1.79,3.44-.61-2.44.52,1.28.24.8.54,1.58.78,2.38.61,2,1,4.06,1.44,6.13.78,3.84,0-1.68.08.67,0,1.47.23,2.94.26,4.41,0,2,0,4-.17,6-.06.75-.14,1.49-.22,2.24.37-3.62,0,.09-.17.73A75.72,75.72,0,0,1,84,140.13c-.75,2.08,1.51-2.9-.16.28-.43.83-.82,1.68-1.26,2.51q-1.31,2.47-2.84,4.81c-.51.78-1.06,1.53-1.58,2.3,1.67-2.43.29-.37-.22.24a51.3,51.3,0,0,1-4.17,4.43c-.8.77-1.64,1.47-2.47,2.2-.56.5-2.07,1.28.21-.15-1.57,1-3,2.07-4.65,3-1,.55-2,1-3,1.52-.78.39-2.34.62.34-.14-1.95.56-3.81,1.28-5.81,1.71-.23.05-3.48.79-1.14.27s-.85.06-1.16.08a45.14,45.14,0,0,1-5.07.07c-.68,0-1.35-.11-2-.13-3.43-.13,3,.7-.31,0-2-.43-4-.83-5.9-1.45-.65-.2-1.27-.45-1.92-.65-3.22-1,2.61,1.43-.38-.14-1.48-.78-3-1.5-4.38-2.39-.57-.35-1.1-.75-1.67-1.1-2.65-1.65,1.32,1.52.07.08s-2.71-2.42-3.91-3.77l-.65-.74c-1-1.18-.83-1,.37.48-.26-.1-.89-1.33-1.1-1.65-.53-.85-1-1.74-1.47-2.61-1.16-2-.06,0,.11.42a34.24,34.24,0,0,1-1.57-5.71c.59,3.37.15-.41.11-1-.23-3.17-.81,2.12,0-.91,0-.05,1.19-3.54.37-1.59s.85-1.3.9-1.37c-1.53,2.24.15.21.62-.34,1.25-1.49-2.4,1.28.61-.44,1.87-1.07,3.68-2.19,5.6-3.17,1-.51,2-1,3.06-1.48.61-.28,1.23-.56,1.86-.83-1.24.54-1.1.5.44-.12a103.54,103.54,0,0,1,13-3.81c.88-.18,1.77-.36,2.67-.51.23-.05,4.64-.62,1.67-.29,2.47-.28,5-.46,7.45-.53,2.21-.06,4.42,0,6.63.08q1.56.08,3.12.24c-2.85-.31-.1,0,.62.19,1,.22,2,.52,3,.78,2.42.6.77.19.13-.1,1.14.51,2.13,1.22,3.23,1.79-2.18-1.13-.06.13.67.79-2.13-1.94-.08.06.42.84s.48,2.1-.09-.25c.83,3.43.35-2.9.21.6,0,.71-.18,2.73.12-.5-.29,3.14,1.23-1.92-.16.27.22-.35,2.2-2.3.56-.89l1.54-1.13a12.84,12.84,0,0,1-1.42.87c0-.27,3.37-1.39.18-.21-2.25.84.8-.37,1.13-.06a15.05,15.05,0,0,0-2.66.06c-2.62.06,1-.12,1,.18,0,0-2.46-.64-2.64-.69-2.62-.67.91.18.8.38a17.4,17.4,0,0,1-2.35-1.38c.34-.76,2.13,2.23.74.48a18.89,18.89,0,0,1-1.43-1.54c1,1.26,1,1.23.11-.07-.34-.69-.78-1.38-1.14-2-1.71-3.11.44,2.42-.38-1.06-.41-1.76-1-3.47-1.3-5.26-.14-.77-.35-3.45-.1-.52-.09-1-.19-2-.25-3.06-.13-2.24-.16-4.48-.15-6.72L57.21,123c2.4.8-1.72-.15-.19,0,.84.06,1.49,1.7.57.32-1.31-2,.7.91.7.95l-1-1.26.53.84.48.86c-.64-1.69-.78-2.05-.43-1.07a9.35,9.35,0,0,0,.56,1.89c.23,1.06.19.63-.11-1.29l.06,1c-.77,1.87.88-.12.28-.79-.2-.22-.51,3.59-.12,1.16.26-1.65.18,0-.38.53-.56.86-.32.57.73-.86l-.67.71c-1.6.5.21.83.58-.3-.18.55-1.7.87-2.12,1.26-.85.78,2.58-.59.12-.15-.35.06-1.62.61-1.92.43.55.33,3,0,.29-.29-2-.21,2.75.41.81.1-.87-.14-2.94-1.17.11.23-1.5-.68-.33-.13.42.47-1.94-1.55.85,1.35,0,.08-.6-.93.48,1.52.55,2.06a8.79,8.79,0,0,1-2.51,6.69c-1.31,1.42-4.24,2.3-6.06,2.35l-2-.35c1.14.34,1.16.3.05-.12-2.12-.52,1,.88-.64-.36-.88-.72-.87-.66,0,.19l-1-1.31c1,1.31,0,.43-.12-.44,0-.1.76,3.69.5,1.92-.22-1.57.06,1.09.08,1.36.07,1.08.12,2.17.21,3.25a75.44,75.44,0,0,0,1.22,8.84l26.91-7.42c-2-7.41-7.19-12.6-12.27-18-.5-.54-1-1.08-1.49-1.63l-.57-.67c-.75-.92-.76-.92,0,0l.56.7c-.35-.49-.68-1-1-1.51.07.12-.93-1.56-.88-1.6-.35.28,1.29,2.88.08-.19-.35-.9-1.24-1.83,0,.72-.39-.82,0-2.35-.08-3.24-.16-2.84-.7,2.42,0-.59.24-1,2.06-6,.6-2.87.69-1.48,1.59-2.81,2.39-4.24.94-1.69-2.24,2.09.15-.13.63-.58,1.32-1.23,1.9-1.87,1.32-1.42-2.68,1.52.16-.06.64-.36,3.6-1.64.47-.52,1-.35,2.1-.52,3-.93,1.79-.76-2.44-.16,1.14-.16,1.14,0,2.38.12,3.51,0,2.27-.16-2.73-.68,1.18.12a46.08,46.08,0,0,1,5.16,1.36c.67.23,1.33.49,2,.73-3.2-1.13-.21,0,.54.35a45.66,45.66,0,0,1,4.57,2.7c.54.37,3.18,2.61.59.37.54.46,1.09.91,1.62,1.39a46.25,46.25,0,0,1,3.77,3.77c.07.08,2.39,2.73,1,1.06-1.27-1.49,1.19,1.72,1.41,2.06a47.94,47.94,0,0,1,2.44,4.15c.42.79.79,1.6,1.18,2.4-1.39-2.81-.29-.68,0,.13q.82,2.25,1.42,4.58c.26,1,.44,2.07.67,3.11.63,2.89-.11-2.7,0,.51.08,1.77.17,3.53.08,5.31a8.72,8.72,0,0,1-.16,2.13l.22-1.58c-.13.79-.27,1.57-.45,2.35-.39,1.78-1,3.47-1.53,5.2-.63,2,1.61-2.53-.3.5-.63,1-1.19,2.06-1.83,3.07,1.59-2.52-.38.41-.8.85s-1.14,1.09-1.74,1.61c2.62-2.28-4.37,1.82-1.3.71a45.67,45.67,0,0,1-6.08,1.59c2.51-.54.54,0-.09,0-1.5.08-3,.19-4.51.21-4.18.06-8.37-.18-12.53-.49-1.38-.11-2.77-.24-4.15-.38-.44,0-2.67-.5-.41,0-2.72-.54-5.33-1.2-8-1.92-.34-.1-2.48-.95-.49-.1a26.35,26.35,0,0,1-3.24-1.71c-.65-.4-1.29-.84-1.92-1.28,2.31,1.65.29.1-.26-.43-.68-.68-1.33-1.38-2-2.11,1.77,2.1.46.59.2,0-.34-.71-1.37-3.77-.53-.71-.23-.82-.67-3.93-.47-.64-.06-.94,0-1.87,0-2.8,0-1.7-1.15,2.7.16,0,1.13-2.33,0,0-.24.33.53-1,1.07-1.88,1.65-2.81-.31.5-1.88,2-.11.26.8-.78,1.57-1.56,2.41-2.3-.43.38-2.27,1.45-.13.18,1-.58,1.94-1.12,2.91-1.68,3-1.71-2.89.56,1-.37.89-.21,1.75-.52,2.64-.74a36.78,36.78,0,0,1,4-.79c-.67.09-2.36.18.39.05,4.87-.22,9.69-.16,14.55.07,1.15.06,2.31.15,3.47.19,4,.14-1.07-.55,1.1.11.53.16,3.37.94,1.25,0,.66.28,1.2.7,1.83,1-2.68-1.4-.47-.25.34.48s.76,1.74-.24-.37c.44.92,1.08,1.86,1.58,2.75-1.12-2-.3-.81.15.68.2.68.32,1.41.54,2.09,1,3.27,0-2.85.14.56,0,1.64.13,3.26,0,4.91-.06.91-.58,3.29.06.11-.18.89-.34,1.79-.55,2.68s-.46,1.77-.74,2.64c-.17.54-1.55,3.88-.15.78a45.1,45.1,0,0,1-2.55,4.87c-.47.79-1,1.52-1.51,2.31-1.09,1.82,2.15-2.37-.18.22A52.86,52.86,0,0,1,76.77,168c-.54.49-1.11,1-1.67,1.42,2.48-2.07-.09,0-.74.38a38.66,38.66,0,0,1-4.82,2.61c3.13-1.44-1.89.48-2.86.72s-1.76.35-2.64.53c-2.07.43,3.4,0,0-.07-1.74,0-4.85.64-6.44-.13.25.12,3.23.63.51.05-1.06-.23-2.11-.43-3.16-.7s-2.07-.59-3.09-.95c-.83-.29-3.38-1.79-.67-.21-1.85-1.08-3.76-2.1-5.62-3.18-.56-.32-2.09-1.6.22.27-.84-.67-1.65-1.37-2.44-2.11s-1.49-1.54-2.25-2.3c-2.38-2.4,1.39,2.28-.49-.54a46.17,46.17,0,0,1-3.65-6.42c.26.55.81,2.27-.07-.3-.5-1.45-1-2.9-1.39-4.37-.65-2.33-1.16-4.7-1.59-7.08-.2-1.08-.35-2.18-.54-3.26s-.13-.87,0,.44q-.16-1.28-.3-2.55c-.08-.84-.16-1.68-.2-2.52a23.54,23.54,0,0,1,0-2.52c-.26,1.45-.27,1.67,0,.66.49-1.63-1.11,1.44-1.28,1.63,2.3-2.6-2.05,2.12.31-.38l.9-.5c-1.58.61-1.88.75-.9.4,1.21-.29,2.43-.66,3.64-1,2.53-.63,0-.09-.51,0a33.92,33.92,0,0,1,4.73-.41q4.05-.25,8.1-.21c3,0,5.9.17,8.83.44,1,.09,2,.18,2.94.3-2.16-.25,3.07.51,3.57.6,7.16,1.28,15.39-1.93,17.17-9.74,1.55-6.81-2.06-15.8-9.75-17.17C47.75,105.77,4.32,103,5,137.08c.46,23.59,10.31,49,33.09,59.09,21.42,9.48,47.17,5.83,62.62-12.83a56.48,56.48,0,0,0,13.44-32.92c.7-11.26-3.16-24.19-11.87-31.78-10.57-9.2-26-9.48-39.4-8.76-12.74.68-26,4.42-34.76,14.32-9.64,10.94-12,25.22-5.24,38.33,5.87,11.47,18.2,18.72,30.46,21.3,24.12,5.08,56.5,4.91,68.45-21,10-21.77,4.59-46.55-11.14-64.11-16.34-18.24-46.19-26.54-66.4-9.85-9,7.46-14.35,20.12-14.06,31.75.29,11.33,6.12,19.83,13.72,27.69.58.61,1.17,1.21,1.74,1.83.32.35,2.61,2.9,1,1s.1.55.41.84c.86.81-.54-1.5-.6-1.63a9.19,9.19,0,0,1,.44,1.44c1.92,7,10,12.06,17.16,9.74,7.58-2.45,11.33-9.49,9.75-17.16-.55-2.65-.05,1.29-.22-1.42-.08-1.3-.16-2.6-.26-3.9a44.63,44.63,0,0,0-1.74-10.65c-2.14-6.3-6.43-12-12.55-14.9C51.77,110.07,43.5,110,36.94,115a20,20,0,0,0-6.85,21.22C34,150.48,49.21,156.8,62.78,154A29.71,29.71,0,0,0,86,129c2-14.66-7.59-28.32-21.33-32.89C55.91,93.17,47,100.85,47,109.52c0,11.45,1.21,24,7.78,33.75,6.46,9.59,17.17,16,29,15.47,13-.58,24.63-8.92,26.43-22.32s-6.17-26.6-18.42-32.11c-11.84-5.33-25-5.52-37.69-3.81a102.74,102.74,0,0,0-35.42,11.39C6.42,118.49-2,129.65-1.48,144a46.43,46.43,0,0,0,13.71,30.8C26.54,189.19,49.38,194.67,68.77,189c21.45-6.31,37.05-24.82,43.63-45.67a76.35,76.35,0,0,0,2.3-34.12c-1.55-10.57-6.06-22.13-13.73-29.81-10.39-10.42-25-8.5-37.19-2.72C52.54,82,42.64,91,34.13,99.92s-16.69,19-22.58,30c-5.76,10.73-10,24.3.36,33.87C29.38,180,55.24,180.75,77.18,175a105.49,105.49,0,0,0,31.7-14.17c11.68-7.8,22.4-17.22,23.88-32,1.24-12.37-5.76-25.47-12.25-35.58S105.32,73.55,94.39,68c-11.37-5.82-24.58-8.17-37-4.53-11,3.23-20.8,10.46-27.87,19.43-11.22,14.22-16.86,31-18.95,48.86-1.83,15.7.16,33.79,9.85,46.8,6.15,8.26,14.62,15,24.83,17.49,12.35,3,26.42,1.07,38.43-2.55,11.68-3.52,23.87-9.25,32.42-18.18,9.16-9.57,13-22.11,13.64-35.11,1.13-23.13-6.4-49.61-25.13-64.47C94.85,68,83.74,63.25,71.19,62.93c-7.3-.19-14.28,6.55-13.95,13.95a14.22,14.22,0,0,0,13.95,14Z"/><path class="cls-4" d="M61.3,62.4C40,66,16.52,76.76,6.34,97.06a54,54,0,0,0-5,33.5C3.18,142,9.64,151.15,18.76,157.93c5.88,4.38,15.83,1.16,19.09-5,3.86-7.31,1.27-14.43-5-19.09,2.94,2.18-1.11-1.44-1.87-2.18-1.11-1.09,1.3,2.27.17.07-.43-.84-1-1.72-1.43-2.54-1.26-2.18.39,1.75.07.18-.17-.78-.54-1.56-.75-2.34-.27-1-.44-1.93-.66-2.91-.58-2.56-.06,1.93.05.24.11-1.84-.17-3.72,0-5.57,0-.55.66-3.25.09-1.19s.19-.69.3-1.16c.41-1.84,1.1-3.57,1.63-5.37.47-1.57-1.27,2.29,0,.07.52-.87.95-1.79,1.48-2.66s1-1.43,1.45-2.16c.88-1.34-1.42,1.53.34-.37a63.11,63.11,0,0,1,4.47-4.49c1-.84,1.86-1.52.31-.36.92-.7,1.87-1.36,2.84-2,1.62-1.06,3.3-2,5-2.95,1-.54,2.1-1,3.15-1.55,2.38-1.16-1.1.34.46-.22,2-.72,4.06-1.51,6.14-2.14a101.14,101.14,0,0,1,12.64-2.93c7.22-1.22,11.9-10.49,9.74-17.16C75.94,64.36,69,61.09,61.3,62.4Z"/></g><path class="cls-5" d="M114.64,111.75c-.09,0,.11-.22,0-.07C114.59,111.77,114.58,111.84,114.64,111.75Z"/><path class="cls-5" d="M115.76,110.8a.59.59,0,0,0-.62-.53c-.27,0-.53,0-.78-.21-.06,0,0,.4-.11.31a.67.67,0,0,0-.9-.12,1.25,1.25,0,0,0-.57.87l.09.06c0,.13-.34-.08-.38,0s.1,0,.15.14c-.12-.1-.16,0-.24,0a.11.11,0,0,1-.1,0c0,.09.19.19.24.28l-.23-.09c-.29-.07-.35.05-.34.19s0,.28-.12.38c.05,0,.1,0,.15,0-.43.35-.32,1-.26,1.51a.8.8,0,0,1,.31-.14.4.4,0,0,0-.21.45c.26-.08-.09.35.14.42l0,0c-.14.29.24,0,0,.35l.21-.08c-.23.32.26,0,.2.19l0,.06c0,.15.18,0,.21.12l0,0c.13.21.34,0,.21.34.16-.19-.14-.2.11-.47l.09.12a1.56,1.56,0,0,0,1.75.17c0-.14.06-.19,0-.31.08,0,.23,0,.35,0s0-.16,0-.19.28.21.31,0a.39.39,0,0,1-.2-.2c.21.13.31,0,.45,0a.39.39,0,0,1-.15-.1c.28.1.12-.23.33-.21l-.16-.08c0-.28.31.18.31-.05-.06,0-.11,0-.17-.08.35,0,.39-.28.53-.41l-.06,0c.07-.11,0-.25.1-.38a.57.57,0,0,1,.09-.22c-.07-.08-.41,0-.35-.18.35,0,.11-.34.5-.26-.07-.2-.27-.44-.2-.6-.1.12-.41.08-.4.22h-.22c-.12.06.07.07-.1.1,0-.05.06-.26,0-.29.13-.19.4-.52.3-.74,0,.17-.32.2-.33.3a3.83,3.83,0,0,0,.28-.69c0-.07-.2.19-.22,0s.07-.14.09-.23-.24-.3-.44,0c-.09.1.06.12-.07.19s0-.19-.18-.25l0,0c-.09,0-.2-.24-.05-.39.08,0-.08.19,0,.13a.37.37,0,0,0-.34-.37c0,.07,0,.16,0,.26a.91.91,0,0,0-.74-.48c0-.17.16.28.18.19-.16.14-.35.09-.54.1s-.38.07-.41.3c.05,0-.11-.21-.09-.17-.13.13,0,.31-.11.32.08.11-.12.06-.22.12s0,.07.1,0a.91.91,0,0,0-.64.92c-.09,0-.38.13-.39.23h.21c.1.1-.06.3.12.34-.14.08-.07-.1,0-.26s.19-.27.07-.18c.15.09-.39.26-.1.27,0,.16-.28.34-.08.52,0-.06.29-.15.28,0s-.1.07-.14.29l-.06.15c-.2.07.1.25-.15.21.15,0,.07.48.36.28l.22-.16c0,.1-.16.31-.19.48,0,0,.1,0,.13-.05-.3.3.21.23.13.57.29.09.64.37.83.14.14.18.31.37.54.28,0,0-.1-.06-.11-.15.14-.12.16,0,.29,0,0,0,.23-.27.3-.46.18.08.2.32.26.45,0-.23.14-.21.3-.21s.33,0,.31-.24c-.09,0-.32,0-.26-.2-.12-.42.43.06.48-.31a2.92,2.92,0,0,1,.21.28c-.07-.23.43-.29.12-.45.17,0,0-.37.34-.22a5,5,0,0,1,.06-.87c0-.28-.09-.54-.4-.58,0-.08-.06-.21.11-.24s-.08.19,0,.19.07-.1.11-.12c-.11-.12-.17-.2-.38,0-.28-.16.4-.54,0-.85-.09.1-.15.11-.21,0a2.2,2.2,0,0,0,0-.36c-.26-.16-.31.15-.45.33,0-.07-.12-.12-.16-.19l.12.09a.21.21,0,0,1,0-.17l-.28.16c.2-.12,0-.17,0-.25v.08c-.07.06-.14,0-.18-.11a.28.28,0,0,1,.31-.09c0-.13-.08-.16-.09-.31-.09.22-.24.05-.34,0s0-.24-.06-.25-.17,0-.15.15.12-.08.13,0-.15.26-.23.07.17-.44-.07-.36a1,1,0,0,1,0,.26l-.2.06,0-.21s0,.07,0,.1c0-.24-.26-.13-.26-.39-.1,0-.22.12-.31.14l0,0c-.11.13-.24,0-.34-.1v0a.28.28,0,0,1-.28-.12c-.13.18,0,.81-.13.57-.13,0-.29-.34-.26-.49-.22.2-.63,0-.74.4-.07-.06-.07-.12-.17-.13-.32.25-.91.32-.88.89.15,0,.15.14.23.23-.19-.06.07.22-.18,0s-.21-.19-.18-.34c-.25.12-.5.51-.42.74,0-.12-.11-.09-.19-.06.26.13.21.32.06.42l-.17,0,.14.17c-.07,0-.37-.08-.26.14a.48.48,0,0,1,.17.1c-.18.1-.48.29-.35.5l.25.17c0,.06-.2.18-.27,0,.14.32.18.49.4.56a1.46,1.46,0,0,0,0,1.8l.11-.08c.18.07-.16.19,0,.24.08-.11.29,0,.37-.24.21.1-.07.36,0,.51-.13.13,0-.16-.14,0s.28.16.1.36c.11,0,.23-.19.3-.28l0,.18c.32-.1.22-.63.61-.76l0,.1c.26-.12.1-.38.31-.28,0,.15-.28.5-.42.5.09.23-.4.55-.19.73.16-.06-.13-.19.06-.31s.1.27.23.3c-.15,0-.25.28-.21.38.2,0,.08-.27.26-.16-.07.15,0,.38-.17.36-.14.35.23.06.2.36.18-.18.11-.62.37-.61-.16.19.08.45-.19.7.12,0,.21-.18.22-.35.17-.07.12.57.34.13l0,.26a2.65,2.65,0,0,0,.26-.21c.1,0,.28.46.35.07,0,.05.29.08.15.32s-.15-.22-.33.1c.19-.25.24.09.34.21l0-.14c0,.07.19,0,.22.22a.18.18,0,0,1,0-.22l0,.23c.25.12.08-.39.31-.32l-.17-.18s.12-.17.22-.11a5.67,5.67,0,0,0,.18.61c.14.08,0-.23.19,0l-.19-.24c0-.07.09-.34.24-.36s.33.32.17.46a.19.19,0,0,0,.1-.29c.19,0,0,.22.2.31a5.91,5.91,0,0,0,.25-.63l-.24-.28.09,0c-.19-.22,0-.22-.15-.47,0-.07.14,0,.22,0,0,.51.42.52.53.93.33-.05-.26-1,.29-.57,0,.12.28.33.06.32.14-.14.31.3.43,0-.23-.06-.08-.46-.4-.54.09.11-.05.15-.1.14,0-.18-.21-.37-.07-.46s.21-.1.32.1-.15.08,0,.24c.23-.07,0-.38.37-.11-.13.07,0,.29.07.43l.2,0-.12-.1c.15-.29.24.17.43-.07l-.11-.33c-.22-.15-.22.37-.45,0,.11-.13.3,0,.34-.2l-.14,0c0-.06-.33-.52.06-.45.17,0,.13.08.25.19.21-.19.4-.15.52-.31-.27-.15.15-.3-.22-.31a.33.33,0,0,1-.44.4c-.21-.32-.09.2-.4,0,.13-.16-.15-.4-.31-.59,0-.05.12,0,.16,0,.19.13.15.18.32.34a.54.54,0,0,1,.54-.31c0-.13-.25-.22-.32-.16a1.19,1.19,0,0,0,.3-.74c.29.29.16-.26.41,0,0,.16.24.39.42.36,0-.11-.15,0-.21-.12.23-.07-.25-.28.08-.32-.18.25-.44-.07-.73-.09.2-.13-.19,0-.15-.2a1.13,1.13,0,0,0,.38-.6c-.28-.24-.1-.64-.18-.88-.18-.06-.44.15-.53.07s.35-.07.13-.18l-.05,0c0-.11-.34-.19,0-.53l-.25.27s0-.08,0-.13-.19.11-.22.2c-.24.08-.1-.19-.18-.29l.2-.1c-.05-.28-.31-.2-.45-.34l-.1.18,0-.15c-.07.19-.22.3-.21.13a1.68,1.68,0,0,1,0,.5c.13-.08.06-.23.2-.39s.26,0,.16.17c-.06,0,0,0,0-.14-.18.23-.09.26-.17.44,0,0-.1,0-.06,0,0,.14,0,.19,0,.24,0-.12.14-.11.18-.19-.16.2-.16.3-.05.33.28-.12,0,.26.07.31a1,1,0,0,0,.37-.48c.16,0,.05.1.2.12a3.15,3.15,0,0,0-.45.44l.18-.07c0,.13-.32.22-.24.3a.69.69,0,0,1,.14.47l.19,0c-.39,0-.2.24-.41.29.1.26-.32.26-.1.53a5.22,5.22,0,0,0-.84.52l.2.22c-.16-.15,0,.16,0,.16-.05-.24-.21-.2-.32-.35,0,.27-.32.13-.46,0l0,.19c-.19-.32-.24,0-.39.08s0,.27-.1.24a4,4,0,0,0-.17-.52.5.5,0,0,0-.3.11.76.76,0,0,0-.22-.46.56.56,0,0,1-.16-.43l-.19.11a.55.55,0,0,0,0-.52c-.06-.13-.13-.27,0-.37l-.37,0c-.12-.09.09-.18.36-.14-.11-.08.19-.09-.1-.2,0-.08.19,0,.24,0s0-.16.06-.19a.06.06,0,0,0,0,0c-.07,0-.2-.14-.2-.18s0-.2.31.16c-.08-.28.28,0,.22-.33,0,.12.08.13.12.21s.14-.31.25-.11c0-.07-.06-.21,0-.24s0,.17,0,.24c.14.22.3-.24.42-.13s0,.18.08.21l.5-.26c0,.12-.32.24-.2.19h0a.47.47,0,0,1,.23,0h0a.58.58,0,0,1-.16-.2v0c0-.08,0-.08,0,0v.08c0,.1,0,0,0,0s0,0,0,.11v-.06s0,.14,0,.12l0,.07h0a1,1,0,0,1,.53-.1c-.25-.08-.71-.14-.38-.15-.08,0,.16,0,.07,0,.13,0-.42-.27-.19-.21s.14,0,.28.14c-.12-.15-.27-.35-.09-.25l-.09-.1c.16.12.2.14.23.19s0-.06,0-.07h0c0-.3,0,.41,0,.34h0a.66.66,0,0,1,0,.16c0,.09,0,.1,0,.18s0,.16,0,.19a.22.22,0,0,1-.06,0h0c.06,0,0,.08-.15.17s-.27.12-.35.24c-.07.32-.13.34-.14.24v-.07a.5.5,0,0,1,0,.13c.13-.29,0,0,.11-.31-.07,0-.09-.12-.13-.25,0,0-.24.16-.23.12l.16-.11-.08,0a.63.63,0,0,1,.26-.13c.11-.25-.08-.33-.16-.48a.24.24,0,0,1,.17-.26c0-.16.24-.1.39,0a1,1,0,0,1,1.59-.13S116,111.12,115.76,110.8Z"/><path class="cls-5" d="M114.75,111.75c.07-.14.19-.22.19-.39C114.88,111.49,114.79,111.63,114.75,111.75Z"/><path class="cls-5" d="M117.17,113.61s0,.07.07.09.15-.06.09-.13S117.24,113.6,117.17,113.61Z"/><path class="cls-5" d="M116.92,114.61c.12,0,.32-.1.38-.23A3.85,3.85,0,0,1,116.92,114.61Z"/><path class="cls-5" d="M116.83,115.77c0,.14.09.17.16.07S116.89,115.79,116.83,115.77Z"/><path class="cls-5" d="M116.56,115.61c-.06,0,0,.14,0,.23C116.48,115.75,116.74,115.75,116.56,115.61Z"/><path class="cls-5" d="M115.07,117.19c-.06,0-.2-.06-.2.11C114.89,117.17,115.17,117.37,115.07,117.19Z"/><path class="cls-5" d="M114,117.26s0,0-.08,0,0,.16.07.17Z"/><polygon class="cls-5" points="115.75 113.87 115.89 113.82 115.78 113.74 115.75 113.87"/><path class="cls-5" d="M114.76,109.6c.1.1.1-.12.12-.14S114.9,109.64,114.76,109.6Z"/><polygon class="cls-5" points="116.58 112.73 116.58 112.71 116.31 112.72 116.58 112.73"/><path class="cls-5" d="M84.94,111c-.09,0,.12-.22,0-.07S84.89,111.08,84.94,111Z"/><path class="cls-5" d="M86.07,110.05a.59.59,0,0,0-.62-.53c-.27,0-.53,0-.79-.22-.06,0,0,.41-.11.32a.66.66,0,0,0-.89-.12,1.3,1.3,0,0,0-.58.86l.09.07c0,.13-.34-.08-.37,0s.09,0,.15.14c-.12-.1-.17,0-.24,0a.12.12,0,0,1-.1,0c0,.09.19.19.24.28l-.24-.09c-.28-.07-.34.05-.34.19s0,.27-.12.38a.22.22,0,0,1,.16,0c-.44.35-.33,1-.26,1.51a.68.68,0,0,1,.31-.14.37.37,0,0,0-.21.45c.25-.08-.1.35.13.42l0,0c-.15.29.23,0,.05.35l.2-.09c-.22.33.26,0,.21.2l0,.06c0,.14.17,0,.21.12l0,0c.12.22.33.06.2.34.16-.19-.13-.19.12-.46l.09.12a1.56,1.56,0,0,0,1.75.17.56.56,0,0,0,0-.31c.08,0,.23,0,.35,0s0-.16,0-.19.28.21.31,0a.37.37,0,0,1-.21-.2c.22.13.31,0,.45,0a.27.27,0,0,1-.15-.09c.29.09.13-.23.33-.21l-.16-.08c0-.28.32.18.32-.05-.07,0-.12,0-.18-.08.35,0,.39-.28.54-.41l-.07,0a1.59,1.59,0,0,0,.1-.39.74.74,0,0,1,.09-.21c-.07-.08-.4,0-.34-.18.34,0,.11-.34.5-.26-.07-.2-.27-.44-.21-.6-.09.12-.41.08-.39.22l-.22,0c-.13.07.07.07-.1.11,0-.05,0-.27,0-.29.14-.19.41-.52.3-.74,0,.17-.32.2-.33.29a3,3,0,0,0,.29-.68c0-.08-.2.19-.22,0a.45.45,0,0,0,.08-.23s-.23-.3-.44,0c-.09.11.07.13-.06.2s0-.19-.18-.25l0,0c-.09,0-.21-.24,0-.39.07,0-.09.19,0,.13a.39.39,0,0,0-.35-.37c.05.06,0,.16,0,.26a.92.92,0,0,0-.73-.49c0-.16.15.29.18.19-.17.15-.35.1-.55.11s-.38.07-.41.29c.06,0-.11-.21-.08-.17-.13.14,0,.32-.11.32.08.11-.12.07-.23.13s0,.06.11,0a.94.94,0,0,0-.65.92c-.08,0-.37.14-.38.24h.21c.1.1-.06.3.11.33-.13.09-.06-.1,0-.25s.2-.27.08-.19c.15.1-.4.27-.11.27,0,.16-.27.34-.07.52,0,0,.28-.14.27,0s-.09.07-.14.29l-.06.15c-.19.06.1.25-.14.21.15,0,.07.48.36.28l.22-.16c0,.1-.16.31-.19.47a.15.15,0,0,0,.12,0c-.29.29.21.23.14.56.29.09.64.38.82.15.14.18.32.36.55.28,0,0-.11-.06-.11-.15s.15,0,.28,0,.24-.27.31-.46c.18.08.2.32.25.45,0-.23.15-.21.3-.21s.33,0,.31-.25c-.08,0-.32,0-.25-.19-.13-.42.43.06.48-.32l.21.29c-.07-.23.43-.29.12-.45.16,0,0-.38.33-.22a8.29,8.29,0,0,1,.06-.88c0-.28-.08-.53-.39-.58,0-.07-.06-.2.1-.23s-.08.19,0,.19.08-.1.12-.12c-.11-.13-.18-.21-.38,0-.28-.16.39-.54,0-.86-.1.11-.15.11-.21,0s0-.24,0-.36c-.27-.16-.31.15-.46.33,0-.07-.12-.12-.16-.2l.12.09a.3.3,0,0,1,0-.16l-.27.16c.2-.12,0-.18,0-.26v.08c-.07.07-.13,0-.17-.1a.27.27,0,0,1,.3-.09c0-.13-.08-.16-.09-.31-.09.22-.24.05-.33,0s0-.24-.06-.25-.17,0-.15.15c0,0,.11-.08.13,0s-.16.26-.23.06.16-.44-.08-.35c0,.07,0,.16,0,.25l-.21.07,0-.21a.19.19,0,0,0,0,.1c0-.25-.26-.13-.27-.39-.09,0-.22.12-.3.14v0c-.11.12-.24,0-.34-.11v0a.28.28,0,0,1-.28-.12c-.14.18,0,.81-.13.57-.13,0-.29-.35-.26-.49-.23.19-.64,0-.75.4-.07-.06-.07-.12-.16-.13-.32.24-.92.32-.88.89.14,0,.15.14.23.23-.19-.06.06.22-.19,0s-.2-.19-.17-.34c-.26.12-.51.51-.42.74,0-.12-.12-.1-.19-.07.26.14.21.33.06.43l-.17,0,.13.16c-.07,0-.37-.07-.26.14a.55.55,0,0,1,.17.1c-.17.11-.47.3-.34.51l.24.17c0,.06-.2.18-.26,0,.13.31.17.49.4.56a1.46,1.46,0,0,0,0,1.8l.11-.08c.18.07-.17.19,0,.24.09-.11.29,0,.37-.24.21.1-.06.35,0,.51-.13.13,0-.16-.14,0s.27.16.09.36c.12,0,.24-.19.31-.28l0,.18c.31-.1.22-.63.61-.76l0,.1c.27-.12.11-.39.31-.28,0,.15-.27.49-.42.5.09.23-.4.54-.18.73.16-.06-.14-.19.06-.31s.09.27.23.29c-.16,0-.26.29-.21.39s.08-.27.26-.16c-.07.15,0,.37-.18.35-.13.36.24.07.2.37.18-.18.12-.63.37-.61-.16.19.09.44-.19.7.12,0,.21-.18.22-.35.17-.08.12.56.34.13l0,.25a1.2,1.2,0,0,0,.25-.2c.11,0,.29.45.36.07,0,.05.29.08.14.32s-.15-.22-.32.1c.18-.25.24.09.33.21l0-.14c0,.07.2,0,.22.21a.19.19,0,0,1,0-.22l0,.23c.25.13.08-.38.3-.32a1.45,1.45,0,0,1-.16-.18s.11-.16.21-.1a5.67,5.67,0,0,0,.18.61c.15.08,0-.23.2,0l-.19-.23c0-.07.09-.34.24-.36s.33.32.17.46a.18.18,0,0,0,.09-.29c.2,0,0,.22.21.3,0-.15.2-.39.25-.62a2.17,2.17,0,0,1-.24-.29l.09,0c-.19-.22,0-.22-.15-.48,0-.06.14,0,.22.06,0,.51.42.52.53.92.33,0-.26-1,.28-.56,0,.12.29.32.07.32.13-.14.31.3.42,0-.22-.06-.07-.46-.39-.55.08.11-.06.16-.1.14,0-.17-.22-.36-.08-.45s.22-.1.33.1-.15.07,0,.24c.22-.07,0-.39.36-.11-.13.07,0,.29.08.43l.2,0-.12-.1c.14-.29.24.17.43-.07l-.11-.33c-.22-.15-.22.37-.46,0,.11-.13.31,0,.34-.21-.05,0-.09,0-.14,0s-.32-.52.07-.45c.17,0,.13.08.25.19.21-.19.39-.15.52-.31-.28-.15.15-.3-.23-.31.12.19-.15.54-.43.4-.22-.33-.1.2-.4,0,.12-.15-.16-.39-.32-.58,0-.05.12,0,.17,0s.14.19.31.34a.56.56,0,0,1,.55-.3c0-.13-.26-.23-.32-.17a1.08,1.08,0,0,0,.29-.73c.3.28.16-.26.42-.06,0,.17.24.4.42.37,0-.11-.15,0-.21-.12.22-.07-.26-.29.08-.32-.19.25-.44-.07-.73-.09.2-.13-.2,0-.16-.21a1,1,0,0,0,.38-.59c-.27-.24-.1-.64-.18-.89-.17,0-.44.15-.53.08s.36-.07.14-.18l0,0c0-.1-.35-.18,0-.52l-.24.27s0-.08,0-.13-.19.11-.22.2c-.25.07-.1-.2-.19-.29l.2-.1c0-.28-.3-.21-.45-.35l-.1.19,0-.15c-.07.19-.23.3-.21.13a2.09,2.09,0,0,1,0,.5c.13-.08.06-.23.2-.4s.27,0,.17.17c-.07,0,0-.05,0-.13-.17.23-.08.26-.17.44,0,0-.1,0,0,0,0,.13,0,.18,0,.24,0-.12.14-.12.18-.19-.17.2-.16.3,0,.33.27-.12,0,.26.06.31a1.08,1.08,0,0,0,.38-.48c.15,0,.05.09.2.12-.14.14-.38.3-.45.44l.17-.07c0,.13-.31.22-.24.3a.68.68,0,0,1,.15.46l.18,0c-.39,0-.19.25-.4.3.1.26-.32.26-.11.53a5.12,5.12,0,0,0-.83.52L85,114c-.16-.14.05.17,0,.17,0-.24-.22-.21-.33-.35,0,.27-.31.13-.45,0l0,.19c-.19-.32-.24,0-.4.07,0,.09,0,.27-.09.25a4,4,0,0,0-.17-.52.5.5,0,0,0-.3.11.79.79,0,0,0-.22-.47.47.47,0,0,1-.16-.42l-.2.11a.56.56,0,0,0,0-.52c-.06-.13-.13-.27,0-.37l-.37,0c-.12-.08.1-.18.36-.13-.11-.08.19-.09-.09-.2-.06-.08.18,0,.24,0-.1-.13,0-.16,0-.19s0,0,0,0-.2-.15-.2-.19,0-.2.32.17c-.09-.28.28,0,.22-.33,0,.12.08.13.12.21s.13-.31.25-.12c0-.06-.06-.21,0-.23s0,.17.06.24c.13.22.3-.24.42-.13a1,1,0,0,0,.08.21l.49-.26c0,.12-.31.23-.19.19h0a.39.39,0,0,1,.23,0h0a.48.48,0,0,1-.16-.2v0c0-.08,0-.08,0,0h0v.1c0,.1,0,0,0,0a.39.39,0,0,0,0,.1v0s-.05.14,0,.12l0,.07s0,0,0,0a.92.92,0,0,1,.52-.1c-.24-.09-.7-.14-.38-.15-.07,0,.16,0,.08,0,.12,0-.42-.26-.19-.2s.14,0,.27.13c-.12-.14-.26-.34-.08-.25l-.1-.1a1.3,1.3,0,0,1,.24.2l0-.07h0c0-.3,0,.41,0,.34h0a.8.8,0,0,1,0,.16c0,.09,0,.1,0,.19a.55.55,0,0,1,0,.19s0,0-.07,0h0s0,.08-.16.18-.27.12-.34.24c-.08.31-.14.34-.15.24v-.07a1.34,1.34,0,0,1-.06.12c.14-.28,0,0,.12-.31-.07,0-.09-.11-.14-.24,0,0-.23.16-.23.12l.17-.11-.08,0a.58.58,0,0,1,.25-.12c.11-.25-.07-.33-.16-.48a.26.26,0,0,1,.17-.26c0-.16.25-.11.39-.06a1,1,0,0,1,1.59-.13S86.32,110.36,86.07,110.05Z"/><path class="cls-5" d="M85.06,111c.07-.14.19-.22.19-.39A2.33,2.33,0,0,0,85.06,111Z"/><path class="cls-5" d="M87.48,112.86s0,.07.06.09.16-.06.09-.13S87.54,112.85,87.48,112.86Z"/><path class="cls-5" d="M87.22,113.85c.12.06.32-.09.38-.22A2.08,2.08,0,0,1,87.22,113.85Z"/><path class="cls-5" d="M87.13,115c0,.15.09.18.17.08S87.2,115,87.13,115Z"/><path class="cls-5" d="M86.86,114.85c0,.06,0,.15,0,.23C86.79,115,87,115,86.86,114.85Z"/><path class="cls-5" d="M85.37,116.44c-.05,0-.19-.06-.19.1C85.19,116.42,85.48,116.62,85.37,116.44Z"/><path class="cls-5" d="M84.34,116.5s0,0-.09,0a.11.11,0,0,0,.08.17Z"/><polygon class="cls-5" points="86.06 113.11 86.19 113.07 86.09 112.98 86.06 113.11"/><path class="cls-5" d="M85.07,108.85c.1.1.09-.12.12-.14S85.2,108.89,85.07,108.85Z"/><polygon class="cls-5" points="86.89 111.98 86.89 111.95 86.62 111.97 86.89 111.98"/><path class="cls-5" d="M100.29,113.7c0-.12.22,0,.09-.08S100.21,113.67,100.29,113.7Z"/><path class="cls-5" d="M92.6,132.8c.35.66.77,0,1.14.39,0,0,0-.37.08-.28.36.51.91.19,1.32-.23l0-.1c.08-.08.18.26.27.21s0-.1,0-.19c0,.21.16.09.2.25,0-.09,0-.25.06-.34l.06.23c.15.56.33-.05.52.24,0-.06,0-.1,0-.15.31.33.68.26,1,.37a1.19,1.19,0,0,1,0-.33.38.38,0,0,0,.22.36c0-.26.16.23.26.09v-.06c.08.26.11-.16.18.16l0-.2c0,.36.11-.19.18,0v.07c.06.09.09-.09.14,0v0c.13.09.2-.12.21.16,0-.22-.13-.09-.07-.42a2.23,2.23,0,0,0,1.33.2.73.73,0,0,0,.09-.26c0,.06.16.05.21.19s0-.14,0-.16.1.31.18.18a.55.55,0,0,1,0-.27c.08.22.18.18.29.25a.41.41,0,0,1-.06-.16c.14.24.17-.06.29.09l-.07-.16c.08-.2.13.34.22.22a.75.75,0,0,1-.08-.18c.21.29.38.19.55.29l0-.07c.16,0,.23-.06.47.06,0-.07-.3-.39-.13-.33.24.32.33.12.56.49.09-.06.18-.18.36-.09,0,0,0,0,0,0a1.34,1.34,0,0,1-.21-.2,1,1,0,0,0-.16-.15.1.1,0,0,0-.08,0l-.06-.1-.11-.13c-.06-.06,0,0,0,0s0,0-.09-.08h0s.12,0,.07-.11c.19.1.56.31.59.16-.12,0-.36-.29-.41-.28a3.42,3.42,0,0,0,.6.18c0-.06-.26-.17-.18-.2a.42.42,0,0,0,.2.05s.06-.23-.25-.38c-.13-.08-.06.06-.18,0s.1-.06.1-.16l0,0c0-.07.12-.16.29,0s-.18-.08-.09,0,.22-.13.21-.25c0,0-.13,0-.21,0a.72.72,0,0,0,.37-.47c.15,0-.25.07-.18.09-.21-.25.25-.46,0-.57,0,0,.21,0,.17,0s-.23-.06-.16-.12c-.12,0,0-.07.07-.13s-.06,0-.07,0,.26-.41.07-.57c.08,0,.28-.13.27-.17l-.19,0c-.11,0,0-.14-.15-.13.22-.11-.17.35,0,.22-.16,0,.28-.19,0-.15,0-.08.21-.18,0-.24,0,0-.26.09-.25,0s.09,0,.14-.14l.07-.06c.19,0,0-.1.18-.08-.15,0,.08-.17-.22-.14l-.24,0s.24-.1.35-.15a.2.2,0,0,0-.11,0c.36,0,0-.12.24-.2-.14-.1,0-.27-.27-.3.11-.09.23-.17.15-.26a.19.19,0,0,1-.12.06c-.11-.05,0-.07,0-.13s-.22-.1-.36-.15c.1-.09.3-.08.42-.1-.36,0,.22-.24-.11-.31,0,0-.17.13-.27.08-.36,0,.26-.17.07-.28h.31c-.19,0,.16-.18-.15-.15.11,0-.11-.13.19-.14-.27-.17.11-.48-.42-.56,0,0,0-.1.14-.1s-.11.08,0,.09.09,0,.13,0-.1-.1-.34,0c-.19-.12.49-.18.36-.34-.12,0-.16,0-.15-.05l.2-.11c-.06-.1-.28,0-.48,0,0-.07,0-.14.16-.18l-.26,0c.19,0,.12-.06.17-.09l-.05,0c-.09,0,0-.07,0-.11a.29.29,0,0,1,.23.1c.09,0,.06-.08.16-.13-.2,0-.15-.09-.17-.13s.17-.08.17-.09,0-.09-.17,0,.1,0,0,.08-.27,0-.14-.1.4,0,.26-.11a1.31,1.31,0,0,1-.19.07l-.12-.09.19,0a.26.26,0,0,0-.09,0c.19,0,0-.16.26-.2,0,0-.13-.09-.16-.14h0c-.11,0,0-.13.07-.19h0s0-.1.11-.15c-.14-.07-.69,0-.47-.08,0-.08.33-.16.45-.13-.14-.14.15-.33-.14-.44.07,0,.12,0,.15-.07-.08-.21.19-.47-.18-.61-.08.07-.19,0-.29,0,.16-.07-.18,0,.1-.09s.25,0,.32,0a.26.26,0,0,0-.09-.39.17.17,0,0,0,.17,0c-.26,0-.31-.06-.22-.14l.16,0-.17,0s.33,0,.17-.11h-.17c.13-.08.34-.21.2-.28l-.24,0s.16-.11.23,0c-.15-.13-.17-.22-.38-.24a.75.75,0,0,0,.42-.89h-.12c-.12-.06.21,0,.12-.1s-.25,0-.39,0c-.14-.1.2-.16.25-.23s-.1.07.1,0c0,0-.14-.13.1-.17a1.11,1.11,0,0,0-.36,0l.11-.07c-.29-.06-.49.22-.84.17l0-.07c-.26,0-.27.18-.37,0a.94.94,0,0,1,.56-.11c.06-.14.57-.11.54-.25s0,.12-.23.11.1-.15,0-.2a.46.46,0,0,0,.37-.07c-.12-.06-.22.07-.25,0,.13,0,.23-.13.33,0,.31-.07-.09-.11.15-.18-.23,0-.51.15-.62,0,.21,0,.27-.16.59-.13a.56.56,0,0,0-.36,0c-.13,0,.38-.18,0-.17l.21,0-.24-.06c0-.06.28-.21,0-.18,0,0,0-.14.24-.11s-.16.1.15.12c-.26,0,0-.12.1-.17h-.13s0-.09.16-.12a.32.32,0,0,1-.19,0l.19,0c.08-.12-.34,0-.3-.11l-.14.09s-.15,0-.1-.1l.52-.12c.07-.06-.2,0,0-.08l-.21.09c-.06,0-.29,0-.29-.11s.3-.16.4-.08-.11-.09-.24,0c.06-.1.19,0,.3-.09-.12,0-.3-.11-.47-.16l-.29.11V118c-.24.09-.19,0-.43,0,0,0,0-.09.1-.13.4.08.53-.17.9-.17.09-.16-.89,0-.34-.23.1,0,.37-.08.27,0,0-.09.36-.1.2-.2-.14.1-.37-.06-.58.08.12,0,.1.06.07.08s-.37,0-.38-.06,0-.14.23-.14,0,.09.19,0-.26-.11.11-.19c0,.07.19.07.33.06l.08-.09-.13,0c-.11-.13.24-.06.2-.19l-.28,0c-.23,0,.12.19-.27.2,0-.09.17-.14.07-.21s0,0-.07.07-.53,0-.24-.17c.11-.08.14,0,.28,0s.17-.2.19-.3c-.28,0,0-.16-.32,0,.17,0,.17.24-.09.31s0,.11-.28.17c0-.12-.34-.08-.56-.08,0,0,.07-.07.1-.09.2,0,.2,0,.41,0-.06-.12,0-.25.23-.34-.1,0-.3,0-.32.05a.59.59,0,0,0-.06-.45c.34.06.07-.17.34-.13a.59.59,0,0,0,.46.07s-.14,0-.21,0c.17-.08-.29-.08,0-.16-.09.15-.39.06-.65.11.14-.11-.18,0-.19-.08a1,1,0,0,0,.29-.35c-.26-.12,0-.35,0-.48s-.42,0-.48,0,.32,0,.18-.07h-.06c.06,0-.21-.2.2-.27l-.31.06s0,0,.07-.07-.2,0-.26,0c-.22,0,0-.16,0-.24l.19,0c.14-.15,0-.23,0-.37l-.18,0,.1-.09c-.17,0-.29,0-.15-.09l-.43.25c.12,0,.22-.08.4-.06s.12.15,0,.18,0,0,.08-.09c-.26,0-.24.07-.41.12,0,0-.07,0,0-.06-.12.06-.14.11-.14.19s.16,0,.23,0c-.22,0-.28.11-.21.21.26.05-.15.2-.07.31a1.44,1.44,0,0,0,.48-.22c.12.06,0,.08.12.14a1.29,1.29,0,0,0-.52.21h.17c-.08.09-.33.11-.27.22a2,2,0,0,1,.14.52h.17c-.35.11-.11.28-.26.4.17.17-.13.42.16.49a1.69,1.69,0,0,0-.12,1l.24-.08c-.18.08.14,0,.11.09-.2-.05-.25.11-.39.16.2.14,0,.35-.15.49h.16c-.3.17,0,.3,0,.47.07,0,.23,0,.21.08-.26.11-.24.16-.39.31a.56.56,0,0,0,.19.34c-.35.39-.08.75-.28,1.15h.2c-.39.4,0,.82-.17,1.16l.34-.06c.11.09-.08.23-.32.23.11.09-.14.26.14.3.07.09-.14.13-.18.22a.45.45,0,0,1,.07.47l0,0c.07,0,.22,0,.24,0s.11.25-.29.21c.24.19-.16.5.17.67-.11,0-.13,0-.2.07,0,.18.24.35.07.51.06,0,.18-.06.2,0s-.14,0-.2.07c-.18.31.25.57.22.84a4,4,0,0,0,0,1.42l.08,0c-.29.18.35.33-.11.49.08,0,0,.13.2.09-.21.14.23.32,0,.52,0,0,0,0,0,0,.19.16,0,.33.13.51a.2.2,0,0,1,.14-.07c.16.05-.33.19.06.2,0,0-.19,0-.18,0,.18.39,0,.84-.09,1.27.25.28.65,0,.38.23.07,0-.15,0-.07,0-.1.1.44.11.25.19s-.13.05-.28.06c.17.18.39.19.22.35l.12,0c-.34.18-.13.44-.54.51,0,.15-.16.2-.25.14a.79.79,0,0,1-.11-.08s0,0,0,0h-.17a4.31,4.31,0,0,0-1.28.15c-.19.36-.21.35-.43.21a.26.26,0,0,1,0,.12c0-.28-.16,0-.19-.3a4.22,4.22,0,0,1-.94,0s.08.27,0,.25l-.07-.18v.08a.29.29,0,0,1-.06-.28c-.83-.22-1.63.38-2.44.33-.18.12-.46,0-.67,0-.61.4-1.16.72-1.79.47C92.24,131.89,92.34,132.64,92.6,132.8Z"/><path class="cls-5" d="M100.27,113.83c.14,0,.22.08.4,0A2.71,2.71,0,0,0,100.27,113.83Z"/><path class="cls-5" d="M101.81,115.76s.06,0,.08,0,.12-.06,0-.08S101.87,115.74,101.81,115.76Z"/><path class="cls-5" d="M101.93,116.27a.27.27,0,0,0,.22-.2Z"/><path class="cls-5" d="M102.46,116.72c.1,0,.16,0,.15,0A.42.42,0,0,0,102.46,116.72Z"/><path class="cls-5" d="M102.19,116.78s.07,0,.14.07C102.23,116.85,102.39,116.75,102.19,116.78Z"/><path class="cls-5" d="M102.62,117.81s-.11.08,0,.1C102.55,117.89,102.79,117.77,102.62,117.81Z"/><path class="cls-5" d="M102.47,118.31s0,0,0,0a.12.12,0,0,0,.15,0Z"/><polygon class="cls-5" points="102.66 127.3 102.71 127.24 102.59 127.26 102.66 127.3"/><path class="cls-5" d="M103,131.44c-.07.07.12.07.14.09S103,131.53,103,131.44Z"/><polygon class="cls-5" points="101.89 133.2 101.91 133.2 101.71 132.94 101.89 133.2"/><path class="cls-5" d="M102,144.63c.06,0,0,.22,0,.08S102,144.54,102,144.63Z"/><path class="cls-5" d="M89.89,144c-.58.34.09.36-.2.68,0,0,.31-.16.25-.08-.37.39.07.57.47.42l.07-.08c.07,0-.14.24-.08.24l.13-.13c-.13.15,0,.12-.11.24l.24-.22-.13.19c-.3.46.14.07,0,.35a.42.42,0,0,1,.08-.12c-.09.38.13.42.22.63a1.55,1.55,0,0,1,.14-.29c-.1.22-.08.31-.06.37.13-.22,0,.24.09.14l0-.05c-.06.26.11-.12,0,.19l.1-.17c-.11.34.12-.15.09,0l0,.07c0,.1.08-.06.09,0v0c0,.11.14-.07,0,.2.09-.21,0-.12.11-.42.11.35.36.38.58.43a1.54,1.54,0,0,0,.1-.24c0,.06.06.07.06.22a.44.44,0,0,1,.05-.15c.06-.1,0,.31.06.19a.63.63,0,0,1,0-.26c0,.22.05.19.08.27a1.23,1.23,0,0,1,0-.17c0,.26.1,0,.12.13v-.16c.1-.19,0,.34,0,.23a1.15,1.15,0,0,1,0-.18c0,.3.12.22.17.33v-.07c.06,0,.13,0,.18.09,0-.07,0-.39.09-.33,0,.33.1.15,0,.51.06-.05.15-.16.18,0,0-.13.06-.4,0-.43l0-.2c0-.13,0,0,0-.12,0,0,.08.15.1.09,0,.21,0,.58.12.63,0-.13,0-.36,0-.42l.07.63s0-.26,0-.17a1.34,1.34,0,0,0,0,.21s.1.09.12-.24c0-.12,0-.07,0-.18s0,.12.08.12v0c0-.05.08.14,0,.32,0,0,0-.2,0-.1s.07.23.11.24,0-.14,0-.23a1.15,1.15,0,0,0,.19.44c0,.15,0-.28,0-.2.08-.21.18.3.24,0a1.08,1.08,0,0,0,0,.18s0-.24.06-.16c0-.13,0,0,.06.08s0-.07,0-.08.19.3.27.11a.71.71,0,0,0,.09.3l0-.2c0-.12.07,0,.07-.16,0,.25-.18-.2-.11,0,0-.17.09.31.07,0,0,0,.09.23.12,0,0,0,0-.27,0-.26s0,.09.07.16l0,.08c0,.19,0,0,0,.19,0-.16.09.09.06-.23l0-.26s0,.27.08.38v-.12c0,.39.06,0,.11.27,0-.14.13,0,.13-.27.05.11.1.25.14.17a.28.28,0,0,1,0-.13c0-.12,0,0,.07,0s0-.23,0-.37a1.63,1.63,0,0,1,.07.45c0-.39.13.23.15-.12a.47.47,0,0,1-.05-.28c0-.39.09.27.13.08l0,.32c0-.2.1.18.07-.14,0,.11.05-.12.08.19.07-.27.24.13.24-.43,0,.05,0,0,.06.15s0-.12,0,0a1.06,1.06,0,0,1,0,.14c0-.08,0-.1,0-.36s.13.52.2.39,0-.18,0-.16l.07.21c0-.05,0-.29,0-.51,0,0,.06,0,.1.18v-.28c0,.2,0,.13.06.18l0,0c0-.09,0,0,0,0a.43.43,0,0,1,0,.24c0,.09,0,.07.08.18,0-.22,0-.16,0-.19s.06.19.06.18,0,0,0-.18,0,.11,0,0,0-.28,0-.14,0,.42.08.28,0-.14,0-.21l0-.12,0,.19v-.09c0,.2.08.05.12.28,0,0,0-.14,0-.17v0c0-.12.06-.05.1.08v0s0,0,.09.12c0-.16-.1-.74,0-.5a1.08,1.08,0,0,1,.12.47c0-.14.18.16.19-.15a.91.91,0,0,0,.06.16c.09-.09.25.19.27-.2a1.25,1.25,0,0,1,0-.3c0,.16,0-.19,0,.11a.85.85,0,0,1,0,.33c.08.08.17.06.18-.11a.34.34,0,0,0,0,.19c0-.28,0-.33,0-.24l0,.17v-.18c0,.05.08.35.08.18a1,1,0,0,0,0-.18c.06.13.15.36.17.21l0-.26a.44.44,0,0,1,.06.25.87.87,0,0,0,.06-.41c.21.49.38.48.5.41l0-.12c0-.13.06.21.07.12s0-.27-.08-.41.1.21.15.26,0-.1,0,.1,0-.14.1.11c0-.1-.06-.29-.08-.39l0,.12c0-.3-.19-.5-.22-.87l0,0c0-.27-.13-.28-.08-.38a2.44,2.44,0,0,1,.15.59c.08,0,.15.58.22.55s-.07,0-.09-.23.08.09.1,0a.86.86,0,0,0,.09.39c0-.13-.07-.24,0-.27,0,.14.1.24.08.35.09.32,0-.11.12.14a3.07,3.07,0,0,1-.14-.65c0,.23.13.29.18.62a1.3,1.3,0,0,0-.08-.37c0-.15.16.38.08-.06l.06.23c0-.08,0-.14,0-.27s.15.29.08-.05c0,0,.07,0,.1.24s-.08-.16,0,.17c0-.27.06,0,.1.1l0-.13s.05,0,.09.15a1.36,1.36,0,0,1,0-.2l.06.2c.08.08-.06-.36,0-.31l-.07-.15s0-.16,0-.1.11.39.16.53,0-.21,0,0l-.08-.21c0-.06,0-.31,0-.31a.87.87,0,0,1,.12.42s0-.12,0-.25c.06.05,0,.2.1.3,0-.13,0-.31,0-.5l-.11-.29h0a3,3,0,0,1-.1-.45s0,0,.08.1a7.34,7.34,0,0,0,.26.93c.1.09-.17-.92,0-.35,0,.1.12.37,0,.28s.12.37.13.2a5.62,5.62,0,0,0-.16-.61c0,.13,0,.11,0,.07s-.09-.37-.05-.39.08,0,.12.23,0,0,0,.2c.07.06,0-.27.12.1,0,0,0,.21,0,.36l.06.07,0-.14c0-.12.08.26.13.2l0-.29c-.08-.24-.07.13-.16-.26,0,0,.1.17.12.05l0-.07s-.1-.55,0-.25a1,1,0,0,1,.08.28c.08,0,.13.17.18.19-.08-.29.07-.05,0-.34,0,.18-.08.19-.17-.08s0,.06-.14-.28c0,0,0-.36-.08-.58,0,0,0,.07.06.1.06.21,0,.21.09.42,0-.07.13,0,.22.22a.86.86,0,0,0-.1-.33c.09,0,.15,0,.2-.08,0,.35.1.05.14.34a1.34,1.34,0,0,0,.07.49s0-.15,0-.23c.07.18,0-.31.07,0a2.73,2.73,0,0,1-.2-.67c.08.13-.05-.19,0-.21a.78.78,0,0,0,.24.28c0-.27.15-.05.21-.06s-.1-.44-.09-.5.06.33.08.18l0-.06c0,.07,0-.23.18.19l-.11-.32s0,0,0,.07a1.15,1.15,0,0,0-.08-.26c0-.24.08,0,.12,0l0,.19c.11.13.1-.07.18,0l-.06-.19.07.1c-.06-.18-.06-.3,0-.16l-.22-.43c0,.12.09.22.13.41s0,.13-.1,0,0,0,.06.07a1.94,1.94,0,0,0-.16-.41s0-.08,0,0c0-.12-.08-.14-.12-.13s0,.16.06.23c-.06-.22-.12-.28-.15-.2,0,.27-.13-.15-.16-.06a4.43,4.43,0,0,0,.22.49c0,.13,0,0,0,.13a2.66,2.66,0,0,0-.21-.52l0,.17c-.06-.08-.13-.33-.17-.27a.47.47,0,0,1-.2.18l0,.17c-.13-.36-.16-.1-.25-.25,0,.19-.21-.11-.18.2-.18-.09-.34-.19-.47-.08l.08.24c-.07-.18,0,.15,0,.12,0-.21-.09-.25-.15-.4,0,.21-.16,0-.26-.14l0,.18c-.13-.31-.14,0-.2.06s0,.24,0,.23a1.36,1.36,0,0,0-.22-.41s-.09.1-.11.22c-.25-.35-.36-.06-.58-.26l0,.21c-.25-.4-.37,0-.56-.16l.08.35c0,.12-.12-.07-.15-.32,0,.12-.14-.15-.12.15,0,.07-.08-.15-.13-.19-.06.15-.1.12-.2.07l0,0a.6.6,0,0,1,0,.25c0-.09-.1.12-.14-.31,0,.26-.24-.16-.27.19a.67.67,0,0,0-.06-.21c-.08,0-.13.25-.22.07,0,.06,0,.19,0,.21s0-.15-.06-.21-.22.26-.35.23c-.23-.19-.43-.06-.63-.07v.09c-.1-.32-.12.35-.22-.13,0,.08-.06,0,0,.2-.07-.22-.13.24-.23,0,0,0,0,0,0,0-.06.19-.15-.06-.21.12a.59.59,0,0,1,0,.15c0,.16-.11-.36-.09.06a.49.49,0,0,1,0-.2c-.16.17-.37-.07-.55-.16-.12.25,0,.7-.1.39,0,.08,0-.16,0-.07,0-.11,0,.47-.08.25a1.44,1.44,0,0,0,0-.3c-.08.17-.09.4-.16.21v.13c-.08-.37-.16-.17-.23-.61-.39-.07-.75-.34-1.08-.42s-.63-.21-1-.08c-.16.31-.17.3-.2.14l0,.11c.09-.27,0,0,0-.3-.11,0-.16-.1-.24-.15s-.1.25-.11.23l.07-.18,0,.07a1.19,1.19,0,0,1,.11-.25c0-.3-.46.06-.54-.13-.1,0,0-.08,0-.13a.9.9,0,0,1-.47,0,.17.17,0,0,1,0-.28S90,143.84,89.89,144Z"/><path class="cls-5" d="M102,144.62a1.37,1.37,0,0,0,.1.4C102,144.89,102,144.74,102,144.62Z"/><path class="cls-5" d="M101.42,146.33s0,.06,0,.09.06.12,0,0A.48.48,0,0,1,101.42,146.33Z"/><path class="cls-5" d="M101.2,146.49a.3.3,0,0,0,.15.21Z"/><path class="cls-5" d="M101.1,147.06c0,.11,0,.17.05.16A.75.75,0,0,0,101.1,147.06Z"/><path class="cls-5" d="M101,146.78s0,.08,0,.16C101,146.83,101.07,147,101,146.78Z"/><path class="cls-5" d="M100.61,147.28s-.07-.1,0,0C100.55,147.22,100.66,147.46,100.61,147.28Z"/><path class="cls-5" d="M100.33,147.15s0,0,0,0a.24.24,0,0,0,0,.15Z"/><polygon class="cls-5" points="95.98 147.46 96.01 147.52 96 147.39 95.98 147.46"/><path class="cls-5" d="M94.05,147.55c0-.08,0,.12,0,.14S94,147.53,94.05,147.55Z"/><polygon class="cls-5" points="93.05 146.86 93.05 146.86 93.08 146.6 93.05 146.86"/><path class="cls-5" d="M71.35,130.69c0-.07.14-.12,0-.08S71.29,130.73,71.35,130.69Z"/><path class="cls-5" d="M72.65,146.16c.6.11.27-.42.72-.44,0,0-.27-.15-.17-.16.51,0,.49-.42.35-.8l-.09,0c0-.07.27,0,.26-.06a.37.37,0,0,1-.14-.07c.16.07.13,0,.26,0a1.6,1.6,0,0,1-.23-.16l.2.06c.47.13.07-.21.35-.21a.22.22,0,0,1-.12-.05c.35,0,.42-.29.62-.45a1.39,1.39,0,0,1-.26-.1.36.36,0,0,0,.35,0c-.19-.11.23,0,.15-.12l-.05,0c.24,0-.09-.11.19-.05l-.15-.09c.3.09-.11-.13.06-.11l0,0c.09,0,0-.09,0-.1l0,0c.12-.05,0-.15.21-.07-.17-.09-.13,0-.37-.09.38-.16.42-.47.53-.74a1.45,1.45,0,0,0-.19-.12s.08-.09.2-.08-.11-.05-.11-.07.27,0,.19-.06a.75.75,0,0,1-.24,0c.2,0,.2-.06.27-.1l-.14,0c.23,0,0-.12.15-.14h-.15c-.13-.13.3,0,.23-.05l-.16,0c.27,0,.23-.13.34-.18h-.06c.06-.07,0-.16.14-.22,0,0-.33-.06-.27-.13.28.06.15-.11.45,0,0-.08-.11-.21,0-.24-.11,0-.33-.1-.37,0l-.15-.07c-.12,0,0,.05-.11,0s.14-.09.1-.12c.18,0,.51,0,.56-.09-.12,0-.3-.08-.36-.06l.56,0s-.22,0-.13-.08a.37.37,0,0,0,.18,0s.09-.11-.18-.16c-.1,0-.06,0-.16,0s.11,0,.13-.09h0s.14-.09.28,0-.16,0-.09,0,.23-.07.24-.12h-.2a1,1,0,0,0,.42-.19c.13,0-.24,0-.18,0-.15-.12.29-.19,0-.31,0,0,.19,0,.15,0s-.21-.06-.13-.09c-.11,0,0,0,.07-.07s-.05,0-.07,0,.28-.23.13-.35a.54.54,0,0,0,.27-.08h-.18c-.1,0,0-.09-.13-.1.22,0-.19.21,0,.14-.15,0,.28-.09,0-.09,0-.05.21-.09,0-.15,0,0-.24,0-.23,0s.09,0,.15-.08l.07,0c.17,0,0-.06.17,0-.14,0,.09-.11-.19-.11h-.22a1.4,1.4,0,0,1,.33-.07.16.16,0,0,0-.1,0c.34,0,0-.08.24-.12-.11-.07,0-.18-.22-.2.09-.06.21-.11.13-.17a.19.19,0,0,1-.11,0c-.1,0,0,0,0-.08a2.14,2.14,0,0,1-.33-.1,1,1,0,0,1,.39-.06c-.34,0,.2-.16-.11-.2a.35.35,0,0,1-.24.05c-.34,0,.23-.12.07-.18h.27c-.17,0,.15-.13-.13-.1.1,0-.1-.08.17-.1-.24-.1.11-.33-.38-.34,0,0,0-.06.13-.07s-.1.06,0,.05l.12,0c-.07,0-.1-.06-.31,0s.43-.15.3-.24-.15,0-.14,0l.17-.09c-.06-.06-.26,0-.44,0,0,0,0-.08.13-.12H76.2c.18,0,.1-.06.15-.08l0,0c-.08,0,0,0,0-.07a.33.33,0,0,1,.21,0c.08,0,.05-.06.14-.1-.18,0-.14,0-.17-.07s.15-.07.15-.08,0-.05-.16,0,.1,0,0,.05-.24,0-.13,0,.36-.07.23-.11l-.17.07-.11,0,.16,0h-.08c.17-.06,0-.11.22-.17,0,0-.13,0-.16-.06h0c-.11,0,0-.08,0-.14h0s0-.07.09-.12c-.14,0-.62.14-.44,0,0,0,.27-.16.38-.17-.14-.06.08-.24-.2-.25a.5.5,0,0,0,.13-.07c-.12-.12.07-.35-.28-.35,0,.06-.16.06-.25.09.13-.08-.16,0,.08-.09s.21-.07.28,0a.15.15,0,0,0-.15-.23.18.18,0,0,0,.14-.06c-.22.08-.28,0-.22,0l.14-.06-.16,0s.28-.13.13-.12l-.15.05c.08-.09.24-.23.1-.23l-.22,0a.23.23,0,0,1,.18-.1c-.16,0-.2-.08-.38,0,.33-.31.23-.53.11-.68l-.09,0c-.12,0,.16-.11.07-.11s-.22.07-.31.16.12-.16.13-.22-.06.07.1,0-.16,0,0-.14a1.35,1.35,0,0,0-.29.16l.07-.09c-.26.08-.33.31-.64.41v0c-.22.08-.17.2-.3.16a1.19,1.19,0,0,1,.44-.27c0-.1.43-.28.36-.35s0,.08-.15.15,0-.12,0-.13a.47.47,0,0,0,.28-.18c-.12,0-.16.13-.22.08.1-.07.15-.17.25-.17.23-.15-.11,0,.06-.16-.18.08-.36.29-.49.27.18-.08.17-.21.44-.31a.59.59,0,0,0-.28.15c-.13,0,.24-.26-.1-.09l.16-.11-.22.07s.16-.24-.09-.09c0,0,0-.09.15-.17s-.09.13.16,0c-.21.08,0-.08,0-.15l-.1,0s0,0,.08-.13a.28.28,0,0,1-.15.08l.13-.1c0-.11-.27.14-.27.06l-.08.12s-.14,0-.11,0l.36-.29c0-.07-.17.08-.06,0l-.12.14s-.24.12-.27.07.17-.23.28-.23-.12,0-.2.08c0-.08.14-.09.19-.18-.1,0-.27.06-.43.12l-.18.19,0,0c-.15.16-.15.07-.32.22,0,0,0-.06,0-.12.34-.14.35-.34.63-.51,0-.13-.69.41-.34,0,.07,0,.24-.22.21-.11s.23-.23.07-.21-.3.15-.4.32c.08-.06.09,0,.07,0s-.25.19-.3.14,0-.09.11-.18,0,.05.16-.07-.24.06,0-.16c0,.05.17-.06.27-.13l0-.09-.09.08c-.14,0,.16-.16.07-.21l-.23.12c-.15.14.17,0-.11.24-.05,0,.07-.16,0-.15s0,0,0,.08-.4.25-.25,0,.09-.08.19-.16,0-.19,0-.25c-.18.16-.1-.07-.25.14.14-.07.23.05.07.22s.08,0-.14.22c-.06,0-.28.13-.44.24s0-.07,0-.1.15-.09.3-.2c-.1,0-.08-.15,0-.3-.09,0-.22.16-.21.19a.28.28,0,0,0-.23-.19c.26-.15,0-.12.18-.25a.61.61,0,0,0,.35-.22s-.09.09-.15.12c.09-.13-.24.12-.08-.07,0,.13-.25.24-.41.41,0-.13-.12.1-.17.06a.58.58,0,0,0,0-.33c-.22.09-.17-.15-.23-.21s-.28.25-.35.25.23-.17.08-.14l0,0c0-.05-.23,0,0-.24l-.17.21s0,0,0-.07-.14.11-.16.17c-.17.1-.06-.09-.09-.13l.14-.09c0-.16-.15-.07-.19-.17l-.1.12,0-.1c-.09.12-.19.17-.13.06l-.15.36c.09,0,.09-.16.22-.26s.14,0,0,.11,0,0,0-.09c-.15.16-.11.18-.19.3s-.07,0,0,0,0,.12,0,.16.1-.09.14-.15c-.13.15-.14.22,0,.22s0,.18.09.18a1.34,1.34,0,0,0,.22-.38c.1,0,0,0,.14,0a1.8,1.8,0,0,0-.25.39l.11-.1c0,.09-.17.24-.09.25a.9.9,0,0,1,.31.16l.11-.1c-.2.24,0,.19,0,.32.19,0,.06.26.3.14,0,.22.08.4.26.52l.15-.15c-.1.12.12-.06.12,0-.17.07-.15.17-.24.26.19,0,.11.17,0,.31l.12-.08c-.18.22.09.15.19.21s.19-.09.19-.06c-.17.17-.13.18-.21.33a.34.34,0,0,0,.24.09c-.17.34.14.41.08.68l.17-.06c-.23.34.19.42.1.65l.27-.13c.12,0,0,.14-.22.21.12,0-.07.18.18.12.08,0-.1.11-.11.16.15.06.14.11.12.23l0,0s.18-.08.2-.06.14.11-.22.19c.24,0-.07.29.24.31a.45.45,0,0,0-.17.08c0,.09.27.13.13.25.06,0,.16-.07.18,0s-.12,0-.17.08c-.15.19.26.26.25.41s0,.51,0,.76h.07c-.27.11.31.15-.11.26.07,0,0,.07.18,0-.19.08.2.16,0,.27,0,0,0,0,0,0s0,.18.11.27a.5.5,0,0,1,.13,0c.15,0-.3.1.06.11,0,0-.18,0-.17,0,.17.22-.11.46-.19.68.2.17.6,0,.33.15.06,0-.14,0-.07,0-.1,0,.4.1.21.13s-.13,0-.26,0c.14.11.33.14.16.21h.12c-.33.07-.16.2-.54.24-.19.5-.47.94-.63,1.4a5.24,5.24,0,0,0-.41,1.43c.23.21.21.21,0,.29l.1,0c-.24-.07-.07.08-.3,0,0,.19-.19.32-.28.5,0,0,.23,0,.2.07l-.16,0,.06,0a.43.43,0,0,1-.23-.07c-.42.35-.19,1-.56,1.38,0,.15-.15.24-.27.33.07.47.09.9-.33,1.11C71.86,145.94,72.43,146.23,72.65,146.16Z"/><path class="cls-5" d="M71.4,130.75c.08-.08.16-.1.23-.24C71.56,130.59,71.46,130.67,71.4,130.75Z"/><path class="cls-5" d="M73.29,130.73s0,0,.06,0,.06-.09,0-.06S73.32,130.69,73.29,130.73Z"/><path class="cls-5" d="M73.6,130.93a.22.22,0,0,0,.07-.22Z"/><path class="cls-5" d="M74.18,130.9c.09,0,.12-.07.09-.1A.43.43,0,0,0,74.18,130.9Z"/><path class="cls-5" d="M74,131.06s.08,0,.14,0S74.14,131,74,131.06Z"/><path class="cls-5" d="M74.75,131.42s0,.1.07.05C74.74,131.5,74.87,131.32,74.75,131.42Z"/><path class="cls-5" d="M74.84,131.78s0,0,0,0a.15.15,0,0,0,.1-.09Z"/><polygon class="cls-5" points="76.75 137.37 76.8 137.33 76.69 137.34 76.75 137.37"/><path class="cls-5" d="M76.68,139.9c-.07,0,.1,0,.12,0S76.66,139.93,76.68,139.9Z"/><polygon class="cls-5" points="75.87 141.11 75.87 141.1 75.65 141.06 75.87 141.11"/></svg>