<svg id="Layer_14" data-name="Layer 14" xmlns="http://www.w3.org/2000/svg" xmlns:xlink="http://www.w3.org/1999/xlink" viewBox="0 0 245.29 326.78"><defs><style>.cls-1{fill:none;}.cls-2{fill:#d1d1d1;}.cls-3{clip-path:url(#clip-path);}.cls-4{fill:#ea7259;}.cls-5{fill:#202020;}</style><clipPath id="clip-path" transform="translate(-4.52 -5.36)"><circle class="cls-1" cx="127.16" cy="128" r="122.64"/></clipPath></defs><circle class="cls-2" cx="122.64" cy="122.64" r="122.64"/><g class="cls-3"><path class="cls-4" d="M146.91,328.69c23.16-10.74,46.81-23.87,59.39-45.18,13.55-22.93,11.26-53.28,5.1-77.74-6.56-26.06-25.62-47.19-54-56-25.11-7.76-55.83-2.39-77.53,11.14-47.44,29.58-57,93.45-30.18,136.68,13.87,22.37,41.94,36.54,70.84,32.17,30.58-4.62,56.08-23.52,69.43-48.44,13.94-26,16.89-58.11,1.54-83.91C183.63,184.22,168.63,174,152.13,171a57.55,57.55,0,0,0-48.74,14.37C91,196.64,86.23,211.71,84.75,226.91c-1.21,12.48-1.49,27.27,3.19,39.17,6.12,15.56,20.56,26.44,39.08,27.85a58.72,58.72,0,0,0,43.49-14.64C182.7,268.26,187.11,253,188,238c.75-12.94-1.37-27.1-9.42-38.05-12.29-16.75-37.67-20.71-54.44-6.23-5.56,4.8-9,11.31-11.83,17.63-3.37,7.52-6.27,15.17-7.73,23.16-3,16.59-4,36.35,12.06,48s37.31,10.72,54.9,2.32c29.6-14.14,36.91-46.9,31.92-74-5-27.3-20.84-54-51-64.65-15.72-5.52-33.4-6.94-49.55-1.27A87.5,87.5,0,0,0,67,168.79c-18,20-33.21,47.11-30.83,73.28,1.39,15.37,8.28,29,20.32,40,9.82,8.92,22.7,14.12,35.78,18,10.41,3.11,21.34,4.56,32.25,5.5,7.31.62,13.66.49,20.12-3.25,5.31-3.08,10.26-8.89,11.44-14.54,2.34-11.23-5-26.78-19.58-28a185.85,185.85,0,0,1-24.6-3.51q-3-.67-6-1.5c-6.24-1.75,3.14,1.43-1-.31-1.81-.76-3.65-1.45-5.43-2.28-1.07-.51-7.06-3.82-3.71-1.83s-1.74-1.44-2.43-2-1.14-1.09-1.75-1.58c-2-1.56,1.54,1.58,1.59,1.75-.32-1.12-2.46-3.4-3.29-4.42-1.87-2.31,1.29,3.77.37.72-.34-1.13-.9-2.23-1.26-3.37-.07-.21,1.61-1-.72-2.57,1.21.19.46,4.67.38.94,0-2.09,0-4.17-.07-6.26,0-2.83-.2,1.76-.2,1.76-.22-.66.57-3.17.67-3.62a67.34,67.34,0,0,1,2-7.22c.3-.9.68-1.78,1-2.68.86-2.65-.56,1.15-.57,1.29.13-1.76,2.12-4.43,3-6.05a118,118,0,0,1,7.25-11.81c.57-.8,4.58-5.8,2.32-3.22s2.21-2.42,2.73-3q1.83-2,3.81-3.8c.87-.81,1.79-1.58,2.68-2.37,2.66-2.35-.52-.27-.9.62.52-1.23,4-2.58,5.28-3.3.39-.21,2.22-.89,2.38-1.23-.72,1.53-4.63,1.62-1.22.58,1.22-.37,7.54-1.58,3.58-1.25s-.47.06.23,0c1.25-.07,2.51-.11,3.76-.18,5-.27-1,.28-1.4-.21a12.36,12.36,0,0,0,2.78.43c1.22.22,2.42.61,3.64.81,3,.49-2-.71-1.91-.72,1.73,0,4.43,1.83,5.95,2.6l2.44,1.32q-3.87-2.52-1.6-1c.5.34,1,.7,1.47,1.07s5,3.78,4.8,4.1-2.89-3.55-1.13-1.15c.56.76,1.24,1.46,1.81,2.21,1.36,1.76,2.4,3.68,3.71,5.46,2,2.77-1.52-3.66-.23-.53.47,1.14,1,2.26,1.51,3.41q1.25,3,2.19,6.15c.28.93,1.92,7.33,1.18,4.12s.46,3.43.55,4.23c.27,2.48.45,5,.48,7.47,0,1.19.58,4.66-.18,5.63,1.21-1.55.65-3.63-.07-.71-.22.9-.38,1.82-.61,2.73s-.52,1.8-.77,2.7c-1.43,5.1.22-.58.29-.47s-1.16,2.15-1.33,2.43c-2.63,4.46-.35-.15.34.05-.1,0-5.83,6-2.63,2.93s-3.64,2.41-3.52,1.9,4.67-1.41,1.94-1a13.38,13.38,0,0,0-2.64.74c.59-.81,6.26-.13,1.45-.45,1.36.09,5.35.8,1.84.13-2-.37-3.37-1.63,1.54.51a12.78,12.78,0,0,1,3.83,2.82,11.36,11.36,0,0,1,2.51,3.41c1.75,4.22.39,2.85.53,1,.07-.92,0-1.85,0-2.77,0-.75.35-5,.05-1.88-.29,2.91.08-.43.16-.86.31-1.65.58-3.31,1-4.95a75.6,75.6,0,0,1,3.93-12.6c-1.79,4.31.8-1.27,1.55-2.64l1.36-2.38a9.63,9.63,0,0,1-5.36,4.23q-4.71,4.05-11.21,1.49c-6.29-.45-7.09.25-10.89-2.69,3,2.34-1.13-1.29-1.4-1.62,2.54,3.15-1.24-4.24,0-.37a24.25,24.25,0,0,0,1,2.76c-.14-.06-.74-5.47-.5-2.6.19,2.34.57,4.65.71,7,.12,2.06.08,4.11.11,6.17,0,3.23-1.19.35.25-1-.32.31-.33,2.12-.42,2.57s-1.63,5.82-1.56,5.85c-.3-.18,2.2-4,.67-1.73-.28.42-2.31,3.69-2.26,3.79s3-3.69,1.34-1.8a21.12,21.12,0,0,0-1.64,1.57c-.55-1.53,4.75-2.79,1.4-1.17a14.12,14.12,0,0,0-2.06,1.14c-2.44,1.81,4.88-1.21,1.78-.8a14.2,14.2,0,0,0-2.28.68c-.74.25-3.81.91.37,0,5.17-1.12-.92-.38-1.17-.22-.43.28,6.21.05,3.25.16-.84,0-4.68-1-.37.06,3.36.8,1.55.37.5-.11a12.07,12.07,0,0,1,5.07,4.14c-2.54-3.61.89,3.9-.46-.23,0,.08-1.19-3-1-3.17-.21.2.57,5.11.33,1.21-.27-4.26-.58-8.49-.63-12.77,0-2.35,0-4.71.11-7.06.05-1,.05-2,.2-3-.5,3.36-.12,1.63.37-.67.43-2,1.11-3.87,1.66-5.82,1-3.5-2.25,3.71-.34,1.07a20,20,0,0,0,1.24-2.15c1.39-2.57,4.32-.85,1.84.09,1.75.44.05.09-1.06-1-.26-.28,1.82-1.42,1.84-1.74-2.74,1.95-2.24-.26-1.76,1.36,1,3.33.95-.61,1.45-.88,1.8-1.56-1.68.83-2.32.8a27.86,27.86,0,0,1,3.31-1c.18.5-5.59.2-2.47.48,1,.09,5.07-.33,1.07-.15-3.65.17.21,2.66,1,3.16.53.32,2.2-1.18-.64-2.89s0,.34,1,.71c2.81,1,3,4,5.15,6,.84.78-6.44-5.42-5.52-4.72,2.27,1.73-.08-1,0-1,.57.19-.15.75,0,1,.32.45,4.51,8.3,3.29,5.69s.5-2.48.64-2.07c.41,1.21.89,2.38,1.27,3.59.27.91.45,1.85.74,2.75,1,3.17-.51-5.48,0,.34.35,4,.27,8,.37,12,.08,3.42.75-4.16.12-.77-.16.91-.26,1.84-.42,2.75a70.06,70.06,0,0,1-1.68,7.23c-.59,2.09-1.38,4.13-2.07,6.19-.88,2.62.56-1.24.58-1.38a15.47,15.47,0,0,1-1.66,3.39c-1.89,3.65-4,8.28-7.16,11.25,4.06-3.84-.51.32-1.47,1.3-1.44,1.48-3,2.83-4.54,4.25-3.17,3,3.85-2.47-1.33,1a71.25,71.25,0,0,1-6.26,3.73,14.34,14.34,0,0,0-2.45,1.24c.06-.32,5.92-2.17,1.14-.49-1.72.6-3.42,1.21-5.17,1.71a21.47,21.47,0,0,0-3.51.86c.09-.09,5.41-.61,2.51-.38-2.37.18-4.78.2-7.13.41-2.77.25,2.29.13,2.56.27a20.84,20.84,0,0,0-3.53-.53c-.88-.17-1.75-.46-2.62-.61-3.44-.56,4.31,1.93,1.36.46-1.45-.73-3-1.47-4.53-2.12-3.06-1.31,3.81,2.89,1.3.86-.84-.67-1.75-1.27-2.58-1.95s-1.58-1.45-2.42-2.12c-2.23-1.76,1.81,1.7,1.49,1.71-.82,0-3-3.63-3.52-4.38-1.11-1.53-2.07-3.13-3.07-4.72-.35-.55-1.76-3-.09-.1,1.92,3.36-.47-1.25-.63-1.64A73.55,73.55,0,0,1,89,259c-.27-1-.48-2.07-.74-3.1-.69-2.65.57,2.4.45,2.32-.95-.62-.75-5.52-.86-6.78a87.37,87.37,0,0,1-.28-12c0-.86.14-1.72.16-2.58,0-2.67-.17,1.86-.25,2,.94-1.57.74-5,1.12-6.79a92.83,92.83,0,0,1,3.31-11.57c1.39-4.05-2,4,.67-1.41Q94.13,216,96,213c.38-.61,3.6-4.73,3.43-5.05.08.16-3.06,3.51-1.15,1.49.61-.65,1.15-1.35,1.75-2,1.41-1.53,2.9-3,4.46-4.42.64-.58,1.3-1.13,1.94-1.7,4.06-3.58-3.16,1.93-.42.35,1.73-1,3.34-2.16,5.09-3.13.91-.5,6.9-3.26,3.14-1.71s2.64-.9,3.44-1.15c1.94-.63,3.92-1.17,5.91-1.64,6.48-1.51-3.9.18.82-.25,2-.18,4-.42,6.09-.5.83,0,5.95.28,6.07,0-.08.17-5.54-.68-2.72-.17,1.4.25,2.83.36,4.23.62,1.68.31,3.31.73,5,1.14,4.28,1.05-4.62-1.91.75.42,1.36.59,3.71,2.41,5.21,2.62-.73-.1-4.63-3.4-1.28-.69.9.73,1.84,1.41,2.73,2.16a21.88,21.88,0,0,0,2.53,2.3c-.2,0-3-3.59-1.44-1.51,1.18,1.55,2.46,3,3.55,4.59.8,1.16,1.52,3.32,2.61,4.2-2.39-1.94-1.66-3.49-.65-1.08.42,1,.89,2,1.3,3a88.2,88.2,0,0,1,3.43,11.13c1.07,4.24-.72-4.81.19,1.26.34,2.22.6,4.46.8,6.7.33,3.63.5,7.26.56,10.9,0,2.13,0,4.25,0,6.38,0,1.36-.19,2.73-.15,4.09.09,3.47.76-3.59.06-.18-.48,2.34-1,4.67-1.5,7-.24,1.08-1.81,3.11,0,.62,2-2.8,0,0-.48.85-.87,1.69-1.91,3.27-2.93,4.88-.34.54-2.08,2.87,0,.16,2.36-3.11-1,1-1.29,1.3-1.15,1.22-2.36,2.39-3.61,3.53-.85.78-5.42,4.68-2.73,2.43s-2.12,1.44-3.16,2.13c-2,1.31-4,2.56-6.11,3.77-7.27,4.24-14.93,7.9-22.63,11.47-12.28,5.7-15.61,22.87-8,32.49,8.82,11.15,23.13,12.93,36.26,6.84Z" transform="translate(-4.52 -5.36)"/></g><path class="cls-5" d="M143.22,183.13c.07,0,0-.25.07-.09S143.2,183.23,143.22,183.13Z" transform="translate(-4.52 -5.36)"/><path class="cls-5" d="M142.43,182.22a.53.53,0,0,1,.57-.52c.26,0,.5,0,.74-.21.06,0,0,.42.11.33.45-.62,1.34,0,1.36.65l-.09.08c0,.11.34-.12.38,0s-.1,0-.17.14c.19-.14.19.05.36,0-.06.09-.21.19-.27.29l.25-.11c.32-.11.36,0,.36.13s-.05.26.12.33a.22.22,0,0,0-.16,0c.46.27.36.84.31,1.32a1.28,1.28,0,0,0-.34-.14.38.38,0,0,1,.25.43c-.28-.1.11.33-.13.38l0-.05c.17.29-.24,0,0,.34l-.22-.11c.25.34-.27,0-.2.18l.06.06c0,.14-.18,0-.21.1l0,0c-.11.2-.33,0-.18.32-.17-.2.12-.19-.15-.47a1.43,1.43,0,0,1-1.75.31.7.7,0,0,1,0-.32c-.08,0-.22,0-.35.08,0,0,.05-.16,0-.19s-.31.23-.33,0a.45.45,0,0,0,.23-.2c-.23.13-.32,0-.47,0a.31.31,0,0,0,.17-.09c-.31.1-.11-.21-.33-.18l.18-.08c.07-.25-.36.17-.34,0,.07,0,.12,0,.19-.08-.38,0-.41-.24-.56-.35l.07,0c-.1-.16,0-.34-.2-.52.08-.08.45,0,.38-.17-.38,0-.13-.31-.56-.25.08-.18.29-.39.21-.54.11.12.45.1.44.22h.24c.14.07-.07.06.11.1,0,0-.07-.24,0-.25-.15-.18-.46-.51-.36-.72.06.17.35.22.36.31a3.66,3.66,0,0,1-.33-.69c0-.06.21.2.23.06a.43.43,0,0,1-.1-.23s.23-.28.45,0c.1.11-.06.13.07.2s.05-.18.17-.24l0,0c.09,0,.19-.24,0-.4-.07,0,.09.2,0,.13a.37.37,0,0,1,.33-.37.57.57,0,0,0,0,.27A.92.92,0,0,1,144,181c0-.17-.16.3-.18.21.17.14.35.08.55.08s.39.05.41.27c0,0,.12-.22.1-.18s0,.32.1.32c-.09.11.13.05.24.1s0,.07-.11,0c.2,0,.78.42.68.85.09,0,.41.12.42.22H146c-.11.1.07.29-.12.32.15.08.07-.1,0-.24s-.22-.25-.08-.17c-.17.09.43.24.11.25,0,.15.31.32.08.5,0-.06-.31-.14-.3,0s.11.07.15.28l.07.15c.22.06-.11.23.17.2-.17,0-.07.47-.4.27l-.23-.17c0,.09.17.31.21.47a.25.25,0,0,1-.14,0c.33.3-.22.21-.12.55-.32.07-.66.35-.86.11-.13.18-.31.37-.54.28,0,0,.1-.06.11-.16s-.16,0-.28.06-.24-.28-.31-.47c-.18.09-.2.34-.26.47,0-.23-.14-.2-.3-.19s-.34,0-.32-.23c.1,0,.34-.05.28-.22.14-.42-.45.1-.5-.27a3.25,3.25,0,0,0-.23.29c.08-.23-.46-.26-.13-.43-.17,0-.05-.37-.36-.2a4.68,4.68,0,0,0-.07-.86c0-.28.09-.53.43-.56,0-.07.06-.19-.12-.23s.09.18-.05.18c0-.06-.08-.1-.13-.12.12-.12.19-.19.42,0,.3-.14-.44-.54-.05-.84.1.11.17.12.23,0a2,2,0,0,1,0-.35c.28-.15.33.17.49.36,0-.07.11-.11.15-.18l-.13.09a.27.27,0,0,0,0-.17l.29.17c-.2-.13,0-.17,0-.25v.08c.08.07.14,0,.18-.09a.32.32,0,0,0-.32-.12c0-.13.08-.15.08-.3.1.23.25.06.34.05s0-.25.06-.25.17,0,.15.15-.12-.08-.13,0,.17.28.24.08-.18-.46.06-.36a1,1,0,0,0,0,.26l.21.08,0-.22s0,.07,0,.1c0-.25.25-.13.26-.39.09,0,.21.12.3.15l0,0c.11.12.24,0,.34-.12v.05a.27.27,0,0,0,.28-.13c.13.19-.05.84.12.59.13,0,.3-.37.27-.52.22.2.67,0,.77.39.07-.06.08-.12.18-.13.32.24.95.29.87.84-.15,0-.17.15-.26.23.21-.07-.09.21.2,0,.14-.13.23-.19.21-.33.26.11.5.45.4.66,0-.11.12-.09.2-.07-.28.14-.25.31-.09.38h0l.18-.06-.15.16c.08,0,.41-.09.28.11a.85.85,0,0,0-.19.1c.19.08.52.24.38.44l-.27.17c0,.06.22.16.29,0-.14.29-.18.46-.42.54a1.31,1.31,0,0,1,.08,1.77l-.13-.09c-.19.06.19.2,0,.24-.09-.11-.31-.07-.4-.25-.23.08.08.34.05.5.15.13,0-.16.15,0s-.29.14-.09.35a.79.79,0,0,1-.33-.3l0,.18c-.34-.12-.26-.63-.68-.78l0,.09c-.28-.14-.13-.37-.33-.3.06.15.31.51.46.53-.08.21.44.55.22.73-.17-.08.14-.18-.07-.32s-.09.26-.23.28c.16,0,.28.3.23.39s-.09-.27-.27-.17c.08.15,0,.37.19.37.15.36-.25,0-.2.35-.19-.2-.14-.64-.39-.64.16.2-.08.45.21.73-.13,0-.22-.2-.24-.37s-.1.56-.34.11l.05.26a1.9,1.9,0,0,1-.26-.22c-.07,0-.17.22-.25.23s-.08-.05-.1-.17c0,0-.29.07-.14.33s.16-.18.29,0l0,.08,0,0c-.16-.18-.21.14-.3.26l0-.15c-.05.07-.19.05-.22.22a.2.2,0,0,0-.05-.23l0,.24c-.25.13-.08-.41-.31-.34.06-.05.11-.12.17-.18s-.12-.18-.22-.11a5.47,5.47,0,0,1-.18.63c-.15.09,0-.24-.19,0l.19-.25c0-.07-.09-.35-.24-.37s-.33.34-.17.48a.19.19,0,0,1-.09-.3c-.2,0,0,.24-.21.33a5.51,5.51,0,0,1-.24-.64l.25-.3-.1,0c.2-.24,0-.23.16-.5,0-.06-.13,0-.21.07,0,.52-.43.55-.56,1-.34,0,.29-1.05-.27-.56,0,.12-.3.35-.08.33-.13-.13-.33.32-.44.05.24-.08.1-.47.43-.58-.09.12.05.16.1.14,0-.19.22-.39.09-.47s-.22-.08-.34.12.15.07,0,.25c-.23-.06,0-.38-.37-.08.13.06,0,.29-.09.43l-.21,0,.13-.12c-.15-.27-.26.19-.45,0l.12-.34c.24-.16.22.36.48,0-.11-.12-.31,0-.35-.18a.81.81,0,0,0,.15,0c0-.05.36-.53-.05-.43-.18,0-.15.09-.28.21-.21-.18-.41-.13-.54-.27.3-.17-.15-.29.25-.32-.13.19.15.51.45.36.24-.34.1.18.43-.07-.13-.14.17-.4.35-.59,0,0-.12,0-.17,0s-.16.18-.35.35a.53.53,0,0,0-.57-.25c.06-.13.28-.23.35-.18a1,1,0,0,1-.3-.68c-.33.29-.17-.23-.45,0-.06.16-.27.38-.47.36,0-.1.16-.05.23-.12-.25-.06.28-.28-.08-.31.2.24.48-.08.8-.11-.21-.11.22,0,.18-.19a.91.91,0,0,1-.42-.55c.3-.22.1-.6.18-.83.19,0,.49.16.58.1s-.39-.09-.15-.18l.05,0c0-.11.36-.15,0-.5l.27.28c.05,0,0-.09,0-.13s.2.12.24.21c.26.1.09-.17.18-.27l-.21-.12c.06-.29.33-.19.51-.33l.06.21.09-.16c0,.22.13.34.17.16a1,1,0,0,0-.1.57c-.09-.11,0-.27-.13-.47s-.27,0-.17.16c.06,0,0,0,.05-.14.14.28.07.3.15.49,0,0,.08.05,0,0,0,.15,0,.19,0,.22s-.13-.14-.18-.21c.16.22.19.3.09.31-.29-.15.06.23,0,.25a1.18,1.18,0,0,1-.43-.46c-.16,0-.05.08-.21.09a4,4,0,0,1,.51.43l-.19-.08c.06.12.35.22.28.27a.5.5,0,0,0-.16.37l-.2,0c.43,0,.21.2.43.22-.12.24.32.19.07.45.31.16.59.19.79.4l-.2.23c.17-.16-.05.16,0,.16.06-.24.22-.23.33-.38,0,.26.28.1.42-.09l-.05.2c.18-.35.21,0,.35.06s0,.28.09.25c.05-.33.09-.31.13-.53h.05a.59.59,0,0,1,.22.13.65.65,0,0,1,.15-.43.31.31,0,0,0,.11-.34l.21.12c-.14-.25-.14-.29-.09-.37s.11-.17,0-.23h.42c.13-.07-.12-.13-.41-.08.12-.07-.21,0,.11-.16.06-.07-.2,0-.26,0l0,0c.08-.11,0-.14-.07-.14v0a1.1,1.1,0,0,0,.24-.19c-.12.05,0-.17-.35.19.08-.12,0-.11-.06-.09s-.09,0,0-.15l-.12.22s0-.28-.14-.07c0-.07.05-.23,0-.25s0,.18-.05.25c-.1.24-.23-.25-.32-.15s0,.15,0,.17l-.61-.41c0,.08.24.17.13.13h0a.4.4,0,0,0-.2,0h0a.55.55,0,0,0,.18-.21v0c0-.08,0-.09,0,0v0a.34.34,0,0,0,0,.1h0s.05.13,0,.12l.05.07s0,0,0,0a.73.73,0,0,0-.48-.08s-.15,0,0,0l.22,0c.12,0,.15,0,0,0,.08,0-.18.05-.08,0-.13,0,.47-.25.23-.17s-.15.06-.31.15c.16-.11.32-.32.14-.19l.11-.11c-.17.14-.2.21-.15.13s0-.08,0-.09h0c0,.13,0-.31,0,.31h0a.43.43,0,0,0,0,.14,1.48,1.48,0,0,0,.21.31s.14.09,0,0a.71.71,0,0,0-.21,0h-.12l.52-.06h0v0h0s0,0,0,0,0,0,.07.14c.11.36.17.34.14.17,0,.06,0,.08.06.13-.14-.28,0,0-.13-.31.08,0,.05-.08.05-.11a1.34,1.34,0,0,0,.25.12l-.18-.09.08,0a1.35,1.35,0,0,0-.28-.11c-.14,0,0,0,.06,0s.15-.26,0-.26c0-.15-.19-.08-.31,0-.28-.5-1.06-.73-1.41-.2C142.53,183.32,142.2,182.52,142.43,182.22Z" transform="translate(-4.52 -5.36)"/><path class="cls-5" d="M143.16,183.15c0-.16-.06-.26,0-.47A3.65,3.65,0,0,1,143.16,183.15Z" transform="translate(-4.52 -5.36)"/><path class="cls-5" d="M140.92,184.67c.05,0,0,.07-.07.09s-.17,0-.1-.12S140.85,184.67,140.92,184.67Z" transform="translate(-4.52 -5.36)"/><path class="cls-5" d="M141.18,185.61c-.13.06-.34-.08-.41-.2A3.86,3.86,0,0,0,141.18,185.61Z" transform="translate(-4.52 -5.36)"/><path class="cls-5" d="M141.24,186.73c0,.14-.09.18-.17.08S141.18,186.76,141.24,186.73Z" transform="translate(-4.52 -5.36)"/><path class="cls-5" d="M141.54,186.55c.05,0,0,.14,0,.23C141.61,186.69,141.34,186.7,141.54,186.55Z" transform="translate(-4.52 -5.36)"/><path class="cls-5" d="M143,188c.06,0,.2-.07.2.1C143.21,188,142.91,188.23,143,188Z" transform="translate(-4.52 -5.36)"/><path class="cls-5" d="M144.06,188.07s0,0,.08,0,0,.17-.07.18Z" transform="translate(-4.52 -5.36)"/><polygon class="cls-5" points="137.84 179.64 137.69 179.6 137.8 179.51 137.84 179.64"/><path class="cls-5" d="M143.35,180.94c-.11.11-.1-.12-.13-.14S143.21,181,143.35,180.94Z" transform="translate(-4.52 -5.36)"/><polygon class="cls-5" points="137.06 178.51 137.06 178.49 137.36 178.5 137.06 178.51"/><path class="cls-5" d="M106.6,182.59c.08-.05,0-.26.07-.1S106.58,182.68,106.6,182.59Z" transform="translate(-4.52 -5.36)"/><path class="cls-5" d="M105.81,181.67a.52.52,0,0,1,.57-.51c.26,0,.5,0,.74-.21.06,0,0,.41.11.32.46-.62,1.34,0,1.36.65l-.09.08c0,.11.34-.11.38,0s-.1.06-.17.15c.19-.15.2,0,.36,0,0,.09-.21.2-.27.29l.25-.11c.32-.11.36,0,.36.13s0,.26.13.33a.43.43,0,0,0-.17,0c.46.27.36.85.31,1.32a1,1,0,0,0-.34-.13.37.37,0,0,1,.25.42c-.28-.1.12.34-.13.38l0-.05c.17.3-.24,0,0,.34l-.22-.1c.25.34-.27-.05-.2.17l.06.06c0,.14-.18,0-.21.1l0,0c-.11.2-.33,0-.18.32-.17-.2.12-.19-.15-.47a.49.49,0,0,1-.11.14,1.54,1.54,0,0,1-1.64.17.66.66,0,0,1,0-.31c-.07,0-.22,0-.35.07,0,0,.05-.16,0-.19s-.31.23-.33,0a.47.47,0,0,0,.23-.21c-.22.13-.32,0-.46,0a.5.5,0,0,0,.16-.1c-.31.1-.11-.2-.33-.18l.18-.07c.07-.26-.36.17-.34,0a.29.29,0,0,0,.19-.08c-.38.06-.41-.24-.56-.35l.07,0c-.1-.15,0-.34-.2-.52.08-.08.45,0,.38-.17-.38,0-.13-.31-.56-.25.08-.18.29-.39.21-.54.11.12.45.1.44.22h.24c.14.06-.07.05.11.1,0-.05-.07-.24,0-.26-.16-.18-.46-.51-.37-.71.06.16.35.21.37.3a3.17,3.17,0,0,1-.34-.69c.05-.06.22.21.23.06a.48.48,0,0,1-.1-.23s.23-.28.45,0c.1.11-.06.12.07.19s0-.18.17-.23l0,0c.09,0,.2-.24,0-.4-.07,0,.09.2,0,.14a.37.37,0,0,1,.33-.38.59.59,0,0,0,0,.27.93.93,0,0,1,.72-.51c0-.17-.15.3-.17.21.16.14.34.08.54.08s.39,0,.41.27c0,0,.12-.22.1-.17.13.12,0,.31.1.31-.08.11.13,0,.24.1s0,.07-.11,0c.2,0,.78.41.68.84.09-.05.41.12.42.22h-.23c-.11.1.06.29-.13.32.15.08.07-.09,0-.24s-.22-.25-.08-.17c-.17.09.43.24.11.25,0,.15.31.32.08.5,0-.06-.31-.14-.3,0s.11.07.16.28l.06.15c.22.06-.1.24.17.21-.17,0-.07.47-.4.26l-.23-.17c0,.09.18.31.21.48a.35.35,0,0,1-.13-.05c.32.31-.22.21-.13.55-.31.08-.66.35-.85.11-.14.18-.32.37-.55.28,0,0,.1-.06.11-.16-.14-.12-.16,0-.28.06s-.24-.28-.31-.46c-.17.09-.2.33-.25.47,0-.24-.15-.21-.31-.2s-.34,0-.32-.23c.1,0,.34-.05.28-.21.14-.43-.45.09-.5-.28a3.25,3.25,0,0,0-.23.29c.08-.23-.46-.26-.13-.43-.17,0-.05-.37-.36-.2a4.76,4.76,0,0,0-.07-.86.48.48,0,0,1,.43-.56c0-.07.06-.19-.12-.23s.09.19,0,.18-.08-.1-.13-.12c.13-.11.19-.19.42,0,.3-.14-.44-.54,0-.84.11.11.17.12.23,0a2,2,0,0,1,0-.35c.28-.14.33.17.49.36,0-.06.11-.11.15-.18l-.13.09a.21.21,0,0,0,0-.17l.29.17c-.2-.13,0-.17,0-.25v.08c.08.08.14,0,.18-.09a.32.32,0,0,0-.32-.12c0-.12.08-.15.09-.3.09.23.24.06.34,0s0-.24,0-.25.17,0,.15.16-.11-.09-.13,0,.17.28.24.08-.18-.46.06-.36a1.86,1.86,0,0,0,0,.26l.21.08,0-.22a.19.19,0,0,1,0,.1c0-.25.25-.13.26-.39.09,0,.22.12.3.15l0,0c.12.13.24,0,.34-.11v0a.28.28,0,0,0,.28-.12c.13.18,0,.83.13.58.12,0,.29-.36.26-.52.22.2.67,0,.77.4.08-.07.08-.13.18-.14.32.24,1,.3.87.84-.14,0-.16.15-.26.23.21-.06-.08.22.2,0s.23-.19.21-.34c.26.11.5.45.4.66,0-.11.12-.09.2-.07-.28.14-.25.31-.09.38h0l.18-.06-.15.16c.08,0,.41-.09.28.11a.61.61,0,0,0-.18.11c.18.07.51.23.37.43l-.27.17c0,.06.23.16.29,0-.14.3-.18.47-.42.54a1.3,1.3,0,0,1,.08,1.77l-.12-.09c-.2.07.18.2,0,.24-.1-.11-.32-.07-.41-.25-.22.08.08.35,0,.5.15.13,0-.16.15,0s-.29.14-.09.35a.79.79,0,0,1-.33-.3l0,.19c-.34-.13-.25-.64-.68-.79l0,.1c-.28-.15-.13-.38-.33-.3.06.15.31.5.46.52-.08.21.45.56.22.73-.17-.08.14-.18-.07-.32s-.09.27-.23.28c.16,0,.28.3.23.39-.2,0-.09-.27-.27-.17.08.15,0,.37.19.37.16.36-.24,0-.2.35-.19-.19-.13-.64-.39-.64.17.2-.08.45.21.73-.12,0-.22-.2-.23-.37-.18-.09-.11.57-.35.11l.05.26a1.9,1.9,0,0,1-.26-.22c-.1,0-.27.46-.35.06,0,.05-.29.07-.14.33s.15-.23.33.11c-.19-.27-.24.09-.34.21l0-.15c0,.07-.19.05-.22.22a.2.2,0,0,0,0-.23l0,.24c-.25.13-.08-.4-.31-.33l.17-.19s-.12-.17-.22-.11a6.35,6.35,0,0,1-.18.64c-.14.08,0-.25-.19,0l.19-.24c0-.08-.09-.36-.24-.38s-.33.34-.17.49a.2.2,0,0,1-.09-.31c-.2,0,0,.24-.21.33a5.51,5.51,0,0,1-.24-.64c.08-.09.17-.19.25-.3l-.1,0c.2-.24,0-.22.16-.49,0-.07-.13,0-.21.06,0,.52-.43.56-.56,1-.33,0,.3-1-.27-.56,0,.13-.3.35-.08.33-.13-.13-.33.33-.43,0,.23-.07.09-.47.42-.58-.09.12,0,.16.1.14,0-.18.22-.39.09-.46s-.22-.09-.33.12.14.06-.06.24c-.23-.05,0-.38-.37-.08.14.06,0,.29-.09.43l-.21,0,.13-.11c-.14-.28-.25.18-.45,0l.13-.33c.23-.17.21.35.47,0-.11-.12-.31,0-.35-.18.06,0,.1,0,.15,0s.36-.54,0-.44c-.18,0-.14.09-.27.21-.22-.17-.42-.13-.55-.27.3-.16-.15-.29.25-.32-.13.19.15.51.45.36.24-.34.1.19.43-.07-.13-.14.17-.4.35-.59,0-.05-.12,0-.17,0s-.16.19-.35.36a.52.52,0,0,0-.57-.26c.06-.13.28-.23.35-.18a.92.92,0,0,1-.3-.68c-.32.29-.17-.23-.45,0-.06.16-.27.39-.47.36,0-.1.17-.05.23-.12-.25-.06.28-.28-.08-.3.2.23.48-.08.8-.12-.21-.1.22-.05.18-.19a1,1,0,0,1-.42-.55c.3-.22.1-.6.18-.83.19,0,.49.16.58.1s-.38-.09-.15-.18l.05.05c0-.11.37-.15,0-.5l.27.28s0-.08,0-.13.21.12.24.21c.26.1.09-.17.18-.26a1.06,1.06,0,0,0-.2-.12c.06-.29.32-.2.51-.34l.06.22a1.3,1.3,0,0,1,.08-.17c0,.22.13.35.17.16a1.07,1.07,0,0,0-.1.57c-.09-.11,0-.27-.13-.47s-.27,0-.17.17c.06,0,0,0,0-.15.14.28.07.3.15.49,0,0,.08.06,0,0,0,.14,0,.18,0,.21s-.13-.14-.18-.21c.17.22.19.3.09.31-.29-.15.06.24,0,.25a1.18,1.18,0,0,1-.43-.46c-.16,0,0,.08-.21.09a5,5,0,0,1,.51.43l-.19-.08c.06.12.35.22.28.28a.48.48,0,0,0-.16.36l-.2,0c.43,0,.21.2.43.22-.12.24.32.19.07.46.31.15.59.18.79.39l-.19.23c.16-.16-.06.17,0,.16.06-.24.22-.22.33-.38,0,.27.29.1.42-.09l-.05.2c.18-.34.21,0,.35.06s0,.28.09.25a3.5,3.5,0,0,1,.14-.53.55.55,0,0,1,.26.14.62.62,0,0,1,.15-.42c.07-.09.17-.17.11-.35l.21.12c-.14-.25-.13-.28-.09-.37s.11-.17,0-.23h.42c.13-.07-.11-.13-.41-.07.12-.07-.21-.05.12-.17.06-.07-.21,0-.27,0l0,0c.09-.11,0-.14-.07-.14v0c.08,0,.23-.15.24-.19s0-.17-.35.2c.08-.13,0-.12-.06-.1s-.09,0,0-.15c-.06.12-.08.14-.12.22s0-.28-.14-.07c0-.07.06-.22,0-.24s0,.17-.05.24c-.1.24-.23-.25-.32-.15s0,.16,0,.17l-.61-.41c0,.08.25.17.13.13h0a.44.44,0,0,0-.2,0h0a.59.59,0,0,0,.18-.22v0c0-.08,0-.08,0,0v0a.41.41,0,0,0,0,.11h0a.47.47,0,0,0,.09.2s0,0,0,0a.86.86,0,0,0-.49-.08s-.15,0,0,0l.22-.05c.12,0,.15,0,0,0,.08,0-.17,0-.08,0-.13.05.47-.25.23-.17a2.56,2.56,0,0,1-.3.15c.15-.11.31-.32.13-.19l.11-.11c-.17.14-.2.22-.15.13a.37.37,0,0,0,0-.09h0c0,.14,0-.31,0,.31h0s0,.07,0,.14a1.31,1.31,0,0,0,.2.3s.14.09,0,0a1.2,1.2,0,0,0-.2,0h-.13l.52-.06h0v0s0,0,0,0,0,0,0,0,0,0,.07.14c.09.29.15.33.15.26v-.08a.34.34,0,0,0,.06.12c-.15-.28,0-.05-.14-.31.08,0,0-.08,0-.1a2.15,2.15,0,0,0,.25.11l-.18-.09.08,0a1.15,1.15,0,0,0-.28-.11c-.14,0,0,0,.06-.05s.15-.25,0-.26-.19-.07-.3,0c-.29-.49-1.07-.73-1.41-.2C105.92,182.77,105.58,182,105.81,181.67Z" transform="translate(-4.52 -5.36)"/><path class="cls-5" d="M106.54,182.61c0-.17-.05-.27,0-.48A3.81,3.81,0,0,1,106.54,182.61Z" transform="translate(-4.52 -5.36)"/><path class="cls-5" d="M104.3,184.13s0,.06-.07.08-.17-.05-.1-.11S104.23,184.12,104.3,184.13Z" transform="translate(-4.52 -5.36)"/><path class="cls-5" d="M104.56,185.06c-.13.06-.34-.07-.41-.2A2.58,2.58,0,0,0,104.56,185.06Z" transform="translate(-4.52 -5.36)"/><path class="cls-5" d="M104.63,186.18c0,.15-.1.18-.18.09S104.56,186.21,104.63,186.18Z" transform="translate(-4.52 -5.36)"/><path class="cls-5" d="M104.92,186c0,.06,0,.14,0,.23C105,186.14,104.72,186.15,104.92,186Z" transform="translate(-4.52 -5.36)"/><path class="cls-5" d="M106.41,187.49s.2-.07.19.1C106.59,187.47,106.29,187.68,106.41,187.49Z" transform="translate(-4.52 -5.36)"/><path class="cls-5" d="M107.44,187.52s0,0,.09,0a.13.13,0,0,1-.08.18Z" transform="translate(-4.52 -5.36)"/><polygon class="cls-5" points="101.22 179.09 101.07 179.05 101.19 178.96 101.22 179.09"/><path class="cls-5" d="M106.73,180.39c-.1.11-.1-.12-.13-.14S106.59,180.43,106.73,180.39Z" transform="translate(-4.52 -5.36)"/><polygon class="cls-5" points="100.45 177.96 100.44 177.94 100.74 177.95 100.45 177.96"/><path class="cls-5" d="M126.48,187.62c0-.11-.26,0-.1-.09S126.58,187.6,126.48,187.62Z" transform="translate(-4.52 -5.36)"/><path class="cls-5" d="M131.74,202.7c-.28.77-.69,0-1,.49,0,0,0-.42-.08-.32-.32.6-.82.24-1.21-.22l0-.12c-.08-.08-.17.31-.25.25a.75.75,0,0,0,0-.22c0,.24-.14.11-.18.29,0-.1,0-.28-.06-.39l0,.27c-.13.64-.3,0-.48.28a.5.5,0,0,0,0-.17c-.28.38-.63.3-.94.44a1.56,1.56,0,0,0,0-.38c0,.29-.12.36-.21.41,0-.29-.14.26-.24.1v-.06c-.08.3-.1-.18-.17.18l0-.23c0,.41-.1-.22-.17,0v.09c-.06.09-.08-.11-.13,0v0c-.12.1-.18-.13-.19.19,0-.26.12-.11.07-.49a1.6,1.6,0,0,1-1.22.22.82.82,0,0,1-.07-.29c0,.06-.15.05-.2.21a.45.45,0,0,0,0-.18c-.06-.12-.1.35-.17.2a.6.6,0,0,0,0-.31c-.08.25-.17.21-.26.28a.49.49,0,0,0,.05-.18c-.11.28-.16-.07-.25.1l0-.18c-.11-.23-.06.38-.16.24a.59.59,0,0,0,0-.2c-.12.33-.29.21-.42.31a.32.32,0,0,0,0-.08c-.13,0-.22-.07-.4.05,0-.08.16-.43,0-.38-.14.36-.27.13-.37.53-.1-.07-.2-.23-.34-.13.12-.12.2-.41.3-.43l.07-.22c.1-.14,0,.06.12-.13,0,0-.23.13-.23.07-.22.22-.56.54-.72.51.16-.09.23-.32.33-.37a1.1,1.1,0,0,1-.18.14,4.9,4.9,0,0,1-.48.31c-.05,0,.2-.21.07-.19a.49.49,0,0,1-.21.14s-.22-.1,0-.35c.1-.1.11,0,.18-.11s-.15,0-.2-.06l0,0c0-.07-.2-.06-.35.11,0,0,.18-.13.12,0s-.29,0-.33-.07a.88.88,0,0,0,.24-.1.64.64,0,0,1-.55-.16c-.17.08.3-.08.22,0,.2-.27-.39-.26,0-.55,0,0-.25.09-.2.07s.28-.17.19-.2c.15,0,0-.07-.09-.12s.07,0,.09,0a.45.45,0,0,1-.11-.65c-.1,0-.35-.14-.33-.2l.23,0c.14,0,0-.17.2-.16-.27-.12.18.41,0,.26.19,0-.35-.22,0-.17,0-.09-.23-.23,0-.29,0,0,.31.12.3,0s-.1,0-.16-.14l-.09-.07c-.22,0,0-.09-.21-.09.19,0-.08-.17.28-.1l.28.07c0-.05-.29-.13-.41-.19h.14c-.44-.09,0-.1-.27-.22.17-.06.06-.24.34-.22-.12-.1-.26-.2-.15-.26a.35.35,0,0,0,.14.07c.14,0,0-.06,0-.12a4.26,4.26,0,0,0,.44-.06,1.37,1.37,0,0,0-.49-.18c.44,0-.23-.26.18-.25.05,0,.18.16.3.13.45,0-.28-.21-.05-.26l-.36-.07c.23,0-.17-.2.19-.1-.12-.06.15-.09-.2-.17.33-.09-.06-.45.58-.38,0,0,0-.08-.15-.12s.12.09,0,.07-.1-.05-.14-.07.13-.06.4.07c.24-.06-.55-.29-.38-.39s.2.05.19,0l-.22-.15c.09-.08.34,0,.58.11,0-.06,0-.12-.17-.2l.32,0c-.23,0-.13-.09-.18-.13l0,0c.1,0,.06-.05,0-.09a.38.38,0,0,0-.28,0c-.1-.06-.06-.09-.18-.16.23.08.19,0,.23-.06s-.19-.12-.18-.13,0-.07.2,0-.13,0,0,.06.31.07.17,0-.46-.14-.29-.18l.23.12.14,0-.21-.07c.06,0,.07,0,.1,0-.21-.1,0-.15-.27-.25,0-.05.17,0,.21-.07l0,0c.14,0,.08-.1,0-.19l0,0s0-.1-.1-.17c.18,0,.81.24.56.08,0-.07-.35-.23-.49-.25.18-.07-.12-.33.24-.33-.08-.05-.13-.05-.17-.11.14-.14-.13-.45.33-.45.08.08.22.07.34.11-.18-.1.21,0-.11-.11a.78.78,0,0,0-.38-.07.2.2,0,0,1,.19-.3.28.28,0,0,1-.2-.08c.3.11.37.05.29,0l-.19-.07.21,0c-.06,0-.38-.16-.19-.16l.21.06c-.13-.12-.36-.29-.18-.3l.29,0a.35.35,0,0,0-.27-.12.83.83,0,0,1,.5-.08c-.51-.38-.44-.67-.32-.88l.14.06c.15,0-.23-.12-.12-.12s.3.05.45.15-.21-.19-.25-.27.1.09-.13,0c-.06,0,.19-.07-.09-.18a2.19,2.19,0,0,1,.43.15l-.12-.1c.34.05.53.35,1,.42l0-.07c.3.06.28.24.42.16a1.65,1.65,0,0,0-.64-.28c0-.13-.64-.28-.58-.38s0,.1.24.16-.08-.16,0-.18a.73.73,0,0,1-.42-.17c.15,0,.25.13.3,0-.15-.07-.25-.18-.38-.16-.35-.15.13-.05-.13-.19.26.06.56.29.71.24-.25-.07-.29-.23-.67-.3a1,1,0,0,1,.42.12c.17,0-.41-.27.08-.12l-.24-.11.3,0s-.29-.26.09-.13c0,0,0-.12-.26-.17s.17.14-.2,0c.3.06,0-.1-.09-.17l.15,0s0-.08-.16-.15a.49.49,0,0,0,.22.07l-.21-.1c-.08-.12.4.11.36,0l.15.13s.19,0,.13-.06l-.58-.26c-.08-.08.23.06,0-.06l.22.14c.07,0,.36.07.37,0a.74.74,0,0,0-.46-.19s.15,0,.29,0c0-.09-.23-.06-.33-.16h.58l.32.18v-.05c.26.15.22,0,.5.17.06,0,0-.09-.1-.14-.49-.06-.59-.31-1-.41-.07-.16,1.06.25.43-.09-.11,0-.42-.18-.32-.06.07-.06-.4-.19-.2-.22.15.12.45.06.67.24-.14-.05-.12,0-.09.05s.43.14.45.06,0-.13-.24-.19,0,.08-.23,0c0-.12.32,0-.1-.19,0,.07-.24,0-.4,0l-.08-.1.16.07c.15-.08-.29-.13-.21-.22l.33,0c.27.11-.17.12.29.24,0-.07-.18-.16,0-.19s0,.05.08.08.62.13.3-.07c-.12-.1-.15-.07-.32-.12,0-.13-.18-.21-.18-.29.32.11.07-.12.38.06-.2,0-.23.15.07.28s-.09.07.3.22c0-.09.42,0,.67.09,0,0-.07-.08-.11-.1-.23-.08-.24-.05-.48-.12.1-.08,0-.22-.22-.34a.66.66,0,0,1,.37.12.33.33,0,0,1,.14-.35c-.41,0-.06-.16-.39-.2a1,1,0,0,1-.56-.07s.17.05.26.06c-.2-.11.36,0,0-.12.09.14.46.15.76.26-.15-.13.21.06.24,0a1.06,1.06,0,0,1-.3-.37c.32,0,.08-.27.1-.38s.5.11.57.07-.38,0-.2-.1l.07,0c-.07-.05.28-.13-.21-.28l.37.12s0-.05-.08-.07a1.07,1.07,0,0,1,.31.08c.27,0,0-.14,0-.21h-.23c-.15-.15.09-.18,0-.3l.21.05-.11-.1c.2.06.35,0,.19,0l.49.29c-.14,0-.25-.11-.47-.13s-.16.1,0,.17c0,0,0-.05-.09-.1a1.33,1.33,0,0,1,.47.19s.1,0,0-.06c.14.07.15.12.14.19s-.19,0-.27-.05c.26.07.33.15.24.22-.32,0,.15.21,0,.29a2.16,2.16,0,0,1-.55-.3c-.15,0,0,.07-.16.1a2.16,2.16,0,0,1,.59.29l-.2-.05c.09.1.38.18.3.26a1.28,1.28,0,0,0-.24.41l-.2,0c.4.19.09.27.25.42-.23.09.09.39-.27.37a1.08,1.08,0,0,1,0,.85l-.27-.14c.2.12-.17,0-.14,0,.24,0,.27.16.43.25-.26.05-.07.29.09.46l-.19-.06c.32.23,0,.26-.14.38s-.28,0-.27,0c.29.18.25.21.41.39a.49.49,0,0,1-.3.22c.34.44,0,.66.11,1.05l-.23-.05c.38.46-.19.68,0,1l-.38-.16c-.15,0,0,.22.32.29-.15,0,.12.27-.22.21-.1.06.15.16.17.25-.2.11-.18.18-.16.36l0,0c-.08-.05-.24-.1-.28-.07s-.17.17.31.27c-.32.07.09.45-.33.49.13,0,.15.08.23.12s-.35.21-.17.4c-.07,0-.21-.11-.24-.06s.17.06.22.12c.16.31-.39.39-.39.62.12.45-.11.79-.17,1.16l-.09,0c.33.21-.45.17.07.41-.1,0-.07.1-.24,0,.23.16-.31.2,0,.41,0,0,0,0,0,0-.25.08,0,.27-.21.37a.38.38,0,0,0-.16-.08c-.19,0,.38.22-.09.15,0,0,.23.07.22,0a.51.51,0,0,0-.09.48l.07.25,0,.13,0,0c-.3.06-.8,0-.46.06h.08c.13,0-.54.08-.29.1a2.92,2.92,0,0,1,.35,0c-.2.08-.47.17-.25.17l-.16,0c.44,0,.2.1.72-.09,0,.07.18.08.29,0a.4.4,0,0,0,.19-.18,0,0,0,0,0,0,0H125a3.18,3.18,0,0,1,1.13.18c.17.41.18.4.38.24a.34.34,0,0,0,0,.14c0-.33.14,0,.17-.34a4,4,0,0,0,.85,0s-.08.3,0,.28l.06-.21v.09a.39.39,0,0,0,0-.31c.75-.27,1.47.4,2.19.32.17.14.42,0,.61,0,.54.44,1.06.79,1.6.47C132,201.65,132,202.5,131.74,202.7Z" transform="translate(-4.52 -5.36)"/><path class="cls-5" d="M126.49,187.74a1,1,0,0,1-.47-.07C126.17,187.7,126.35,187.7,126.49,187.74Z" transform="translate(-4.52 -5.36)"/><path class="cls-5" d="M124.43,189s-.07,0-.1,0-.13-.08,0-.07S124.37,189,124.43,189Z" transform="translate(-4.52 -5.36)"/><path class="cls-5" d="M124.21,189.4a.3.3,0,0,1-.22-.22Z" transform="translate(-4.52 -5.36)"/><path class="cls-5" d="M123.52,189.62c-.13,0-.19,0-.17-.08A.89.89,0,0,1,123.52,189.62Z" transform="translate(-4.52 -5.36)"/><path class="cls-5" d="M123.83,189.74s-.09,0-.18,0C123.77,189.79,123.6,189.66,123.83,189.74Z" transform="translate(-4.52 -5.36)"/><path class="cls-5" d="M123.16,190.45s.11.11,0,.07C123.22,190.54,123,190.37,123.16,190.45Z" transform="translate(-4.52 -5.36)"/><path class="cls-5" d="M123.25,190.91s0,0,0,0-.17-.05-.17-.08Z" transform="translate(-4.52 -5.36)"/><polygon class="cls-5" points="116.91 193.1 116.86 193.04 116.99 193.08 116.91 193.1"/><path class="cls-5" d="M121.11,202.59c.1,0-.11.12-.12.14S121.15,202.65,121.11,202.59Z" transform="translate(-4.52 -5.36)"/><polygon class="cls-5" points="118.86 197.85 118.84 197.85 118.95 197.56 118.86 197.85"/><path class="cls-5" d="M113.77,209.27c-.13,0-.13.23-.13,0S113.81,209.17,113.77,209.27Z" transform="translate(-4.52 -5.36)"/><path class="cls-5" d="M140.33,211.06c.23.81-.65.55-.64,1.18,0,.06-.26-.33-.27-.18.08.71-.61.87-1.28.75l0-.11c-.13,0,0,.36-.09.37s0-.11-.13-.18c.12.2-.07.19,0,.35-.09-.05-.19-.21-.29-.26l.11.25c.25.61-.33.17-.31.57a.53.53,0,0,0-.08-.15c-.07.5-.43.72-.7,1a1.23,1.23,0,0,0-.19-.33.41.41,0,0,1,0,.47c-.19-.23,0,.31-.21.23l0-.06c.07.31-.2-.09-.09.27l-.16-.18c.17.38-.21-.12-.18.1l.05.07c0,.12-.15,0-.17.05l0,0c-.08.17-.26,0-.11.29-.16-.2.07-.17-.17-.46a1.89,1.89,0,0,1-1.23.87.86.86,0,0,1-.21-.22c0,.07-.14.12-.12.29a.4.4,0,0,0-.12-.15c-.13-.08,0,.37-.11.27a.59.59,0,0,0-.07-.3c0,.27-.11.27-.17.39a.81.81,0,0,0,0-.19c0,.3-.21,0-.23.22l0-.19c-.22-.15.08.38-.08.31a.58.58,0,0,0-.05-.21c0,.37-.24.31-.32.45a.2.2,0,0,0,0-.07c-.12.07-.28,0-.39.19-.07-.07-.1-.44-.22-.34.1.36-.19.21,0,.6-.13,0-.35-.12-.4,0,0-.15-.17-.43-.08-.49l-.12-.2c0-.15.09,0,0-.15,0,0-.15.21-.2.16,0,.25,0,.7-.18.77,0-.16-.12-.4-.09-.47l-.08.73s-.06-.29-.12-.18a.64.64,0,0,1,0,.24s-.2.12-.28-.24c0-.14.07-.09,0-.21s-.08.14-.18.16v0c-.06,0-.16.18-.06.37,0,0,0-.21,0-.12s-.12.3-.22.31a.71.71,0,0,0,0-.26,1.12,1.12,0,0,1-.36.55c0,.17,0-.32.06-.24-.21-.21-.36.4-.54.06,0,0,0,.24,0,.2s-.1-.28-.16-.18c0-.15-.07,0-.13.09s0-.07,0-.09c-.07.13-.42.35-.62.14,0,.1-.12.36-.17.35l0-.23c0-.14-.15,0-.15-.18-.11.28.37-.24.24,0,0-.19-.19.36-.16,0-.09,0-.18.27-.27.05,0,0,.09-.31,0-.3s0,.11-.14.19l-.07.09c0,.22-.12,0-.08.22,0-.18-.2.11-.17-.26l0-.29c-.06,0-.11.31-.16.43a.28.28,0,0,1,0-.13c0,.44-.13-.06-.23.28-.1-.17-.3,0-.32-.34-.11.13-.21.28-.3.17a.34.34,0,0,0,.07-.15c-.05-.13-.08,0-.15.05s-.09-.28-.14-.45a1.34,1.34,0,0,0-.14.51c0-.44-.3.25-.34-.16,0-.05.17-.19.11-.31,0-.45-.22.3-.31.07l0,.36c0-.22-.23.17-.14-.19-.07.12-.13-.16-.19.2-.15-.35-.56,0-.54-.61,0,.05-.11,0-.14.16s.11-.12.09,0,0,.1-.07.15-.09-.14,0-.41c-.08-.25-.3.55-.45.37.05-.14.05-.2,0-.19l-.18.22c-.1-.09,0-.34.1-.58-.08,0-.15,0-.24.16l0-.32c0,.24-.09.13-.14.18l0,0c0-.11-.07-.07-.12-.05a.38.38,0,0,0,0,.29c-.06.1-.1.05-.18.16.08-.23,0-.2-.09-.24s-.14.18-.15.17-.09,0,0-.21,0,.14.08,0,.06-.31-.06-.18-.14.46-.21.27a1.27,1.27,0,0,0,.14-.21l-.06-.16-.08.21a.41.41,0,0,1,0-.1c-.11.21-.18,0-.3.25-.06,0,0-.19-.1-.23h0c0-.15-.12-.1-.23,0l0-.05s-.12,0-.21.08c0-.18.28-.79.09-.56-.09,0-.29.33-.31.47-.1-.19-.41.07-.41-.31-.05.07-.06.13-.13.16-.18-.19-.57,0-.55-.46.1,0,.1-.2.15-.31-.14.15,0-.22-.14.08s-.13.27-.1.37c-.18,0-.38-.05-.37-.26a.23.23,0,0,1-.11.19c.15-.29.08-.37,0-.31l-.1.17,0-.2c-.06,0-.22.35-.2.15a1.14,1.14,0,0,0,.07-.19c-.14.1-.37.28-.37.09l.07-.29a.29.29,0,0,0-.17.24c0-.23-.12-.3,0-.54a.8.8,0,0,1-1.11,0l.08-.12c0-.16-.17.19-.17.08s.11-.29.25-.41c0-.19-.26.15-.36.16-.11.16.12-.07,0,.13s-.05-.22-.22,0a1.51,1.51,0,0,1,.25-.37l-.14.08c.11-.34.49-.41.64-.82h-.08c.11-.29.32-.2.25-.38a1.32,1.32,0,0,0-.43.55c-.16,0-.43.55-.55.45.06-.17.13,0,.23-.19s-.19,0-.2-.08a.58.58,0,0,1-.28.37c0-.16.19-.2.11-.29-.11.13-.26.17-.25.32-.25.3,0-.15-.26.06.12-.24.44-.45.41-.63-.12.22-.32.2-.48.56a.7.7,0,0,1,.23-.37c0-.18-.41.29-.14-.15l-.17.21c0-.08,0-.16.09-.29s-.37.18-.14-.15c0,0-.15-.07-.26.19s.2-.11,0,.23c.12-.29-.13,0-.23,0l.08-.13c-.06,0-.1,0-.21.09a.35.35,0,0,0,.12-.19l-.16.17c-.17,0,.21-.35.08-.37l.18-.09s0-.19,0-.16-.32.35-.44.47.12-.22-.06-.08l.22-.16c0-.05.16-.32.09-.37s-.35.23-.34.37c0,0,0-.16.1-.27-.12,0-.12.2-.27.25,0-.14.09-.37.16-.58l.28-.23,0,0c.23-.18.1-.2.31-.42,0-.06-.1,0-.18,0-.2.47-.51.46-.75.83-.21,0,.57-.92,0-.47,0,.1-.32.32-.16.29,0-.11-.32.31-.31.09.18-.09.2-.42.46-.55-.09.11,0,.13,0,.11s.28-.35.2-.41-.15-.05-.29.14.1,0-.09.22c-.16,0,.06-.33-.26,0,.09,0,0,.24-.16.38l-.14,0,.11-.12c0-.19-.22.22-.31.09l.15-.3c.2-.21.09.23.36-.16-.06-.07-.24.1-.23,0l.11,0s.34-.54,0-.35c-.14.07-.12.12-.23.26-.15-.06-.3.05-.39,0,.23-.25-.12-.14.19-.34-.09.19.09.31.34.09s.06.13.34-.17c-.09-.09.16-.4.31-.61,0,0-.11,0-.15.05a4,4,0,0,0-.28.4c-.07-.13-.25-.11-.46,0,0-.13.21-.31.26-.29a.56.56,0,0,1-.35-.34c-.18.37-.19,0-.35.27a.79.79,0,0,1-.27.49c0-.05.11-.13.15-.21-.19.12.14-.34-.13-.11.2,0,.34-.36.56-.58-.19.07.15-.17.07-.24a1.13,1.13,0,0,1-.52.07c.08-.32-.28-.25-.38-.32s.32-.41.3-.5-.2.33-.19.12l.06,0c-.09,0,0-.34-.39,0l.29-.27s-.07,0-.11,0,.13-.2.22-.23c.11-.25-.15-.08-.23-.13l-.11.21c-.22,0-.15-.2-.31-.24l.16-.16-.16,0c.16-.14.2-.3,0-.19l.52-.26c0,.14-.23.15-.34.34s0,.21.19.06c0-.05-.06,0-.14,0,.2-.24.24-.18.41-.31,0,0,0-.1-.06,0,.14-.07.19-.06.26,0-.12.06-.1.17-.18.22.19-.2.3-.21.33-.08-.15.28.28,0,.31.12a1.75,1.75,0,0,1-.54.34c0,.15.07.05,0,.2.16-.13.39-.35.55-.37l-.13.15c.13,0,.33-.24.38-.12a1.62,1.62,0,0,0,.33.44l-.12.16c.34-.28.32.06.53,0,0,.27.44.11.29.44a1.71,1.71,0,0,1,.91.42l-.22.2c.18-.13-.08.16,0,.16.09-.23.25-.19.4-.31,0,.28.29.2.52.11l-.12.17c.34-.23.27.14.37.29s-.12.26-.06.27a1.2,1.2,0,0,1,.52-.26.52.52,0,0,1,.18.37c.57-.18.72.27,1.18.25l-.1.21c.58-.25.73.37,1.14.3l-.23.34c0,.16.25,0,.36-.25,0,.16.31-.05.21.27,0,.12.19-.11.29-.12.11.22.19.22.39.23l0,0c-.06.07-.13.23-.1.27s.18.21.33-.26c.06.34.51,0,.53.41,0-.13.09-.13.14-.2s.23.37.44.21c0,.07-.13.2-.07.23s.07-.16.14-.21c.35-.14.44.43.7.46a4,4,0,0,1,1.33.19l0,.09c.22-.33.24.46.47-.06,0,.1.11.07,0,.25.16-.23.27.29.49,0,0,0,0,0-.05.05.13.23.31,0,.46.17a.44.44,0,0,0-.08.17c0,.19.21-.39.19.08,0,0,.06-.23,0-.22a.78.78,0,0,0,.58.07c.21-.06.41-.17.6-.22.28.28,0,.79.24.44,0,.09,0-.18,0-.08.08-.13.14.52.2.28s0-.17,0-.34c.18.19.23.45.36.23V216c.14-.42.34-.22.43-.73.43-.11.84-.25,1.23-.39a11.55,11.55,0,0,1,1.15-.51,3.32,3.32,0,0,0,1.17-.4,4.5,4.5,0,0,1,1.21-.37c.35.26.37.24.49,0a.31.31,0,0,0,.06.13c-.14-.3.12-.11,0-.4a4.79,4.79,0,0,0,.81-.48c0,.05.09.3.13.25l-.05-.21.06.07a.36.36,0,0,0-.13-.29c.55-.67,1.58-.64,2.23-1.18.24,0,.38-.31.5-.5.77-.08,1.47-.21,1.77-.87C139.9,210.06,140.42,210.73,140.33,211.06Z" transform="translate(-4.52 -5.36)"/><path class="cls-5" d="M113.9,209.33c-.1.14-.1.26-.29.38C113.71,209.59,113.79,209.44,113.9,209.33Z" transform="translate(-4.52 -5.36)"/><path class="cls-5" d="M114.4,212s0,.07,0,.09-.13.08-.1,0S114.35,212.07,114.4,212Z" transform="translate(-4.52 -5.36)"/><path class="cls-5" d="M114.78,212.46a.34.34,0,0,1-.34.09Z" transform="translate(-4.52 -5.36)"/><path class="cls-5" d="M114.8,213.27c0,.12-.09.17-.14.12A.75.75,0,0,1,114.8,213.27Z" transform="translate(-4.52 -5.36)"/><path class="cls-5" d="M115,213s0,.11,0,.19C115.08,213.12,114.88,213.21,115,213Z" transform="translate(-4.52 -5.36)"/><path class="cls-5" d="M115.7,214.07s.15,0,.08.09C115.82,214.05,115.56,214.23,115.7,214.07Z" transform="translate(-4.52 -5.36)"/><path class="cls-5" d="M116.27,214.22s0,0,0,0a.24.24,0,0,1-.14.14Z" transform="translate(-4.52 -5.36)"/><polygon class="cls-5" points="120.99 212.48 120.92 212.54 120.95 212.4 120.99 212.48"/><path class="cls-5" d="M129.92,218c.05-.1.06.13.07.15S130,217.92,129.92,218Z" transform="translate(-4.52 -5.36)"/><polygon class="cls-5" points="127.54 211.43 127.53 211.44 127.45 211.15 127.54 211.43"/></svg>